<svg width="406" height="405" viewBox="0 0 406 405" fill="none" xmlns="http://www.w3.org/2000/svg">
<g clip-path="url(#clip0_158_2)">
<path d="M368.71 192.189H37.19C34.4396 192.189 32.21 194.419 32.21 197.169V207.109C32.21 209.86 34.4396 212.089 37.19 212.089H368.71C371.46 212.089 373.69 209.86 373.69 207.109V197.169C373.69 194.419 371.46 192.189 368.71 192.189Z" fill="white"/>
<path d="M213.46 191.98L240.01 86.8302C240.51 84.8302 243.35 84.8202 243.87 86.8202L286.13 250.04L305.82 325.15C306.52 327.82 309.26 329.4 311.92 328.69L321.53 326.12C324.18 325.41 325.75 322.7 325.05 320.05L305.38 245.02C305.38 245.02 259.41 67.5302 252.11 39.4502C251.54 37.2602 249.56 35.7302 247.3 35.7302C244.08 35.7302 239.51 35.7302 236.29 35.7302C234.02 35.7302 232.04 37.2702 231.48 39.4702C226.63 58.5502 204.99 144.19 204.99 144.19C204.48 146.19 201.64 146.19 201.13 144.19C201.13 144.19 179.49 58.5702 174.64 39.4802C174.06 37.2102 171.99 35.6502 169.63 35.7402C166.62 35.8602 161.7 35.6602 158.69 35.7402C156.48 35.8002 154.57 37.3102 154.01 39.4602C146.71 67.5402 100.75 245 100.75 245L81.6698 320.45C80.9698 323.1 82.5498 325.81 85.1898 326.52L94.7998 329.09C97.4598 329.8 100.2 328.22 100.9 325.55L120 250.02L162.25 86.8302C162.77 84.8402 165.6 84.8402 166.11 86.8402L192.66 191.99C192.74 192.31 192.74 192.64 192.66 192.96L152.36 352.47C151.01 357.8 155.35 358.92 160.68 360.26C166.01 361.61 170.32 362.67 171.66 357.34L201.12 240.76C201.63 238.76 204.47 238.76 204.98 240.76L234.38 357.34C235.73 362.67 240.1 361.6 245.43 360.26C250.76 358.91 255.03 357.8 253.68 352.47L213.45 192.96C213.37 192.64 213.37 192.31 213.45 191.99L213.46 191.98Z" fill="white"/>
<path d="M72.2299 48.2997C72.2299 48.2997 72.2299 48.2997 72.2399 48.2997C72.6399 47.9897 73.2099 48.0497 73.5299 48.4497C73.5299 48.4497 73.5299 48.4497 73.5299 48.4597L86.0199 64.2697C86.3299 64.6697 86.2699 65.2397 85.8699 65.5597C85.4699 65.8797 84.8999 65.8097 84.5799 65.4097C84.5799 65.4097 84.5799 65.4097 84.5799 65.3997L72.0899 49.5897C72.0899 49.5897 72.0899 49.5897 72.0899 49.5797C71.7799 49.1897 71.8399 48.6197 72.2299 48.2997ZM74.1499 46.7797C74.4499 46.5397 74.9499 46.5297 75.2599 46.7597L84.6499 53.4097L80.3499 42.7397C80.1999 42.3897 80.3299 41.9097 80.6299 41.6697C81.0299 41.3597 81.5999 41.4197 81.9199 41.8197C81.9699 41.8797 82.0299 41.9897 82.0599 42.0597L87.1599 54.7197C87.2999 55.0697 87.1699 55.5497 86.8799 55.7797L86.4499 56.1197C86.1499 56.3597 85.6599 56.3697 85.3499 56.1497L74.2099 48.2597C74.1499 48.2197 74.0599 48.1297 74.0099 48.0697C73.6999 47.6697 73.7599 47.0997 74.1599 46.7797H74.1499ZM82.5299 40.1697C82.5299 40.1697 82.5299 40.1697 82.5399 40.1697C82.9399 39.8597 83.5099 39.9197 83.8299 40.3197C83.8299 40.3197 83.8299 40.3197 83.8299 40.3297L96.3199 56.1397C96.3199 56.1397 96.3199 56.1397 96.3199 56.1497C96.6299 56.5497 96.5699 57.1197 96.1699 57.4397C95.7699 57.7497 95.1999 57.6897 94.8799 57.2897L82.3899 41.4797C82.0799 41.0897 82.1399 40.5197 82.5299 40.1997V40.1697Z" fill="white" stroke="white" stroke-width="1.05" stroke-miterlimit="10"/>
<path d="M95.2498 31.3191C97.5298 29.8891 100.3 30.5091 102.42 31.8191C104.53 33.1191 106.1 35.0091 107.36 37.0091C108.62 39.0091 109.64 41.2491 109.89 43.7191C110.14 46.1991 109.49 48.9591 107.21 50.3891C104.93 51.8191 102.16 51.1991 100.04 49.8891C97.9298 48.5891 96.3598 46.6991 95.0998 44.6991C93.8398 42.6991 92.8198 40.4591 92.5698 37.9891C92.3198 35.5091 92.9698 32.7491 95.2498 31.3191ZM96.2198 32.8691C94.7198 33.8091 94.1898 35.7691 94.3898 37.8091C94.5998 39.8791 95.4798 41.8691 96.6498 43.7291C97.8198 45.5891 99.2198 47.2491 100.99 48.3391C102.73 49.4091 104.74 49.7791 106.23 48.8391C107.73 47.8991 108.26 45.9391 108.06 43.8991C107.85 41.8291 106.97 39.8391 105.8 37.9791C104.63 36.1191 103.23 34.4591 101.46 33.3691C99.7198 32.2991 97.7098 31.9291 96.2198 32.8691Z" fill="white" stroke="white" stroke-width="1.05" stroke-miterlimit="10"/>
<path d="M109.78 23.2388L118.76 18.8788C119.21 18.6588 119.76 18.8488 119.98 19.2988C120.03 19.4088 120.07 19.5888 120.07 19.7088L119.82 40.7488L128.37 36.5988C128.37 36.5988 128.37 36.5988 128.38 36.5988C128.84 36.3788 129.38 36.5688 129.6 37.0188C129.82 37.4688 129.63 38.0188 129.18 38.2388C129.18 38.2388 129.18 38.2388 129.17 38.2388L119.28 43.0388C118.82 43.2588 118.28 43.0688 118.06 42.6188C118.01 42.5088 117.97 42.3288 117.97 42.2088L118.22 21.1688L110.57 24.8788H110.56C110.11 25.1088 109.56 24.9188 109.34 24.4588C109.12 23.9988 109.31 23.4588 109.76 23.2388C109.76 23.2388 109.76 23.2388 109.77 23.2388H109.78Z" fill="white" stroke="white" stroke-width="1.05" stroke-miterlimit="10"/>
<path d="M134.89 12.3597C134.93 12.3497 135 12.3297 135.04 12.3197L138.61 11.0397C138.61 11.0397 138.61 11.0397 138.62 11.0397C139.1 10.8697 139.62 11.1197 139.79 11.5897C139.96 12.0597 139.71 12.5897 139.24 12.7597C139.24 12.7597 139.24 12.7597 139.23 12.7597L136.38 13.7797L142.55 31.0197L146 29.7897C146 29.7897 146 29.7897 146.01 29.7897C146.49 29.6197 147.01 29.8697 147.18 30.3397C147.35 30.8197 147.1 31.3397 146.63 31.5097C146.63 31.5097 146.63 31.5097 146.62 31.5097L142.45 32.9997C142.45 32.9997 142.35 33.0497 142.31 33.0597C142.27 33.0697 142.2 33.0897 142.16 33.0997L137.99 34.5897C137.99 34.5897 137.99 34.5897 137.98 34.5897C137.5 34.7597 136.98 34.5097 136.81 34.0397C136.64 33.5597 136.89 33.0397 137.36 32.8697C137.36 32.8697 137.36 32.8697 137.37 32.8697L140.82 31.6397L134.65 14.3997L131.81 15.4197C131.81 15.4197 131.81 15.4197 131.8 15.4197C131.32 15.5897 130.8 15.3397 130.63 14.8697C130.46 14.3897 130.71 13.8697 131.18 13.6997C131.18 13.6997 131.18 13.6997 131.19 13.6997L134.76 12.4197C134.76 12.4197 134.85 12.3797 134.88 12.3597H134.89Z" fill="white" stroke="white" stroke-width="1.05" stroke-miterlimit="10"/>
<path d="M150.67 7.33834H150.68C151.17 7.21834 151.67 7.52834 151.78 8.01834C151.78 8.01834 151.78 8.01834 151.78 8.02834L156.26 26.7383L166.95 24.1783C166.95 24.1783 166.95 24.1783 166.96 24.1783C167.45 24.0583 167.95 24.3683 168.06 24.8583C168.18 25.3483 167.87 25.8483 167.38 25.9583H167.37L155.79 28.7283C155.3 28.8483 154.8 28.5383 154.69 28.0483L150 8.44834C150 8.44834 150 8.44834 150 8.43834C149.88 7.95834 150.18 7.45834 150.66 7.33834H150.67Z" fill="white" stroke="white" stroke-width="1.05" stroke-miterlimit="10"/>
<path d="M172.23 2.79906C172.23 2.79906 172.23 2.79906 172.24 2.79906C172.74 2.73906 173.2 3.08906 173.26 3.58906C173.26 3.58906 173.26 3.58906 173.26 3.59906L175.67 22.6791L186.57 21.2991C186.57 21.2991 186.57 21.2991 186.58 21.2991C187.08 21.2391 187.54 21.5891 187.6 22.0891C187.66 22.5891 187.31 23.0491 186.81 23.1091C186.81 23.1091 186.81 23.1091 186.8 23.1091L174.99 24.5991C174.49 24.6591 174.03 24.3091 173.97 23.8091L171.44 3.81906C171.44 3.81906 171.44 3.81906 171.44 3.80906C171.38 3.31906 171.73 2.85906 172.22 2.78906L172.23 2.79906Z" fill="white" stroke="white" stroke-width="1.05" stroke-miterlimit="10"/>
<path d="M200.76 0.529297C201.14 0.529297 201.54 0.829297 201.64 1.1993L205.39 14.0993C205.43 14.1793 205.46 14.3093 205.47 14.3893L207.47 21.2593C207.49 21.3293 207.51 21.4393 207.51 21.5093C207.51 22.0093 207.11 22.4293 206.61 22.4393C206.22 22.4393 205.82 22.1493 205.71 21.7693L203.87 15.4193L199.9 15.4893L195.93 15.5493L194.3 21.9593C194.21 22.3393 193.82 22.6493 193.42 22.6593C192.92 22.6593 192.5 22.2593 192.49 21.7593C192.49 21.6893 192.5 21.5693 192.52 21.5093L194.29 14.5793C194.29 14.4993 194.33 14.3693 194.36 14.2893L197.68 1.2793C197.77 0.919297 198.14 0.599297 198.51 0.579297C198.52 0.579297 198.54 0.579297 198.55 0.579297C199.05 0.579297 199.47 0.969297 199.48 1.4793C199.48 1.5493 199.47 1.6693 199.45 1.7293L196.39 13.7193L199.86 13.6593L203.33 13.5993L199.88 1.7193C199.86 1.6493 199.84 1.5393 199.84 1.4693C199.84 0.959297 200.24 0.549297 200.74 0.539297H200.76V0.529297Z" fill="white" stroke="white" stroke-width="1.05" stroke-miterlimit="10"/>
<path d="M244.4 2.7093C244.4 2.7093 244.42 2.7093 244.43 2.7093C246.29 3.0993 247.93 4.2193 248.94 5.8493C249.82 7.2593 250.14 8.9593 249.81 10.5793C249.73 10.9593 249.62 11.3293 249.46 11.6893C248.21 14.6793 244.71 16.0593 241.93 17.2593C239.39 18.3593 237.07 19.7893 235.97 22.0293C235.74 22.4993 235.57 23.0093 235.42 23.5593L245.53 25.6693C245.53 25.6693 245.53 25.6693 245.54 25.6693C246.03 25.7693 246.35 26.2593 246.25 26.7493C246.15 27.2493 245.66 27.5593 245.17 27.4593C245.17 27.4593 245.17 27.4593 245.16 27.4593L234.13 25.1593C233.63 25.0593 233.32 24.5693 233.42 24.0793C233.61 23.1393 233.86 22.1693 234.32 21.2293C235.72 18.3593 238.51 16.7393 241.2 15.5793C243.98 14.3793 246.94 12.9493 247.77 10.9793C247.88 10.7293 247.96 10.4693 248.01 10.1993C248.25 9.0593 248.01 7.8493 247.38 6.8093C246.64 5.6193 245.43 4.7893 244.05 4.4993C244.05 4.4993 244.04 4.4993 244.03 4.4993C241.4 3.9493 238.82 5.3493 238.32 7.7893C238.32 7.7893 238.32 7.7893 238.32 7.7993C238.22 8.2993 237.73 8.6093 237.24 8.5093C236.74 8.4093 236.43 7.9193 236.53 7.4293C236.53 7.4293 236.53 7.4293 236.53 7.4193C237.26 3.9193 240.91 1.9793 244.41 2.7093H244.4Z" fill="white" stroke="white" stroke-width="1.05" stroke-miterlimit="10"/>
<path d="M265.56 8.31875C266.66 8.65875 267.89 9.10875 268.83 10.1087C270.18 11.5287 270.43 13.4587 270.37 15.1687C270.29 17.5987 269.65 19.8987 268.97 22.1087C268.29 24.3087 267.53 26.5787 266.22 28.6287C265.3 30.0687 264.01 31.5187 262.1 31.9387C260.76 32.2287 259.49 31.9187 258.39 31.5787C257.29 31.2387 256.06 30.7887 255.12 29.7887C253.78 28.3687 253.52 26.4387 253.58 24.7287C253.66 22.2987 254.3 19.9987 254.98 17.7887C255.66 15.5887 256.42 13.3187 257.73 11.2687C258.65 9.82875 259.94 8.37875 261.85 7.95875C263.19 7.66875 264.46 7.97875 265.56 8.31875ZM265.02 10.0687C264.01 9.75875 263.06 9.56875 262.24 9.74875C261.04 10.0087 260.07 11.0087 259.27 12.2487C258.12 14.0587 257.4 16.1587 256.73 18.3287C256.06 20.4987 255.48 22.6387 255.41 24.7787C255.36 26.2587 255.61 27.6287 256.45 28.5187C257.03 29.1287 257.92 29.5087 258.93 29.8187C259.94 30.1287 260.89 30.3187 261.71 30.1387C262.91 29.8787 263.88 28.8787 264.68 27.6287C265.83 25.8187 266.55 23.7187 267.22 21.5487C267.89 19.3787 268.47 17.2387 268.54 15.0987C268.58 13.6187 268.34 12.2487 267.5 11.3587C266.92 10.7487 266.03 10.3687 265.02 10.0587V10.0687Z" fill="white" stroke="white" stroke-width="1.05" stroke-miterlimit="10"/>
<path d="M286.63 16.3796C286.63 16.3796 286.65 16.3796 286.65 16.3896C288.38 17.1696 289.75 18.6096 290.39 20.4196C290.94 21.9896 290.9 23.7096 290.23 25.2196C290.07 25.5696 289.88 25.9096 289.65 26.2296C287.79 28.8796 284.08 29.4796 281.11 30.0596C278.39 30.5896 275.82 31.4896 274.27 33.4496C273.95 33.8596 273.67 34.3296 273.41 34.8296L282.84 39.0496C282.84 39.0496 282.84 39.0496 282.85 39.0496C283.31 39.2596 283.52 39.7996 283.31 40.2596C283.1 40.7196 282.56 40.9296 282.1 40.7196C282.1 40.7196 282.1 40.7196 282.09 40.7196L271.81 36.1196C271.35 35.9096 271.14 35.3696 271.35 34.9096C271.74 34.0396 272.19 33.1396 272.84 32.3196C274.83 29.8096 277.89 28.8296 280.77 28.2696C283.74 27.6896 286.94 26.9296 288.17 25.1896C288.33 24.9596 288.46 24.7296 288.57 24.4796C289.05 23.4196 289.08 22.1796 288.68 21.0396C288.21 19.7196 287.21 18.6496 285.92 18.0696C285.92 18.0696 285.91 18.0696 285.9 18.0696C283.44 16.9696 280.63 17.7896 279.61 20.0596C279.61 20.0596 279.61 20.0596 279.61 20.0696C279.4 20.5296 278.86 20.7396 278.4 20.5296C277.94 20.3196 277.73 19.7796 277.94 19.3196C277.94 19.3196 277.94 19.3196 277.94 19.3096C279.4 16.0496 283.38 14.9396 286.64 16.3996L286.63 16.3796Z" fill="white" stroke="white" stroke-width="1.05" stroke-miterlimit="10"/>
<path d="M302.4 24.5087L310.54 29.2687C310.54 29.2687 310.54 29.2687 310.55 29.2687C310.99 29.5187 311.13 30.0887 310.88 30.5187C310.63 30.9587 310.06 31.0987 309.63 30.8487C309.63 30.8487 309.63 30.8487 309.62 30.8487L302.23 26.5187L298.77 31.7287C299.03 31.8687 299.28 32.0087 299.54 32.1487C300.48 32.6987 301.37 33.3387 302.21 34.0487C303.55 35.1987 304.85 36.6687 305.18 38.6287C305.43 40.1187 305.05 41.5787 304.32 42.8187C304.25 42.9287 304.18 43.0487 304.11 43.1587C302.94 44.9387 301.09 46.0787 299.11 46.6187C296.32 47.3787 293.37 46.9587 290.92 45.5287C290.38 45.2087 289.87 44.8487 289.38 44.4387C289.05 44.1687 288.96 43.6387 289.17 43.2687C289.43 42.8287 289.99 42.6887 290.42 42.9387C290.46 42.9587 290.53 43.0087 290.56 43.0387C290.96 43.3787 291.39 43.6887 291.83 43.9487C293.86 45.1387 296.3 45.4787 298.61 44.8487C300.24 44.4087 301.68 43.4887 302.56 42.1487C302.61 42.0687 302.67 41.9787 302.72 41.8887C303.27 40.9587 303.52 39.9187 303.35 38.9287C303.13 37.6087 302.18 36.4487 300.99 35.4287C300.24 34.7887 299.44 34.2087 298.58 33.7087C298.08 33.4187 297.56 33.1487 297.03 32.9087C297.01 32.8987 296.97 32.8787 296.94 32.8687C296.5 32.6187 296.36 32.0487 296.61 31.6187C296.61 31.6087 296.63 31.5887 296.64 31.5787L301.15 24.7787C301.41 24.3787 301.96 24.2487 302.38 24.4987L302.4 24.5087Z" fill="white" stroke="white" stroke-width="1.05" stroke-miterlimit="10"/>
<path d="M338.82 62.6893C338.75 63.6993 338.31 64.6293 337.52 65.4793C336.73 66.3193 335.83 66.8193 334.83 66.9593C333.44 67.1593 332.18 66.7393 331.06 65.6993C329.94 64.6593 329.44 63.4293 329.55 62.0293C329.62 61.0193 330.06 60.0893 330.84 59.2393C331.63 58.3993 332.53 57.8993 333.54 57.7593C334.93 57.5593 336.19 57.9793 337.31 59.0193C338.43 60.0593 338.93 61.2893 338.82 62.6893Z" fill="white" stroke="white" stroke-width="1.05" stroke-miterlimit="10"/>
<path d="M371.42 90.8183C371.42 90.8183 371.42 90.8184 371.42 90.8284C371.7 91.2484 371.6 91.8183 371.18 92.0983C371.18 92.0983 371.18 92.0983 371.17 92.0983L358.31 100.868C357.28 101.568 356.04 102.048 354.71 102.028C353.11 101.998 351.59 101.238 350.68 99.8984C350.65 99.8584 350.63 99.8183 350.6 99.7783C349.76 98.4583 349.64 96.8284 350.21 95.3984C350.7 94.1584 351.64 93.2384 352.64 92.5484L353.17 92.1884C353.17 92.1884 353.17 92.1884 353.18 92.1884C353.6 91.9084 354.17 92.0084 354.45 92.4284C354.74 92.8484 354.63 93.4183 354.21 93.6983C354.21 93.6983 354.21 93.6983 354.2 93.6983L353.67 94.0583C352.87 94.6083 352.22 95.2783 351.91 96.0683C351.55 96.9783 351.63 97.9884 352.14 98.7884C352.16 98.8184 352.17 98.8384 352.19 98.8584C352.75 99.6784 353.71 100.168 354.74 100.188C355.61 100.208 356.49 99.8883 357.27 99.3483L370.13 90.5784C370.13 90.5784 370.13 90.5784 370.14 90.5784C370.55 90.2984 371.12 90.3983 371.4 90.8083L371.42 90.8183Z" fill="white" stroke="white" stroke-width="1.05" stroke-miterlimit="10"/>
<path d="M381.65 107.499C382.91 109.869 382.1 112.589 380.65 114.619C379.21 116.629 377.21 118.069 375.13 119.179C373.05 120.289 370.74 121.159 368.27 121.229C365.78 121.309 363.07 120.469 361.8 118.089C360.54 115.719 361.35 112.999 362.8 110.969C364.24 108.959 366.24 107.519 368.32 106.409C370.4 105.299 372.71 104.439 375.18 104.359C377.67 104.279 380.38 105.119 381.65 107.499ZM380.04 108.369C379.21 106.809 377.29 106.139 375.25 106.199C373.17 106.259 371.13 106.999 369.19 108.039C367.25 109.069 365.51 110.349 364.29 112.049C363.1 113.709 362.59 115.679 363.42 117.239C364.25 118.799 366.17 119.469 368.21 119.409C370.29 119.349 372.33 118.609 374.27 117.569C376.2 116.539 377.95 115.259 379.17 113.559C380.36 111.899 380.87 109.929 380.04 108.369Z" fill="white" stroke="white" stroke-width="1.05" stroke-miterlimit="10"/>
<path d="M390.73 127.559C390.75 127.599 390.77 127.669 390.78 127.709L392.19 131.219C392.19 131.219 392.19 131.219 392.19 131.229C392.38 131.699 392.15 132.229 391.68 132.419C391.21 132.609 390.68 132.379 390.49 131.909C390.49 131.909 390.49 131.909 390.49 131.899L389.36 129.099L372.37 135.919L373.74 139.319C373.74 139.319 373.74 139.319 373.74 139.329C373.93 139.799 373.7 140.329 373.23 140.519C372.76 140.709 372.23 140.479 372.04 140.009C372.04 140.009 372.04 140.009 372.04 139.999L370.39 135.889C370.39 135.889 370.34 135.789 370.32 135.749C370.3 135.709 370.28 135.649 370.28 135.609L368.63 131.499C368.63 131.499 368.63 131.499 368.63 131.489C368.44 131.019 368.67 130.489 369.14 130.299C369.61 130.109 370.14 130.339 370.33 130.809C370.33 130.809 370.33 130.809 370.33 130.819L371.7 134.219L388.69 127.399L387.57 124.599C387.57 124.599 387.57 124.599 387.57 124.589C387.38 124.119 387.61 123.589 388.08 123.399C388.55 123.209 389.08 123.439 389.27 123.909C389.27 123.909 389.27 123.909 389.27 123.919L390.68 127.439C390.68 127.439 390.73 127.519 390.74 127.559H390.73Z" fill="white" stroke="white" stroke-width="1.05" stroke-miterlimit="10"/>
<path d="M396.21 142.67C396.21 142.67 396.21 142.67 396.21 142.68C396.34 143.17 396.06 143.67 395.57 143.81C395.57 143.81 395.57 143.81 395.56 143.81L376.16 149.25C376.16 149.25 376.16 149.25 376.15 149.25C375.66 149.39 375.16 149.1 375.02 148.62C374.88 148.13 375.17 147.63 375.65 147.49H375.66L395.06 142.05C395.06 142.05 395.06 142.05 395.07 142.05C395.55 141.92 396.05 142.19 396.19 142.67H396.21ZM396.84 144.92C396.92 145.26 396.76 145.69 396.47 145.89L379.05 158.39C378.98 158.44 378.84 158.51 378.75 158.54C378.26 158.68 377.76 158.39 377.62 157.91C377.52 157.56 377.68 157.12 377.98 156.91L395.4 144.41C395.48 144.35 395.61 144.29 395.7 144.26C396.19 144.12 396.69 144.41 396.83 144.89C396.83 144.89 396.83 144.91 396.83 144.92H396.84ZM399.43 154.14C399.43 154.14 399.43 154.14 399.43 154.15C399.57 154.64 399.28 155.14 398.8 155.28C398.8 155.28 398.8 155.28 398.79 155.28L379.39 160.72H379.38C378.89 160.86 378.39 160.57 378.25 160.09C378.12 159.6 378.4 159.1 378.89 158.96C378.89 158.96 378.89 158.96 378.9 158.96L398.3 153.52C398.3 153.52 398.3 153.52 398.31 153.52C398.79 153.39 399.3 153.66 399.44 154.14H399.43Z" fill="white" stroke="white" stroke-width="1.05" stroke-miterlimit="10"/>
<path d="M405.04 192.309C405.04 192.349 405.04 192.419 405.04 192.459L405.37 198.709C405.37 198.709 405.37 198.709 405.37 198.719C405.4 199.219 405.01 199.659 404.5 199.679C404 199.709 403.56 199.319 403.54 198.809C403.54 198.809 403.54 198.809 403.54 198.799L403.25 193.309L384.05 194.319C384.05 194.319 384.05 194.319 384.04 194.319C383.54 194.349 383.1 193.959 383.08 193.449C383.05 192.949 383.44 192.509 383.95 192.489C383.95 192.489 383.95 192.489 383.96 192.489L403.16 191.479L402.87 185.989C402.87 185.989 402.87 185.989 402.87 185.979C402.84 185.479 403.23 185.039 403.74 185.019C404.25 184.989 404.68 185.379 404.7 185.889L405.03 192.159C405.03 192.199 405.05 192.259 405.05 192.289L405.04 192.309Z" fill="white" stroke="white" stroke-width="1.05" stroke-miterlimit="10"/>
<path d="M405.3 208.889C405.27 209.409 404.84 209.789 404.33 209.769C404.33 209.769 404.33 209.769 404.32 209.769L395.76 209.279L395.23 218.419L403.8 218.909C403.8 218.909 403.8 218.909 403.81 218.909C404.31 218.939 404.69 219.369 404.67 219.859C404.64 220.379 404.21 220.759 403.7 220.739C403.7 220.739 403.7 220.739 403.69 220.739L394.36 220.199C394.36 220.199 394.25 220.199 394.21 220.199C394.17 220.199 394.1 220.189 394.06 220.179L383.58 219.579H383.57C383.07 219.549 382.68 219.119 382.71 218.609C382.74 218.109 383.17 217.719 383.68 217.749C383.68 217.749 383.68 217.749 383.69 217.749L393.41 218.309L393.94 209.169L384.22 208.609H384.21C383.71 208.579 383.32 208.149 383.35 207.639C383.38 207.139 383.81 206.749 384.32 206.779C384.32 206.779 384.32 206.779 384.33 206.779L394.81 207.379C394.81 207.379 394.92 207.379 394.96 207.379C395 207.379 395.07 207.389 395.11 207.399L404.44 207.939C404.44 207.939 404.44 207.939 404.45 207.939C404.95 207.969 405.33 208.399 405.31 208.889H405.3Z" fill="white" stroke="white" stroke-width="1.05" stroke-miterlimit="10"/>
<path d="M403.34 231.37C403.34 231.41 403.32 231.48 403.3 231.52L401.5 242.21C401.5 242.21 401.5 242.21 401.5 242.22C401.42 242.72 400.94 243.06 400.44 242.97C399.94 242.89 399.61 242.41 399.69 241.91C399.69 241.91 399.69 241.91 399.69 241.9L401.36 231.97L393.8 230.7L392.39 239.1C392.39 239.1 392.39 239.1 392.39 239.11C392.31 239.61 391.83 239.94 391.33 239.86C390.83 239.78 390.5 239.3 390.58 238.81C390.58 238.81 390.58 238.81 390.58 238.8L391.99 230.4L383.29 228.94L381.62 238.87C381.62 238.87 381.62 238.87 381.62 238.88C381.54 239.38 381.06 239.72 380.56 239.63C380.06 239.55 379.73 239.07 379.81 238.57C379.81 238.57 379.81 238.57 379.81 238.56L381.61 227.87C381.61 227.87 381.61 227.76 381.62 227.72C381.66 227.51 381.83 227.24 382.01 227.12C382.18 227 382.49 226.93 382.69 226.96C382.73 226.96 382.8 226.98 382.84 227L393.05 228.72C393.05 228.72 393.16 228.72 393.2 228.73C393.24 228.73 393.31 228.75 393.35 228.77L402.42 230.3C402.42 230.3 402.52 230.3 402.56 230.31C402.76 230.34 403.02 230.5 403.14 230.66C403.14 230.66 403.15 230.67 403.15 230.68C403.27 230.85 403.35 231.16 403.32 231.37H403.34Z" fill="white" stroke="white" stroke-width="1.05" stroke-miterlimit="10"/>
<path d="M392.29 274.299L390.71 278.199C390.05 279.829 389 281.469 387.21 282.279C385.67 282.979 383.94 282.869 382.45 282.259C380.96 281.659 379.64 280.539 379.02 278.959C378.62 277.939 378.56 276.889 378.71 275.879L368.84 277.299C368.7 277.319 368.48 277.299 368.35 277.239C367.88 277.049 367.66 276.519 367.85 276.049C367.96 275.779 368.29 275.519 368.58 275.489L379.21 273.949C379.25 273.829 379.3 273.709 379.35 273.589L380.59 270.539L372.43 267.229H372.42C371.95 267.039 371.72 266.499 371.92 266.029C372.11 265.559 372.64 265.339 373.11 265.529C373.11 265.529 373.11 265.529 373.12 265.529L382 269.129C382 269.129 382.1 269.159 382.14 269.169C382.18 269.189 382.24 269.219 382.27 269.239L391.79 273.099C392.26 273.289 392.48 273.819 392.29 274.289V274.299ZM390.25 274.459L382.29 271.229L381.05 274.279C380.49 275.669 380.26 277.089 380.73 278.289C381.13 279.319 382.03 280.109 383.14 280.559C384.25 281.009 385.45 281.059 386.45 280.599C387.62 280.069 388.45 278.889 389.01 277.499L390.25 274.439V274.459Z" fill="white" stroke="white" stroke-width="1.05" stroke-miterlimit="10"/>
<path d="M383.37 294.61C383.35 294.65 383.31 294.71 383.29 294.74L378.15 304.28C378.15 304.28 378.15 304.28 378.15 304.29C377.91 304.73 377.35 304.9 376.91 304.66C376.47 304.42 376.3 303.86 376.54 303.42C376.54 303.42 376.54 303.42 376.54 303.41L381.31 294.54L374.56 290.91L370.52 298.41C370.52 298.41 370.52 298.41 370.52 298.42C370.28 298.87 369.73 299.03 369.28 298.79C368.83 298.55 368.67 298 368.91 297.55C368.91 297.55 368.91 297.55 368.91 297.54L372.95 290.04L365.18 285.86L360.41 294.73C360.41 294.73 360.41 294.73 360.41 294.74C360.17 295.18 359.61 295.35 359.17 295.11C358.72 294.87 358.56 294.32 358.8 293.87C358.8 293.87 358.8 293.87 358.8 293.86L363.93 284.32C363.93 284.32 363.97 284.22 363.99 284.18C364.09 283.99 364.34 283.79 364.55 283.73C364.75 283.67 365.06 283.7 365.25 283.8C365.29 283.82 365.34 283.86 365.38 283.88L374.49 288.78C374.49 288.78 374.59 288.82 374.63 288.84C374.67 288.86 374.72 288.9 374.76 288.92L382.86 293.28C382.86 293.28 382.96 293.32 382.99 293.34C383.17 293.44 383.36 293.67 383.43 293.86V293.88C383.49 294.08 383.47 294.39 383.37 294.58V294.61Z" fill="white" stroke="white" stroke-width="1.05" stroke-miterlimit="10"/>
<path d="M373.16 312.49C373.14 312.53 373.09 312.58 373.06 312.61L369.51 317.76C368.68 318.97 367.43 319.99 365.84 320.22C364.3 320.44 362.87 319.86 361.73 319.07C360.58 318.28 359.53 317.15 359.19 315.63C359.15 315.43 359.11 315.23 359.1 315.03C358.53 315.4 357.9 315.69 357.19 315.85C355.5 316.24 353.77 315.8 352.4 314.85C351.02 313.9 350 312.44 349.77 310.73C349.49 308.67 350.37 306.81 351.42 305.28L354.98 300.12C354.98 300.12 355.03 300.03 355.05 300C355.16 299.84 355.41 299.67 355.6 299.63C355.82 299.58 356.15 299.63 356.34 299.77C356.37 299.79 356.43 299.84 356.46 299.87L364.98 305.74C364.98 305.74 365.08 305.79 365.11 305.82C365.14 305.84 365.2 305.89 365.23 305.92L372.8 311.14C372.8 311.14 372.89 311.19 372.92 311.21C373.09 311.32 373.25 311.58 373.3 311.77V311.79C373.34 312 373.28 312.3 373.16 312.48V312.49ZM363.3 306.82L356.04 301.82L352.92 306.34C352 307.68 351.38 309.12 351.57 310.5C351.73 311.65 352.42 312.67 353.43 313.37C354.44 314.06 355.64 314.35 356.77 314.09C358.13 313.77 359.26 312.69 360.18 311.35L363.3 306.83V306.82ZM371.11 312.21L364.8 307.86L361.68 312.38C361.06 313.28 360.76 314.31 360.97 315.24C361.17 316.15 361.85 316.94 362.76 317.57C363.67 318.19 364.65 318.55 365.57 318.42C366.52 318.28 367.37 317.64 367.99 316.73L371.11 312.21Z" fill="white" stroke="white" stroke-width="1.05" stroke-miterlimit="10"/>
<path d="M359.29 331.459C359.26 331.489 359.21 331.539 359.18 331.569L352.09 339.769C351.76 340.149 351.18 340.189 350.8 339.859C350.42 339.529 350.38 338.949 350.71 338.569L357.3 330.949L351.5 325.939L345.93 332.379C345.6 332.759 345.02 332.799 344.64 332.469C344.26 332.139 344.22 331.559 344.55 331.179L350.12 324.739L343.45 318.969L336.86 326.589C336.53 326.969 335.95 327.009 335.57 326.679C335.19 326.349 335.15 325.769 335.48 325.389C335.48 325.389 335.48 325.389 335.48 325.379L342.57 317.179C342.57 317.179 342.63 317.089 342.66 317.059C342.8 316.899 343.09 316.749 343.3 316.739C343.51 316.729 343.81 316.819 343.96 316.959C343.99 316.989 344.04 317.039 344.07 317.069L351.9 323.839C351.9 323.839 351.99 323.899 352.02 323.929C352.05 323.959 352.1 324.009 352.13 324.039L359.09 330.059C359.09 330.059 359.18 330.119 359.21 330.139C359.36 330.269 359.5 330.539 359.52 330.739V330.759C359.54 330.969 359.44 331.269 359.31 331.439L359.29 331.459Z" fill="white" stroke="white" stroke-width="1.05" stroke-miterlimit="10"/>
<path d="M344.76 347.319C344.76 347.319 344.76 347.319 344.75 347.319C344.38 347.659 343.8 347.639 343.46 347.269L330.38 333.169L322.33 340.649C322.33 340.649 322.33 340.649 322.32 340.649C321.95 340.989 321.37 340.969 321.03 340.599C320.69 340.229 320.71 339.649 321.08 339.309L329.81 331.209C330.18 330.869 330.76 330.889 331.1 331.259L344.81 346.029C345.15 346.389 345.13 346.969 344.77 347.309L344.76 347.319Z" fill="white" stroke="white" stroke-width="1.05" stroke-miterlimit="10"/>
<path d="M328.22 361.86C328.22 361.86 328.22 361.86 328.21 361.86C327.8 362.16 327.23 362.08 326.93 361.67C326.93 361.67 326.93 361.67 326.93 361.66L315.45 346.23L306.63 352.79C306.63 352.79 306.63 352.79 306.62 352.79C306.21 353.09 305.64 353.01 305.34 352.6C305.04 352.19 305.12 351.62 305.53 351.32C305.53 351.32 305.53 351.32 305.54 351.32L315.09 344.22C315.5 343.92 316.07 344 316.37 344.41L328.39 360.58C328.39 360.58 328.39 360.58 328.39 360.59C328.69 360.99 328.61 361.56 328.21 361.86H328.22Z" fill="white"/>
<path d="M328.21 361.86C328.22 361.86 328.22 361.86 328.22 361.86H328.21ZM328.21 361.86C327.8 362.16 327.23 362.08 326.93 361.67C326.93 361.67 326.93 361.67 326.93 361.66L315.45 346.23L306.63 352.79C306.63 352.79 306.63 352.79 306.62 352.79C306.21 353.09 305.64 353.01 305.34 352.6C305.04 352.19 305.12 351.62 305.53 351.32C305.53 351.32 305.53 351.32 305.54 351.32L315.09 344.22C315.5 343.92 316.07 344 316.37 344.41L328.39 360.58C328.39 360.58 328.39 360.58 328.39 360.59C328.69 360.99 328.61 361.56 328.21 361.86Z" stroke="white" stroke-width="1.05" stroke-miterlimit="10"/>
<path d="M305.46 377.289C305.42 377.309 305.36 377.339 305.32 377.359L302.05 379.279C301.61 379.539 301.05 379.389 300.8 378.949C300.54 378.509 300.69 377.949 301.13 377.699C301.13 377.699 301.13 377.699 301.14 377.699L303.75 376.169L294.48 360.369L291.32 362.219C291.32 362.219 291.32 362.219 291.31 362.219C290.87 362.479 290.31 362.329 290.06 361.889C289.8 361.449 289.95 360.889 290.39 360.639C290.39 360.639 290.39 360.639 290.4 360.639L294.22 358.399C294.22 358.399 294.31 358.329 294.34 358.309C294.38 358.289 294.44 358.259 294.48 358.239L298.3 355.999C298.3 355.999 298.3 355.999 298.31 355.999C298.75 355.739 299.31 355.889 299.56 356.329C299.82 356.769 299.67 357.329 299.23 357.579C299.23 357.579 299.23 357.579 299.22 357.579L296.06 359.429L305.33 375.229L307.94 373.699C307.94 373.699 307.94 373.699 307.95 373.699C308.39 373.439 308.95 373.589 309.2 374.029C309.46 374.469 309.31 375.029 308.87 375.279C308.87 375.279 308.87 375.279 308.86 375.279L305.59 377.199C305.59 377.199 305.51 377.259 305.48 377.279L305.46 377.289Z" fill="white" stroke="white" stroke-width="1.05" stroke-miterlimit="10"/>
<path d="M286.01 387.619C283.56 388.719 280.9 387.729 278.97 386.149C277.06 384.579 275.76 382.479 274.79 380.329C273.82 378.179 273.12 375.819 273.21 373.339C273.3 370.849 274.32 368.199 276.78 367.099C279.23 365.999 281.89 366.989 283.82 368.569C285.73 370.139 287.03 372.229 288 374.389C288.97 376.549 289.67 378.899 289.58 381.379C289.49 383.869 288.47 386.519 286.01 387.619ZM285.25 385.949C286.86 385.229 287.66 383.349 287.74 381.309C287.82 379.229 287.22 377.139 286.32 375.139C285.42 373.139 284.26 371.309 282.65 369.979C281.07 368.679 279.14 368.039 277.53 368.759C275.92 369.479 275.12 371.359 275.04 373.399C274.96 375.479 275.56 377.569 276.46 379.569C277.36 381.569 278.52 383.399 280.13 384.729C281.71 386.029 283.64 386.669 285.25 385.949Z" fill="white" stroke="white" stroke-width="1.05" stroke-miterlimit="10"/>
<path d="M259.73 397.15C259.73 397.15 259.73 397.15 259.72 397.15C259.24 397.31 258.72 397.04 258.56 396.56C258.56 396.56 258.56 396.56 258.56 396.55L252.33 377.39C252.33 377.39 252.33 377.39 252.33 377.38C252.17 376.9 252.44 376.38 252.92 376.23C253.4 376.07 253.92 376.34 254.08 376.82C254.08 376.82 254.08 376.82 254.08 376.83L260.31 395.99C260.31 395.99 260.31 395.99 260.31 396C260.47 396.47 260.21 396.99 259.74 397.15H259.73ZM268.84 394.19C268.51 394.28 268.07 394.14 267.86 393.86L254.67 376.97C254.61 376.9 254.54 376.77 254.51 376.68C254.35 376.2 254.62 375.68 255.1 375.53C255.44 375.42 255.9 375.56 256.11 375.85L269.3 392.74C269.36 392.81 269.43 392.94 269.46 393.03C269.62 393.51 269.35 394.03 268.87 394.18C268.87 394.18 268.85 394.18 268.84 394.19ZM271.06 393.47H271.05C270.57 393.63 270.05 393.36 269.9 392.88C269.9 392.88 269.9 392.88 269.9 392.87L263.67 373.71C263.67 373.71 263.67 373.71 263.67 373.7C263.51 373.22 263.78 372.7 264.26 372.55C264.74 372.39 265.26 372.66 265.41 373.14C265.41 373.14 265.41 373.14 265.41 373.15L271.64 392.31C271.64 392.31 271.64 392.31 271.64 392.32C271.79 392.79 271.54 393.31 271.07 393.47H271.06Z" fill="white" stroke="white" stroke-width="1.05" stroke-miterlimit="10"/>
<path d="M217.51 397.548C216.8 396.818 216.39 395.878 216.28 394.728C216.17 393.578 216.4 392.578 216.96 391.728C217.73 390.548 218.88 389.888 220.4 389.748C221.92 389.608 223.17 390.038 224.15 391.058C224.86 391.788 225.27 392.728 225.38 393.878C225.49 395.028 225.26 396.028 224.7 396.878C223.93 398.058 222.78 398.718 221.26 398.858C219.74 398.998 218.49 398.568 217.51 397.548Z" fill="white" stroke="white" stroke-width="1.05" stroke-miterlimit="10"/>
<path d="M175.81 403.659C173.48 403.359 171.51 401.709 170.84 399.419C170.81 399.309 170.79 399.139 170.81 399.029C170.88 398.529 171.33 398.169 171.84 398.239C172.17 398.279 172.52 398.579 172.61 398.899C173.08 400.489 174.43 401.629 176.05 401.839C176.19 401.859 176.33 401.869 176.47 401.869C178.27 401.919 179.92 400.819 181.05 399.199C182.22 397.509 182.76 395.409 183.04 393.209C183.32 391.019 183.34 388.849 182.64 386.909C181.96 385.059 180.64 383.569 178.89 383.169C178.75 383.139 178.62 383.109 178.48 383.099C176.86 382.889 175.26 383.649 174.41 385.069C174.24 385.359 173.83 385.559 173.5 385.519C173 385.459 172.64 384.999 172.71 384.489C172.72 384.379 172.78 384.219 172.84 384.119C174.07 382.079 176.39 380.979 178.72 381.279C178.92 381.299 179.11 381.339 179.31 381.379C181.81 381.959 183.53 383.999 184.37 386.279C185.23 388.629 185.17 391.109 184.87 393.439C184.57 395.769 184 398.179 182.57 400.239C181.19 402.229 179 403.769 176.44 403.699C176.28 403.699 176.12 403.679 175.96 403.669C175.92 403.669 175.89 403.669 175.85 403.659H175.81Z" fill="white" stroke="white" stroke-width="1.05" stroke-miterlimit="10"/>
<path d="M160.95 400.849C160.95 400.849 160.95 400.849 160.94 400.849C160.45 400.729 160.15 400.239 160.27 399.739C160.27 399.739 160.27 399.739 160.27 399.729L162.29 391.389L153.39 389.239L151.37 397.579C151.37 397.579 151.37 397.579 151.37 397.589C151.25 398.069 150.76 398.379 150.28 398.269H150.27C149.78 398.149 149.48 397.659 149.6 397.169C149.6 397.169 149.6 397.169 149.6 397.159L151.8 388.079C151.8 388.079 151.81 387.969 151.82 387.929C151.83 387.889 151.85 387.819 151.87 387.789L154.34 377.579C154.34 377.579 154.34 377.579 154.34 377.569C154.46 377.079 154.95 376.779 155.45 376.899C155.94 377.019 156.24 377.509 156.12 378.009C156.12 378.009 156.12 378.009 156.12 378.019L153.83 387.479L162.73 389.629L165.02 380.169C165.02 380.169 165.02 380.169 165.02 380.159C165.14 379.669 165.63 379.369 166.12 379.489C166.61 379.609 166.91 380.099 166.8 380.599C166.8 380.599 166.8 380.599 166.8 380.609L164.33 390.819C164.33 390.819 164.32 390.929 164.31 390.969C164.3 391.009 164.28 391.079 164.26 391.109L162.06 400.189C162.06 400.189 162.06 400.189 162.06 400.199C161.94 400.679 161.45 400.989 160.97 400.879L160.95 400.849Z" fill="white" stroke="white" stroke-width="1.05" stroke-miterlimit="10"/>
<path d="M134.46 393.499C131.93 392.589 130.7 390.029 130.42 387.549C130.14 385.089 130.65 382.679 131.45 380.459C132.25 378.239 133.37 376.049 135.16 374.329C136.95 372.599 139.53 371.399 142.06 372.309C144.59 373.219 145.82 375.779 146.1 378.249C146.38 380.709 145.87 383.119 145.07 385.339C144.27 387.559 143.14 389.749 141.36 391.469C139.57 393.199 136.99 394.399 134.46 393.489V393.499ZM135.08 391.769C136.74 392.369 138.62 391.569 140.09 390.149C141.59 388.699 142.6 386.789 143.35 384.719C144.09 382.649 144.53 380.529 144.29 378.459C144.05 376.429 143.11 374.619 141.45 374.029C139.79 373.429 137.91 374.229 136.44 375.649C134.94 377.099 133.93 379.009 133.18 381.079C132.44 383.149 132 385.269 132.24 387.339C132.48 389.369 133.42 391.179 135.08 391.769Z" fill="white" stroke="white" stroke-width="1.05" stroke-miterlimit="10"/>
<path d="M114.12 384.919C111.7 383.739 110.76 381.059 110.74 378.569C110.72 376.089 111.5 373.759 112.53 371.639C113.57 369.519 114.92 367.459 116.88 365.949C118.85 364.429 121.54 363.509 123.96 364.689C126.38 365.869 127.32 368.549 127.34 371.039C127.36 373.519 126.58 375.849 125.55 377.979C124.52 380.099 123.16 382.149 121.2 383.669C119.23 385.189 116.54 386.109 114.12 384.929V384.919ZM114.92 383.279C116.51 384.049 118.46 383.469 120.08 382.219C121.73 380.949 122.94 379.149 123.9 377.179C124.86 375.209 125.52 373.139 125.51 371.059C125.5 369.009 124.75 367.119 123.17 366.349C121.59 365.579 119.63 366.159 118.01 367.409C116.36 368.679 115.15 370.479 114.19 372.449C113.23 374.419 112.57 376.489 112.58 378.569C112.59 380.619 113.34 382.509 114.93 383.279H114.92Z" fill="white" stroke="white" stroke-width="1.05" stroke-miterlimit="10"/>
<path d="M94.8601 374.22C94.8601 374.22 94.8301 374.2 94.8201 374.2C92.8401 372.95 91.8001 370.64 92.1701 368.33C92.1901 368.23 92.2401 368.07 92.3001 367.98C92.5701 367.55 93.1401 367.42 93.5601 367.69C93.8501 367.87 94.0301 368.29 93.9701 368.63C93.7101 370.22 94.4301 371.8 95.7801 372.66C95.7801 372.66 95.8001 372.67 95.8101 372.68C96.7201 373.24 97.8201 373.4 98.8501 373.12C99.7601 372.87 100.52 372.3 100.99 371.55C101.21 371.2 101.37 370.81 101.45 370.39C101.76 368.82 100.91 367.17 99.8801 365.48C99.1101 364.23 98.3401 362.85 97.9301 361.38C97.5301 359.91 97.5301 358.29 98.4301 356.86C99.2801 355.52 100.66 354.64 102.18 354.33C103.79 354.01 105.45 354.35 106.82 355.2C106.84 355.21 106.86 355.22 106.87 355.23C109.25 356.73 110.51 359.52 110.07 362.3C110.06 362.41 109.99 362.56 109.94 362.65C109.67 363.08 109.1 363.21 108.68 362.94C108.39 362.76 108.21 362.34 108.27 362.01C108.6 359.95 107.67 357.89 105.91 356.78C105.9 356.78 105.88 356.76 105.87 356.75C104.86 356.13 103.68 355.89 102.54 356.12C101.47 356.33 100.54 356.94 99.9801 357.83C99.4001 358.76 99.3701 359.73 99.6901 360.89C100.01 362.05 100.7 363.32 101.44 364.52C102.51 366.26 103.71 368.35 103.25 370.73C103.12 371.38 102.88 371.98 102.54 372.52C101.82 373.66 100.67 374.51 99.3301 374.88C97.8101 375.3 96.1801 375.07 94.8401 374.24L94.8601 374.22Z" fill="white" stroke="white" stroke-width="1.05" stroke-miterlimit="10"/>
<path d="M80.8899 364.34C80.8599 364.31 80.8099 364.27 80.7799 364.23L72.2899 357.48C71.8899 357.17 71.8299 356.59 72.1399 356.19C72.4599 355.79 73.0299 355.73 73.4299 356.04L81.3199 362.31L86.0899 356.31L79.4199 351.01C79.4199 351.01 79.4199 351.01 79.4099 351.01C79.0099 350.7 78.9499 350.12 79.2599 349.72C79.5799 349.32 80.1499 349.26 80.5499 349.57L87.2199 354.87L92.7099 347.96L84.8199 341.69C84.8199 341.69 84.8199 341.69 84.8099 341.69C84.4199 341.38 84.3499 340.8 84.6599 340.4C84.9799 340 85.5499 339.94 85.9499 340.25C85.9499 340.25 85.9499 340.25 85.9599 340.25L94.4499 347C94.4499 347 94.5399 347.06 94.5699 347.08C94.7399 347.21 94.8899 347.5 94.9099 347.71C94.9299 347.92 94.8499 348.22 94.7199 348.38C94.6899 348.41 94.6499 348.46 94.6199 348.49L88.1799 356.59C88.1799 356.59 88.1199 356.68 88.0999 356.72C88.0699 356.75 88.0299 356.8 87.9999 356.83L82.2699 364.03C82.2699 364.03 82.2099 364.12 82.1899 364.15C82.0599 364.31 81.7999 364.46 81.6099 364.49C81.6099 364.49 81.5899 364.49 81.5799 364.49C81.3699 364.52 81.0699 364.44 80.8999 364.31L80.8899 364.34Z" fill="white" stroke="white" stroke-width="1.05" stroke-miterlimit="10"/>
<path d="M49.0098 334.269C48.8198 334.029 48.7598 333.609 48.8798 333.329L52.7998 323.929L42.7698 325.739C42.4698 325.799 42.0698 325.649 41.8798 325.409C41.5598 325.019 41.6298 324.439 42.0198 324.119C42.1198 324.039 42.3098 323.949 42.4398 323.929L53.8898 321.859L61.2898 315.909C61.2898 315.909 61.2898 315.909 61.2998 315.909C61.6898 315.589 62.2698 315.659 62.5898 316.049C62.9098 316.439 62.8498 317.019 62.4498 317.339C62.4498 317.339 62.4498 317.339 62.4398 317.339L55.0398 323.289L50.5698 334.029C50.5198 334.149 50.3998 334.319 50.2898 334.399C49.8998 334.709 49.3298 334.649 49.0098 334.269Z" fill="white" stroke="white" stroke-width="1.05" stroke-miterlimit="10"/>
<path d="M32.39 312.12C30.94 309.85 31.54 307.08 32.82 304.94C34.1 302.82 35.98 301.23 37.97 299.96C39.96 298.69 42.19 297.64 44.65 297.37C47.13 297.1 49.9 297.72 51.35 299.99C52.8 302.26 52.2 305.03 50.92 307.17C49.64 309.29 47.76 310.88 45.77 312.15C43.78 313.42 41.55 314.47 39.09 314.74C36.61 315.01 33.84 314.39 32.39 312.12ZM33.93 311.13C34.88 312.62 36.85 313.14 38.88 312.91C40.95 312.68 42.93 311.78 44.77 310.6C46.62 309.42 48.26 308 49.34 306.22C50.39 304.47 50.75 302.46 49.8 300.97C48.85 299.48 46.88 298.96 44.85 299.19C42.78 299.42 40.8 300.32 38.96 301.5C37.11 302.68 35.47 304.1 34.39 305.88C33.33 307.63 32.98 309.64 33.93 311.12V311.13Z" fill="white" stroke="white" stroke-width="1.05" stroke-miterlimit="10"/>
<path d="M19.12 287.519C19.12 287.519 19.12 287.519 19.12 287.509C18.89 287.059 19.08 286.509 19.53 286.279C19.53 286.279 19.53 286.279 19.54 286.279L31.84 280.169C33.33 279.429 35.04 279.019 36.78 279.309C38.91 279.659 40.73 281.019 41.69 282.949C42.65 284.879 42.62 287.149 41.62 289.059C40.8 290.619 39.44 291.729 37.95 292.469L25.65 298.579C25.65 298.579 25.65 298.579 25.64 298.579C25.19 298.799 24.65 298.619 24.42 298.179C24.42 298.179 24.42 298.179 24.42 298.169C24.2 297.719 24.38 297.169 24.83 296.939H24.84L37.14 290.819C38.37 290.209 39.41 289.329 40.01 288.199C40.74 286.809 40.76 285.159 40.06 283.749C39.36 282.339 38.03 281.359 36.49 281.099C35.23 280.889 33.9 281.179 32.67 281.799L20.37 287.909C20.37 287.909 20.37 287.909 20.36 287.909C19.91 288.129 19.37 287.949 19.14 287.509L19.12 287.519Z" fill="white" stroke="white" stroke-width="1.05" stroke-miterlimit="10"/>
<path d="M14.84 277.419L13.39 273.469C12.78 271.819 12.46 269.899 13.24 268.099C13.91 266.539 15.26 265.469 16.77 264.909C18.28 264.349 20 264.299 21.52 265.049C22.5 265.539 23.25 266.279 23.82 267.119L30.17 259.429C30.26 259.319 30.44 259.189 30.57 259.139C31.04 258.969 31.57 259.209 31.75 259.679C31.85 259.959 31.78 260.359 31.59 260.589L24.75 268.879C24.8 268.999 24.84 269.119 24.89 269.239L26.03 272.329L34.3 269.289C34.3 269.289 34.3 269.289 34.31 269.289C34.78 269.119 35.31 269.359 35.49 269.829C35.66 270.299 35.42 270.829 34.95 271.009C34.95 271.009 34.95 271.009 34.94 271.009L25.95 274.319C25.95 274.319 25.85 274.369 25.82 274.379C25.78 274.389 25.72 274.409 25.68 274.419L16.04 277.969C15.57 278.139 15.04 277.899 14.87 277.429L14.84 277.419ZM16.24 275.929L24.3 272.959L23.16 269.869C22.64 268.459 21.86 267.259 20.7 266.689C19.71 266.199 18.51 266.209 17.39 266.629C16.27 267.039 15.35 267.809 14.91 268.819C14.4 269.999 14.58 271.429 15.1 272.829L16.24 275.919V275.929Z" fill="white" stroke="white" stroke-width="1.05" stroke-miterlimit="10"/>
<path d="M3.01984 234.309C3.01984 234.269 3.01984 234.199 3.01984 234.159L1.66984 223.959C1.66984 223.959 1.66984 223.959 1.66984 223.949C1.59984 223.449 1.95984 222.989 2.45984 222.919C2.95984 222.849 3.41984 223.209 3.48984 223.709C3.48984 223.709 3.48984 223.709 3.48984 223.719L4.73984 233.159L12.3398 232.149L11.2798 224.159C11.2798 224.159 11.2798 224.159 11.2798 224.149C11.2098 223.649 11.5698 223.189 12.0698 223.119C12.5698 223.049 13.0298 223.409 13.0998 223.909C13.0998 223.909 13.0998 223.909 13.0998 223.919L14.1598 231.909L23.8098 230.629C23.8098 230.629 23.8098 230.629 23.8198 230.629C24.3198 230.559 24.7798 230.919 24.8498 231.419C24.9198 231.919 24.5598 232.379 24.0598 232.449C24.0598 232.449 24.0598 232.449 24.0498 232.449L13.6398 233.829C13.6398 233.829 13.5298 233.859 13.4898 233.859C13.4498 233.859 13.3798 233.859 13.3398 233.859L4.21984 235.069C4.21984 235.069 4.11984 235.089 4.07984 235.099C3.87984 235.129 3.58984 235.049 3.41984 234.939C3.41984 234.939 3.40984 234.939 3.39984 234.929C3.22984 234.809 3.06984 234.539 3.03984 234.329L3.01984 234.309Z" fill="white" stroke="white" stroke-width="1.05" stroke-miterlimit="10"/>
<path d="M0.53002 201.529C0.53002 201.529 0.53002 201.529 0.53002 201.519C0.53002 201.019 0.92002 200.599 1.43002 200.579C1.43002 200.579 1.43002 200.579 1.44002 200.579L15.17 200.269C16.83 200.229 18.56 200.579 20.01 201.579C21.78 202.799 22.87 204.799 22.91 206.959C22.96 209.109 21.97 211.159 20.25 212.459C18.85 213.519 17.14 213.959 15.48 213.989L1.75002 214.299C1.75002 214.299 1.75002 214.299 1.74002 214.299C1.24002 214.309 0.82002 213.919 0.80002 213.419C0.80002 213.419 0.80002 213.419 0.80002 213.409C0.79002 212.899 1.19002 212.479 1.69002 212.469C1.69002 212.469 1.69002 212.469 1.70002 212.469L15.43 212.159C16.81 212.129 18.12 211.769 19.14 210.999C20.39 210.049 21.11 208.559 21.07 206.989C21.03 205.419 20.25 203.969 18.96 203.079C17.91 202.349 16.58 202.059 15.2 202.089L1.47002 202.399C1.47002 202.399 1.47002 202.399 1.46002 202.399C0.96002 202.409 0.54002 202.019 0.52002 201.519L0.53002 201.529Z" fill="white" stroke="white" stroke-width="1.05" stroke-miterlimit="10"/>
<path d="M1.36985 185.42C1.36985 185.37 1.38985 185.3 1.39985 185.26L1.93985 179.02C1.93985 179.02 1.93985 179.02 1.93985 179.01C1.97985 178.51 2.42985 178.13 2.92985 178.18C3.42985 178.22 3.80985 178.67 3.75985 179.17C3.75985 179.17 3.75985 179.17 3.75985 179.18L3.27985 184.65L22.4399 186.32C22.4399 186.32 22.4399 186.32 22.4499 186.32C22.9499 186.36 23.3299 186.81 23.2799 187.31C23.2399 187.81 22.7899 188.19 22.2899 188.14C22.2899 188.14 22.2899 188.14 22.2799 188.14L3.11985 186.47L2.63985 191.94C2.63985 191.94 2.63985 191.94 2.63985 191.95C2.59985 192.45 2.14985 192.83 1.64985 192.78C1.14985 192.74 0.769853 192.29 0.819853 191.79C0.819853 191.79 0.819853 191.79 0.819853 191.78L1.35985 185.54C1.35985 185.54 1.35985 185.44 1.35985 185.41L1.36985 185.42Z" fill="white" stroke="white" stroke-width="1.05" stroke-miterlimit="10"/>
<path d="M5.64009 157.819C5.64009 157.819 5.64009 157.819 5.64009 157.809C5.74009 157.309 6.22009 156.989 6.72009 157.089C6.72009 157.089 6.72009 157.089 6.73009 157.089L20.2001 159.759C21.8301 160.079 23.4401 160.799 24.6401 162.089C26.1101 163.669 26.7301 165.859 26.3101 167.969C25.8901 170.079 24.4801 171.869 22.5201 172.769C20.9201 173.499 19.1601 173.549 17.5301 173.229L4.06009 170.549C4.06009 170.549 4.06009 170.549 4.05009 170.549C3.56009 170.449 3.24009 169.979 3.33009 169.489C3.33009 169.489 3.33009 169.489 3.33009 169.479C3.43009 168.979 3.91009 168.659 4.41009 168.759C4.41009 168.759 4.41009 168.759 4.42009 168.759L17.8901 171.439C19.2401 171.709 20.6001 171.649 21.7601 171.109C23.1901 170.459 24.2101 169.159 24.5201 167.619C24.8201 166.079 24.3801 164.489 23.3101 163.339C22.4401 162.399 21.2101 161.829 19.8601 161.559L6.39009 158.879C6.39009 158.879 6.39009 158.879 6.38009 158.879C5.89009 158.779 5.57009 158.309 5.66009 157.819H5.64009Z" fill="white" stroke="white" stroke-width="1.05" stroke-miterlimit="10"/>
<path d="M8.40022 147.339L9.64022 143.319C10.1602 141.639 11.0702 139.919 12.7702 138.959C14.2502 138.129 15.9702 138.089 17.5102 138.569C19.0502 139.039 20.4502 140.039 21.2102 141.569C21.7002 142.549 21.8402 143.589 21.7902 144.609L31.5002 142.339C31.6402 142.309 31.8602 142.309 31.9902 142.349C32.4702 142.499 32.7502 143.009 32.6002 143.489C32.5102 143.769 32.2102 144.049 31.9202 144.119L21.4602 146.559C21.4302 146.689 21.3902 146.809 21.3502 146.929L20.3802 150.079L28.8002 152.669C28.8002 152.669 28.8002 152.669 28.8102 152.669C29.2902 152.819 29.5602 153.329 29.4202 153.809C29.2702 154.289 28.7602 154.559 28.2702 154.419L19.1202 151.599C19.1202 151.599 19.0102 151.579 18.9802 151.569C18.9402 151.559 18.8802 151.529 18.8402 151.509L9.03022 148.489C8.55022 148.339 8.28022 147.829 8.42022 147.339H8.40022ZM10.4202 147.009L18.6302 149.539L19.6002 146.389C20.0402 144.959 20.1502 143.519 19.5802 142.369C19.0902 141.379 18.1302 140.659 16.9802 140.309C15.8402 139.959 14.6402 140.009 13.6802 140.549C12.5602 141.179 11.8402 142.429 11.4002 143.859L10.4302 147.009H10.4202Z" fill="white" stroke="white" stroke-width="1.05" stroke-miterlimit="10"/>
<path d="M15.6399 126.259C15.6599 126.219 15.6899 126.159 15.7099 126.119L20.0499 116.179C20.0499 116.179 20.0499 116.179 20.0499 116.169C20.2499 115.709 20.7899 115.499 21.2599 115.699C21.7199 115.899 21.9299 116.439 21.7299 116.909C21.7299 116.909 21.7299 116.909 21.7299 116.919L17.6999 126.149L24.7299 129.219L28.1399 121.409C28.1399 121.409 28.1399 121.409 28.1399 121.399C28.3399 120.939 28.8799 120.719 29.3499 120.929C29.8199 121.139 30.0299 121.669 29.8199 122.139C29.8199 122.139 29.8199 122.139 29.8199 122.149L26.4099 129.959L34.4999 133.489L38.5299 124.259C38.5299 124.259 38.5299 124.259 38.5299 124.249C38.7299 123.789 39.2699 123.569 39.7399 123.779C40.1999 123.979 40.4199 124.519 40.2099 124.989C40.2099 124.989 40.2099 124.989 40.2099 124.999L35.8699 134.939C35.8699 134.939 35.8399 135.039 35.8199 135.079C35.7299 135.279 35.4999 135.499 35.2999 135.569C35.0999 135.649 34.7899 135.639 34.5999 135.559C34.5599 135.539 34.4999 135.509 34.4699 135.489L24.9799 131.349C24.9799 131.349 24.8799 131.319 24.8399 131.299C24.7999 131.279 24.7399 131.249 24.7099 131.229L16.2799 127.549C16.2799 127.549 16.1799 127.519 16.1399 127.499C15.9599 127.419 15.7399 127.209 15.6699 127.019V126.999C15.5899 126.809 15.5899 126.489 15.6699 126.299L15.6399 126.259Z" fill="white" stroke="white" stroke-width="1.05" stroke-miterlimit="10"/>
<path d="M47.77 84.4484C48.79 84.3984 49.76 84.7184 50.69 85.4084C51.62 86.0884 52.22 86.9284 52.48 87.9084C52.85 89.2684 52.58 90.5684 51.67 91.7984C50.76 93.0284 49.61 93.6784 48.2 93.7384C47.18 93.7884 46.21 93.4684 45.28 92.7784C44.35 92.0984 43.75 91.2584 43.49 90.2784C43.12 88.9184 43.39 87.6184 44.3 86.3884C45.2 85.1584 46.36 84.5084 47.77 84.4484Z" fill="white" stroke="white" stroke-width="1.05" stroke-miterlimit="10"/>
</g>
<defs>
<clipPath id="clip0_158_2">
<rect width="405.89" height="404.24" fill="white"/>
</clipPath>
</defs>
</svg>
