<svg viewBox="0 0 1268 538" fill="none" xmlns="http://www.w3.org/2000/svg">
<path d="M163.1 244.7C162.3 246.1 161.7 255.7 160.9 258.2C161.6 258.9 177.3 257.8 180.1 258.2C182.9 258.6 183.4 259.9 185.1 260.2C191.6 261.3 204.6 258.3 205.2 268.7C205.8 279.1 194.5 284 186.9 284.8C179.3 285.6 172 281.8 167.2 281.2C162.4 280.6 163.6 282.1 161.5 281.9C159.4 281.7 158.1 279.8 156 279.9C156 282.6 156.2 285.2 155.6 287.8C155 290.4 152.6 292.1 152.2 293.3C151.8 294.5 153.5 297.7 152.8 300.7C152.1 303.7 149.4 305 149 307.9C148.6 310.8 150.4 313.1 149.5 315.2C148.6 317.3 143.1 322.8 142.4 323C140.1 323.6 139 321 137.3 320.6C135.6 320.2 133.1 321.9 131.2 320.6C130.3 320 128.3 313.1 128.3 311.7C128.3 301.5 133 290 134.1 280.1C135.2 270.2 133.3 268.1 134.2 263.5C135.1 258.9 136.9 260.6 137.2 258.5C137.5 256.4 135.7 254.1 136.3 251.9C136.9 249.7 139.3 249.1 139.9 246.5C140.5 243.9 139 240.6 139.3 238.1C139.6 235.6 142.3 233.6 142.8 231.7C143.3 229.8 142.6 227 143.1 225.1C143.6 223.2 145 216.7 145.8 215C150.6 203.6 181.5 213.4 190.9 213.8C200.3 214.2 195.2 212.4 197.7 212.8C200.2 213.2 201.4 216.1 203.9 216.6C206.4 217.1 208.7 215.2 211.3 215.9C213.9 216.6 218.8 222.1 221.4 222.2C224 222.3 231.2 217.4 235.8 220.1C237.6 221.4 236.3 226.7 236.7 229C237.1 231.3 239.4 232.3 240.2 234.4C242.7 241.5 242.6 252 245.1 260C247.3 267.2 248.3 270.7 249.3 278.4C250.3 286.1 251.7 300 254.2 305C256.7 310 264.8 312.5 267 312.9C269.2 313.3 279.3 311.6 281.3 310.9C283.3 310.2 290.9 302 291.4 300.3C292.2 297.7 291.4 295.2 291.9 292.9C293.3 286.9 295.8 280.5 295.8 274.1C295.8 267.7 293 270.5 292.8 268.2C292.6 265.9 294.4 263.3 294.6 261.1C295.6 244.7 288.5 229.8 288.2 214.9C287.9 200 289.7 201.5 288.9 195.5C288.1 189.5 284.6 189.9 289.2 187.8C293.8 185.7 313.3 186.5 317 187.1C320.7 187.7 323.2 191.1 324 194.9C325.3 201.4 322.8 212.7 323.6 217.9C324.4 223.1 326.3 221 326.4 224C326.5 227 323.4 232.1 323.5 234.9C323.6 237.7 326.2 238.7 326.4 240.8C326.6 242.9 324.4 245.9 324.4 248.6C324.4 251.3 326.9 254.8 326.5 259.4C326.1 264 324.4 276.1 323.4 282.9C319.2 310.3 305.2 331.7 276.6 337.5C274.2 338 271.5 337.2 269 337.8C264.8 338.8 265.5 341.4 258.2 340.3C250.9 339.2 240.6 332.6 238.8 331.2C237 329.8 237.1 327.7 235.9 326.3C225.7 314.3 228.5 313.7 224.8 300C221.1 286.3 222.5 297.3 222.2 295.6C221.9 293.9 223.6 291.6 222.9 289.1C222.2 286.6 219.9 286.3 219 284C218.1 281.7 214.1 268.9 213.4 266C212.2 261.3 213.4 254.6 211.5 249.2C209.6 243.8 206.7 240.2 206.2 239.7C205.7 239.2 199.8 235.8 199.5 235.7C197.4 235.2 194.6 237.4 192.2 237C189.8 236.6 188.4 234.1 186.7 233.8C185 233.5 181.9 234.6 179.2 234.2C176.5 233.8 172.2 229 168.3 234.2C164.4 239.4 167.2 239.6 166.1 241.9C165 244.2 163.4 243.8 163.1 244.3V244.7Z" fill="black"/>
<path d="M898 289.199C897.1 292.299 890.4 291.899 887.7 291.599L823.5 275.899C815 275.899 818.1 281.099 818.2 286.199C818.2 290.599 817.3 313.299 819.1 314.799C820.9 316.299 831.8 318.399 834.7 318.899C846 320.799 857.8 320.799 868.8 322.299C875.9 323.299 893.5 326.399 899.5 328.999C905.5 331.599 907.3 344.399 899 346.299C891.6 348.099 855 347.599 846.3 346.599C837.6 345.599 833.6 342.999 828.2 341.999C814.9 339.499 801.2 337.699 788.3 334.599C770.4 330.299 776.9 325.999 777.8 311.699C778.5 300.099 776.5 287.799 777.8 276.199C778.8 267.399 781.4 263.299 780.8 252.599C780.2 241.899 779.9 236.599 780.8 224.099C781.7 211.599 776.1 190.499 791.1 189.099C804.5 187.899 819.8 189.999 833.4 189.299L888.8 206.799C890.6 210.499 893.7 214.099 894.2 218.099C896.3 234.999 887.7 230.599 876 227.399C857.5 222.299 838.6 213.399 819.3 214.199C815.7 216.399 815.6 239.399 816.4 243.699C817.2 247.999 822.8 247.499 826.3 248.599C831.4 250.199 841.2 254.399 845.7 254.899C850.2 255.399 852.8 253.799 857.2 254.199C863.4 254.799 883.2 260.099 889.6 262.199C896 264.299 898.2 265.799 898.2 268.299V288.999L898 289.199Z" fill="black"/>
<path d="M522.5 215.899C523.6 212.599 527.2 207.799 531.1 209.699C537.3 212.699 528.7 217.099 531.3 220.299C540.2 226.399 548.9 231.599 559.4 234.599C561 231.499 562 228.099 563.8 224.999C566.6 219.999 579.4 203.599 583.7 200.599C590.6 195.899 603.5 198.299 603.4 208.399C603.3 218.499 599.5 216.099 598 217.799C589 227.599 587.3 228.599 579.9 240.099C572.5 251.599 564 262.199 556.6 272.899C551.1 280.799 548.7 285.599 550.4 295.799C552.1 305.999 555 305.399 561.8 303.699C568.6 301.999 574.7 297.999 575.3 297.499C576.3 296.499 578.8 289.599 580.5 286.999C592.3 268.699 606.9 250.599 619.3 233.299C621.6 230.099 631.9 214.899 636.2 223.999C640.5 233.099 637.3 241.199 636.5 244.499C635 250.099 621.8 262.799 617.8 268.199C608.5 280.699 600.1 295.499 591 308.399C581.9 321.299 575.3 327.399 561.1 330.699C546.9 333.999 550.8 332.299 549.7 332.199C546.5 331.699 547.3 328.899 546 327.499C544.7 326.099 537.6 323.799 535.1 322.199C520.6 312.699 525.9 297.199 527 282.999L545.2 253.199C544.5 250.199 537.8 250.299 534.7 248.799C530.7 246.799 527.5 241.199 521.6 241.199C517.7 243.799 519.5 248.499 518.2 251.599C513.3 262.399 507.4 274.799 503.6 286.199C499.8 297.599 499.6 314.199 495.8 322.699C492 331.199 493.1 325.299 492.6 326.399C491.3 329.399 493.1 334.199 487.6 335.199C482.1 336.199 482.1 333.399 478.8 332.199C472.4 329.899 465.7 330.399 466.4 320.099C466.7 316.599 470.4 302.899 471.6 298.599C472.8 294.299 474.5 294.299 475.1 291.199C475.7 288.099 474.7 282.599 475.5 278.799C476.3 274.999 478.6 275.099 479 273.499C479.4 271.899 479 268.799 479.7 266.299C481.9 258.699 484.4 254.899 486.4 246.399C488.4 237.899 491.6 230.999 491 225.599C490.4 220.199 484 218.199 478.9 214.999C473.1 211.299 468.5 207.399 463.5 202.799C458.5 198.199 455.6 200.299 457.7 193.199C459.8 186.099 472.5 189.099 476.7 189.599C480.9 190.099 491.4 195.499 496.3 198.599C505.1 204.199 512.4 212.299 522.6 216.099L522.5 215.899Z" fill="black"/>
<path d="M119.7 343.999C120.2 343.499 131.2 338.899 132.5 338.499C135.5 337.699 142.6 337.799 141.2 342.199C139.8 346.599 131.9 343.699 130.4 347.199C130.4 350.599 150.6 351.299 153.5 351.699C171.8 353.799 190.3 356.399 208.7 358.599C229.7 360.999 255.9 358.199 276.7 360.499C280.5 360.899 283.7 362.999 287.5 363.499C301.2 364.999 317.7 362.699 331.9 363.499C394.5 367.199 456.9 364.699 519.2 367.399C687.9 374.799 858.1 366.099 1026.7 365.499C1043.6 360.699 1062.8 365.399 1079.9 363.499C1083.7 363.099 1086.3 360.899 1089.7 360.499C1095 359.899 1101.9 360.699 1107.5 360.499C1143.8 359.699 1178.9 355.399 1214.8 351.599C1250.7 347.799 1222.9 350.999 1226 350.899C1232.9 350.699 1227.3 357.499 1220.7 358.499C1208.6 360.199 1195.5 361.499 1183.3 362.499C1161.8 364.299 1137.3 362.799 1116.5 367.599C1114.5 367.999 1113.1 370.299 1111.4 370.299C1109.7 370.299 1107.7 367.799 1105.4 367.399C1103.1 366.999 1090.7 366.899 1087.7 367.399C1043.4 373.599 996.1 367.499 951.8 374.399C828.6 375.899 705.6 376.399 582.2 375.299C577.2 373.499 571.5 382.699 568.6 382.099C565.7 381.499 566.6 376.999 561.6 376.299C555.2 375.399 533.5 375.499 527 376.299C520.5 377.099 522.9 378.699 520.1 379.299C516.9 379.299 517 373.799 513.3 374.299C482 372.399 447.5 376.999 416.6 374.299C411.9 373.899 408.1 371.799 403.8 371.299C367.5 367.399 323 372.199 285.5 369.299C248 366.399 262.2 367.699 248 367.399C242.7 367.299 236.5 364.799 231.2 364.399C198.9 361.699 161 363.899 130.2 354.099C126.8 352.999 114 349.499 119.6 343.999H119.7Z" fill="black"/>
<path d="M666.7 328.799C665.7 327.699 662.7 317.799 662.5 315.799C661.3 305.199 665 285.499 660.3 276.599C659.2 274.399 657 273.299 654.5 273.399C649.5 277.899 649.9 285.799 647.7 291.199C645.5 296.599 639.2 303.399 636.6 308.699C634 313.999 634.1 316.499 632.9 320.699L617 318.699C613.5 307.499 615.9 292.799 621.2 282.499C624.3 276.499 630.1 270.299 633 263.799C635 259.399 636.4 250.699 638.4 246.599C640.4 242.499 641.6 244.299 642.8 242.199C644 240.099 644.4 234.699 645.7 231.399C647.7 226.199 651.9 219.699 654.1 214.199C655.7 209.999 655.6 204.899 658.6 199.999C663.5 191.699 667.3 198.399 671.8 201.099C679.8 205.799 695 215.499 701.6 221.499C708.2 227.499 712.8 238.999 713.9 241.699C718.2 252.299 707.8 274.599 696.7 278.399C691.9 280.099 684.8 277.299 685.9 285.299C687 293.299 687.6 288.499 687.8 290.299C688.8 298.099 689.3 307.999 691 315.599C691.9 319.599 697.6 322.399 693.7 328.499C689.8 334.599 669.5 332.099 666.5 328.799H666.7ZM663.6 252.199C670.1 255.299 679.3 260.199 686.4 256.099C693.5 251.999 690.7 242.199 689.3 238.799C687.9 235.399 678.5 227.899 677.2 227.199C675.9 226.499 675.2 226.299 674.4 226.799C670.3 232.899 668.4 238.699 665.9 245.399C663.4 252.099 662.5 249.299 663.6 252.199Z" fill="black"/>
<path d="M1012.1 308.6C1016.2 312.8 1008.4 320.9 1003.9 317.3C999.4 313.7 1008.6 305 1012.1 308.6Z" fill="black"/>
<path d="M139.9 433.499C144.8 432.299 148.7 439.199 141.7 443.299C133.8 447.899 133.7 435.099 139.9 433.499Z" fill="black"/>
<path d="M589.3 181.599C596.7 180.499 592.8 193.899 586.3 192.099C579.8 190.299 584.7 182.199 589.3 181.599Z" fill="black"/>
<path d="M650.4 182.7C655 187.3 644.8 197.2 641.3 189.3C639.9 186.3 645.2 181.4 648 181.6C648.8 181.9 649.8 182.1 650.4 182.7Z" fill="black"/>
<path d="M1197.7 396.8C1195.2 395.2 1196.6 386.6 1203 387C1213.2 387.6 1202.3 399.7 1197.7 396.8Z" fill="black"/>
<path d="M1148.5 398.8C1145 396.6 1151 386.4 1156.2 389.6L1158 392.8C1158.5 396.7 1151.5 400.8 1148.4 398.8H1148.5Z" fill="black"/>
<path d="M769.8 239.7C772 243.2 764.3 252.8 760.6 247.4C756.8 241.3 767.2 235.5 769.8 239.7Z" fill="black"/>
<path d="M1129.3 283.999C1141 280.499 1133.7 297.699 1127.1 292.699C1120.5 287.699 1125.6 285.099 1129.3 283.999Z" fill="black"/>
<path d="M201 151.2C202.5 150.8 204.1 150.8 205.6 151.2L208.1 154.7C201 169.1 192.4 153.9 201.1 151.3L201 151.2Z" fill="black"/>
<path d="M1023.9 172.699H1025.5C1031.3 175.599 1026.9 184.899 1021 183.299C1015 179.899 1020.2 175.499 1023.9 172.699Z" fill="black"/>
<path d="M998.4 382.3C1001.2 384.1 998.9 392.3 993.1 392.1C983 391.7 993.7 379.4 998.4 382.3Z" fill="black"/>
<path d="M97.5002 265.3C106 263 104 278 94.5002 274.9C90.6002 273.6 94.5002 266.2 97.5002 265.3Z" fill="black"/>
<path d="M608 310.5C610.7 309.7 613.5 311.9 614 314.6C612.2 320.5 604.4 323.3 603.3 315.8C603.5 314.3 606.7 310.9 608 310.5Z" fill="black"/>
<path d="M523.8 348.5C520.8 345.6 525.3 339.2 529.7 340C538.6 341.7 529.1 353.6 523.8 348.5Z" fill="black"/>
<path d="M212.8 366.6C218.4 365.1 221.7 370.8 215.5 375.3C207.3 381.3 207.7 368 212.8 366.6Z" fill="black"/>
<path d="M340.9 132.4C349 130.1 346.3 142.8 338.7 142.7C332.4 140.6 337.1 133.4 340.9 132.4Z" fill="black"/>
<path d="M810.6 454.3C817.7 445.6 823.7 461.7 812 462.7C808.7 461.4 808.6 456.8 810.6 454.3Z" fill="black"/>
<path d="M1083 275.1C1093.4 272 1089.7 286.8 1080 283.6C1076.1 281.9 1080.6 275.8 1083 275.1Z" fill="black"/>
<path d="M1131.3 312C1128.3 314.7 1124.9 314.3 1122.9 310.7C1125.3 298.9 1139.3 304.6 1131.3 312Z" fill="black"/>
<path d="M777.5 207.301C783 213.101 769.8 221.701 768.9 213.401C768 205.101 771.9 208.201 774.5 206.301C775.3 206.101 777 206.701 777.5 207.301Z" fill="black"/>
<path d="M213.8 94.0998C219.1 93.2998 220.4 99.2998 215.1 103.4C209.8 107.5 206.8 95.0998 213.8 94.0998Z" fill="black"/>
<path d="M987.4 256.4C994.5 254.4 993.9 266.2 987.2 266.2C980.5 266.2 983.3 257.5 987.4 256.4Z" fill="black"/>
<path d="M95.6002 462.1C98.8002 467.2 93.4002 468.7 89.6002 470.6C81.2002 466.7 91.0002 457.6 95.6002 462.1Z" fill="black"/>
<path d="M442.4 165C452.8 161.9 448.1 174.8 441.2 173.7C434.3 172.6 438.6 166.1 442.4 165Z" fill="black"/>
<path d="M663.6 252.2C662.5 249.3 665.1 247.6 665.9 245.4C668.4 238.7 670.3 232.9 674.4 226.8C675.3 226.3 676.4 226.8 677.2 227.2C678.5 227.9 688.7 237.5 689.3 238.8C690.7 242.2 689.7 254.2 686.4 256.1C679.3 260.2 670 255.3 663.6 252.2Z" fill="white"/>
</svg>
