<svg viewBox="0 0 1268 538" fill="none" xmlns="http://www.w3.org/2000/svg">
<g clip-path="url(#clip0_172_34)">
<path d="M438.3 140.299C434.2 137.899 430.7 137.799 425.9 137.799C421.1 137.799 422 137.799 419.8 137.599C417 137.399 414.2 137.099 411.5 136.899C403 136.099 395 135.399 386.7 135.399C378.4 135.399 378.5 135.599 374.7 135.999C373.3 141.599 372.9 147.399 372.9 154.299C372.9 158.699 373.2 160.499 375.1 165.299L376 167.499L374.5 169.299C373.4 170.999 371.7 179.299 370.7 184.299C368.2 196.799 367.2 200.799 364 202.099C362.5 202.699 361.5 202.999 358.2 202.999C354.9 202.999 351.4 202.399 347.9 201.899C345.3 201.499 342.9 201.099 341.1 201.099H339.9C337.8 201.099 335.1 201.199 332.3 201.399C328.9 201.599 329.1 201.799 321.9 201.799C314.7 201.799 306.1 200.999 303 194.699C301.7 191.999 303.3 189.199 306.2 184.099C307.3 181.999 309.3 178.499 309.5 177.399C309.5 175.999 309.3 174.499 308.9 172.799C308.3 170.399 307.8 167.699 308.3 164.599C308.8 161.599 310.2 158.799 311.6 156.099C313 153.499 314.2 150.999 314.5 148.699C314.8 146.699 314.8 140.999 314.5 138.499C311.3 137.799 303.4 136.299 299.4 135.699C287.9 133.899 275.5 132.199 263.5 132.199H263.4C260.1 132.199 256.9 132.299 253.9 132.599H247.7C246.5 132.599 245.7 132.699 245.1 132.699C245.3 133.599 245.4 134.699 245 135.999C244 139.099 243.6 141.499 243.1 144.099C242.9 145.799 242.5 147.499 242.1 149.399C241.6 151.599 240.3 153.399 239.1 155.099C238.4 156.099 237.3 157.599 237.3 158.199C237.2 158.899 237.6 159.599 238.6 161.099C239.8 162.899 241.4 165.299 241.1 168.499C240.8 171.799 238.5 173.999 237 175.499C235.5 176.999 236.2 176.199 236 176.499C235.6 177.999 234.9 183.399 234.9 184.799C234.9 186.199 235.8 186.999 236.7 188.199C238.2 190.199 240.2 192.899 239.6 196.399C239.1 199.299 237.1 201.799 233.3 204.299C230.6 206.099 227 206.899 224.2 207.599C223.4 207.799 222.5 207.999 221.8 208.199C221.1 210.999 221 218.599 221.4 220.699C221.6 220.999 222.1 221.399 222.5 221.699C224.1 222.999 227.1 225.499 226.5 230.099C226.1 233.099 224.1 234.899 222.6 236.299C222.1 236.699 221.5 237.299 221.3 237.599C220.6 240.499 221.2 244.199 221.8 248.099C222.4 251.999 223 255.999 222.5 259.899V260.199V260.499C221.9 262.399 220.4 263.699 218.8 264.699C219.4 265.499 219.9 266.399 219.9 267.599C219.9 269.299 219.2 270.599 218.5 271.799C218.3 272.199 217.8 272.799 217.8 273.099C217.8 273.699 218 274.499 218.3 275.299C218.9 277.099 219.6 279.499 218.9 282.199C218 285.399 215.5 286.899 213.8 287.899C213.6 287.899 213.4 288.099 213.2 288.199C214.1 289.199 217.5 292.399 218.6 293.199C219.7 293.699 219.7 293.899 222.7 293.899C225.7 293.899 229 293.099 232.3 292.299C235.5 291.499 238.6 290.799 241.5 290.799C246.3 290.799 249.8 292.499 252.6 293.799C254.8 294.899 257.1 295.699 258.6 295.699C260.1 295.699 261.7 295.299 263.6 294.399C266.5 292.999 266.4 292.599 266.3 290.899C266.1 289.099 265.9 286.199 268.2 283.399C269.8 281.399 272.2 280.699 274.5 279.899C275.4 279.599 276.9 279.099 277.5 278.699C277.5 278.399 277.2 277.699 277.1 277.299C276.5 275.699 275.7 273.199 276.7 270.299C277.9 266.999 280.4 263.999 283.1 260.899C286 257.499 289.1 253.899 289.7 250.499C289.9 249.699 289.7 247.099 289.5 245.399C289.1 240.399 289 237.599 290.5 235.599C293.5 231.699 297.6 229.799 303.2 229.799C308.8 229.799 307.8 230.099 310.1 230.399C312 230.599 313.8 230.899 315.5 230.899H317.2C321.6 230.899 329.1 230.499 332.1 230.099C334.2 229.899 335.6 229.299 337.2 228.599C338.6 228.099 340.1 227.399 342 226.999C346 226.099 349.6 225.999 352.9 225.999H364.7L361.6 231.599C361.9 232.199 362.9 233.299 363.5 233.999C364.9 235.599 366.4 237.199 366.8 239.299C367.4 242.199 366.1 244.699 365.2 246.599C364.9 247.299 364.4 248.199 364.4 248.599C364.4 249.299 365 250.799 365.4 251.999C366.2 253.899 367 255.899 367 258.099C367 260.299 366.5 261.499 366.1 262.899C365.7 264.299 365.5 265.099 365.6 265.899C365.6 266.199 366.1 266.899 366.4 267.399C367.2 268.699 368.3 270.399 368.3 272.699C368.3 274.199 367.9 275.899 367.1 278.599C366.9 279.199 366.7 279.899 366.5 280.599C367.8 280.999 369.5 281.199 371.1 281.399C372.8 281.599 374.6 281.899 376.2 282.299C384.3 284.499 385.3 284.599 392 285.699C393.1 285.899 394.3 286.099 395.7 286.299C398.7 286.799 401.2 287.799 403.4 288.599C405.6 289.499 407.6 290.199 409.5 290.199C411.4 290.199 412.8 289.999 416.1 287.699C418.6 285.999 418.9 285.199 418.9 285.199C418.9 284.999 418.7 284.299 418.6 283.799C418.3 282.599 418 280.999 418 278.999C418.4 270.899 420.9 262.999 423.2 255.299C425.4 247.999 427.5 241.199 428 234.199C428.2 232.399 428.2 230.399 428.2 228.299C428.2 223.899 428.4 219.299 429.4 214.899C429.8 212.999 430.8 211.499 431.7 210.199C432.3 209.399 433 208.399 433 207.899C433 207.399 432.5 206.799 432 205.999C431.1 204.699 430 202.999 429.8 200.799C429 193.399 431.1 185.799 433.2 178.399C434.8 172.499 436.4 166.999 436.4 161.899V158.999C436.4 156.699 436.2 154.299 436.6 151.999C437 149.899 438 148.099 438.9 146.399C439.7 144.999 440.6 143.399 440.6 142.399C440.6 141.399 439.5 140.899 438.5 140.299H438.3Z" fill="black"/>
<path d="M1041.1 258.7C1042 255.7 1042.5 254.2 1041.1 250.6C1038.5 243.4 1034.8 228.9 1034.8 220.6C1034.8 215.1 1035.8 208.2 1036.8 201.5C1037.5 197 1038.1 192.9 1038.4 189.3C1038.7 186 1037.9 183.5 1037.1 180.8C1036.4 178.4 1035.6 175.9 1035.6 172.9C1035.6 167.7 1036.1 161.3 1036.7 155.2C1037 151.8 1037.3 148.6 1037.5 145.6C1037.5 144 1037.9 142.2 1038.2 140.4C1039.1 134.9 1039.7 130.6 1037.3 129.4C1036.6 129.1 1035.9 128.9 1035 128.9H1035.2C1034 128.9 1032.6 129.1 1031.1 129.4C1029.5 129.8 1027.8 130.2 1025.9 130.3C1023.9 130.3 1021.9 130.3 1020.4 130.3H1017.9C1017 130.3 1018.7 130.3 1015.3 130.3C1011.9 130.3 1008.2 130.4 1004.9 131H1004.7C1000.2 131.8 998.2 132.3 997.3 134.4C996.2 136.9 996.8 143.2 997.3 147.8C997.6 150.5 997.8 153.1 997.8 155.2V160.8C997.8 169.4 997.6 178.3 997.8 187.1C997.8 191.2 997.6 194.9 997.3 198.5C997 201.3 996.8 204 996.8 206.8C996.8 209.6 997.1 208.7 997.3 209.9C999.3 221.1 1000.7 228.4 995.2 229.7H994.4H993.6C983.9 228.1 979.8 222.3 976.2 217.2C975 215.5 973.9 213.9 972.6 212.5C967.9 207.4 962.5 202.7 957.3 198.2C948.7 190.7 939.8 183 933.5 172.9C932.7 171.6 928 168.3 926.4 168.1C926.2 168.1 926.4 168.1 925.8 168.1C925.2 168.1 924.6 168.3 923.9 168.3C923 168.3 922 168.5 921 168.5C920 168.5 919.1 168.4 918.3 168.2C916.1 167.7 914.6 166.4 913.2 165.3C912.3 164.7 911.6 164 910.9 163.8H910C905.1 163.8 893.6 164.8 892 165.2C882.8 167.5 881.7 171.4 880.7 177.9C879.3 186.7 879.8 194.3 880.4 202.3C880.4 203.7 880.7 205 880.7 206.4C881 210.8 880 214.7 879.1 218.1C878.5 220.3 878 222.4 878 224.1C878 225.8 878.3 225 878.5 225.4C879 226.5 879.7 227.9 879.8 229.6C880.2 234.8 880 240.7 880 246.3C880 253.3 879.8 260.7 880.7 266.7C880.7 267.3 881.3 268.1 881.7 269C882.5 270.5 883.6 272.5 883.6 274.8C883.7 277.3 882.7 279.7 881.8 281.7C881.4 282.5 880.9 283.7 880.9 284.1C880.9 284.9 882.1 286.9 882.8 288.1C883.6 289.4 884.4 290.8 884.9 292.2C885.4 293.7 885.4 295.2 885.4 296.3C885.4 297.4 885.4 297.8 885.6 298.1C885.6 298.1 886.2 298.3 887 298.3C887.8 298.3 888.8 298.1 889.8 298.1C891 298.1 892.2 297.9 893.5 297.9H894.5C895.8 297.9 897.2 298.1 898.5 298.2C900.9 298.4 899 298.6 905.9 298.6C912.8 298.6 917.5 296.9 921.3 293L917.9 229.1L917.6 222.9L923.4 225.2C932.6 228.9 938.1 235.7 943.3 242.3C945.4 244.9 947.4 247.4 949.5 249.6C955.7 255.9 961.7 259.7 968.8 264C971.6 265.8 974.5 267.6 977.6 269.6C979 270.5 979.9 271.7 980.5 272.6C980.7 272.9 981 273.3 981.2 273.5H981.7C982.2 273.5 982.8 273.5 983.4 273.5C984.2 273.3 985 273.3 985.9 273.3C987.6 273.3 989 273.6 990.2 274.4C992.3 275.8 993.1 277.8 993.6 279.1C994.2 280.6 994.4 281.2 996.2 281.8C997.7 282.3 997.2 282.6 1000.6 282.6C1004 282.6 1006.9 281 1010 279.3C1012.6 277.8 1015.4 276.3 1018.5 275.9H1019.6C1022.1 275.9 1024.3 276.9 1026.4 277.9C1028.3 278.8 1030.5 279.7 1032.1 279.7C1033.7 279.7 1035.5 279 1037.3 277.4C1039.6 275.3 1039.7 273.5 1039.5 269.9C1039.3 268.4 1039.3 266.7 1039.5 265C1039.8 262.4 1040.5 260.3 1041 258.7H1041.1Z" fill="black"/>
<path d="M738.4 226.5C738.1 229.3 737.9 232.2 737.9 234.6C737.9 237 738.2 239.1 738.6 241.4C739 243.7 739.4 246.1 739.4 248.8C739.4 251.5 739.1 256 738.8 260.8C737.9 273.8 736.7 291.6 742.6 294.7C743.3 295.1 748.2 295.8 751.4 295.8C754.6 295.8 753 295.8 753 295.8C754.2 295.1 758.5 289.3 759.1 286.2C760 282 759.5 277.4 759.1 272.9C758.8 270 758.6 267 758.6 264.1C758.6 261.6 759 259.1 759.4 256.6C759.8 254.2 760.1 251.9 760.1 249.9C760.1 247.9 759.8 245.8 759.4 243.5C759.1 241.5 758.7 239.5 758.7 237.5C758 222 759 206.9 760.1 194.3C761.7 175.2 761 156.7 760.1 136.2C759.9 134.4 759.9 132.5 759.9 130.8C759.7 122.9 759.5 116 755.9 110.2C753.5 106.3 752.4 106.1 750.5 105.9C749.6 105.9 748.6 105.6 747.4 105.2C746.6 104.9 745.8 104.5 745 104C744.4 103.7 743.8 103.4 743.2 103.1C742.4 102.8 741.7 102.5 741 102.5C740.3 102.5 739.8 102.8 739.3 103.5C738.7 104.4 738.3 106 738 107.5C737.7 108.7 737.4 110 737 111C733.2 120.4 732.8 121.7 729.7 131.9V132.3C728.6 136.1 727.4 139.9 726.3 143.5C724.4 149.5 722.5 155.7 720.8 162L720.3 163.9L719.1 162.4C716.6 159.3 715.7 154.1 714.8 149C714.3 146.2 713.8 143.3 713 140.8C712.4 138.6 711.4 136.2 710.4 133.6C709.2 130.4 707.9 127.1 707.1 124.2C706.6 122.3 706.3 120.6 706.1 118.9C705.7 116.1 705.3 113.6 703.6 110.8C702.3 108.7 701.7 108.6 700.8 108.4C700.1 108.4 699.3 108.1 698.2 107.3C697.2 106.6 696.3 105.3 695.4 103.9C694.3 102.3 693.1 100.4 691.8 100C690.8 99.7004 686.9 98.9004 685.6 98.9004H684.9C681.6 99.3004 680.7 107.2 681.3 114.4C681.3 115.7 681.6 116.8 681.9 118C682.3 119.7 682.7 121.5 682.7 124C682.7 126.5 682.3 128.5 682 130.8C681.7 132.9 681.4 134.9 681.4 136.7C681.4 138.5 681.5 140.2 681.6 142.1C681.8 144.3 681.8 146.6 681.8 148.9C681.7 152.1 681.3 155.6 680.9 159C680.5 162.4 680.1 165.5 680.1 168.2C680.1 170.9 680.3 173.2 680.5 175.3C680.8 179.1 681.1 182.7 680 188.5C679.8 189.7 679.4 190.7 679.1 191.7C678.7 193.1 678.2 194.4 678.1 195.9C677.8 200.5 677.8 206.3 677.8 211.8C677.8 217.3 677.9 222.8 677.5 227.3C677.3 229 676.9 230.2 676.5 231.4C676.1 232.5 675.7 233.6 675.6 235C675.6 236.3 675.5 237.8 675.5 239.3C675.5 241.9 675.5 244.6 675.6 247.3C675.6 249.9 675.6 252.7 675.6 255.2C675.6 256.1 675.6 256.9 675.6 257.8C675.5 261 675.1 264.2 674.7 267.4C674.3 270.4 674 273.3 673.8 276C673.5 281.6 674.2 286.5 677.4 289.8C677.7 290.1 678 290.4 678.3 290.6C679.5 291.6 680.2 291.6 681.1 291.6C682 291.6 682.5 291.6 683.4 292C684.8 292.5 686 293.5 687.1 294.4C688.2 295.3 689.5 296.2 690.1 296.2C690.7 296.2 691.9 295.3 693.3 289.7C694.2 285.7 694.2 282.8 694.2 279.4C694.2 276 694.2 275.5 694.4 273.1C694.4 271.7 694.7 270.4 695 269.1C695.3 267.6 695.7 265.9 695.7 264.3C695.7 262.8 695.6 261.5 695.5 260.1C695.3 258.4 695.3 256.8 695.3 254.8C695.3 251.5 696.2 247 697.1 242.3C697.9 237.8 698.8 233.2 699 229.8C699.2 226.8 699 223.9 698.8 221.1C698.6 218.6 698.5 216.2 698.6 213.7C698.7 210.3 699.3 206.2 699.8 202.2C700.3 198.4 700.8 194.5 701.1 191.2V189.6L702.5 190.3C706.2 192.3 707.4 198.4 708.5 204.3C709.1 207.7 709.7 210.9 710.8 213.2C711.4 214.3 712 215 712.6 215.8C713.2 216.5 713.8 217.2 714.4 218.3C715.3 219.9 716 221.8 716.6 223.7C717.5 226.4 718.7 229.7 719.9 229.7C721.1 229.7 721.1 229.4 722.5 227.6C724.2 225.5 726.4 217 728.1 210.1C728.9 207 729.7 204 730.3 202C730.8 200.2 731.6 198.6 732.2 197.2C732.8 195.9 733.3 194.8 733.7 193.6C733.8 193.3 733.9 192.4 734.1 191.5C735.1 185.8 735.6 184.2 737 184.2C738.4 184.2 737.7 184.2 738.1 184.9C738.3 185.3 738.8 185.9 738.8 201.2V219.4C738.8 221.6 738.5 224.1 738.3 226.5H738.4Z" fill="black"/>
<path d="M720.3 161.8C723.1 151.7 726.3 142 729.2 132.1C731.8 123.2 732.5 120.8 735 114.6C732.5 121 731.8 123.2 729.1 131.9V132.3C728 136.1 726.8 139.8 725.7 143.5C723.8 149.4 722 155.5 720.3 161.8Z" fill="black"/>
<path d="M738.6 103.6C738 104.5 737.7 106 737.3 107.6C737.2 108.5 736.9 109.4 736.7 110.2C737.5 108.1 737.8 105.4 738.6 103.6Z" fill="black"/>
<path d="M714.2 218.901C713 216.801 711.7 216.001 710.6 213.701C707.6 207.401 707.9 194.101 702.6 191.201C702.6 191.201 702.6 191.301 702.6 191.401C706 193.501 707 199.201 708.1 204.801C708.8 208.301 709.4 211.601 710.5 213.901C711 215.101 711.6 215.801 712.3 216.601C712.9 217.301 713.4 218.001 714 219.001C714.8 220.501 715.5 222.401 716.1 224.301C717.2 227.301 718.3 230.501 719.8 230.601C717.4 229.401 716.3 222.801 714.2 218.901Z" fill="black"/>
<path d="M738.9 249C738.9 243.8 737.4 239.5 737.4 234.7C737.4 229.9 738.4 224.2 738.4 219.5C738.4 215.2 738.6 186.6 737.9 185.6C737.9 185.4 738.6 185.4 737.6 185.4C738.5 186.8 738.2 219.3 738.2 219.6C738.2 221.8 737.9 224.3 737.7 226.7C737.4 229.5 737.2 232.3 737.2 234.8C737.2 237.3 737.5 239.4 737.9 241.7C738.3 244.1 738.7 246.5 738.7 249.1C738.7 251.7 738.4 256.3 738.1 261.1C737.2 274.2 735.9 292.2 742.1 295.5C742.1 295.5 742.3 295.5 742.5 295.6C734 290.8 739.1 260.9 738.9 248.9V249Z" fill="black"/>
<path d="M848.6 253.7C848.6 250.6 848 247.5 847.4 244.3C846.3 237.9 845.1 231.3 847.2 223.7C848.1 220.6 850.3 218.2 852.5 215.9C853.7 214.7 854.9 213.4 855.7 212.2C852.9 212.1 848.1 211.8 846.7 207.5C845.8 204.9 846.1 200.5 846.5 193.9C846.5 192 846.8 190.2 846.8 189.1V173.5C846.8 170.3 846.8 166.9 846.6 163.7C846.6 156.7 846.3 149.5 846.6 142.3C846.2 141.7 845.7 141.1 845.2 140.5C841.9 136.9 830.9 133.2 823 132.1C822.2 132 821.5 131.9 820.8 131.9C816.5 131.9 813 133.8 810.2 137.7C807.2 141.9 804.3 147.6 801.7 152.6C801.3 153.4 800.9 154.2 800.5 155C797.4 161 792.9 167.7 788.6 174.2C784.1 180.9 779.5 187.8 776.7 193.6C776 195 775.3 196.7 774.5 198.6C772 204.6 768.9 212.1 764 216C763.1 216.7 762 217.3 760.8 217.9C760 218.3 758.4 219.2 758 219.6C757.1 221.3 756.4 224.6 755.9 227.5C755.3 230.6 754.6 233.9 753.5 236.5C752.7 238.4 751.6 240.1 750.4 242C749.1 244.2 747.7 246.4 746.5 249.2C746 250.3 745.5 251.5 744.9 252.6C741.7 259.3 741.7 260.7 743.4 261.8C745.1 262.9 755.1 266.7 757 267C758.2 267.2 759.2 267.3 760 267.3C760.8 267.3 761.4 267.1 761.5 267.1C761.8 266.9 762.2 265.9 762.6 265.1C763.2 263.8 764 262.1 765.3 260.2C768.6 255.5 768.7 255.4 769.9 252.6C770.3 251.6 770.8 250.4 771.6 248.7C772.3 247 776.9 240.2 778.7 238.7C781.4 236.5 786.8 235.2 794.7 233.5C797.1 233 799.3 232.5 800.6 232.1C802.4 231.6 804.2 230.9 806 230.1C808.5 229.1 811 228.1 813.8 227.4L814.8 227.2L815.8 227.5C818.6 228.3 819.2 230.9 820.1 235.9C820.3 237.2 821.1 241.4 821 243V244.5C820.4 251.2 820 257.1 820.4 263.7C820.4 263.9 820.7 264.5 820.8 264.9C821.3 266 822 267.6 821.9 269.5C821.9 270.7 821.5 271.9 821.3 272.7C821.3 272.9 821.3 273 821.3 273.2C823 274.3 826 276 827 276.6H827.2C827.6 276.6 828.1 276.6 828.6 276.4C829.4 276.3 830.2 276.1 831.2 276.1H832.5C834.9 276.4 836.9 277.7 838.8 278.9C840.3 279.8 841.9 280.9 842.9 280.9C843.9 280.9 843.3 280.9 843.8 280.5C843.8 280.4 844.4 279.9 845.3 278.2C848.2 272.7 849.2 260.4 848.9 253.4L848.7 253.7H848.6ZM816.7 215.2L798.6 217.8H797.8C797.8 217.9 797 217.7 797 217.7C794.5 217 793.1 214.5 793.6 211.4C794 208.3 796.9 203.6 801.3 196.6C802.4 194.9 803.3 193.4 803.9 192.4C805 190.5 806 188.6 807 186.5C808 184.4 809.1 182.2 810.3 180.1C810.9 178.1 812.5 176.9 814.6 176.9C816.7 176.9 815.5 176.9 816.1 177L819.5 177.5V180.9L820.2 211.1V214.6L816.8 215.1L816.7 215.2Z" fill="black"/>
<path d="M543.6 265.401C543.4 264.401 543 263.001 542.5 261.601C542 260.001 541.4 258.401 541.1 256.601C540.5 253.301 540.8 250.001 541.1 246.901C541.1 244.401 541.4 242.101 541.1 240.201C540.8 238.301 540 236.401 539.1 234.501C538.4 233.001 537.7 231.301 537.2 229.601C535.8 224.501 535.2 218.801 534.6 213.301C533.5 203.401 532.4 193.101 526.7 186.201C525.9 185.201 525.2 185.001 524.3 185.001L524.8 184.801C523.2 184.801 521.1 185.601 519 186.501H518.7C518.7 186.501 518.3 186.801 518.1 187.001C517.5 187.501 516.7 188.101 515.7 188.601C514.5 189.201 513.3 189.201 512.5 189.201H512C511 190.001 508.9 192.801 508.5 193.801C508.1 195.201 508.3 196.201 508.9 198.001C509.2 199.101 509.6 200.401 509.8 201.901C510.2 205.101 510.6 208.201 511 211.401C512.6 224.001 514.3 237.001 515.1 249.801C515.3 253.201 516.1 256.701 516.9 260.201C517.9 264.801 518.9 269.501 518.8 274.101C518.6 280.801 511.5 292.401 503.6 293.601L501.4 293.901L500 292.201C493.8 284.901 489.3 275.901 485.7 263.101C482.4 251.401 480.9 239.401 479.5 227.701C478.6 220.201 477.6 212.501 476.2 205.001C475.8 203.001 475.5 202.401 475.4 202.201C475.4 202.201 475 202.001 473.8 201.901H471.9C460.6 201.901 450.1 205.801 449 209.001C449.6 212.301 449.9 215.701 450.3 219.001C450.7 222.701 451.1 226.101 451.7 229.401C452 230.601 452.5 232.001 453 233.501C453.7 235.401 454.4 237.501 454.7 239.601C455 241.701 454.5 243.701 454.1 245.401C453.8 246.201 453.6 247.501 453.6 247.901C453.6 248.701 454.4 249.801 455.1 250.901C456 252.301 457 253.901 457.5 255.801C458.4 259.101 458.9 263.001 459.5 267.201C460.2 272.401 460.9 277.901 462.3 281.501C464.6 287.301 467.2 292.401 469.9 297.901C470.5 299.101 471.2 300.401 471.8 301.701C472.5 303.101 472.9 304.501 473.2 305.801C473.5 306.901 473.8 308.001 474.2 308.601C474.5 308.901 475.8 309.501 476.6 309.901C478 310.601 479.5 311.201 480.7 312.301C481.8 313.301 482.4 314.301 482.9 315.001C483.4 315.701 483.5 316.001 484 316.301C484.6 316.701 485.1 316.801 486.2 316.801H488.5C489.6 316.801 491.2 316.901 492.9 317.501C494.3 318.001 495.4 318.801 496.2 319.401C497.1 320.001 497.5 320.301 498.1 320.401C498.5 320.401 497.8 320.401 499.3 320.401C500.8 320.401 502.4 319.901 504.2 319.301C505.6 318.801 507.3 318.301 509.1 318.001C512 317.501 514.3 317.501 516.3 317.501C520.3 317.401 522.9 317.401 527.7 314.101C530.2 312.401 530.6 311.501 531.3 309.501C531.7 308.301 532.3 306.801 533.4 305.001C534.1 303.801 535.1 302.701 536.1 301.701C537.1 300.701 537.9 299.901 538.3 299.101C539 297.201 543 284.001 543.5 281.701C543.5 280.701 543.3 279.301 543 277.901C542.6 276.001 542.3 273.901 542.3 271.801C542.3 269.701 542.8 268.701 543.2 267.301C543.4 266.701 543.7 265.701 543.7 265.301L543.6 265.401Z" fill="black"/>
<path d="M742.1 155.599C735.6 157.099 731 150.999 735.3 145.299C744.5 132.899 758.1 143.599 745.1 153.699C732.1 163.799 743.5 155.299 742.1 155.599Z" fill="black"/>
<path d="M179.4 140.9C172.7 142.4 168.3 136.2 172.5 130.6C178 123.2 189.7 123.8 186.5 134.1C183.3 144.4 181.1 140.5 179.3 140.9H179.4Z" fill="black"/>
<path d="M894.6 276.599C899.8 281.799 885.7 294.799 880.9 285.799C877.4 279.099 890.5 272.599 894.6 276.599Z" fill="black"/>
<path d="M504 380.299C501.9 380.799 499.7 380.299 498.2 378.699C492 371.699 509 361.299 511.3 369.099C513.6 376.899 507.5 379.499 504 380.299Z" fill="black"/>
<path d="M408.7 65.8987C409.5 66.6987 411.9 71.9987 410.3 73.0987C406.4 75.1987 406.5 79.8987 401.1 78.6987C390.5 76.2987 401.6 59.2987 408.7 65.8987Z" fill="black"/>
<path d="M275.4 403.3C275.2 403.6 270.3 407.9 270 408C264 410.6 259.7 404.7 262.7 399.4C266.8 392.1 280.9 396.4 275.3 403.3H275.4Z" fill="black"/>
<path d="M148.3 271.399C145.7 274.099 138.8 274.199 138.2 269.699C137.6 265.199 143.4 259.699 145.6 259.199C153.3 257.399 152.2 267.399 148.4 271.399H148.3Z" fill="black"/>
<path d="M119.4 138.8C115.3 134.7 119.4 128 124.1 126.7C128.8 125.4 133 130.1 131.4 133.4C129.8 136.7 127.5 137.9 127 138.3C124.7 140.2 121.7 141.2 119.4 138.8Z" fill="black"/>
<path d="M271.6 154.9C267.1 155.9 262.5 152.2 265.1 147.7C267.7 143.2 272.1 141.1 273.2 141.1C274.3 141.1 277 143.8 277.4 144.6C279 148 275 154.2 271.7 154.9H271.6Z" fill="black"/>
<path d="M594.1 206.499C592.1 206.899 589.4 205.999 588.3 204.199C584.2 197.299 598.4 189.399 601.2 197.599C604 205.799 596.9 205.899 594.1 206.499Z" fill="black"/>
<path d="M902.7 99.1002C889.3 103.1 896.2 85.4002 903.4 86.2002C910.6 87.0002 908.7 90.4002 908.6 91.8002C908.5 93.2002 903.7 98.8002 902.6 99.1002H902.7Z" fill="black"/>
<path d="M930.6 66.9996C922.8 68.4996 922 57.4996 929.2 54.3996C936.4 51.2996 939.6 65.2996 930.6 66.9996Z" fill="black"/>
<path d="M130.6 228.2C128.3 228.6 124.4 226 124.1 223.7C123.3 218.4 133.4 212.4 137 217.9C140.6 223.4 133.5 227.7 130.6 228.2Z" fill="black"/>
<path d="M623.8 395.2C626.6 397.2 624.8 406.8 618 407C604.6 407.4 617.6 390.8 623.8 395.2Z" fill="black"/>
<path d="M85.1998 252.499C79.9998 246.099 95.7998 236.899 97.4998 245.499C99.1998 254.099 94.3998 252.499 93.0998 253.399C91.1998 254.799 86.6998 254.199 85.1998 252.499Z" fill="black"/>
<path d="M815 393.899C819.2 398.299 808.9 407.099 804.7 402.399C800.5 397.699 809.2 387.699 815 393.899Z" fill="black"/>
<path d="M791 461.599C800.6 453.499 803.1 474.399 789.7 471.799C776.3 469.199 788.4 463.799 791 461.599Z" fill="black"/>
<path d="M158 355.401C289.5 350.201 421.1 357.201 552.7 355.801C617.5 355.101 682.2 352.101 746.6 344.801C811.3 337.501 875.8 327.301 941 324.601C1014.5 321.501 1088.2 325.801 1161.5 318.701C1165.3 318.301 1165.3 312.301 1161.5 312.701C1096.1 319.001 1030.3 316.301 964.7 317.901C899.3 319.501 834.8 328.301 769.9 336.201C705.6 344.001 641.1 348.301 576.3 349.501C510.5 350.801 444.8 349.601 379 348.601C305.3 347.501 231.6 346.601 157.9 349.501C154.1 349.701 154 355.701 157.9 355.501L158 355.401Z" fill="black"/>
</g>
<defs>
<clipPath id="clip0_172_34">
<rect width="1267.2" height="537.1" fill="white"/>
</clipPath>
</defs>
</svg>
