<svg width="580" height="192" viewBox="0 0 580 192" fill="none" xmlns="http://www.w3.org/2000/svg">
<path d="M110.712 47.6208C112.425 47.6208 114.138 47.6208 115.852 47.6208C116.268 47.6208 116.662 47.5745 117.079 47.6208C118.375 47.7828 119.347 48.1069 120.019 49.5654C120.806 51.3249 121.593 52.9222 120.759 54.89C120.597 55.2836 120.667 55.8855 120.806 56.3254C121.315 58.108 121.315 59.8674 120.806 61.65C120.505 62.7381 120.459 63.7335 121.431 64.567C122.241 65.2383 122.195 66.0718 121.848 67.0209C121.5 68.0164 121.454 69.1045 121.084 70.0768C120.482 71.6047 120.412 72.878 121.848 74.0355C122.125 74.267 122.033 75.1236 121.94 75.6561C121.824 76.2811 121.477 76.8831 121.292 77.5081C121.014 78.5499 120.922 79.5685 121.477 80.6103C122.426 82.3929 122.357 84.2218 121.523 86.0507C121.385 86.3516 121.176 86.6294 121.153 86.9536C120.945 88.8288 120.667 90.6808 120.644 92.556C120.621 95.3572 120.204 98.0658 119.394 100.728C119.116 101.654 119.139 102.65 118.931 103.599C118.19 106.932 116.662 109.803 114.324 112.327C113.004 113.739 111.985 115.429 110.828 117.003C110.643 117.258 110.527 117.628 110.272 117.79C107.888 119.272 105.619 121.124 103.026 122.073C100.966 122.837 98.7664 123.485 96.5903 123.971C95.9652 124.11 95.2939 123.971 94.6225 123.971C93.4187 123.971 92.2843 123.879 91.2888 125.013C90.4091 126.009 88.9506 125.569 87.7931 125.383C85.478 125.036 83.325 124.226 81.5424 122.467C80.9637 121.911 79.9682 121.772 79.1348 121.471C77.9309 121.054 76.6577 120.823 76.4262 119.133C76.3567 118.6 75.7779 117.906 75.2686 117.674C74.1111 117.119 73.7175 116.17 73.2777 115.081C72.7915 113.901 72.4443 112.674 71.5414 111.632C70.9163 110.914 70.8237 109.687 70.6617 108.669C70.5228 107.858 70.6154 107.025 70.6617 106.192C70.6848 105.428 70.6385 104.71 69.9671 104.201C68.9717 103.414 68.9717 102.349 69.3884 101.284C69.9208 99.941 69.6662 98.9224 68.4855 98.1121C67.6058 97.5102 67.3743 96.5842 67.2122 95.5656C66.8881 93.6441 66.4714 91.7457 66.0315 89.8474C65.9158 89.3844 65.6611 88.8982 65.3139 88.5972C64.0638 87.5092 64.0869 86.2127 64.5499 84.7774C64.5962 84.6153 64.7583 84.4533 64.7351 84.3375C64.4573 83.1569 64.0175 82.0225 63.8554 80.8418C63.6933 79.638 64.0638 78.3184 62.7442 77.5081C62.4664 77.3461 62.2117 77.0683 62.0728 76.7905C61.7024 75.9107 61.6792 74.6606 61.031 74.1513C60.3597 73.6188 59.2947 73.642 58.5539 72.8549C57.7205 71.9983 56.563 72.253 55.5675 72.6234C54.2711 73.0864 53.2756 72.9938 52.257 71.9288C51.2846 70.9334 49.8956 71.2343 48.8075 71.6047C47.6269 71.9983 46.886 71.8131 45.96 71.026C44.1543 69.498 41.9318 70.2389 41.2142 72.4613C40.9827 73.1558 40.8206 73.8735 40.7974 74.5912C40.7511 75.4014 40.6122 76.0496 39.7788 76.3506C38.9454 76.6516 38.7602 77.3461 38.8065 78.1332C38.9223 79.4759 38.6907 80.7029 38.0425 81.9299C37.5332 82.9022 38.0888 83.6893 39.2001 83.7588C39.6631 83.7819 40.1955 83.7588 40.6354 83.5736C41.7698 83.1337 42.8115 83.2495 43.9459 83.5736C44.7562 83.8051 45.7285 83.7356 46.5619 83.5273C47.8121 83.2263 48.9233 82.8328 49.7336 84.3375C49.8956 84.6385 50.8216 84.8006 51.2383 84.6385C54.0396 83.5041 56.4704 84.8237 58.9243 85.796C59.341 85.9581 59.7115 86.56 59.8967 87.0462C60.869 89.4075 60.4523 91.5142 58.6002 93.2737C57.489 94.3386 56.5861 95.6582 54.9193 95.9591C53.646 96.1906 52.3959 96.3527 51.2152 97.024C50.567 97.3945 49.6178 97.3713 48.9233 96.7231C48.6918 96.5147 48.3677 96.2138 48.113 96.2369C45.8906 96.399 43.807 95.7739 41.6772 95.2183C41.0984 95.0562 40.3807 95.2646 39.7788 95.4498C38.5981 95.8434 37.6027 95.7971 36.6766 94.8016C36.0979 94.1765 35.5191 94.4312 35.4034 95.2646C35.3339 95.8434 35.3339 96.4221 35.3802 97.0009C35.5191 98.4825 35.1256 99.779 33.9912 100.774C33.5282 101.191 33.505 101.608 33.6671 102.279C34.0606 103.946 34.1995 105.543 32.8105 107.095C32.0465 107.928 31.4909 109.34 32.2549 110.752C32.6716 111.539 32.4169 112.303 31.7687 112.998C30.9353 113.878 30.2639 114.919 29.4305 115.799C28.5045 116.771 28.1804 116.795 27.1849 115.892C26.5136 115.267 26.0505 115.105 25.0782 115.429C23.5271 115.938 22.8558 115.452 22.3002 113.878C21.7214 112.257 21.2352 110.637 21.9529 108.877C22.1844 108.298 22.1149 107.581 22.1149 106.932C22.1149 105.613 22.0455 104.316 22.8326 103.136C23.041 102.835 23.0873 102.349 23.0873 101.955C22.9947 100.126 23.4114 98.4131 23.9901 96.6768C24.4532 95.2414 24.4763 93.6209 24.5458 92.093C24.6384 90.2872 24.5458 88.4583 24.5921 86.6294C24.5921 86.097 24.7541 85.2867 25.1014 85.1015C26.2821 84.4764 26.2589 83.481 25.8885 82.6012C25.2403 81.0733 25.4949 79.9158 26.7219 78.874C28.0878 77.6933 27.6711 76.0496 27.347 74.7301C27.0229 73.4568 27.0229 72.6234 27.9489 71.651C28.8286 70.7482 29.037 69.4749 28.9675 68.2248C28.8981 67.1367 29.0601 66.1181 29.5926 65.1457C29.8241 64.729 29.9861 64.1966 29.9398 63.7567C29.7083 61.5342 31.1668 60.4693 32.7874 59.6359C33.5976 59.196 34.6394 59.1034 35.6117 59.0571C37.7416 58.9645 39.8946 58.8025 41.9781 59.0803C44.6867 59.4275 47.3722 59.9137 50.0577 60.3304C51.8171 60.6082 53.3913 61.2564 55.2202 60.5619C56.1694 60.2147 57.2343 60.423 58.1141 61.3722C59.0401 62.3677 60.1513 62.7844 61.6329 62.1593C62.6053 61.7658 63.647 61.7658 64.6888 62.8307C65.6611 63.8262 67.2817 64.104 68.3466 65.2152C68.4855 65.3772 69.0643 65.192 69.4347 65.0994C70.9858 64.6596 72.5137 64.1734 74.0648 63.7799C75.4075 63.4326 76.6577 64.2429 76.5419 65.5393C76.3335 67.5071 76.0094 69.3128 77.9078 70.7713C78.4171 71.1649 78.3708 72.2761 78.5328 73.0632C78.7644 74.267 78.9496 75.4709 79.1811 76.6516C79.2274 76.8831 79.5052 77.1146 79.482 77.3229C79.2042 79.5917 80.1534 81.6521 80.5701 83.8051C80.7553 84.8006 81.1026 85.9118 81.7276 86.6757C82.5147 87.6481 82.7463 88.5741 82.3064 89.6159C81.8897 90.565 82.098 91.329 82.4221 92.2087C82.7463 93.019 82.9778 93.945 82.9546 94.8247C82.862 96.7462 83.325 98.5288 83.9038 100.335C84.4362 101.932 84.7372 103.645 84.8993 105.335C85.0382 106.77 85.6401 107.951 86.7281 108.646C88.3487 109.687 90.085 110.567 91.8676 111.331C92.5389 111.609 93.4881 111.563 94.2058 111.331C95.618 110.868 96.9838 110.428 98.4655 110.59C99.4378 110.706 100.086 110.174 100.456 109.433C100.919 108.507 101.66 107.974 102.471 107.395C103.86 106.423 104.739 105.08 104.577 103.205C104.415 101.538 104.739 99.9642 105.411 98.4131C105.92 97.2092 106.151 95.9128 106.059 94.5701C106.013 93.945 106.151 93.2737 106.337 92.6486C106.638 91.5605 106.753 90.6808 105.573 89.9168C104.716 89.3612 104.878 88.2731 105.249 87.4397C105.874 86.0507 106.036 84.708 105.596 83.2263C105.387 82.5549 105.318 81.6058 105.619 81.027C106.406 79.5917 105.758 78.2952 105.503 76.9757C104.924 73.8735 104.068 70.8176 103.674 67.6923C103.42 65.7476 103.443 63.8262 102.702 61.9278C102.471 61.3027 102.818 60.3073 103.142 59.5896C103.698 58.4321 103.698 57.3903 103.026 56.3254C102.54 55.5614 102.517 54.8437 102.841 53.9872C103.258 52.8065 103.234 51.7184 102.447 50.5146C101.429 48.9635 102.262 47.6671 104.184 47.5976C106.383 47.505 108.605 47.5976 110.805 47.5976" fill="#1D1D1B"/>
<path d="M399.285 128.462C395.697 128.462 392.086 128.462 388.497 128.462C386.784 128.462 385.094 128.509 383.497 127.722C383.08 127.513 382.548 127.467 382.085 127.467C380.441 127.467 378.913 127.004 377.408 126.379C377.246 126.309 377.13 126.147 376.992 126.147C374.63 126.217 372.408 125.314 370.116 124.967C369.005 124.805 367.893 124.619 366.782 124.411C366.157 124.295 365.532 123.971 364.907 123.994C363.31 124.064 361.874 123.647 360.462 122.976C360.092 122.79 359.698 122.49 359.351 122.536C357.082 122.883 355.091 121.679 352.938 121.448C351.179 121.263 350.253 120.128 350.206 118.276C350.16 116.146 350.345 114.086 350.855 111.956C351.364 109.803 350.97 107.419 350.924 105.127C350.924 104.316 350.53 103.437 350.716 102.719C351.526 99.5473 351.063 96.3294 351.132 93.1346C351.155 91.6993 351.364 90.3566 352.012 89.1065C352.521 88.111 352.683 87.1155 352.66 86.0274C352.614 84.5458 352.66 83.0642 352.66 81.5594C352.66 81.0732 352.73 80.5176 352.545 80.1009C351.618 78.2488 351.919 76.2579 351.619 74.3364C351.225 71.813 351.919 69.6137 352.429 67.2292C352.845 65.2614 352.683 63.1315 352.429 61.1174C352.244 59.6358 352.012 58.2236 352.498 56.7883C352.66 56.3484 352.66 55.816 352.637 55.3298C352.521 53.5241 353.216 51.9961 353.934 50.3987C354.535 49.056 355.554 48.6624 356.827 48.5698C357.314 48.5235 357.8 48.5698 358.309 48.5698C364.513 48.5698 370.718 48.5698 376.945 48.5698C378.982 48.5698 380.904 48.6856 382.872 49.4959C386.668 51.0469 390.65 52.1582 394.516 53.5241C398.012 54.751 401.577 55.7002 405.166 56.5799C406.532 56.9272 408.06 57.3207 408.198 59.2422C408.198 59.3811 408.361 59.52 408.476 59.6358C410.444 61.8351 410.027 64.5437 409.958 67.1597C409.958 67.7616 409.541 68.4099 409.194 68.9192C408.708 69.6137 408.222 69.8683 407.157 69.5211C404.656 68.6877 401.971 68.4562 399.494 67.4375C398.313 66.9514 397.063 66.6041 395.836 66.2106C394.702 65.817 393.544 65.5392 392.34 65.3771C390.697 65.1456 389.099 64.4511 387.502 63.9187C385.974 63.4325 384.469 62.8769 382.918 62.4139C382.154 62.1824 381.367 61.9972 380.557 61.974C379.168 61.9509 377.894 61.7425 376.528 61.2563C375.209 60.7933 373.635 60.9785 372.199 61.048C371.852 61.048 371.459 61.8119 371.273 62.2981C370.949 63.1084 370.764 63.9881 370.556 64.8678C370.417 65.4234 370.278 65.979 370.278 66.5347C370.255 69.4285 370.255 72.3223 370.278 75.2161C370.278 76.9756 371.273 78.2025 373.056 78.272C374.561 78.3414 375.927 78.735 377.246 79.3138C379.677 80.4018 382.386 80.5407 384.84 81.652C385.534 81.9529 386.553 81.9992 387.247 81.7214C389.308 80.8417 391.229 81.4668 393.174 81.9761C397.595 83.1336 401.948 84.5689 406.462 85.3561C407.898 85.6107 409.31 86.421 410.606 87.185C411.532 87.7406 411.972 88.7823 411.972 89.9399C411.972 92.7411 411.995 95.5655 411.972 98.3667C411.972 99.8946 411.231 100.497 409.726 100.682C407.365 100.96 405.305 99.8946 403.128 99.3853C400.235 98.7371 397.433 97.6722 394.401 97.649C394.077 97.649 393.753 97.5564 393.452 97.4638C390.396 96.4452 387.247 95.8201 384.145 95.033C381.506 94.3616 378.797 93.9449 376.251 92.9726C375.95 92.8568 375.649 92.7179 375.325 92.7179C370.833 92.6485 371.273 92.4864 371.273 96.3526C371.273 100.983 371.273 105.613 371.273 110.243C371.273 112.072 371.296 112.049 373.218 112.581C374.306 112.882 375.348 113.391 376.436 113.623C379.029 114.155 381.622 114.688 384.238 114.966C386.391 115.197 388.636 114.757 390.673 115.892C390.928 116.031 391.322 116.054 391.623 115.984C394.632 115.29 397.48 115.984 400.327 116.795C401.624 117.165 403.105 117.049 404.332 117.535C406.624 118.438 409.078 118.299 411.37 119.017C411.833 119.156 412.296 119.318 412.736 119.503C413.106 119.642 413.5 119.781 413.847 119.966C415.283 120.753 415.954 123.601 415.306 126.055C414.912 127.536 413.801 128.393 411.995 128.393C407.735 128.416 403.499 128.393 399.239 128.393" fill="#1D1D1B"/>
<path d="M195.793 48.6161C196.279 48.6161 196.788 48.6393 197.275 48.6161C199.613 48.4309 201.743 48.7087 203.548 50.5608C204.359 51.3942 205.516 52.0424 206.627 52.3434C208.387 52.8295 209.591 53.9408 210.794 55.1909C211.304 55.7002 211.952 56.0938 212.577 56.441C213.573 56.9735 214.614 57.3439 215.147 58.5477C215.355 59.0339 216.142 59.2654 216.698 59.5663C217.045 59.7515 217.439 59.9599 217.832 60.0062C219.221 60.1683 220.032 61.3026 221.143 61.9509C221.93 60.9785 222.624 59.9136 223.504 59.0339C224.361 58.2005 225.75 58.3857 226.56 59.2654C227.324 60.0988 227.301 60.8165 226.514 61.8814C225.356 63.4325 225.287 64.0576 226.93 64.9836C228.806 66.0485 230.611 67.1366 232.255 68.5256C232.834 69.0118 233.737 69.359 234.477 69.3822C236.075 69.4053 237.232 70.0767 238.367 71.1416C239.316 72.0213 240.01 71.8361 240.682 70.7481C240.774 70.6092 240.844 70.4471 240.867 70.2851C241.376 67.8311 243.043 65.979 244.293 63.9187C244.965 62.8074 245.914 61.8814 246.747 60.8859C248.322 59.0107 249.873 57.1124 251.47 55.3066C252.882 53.7093 255.035 52.4128 257.582 53.5472C257.929 53.7093 258.392 53.5472 258.786 53.5935C260.846 53.8019 262.281 55.1909 262.374 57.2513C262.443 58.594 262.767 60.122 261.031 60.8165C260.985 60.8396 260.939 60.9554 260.915 61.0248C260.128 63.3399 258.184 64.4974 256.401 65.9327C255.105 66.9977 254.179 68.5025 253.091 69.8452C252.674 70.3545 252.28 70.8638 251.887 71.3731C251.609 71.7667 251.146 72.1834 251.146 72.577C251.123 73.9197 250.312 74.8689 249.618 75.8643C248.067 78.1331 247.025 80.7491 244.803 82.5317C244.479 82.8095 244.386 83.3883 244.178 83.805C243.83 84.4532 243.576 85.194 243.066 85.6802C242.071 86.6756 241.237 87.7174 240.821 89.1065C240.751 89.338 240.659 89.6852 240.497 89.7547C238.506 90.4492 238.182 92.579 237.024 93.9681C236.098 95.0793 235.334 96.5609 235.38 98.2046C235.38 99.038 235.38 99.8483 235.38 100.682C235.38 102.827 236.036 104.648 237.348 106.145C238.182 107.118 239.038 107.349 240.149 106.979C241.214 106.608 242.279 106.261 243.321 105.844C243.969 105.59 244.594 105.219 245.219 104.872C245.636 104.64 246.053 104.224 246.469 104.224C247.766 104.201 248.46 103.39 248.738 102.325C249.386 99.7557 251.215 97.9731 252.628 95.8896C254.711 92.8105 257.258 90.0556 258.971 86.6988C259.249 86.1432 259.85 85.7265 260.244 85.2172C261.263 83.8513 262.467 82.578 263.207 81.0501C264.411 78.5498 266.194 76.5357 268.208 74.7531C269.203 73.8734 270.129 73.0863 270.245 71.6278C270.291 71.2111 270.685 70.7944 270.963 70.4008C271.912 69.0812 272.954 67.8311 273.857 66.4884C274.898 64.9604 276.357 64.7521 277.954 65.0299C279.135 65.2382 279.413 66.3958 279.459 67.3218C279.575 70.0535 279.575 72.7853 279.459 75.4939C279.436 76.3505 279.065 77.2765 278.579 77.971C277.7 79.2443 276.658 80.4018 275.593 81.5362C274.69 82.5085 273.787 83.3883 273.532 84.8005C273.463 85.194 272.977 85.6339 272.583 85.7959C271.379 86.2821 270.87 87.3702 270.106 88.2962C268.486 90.2408 267.768 92.7642 265.846 94.5005C265.106 95.1487 264.828 96.3063 264.295 97.186C263.786 98.0194 263.346 98.9454 262.629 99.5937C260.591 101.423 259.179 103.645 257.906 106.053C256.725 108.275 255.406 110.428 253.623 112.257C252.952 112.952 252.558 113.878 251.979 114.665C251.354 115.521 250.775 116.355 249.595 116.632C248.206 116.957 246.724 117.211 245.775 118.508C243.414 119.248 241.284 120.776 238.621 120.568C237.695 120.499 236.723 120.915 235.774 121.008C234.802 121.124 234.014 120.892 233.829 119.688C233.667 118.693 232.834 118.253 232 117.859C231.213 117.489 230.472 116.864 229.639 116.702C227.069 116.193 225.865 113.97 224.129 112.396C223.782 112.072 223.666 111.4 223.55 110.868C223.296 109.687 223.203 108.437 222.856 107.303C222.439 105.914 222.3 104.525 222.833 103.205C223.504 101.538 223.62 99.8715 223.527 98.1352C223.458 96.5841 223.851 95.334 224.847 94.0607C226.074 92.5327 226.907 90.727 228.481 89.4769C228.551 89.4306 228.644 89.3611 228.644 89.2917C228.597 86.8608 230.982 85.6802 231.537 83.5503C231.63 83.1568 231.861 82.7169 232.139 82.5085C232.718 82.115 233.343 81.5362 233.065 81.0038C232.625 80.1703 231.977 79.3138 230.82 79.3601C230.496 79.3601 230.148 79.4295 229.847 79.3601C228.69 79.0591 227.463 78.8739 226.653 77.809C225.68 76.5357 224.407 75.7254 222.833 75.4013C222.462 75.3319 222.069 75.1004 221.791 74.8457C221.351 74.429 221.073 74.6837 220.796 74.9846C220.078 75.7023 219.615 76.5589 219.638 77.6238C219.661 79.1517 219.383 80.4713 217.948 81.4205C217.508 81.6983 217.369 82.5085 217.207 83.1105C216.976 83.8744 217.022 84.8236 216.605 85.4255C215.98 86.3515 215.563 87.2544 215.679 88.3888C215.702 88.6897 215.54 89.0139 215.425 89.3148C215.008 90.3566 214.545 91.3752 214.174 92.4401C213.688 93.9681 213.526 95.6118 212.253 96.7924C212.021 97.0008 211.859 97.348 211.813 97.6722C211.489 101.098 210.517 104.363 209.359 107.581C209.753 109.942 208.294 112.002 208.271 114.317C208.271 115.29 207.924 116.401 207.067 117.165C206.234 117.906 205.887 118.878 205.887 120.036C205.887 121.101 205.424 122.003 204.382 122.304C203.155 122.652 201.743 123.068 200.724 121.957C199.752 120.892 198.71 120.522 197.298 120.522C195.515 120.522 194.288 119.503 193.64 117.79C193.084 116.285 192.876 114.827 193.547 113.276C193.895 112.465 193.871 111.516 194.149 110.683C194.867 108.437 195.214 106.099 195.631 103.784C195.654 103.622 195.7 103.437 195.793 103.344C197.691 101.168 197.622 98.5287 197.552 95.8896C197.506 94.5468 197.506 93.3199 198.687 92.3012C199.428 91.6762 199.636 90.6112 199.52 89.5695C199.381 88.2962 199.636 87.1387 200.469 86.0969C200.747 85.7496 201.002 85.194 200.955 84.7773C200.793 83.4577 201.418 82.6243 202.275 81.7677C202.645 81.4205 202.923 80.7723 202.923 80.2629C202.854 77.0913 203.896 74.1743 204.798 71.2342C205.238 69.822 205.493 68.3867 205.424 66.8819C205.331 65.0299 204.474 63.5945 202.669 63.0389C200.678 62.4139 199.034 61.3489 197.576 59.8673C197.02 59.3117 196.256 58.7329 195.538 58.6403C194.334 58.4783 193.709 57.9458 193.061 56.9503C192.367 55.8854 191.603 54.8436 190.167 54.4732C189.102 54.2186 188.107 52.0887 188.292 51.0469C188.524 49.7274 189.727 48.7087 191.279 48.6393C192.737 48.5698 194.219 48.6393 195.7 48.6393" fill="#1D1D1B"/>
<path d="M303.906 139.876C330.067 139.876 356.204 139.876 382.364 139.876C383.591 139.876 384.748 139.852 385.906 139.251C386.647 138.857 387.619 138.903 388.499 138.903C405.584 138.903 422.669 138.903 439.731 138.903C440.958 138.903 442.115 138.903 443.273 138.255C443.921 137.885 444.847 137.908 445.634 137.908C456.168 137.908 466.724 137.908 477.258 137.908C478.323 137.908 479.318 137.862 480.337 137.375C481.101 137.028 482.05 136.936 482.907 136.936C489.528 136.889 496.149 136.889 502.77 136.936C504.251 136.936 505.687 136.843 507.029 136.218C508.465 135.546 509.97 135.384 511.521 135.431C513.72 135.5 515.942 135.477 518.142 135.431C518.929 135.431 519.716 135.199 520.526 135.083C521.082 135.014 521.753 134.806 522.193 135.014C523.767 135.732 525.411 135.338 527.008 135.431C527.494 135.454 528.073 135.5 528.444 135.269C529.925 134.227 531.546 134.458 533.166 134.458C536.523 134.458 539.857 134.458 543.214 134.458C543.862 134.458 544.649 134.574 545.112 134.273C546.524 133.324 548.075 133.486 549.603 133.486C551.085 133.486 552.543 133.463 554.025 133.486C555.993 133.532 557.868 133.486 559.72 132.56C560.6 132.12 561.757 132.074 562.776 132.028C564.489 131.958 566.202 131.981 567.915 132.028C569.073 132.028 570.138 131.912 571.203 131.379C571.828 131.078 572.615 131.102 573.333 131.032C575.092 130.847 576.898 131.379 578.634 130.615C578.935 130.476 579.56 130.847 579.861 131.125C580 131.264 579.815 131.842 579.699 132.166C578.958 134.088 577.199 134.25 575.532 134.458C574.722 134.551 573.888 134.505 573.078 134.458C572.013 134.412 570.994 134.528 570.022 135.06C569.466 135.338 568.795 135.431 568.17 135.454C566.295 135.5 564.42 135.454 562.521 135.454C561.132 135.454 559.789 135.384 558.516 136.172C558.007 136.472 557.266 136.426 556.618 136.449C554.164 136.472 551.71 136.449 549.256 136.449C547.867 136.449 546.524 136.38 545.251 137.167C544.742 137.468 544.001 137.422 543.353 137.422C539.926 137.422 536.477 137.399 533.051 137.445C531.939 137.445 530.759 137.584 529.74 137.977C527.888 138.672 526.013 139.065 524.045 138.903C523.119 138.834 522.355 139.042 521.614 139.737C520.549 140.755 519.554 140.709 518.419 139.667C517.748 139.065 517.077 138.857 516.22 138.88C514.252 138.926 512.308 138.88 510.34 138.88C509.043 138.88 507.77 138.857 506.566 139.575C505.988 139.922 505.154 139.852 504.437 139.876C497.237 139.876 490.06 139.876 482.86 139.876C481.795 139.876 480.8 140.015 479.804 140.454C479.017 140.802 478.091 140.848 477.211 140.848C466.747 140.871 456.283 140.848 445.819 140.848C444.708 140.848 443.666 140.848 442.601 141.612C441.583 142.33 440.194 142.353 438.851 142.353C422.09 142.306 405.352 142.33 388.591 142.353C387.133 142.353 385.651 142.191 384.355 143.117C384.054 143.325 383.591 143.302 383.174 143.325C382.526 143.348 381.854 143.325 381.206 143.325C337.984 143.325 294.739 143.325 251.517 143.302C249.688 143.302 248.137 143.533 247.049 145.154C246.956 145.293 246.817 145.385 246.701 145.501C245.312 146.798 243.877 146.612 243.298 144.807C242.905 143.557 242.28 143.325 241.192 143.325C235.543 143.325 229.917 143.325 224.269 143.325C223.412 143.325 222.741 143.487 222.046 144.089C220.426 145.478 219.152 145.2 218.249 143.186C217.948 142.492 217.624 142.33 217.022 142.353C216.444 142.353 215.888 142.353 215.309 142.353C199.289 142.353 183.269 142.353 167.249 142.353C165.744 142.353 164.332 142.144 163.035 141.427C162.04 140.871 161.021 140.848 159.979 140.848C149.608 140.848 139.213 140.848 128.842 140.848C127.777 140.848 126.782 140.778 125.763 140.315C124.999 139.968 124.05 139.876 123.193 139.876C116.086 139.852 108.979 139.852 101.872 139.876C100.807 139.876 99.8111 139.806 98.7925 139.32C98.098 138.996 97.2414 138.903 96.4543 138.88C91.801 138.834 87.1246 138.741 82.4714 138.903C79.8785 138.996 77.5635 138.07 75.1095 137.723C72.8871 137.422 70.5488 137.26 68.3495 137.584C65.5483 138 62.9092 137.885 60.27 136.866C59.5292 136.588 58.7189 136.403 57.9318 136.38C55.1537 136.334 52.3757 136.38 49.5976 136.357C48.4632 136.357 47.352 136.519 46.3797 135.593C46.0556 135.292 45.2916 135.384 44.736 135.384C42.7682 135.361 40.8235 135.361 38.8557 135.384C37.6288 135.384 36.4481 135.384 35.3137 134.713C34.7349 134.389 33.9015 134.412 33.1839 134.389C31.5633 134.343 29.8965 134.574 28.3917 133.88C25.9146 132.722 23.1134 132.722 20.6131 131.68C19.5019 131.217 18.3906 130.801 17.3257 130.245C16.3071 129.713 16.2839 127.629 17.372 127.097C19.7102 125.962 22.0947 124.967 24.5024 124.041C25.4516 123.67 26.447 124.064 27.2805 124.643C28.2065 125.268 28.1833 126.309 27.1879 126.819C26.4933 127.166 25.6599 127.351 24.8728 127.421C23.9699 127.513 22.9976 127.513 22.6735 128.509C22.4651 129.111 23.7384 129.921 24.896 129.921C25.8914 129.921 26.7943 130.06 27.7203 130.5C28.3454 130.801 29.1094 130.87 29.827 130.916C31.98 131.055 34.2256 130.523 36.2397 131.842C36.587 132.074 37.2121 131.912 37.6982 131.912C39.7355 131.912 41.7959 131.842 43.8331 131.935C44.8517 131.981 46.0787 132.051 46.8427 132.629C47.9076 133.44 48.9494 133.37 50.0606 133.393C52.2599 133.393 54.4824 133.393 56.6817 133.393C58.1402 133.393 59.5755 133.278 60.9414 134.157C61.4275 134.482 62.1915 134.389 62.8397 134.389C66.6827 134.389 70.5257 134.389 74.3687 134.389C75.341 134.389 76.267 134.458 77.2162 134.921C77.9107 135.246 78.7673 135.361 79.5544 135.384C84.6244 135.431 89.6944 135.431 94.7643 135.384C96.246 135.384 97.6813 135.5 99.024 136.102C100.459 136.75 101.964 136.912 103.515 136.889C110.136 136.843 116.757 136.889 123.378 136.889C124.351 136.889 125.277 136.959 126.226 137.399C126.99 137.746 127.939 137.862 128.796 137.862C139.329 137.885 149.886 137.885 160.419 137.862C161.577 137.862 162.642 138 163.73 138.487C164.494 138.834 165.466 138.834 166.323 138.834C183.732 138.834 201.141 138.834 218.55 138.857C219.662 138.857 220.819 139.019 221.861 139.366C223.042 139.737 224.222 139.852 225.449 139.852C251.609 139.852 277.746 139.852 303.906 139.852" fill="#1D1D1B"/>
<path d="M300.963 82.8326C301.542 82.8326 302.098 82.8326 302.676 82.8326C305.061 82.8095 305.987 81.8603 306.033 79.3832C306.033 78.8044 305.941 78.1562 306.149 77.6701C307.353 74.892 305.848 72.6695 303.672 70.9333C302.561 70.0535 301.195 69.4516 300.431 68.0857C299.875 67.0903 298.949 67.206 298.301 68.2246C297.398 69.6368 296.541 71.1185 295.708 72.5769C295.5 72.9242 295.361 73.3178 295.268 73.7113C294.944 75.5171 294.273 77.1376 293.277 78.6655C292.444 79.9157 292.745 80.4018 294.226 80.8648C295.06 81.1195 295.963 81.4436 296.565 81.9992C297.305 82.6937 298.069 82.9021 298.995 82.8326C299.644 82.7863 300.292 82.8326 300.963 82.8326ZM292.305 104.085C292.305 101.7 292.235 99.2927 292.328 96.885C292.374 95.6117 291.935 94.4774 291.61 93.3198C291.309 92.2781 290.545 91.6993 289.573 91.3752C288.624 91.0511 288.161 91.2363 287.652 92.2549C286.564 94.4542 285.568 96.6535 285.383 99.1769C285.313 99.9872 284.827 100.936 284.225 101.469C283.647 102.001 283.323 102.557 282.998 103.205C282.42 104.363 282.049 105.752 281.17 106.608C279.734 107.997 279.294 109.826 278.438 111.47C278.137 112.072 278.137 112.882 278.091 113.6C277.975 115.313 277.396 115.961 275.799 115.475C274.502 115.081 273.252 115.081 271.956 115.058C270.057 115.035 268.784 114.016 268.807 112.118C268.853 108.877 268.136 105.52 269.641 102.395C269.131 100.033 271.446 98.413 271.284 96.1442C271.284 96.0053 271.423 95.8432 271.516 95.7275C272.65 94.2459 273.784 92.7642 274.896 91.2594C275.22 90.8196 275.451 90.2871 275.66 89.7778C276.123 88.6434 276.424 87.4627 277.442 86.6293C277.813 86.3284 278.067 85.6339 278.044 85.1245C278.021 84.0828 278.299 83.1799 278.808 82.3233C279.503 81.1426 280.243 80.0083 280.128 78.4803C280.081 77.8784 280.614 76.8598 281.146 76.6514C283.068 75.8875 283.207 74.1512 283.415 72.6232C283.693 70.3545 284.712 68.5024 285.939 66.6967C286.24 66.2337 286.402 65.6781 286.587 65.1456C287.073 63.8723 287.073 62.3907 288.207 61.3721C288.323 61.2795 288.393 61.0711 288.369 60.9322C288.068 58.3857 289.944 56.5105 290.43 54.1954C290.8 52.4823 292.999 51.5794 294.666 52.2971C295.314 52.5749 295.94 53.0379 296.449 53.5472C297.444 54.5658 298.486 55.3529 299.921 55.7002C300.824 55.9085 301.565 56.441 302.213 57.2744C303.209 58.5014 304.459 59.5895 305.964 60.2609C306.612 60.5387 307.214 61.0248 307.746 61.5341C308.881 62.5991 309.992 63.6177 311.52 64.1038C312.076 64.289 312.654 64.8447 312.978 65.3771C314.321 67.5533 315.571 69.7989 316.868 72.0213C317.192 72.5769 317.446 73.202 317.863 73.7113C319.599 75.818 319.692 78.1331 318.766 80.587C318.558 81.0963 318.372 81.6751 318.349 82.2076C318.234 84.3374 317.4 86.1432 316.15 87.81C316.011 87.9952 315.733 88.1341 315.664 88.3656C314.715 90.8427 312.446 91.954 310.548 93.3893C309.598 94.107 308.348 94.2922 307.098 94.2922C304.714 94.2922 304.459 94.5931 304.621 97.0239C304.644 97.4175 304.667 97.9036 304.876 98.2046C305.709 99.4547 305.616 100.867 305.593 102.256C305.593 103.483 305.524 104.687 306.056 105.891C306.843 107.696 307.283 109.618 307.075 111.632C306.959 112.766 307.469 113.692 308.186 114.526C308.996 115.452 309.182 116.609 308.996 117.767C308.858 118.67 308.58 119.596 307.677 120.012C306.126 120.684 304.436 121.425 302.769 120.985C301.38 120.614 300.037 120.637 298.694 120.568C298.046 120.522 297.421 120.452 296.773 120.337C295.037 120.036 294.111 118.924 293.833 117.211C293.833 117.142 293.833 117.026 293.833 116.957C291.749 113.137 292.49 108.946 292.374 104.872C292.374 104.617 292.374 104.386 292.374 104.131" fill="#1D1D1B"/>
<path d="M128.746 24.7943C127.82 24.9563 127.125 24.4007 126.708 23.5441C126.315 22.7339 126.523 21.9699 127.241 21.3448C127.681 20.9744 128.074 20.5577 128.445 20.1179C129.116 19.3539 129.88 19.0529 130.829 19.516C131.663 19.9327 132.102 20.9976 131.94 22.0162C131.778 23.1043 129.949 24.7248 128.746 24.7711" fill="#1D1D1B"/>
<path d="M341.848 76.6515C341.848 75.031 343.839 73.1095 345.39 73.4336C346.015 73.5725 346.686 74.0818 347.056 74.6374C347.473 75.2625 347.334 76.0496 346.709 76.6515C346.177 77.1608 345.644 77.6701 345.158 78.2257C344.533 78.9203 343.769 79.0592 342.959 78.6656C342.241 78.3415 341.824 77.5312 341.824 76.6515" fill="#1D1D1B"/>
<path d="M543.883 152.076C543.86 153.581 541.961 155.294 540.48 155.248C539.531 155.224 538.952 154.669 538.605 153.905C538.28 153.21 538.443 152.47 539.068 151.891C539.554 151.451 540.017 150.988 540.433 150.502C541.035 149.784 541.753 149.576 542.61 149.877C543.397 150.154 543.883 151.08 543.86 152.053" fill="#1D1D1B"/>
<path d="M563.516 152.007C563.516 150.409 565.576 148.488 567.081 148.835C567.706 148.974 568.377 149.506 568.748 150.062C569.141 150.687 568.979 151.474 568.354 152.053C567.822 152.562 567.289 153.071 566.803 153.627C566.247 154.275 565.553 154.368 564.812 154.136C564.048 153.905 563.492 152.933 563.492 151.983" fill="#1D1D1B"/>
<path d="M463.457 148.557C463.457 150.154 461.397 152.076 459.869 151.729C459.244 151.59 458.573 151.057 458.225 150.502C457.832 149.877 457.994 149.09 458.619 148.511C459.151 148.001 459.684 147.492 460.17 146.937C460.726 146.288 461.42 146.196 462.161 146.427C462.925 146.659 463.481 147.631 463.481 148.58" fill="#1D1D1B"/>
<path d="M467.023 114.086C466.097 114.225 465.518 113.623 465.124 112.882C464.707 112.072 464.916 111.308 465.61 110.683C466.097 110.243 466.513 109.734 466.999 109.294C467.833 108.53 468.643 108.414 469.384 108.923C470.171 109.479 470.565 110.544 470.31 111.516C470.032 112.581 468.134 114.109 467.023 114.063" fill="#1D1D1B"/>
<path d="M65.1997 0C65.9173 0 67.3295 1.01862 67.6073 1.80574C67.8851 2.54656 67.399 3.03272 66.936 3.49573C66.5193 3.88929 66.1026 4.28285 65.7321 4.72271C65.1302 5.44038 64.3894 5.64873 63.556 5.32463C62.6994 5.00052 62.1901 3.98189 62.3059 2.91697C62.4216 1.80574 64.181 0.0231506 65.1997 0Z" fill="#1D1D1B"/>
<path d="M59.5498 28.7761C60.5453 28.5909 61.2398 29.1697 61.6797 30.0031C62.0733 30.8133 61.8649 31.5773 61.1472 32.2024C60.7768 32.5265 60.4527 32.8969 60.1055 33.2442C58.7396 34.5637 58.5081 34.5869 57.3274 33.4062C56.1236 32.2024 56.031 31.4616 57.1422 30.304C57.7904 29.6327 58.2997 28.6372 59.5267 28.7992" fill="#1D1D1B"/>
<path d="M25.0312 175.852C25.0312 174.763 26.5591 172.865 27.6009 172.634C28.4343 172.448 29.5224 173.097 30.1706 174.138C30.6799 174.949 30.2632 175.504 29.7076 176.06C29.2446 176.5 28.7584 176.963 28.3417 177.449C27.7861 178.097 27.0916 178.19 26.3508 177.981C25.5868 177.75 25.0312 176.778 25.0081 175.852" fill="#1D1D1B"/>
<path d="M478.182 42.3886C478.182 43.4767 476.654 45.3751 475.613 45.6066C474.779 45.7918 473.691 45.1436 473.043 44.1018C472.534 43.2915 472.95 42.7359 473.506 42.1803C473.969 41.7173 474.455 41.2774 474.872 40.7913C475.428 40.143 476.122 40.0504 476.863 40.2588C477.627 40.4903 478.182 41.4626 478.182 42.3886Z" fill="#1D1D1B"/>
<path d="M257.488 46.7409C257.511 48.0142 255.891 49.9589 254.733 50.0746C253.923 50.1672 252.719 49.357 252.256 48.3846C251.839 47.5281 252.418 47.0188 252.95 46.4863C253.344 46.0696 253.761 45.6992 254.154 45.2593C254.779 44.5648 255.543 44.3564 256.33 44.7963C257.048 45.1899 257.627 45.7918 257.511 46.7178" fill="#1D1D1B"/>
<path d="M286.913 46.7178C286.959 47.968 285.339 49.9358 284.181 50.0747C283.371 50.1673 282.19 49.4033 281.681 48.431C281.218 47.5744 281.797 47.0651 282.329 46.5326C282.723 46.1391 283.163 45.7455 283.533 45.3057C284.135 44.588 284.922 44.3796 285.709 44.7964C286.427 45.1668 287.029 45.7687 286.913 46.7178Z" fill="#1D1D1B"/>
<path d="M348.445 62.5064C347.519 62.5064 346.569 61.9508 346.338 61.1637C346.106 60.4229 346.199 59.7052 346.847 59.1496C347.218 58.8255 347.542 58.4551 347.889 58.1078C349.348 56.6725 350.551 56.8577 351.454 58.6866C351.616 59.0339 351.663 59.4969 351.616 59.8673C351.454 60.9322 349.533 62.4833 348.468 62.4833" fill="#1D1D1B"/>
<path d="M5.70069 92.2549C4.75151 92.2549 3.82549 91.7688 3.54769 90.9817C3.24673 90.1251 3.45508 89.3843 4.17275 88.7824C4.47371 88.5277 4.75151 88.2036 5.02932 87.9258C6.51096 86.4673 7.66848 86.6062 8.61766 88.412C8.80286 88.7592 8.84916 89.1991 8.80286 89.5926C8.68711 90.6576 6.78876 92.255 5.70069 92.2781" fill="#1D1D1B"/>
<path d="M530.343 96.2369C531.338 96.0516 532.033 96.6304 532.449 97.4638C532.843 98.2741 532.634 99.0381 531.917 99.6631C531.546 99.9872 531.222 100.358 530.875 100.705C529.509 102.024 529.278 102.048 528.097 100.867C526.893 99.6631 526.8 98.9223 527.912 97.7648C528.56 97.0934 529.069 96.098 530.296 96.26" fill="#1D1D1B"/>
<path d="M62.3059 141.728C62.2596 140.501 63.8801 138.533 65.0377 138.394C65.8479 138.301 67.0286 139.065 67.5379 140.038C68.0009 140.894 67.399 141.404 66.8897 141.936C66.4962 142.33 66.0563 142.723 65.6859 143.163C65.084 143.881 64.3432 144.043 63.5097 143.695C62.8152 143.418 62.3291 142.561 62.3059 141.728Z" fill="#1D1D1B"/>
<path d="M505.708 96.723C504.018 96.723 503.416 96.0748 503.694 94.4774C503.903 93.2504 505.824 91.7225 507.028 91.7225C508 91.7225 508.579 92.2781 508.926 93.0189C509.25 93.7134 509.065 94.4079 508.509 95.0562C507.306 96.3989 506.912 96.6998 505.685 96.6998" fill="#1D1D1B"/>
<path d="M528.187 111.817C527.585 111.493 526.729 111.331 526.451 110.822C526.034 110.058 526.034 109.062 526.798 108.321C527.655 107.488 528.372 106.238 529.831 106.678C530.456 106.863 531.151 107.372 531.498 107.905C531.914 108.53 531.752 109.34 531.104 109.919C530.271 110.637 529.715 111.863 528.21 111.817" fill="#1D1D1B"/>
<path d="M366.852 185.251C366.852 184.001 368.496 182.079 369.722 182.056C370.324 182.056 371.042 182.241 371.482 182.588C372.014 183.028 371.875 184.95 371.366 185.598C371.019 186.038 370.556 186.408 370.185 186.848C369.63 187.496 368.935 187.612 368.195 187.381C367.431 187.149 366.875 186.154 366.875 185.228" fill="#1D1D1B"/>
<path d="M264.593 115.058C263.528 115.197 262.926 114.572 262.556 113.831C262.139 113.021 262.348 112.234 263.088 111.632C263.829 111.03 264.269 110.081 265.45 110.058C266.492 110.058 267.209 110.474 267.626 111.308C268.019 112.118 267.811 112.905 267.093 113.507C266.306 114.155 265.797 115.313 264.593 115.035" fill="#1D1D1B"/>
<path d="M224.059 129.944C223.04 129.967 222.137 129.504 221.836 128.694C221.512 127.837 221.744 127.12 222.415 126.471C223.249 125.684 223.943 124.596 225.263 125.013C225.888 125.221 226.559 125.707 226.93 126.263C227.346 126.888 227.207 127.722 226.536 128.254C225.749 128.902 225.286 130.083 224.059 129.944Z" fill="#1D1D1B"/>
<path d="M455.126 85.4718C455.149 84.3837 456.77 82.4854 457.811 82.3233C458.645 82.1844 459.224 82.6243 459.687 83.2493C460.173 83.8975 460.219 85.1477 459.733 85.7959C459.386 86.2589 458.923 86.6062 458.552 87.046C457.95 87.7637 457.233 87.972 456.376 87.6711C455.589 87.3701 455.103 86.4441 455.126 85.4949" fill="#1D1D1B"/>
<path d="M180.721 40.6755C179.424 40.6755 178.985 40.1893 179.031 38.8466C179.1 36.9945 180.327 35.7444 182.04 35.6981C183.707 35.6287 184.078 36.4389 183.939 37.8048C183.823 39.0549 181.971 40.6755 180.721 40.6755Z" fill="#1D1D1B"/>
<path d="M3.10839 186.501C4.17331 186.478 5.12248 187.103 5.37714 187.982C5.60865 188.77 5.19194 189.719 4.31221 190.274C3.91866 190.529 3.40934 190.622 3.03893 190.876C1.7888 191.687 1.78881 191.71 0.770181 190.645C-0.178992 189.649 -0.271593 189.117 0.608128 188.214C1.32579 187.496 1.83511 186.385 3.13154 186.501" fill="#1D1D1B"/>
</svg>
