<svg viewBox="0 0 1268 538" fill="none" xmlns="http://www.w3.org/2000/svg">
<path d="M258.6 297.601C256.1 297.601 254.1 296.701 251.7 295.601C248.9 294.301 245.7 292.801 241.4 292.801C238.7 292.801 235.7 293.501 232.6 294.301C229.2 295.101 225.8 296.001 222.5 296.001C219.2 296.001 218.8 295.701 217.4 295.001C216.5 294.301 212.1 290.301 211.4 289.401C210.3 287.601 210.6 287.401 212.6 286.201C214.1 285.301 216.1 284.101 216.8 281.701C217.4 279.501 216.8 277.701 216.2 276.001C215.8 274.901 215.5 273.901 215.6 273.001C215.6 272.501 216.1 271.601 216.6 270.901C217.2 269.901 217.8 268.901 217.7 267.801C217.7 266.401 216.5 265.401 215.6 264.601C215.6 264.601 215.6 264.601 215.5 264.501C215.9 264.201 216.3 264.001 216.6 263.701C218.2 262.701 219.9 261.601 220.4 260.001V259.801V259.601C220.9 256.001 220.3 252.101 219.7 248.301C219.1 244.101 218.4 240.201 219.3 236.901C219.5 236.301 220.3 235.501 221.1 234.701C222.4 233.501 224.1 232.001 224.4 229.701C224.8 226.201 222.6 224.301 221.1 223.101C220.3 222.401 219.6 221.801 219.4 221.201C218.8 219.001 219 208.501 220.1 206.501C220.8 206.201 222.2 205.901 223.6 205.501C226.3 204.901 229.6 204.101 232.1 202.501C235.4 200.301 237.2 198.201 237.6 196.001C238.1 193.301 236.5 191.201 235.1 189.401C234 187.901 232.9 186.401 232.9 184.801C232.9 183.101 233.8 177.001 234.2 175.701C234.3 175.301 235.1 174.601 235.7 174.001C237.2 172.601 239 170.901 239.2 168.201C239.4 165.701 238.2 163.801 237.1 162.101C236.1 160.601 235.2 159.301 235.4 157.801C235.5 156.701 236.6 155.201 237.6 153.801C238.7 152.201 239.9 150.601 240.3 148.801C240.7 146.901 241 145.201 241.3 143.601C241.8 140.901 242.2 138.401 243.2 135.301C243.6 134.001 243.2 132.801 243 132.101C243 131.901 242.8 131.601 242.8 131.501C242.8 131.201 243.7 130.601 247.8 130.601C251.9 130.601 249 130.601 249.7 130.601C250.3 130.601 251 130.601 251.6 130.601C252.5 130.601 253.3 130.601 254 130.601C257.1 130.301 260.3 130.201 263.6 130.201C275.7 130.201 288.2 131.901 299.8 133.801C304 134.501 314 136.301 316.2 137.001C317 138.801 317 146.401 316.7 149.101C316.4 151.701 315 154.501 313.6 157.101C312.3 159.701 310.9 162.301 310.5 165.101C310.1 167.801 310.6 170.301 311.1 172.501C311.5 174.301 311.9 176.101 311.7 177.701C311.6 179.101 309.6 182.601 308.1 185.101C305.3 190.001 304.2 192.101 305 193.801C307.6 199.101 315.5 199.801 322.1 199.801C328.7 199.801 329 199.601 332.4 199.401C335.2 199.201 337.9 199.101 340.1 199.101C342.3 199.101 341 199.101 341.4 199.101C343.3 199.101 345.8 199.601 348.4 200.001C351.8 200.501 355.3 201.101 358.3 201.101C361.3 201.101 362.1 200.801 363.4 200.301C365.5 199.501 366.4 196.201 368.9 183.901C370.1 177.901 371.8 169.601 373.1 168.101L373.9 167.201L373.5 166.101C371.5 161.001 371.1 159.001 371.2 154.301C371.2 146.701 371.7 140.301 373.4 134.201C377.7 133.701 382.2 133.501 387 133.501C395.4 133.501 403.4 134.201 412 135.001C414.7 135.201 417.5 135.501 420.2 135.701C422.3 135.901 424.3 135.901 426.2 135.901C431.2 135.901 435.1 136.001 439.6 138.601C444 141.101 443.1 143.101 440.8 147.501C439.9 149.101 439 150.801 438.7 152.501C438.3 154.501 438.4 156.801 438.5 159.001C438.5 160.101 438.6 161.101 438.5 162.001C438.5 167.301 436.9 173.001 435.2 179.001C433.2 186.201 431.1 193.601 431.9 200.601C432.1 202.401 433 203.701 433.7 204.901C434.5 206.201 435 207.001 435 208.001C435 209.001 434.2 210.201 433.4 211.401C432.6 212.601 431.7 213.901 431.4 215.401C430.4 219.601 430.3 224.101 430.3 228.401C430.3 230.501 430.3 232.601 430.1 234.501C429.6 241.701 427.3 249.001 425.2 256.001C422.9 263.501 420.5 271.301 420.1 279.201C420.1 280.901 420.4 282.301 420.6 283.401C421.1 285.601 421.4 286.601 417.3 289.401C414.4 291.401 412 292.301 409.6 292.301C407.2 292.301 405.2 291.501 402.8 290.601C400.7 289.801 398.3 288.901 395.5 288.401L391.8 287.801C385.2 286.701 384 286.501 375.8 284.301C374.3 283.901 372.6 283.701 370.9 283.401C368.4 283.101 365.9 282.701 364.2 281.801C364.3 280.901 364.9 279.101 365.2 278.001C365.9 275.501 366.4 274.001 366.3 272.801C366.3 271.001 365.4 269.701 364.7 268.401C364.2 267.601 363.8 266.901 363.7 266.201C363.5 264.901 363.8 263.701 364.3 262.301C364.7 261.101 365.1 259.701 365.1 258.101C365.1 256.301 364.4 254.501 363.7 252.701C363.1 251.201 362.5 249.601 362.5 248.501C362.5 247.801 363 246.701 363.5 245.701C364.4 243.901 365.4 241.901 364.9 239.701C364.6 238.101 363.4 236.701 362.1 235.301C360.4 233.401 359.2 231.901 359.8 230.901L361.4 228.001H356.3C355.2 228.001 354.1 228.001 353 228.001C349.8 228.001 346.4 228.101 342.5 229.001C340.8 229.401 339.4 230.001 338.1 230.501C336.4 231.201 334.8 231.901 332.5 232.201C329.4 232.601 321.8 233.001 317.4 233.001C313 233.001 316.1 233.001 315.6 233.001C313.8 233.001 311.9 232.701 310 232.501C307.8 232.201 305.5 231.901 303.3 231.901C300.2 231.901 295.6 232.401 292.2 236.901C291.1 238.301 291.3 240.901 291.6 245.301C291.8 247.401 292 249.801 291.8 250.901C291.1 254.901 287.9 258.601 284.8 262.301C282.3 265.301 279.9 268.101 278.8 271.101C278 273.301 278.6 275.301 279.2 276.801C279.7 278.201 279.9 279.001 279.6 279.801C279.2 280.701 277.1 281.401 275.3 282.001C273.2 282.701 271.1 283.401 269.9 284.801C268.1 287.001 268.3 289.201 268.4 290.801C268.6 293.001 268.7 294.301 264.6 296.201C262.4 297.201 260.5 297.701 258.7 297.701L258.6 297.601Z" fill="black"/>
<path d="M263.4 132.201C275.4 132.201 287.8 133.901 299.3 135.701C303.3 136.301 311.2 137.801 314.4 138.501C314.8 141.001 314.8 146.701 314.5 148.701C314.2 151.001 313 153.501 311.6 156.101C310.2 158.801 308.8 161.601 308.3 164.601C307.8 167.701 308.3 170.401 308.9 172.801C309.3 174.501 309.6 176.001 309.5 177.401C309.3 178.501 307.3 182.001 306.2 184.101C303.3 189.201 301.7 192.001 303 194.701C306.1 201.001 314.7 201.801 321.9 201.801C329.1 201.801 328.9 201.601 332.3 201.401C335.1 201.201 337.8 201.101 339.9 201.101C340.3 201.101 340.7 201.101 341.1 201.101C342.9 201.101 345.3 201.501 347.9 201.901C351.4 202.401 354.9 203.001 358.2 203.001C361.5 203.001 362.5 202.701 364 202.101C367.2 200.801 368.2 196.801 370.7 184.301C371.7 179.301 373.4 171.001 374.5 169.301L376 167.501L375.1 165.301C373.2 160.501 372.8 158.701 372.9 154.301C372.9 147.401 373.3 141.601 374.7 136.001C378.5 135.601 382.5 135.401 386.7 135.401C395 135.401 403 136.101 411.5 136.901C414.2 137.101 417 137.401 419.8 137.601C422 137.801 424 137.801 425.9 137.801C430.7 137.801 434.2 137.901 438.3 140.301C439.3 140.901 440.4 141.701 440.4 142.401C440.4 143.401 439.5 145.001 438.7 146.401C437.8 148.101 436.8 149.901 436.4 152.001C436 154.301 436.1 156.701 436.2 159.001C436.2 160.001 436.2 161.001 436.2 161.901C436.2 167.001 434.6 172.501 433 178.401C430.9 185.801 428.8 193.401 429.6 200.801C429.8 203.001 430.9 204.701 431.8 206.001C432.3 206.801 432.8 207.501 432.8 207.901C432.8 208.401 432.1 209.401 431.5 210.201C430.6 211.501 429.6 213.001 429.2 214.901C428.2 219.301 428.1 223.901 428 228.301C428 230.401 428 232.401 427.8 234.201C427.3 241.201 425.2 248.001 423 255.301C420.7 263.001 418.2 270.901 417.8 279.001C417.8 281.001 418.1 282.601 418.4 283.801C418.5 284.301 418.7 285.001 418.7 285.201C418.7 285.201 418.4 286.001 415.9 287.701C412.6 290.001 410.6 290.201 409.3 290.201C407.4 290.201 405.4 289.501 403.2 288.601C401 287.801 398.5 286.801 395.5 286.301C394.1 286.101 392.9 285.901 391.8 285.701C385.1 284.601 384.1 284.501 376 282.301C374.4 281.901 372.6 281.601 370.9 281.401C369.3 281.201 367.6 281.001 366.3 280.601C366.5 279.901 366.7 279.201 366.9 278.601C367.7 275.901 368.2 274.201 368.1 272.701C368.1 270.401 367 268.701 366.2 267.401C365.9 266.901 365.5 266.201 365.4 265.901C365.3 265.101 365.5 264.301 365.9 262.901C366.3 261.501 366.8 260.001 366.8 258.101C366.8 255.901 366 253.901 365.2 252.001C364.8 250.801 364.1 249.301 364.2 248.601C364.2 248.201 364.7 247.301 365 246.601C365.9 244.701 367.2 242.201 366.6 239.301C366.2 237.201 364.7 235.601 363.3 234.001C362.7 233.301 361.7 232.201 361.4 231.601L364.5 226.001H357.8C357.2 226.001 356.6 226.001 356 226.001C354.9 226.001 353.8 226.001 352.7 226.001C349.4 226.001 345.8 226.101 341.8 227.001C339.9 227.401 338.4 228.101 337 228.601C335.4 229.301 334 229.901 331.9 230.101C328.9 230.501 321.4 230.901 317 230.901C312.6 230.901 315.8 230.901 315.3 230.901C313.6 230.901 311.8 230.601 309.9 230.401C307.6 230.101 305.3 229.801 303 229.801C297.4 229.801 293.3 231.701 290.3 235.601C288.8 237.601 288.9 240.401 289.3 245.401C289.4 247.101 289.7 249.701 289.5 250.501C288.9 253.901 285.8 257.501 282.9 260.901C280.2 264.001 277.7 267.001 276.5 270.301C275.5 273.201 276.3 275.701 276.9 277.301C277 277.701 277.3 278.401 277.3 278.701C276.7 279.101 275.2 279.601 274.3 279.901C272 280.701 269.6 281.401 268 283.401C265.7 286.201 265.9 289.101 266.1 290.901C266.2 292.601 266.3 293.001 263.4 294.401C261.5 295.301 259.9 295.701 258.4 295.701C256.9 295.701 254.6 294.901 252.4 293.801C249.6 292.501 246.1 290.801 241.3 290.801C238.4 290.801 235.3 291.501 232.1 292.301C228.8 293.101 225.5 293.901 222.5 293.901C219.5 293.901 219.5 293.701 218.4 293.201C217.3 292.401 213.9 289.201 213 288.201C213.2 288.101 213.4 288.001 213.6 287.901C215.3 286.901 217.8 285.401 218.7 282.201C219.4 279.501 218.7 277.101 218.1 275.301C217.8 274.501 217.6 273.701 217.6 273.101C217.6 272.801 218.1 272.201 218.3 271.801C219 270.601 219.8 269.301 219.7 267.601C219.7 266.401 219.2 265.501 218.6 264.701C220.2 263.701 221.7 262.401 222.3 260.501V260.201C222.4 260.201 222.4 259.901 222.4 259.901C222.9 256.001 222.3 252.001 221.7 248.101C221.1 244.201 220.5 240.501 221.2 237.601C221.4 237.301 222 236.701 222.5 236.301C224 234.901 226 233.101 226.4 230.101C227 225.501 224 223.001 222.4 221.701C222 221.401 221.5 221.001 221.3 220.701C220.9 218.601 221 211.001 221.7 208.201C222.4 208.001 223.3 207.801 224.1 207.601C226.9 206.901 230.5 206.101 233.2 204.301C237 201.801 239 199.301 239.5 196.401C240.1 192.901 238.1 190.201 236.6 188.201C235.7 187.001 234.8 185.801 234.8 184.801C234.8 183.401 235.5 178.001 235.9 176.501C236.1 176.201 236.6 175.801 236.9 175.501C238.4 174.001 240.7 171.801 241 168.501C241.3 165.301 239.7 162.901 238.5 161.101C237.5 159.601 237.1 158.901 237.2 158.201C237.2 157.601 238.3 156.101 239 155.101C240.2 153.401 241.5 151.601 242 149.401C242.4 147.501 242.8 145.801 243 144.101C243.5 141.501 243.9 139.101 244.9 136.001C245.3 134.701 245.2 133.601 245 132.701C245.6 132.701 246.4 132.601 247.6 132.601C248.8 132.601 248.8 132.601 249.4 132.601C250 132.601 250.7 132.601 251.3 132.601C252.3 132.601 253.1 132.601 253.8 132.601C256.8 132.301 260 132.201 263.3 132.201M263.4 128.201C260.1 128.201 256.8 128.301 253.6 128.601C252.9 128.601 252.2 128.601 251.4 128.601C250.2 128.601 248.9 128.601 247.7 128.601C244.4 128.601 241.3 128.901 240.8 131.101C240.5 132.201 241.6 133.401 241.2 134.801C239.6 140.001 239.4 143.501 238.2 148.501C237.5 151.501 233.7 154.601 233.3 157.601C232.7 161.901 237.4 164.301 237.1 168.001C236.8 171.201 232.8 173.001 232.2 175.001C231.7 176.601 230.8 182.901 230.8 184.701C230.8 191.101 241.5 193.801 230.9 200.801C227.3 203.201 221 203.601 218.9 204.801C216.8 206.101 216.7 219.301 217.4 221.701C218.2 224.601 222.8 225.301 222.3 229.401C221.9 232.301 217.9 233.701 217.2 236.401C215.5 243.301 219.3 252.101 218.3 259.301C217.7 261.201 212.7 262.801 212.7 264.301C212.7 265.401 215.4 266.601 215.5 267.801C215.5 268.901 213.6 270.801 213.4 272.701C213.2 275.601 215.4 278.201 214.7 281.001C213.6 285.101 206 284.301 209.6 290.301C210 291.001 215.7 296.201 216.4 296.601C218.3 297.501 220.3 297.801 222.5 297.801C229 297.801 236.2 294.701 241.3 294.701C248.7 294.701 252.4 299.501 258.5 299.501C264.6 299.501 262.6 299.001 265.2 297.801C273.9 293.601 267.9 289.801 271.2 285.801C273.1 283.501 279.9 283.401 281.1 280.201C282.3 277.101 279.2 274.601 280.4 271.401C282.6 265.301 292.1 258.801 293.5 250.901C294.1 247.901 292.3 239.301 293.5 237.701C296 234.401 299.4 233.501 303 233.501C306.8 233.501 311 234.401 315.1 234.601C315.6 234.601 316.2 234.601 316.9 234.601C321.4 234.601 329.1 234.201 332.3 233.801C336.8 233.201 338.9 231.401 342.6 230.501C346.1 229.701 349.2 229.601 352.6 229.601C354.2 229.601 355.9 229.601 357.7 229.601C355.6 233.301 362 236.901 362.6 239.801C363.2 242.601 360.2 245.501 360.1 248.101C360.1 251.001 362.7 254.901 362.7 257.801C362.7 260.601 360.8 263.001 361.4 266.201C361.8 268.401 363.9 270.101 364 272.501C364 274.601 361 281.501 362 282.601C365.1 285.001 370.8 284.701 374.9 285.801C384.6 288.401 384.6 288.201 394.8 289.901C400.6 290.901 404.5 293.901 409.3 293.901C414.1 293.901 414.7 293.101 418.1 290.601C425.5 285.501 421.5 283.801 421.8 278.801C422.5 263.801 430.7 249.301 431.8 234.101C432.2 228.201 431.7 221.301 433.1 215.301C433.7 212.701 436.7 210.501 436.8 207.601C436.9 204.501 434 202.701 433.7 199.901C432.4 187.801 440.2 173.801 440.4 161.501C440.4 158.601 439.9 155.101 440.4 152.401C441.4 147.301 449 141.401 440.4 136.401C433.6 132.501 427.9 133.801 420.2 133.201C408.9 132.301 398 131.001 386.8 131.001C375.6 131.001 376.8 131.301 371.7 131.901C369.5 139.001 369.1 146.501 369.1 153.801C369.1 159.001 369.6 161.201 371.6 166.301C368.3 170.201 365.5 196.801 362.7 197.901C361.5 198.401 360 198.501 358.3 198.501C353 198.501 346 196.701 341.4 196.601C341 196.601 340.5 196.601 340 196.601C335.2 196.601 328.3 197.301 322 197.301C315.7 197.301 308.6 196.401 306.7 192.401C305.9 190.801 313.2 181.001 313.6 177.401C314.1 173.201 311.7 169.301 312.4 164.901C313.2 159.801 317.9 154.501 318.6 148.901C318.9 146.601 319.2 135.901 317.4 134.901C316 134.101 303.1 131.901 300.1 131.401C288.1 129.501 275.8 127.801 263.5 127.801L263.4 128.201Z" fill="white"/>
<path d="M905.9 300.801C903.4 300.801 900.8 300.601 898.3 300.401C897 300.301 895.7 300.201 894.4 300.101C894.1 300.101 893.8 300.101 893.6 300.101C892.4 300.101 891.3 300.201 890.1 300.301C889 300.401 888.1 300.501 887.1 300.501C885.1 300.501 884.4 300.001 884 299.301C883.5 298.501 883.5 297.601 883.5 296.501C883.5 295.501 883.5 294.301 883.1 293.101C882.7 291.901 881.9 290.701 881.2 289.301C880.2 287.501 879 285.601 879 284.201C879 283.501 879.6 282.201 880 281.101C880.8 279.201 881.7 277.101 881.6 275.101C881.6 273.201 880.7 271.601 880 270.101C879.5 269.101 879 268.101 878.8 267.201C877.9 261.001 878 253.601 878.1 246.401C878.1 240.801 878.3 235.001 877.9 229.901C877.8 228.501 877.3 227.401 876.8 226.401C876.4 225.601 876.1 224.901 876.1 224.301C876.1 222.401 876.7 220.201 877.3 217.801C878.2 214.501 879.1 210.801 878.9 206.701C878.9 205.301 878.7 204.001 878.6 202.601C878 194.501 877.4 186.801 878.9 177.801C880 170.601 881.5 166.101 891.7 163.501C893.6 163.001 905.4 162.001 910.2 162.001C915 162.001 911.5 162.001 911.5 162.001C912.5 162.301 913.5 163.101 914.6 163.901C915.9 164.901 917.2 166.001 918.9 166.401C919.6 166.601 920.3 166.601 921.1 166.601C921.9 166.601 922.9 166.501 923.7 166.401C924.5 166.401 925.2 166.201 925.8 166.201C926.4 166.201 926.4 166.201 926.7 166.201C929.1 166.501 934.3 170.301 935.2 171.901C941.3 181.801 950.1 189.401 958.6 196.701C963.8 201.201 969.3 205.901 974.1 211.201C975.5 212.701 976.6 214.401 977.9 216.101C981.3 220.901 985.1 226.301 994 227.801H994.4H994.8C997.9 227.101 997.7 222.801 995.4 210.301C995.2 208.901 994.9 207.301 994.9 207.001C994.9 204.101 995.1 201.401 995.4 198.401C995.7 194.901 996 191.201 995.9 187.201C995.7 178.401 995.9 169.401 995.9 160.801V155.201C995.9 153.201 995.7 150.701 995.5 148.001C995 142.901 994.4 136.501 995.7 133.601C997.1 130.501 1000 129.901 1004.6 129.101H1004.8C1008.3 128.501 1012 128.401 1015.6 128.401C1019.2 128.401 1017.3 128.401 1018.2 128.401C1019.1 128.401 1019.9 128.401 1020.7 128.401C1022.2 128.401 1024.2 128.401 1026.1 128.301C1027.8 128.201 1029.4 127.801 1030.9 127.501C1032.5 127.101 1034 126.801 1035.4 126.801C1036.8 126.801 1037.6 127.001 1038.6 127.601C1042.2 129.501 1041.6 134.401 1040.5 140.801C1040.2 142.601 1039.9 144.301 1039.8 145.801C1039.6 148.801 1039.3 152.001 1039 155.401C1038.4 161.501 1037.9 167.801 1037.9 172.901C1037.9 175.601 1038.6 177.901 1039.3 180.201C1040.2 183.001 1041 185.801 1040.7 189.401C1040.4 193.001 1039.8 197.201 1039.1 201.701C1038.1 208.301 1037 215.101 1037.1 220.401C1037.1 228.501 1040.8 242.601 1043.3 249.801C1044.8 254.001 1044.2 256.101 1043.2 259.201C1042.7 260.901 1042.1 262.701 1041.7 265.201C1041.5 266.701 1041.6 268.301 1041.7 269.701C1041.9 273.201 1042 276.001 1038.8 278.801C1036.6 280.701 1034.4 281.601 1032.3 281.601C1030.2 281.601 1027.8 280.601 1025.7 279.601C1023.7 278.701 1021.8 277.801 1019.7 277.801C1017.6 277.801 1019.1 277.801 1018.8 277.801C1016 278.201 1013.6 279.501 1011 281.001C1007.8 282.801 1004.6 284.601 1000.6 284.601C996.6 284.601 997.3 284.301 995.5 283.701C992.8 282.701 992.3 281.501 991.7 279.901C991.2 278.701 990.7 277.201 989.1 276.201C988.2 275.601 987.2 275.401 985.9 275.401C984.6 275.401 984.4 275.401 983.7 275.601C983 275.601 982.4 275.801 981.8 275.801C981.2 275.801 980.8 275.801 980.5 275.601C980 275.401 979.6 274.901 979 274.101C978.4 273.301 977.7 272.301 976.7 271.601C973.7 269.601 970.8 267.801 968 266.101C960.8 261.701 954.6 257.901 948.4 251.401C946.2 249.101 944.2 246.601 942.1 244.001C937 237.601 931.8 231.001 923 227.501L920.1 226.301L923.7 294.201C919.4 299.001 914.1 301.001 906.2 301.001L905.9 300.801Z" fill="black"/>
<path d="M1035.1 128.9C1036 128.9 1036.7 129.1 1037.4 129.4C1039.8 130.6 1039.2 134.9 1038.3 140.4C1038 142.2 1037.7 144 1037.6 145.6C1037.4 148.6 1037.1 151.8 1036.8 155.2C1036.2 161.3 1035.7 167.7 1035.7 172.9C1035.7 175.9 1036.5 178.4 1037.2 180.8C1038 183.5 1038.8 186 1038.5 189.3C1038.2 192.9 1037.6 197 1036.9 201.5C1035.9 208.2 1034.8 215.1 1034.9 220.6C1034.9 228.9 1038.6 243.4 1041.2 250.6C1042.5 254.2 1042 255.7 1041.1 258.7C1040.6 260.3 1039.9 262.4 1039.6 265C1039.4 266.7 1039.4 268.4 1039.6 269.9C1039.8 273.5 1039.7 275.3 1037.4 277.4C1035.6 279 1033.8 279.7 1032.2 279.7C1030.6 279.7 1028.4 278.8 1026.5 277.9C1024.4 276.9 1022.2 275.9 1019.7 275.9C1019.3 275.9 1018.9 275.9 1018.6 275.9C1015.5 276.3 1012.7 277.8 1010.1 279.3C1007 281 1004.1 282.6 1000.7 282.6C997.3 282.6 997.8 282.3 996.3 281.8C994.5 281.2 994.3 280.6 993.7 279.1C993.2 277.8 992.4 275.8 990.3 274.4C989.1 273.6 987.7 273.3 986 273.3C985.1 273.3 984.3 273.3 983.5 273.5C982.9 273.5 982.3 273.6 981.8 273.6C981.3 273.6 981.4 273.6 981.3 273.6C981.1 273.4 980.8 273 980.6 272.7C980 271.8 979.1 270.6 977.7 269.7C974.6 267.7 971.7 265.9 968.9 264.1C961.8 259.8 955.8 256 949.6 249.7C947.5 247.5 945.5 245 943.4 242.4C938.2 235.8 932.7 229 923.5 225.3L917.7 223L918 229.2L921.4 293.1C917.6 297 912.9 298.7 906 298.7C899.1 298.7 901 298.5 898.6 298.3C897.3 298.2 895.9 298.1 894.6 298C894.3 298 894 298 893.6 298C892.3 298 891.1 298.1 889.9 298.2C888.9 298.2 887.9 298.4 887.1 298.4C886.3 298.4 885.7 298.2 885.7 298.2C885.5 297.9 885.5 297.1 885.5 296.4C885.5 295.3 885.5 293.8 885 292.3C884.5 290.9 883.7 289.5 882.9 288.2C882.2 287 881 285 881 284.2C881 283.8 881.5 282.6 881.9 281.8C882.8 279.8 883.8 277.4 883.7 274.9C883.7 272.6 882.6 270.6 881.8 269.1C881.4 268.2 880.9 267.4 880.8 266.8C879.9 260.8 880 253.4 880.1 246.4C880.1 240.8 880.3 234.9 879.9 229.7C879.8 228 879.1 226.6 878.6 225.5C878.4 225.1 878.1 224.4 878.1 224.2C878.1 222.5 878.6 220.4 879.2 218.2C880.1 214.8 881.1 210.9 880.8 206.5C880.8 205.1 880.6 203.8 880.5 202.4C879.9 194.4 879.4 186.8 880.8 178C881.8 171.5 882.9 167.6 892.1 165.3C893.7 164.9 905.2 163.9 910.1 163.9C915 163.9 910.8 163.9 911 163.9C911.7 164.1 912.4 164.8 913.3 165.4C914.7 166.5 916.2 167.8 918.4 168.3C919.2 168.5 920.1 168.6 921.1 168.6C922.1 168.6 923.1 168.5 924 168.4C924.7 168.4 925.3 168.2 925.9 168.2C926.5 168.2 926.3 168.2 926.5 168.2C928.1 168.4 932.8 171.7 933.6 173C939.9 183.1 948.8 190.8 957.4 198.3C962.6 202.8 968 207.5 972.7 212.6C974 214 975.1 215.6 976.3 217.3C979.9 222.4 984 228.2 993.7 229.8H994.5C994.5 229.9 995.3 229.8 995.3 229.8C1000.8 228.5 999.4 221.2 997.4 210C997.2 208.8 996.9 207.4 996.9 206.9C996.9 204.1 997.1 201.4 997.4 198.6C997.7 195 998 191.3 997.9 187.2C997.7 178.4 997.9 169.5 997.9 160.9C997.9 159 997.9 157.1 997.9 155.3C997.9 153.2 997.7 150.6 997.4 147.9C996.9 143.3 996.3 137 997.4 134.5C998.3 132.4 1000.3 131.9 1004.8 131.1H1005C1008.3 130.5 1012 130.4 1015.4 130.4C1018.8 130.4 1017.1 130.4 1018 130.4C1018.9 130.4 1019.7 130.4 1020.5 130.4C1022 130.4 1024 130.4 1026 130.3C1027.9 130.2 1029.6 129.8 1031.2 129.4C1032.7 129.1 1034.1 128.8 1035.3 128.8M1035.1 124.9C1032 124.9 1028.9 126.2 1025.7 126.4C1024 126.5 1022.3 126.5 1020.5 126.5C1018.7 126.5 1017.1 126.5 1015.4 126.5C1011.7 126.5 1007.9 126.5 1004.3 127.2C999.8 128 995.7 128.7 993.7 132.9C991.4 137.9 993.9 149.5 993.8 155.3C993.7 166.1 993.5 176.7 993.8 187.4C994 194.6 992.8 200.7 992.8 207.2C992.8 208.8 996.6 225.5 994.3 226C983.3 224.2 981.1 216 975.6 210C962.9 196.2 946.7 186.6 936.9 171C935.6 168.9 929.9 164.8 926.9 164.3C926.5 164.3 926.1 164.3 925.8 164.3C924.2 164.3 922.6 164.7 921 164.7C919.4 164.7 919.8 164.7 919.2 164.5C916.7 163.9 914.8 160.9 911.8 160.1C911.5 160.1 910.9 160 910 160C905.2 160 893.2 161 891 161.5C879.6 164.4 877.9 170 876.7 177.4C875 188.1 876 196.9 876.7 206.7C877.1 213.3 874 219.2 874 224.1C874 226.1 875.7 227.8 875.8 229.9C876.7 241.6 875 256.1 876.7 267.3C877.1 270 879.4 272.3 879.5 275C879.5 278 876.9 281.7 876.8 284C876.8 287.1 880.1 290.8 881.1 293.6C881.8 295.6 880.9 298 882.2 300.2C883.2 302 885 302.4 887.1 302.4C889.2 302.4 891.4 302 893.5 302C893.7 302 894 302 894.2 302C897.9 302.2 901.8 302.7 905.8 302.7C912.7 302.7 919.6 301.3 925.3 294.6L921.8 229C933.5 233.7 938.7 244.5 946.5 252.5C955.5 261.8 964.5 265.8 975.2 273C976.9 274.1 977.4 276.4 979.3 277.2C980 277.5 980.7 277.6 981.4 277.6C982.8 277.6 984.2 277.3 985.5 277.3C986.3 277.3 987 277.4 987.6 277.8C990.2 279.5 988.6 283.5 994.4 285.6C996.5 286.3 998.4 286.7 1000.2 286.7C1008 286.7 1013 280.7 1018.7 279.9C1018.9 279.9 1019.1 279.9 1019.3 279.9C1022.8 279.9 1026.8 283.7 1031.9 283.7C1037 283.7 1036.9 282.9 1039.7 280.4C1045.3 275.7 1042.7 270.3 1043.4 265.5C1044.4 258.6 1047.5 256.5 1044.9 249.2C1042.5 242.3 1038.9 228.2 1038.8 220.5C1038.8 211.9 1041.7 198.8 1042.4 189.7C1043 182.6 1039.5 178.4 1039.5 173C1039.5 165.2 1040.9 154.4 1041.4 146C1041.8 140 1045.8 129.5 1039.1 126C1037.7 125.3 1036.3 125 1034.9 125L1035.1 124.9Z" fill="white"/>
<path d="M690.6 296.6C689.7 296.6 688.5 295.7 687.3 294.7C686.2 293.8 685.1 292.9 683.8 292.3C683 292 682.3 291.9 681.7 291.9C680.7 291.9 679.9 291.9 678.6 290.8C672.4 285.9 673.5 276.8 674.7 267.1C675.1 263.9 675.5 260.7 675.6 257.6C675.7 254.4 675.6 250.7 675.6 247.2C675.5 242.9 675.4 238.5 675.6 234.8C675.7 233.3 676.1 232.2 676.5 231.1C676.9 229.9 677.3 228.7 677.4 227.1C677.8 222.7 677.7 217 677.7 211.6C677.7 206.1 677.7 200.3 678 195.7C678.1 194.1 678.6 192.8 679 191.4C679.3 190.4 679.7 189.4 679.9 188.2C681 182.5 680.7 178.9 680.3 175.2C680.1 173.1 679.9 170.8 679.9 168.1C679.9 165.4 680.3 162.2 680.7 158.9C681.1 155.5 681.5 152.1 681.6 148.9C681.6 146.6 681.6 144.4 681.4 142.2C681.3 140.3 681.2 138.4 681.2 136.8C681.2 135 681.5 132.9 681.8 130.9C682.1 128.6 682.5 126.3 682.5 124.2C682.5 121.8 682.1 120 681.7 118.3C681.4 117.1 681.2 115.9 681.1 114.6C680.5 107 681.5 99 685.2 98.5C685.2 98.5 685.3 98.5 685.4 98.5C686.8 98.5 690.7 99.3 691.8 99.6C693.2 100.1 694.5 101.9 695.7 103.7C696.6 105 697.4 106.3 698.3 107C699.3 107.7 700 107.9 700.7 108C701.7 108.2 702.4 108.4 703.8 110.6C705.6 113.5 705.9 116 706.4 118.9C706.6 120.5 706.9 122.2 707.4 124.1C708.2 127 709.5 130.3 710.7 133.4C711.7 136 712.7 138.4 713.3 140.6C714.1 143.1 714.6 146 715.1 148.9C716 153.9 716.9 159.1 719.3 162.1L719.9 162.9L720.2 162C721.9 155.7 723.8 149.5 725.7 143.5C726.8 139.8 728 136.1 729.1 132.3V131.9C732.2 121.7 732.6 120.4 736.4 111C736.8 110 737.1 108.8 737.3 107.6C737.7 106 738 104.4 738.7 103.5C739.3 102.7 739.9 102.3 740.8 102.3C742.1 102.3 743.6 103.2 745 103.9C745.8 104.3 746.6 104.8 747.3 105C748.5 105.4 749.5 105.5 750.3 105.7C752.2 105.9 753.5 106.1 756.1 110.3C759.8 116.2 760 123.2 760.2 131.2C760.2 133 760.2 134.8 760.4 136.6C761.3 157.1 762 175.6 760.4 194.7C759.3 207.3 758.3 222.3 759 237.8C759 239.8 759.4 241.8 759.7 243.7C760.1 246 760.4 248.1 760.4 250.2C760.4 252.3 760.1 254.6 759.7 257C759.3 259.5 759 262 758.9 264.5C758.9 267.3 759.1 270.3 759.4 273.2C759.9 277.7 760.3 282.4 759.4 286.6C758.8 289.7 754.5 295.7 753 296.5C753 296.5 752.6 296.7 751.2 296.7C748 296.7 743 296 742.1 295.6C735.9 292.3 737.2 274.3 738.1 261.2C738.4 256.4 738.7 252.3 738.7 249.2C738.7 246.6 738.3 244.2 737.9 241.8C737.5 239.5 737.2 237.2 737.2 234.9C737.2 232.4 737.4 229.6 737.7 226.8C737.9 224.4 738.2 221.9 738.2 219.7C738.2 219.4 738.5 186.9 737.6 185.5C737.4 185.1 737.1 185.1 736.9 185.1C735.9 185.1 735.4 186.9 734.5 192C734.3 193 734.2 193.9 734.1 194.2C733.7 195.4 733.2 196.6 732.6 197.8C731.9 199.2 731.3 200.7 730.7 202.6C730.1 204.6 729.3 207.5 728.6 210.6C726.9 217.5 724.7 226.1 722.9 228.3C721.7 229.8 720.7 230.6 719.9 230.6C718.3 230.6 717.2 227.4 716.1 224.3C715.5 222.4 714.8 220.5 714 219C713.4 218 712.9 217.3 712.3 216.6C711.6 215.8 711 215.1 710.5 213.9C709.4 211.6 708.8 208.3 708.1 204.8C707 199 705.9 193.1 702.3 191.2L701.6 190.8V191.6C701.4 194.9 700.9 198.8 700.4 202.6C699.9 206.6 699.4 210.7 699.2 214C699.1 216.5 699.2 218.8 699.4 221.3C699.6 224.1 699.8 227 699.6 230.1C699.4 233.5 698.5 238.2 697.7 242.7C696.8 247.4 696 251.9 695.9 255.1C695.9 257 695.9 258.7 696.1 260.3C696.2 261.7 696.4 263 696.3 264.5C696.3 266.2 695.9 267.8 695.6 269.4C695.3 270.7 695.1 272 695 273.3C694.8 275.7 694.8 277.6 694.8 279.6C694.8 282.9 694.8 285.9 693.8 290C692.7 294.6 691.5 296.9 690.1 296.9L690.6 296.6Z" fill="black"/>
<path d="M685.6 98.8008C686.9 98.8008 690.8 99.6008 691.8 99.9008C693.1 100.301 694.3 102.201 695.4 103.801C696.3 105.201 697.2 106.501 698.2 107.201C699.3 108.001 700.1 108.201 700.8 108.301C701.7 108.501 702.3 108.601 703.6 110.701C705.3 113.501 705.7 116.001 706.1 118.801C706.3 120.501 706.6 122.201 707.1 124.101C707.9 127.001 709.2 130.301 710.4 133.501C711.4 136.101 712.4 138.501 713 140.701C713.8 143.201 714.3 146.101 714.8 148.901C715.7 154.001 716.6 159.201 719.1 162.301L720.3 163.801L720.8 161.901C722.5 155.601 724.4 149.401 726.3 143.401C727.4 139.801 728.6 136.001 729.7 132.201V131.801C732.8 121.601 733.2 120.301 737 110.901C737.4 109.901 737.7 108.601 738 107.401C738.3 105.901 738.7 104.301 739.3 103.401C739.8 102.701 740.3 102.401 741 102.401C742.2 102.401 743.7 103.201 745 103.901C745.8 104.401 746.6 104.801 747.4 105.101C748.6 105.501 749.6 105.701 750.5 105.801C752.4 106.001 753.5 106.201 755.9 110.101C759.5 115.901 759.7 122.801 759.9 130.701C759.9 132.401 759.9 134.301 760.1 136.101C761 156.601 761.7 175.101 760.1 194.201C759 206.801 758 221.901 758.7 237.401C758.7 239.401 759.1 241.401 759.4 243.401C759.8 245.701 760.1 247.801 760.1 249.801C760.1 251.801 759.8 254.101 759.4 256.501C759 259.001 758.7 261.501 758.6 264.001C758.6 266.901 758.8 269.901 759.1 272.801C759.5 277.301 760 281.901 759.1 286.101C758.5 289.201 754.2 295.001 753 295.701C753 295.701 752.7 295.801 751.4 295.801C748.2 295.801 743.3 295.101 742.6 294.701C736.7 291.601 737.9 273.801 738.8 260.801C739.1 256.001 739.4 251.901 739.4 248.801C739.4 246.101 739 243.701 738.6 241.401C738.2 239.101 737.9 236.901 737.9 234.601C737.9 232.201 738.1 229.301 738.4 226.501C738.6 224.101 738.9 221.601 738.9 219.401C738.9 217.201 738.9 209.101 738.9 201.201C738.9 185.901 738.4 185.301 738.2 184.901C737.8 184.301 737.3 184.201 737.1 184.201C735.7 184.201 735.2 185.801 734.2 191.501C734 192.401 733.9 193.301 733.8 193.601C733.4 194.801 732.9 195.901 732.3 197.201C731.7 198.601 730.9 200.201 730.4 202.001C729.8 204.001 729 207.001 728.2 210.101C726.5 217.001 724.3 225.501 722.6 227.601C721.2 229.401 720.3 229.701 720 229.701C718.8 229.701 717.6 226.401 716.7 223.701C716.1 221.801 715.4 219.901 714.5 218.301C713.9 217.201 713.3 216.501 712.7 215.801C712.1 215.001 711.5 214.301 710.9 213.201C709.8 210.901 709.2 207.701 708.6 204.301C707.5 198.401 706.3 192.301 702.6 190.301L701.2 189.601V191.201C700.9 194.501 700.4 198.401 699.9 202.201C699.4 206.201 698.8 210.301 698.7 213.701C698.6 216.201 698.7 218.601 698.9 221.101C699.1 223.901 699.3 226.801 699.1 229.801C698.9 233.201 698 237.801 697.2 242.301C696.3 247.001 695.5 251.501 695.4 254.801C695.4 256.801 695.4 258.401 695.6 260.101C695.7 261.501 695.9 262.801 695.8 264.301C695.8 265.901 695.4 267.601 695.1 269.101C694.8 270.401 694.6 271.701 694.5 273.101C694.3 275.501 694.3 277.501 694.3 279.401C694.3 282.801 694.3 285.701 693.4 289.701C692 295.301 690.8 296.201 690.2 296.201C689.6 296.201 688.3 295.301 687.2 294.401C686.1 293.501 684.9 292.501 683.5 292.001C682.6 291.601 681.9 291.601 681.2 291.601C680.3 291.601 679.6 291.601 678.4 290.601C672.4 285.901 673.5 276.901 674.7 267.301C675.1 264.101 675.5 260.901 675.6 257.701C675.7 254.501 675.6 250.801 675.6 247.201C675.5 242.901 675.4 238.501 675.6 234.901C675.7 233.501 676.1 232.401 676.5 231.301C676.9 230.101 677.3 228.901 677.5 227.201C677.9 222.701 677.8 217.101 677.8 211.701C677.8 206.201 677.8 200.401 678.1 195.801C678.2 194.301 678.7 193.001 679.1 191.601C679.4 190.601 679.8 189.601 680 188.401C681.1 182.601 680.8 179.001 680.5 175.201C680.3 173.101 680.1 170.901 680.1 168.101C680.1 165.401 680.5 162.301 680.9 158.901C681.3 155.501 681.7 152.001 681.8 148.801C681.8 146.501 681.8 144.201 681.6 142.001C681.5 140.101 681.4 138.301 681.4 136.601C681.4 134.801 681.7 132.801 682 130.701C682.3 128.401 682.7 126.101 682.7 123.901C682.7 121.401 682.3 119.601 681.9 117.901C681.6 116.701 681.4 115.601 681.3 114.301C680.7 107.101 681.6 99.2008 684.9 98.8008C684.9 98.8008 684.9 98.8008 685.1 98.8008M685.6 97.8008C685.5 97.8008 685.4 97.8008 685.3 97.8008C681 98.4008 680.3 107.201 680.8 114.401C681 117.601 682.2 119.901 682.2 124.001C682.2 128.001 681 132.701 680.9 136.701C680.9 140.301 681.4 144.601 681.2 148.801C681 155.101 679.6 162.501 679.5 168.001C679.4 175.701 681.2 179.201 679.5 188.101C679 190.801 677.8 192.701 677.6 195.601C676.9 204.801 677.8 218.101 677.1 227.001C676.9 230.101 675.5 231.601 675.3 234.701C674.8 241.401 675.6 250.401 675.3 257.501C674.8 270.001 669.9 284.501 678.5 291.201C680.8 293.001 681.9 292.001 683.8 292.801C686.5 293.901 688.7 297.101 690.8 297.101C692.9 297.101 693.7 295.401 695 289.801C696.6 283.201 695.6 279.401 696.1 273.001C696.3 270.101 697.3 267.301 697.4 264.101C697.4 260.901 696.8 258.201 696.9 254.701C697.2 248.301 700.1 236.701 700.6 229.701C701 223.901 699.9 218.801 700.2 213.601C700.5 207.201 702.2 198.001 702.6 191.201C707.9 194.101 707.6 207.401 710.6 213.701C711.7 216.001 713 216.801 714.2 218.901C716.5 223.201 717.6 230.801 720.6 230.801C723.6 230.801 722.6 230.101 724 228.401C726.6 225.101 729.9 209.001 731.9 202.501C732.9 199.101 734.5 196.801 735.3 194.101C735.7 192.801 736.6 185.401 737.6 185.401C738.6 185.401 737.8 185.401 737.9 185.601C738.6 186.601 738.5 215.201 738.4 219.501C738.4 224.201 737.4 230.101 737.4 234.701C737.4 239.501 738.8 243.801 738.9 249.001C739.1 261.101 733.9 291.201 742.6 295.801C743.6 296.301 748.9 297.001 751.9 297.001C754.9 297.001 753.6 297.001 753.9 296.801C755.5 295.901 759.9 289.801 760.6 286.501C762 279.501 759.9 271.501 760 264.301C760 259.401 761.5 254.201 761.5 250.001C761.5 246.101 760.3 241.801 760.1 237.601C759.4 222.901 760.2 208.601 761.5 194.601C763.2 175.001 762.5 155.601 761.5 136.401C761 126.001 761.7 117.201 757.2 109.901C753.4 103.801 752.1 105.901 748.1 104.501C746.2 103.801 743.6 101.701 741.4 101.701C739.2 101.701 739.6 102.101 738.9 103.101C737.7 104.901 737.5 108.401 736.5 110.701C732.7 120.201 732.3 121.601 729.2 132.101C726.3 142.001 723.1 151.701 720.3 161.801C716.6 157.301 716.5 147.401 714.4 140.501C712.9 135.601 709.8 129.101 708.4 124.001C707 118.801 707.6 114.901 704.8 110.301C702.4 106.401 701.5 108.301 699.1 106.501C697 104.901 695.2 99.9008 692.5 99.0008C691.4 98.6008 687.4 97.8008 685.9 97.8008H685.6Z" fill="white"/>
<path d="M848.6 253.7C848.6 250.6 848 247.5 847.4 244.3C846.3 237.9 845.1 231.3 847.2 223.7C848.1 220.6 850.3 218.2 852.5 215.9C853.7 214.7 854.9 213.4 855.7 212.2C852.9 212.1 848.1 211.8 846.7 207.5C845.8 204.9 846.1 200.5 846.5 193.9C846.6 192 846.8 190.2 846.8 189.1C846.8 185.7 846.8 182.5 846.8 179C846.8 177.2 846.8 175.3 846.8 173.5C846.8 170.3 846.8 166.9 846.6 163.7C846.5 156.7 846.3 149.5 846.6 142.3C846.2 141.7 845.7 141.1 845.2 140.5C841.9 136.9 830.9 133.2 823 132.1C822.2 132 821.5 131.9 820.8 131.9C816.5 131.9 813 133.8 810.2 137.7C807.2 141.9 804.3 147.6 801.7 152.6C801.3 153.4 800.9 154.2 800.5 155C797.4 161 792.9 167.7 788.6 174.2C784.1 180.9 779.5 187.8 776.7 193.6C776 195 775.3 196.7 774.5 198.6C772 204.6 768.9 212.1 764 216C763.1 216.7 762 217.3 760.8 217.9C760 218.3 758.4 219.2 758 219.6C757.1 221.3 756.4 224.6 755.9 227.5C755.3 230.6 754.6 233.9 753.5 236.5C752.7 238.4 751.6 240.1 750.4 242C749.1 244.2 747.7 246.4 746.5 249.2C746 250.3 745.5 251.5 744.9 252.6C741.7 259.3 741.7 260.7 743.4 261.8C745.1 262.9 755.1 266.7 757 267C758.2 267.2 759.2 267.3 760 267.3C760.8 267.3 761.4 267.1 761.5 267.1C761.8 266.9 762.2 265.9 762.6 265.1C763.2 263.8 764 262.1 765.3 260.2C768.6 255.5 768.7 255.4 769.9 252.6C770.3 251.6 770.8 250.4 771.6 248.7C772.3 247 776.9 240.2 778.7 238.7C781.4 236.5 786.8 235.2 794.7 233.5C797.1 233 799.3 232.5 800.6 232.1C802.4 231.6 804.2 230.9 806 230.1C808.5 229.1 811 228.1 813.8 227.4L814.8 227.2L815.8 227.5C818.6 228.3 819.2 230.9 820.1 235.9C820.3 237.2 821.1 241.4 821 243V244.5C820.4 251.2 820 257.1 820.4 263.7C820.4 263.9 820.7 264.5 820.8 264.9C821.3 266 822 267.6 821.9 269.5C821.9 270.7 821.5 271.9 821.3 272.7C821.3 272.9 821.3 273 821.2 273.2C822.9 274.3 825.9 276 826.9 276.6C826.9 276.6 826.9 276.6 827.1 276.6C827.5 276.6 828 276.6 828.5 276.4C829.3 276.3 830.1 276.1 831.1 276.1C832.1 276.1 832 276.1 832.4 276.1C834.8 276.4 836.8 277.7 838.7 278.9C840.2 279.8 841.8 280.9 842.8 280.9C843.8 280.9 843.2 280.9 843.7 280.5C843.8 280.4 844.3 279.9 845.2 278.2C848.1 272.7 849.1 260.4 848.8 253.4L848.6 253.7ZM816.7 215.2L798.6 217.8H797.8C797.8 217.9 797 217.7 797 217.7C794.5 217 793.1 214.5 793.6 211.4C794 208.3 796.9 203.6 801.3 196.6C802.4 194.9 803.3 193.4 803.9 192.4C805 190.5 806 188.6 807 186.5C808 184.4 809.1 182.2 810.3 180.1C810.9 178.1 812.5 176.9 814.6 176.9C816.7 176.9 815.5 176.9 816.1 177L819.5 177.5V180.9L820.2 211.1V214.6L816.8 215.1L816.7 215.2Z" fill="black"/>
<path d="M498.9 322.7C498.4 322.7 497.9 322.7 497.4 322.6C496.3 322.4 495.6 321.8 494.7 321.2C493.9 320.6 493.1 320 492 319.6C490.6 319.1 489.2 319.1 488.2 319.1C487.2 319.1 487.4 319.1 487 319.1C486.6 319.1 486.3 319.1 485.9 319.1C484.6 319.1 483.6 319 482.6 318.3C481.8 317.8 481.4 317.2 480.9 316.4C480.4 315.7 479.9 314.9 479 314.1C478 313.2 476.7 312.6 475.4 312C474.1 311.4 472.6 310.8 472.2 310C471.6 309.1 471.2 307.8 470.9 306.5C470.6 305.3 470.2 304 469.6 302.8C469 301.5 468.3 300.2 467.7 299C464.9 293.5 462.3 288.3 460 282.4C458.5 278.5 457.8 273 457 267.6C456.5 263.5 455.9 259.6 455.1 256.4C454.7 254.8 453.8 253.4 453 252.1C452.2 250.8 451.4 249.6 451.2 248.4C451.1 247.6 451.4 246.3 451.7 245C452.1 243.4 452.5 241.7 452.3 240C452 238.1 451.3 236.1 450.7 234.3C450.1 232.8 449.6 231.3 449.4 229.9C448.7 226.5 448.3 222.9 448 219.4C447.6 216 447.2 212.5 446.6 209.1C447.6 203.5 461.7 200.1 471.5 200.1C481.3 200.1 472.9 200.1 473.5 200.1C476.6 200.4 477 201.1 477.7 204.8C479.1 212.3 480.1 220.1 481 227.6C482.4 239.2 483.8 251.1 487.1 262.7C490.7 275.2 495 283.9 501 291L501.7 291.8L502.8 291.6C509.7 290.6 516.1 279.9 516.2 274C516.3 269.7 515.3 265.1 514.3 260.6C513.5 257.1 512.7 253.4 512.5 249.9C511.7 237.1 510 224.2 508.4 211.6C508 208.4 507.6 205.3 507.2 202.1C507 200.8 506.7 199.6 506.4 198.5C505.8 196.7 505.4 195.2 505.9 193.2C506.2 191.9 509.3 187.9 510.4 187.4C510.7 187.2 511.2 187.2 511.7 187.2C512.4 187.2 513.3 187.2 514.2 186.7C515 186.4 515.6 185.8 516.1 185.4C516.5 185 516.9 184.7 517.3 184.5H517.6C519.8 183.5 522.2 182.6 524.1 182.6C526 182.6 526.9 183.2 528 184.5C534.1 191.8 535.2 202.4 536.3 212.7C536.9 218.4 537.5 223.8 538.8 228.7C539.2 230.3 539.9 231.8 540.6 233.3C541.5 235.3 542.4 237.3 542.7 239.5C543 241.6 542.9 244 542.7 246.6C542.5 249.6 542.3 252.7 542.7 255.8C543 257.4 543.5 259 544 260.6C544.5 262.2 545 263.7 545.2 264.9C545.2 265.5 544.9 266.7 544.6 267.7C544.2 269 543.8 270.3 543.7 271.7C543.7 273.6 544 275.5 544.4 277.4C544.7 279 545 280.5 545 281.8C544.7 283.6 540.2 298.5 539.6 299.9C539.1 300.9 538.1 301.9 537.1 303C536.2 304 535.3 304.9 534.6 306C533.6 307.6 533.1 309 532.6 310.2C531.8 312.3 531.3 313.7 528.3 315.7C523 319.3 520 319.4 515.8 319.4C513.8 319.4 511.6 319.4 508.9 319.9C507.2 320.2 505.7 320.6 504.2 321.1C502.3 321.7 500.5 322.3 498.7 322.3L498.9 322.7Z" fill="black"/>
<path d="M524.2 185C525.1 185 525.8 185.2 526.6 186.2C532.3 193.1 533.4 203.4 534.5 213.3C535.1 218.8 535.7 224.5 537.1 229.6C537.6 231.3 538.3 233 539 234.5C539.9 236.4 540.7 238.3 541 240.2C541.3 242.1 541.1 244.4 541 246.9C540.8 250 540.5 253.3 541.1 256.6C541.4 258.4 542 260 542.5 261.6C543 263 543.4 264.4 543.6 265.4C543.6 265.8 543.3 266.8 543.1 267.4C542.7 268.8 542.2 270.3 542.2 271.9C542.2 274 542.5 276.1 542.9 278C543.2 279.4 543.4 280.8 543.4 281.8C542.9 284.1 538.9 297.3 538.2 299.2C537.8 300 536.9 300.9 536 301.8C535 302.8 534 303.9 533.3 305.1C532.2 306.9 531.6 308.4 531.2 309.6C530.5 311.6 530.1 312.5 527.6 314.2C522.8 317.5 520.2 317.5 516.2 317.6C514.2 317.6 511.9 317.6 509 318.1C507.2 318.4 505.5 318.9 504.1 319.4C502.3 320 500.7 320.5 499.2 320.5C497.7 320.5 498.4 320.5 498 320.4C497.4 320.3 497 320 496.1 319.4C495.3 318.8 494.2 318 492.8 317.5C491.1 316.9 489.5 316.8 488.4 316.8C488 316.8 487.5 316.8 487.1 316.8C486.8 316.8 486.4 316.8 486.1 316.8C485 316.8 484.5 316.7 483.9 316.3C483.4 316 483.3 315.7 482.8 315C482.3 314.3 481.7 313.3 480.6 312.3C479.4 311.2 477.9 310.6 476.5 309.9C475.7 309.5 474.4 308.9 474.1 308.6C473.7 308 473.4 306.9 473.1 305.8C472.8 304.5 472.4 303.1 471.7 301.7C471.1 300.4 470.4 299.1 469.8 297.9C467.1 292.4 464.5 287.3 462.2 281.5C460.8 277.9 460.1 272.4 459.4 267.2C458.8 263 458.3 259.1 457.4 255.8C456.9 253.9 455.9 252.3 455 250.9C454.3 249.8 453.6 248.7 453.5 247.9C453.5 247.5 453.7 246.2 454 245.4C454.4 243.7 454.9 241.7 454.6 239.6C454.3 237.5 453.6 235.4 452.9 233.5C452.4 232 451.9 230.6 451.6 229.4C451 226.1 450.6 222.7 450.2 219C449.8 215.7 449.5 212.3 448.9 209C450 205.8 460.5 201.9 471.8 201.9C472.5 201.9 473.1 201.9 473.7 201.9C474.9 202 475.3 202.2 475.3 202.2C475.4 202.4 475.7 203 476.1 205C477.5 212.5 478.5 220.2 479.4 227.7C480.8 239.4 482.3 251.4 485.6 263.1C489.2 275.9 493.7 284.9 499.9 292.2L501.3 293.9L503.5 293.6C511.4 292.4 518.5 280.8 518.7 274.1C518.8 269.5 517.8 264.8 516.8 260.2C516 256.7 515.2 253.2 515 249.8C514.2 237 512.5 224 510.9 211.4C510.5 208.2 510.1 205.1 509.7 201.9C509.5 200.4 509.1 199.1 508.8 198C508.2 196.2 508 195.2 508.4 193.8C508.8 192.8 510.9 190 511.9 189.2C512 189.2 512.3 189.2 512.4 189.2C513.2 189.2 514.4 189.2 515.6 188.6C516.6 188.1 517.4 187.5 518 187C518.2 186.8 518.5 186.6 518.6 186.5H518.9C521 185.6 523.1 184.8 524.7 184.8M524.2 181C521.8 181 519.2 182 516.6 183C515.3 183.5 514.5 184.7 513.4 185.2C512.3 185.7 510.9 185.2 509.6 185.9C508 186.7 504.5 191.2 504 193C503 196.9 504.8 199.2 505.2 202.6C507.2 218.5 509.5 234.4 510.5 250.3C511 258.3 514.4 266.7 514.2 274.1C514 279.4 508 288.9 502.5 289.7C495.7 281.8 491.8 272.2 489 262.2C483.6 243.4 483.3 223.6 479.6 204.5C478.8 200.4 478.1 198.5 473.6 198.1C473 198.1 472.2 198.1 471.4 198.1C462.9 198.1 445.3 201 444.4 209.2C445.7 216.1 446 223.6 447.3 230.4C447.9 233.7 449.8 237.2 450.2 240.4C450.6 243 448.7 246.4 449.2 248.8C449.7 251.7 452.4 254.2 453.1 257C455 264.4 455.3 276.2 458 283.2C460.9 290.6 464.2 296.9 467.7 303.8C468.9 306.2 469 309.1 470.4 311.2C471.8 313.3 475.8 314 477.6 315.6C479.2 317 479.4 318.6 481.4 319.9C482.8 320.8 484.3 321 485.8 321C487.3 321 487.3 321 488.1 321C488.9 321 490.2 321 491.2 321.4C493.1 322.1 494.2 324 496.9 324.5C497.6 324.6 498.2 324.7 498.8 324.7C502.4 324.7 505.6 322.9 509.3 322.3C517.5 321 521.1 323.4 529.5 317.7C534.8 314.1 533.7 311.7 536.4 307.4C537.6 305.5 540.3 303.5 541.5 301.2C542.1 300.2 547.1 283.4 547.1 282.4C547.2 279.3 545.8 275.5 545.9 272.2C545.9 269.9 547.6 267 547.4 265.1C547.1 262.3 545.4 259 544.9 255.9C544 250.5 545.6 244.5 544.9 239.6C544.2 235.4 541.9 232.1 541 228.6C537.2 214.7 539.7 195.5 529.8 183.6C528.2 181.6 526.3 181 524.3 181H524.2Z" fill="white"/>
<path d="M742.1 155.599C735.6 157.099 731 150.999 735.3 145.299C744.5 132.899 758.1 143.599 745.1 153.699C732.1 163.799 743.5 155.299 742.1 155.599Z" fill="black"/>
<path d="M179.4 140.9C172.7 142.4 168.3 136.2 172.5 130.6C178 123.2 189.7 123.8 186.5 134.1C183.3 144.4 181.1 140.5 179.3 140.9H179.4Z" fill="black"/>
<path d="M894.6 276.599C899.8 281.799 885.7 294.799 880.9 285.799C877.4 279.099 890.5 272.599 894.6 276.599Z" fill="black"/>
<path d="M504 380.299C501.9 380.799 499.7 380.299 498.2 378.699C492 371.699 509 361.299 511.3 369.099C513.6 376.899 507.5 379.499 504 380.299Z" fill="black"/>
<path d="M408.7 65.8987C409.5 66.6987 411.9 71.9987 410.3 73.0987C406.4 75.1987 406.5 79.8987 401.1 78.6987C390.5 76.2987 401.6 59.2987 408.7 65.8987Z" fill="black"/>
<path d="M275.4 403.3C275.2 403.6 270.3 407.9 270 408C264 410.6 259.7 404.7 262.7 399.4C266.8 392.1 280.9 396.4 275.3 403.3H275.4Z" fill="black"/>
<path d="M148.3 271.399C145.7 274.099 138.8 274.199 138.2 269.699C137.6 265.199 143.4 259.699 145.6 259.199C153.3 257.399 152.2 267.399 148.4 271.399H148.3Z" fill="black"/>
<path d="M119.4 138.8C115.3 134.7 119.4 128 124.1 126.7C128.8 125.4 133 130.1 131.4 133.4C129.8 136.7 127.5 137.9 127 138.3C124.7 140.2 121.7 141.2 119.4 138.8Z" fill="black"/>
<path d="M271.6 154.9C267.1 155.9 262.5 152.2 265.1 147.7C267.7 143.2 272.1 141.1 273.2 141.1C274.3 141.1 277 143.8 277.4 144.6C279 148 275 154.2 271.7 154.9H271.6Z" fill="black"/>
<path d="M594.1 206.499C592.1 206.899 589.4 205.999 588.3 204.199C584.2 197.299 598.4 189.399 601.2 197.599C604 205.799 596.9 205.899 594.1 206.499Z" fill="black"/>
<path d="M902.7 99.1002C889.3 103.1 896.2 85.4002 903.4 86.2002C910.6 87.0002 908.7 90.4002 908.6 91.8002C908.5 93.2002 903.7 98.8002 902.6 99.1002H902.7Z" fill="black"/>
<path d="M930.6 66.9996C922.8 68.4996 922 57.4996 929.2 54.3996C936.4 51.2996 939.6 65.2996 930.6 66.9996Z" fill="black"/>
<path d="M130.6 228.2C128.3 228.6 124.4 226 124.1 223.7C123.3 218.4 133.4 212.4 137 217.9C140.6 223.4 133.5 227.7 130.6 228.2Z" fill="black"/>
<path d="M623.8 395.2C626.6 397.2 624.8 406.8 618 407C604.6 407.4 617.6 390.8 623.8 395.2Z" fill="black"/>
<path d="M85.1998 252.499C79.9998 246.099 95.7998 236.899 97.4998 245.499C99.1998 254.099 94.3998 252.499 93.0998 253.399C91.1998 254.799 86.6998 254.199 85.1998 252.499Z" fill="black"/>
<path d="M815 393.899C819.2 398.299 808.9 407.099 804.7 402.399C800.5 397.699 809.2 387.699 815 393.899Z" fill="black"/>
<path d="M791 461.599C800.6 453.499 803.1 474.399 789.7 471.799C776.3 469.199 788.4 463.799 791 461.599Z" fill="black"/>
<path d="M158 355.401C289.5 350.201 421.1 357.201 552.7 355.801C617.5 355.101 682.2 352.101 746.6 344.801C811.3 337.501 875.8 327.301 941 324.601C1014.5 321.501 1088.2 325.801 1161.5 318.701C1165.3 318.301 1165.3 312.301 1161.5 312.701C1096.1 319.001 1030.3 316.301 964.7 317.901C899.3 319.501 834.8 328.301 769.9 336.201C705.6 344.001 641.1 348.301 576.3 349.501C510.5 350.801 444.8 349.601 379 348.601C305.3 347.501 231.6 346.601 157.9 349.501C154.1 349.701 154 355.701 157.9 355.501L158 355.401Z" fill="black"/>
</svg>
