<svg viewBox="0 0 1268 538" fill="none" xmlns="http://www.w3.org/2000/svg">
<path d="M1169.8 444.901C1167.7 443.901 1165.5 443.101 1164.4 442.701C1134.3 431.201 1097.3 433.801 1065.7 430.701C1060.5 430.201 1054.5 427.301 1049.3 427.201C1035.5 426.901 1026.3 426.201 1012.7 425.001C976.1 421.701 932.6 427.301 897.2 422.701C893.1 422.201 889.3 419.701 884.7 419.201C854.5 416.201 820.8 421.501 790.3 419.301C786.7 420.001 786.7 413.601 783.6 413.501C780.9 414.101 779.8 416.501 776.9 417.001C770.6 418.001 749.3 418.001 743.1 417.001C738.3 416.201 738.6 410.801 736.3 410.201C733.4 409.501 727.9 420.201 723 418.101C602.4 416.801 482.3 417.401 361.9 419.201C318.6 427.201 272.4 420.101 229.1 427.301C226.2 427.801 214.5 427.801 211.8 427.201C209.6 426.701 208 423.801 206 423.801C204 423.801 202.9 426.501 201 427.001C180.7 432.601 156.8 430.901 135.7 433.001C123.9 434.201 111 435.701 99.2 437.701C92.8 438.801 87.3 446.701 94 446.501C97 446.401 101.9 446.001 104.9 445.601C140 441.201 174.3 436.101 209.8 435.201C215.3 435.101 222 436.001 227.2 435.201C230.6 434.701 233.1 432.201 236.8 431.701C253.5 429.501 272.3 434.901 288.7 429.401C453.4 428.701 619.7 418.501 784.4 427.201C845.2 430.401 906.2 427.501 967.3 431.801C981.1 432.801 997.2 430.001 1010.6 431.801C1014.3 432.301 1017.5 434.801 1021.2 435.301C1041.6 438.001 1067.1 434.701 1087.7 437.601C1105.6 440.101 1123.8 443.101 1141.6 445.601C1144 445.901 1157.8 446.601 1162.6 449.001C1164.9 447.701 1167.3 446.301 1169.6 445.001H1169.8V444.901Z" fill="black"/>
<path d="M596.7 155.8C601.6 155.1 605.5 160.1 603.4 164.6C601.3 169.1 597.7 172.3 597 173.1C589.8 181.4 577.9 173.2 583.1 164.2C588.3 155.2 594 156.2 596.7 155.8Z" fill="black"/>
<path d="M1156.6 312.501C1161.4 316.701 1151.4 328.101 1148.1 329.101C1138.3 332.001 1134.8 322.301 1141.3 315.301C1147.8 308.301 1150.9 309.801 1156.6 312.601V312.501Z" fill="black"/>
<path d="M271.4 91.8992C272.7 90.9992 273 89.3992 275.8 88.7992C278.6 88.1992 282.5 88.3992 283.6 91.9992C287.5 105.299 261.9 113.199 264.8 97.7992C267.7 82.3992 269 93.3992 271.4 91.8992Z" fill="black"/>
<path d="M701.2 220.3C696.2 215.3 706.5 198.4 714.5 205.5C722.5 212.6 707.9 227.1 701.2 220.3Z" fill="black"/>
<path d="M83.5998 226.5C88.5998 225.4 92.0998 230.1 90.6998 234.6C89.2998 239.1 85.9998 240.6 85.1998 241.2C76.3998 247.7 69.6998 236.8 75.2998 231.3C80.8998 225.8 82.6998 226.7 83.5998 226.5Z" fill="black"/>
<path d="M766.6 489.501C768.8 489.001 770.7 489.701 772.3 491.301C773.7 495.501 773 501.601 768.5 503.601C758.3 508.001 752.9 495.201 759.8 491.901C766.7 488.601 766 489.701 766.5 489.601L766.6 489.501Z" fill="black"/>
<path d="M827.2 462.599C836.4 452.999 846.9 465.499 835.8 472.699C827.4 478.099 821.2 468.799 827.2 462.599Z" fill="black"/>
<path d="M234.5 370.399C245.3 368.699 240.4 387.999 230.5 386.099C221.3 384.299 227.2 371.599 234.5 370.399Z" fill="black"/>
<path d="M910.6 120.5C921.6 117.3 920.7 135.4 910.3 135.2C899.9 135 902.2 122.9 910.6 120.5Z" fill="black"/>
<path d="M407.6 57.4999C413.9 63.7999 404.8 75.1999 398.2 69.2999C391.6 63.3999 400.6 54.1999 407.6 57.4999Z" fill="black"/>
<path d="M955.6 96.5C960.9 101.8 951 112.9 945.1 107C939.2 101.1 949.9 90.8 955.6 96.5Z" fill="black"/>
<path d="M724.6 462.501C729.3 467.401 723.4 476.901 716.9 473.801C709.1 470.001 716.9 454.301 724.6 462.501Z" fill="black"/>
<path d="M1188.6 359.501C1199 356.401 1199.8 370.801 1192.1 372.101C1184.4 373.401 1182.3 361.301 1188.6 359.501Z" fill="black"/>
<path d="M101.5 252.5C103.2 252 105.4 252.2 107.1 252.5C113.3 256.8 107.6 267.9 100.8 264.8C94.0002 261.7 97.2002 253.8 101.5 252.5Z" fill="black"/>
<path d="M857.5 263.8C858.2 262 858.3 261.6 857.5 260C855.6 255.4 852.5 245.9 852.5 240.1C852.5 234.3 853.3 231.9 854.1 227.5C854.6 224.7 855.1 222.1 855.3 219.9C855.5 218.3 855 217 854.4 215.3C853.8 213.7 853.1 211.8 853.1 209.6C853.1 206.2 853.6 202.1 854 198.1C854.2 195.9 854.5 193.9 854.6 192C854.6 190.9 854.9 189.7 855.2 188.5C855.6 187 855.9 185.3 855.8 184.1C855.8 183.4 855.8 183.4 855.3 183.2C854.8 182.9 854.3 182.9 853.7 182.9H853.5C852.6 182.9 851.5 183.1 850.4 183.3C849.2 183.6 847.9 183.9 846.4 183.9H840.1C839.4 183.9 840.7 183.9 838.1 183.9C835.5 183.9 832.7 183.9 830.1 184.3C827.3 184.7 825.5 185 825 185.9C824.4 187 825 191.3 825.2 193.4C825.4 195.2 825.6 197 825.6 198.4V202C825.6 207.8 825.6 213.2 825.6 218.8C825.6 221.5 825.4 224 825.2 226.3C825.2 228 824.9 229.7 824.9 231.3C825 231.6 825.2 232.4 825.3 233C826.8 240 827.2 243.3 825.7 245.5C825 246.6 824 247.3 822.8 247.5H821.5C813.8 246.5 810.4 242.4 807.6 239.2C806.7 238.1 805.8 237.1 804.9 236.3C801.3 233 797.1 230.1 793.1 227.2C786.3 222.4 779.4 217.4 774.4 210.8C773.6 210 770.5 208.2 769.4 208.1C769.3 208.1 769.4 208.1 769 208.1C768.6 208.1 768 208.1 767.5 208.1C766.9 208.2 766 208.2 765.3 208.2C764.6 208.2 763.9 208.1 763.2 208C761.5 207.7 760.2 206.8 759.1 206.1C758.6 205.7 758 205.3 757.6 205.2H757C753.3 205.2 744.4 205.8 743.1 206.1C736.3 207.5 735.9 209.5 735.2 213.1C734.1 218.5 734.5 223 735 228.2C735.1 229 735.2 229.9 735.2 230.8C735.5 234 734.6 236.8 733.9 239C733.5 240.1 733.1 241.1 733.1 241.9C733.2 241.9 733.3 242.2 733.3 242.2C733.7 243 734.4 244.1 734.5 245.6C734.8 249.1 734.7 252.8 734.7 256.5C734.7 261 734.5 265.5 735.2 269.2C735.2 269.4 735.5 269.8 735.7 270.1C736.4 271.2 737.4 272.7 737.4 274.7C737.4 276.7 736.5 278.6 735.8 280C735.6 280.2 735.5 280.5 735.4 280.7C735.6 281.1 736.1 281.8 736.4 282.2C737.1 283.1 737.7 284 738.2 285.1C738.8 286.3 738.8 287.5 738.8 288.3H739.1C739.7 288.3 740.4 288.3 741.2 288.3C742.2 288.1 743.1 288.1 744.1 288.1H744.9C745.9 288.1 747 288.3 748 288.3C749.8 288.5 748.8 288.6 753.7 288.6C758.6 288.6 762 287.7 764.7 285.7L762.1 245.7L761.7 239.8L767.3 241.6C774.7 244 779.1 248.7 783.1 252.8C784.7 254.5 786.2 256 787.8 257.4C792.5 261.4 797.2 263.8 802.6 266.5C804.8 267.6 807 268.8 809.4 270.1C810.6 270.8 811.4 271.7 811.9 272.3L812.1 272.6H813.6C814.2 272.6 814.8 272.6 815.5 272.6C816.8 272.6 818 272.9 819 273.4C821 274.4 821.8 276 822.2 277C822.6 277.7 822.6 277.8 823.6 278.1C824.7 278.4 824.3 278.6 826.9 278.6C829.5 278.6 831.7 277.6 834 276.5C836.1 275.6 838.2 274.6 840.7 274.3H841.6C843.6 274.3 845.3 274.9 847 275.6C848.5 276.2 849.9 276.7 851.3 276.7C852.7 276.7 853.3 276.5 855.1 275.3C856.3 274.4 856.3 274 856.2 271.9C856 270.8 856 269.6 856.2 268.3C856.5 266.4 857.1 265 857.5 263.9V263.8Z" fill="black"/>
<path d="M991.4 283.899C990.5 287.199 983.5 286.699 980.6 286.399L913.4 269.999C904.5 269.999 907.8 275.399 907.8 280.799C907.8 286.199 906.9 309.099 908.8 310.699C910.7 312.299 922.1 314.499 925.1 314.999C936.9 316.999 949.3 316.999 960.8 318.499C968.2 319.499 986.7 322.799 993 325.499C1000.8 328.899 1001.1 341.599 992.5 343.699C983.9 345.799 946.4 345.099 937.3 344.099C928.2 343.099 924 340.299 918.4 339.299C904.5 336.699 890.1 334.799 876.6 331.599C863.1 328.399 864.7 322.599 865.6 307.699C866.3 295.599 864.2 282.699 865.6 270.599C867 258.499 869.4 257.099 868.7 245.899C867.9 232.799 867.8 229.199 868.7 216.099C869.5 205.399 863.8 180.899 879.4 179.399C893.4 178.099 909.5 180.399 923.7 179.599L981.7 197.999C983.6 201.899 986.8 205.599 987.3 209.899C989.5 227.599 980.5 222.999 968.3 219.599C949 214.199 929.1 204.999 908.9 205.699C905.1 207.999 905 232.099 905.8 236.599C906.8 241.799 912.5 240.599 916.1 241.699C921.4 243.299 931.7 247.699 936.5 248.299C941.3 248.899 944 247.099 948.5 247.599C954.9 248.199 975.8 253.799 982.4 255.999C989 258.199 991.5 259.799 991.5 262.399V283.999L991.4 283.899Z" fill="black"/>
<path d="M686.3 344.7C682.1 336.1 678.4 323.7 674.8 314.4C674 312.2 672 311.3 671.1 309.2C667.3 299.8 676.1 298.6 680.8 293.3C691.8 281 696.2 245.6 688.2 234.8C686.1 232 670.9 218 668.4 217.1C659.2 213.8 639.4 211.5 629.2 210.8C623.4 210.4 617.1 204.4 614.3 218.2C612.6 226.5 614.3 233 613.9 239.4C613.2 247.9 610.6 259 610 267C609.6 272.2 611.2 277.9 610.2 282.8C609.5 286.3 607.1 288.4 606.7 291.4C605.8 298 606.9 310.1 606.1 317C604.9 327.4 600.6 339 599 348.8C596.3 365.5 598.3 385.9 605.7 397.9L623.8 389.9C623.8 383.7 623.1 378.5 624.1 372C625.3 363.5 630.1 350.7 630.8 342.3C631.5 333.9 628.6 324.1 632.7 315C635.3 313.2 638.1 313.2 640 315.2C647.9 323.4 650.1 351.1 654.6 363.9C655.5 366.3 661.9 377.1 663.3 377.8C667.7 380 691.1 368.1 693.1 359.2C695.5 348.8 688.4 349 686.1 344.5L686.3 344.7ZM662.4 271.7C655.9 281.7 644.2 281.6 636.1 282C634 279 636.3 275.1 636.6 271.8C637.3 261.6 637.5 252.9 640.1 242.4C640.9 241.2 642.3 241 643.3 241C644.9 241 659.2 246.5 660.2 247.8C662.8 251.2 665.5 267.2 662.4 271.8V271.7Z" fill="black"/>
<path d="M594.2 227.201C594.2 226.101 592.9 224.201 592.6 222.701C592.3 221.401 592.8 220.201 592.4 218.701C591.6 215.801 587.1 212.901 584.9 213.001C581.6 213.101 574.1 216.101 570.3 217.101C564.8 218.501 559.2 219.801 553.7 221.401C551.2 222.101 548.9 223.901 546.2 223.801C545.5 224.101 544.8 224.401 544.2 224.701C543.6 225.001 542.5 225.401 541.6 225.601C540 226.001 538.2 225.801 536.8 226.701C536.2 228.401 535.6 230.101 535.6 232.101C535.3 240.301 536.3 250.101 536.2 258.401C536.2 260.501 535.2 262.601 535.3 264.801C535.3 267.101 536.2 269.701 536.1 272.401C536.1 274.301 534.9 276.101 534.9 277.901C534.9 279.701 535.9 281.701 535.7 283.801C535.7 285.401 534.3 286.701 534.4 288.501C534.9 305.401 534.1 323.201 533.8 340.301C533.8 345.001 531.6 347.401 535.3 352.201C536.3 353.501 540.1 356.201 541.3 356.501C542.7 356.901 543.6 355.301 544.7 355.501C546.1 355.701 547.5 358.001 549 358.301C550.5 358.601 558.1 358.301 560.2 358.301C562.3 358.301 564.6 356.701 566.8 356.401C570.2 355.901 574 356.901 577.2 356.701C580.1 356.501 582.9 353.801 584.9 353.501C586.2 353.301 587.6 354.001 588.8 353.701C589.1 353.701 592.8 348.901 592.9 348.501C593.4 346.201 591.9 343.501 592 341.701C592 339.901 593.9 338.601 593.9 336.301C593.9 334.001 592.5 332.401 592.4 330.601C592.2 328.401 593.4 326.801 593 324.701C592.4 321.301 590.4 321.201 588.7 320.001C588.1 319.601 587.6 318.401 586.9 318.001C584.2 316.601 582.1 319.101 579.7 319.601C575.6 320.501 571.5 321.101 567.4 321.801C565.6 322.101 555.1 324.201 554.5 323.501C553.7 319.901 555.6 316.101 555.5 313.101C555.5 311.401 554.7 310.001 554.7 308.501C554.5 299.001 556.4 302.401 561.2 300.801C562.5 300.301 563.7 299.301 565.1 298.801C569.7 297.301 582.6 295.401 584.9 290.901C586.8 287.201 584.9 284.901 584.9 281.601C584.9 278.301 585.8 279.301 585.7 277.801C585.7 275.701 584.2 270.301 583 268.501C578.8 262.301 575 267.301 571.2 268.401C566.3 269.801 561.1 270.001 556.3 271.701L556.1 250.801C562.3 249.501 568.4 247.401 574.5 245.701C579.5 244.301 584.9 243.501 589.8 241.801C591 241.401 594.7 236.301 594.7 234.701C594.7 233.101 593.9 231.801 593.9 230.701C593.9 229.601 594.6 228.001 594.5 226.901L594.2 227.201Z" fill="black"/>
<path d="M269.8 327.901C272.1 329.301 276 331.601 277.4 336.201V336.401C277.9 338.101 278.1 339.701 278.1 341.101C281.1 341.301 285.2 341.501 286.6 341.501C288.3 341.301 289.8 340.701 291.5 340.101C293.2 339.501 295 338.701 297.2 338.401C300.3 337.901 302.7 338.401 304.6 338.801C306.1 339.101 306.9 339.301 308.5 339.101C310.9 338.701 319.6 336.101 321.5 335.201C324.7 333.601 324.9 332.501 325.8 329.001C326.3 327.001 326.9 324.501 328.1 322.101C337.6 303.601 348.6 284.801 359.2 266.601C364.6 257.301 370.2 247.801 375.6 238.301C379.1 232.101 382.3 225.801 385.4 219.801C389.8 211.301 394.3 202.501 399.8 193.501C400.3 192.701 400.8 192.001 401.4 191.301C400.3 191.601 399.2 192.001 397.9 192.401C393.2 193.901 387.4 195.701 380 196.401C377.4 196.601 375.5 196.401 374.1 196.401C372.3 196.301 371.5 196.201 367.5 197.701C366.9 197.901 366.5 198.101 366.1 198.301C365.8 199.501 365.4 201.101 364.4 202.701C362.9 205.301 360.8 207.401 358.9 209.201C357.9 210.201 356.7 211.401 356.3 212.001C351.5 219.201 347.8 226.501 343.9 234.301C341.3 239.501 338.5 244.901 335.4 250.301C333 254.401 330.2 258.501 327.6 262.401C323.4 268.701 319 275.201 316.7 280.701L311.6 293.401L291.6 275.301L292.9 271.401C292.8 271.301 292.7 271.201 292.6 271.001C291.3 269.601 289.8 267.901 288.6 265.501C286.6 261.501 284.9 257.501 283.2 253.701C279.5 245.201 276 237.101 270.5 230.001C258.3 229.101 244.4 231.501 225.2 237.701C221.8 238.801 212.8 241.701 211 243.001C210.8 243.301 210.5 244.001 210.2 244.601C209.6 245.801 208.9 247.201 207.9 249.001C199.5 263.701 191.6 278.601 183.9 293.101C174.6 310.701 164.9 328.801 154.3 346.901C153 349.101 151.5 351.201 150.1 353.301C150 353.501 149.8 353.701 149.7 353.901C151.7 353.501 153.4 352.801 155.2 352.101C157.1 351.301 159.4 350.401 161.9 349.901C166.2 348.901 170.1 349.101 173.2 349.201C174.8 349.201 176.2 349.301 177.2 349.201C180 348.901 182.5 348.901 184.5 348.901C186.6 348.901 187.9 348.901 188.5 348.601C188.9 348.401 190.6 347.201 193.5 342.001C197.2 335.301 200.2 328.701 203.4 321.601C207.3 313.001 211.4 304.101 216.7 295.301C219.7 290.401 223.4 285.601 227 281.001L231.6 275.201L238.4 278.301C241.8 279.901 244.9 282.301 247.7 285.701C251.7 290.601 254.4 296.001 256.8 300.701C257.3 301.701 257.8 302.701 258.3 303.701C260.3 307.601 261.9 311.501 263.5 315.201C265.4 319.701 267.2 324.001 269.5 327.901C269.6 327.901 269.8 328.101 269.9 328.101L269.8 327.901Z" fill="black"/>
<path d="M1116.2 112.199C1120.8 110.799 1123.6 111.499 1127.6 110.999C1131.6 110.499 1131.8 108.799 1133.4 109.599C1135 110.399 1134.4 111.699 1135.6 111.899C1137.7 112.199 1142.2 107.999 1144.1 112.899C1146 117.799 1143.1 118.499 1143.3 120.499C1143.5 122.499 1145.9 123.299 1146.4 124.899C1146.8 126.099 1147.8 133.199 1147.5 134.299C1146.5 138.599 1141.4 138.299 1139.1 141.099C1137.3 143.199 1138.1 146.899 1134.6 147.999C1127.6 150.199 1120.1 154.899 1113.2 156.899C1106.3 158.899 1045.3 162.399 1044.6 172.599C1044.1 178.899 1044.2 193.099 1045 198.999C1045.8 204.899 1046.8 203.699 1046.8 206.399C1046.8 211.199 1044.1 217.999 1043.9 223.499C1043.2 239.799 1045.2 254.099 1045.2 269.899C1045.2 285.699 1044.6 272.499 1044.7 273.899C1044.9 281.799 1048.4 285.899 1040.9 292.499C1032.8 299.599 1032.4 294.299 1027.3 294.599C1025.4 294.699 1022.1 297.599 1019.9 297.799C1017.7 297.999 1016.9 295.899 1015.6 295.699C1013 295.399 1010.1 298.799 1007.7 295.699C1005.3 292.599 1005.2 290.399 1005 289.899C1004.4 287.199 1005.5 285.099 1005.4 282.899C1005.3 280.699 1004.1 279.499 1004 277.699C1003.6 273.299 1005.6 266.499 1005.9 261.699C1007.2 242.699 1007.6 223.199 1008.9 204.299C1009.5 195.099 1011.7 185.599 1012 176.399L1011.6 175.199C1010.8 174.299 998.9 176.299 996.8 176.899C991.2 178.399 988.4 183.099 982.5 178.099C976.6 173.099 981 173.199 980.5 169.899C979.9 165.699 979.6 164.799 979.3 159.899C979 154.099 975.9 149.099 981.2 144.399C985.1 140.999 986.3 143.099 990.4 142.099C998.4 140.199 1009 135.099 1018.1 132.999C1034.3 129.199 1100.4 117.099 1116.2 112.399V112.199Z" fill="black"/>
<path d="M134.4 189.901C138.4 190.801 141.8 188.401 145.4 188.201C149 188.001 149.5 188.701 151.1 188.601C152.7 188.501 156.1 187.301 158.3 187.601C160.5 187.901 163.3 190.401 164 191.401C166.5 195.001 164.4 200.501 163.8 204.501C163.4 207.401 162.5 211.101 162.2 213.301C161.9 215.501 162.8 216.601 162.7 218.201C162.6 219.801 161.4 221.401 161.2 223.201C161 225.001 161.8 227.101 161.6 228.501C161.4 229.901 160.4 230.601 160.2 232.001C159.5 236.401 160 242.801 159.7 247.501C159.2 254.401 157.5 260.901 156.6 267.501C155.7 274.101 157.3 273.901 156.3 278.201C153.5 290.101 153.4 302.601 153.4 315.001C153.4 327.401 153.9 317.201 153.9 318.201C153.8 322.601 147.8 327.701 143.8 327.901C139.8 328.101 140.9 327.101 138.8 327.501C134.4 328.401 131.5 334.801 126.9 331.701C122.3 328.601 125.3 329.201 124.7 329.101C124.1 329.001 123.2 329.901 121.9 329.301C120.6 328.701 119.9 327.201 119.7 326.701C118.9 320.101 122.5 313.401 123.4 306.601C124.3 299.801 123 293.201 124.5 287.801C126 282.401 127.4 281.201 127.6 278.901C127.8 276.601 127 275.801 127.1 274.001C127.2 272.201 128.4 269.801 128.6 267.801C129.4 260.601 129.2 254.001 130.6 246.601C131.8 240.101 129.7 235.301 130.9 228.601C132.1 221.901 132.2 224.601 132.3 219.001C132.4 213.401 133.9 203.301 134.4 195.701C134.9 188.101 133.2 191.601 134.4 189.501V189.901Z" fill="black"/>
<path d="M386.3 216.5C386.3 216.4 386.3 216.3 386.2 216.2C384.7 215.1 382.9 214.9 381.3 214.4C380.4 214.1 379.5 213.6 378.6 213.1C378.1 212.8 377.6 212.5 377.1 212.3L373.3 208.3C372.5 207 371.2 204.4 371.1 202.7C370.8 199 371.7 195.5 372.1 192C372.5 188.7 371.5 185.8 374.1 183.5C375.4 182.4 376.6 181.4 378.3 181.6C382.3 183.3 386.7 184.1 390.6 185.6C400.3 189.2 409.6 193.7 419.3 197.4C426.6 200.2 433.9 201.4 441.1 205.9C445.7 208.8 443.2 210.9 443.3 215.3C443.3 216.9 444.3 218.3 444.3 220C444.3 223 443 227.2 443.7 230.7C441.1 237.9 436.9 234.1 432.9 232.9C429.9 232 426.8 231.3 423.8 230.5C424.8 240.2 425.5 250.1 426.6 259.8C428.3 275.9 430.2 291.6 432.1 307.6C433.8 322.1 434.8 337 436.2 351.8C436.9 358.6 439.6 363 436 369.6C431.9 377.2 431.6 371.7 427 371.6C424.3 371.6 422.5 374 420.4 373.5C418.1 372.9 413.8 368.8 413.3 365.7C413 363.6 413.8 362.2 413.7 360.5C413.7 358.2 412.4 355.5 412.1 353.2C410.5 339.8 410.5 326.6 409.6 313.1C409 304.4 407.7 295.1 406.8 286.5C405 269.3 403.7 251.5 402.1 234.6C401.7 230.5 403.3 224 399.9 221.9C398 220.7 395.7 220.7 393.8 219.8C391.3 218.7 388.9 216.5 386.1 216.4H386.3V216.5Z" fill="black"/>
</svg>
