<svg viewBox="0 0 1268 538" fill="none" xmlns="http://www.w3.org/2000/svg">
<path d="M1169.8 444.901C1167.7 443.901 1165.5 443.101 1164.4 442.701C1134.3 431.201 1097.3 433.801 1065.7 430.701C1060.5 430.201 1054.5 427.301 1049.3 427.201C1035.5 426.901 1026.3 426.201 1012.7 425.001C976.1 421.701 932.6 427.301 897.2 422.701C893.1 422.201 889.3 419.701 884.7 419.201C854.5 416.201 820.8 421.501 790.3 419.301C786.7 420.001 786.7 413.601 783.6 413.501C780.9 414.101 779.8 416.501 776.9 417.001C770.6 418.001 749.3 418.001 743.1 417.001C738.3 416.201 738.6 410.801 736.3 410.201C733.4 409.501 727.9 420.201 723 418.101C602.4 416.801 482.3 417.401 361.9 419.201C318.6 427.201 272.4 420.101 229.1 427.301C226.2 427.801 214.5 427.801 211.8 427.201C209.6 426.701 208 423.801 206 423.801C204.3 423.801 202.9 426.501 201 427.001C180.7 432.601 156.8 430.901 135.7 433.001C123.9 434.201 111 435.701 99.2 437.701C92.8 438.801 87.3 446.701 94 446.501C97 446.401 101.9 446.001 104.9 445.601C140 441.201 174.3 436.101 209.8 435.201C215.3 435.101 222 436.001 227.2 435.201C230.6 434.701 233.1 432.201 236.8 431.701C253.5 429.501 272.3 434.901 288.7 429.401C453.4 428.701 619.7 418.501 784.4 427.201C845.2 430.401 906.2 427.501 967.3 431.801C981.1 432.801 997.2 430.001 1010.6 431.801C1014.3 432.301 1017.5 434.801 1021.2 435.301C1041.6 438.001 1067.1 434.701 1087.7 437.601C1105.6 440.101 1123.8 443.101 1141.6 445.601C1144 445.901 1157.8 446.601 1162.6 449.001C1164.9 447.701 1167.3 446.301 1169.6 445.001L1169.8 444.901Z" fill="black"/>
<path d="M596.7 155.8C601.6 155.1 605.5 160.1 603.4 164.6C601.3 169.1 597.7 172.3 597 173.1C589.8 181.4 577.9 173.2 583.1 164.2C588.3 155.2 594 156.2 596.7 155.8Z" fill="black"/>
<path d="M1156.6 312.501C1161.4 316.701 1151.4 328.101 1148.1 329.101C1138.3 332.001 1134.8 322.301 1141.3 315.301C1147.8 308.301 1150.9 309.801 1156.6 312.601V312.501Z" fill="black"/>
<path d="M271.4 91.8992C272.7 90.9992 273 89.3992 275.8 88.7992C278.6 88.1992 282.5 88.3992 283.6 91.9992C287.5 105.299 261.9 113.199 264.8 97.7992C267.7 82.3992 269 93.3992 271.4 91.8992Z" fill="black"/>
<path d="M701.2 220.3C696.2 215.3 706.5 198.4 714.5 205.5C722.5 212.6 707.9 227.1 701.2 220.3Z" fill="black"/>
<path d="M83.5998 226.5C88.5998 225.4 92.0998 230.1 90.6998 234.6C89.2998 239.1 85.9998 240.6 85.1998 241.2C76.3998 247.7 69.6998 236.8 75.2998 231.3C80.8998 225.8 82.6998 226.7 83.5998 226.5Z" fill="black"/>
<path d="M766.6 489.501C768.8 489.001 770.7 489.701 772.3 491.301C773.7 495.501 773 501.601 768.5 503.601C758.3 508.001 752.9 495.201 759.8 491.901C766.7 488.601 766 489.701 766.5 489.601L766.6 489.501Z" fill="black"/>
<path d="M827.2 462.599C836.4 452.999 846.9 465.499 835.8 472.699C827.4 478.099 821.2 468.799 827.2 462.599Z" fill="black"/>
<path d="M234.5 370.399C245.3 368.699 240.4 387.999 230.5 386.099C221.3 384.299 227.2 371.599 234.5 370.399Z" fill="black"/>
<path d="M910.6 120.5C921.6 117.3 920.7 135.4 910.3 135.2C899.9 135 902.2 122.9 910.6 120.5Z" fill="black"/>
<path d="M407.6 57.4999C413.9 63.7999 404.8 75.1999 398.2 69.2999C391.6 63.3999 400.6 54.1999 407.6 57.4999Z" fill="black"/>
<path d="M955.6 96.5C960.9 101.8 951 112.9 945.1 107C939.2 101.1 949.9 90.8 955.6 96.5Z" fill="black"/>
<path d="M724.6 462.501C729.3 467.401 723.4 476.901 716.9 473.801C709.1 470.001 716.9 454.301 724.6 462.501Z" fill="black"/>
<path d="M1188.6 359.501C1199 356.401 1199.8 370.801 1192.1 372.101C1184.4 373.401 1182.3 361.301 1188.6 359.501Z" fill="black"/>
<path d="M101.5 252.5C103.2 252 105.4 252.2 107.1 252.5C113.3 256.8 107.6 267.9 100.8 264.8C94.0002 261.7 97.2002 253.8 101.5 252.5Z" fill="black"/>
<path d="M753.6 290.8C751.6 290.8 749.6 290.7 747.7 290.5C746.7 290.5 745.7 290.4 744.7 290.3C744.5 290.3 744.3 290.3 744 290.3C743.1 290.3 742.2 290.3 741.3 290.4C740.5 290.4 739.7 290.5 739 290.5C737.5 290.5 737 290.2 736.9 289.9C736.7 289.6 736.7 289.3 736.7 288.6C736.7 287.9 736.7 287 736.3 286.1C735.9 285.2 735.3 284.4 734.7 283.5C734.1 282.7 733.1 281.3 733.2 280.8C733.2 280.5 733.6 279.7 733.9 279.2C734.6 277.9 735.3 276.5 735.2 274.9C735.2 273.4 734.4 272.3 733.8 271.3C733.4 270.7 733.1 270.1 733 269.7C732.3 265.8 732.4 261.1 732.5 256.6C732.5 253 732.6 249.3 732.3 245.9C732.2 244.8 731.7 244 731.3 243.3C731.1 243 730.9 242.5 730.9 242.4C730.9 241.3 731.3 240 731.8 238.5C732.5 236.3 733.3 233.8 733 231.1C733 230.2 732.9 229.4 732.8 228.5C732.3 223.4 731.9 218.5 733 212.9C733.8 208.6 734.7 205.9 742.5 204.3C744 204 753.1 203.4 756.8 203.4C760.5 203.4 757.8 203.4 757.8 203.4C758.5 203.6 759.3 204.1 760.1 204.6C761.1 205.2 762.2 206 763.5 206.2C764 206.3 764.6 206.4 765.3 206.4C766 206.4 766.7 206.4 767.4 206.3C768 206.3 768.5 206.2 769 206.2C769.5 206.2 769.4 206.2 769.7 206.2C771.5 206.4 775.4 208.7 776.1 209.7C780.9 216.1 787.8 221 794.4 225.7C798.5 228.6 802.7 231.6 806.4 234.9C807.4 235.8 808.3 236.9 809.3 238C812 241.1 815 244.7 822 245.6H822.3H822.6C823.3 245.5 823.8 245.1 824.2 244.5C825.3 242.9 824.8 239.8 823.5 233.5C823.3 232.7 823.1 231.7 823.1 231.5C823.1 229.8 823.3 228 823.5 226.2C823.7 223.9 824 221.6 823.9 218.9C823.8 213.3 823.9 207.6 823.9 202.1V198.4C823.9 197.1 823.8 195.4 823.6 193.7C823.2 190.7 822.8 186.6 823.6 185C824.5 183.3 826.7 182.9 830.2 182.4H830.3C833 182 835.9 181.9 838.6 181.9C841.3 181.9 842.6 181.9 842.6 181.9C843.8 181.9 845.3 181.9 846.8 181.9C848.1 181.9 849.4 181.6 850.6 181.4C851.8 181.2 853 181 854.1 181C855.2 181 855.8 181.1 856.5 181.5C858.6 182.4 858.6 184.5 857.6 189C857.4 190.2 857.1 191.3 857 192.3C856.9 194.2 856.6 196.3 856.4 198.5C856 202.4 855.5 206.5 855.5 209.8C855.5 211.7 856.1 213.3 856.7 214.8C857.4 216.5 858 218.2 857.8 220.3C857.6 222.6 857.1 225.3 856.5 228.1C855.7 232.4 854.9 236.8 854.9 240.3C854.9 245.6 857.8 254.8 859.8 259.5C860.8 261.9 860.4 262.8 859.7 264.8C859.3 265.8 858.8 267.1 858.5 268.8C858.3 269.9 858.4 270.9 858.5 271.9C858.6 274 858.7 275.5 856.5 277C854.8 278.2 853.2 278.7 851.6 278.7C850 278.7 848.2 278.1 846.6 277.4C845 276.8 843.5 276.2 841.9 276.2C840.3 276.2 841.4 276.2 841.2 276.2C839 276.4 837 277.4 835.1 278.3C832.7 279.4 830.2 280.6 827.1 280.6C824 280.6 824.6 280.4 823.2 280C821.3 279.4 821 278.8 820.6 277.9C820.2 277.1 819.7 275.9 818.3 275.2C817.6 274.8 816.8 274.6 815.7 274.6C814.6 274.6 814.5 274.6 814 274.7C813.5 274.7 813 274.7 812.5 274.7C812 274.7 811.8 274.7 811.5 274.6C811.2 274.5 811 274.2 810.6 273.8C810.1 273.3 809.6 272.6 808.6 272.1C806.2 270.8 804 269.7 801.8 268.6C796.3 265.8 791.5 263.4 786.7 259.3C785 257.9 783.5 256.3 781.9 254.6C777.9 250.5 773.8 246.2 766.9 243.9L764.1 243L766.9 287C762.8 290.5 757.8 291 753.8 291L753.6 290.8Z" fill="black"/>
<path d="M853.8 182.9C854.4 182.9 854.9 182.9 855.4 183.2C855.8 183.4 855.9 183.4 855.9 184.1C856 185.3 855.7 187 855.3 188.5C855 189.7 854.8 190.9 854.7 192C854.6 193.9 854.3 195.9 854.1 198.1C853.7 202.1 853.2 206.2 853.2 209.6C853.2 211.8 853.9 213.7 854.5 215.3C855.1 217 855.6 218.3 855.4 219.9C855.2 222.1 854.7 224.7 854.2 227.5C853.4 231.9 852.6 236.4 852.6 240.1C852.6 245.9 855.7 255.4 857.6 260C858.3 261.6 858.2 262 857.5 263.8C857.1 264.9 856.5 266.3 856.2 268.2C856 269.5 856 270.7 856.2 271.8C856.3 273.9 856.3 274.3 855.1 275.2C853.3 276.4 852.1 276.6 851.3 276.6C849.9 276.6 848.5 276.1 847 275.5C845.3 274.8 843.6 274.2 841.6 274.2C841.3 274.2 841 274.2 840.7 274.2C838.2 274.5 836.1 275.5 834 276.4C831.7 277.5 829.5 278.5 826.9 278.5C824.3 278.5 824.7 278.3 823.6 278C822.6 277.7 822.6 277.6 822.2 276.9C821.8 275.9 821 274.3 819 273.3C818 272.8 816.8 272.5 815.5 272.5C814.8 272.5 814.2 272.5 813.6 272.6C813.1 272.6 812.7 272.6 812.3 272.6C811.9 272.6 812.2 272.6 812.1 272.6C812.1 272.6 811.9 272.4 811.9 272.3C811.4 271.7 810.6 270.8 809.4 270.1C807 268.8 804.8 267.6 802.6 266.5C797.2 263.8 792.5 261.4 787.8 257.4C786.2 256 784.7 254.5 783.1 252.8C779.1 248.7 774.7 244 767.3 241.6L761.7 239.8L762.1 245.7L764.7 285.7C762 287.7 758.6 288.6 753.7 288.6C748.8 288.6 749.8 288.5 748 288.3C747 288.3 745.9 288.2 744.9 288.1C744.7 288.1 744.4 288.1 744.1 288.1C743.1 288.1 742.2 288.1 741.2 288.3C740.4 288.3 739.7 288.4 739.1 288.4C738.5 288.4 738.9 288.4 738.8 288.4C738.8 287.6 738.8 286.4 738.2 285.2C737.7 284.1 737.1 283.2 736.4 282.3C736.1 281.9 735.6 281.2 735.4 280.8C735.5 280.6 735.6 280.3 735.8 280.1C736.5 278.7 737.4 276.9 737.4 274.8C737.4 272.8 736.4 271.3 735.7 270.2C735.5 269.9 735.2 269.5 735.2 269.3C734.5 265.6 734.6 261.1 734.7 256.6C734.7 252.9 734.8 249.2 734.5 245.7C734.4 244.2 733.7 243.1 733.3 242.3C733.3 242.3 733.2 242.1 733.1 242C733.1 241.2 733.5 240.2 733.9 239.1C734.6 236.9 735.5 234.1 735.2 230.9C735.2 230 735.1 229.1 735 228.3C734.5 223.1 734.1 218.6 735.2 213.2C735.9 209.6 736.3 207.6 743.1 206.2C744.4 205.9 753.3 205.3 757 205.3C760.7 205.3 757.5 205.3 757.6 205.3C758 205.4 758.6 205.8 759.1 206.2C760.2 206.9 761.5 207.8 763.2 208.1C763.9 208.2 764.6 208.3 765.3 208.3C766 208.3 766.9 208.3 767.5 208.2C768 208.2 768.5 208.1 769 208.1C769.5 208.1 769.3 208.1 769.4 208.1C770.5 208.2 773.6 210 774.4 210.8C779.4 217.4 786.3 222.4 793.1 227.2C797.1 230.1 801.3 233 804.9 236.3C805.8 237.1 806.7 238.1 807.6 239.2C810.4 242.4 813.8 246.5 821.5 247.5H822.2H822.8C824 247.3 825 246.6 825.7 245.5C827.2 243.3 826.8 240 825.3 233C825.2 232.4 825 231.6 824.9 231.3C824.9 229.7 825.1 228 825.2 226.3C825.4 224 825.7 221.5 825.6 218.8C825.5 213.2 825.6 207.8 825.6 202C825.6 200.8 825.6 199.6 825.6 198.4C825.6 197 825.4 195.2 825.2 193.4C825 191.3 824.4 187 825 185.9C825.5 185 827.3 184.7 830.1 184.3H830.2C832.8 183.9 835.6 183.9 838.2 183.9C840.8 183.9 839.5 183.9 840.2 183.9C840.9 183.9 841.5 183.9 842.2 183.9C843.4 183.9 844.9 183.9 846.5 183.9C848 183.9 849.3 183.6 850.5 183.3C851.6 183.1 852.7 182.9 853.6 182.9M853.8 178.9C851.4 178.9 849 179.7 846.5 179.9C845.2 179.9 843.8 179.9 842.4 179.9C841 179.9 839.8 179.9 838.4 179.9C835.5 179.9 832.6 179.9 829.8 180.4C826.3 180.9 823.1 181.3 821.6 184.1C819.8 187.3 821.7 194.7 821.6 198.4C821.6 205.3 821.4 212.1 821.6 219C821.7 223.6 820.8 227.5 820.8 231.7C820.8 232.7 823.8 243.4 821.9 243.8C813.4 242.7 811.7 237.4 807.4 233.6C797.5 224.7 785 218.6 777.4 208.6C776.4 207.2 772 204.6 769.7 204.3C769.4 204.3 769.1 204.3 768.8 204.3C767.6 204.3 766.3 204.5 765.1 204.5C763.9 204.5 764.2 204.5 763.7 204.4C761.7 204 760.3 202.1 758 201.6C757.8 201.6 757.3 201.6 756.6 201.6C752.9 201.6 743.6 202.2 741.9 202.6C733 204.4 731.8 208.1 730.8 212.8C729.5 219.7 730.3 225.3 730.8 231.6C731.1 235.8 728.7 239.6 728.7 242.8C728.7 244.1 730 245.2 730.1 246.5C730.8 254 729.5 263.3 730.8 270.5C731.1 272.2 732.9 273.7 733 275.4C733 277.3 731 279.7 730.9 281.2C730.9 283.2 733.4 285.5 734.2 287.3C734.8 288.6 734 290.1 735 291.5C735.8 292.6 737.2 292.9 738.8 292.9C740.4 292.9 742.1 292.6 743.8 292.6C744 292.6 744.2 292.6 744.4 292.6C747.2 292.7 750.3 293 753.4 293C758.7 293 764.1 292.1 768.5 287.8L765.8 245.8C774.9 248.8 778.9 255.7 784.9 260.8C791.9 266.7 798.9 269.3 807.1 273.9C808.4 274.6 808.8 276.1 810.3 276.6C810.8 276.8 811.4 276.8 811.9 276.8C813 276.8 814.1 276.6 815.1 276.6C815.7 276.6 816.3 276.6 816.8 276.9C818.8 278 817.6 280.6 822.1 281.9C823.7 282.4 825.2 282.6 826.6 282.6C832.6 282.6 836.6 278.8 840.9 278.3C841.1 278.3 841.2 278.3 841.4 278.3C844.1 278.3 847.2 280.8 851.1 280.8C855 280.8 854.9 280.3 857.2 278.7C861.5 275.7 859.5 272.2 860.1 269.2C860.9 264.8 863.2 263.4 861.2 258.8C859.3 254.4 856.6 245.4 856.5 240.4C856.5 234.9 858.7 226.5 859.3 220.7C859.8 216.1 857.1 213.5 857.1 210C857.1 205 858.2 198.1 858.6 192.7C858.9 188.8 862 182.1 856.8 179.9C855.7 179.4 854.6 179.3 853.6 179.3L853.8 178.9Z" fill="white"/>
<path d="M991.4 283.899C990.5 287.199 983.5 286.699 980.6 286.399L913.4 269.999C904.5 269.999 907.8 275.399 907.8 280.799C907.8 285.499 906.9 309.099 908.8 310.699C910.7 312.299 922.1 314.499 925.1 314.999C936.9 316.999 949.3 316.999 960.8 318.499C968.2 319.499 986.7 322.799 993 325.499C1000.8 328.899 1001.1 341.599 992.5 343.699C983.9 345.799 946.4 345.099 937.3 344.099C928.2 343.099 924 340.299 918.4 339.299C904.5 336.699 890.1 334.799 876.6 331.599C863.1 328.399 864.7 322.599 865.6 307.699C866.3 295.599 864.2 282.699 865.6 270.599C867 258.499 869.4 257.099 868.7 245.899C867.9 232.799 867.8 229.199 868.7 216.099C869.5 205.399 863.8 180.899 879.4 179.399C893.4 178.099 909.5 180.399 923.7 179.599L981.7 197.999C983.6 201.899 986.8 205.599 987.3 209.899C989.5 227.599 980.5 222.999 968.3 219.599C949 214.199 929.1 204.999 908.9 205.699C905.1 207.999 905 232.099 905.8 236.599C906.8 241.799 912.5 240.599 916.1 241.699C921.4 243.299 931.7 247.699 936.5 248.299C941.3 248.899 944 247.099 948.5 247.599C954.9 248.199 975.8 253.799 982.4 255.999C989 258.199 991.5 259.799 991.5 262.399V283.999L991.4 283.899Z" fill="black"/>
<path d="M686.3 344.7C682.1 336.1 678.4 323.7 674.8 314.4C674 312.2 672 311.3 671.1 309.2C667.3 299.8 676.1 298.6 680.8 293.3C691.8 281 696.2 245.6 688.2 234.8C686.1 232 670.9 218 668.4 217.1C659.2 213.8 639.4 211.5 629.2 210.8C623.4 210.4 617.1 204.4 614.3 218.2C612.6 226.5 614.3 233 613.9 239.4C613.2 247.9 610.6 259 610 267C609.6 272.2 611.2 277.9 610.2 282.8C609.5 286.3 607.1 288.4 606.7 291.4C605.8 298 606.9 310.1 606.1 317C604.9 327.4 600.6 339 599 348.8C596.3 365.5 598.3 385.9 605.7 397.9L623.8 389.9C623.8 383.7 623.1 378.5 624.1 372C625.3 363.5 630.1 350.7 630.8 342.3C631.5 333.9 628.6 324.1 632.7 315C635.3 313.2 638.1 313.2 640 315.2C647.9 323.4 650.1 351.1 654.6 363.9C655.5 366.3 661.9 377.1 663.3 377.8C667.7 380 691.1 368.1 693.1 359.2C695.5 348.8 688.4 349 686.1 344.5L686.3 344.7ZM662.4 271.7C655.9 281.7 644.2 281.6 636.1 282C634 279 636.3 275.1 636.6 271.8C637.3 261.6 637.5 252.9 640.1 242.4C640.9 241.2 642.3 241 643.3 241C644.9 241 659.2 246.5 660.2 247.8C662.8 251.2 665.5 267.2 662.4 271.8V271.7Z" fill="black"/>
<path d="M594.2 227.201C594.2 226.101 592.9 224.201 592.6 222.701C592.3 221.401 592.8 220.201 592.4 218.701C591.6 215.801 587.1 212.901 584.9 213.001C581.6 213.101 574.1 216.101 570.3 217.101C564.8 218.501 559.2 219.801 553.7 221.401C551.2 222.101 548.9 223.901 546.2 223.801C545.5 224.101 544.8 224.401 544.2 224.701C543.4 225.101 542.5 225.401 541.6 225.601C540 226.001 538.2 225.801 536.8 226.701C536.2 228.401 535.6 230.101 535.6 232.101C535.3 240.301 536.3 250.101 536.2 258.401C536.2 260.501 535.2 262.601 535.3 264.801C535.3 267.101 536.2 269.701 536.1 272.401C536.1 274.301 534.9 276.101 534.9 277.901C534.9 280.001 535.9 281.701 535.7 283.801C535.6 285.401 534.3 286.701 534.4 288.501C534.9 305.401 534.1 323.201 533.8 340.301C533.8 345.001 531.6 347.401 535.3 352.201C536.3 353.501 540.1 356.201 541.3 356.501C542.7 356.901 543.6 355.301 544.7 355.501C546.1 355.701 547.5 358.001 549 358.301C550.5 358.601 558.1 358.301 560.2 358.301C562.7 358.301 564.6 356.701 566.8 356.401C570.2 355.901 574 356.901 577.2 356.701C580.1 356.501 582.9 353.801 584.9 353.501C586.2 353.301 587.6 354.001 588.8 353.701C589.1 353.701 592.8 348.901 592.9 348.501C593.4 346.201 591.9 343.501 592 341.701C592 339.901 593.9 338.601 593.9 336.301C593.9 334.301 592.5 332.401 592.4 330.601C592.2 328.401 593.4 326.801 593 324.701C592.4 321.301 590.4 321.201 588.7 320.001C588.1 319.601 587.6 318.401 586.9 318.001C584.2 316.601 582.1 319.101 579.7 319.601C575.6 320.501 571.5 321.101 567.4 321.801C565.6 322.101 555.1 324.201 554.5 323.501C553.7 319.901 555.6 316.101 555.5 313.101C555.5 311.401 554.7 310.001 554.7 308.501C554.5 299.001 556.4 302.401 561.2 300.801C562.5 300.301 563.7 299.301 565.1 298.801C569.7 297.301 582.6 295.401 584.9 290.901C586.8 287.201 584.9 284.901 584.9 281.601C584.9 280.201 585.8 279.301 585.7 277.801C585.7 275.701 584.2 270.301 583 268.501C578.8 262.301 575 267.301 571.2 268.401C566.3 269.801 561.1 270.001 556.3 271.701L556.1 250.801C562.3 249.501 568.4 247.401 574.5 245.701C579.5 244.301 584.9 243.501 589.8 241.801C591 241.401 594.7 236.301 594.7 234.701C594.7 233.301 593.9 231.801 593.9 230.701C593.9 229.201 594.6 228.001 594.5 226.901L594.2 227.201Z" fill="black"/>
<path d="M325.6 343.6C322.8 345 313 347.9 309.7 348.4C304.1 349.2 301.7 347.2 298.7 347.7C295.7 348.2 292.2 350.6 286.9 351C286.1 351 273.7 350.4 273.2 350.2C266.6 347.3 269.4 342.9 268.3 338.9C267.7 336.9 263 335.5 262 333.7C257 325.4 254.2 316.4 249.8 307.8C247 302.4 244.4 296.5 240.3 291.5C238.9 289.8 237 287.9 234.4 286.7C230.9 291.1 227.4 295.6 224.8 299.9C215.7 315.2 210.3 330.8 201.8 346.3C193.3 361.8 188 357.1 178.3 358.3C174.1 358.8 169.1 357.7 163.9 358.9C159.2 359.9 155.5 362.8 148.1 363.5C142.2 364.1 135.3 360.4 136.4 357.5C138.3 352.4 143.2 346.8 146.1 341.8C165.3 309 181 276.7 199.6 244C204.6 235.3 200.9 235.2 222.2 228.4C242.3 221.9 259.3 218.6 275.3 220.7C286.1 233 290.3 247.4 297 261C298.8 264.6 304.1 267.1 302.5 272.1L307.8 276.9C311.9 266.6 321 255.6 327.1 245.2C334.5 232.4 339.7 219.3 348.3 206.4C350.3 203.4 354.3 200.5 356.1 197.5C357.9 194.5 354.5 192.2 363.9 188.6C372.7 185.2 373.4 187.2 378.9 186.7C395 185.2 402.1 177.7 414.5 181.7C426.9 185.7 411.2 192.7 407.7 198.3C398.5 213.3 392.2 227.8 383.7 242.8C367.8 270.9 350.6 298.6 336.4 326.3C333.8 331.3 335.6 338.6 325.6 343.6Z" fill="black" stroke="white" stroke-width="19" stroke-miterlimit="10"/>
<path d="M1116.2 112.199C1120.8 110.799 1123.6 111.499 1127.6 110.999C1131.6 110.499 1131.8 108.799 1133.4 109.599C1135 110.399 1134.4 111.699 1135.6 111.899C1137.7 112.199 1142.2 107.999 1144.1 112.899C1146 117.799 1143.1 118.499 1143.3 120.499C1143.5 122.499 1145.9 123.299 1146.4 124.899C1146.8 126.099 1147.8 133.199 1147.5 134.299C1146.5 138.599 1141.4 138.299 1139.1 141.099C1137.3 143.199 1138.1 146.899 1134.6 147.999C1127.6 150.199 1120.1 154.899 1113.2 156.899C1106.3 158.899 1045.3 162.399 1044.6 172.599C1044.1 178.899 1044.2 193.099 1045 198.999C1045.8 204.899 1046.8 203.699 1046.8 206.399C1046.8 211.199 1044.1 217.999 1043.9 223.499C1043.2 239.799 1045.2 254.099 1045.2 269.899C1045.2 285.699 1044.6 272.499 1044.7 273.899C1044.9 281.799 1048.4 285.899 1040.9 292.499C1032.8 299.599 1032.4 294.299 1027.3 294.599C1025.4 294.699 1022.1 297.599 1019.9 297.799C1017.7 297.999 1016.9 295.899 1015.6 295.699C1013 295.399 1010.1 298.799 1007.7 295.699C1005.3 292.599 1005.2 290.399 1005 289.899C1004.4 287.199 1005.5 285.099 1005.4 282.899C1005.3 280.699 1004.1 279.499 1004 277.699C1003.6 273.299 1005.6 266.499 1005.9 261.699C1007.2 242.699 1007.6 223.199 1008.9 204.299C1009.5 195.099 1011.7 185.599 1012 176.399L1011.6 175.199C1010.8 174.299 998.9 176.299 996.8 176.899C991.2 178.399 988.4 183.099 982.5 178.099C976.6 173.099 981 173.199 980.5 169.899C979.9 165.699 979.6 164.799 979.3 159.899C979 154.099 975.9 149.099 981.2 144.399C985.1 140.999 986.3 143.099 990.4 142.099C998.4 140.199 1009 135.099 1018.1 132.999C1034.3 129.199 1100.4 117.099 1116.2 112.399V112.199Z" fill="black"/>
<path d="M134.4 189.901C138.4 190.801 141.8 188.401 145.4 188.201C149 188.001 149.5 188.701 151.1 188.601C152.7 188.501 156.1 187.301 158.3 187.601C160.5 187.901 163.3 190.401 164 191.401C166.5 195.001 164.4 200.501 163.8 204.501C163.4 207.401 162.5 211.101 162.2 213.301C161.9 215.501 162.8 216.601 162.7 218.201C162.6 219.801 161.4 221.401 161.2 223.201C161 225.001 161.8 227.101 161.6 228.501C161.4 229.901 160.4 230.601 160.2 232.001C159.5 236.401 160 242.801 159.7 247.501C159.2 254.401 157.5 260.901 156.6 267.501C155.7 274.101 157.3 273.901 156.3 278.201C153.5 290.101 153.4 302.601 153.4 315.001C153.4 316.101 153.9 317.201 153.9 318.201C153.8 322.601 147.8 327.701 143.8 327.901C139.8 328.101 140.9 327.101 138.8 327.501C134.4 328.401 131.5 334.801 126.9 331.701C122.3 328.601 125.3 329.201 124.7 329.101C124.1 329.001 123.2 329.901 121.9 329.301C120.6 328.701 119.9 327.201 119.7 326.701C118.9 320.101 122.5 313.401 123.4 306.601C124.3 299.801 123 293.201 124.5 287.801C126 282.401 127.4 281.201 127.6 278.901C127.8 276.601 127 275.801 127.1 274.001C127.2 272.201 128.4 269.801 128.6 267.801C129.4 260.601 129.2 254.001 130.6 246.601C131.8 240.101 129.7 235.301 130.9 228.601C132.1 221.901 132.2 224.601 132.3 219.001C132.4 213.401 133.9 203.301 134.4 195.701C134.9 188.101 133.2 191.601 134.4 189.501V189.901Z" fill="black"/>
<path d="M386.3 216.5C386.3 216.4 386.3 216.3 386.2 216.2C384.7 215.1 382.9 214.9 381.3 214.4C380.4 214.1 379.5 213.6 378.6 213.1C378.1 212.8 377.6 212.5 377.1 212.3L373.3 208.3C372.5 207 371.2 204.4 371.1 202.7C370.8 199 371.7 195.5 372.1 192C372.5 188.7 371.5 185.8 374.1 183.5C375.4 182.4 376.6 181.4 378.3 181.6C382.3 183.3 386.7 184.1 390.6 185.6C400.3 189.2 409.6 193.7 419.3 197.4C426.6 200.2 433.9 201.4 441.1 205.9C445.7 208.8 443.2 210.9 443.3 215.3C443.3 216.9 444.3 218.3 444.3 220C444.3 223 443 227.2 443.7 230.7C441.1 237.9 436.9 234.1 432.9 232.9C429.9 232 426.8 231.3 423.8 230.5C424.8 240.2 425.5 250.1 426.6 259.8C428.3 275.9 430.2 291.6 432.1 307.6C433.8 322.1 434.8 337 436.2 351.8C436.9 358.6 439.6 363 436 369.6C431.9 377.2 431.6 371.7 427 371.6C424.3 371.6 422.5 374 420.4 373.5C418.1 372.9 413.8 368.8 413.3 365.7C413 363.6 413.8 362.2 413.7 360.5C413.7 358.2 412.4 355.5 412.1 353.2C410.5 339.8 410.5 326.6 409.6 313.1C409 304.4 407.7 295.1 406.8 286.5C405 269.3 403.7 251.5 402.1 234.6C401.7 230.5 403.3 224 399.9 221.9C398 220.7 395.7 220.7 393.8 219.8C391.3 218.7 388.9 216.5 386.1 216.4L386.3 216.5Z" fill="black"/>
</svg>
