<svg width="156" height="129" viewBox="0 0 156 129" fill="currentColor" xmlns="http://www.w3.org/2000/svg">
<path d="M147.501 38.15C147.211 38.15 146.931 38.32 146.651 38.32C146.371 38.32 146.081 38.44 145.791 38.44C145.501 38.44 145.231 38.18 144.941 38.17C144.651 38.16 144.381 38.05 144.101 38.02C143.891 38 143.651 38.16 143.451 38.02C143.271 37.9 143.141 37.66 142.961 37.55C142.901 37.51 142.811 37.49 142.771 37.42C142.631 37.17 142.511 36.93 142.391 36.71C142.251 36.46 141.931 36.33 141.821 36.11C141.681 35.85 141.851 35.46 141.751 35.25C141.621 34.98 141.471 34.77 141.411 34.54C141.331 34.26 141.471 34.03 141.481 33.78C141.491 33.53 141.171 33.21 141.271 32.94C141.351 32.72 141.511 32.48 141.661 32.23C141.781 32.02 141.901 31.78 142.061 31.53C142.191 31.32 142.461 31.18 142.621 30.94C142.761 30.74 142.881 30.49 143.041 30.26C143.231 29.98 143.691 29.55 144.021 29.53C144.261 29.52 144.521 29.79 144.761 29.79C145.001 29.79 145.251 29.64 145.491 29.64C145.731 29.64 145.971 29.89 146.221 29.89C146.461 29.89 146.711 29.71 146.961 29.71C147.201 29.71 147.441 29.89 147.691 29.9C148.021 29.91 148.311 29.97 148.461 30.01C148.601 30.26 148.961 30.36 149.091 30.59C149.231 30.84 149.041 31.26 149.181 31.49C149.321 31.74 149.661 31.86 149.791 32.1C149.931 32.34 149.951 32.65 150.081 32.89C150.211 33.13 150.251 33.42 150.371 33.67C150.461 33.84 150.781 34.13 150.681 34.48C150.611 34.72 150.241 34.89 150.111 35.17C150.001 35.41 149.801 35.62 149.651 35.86C149.511 36.1 149.361 36.33 149.201 36.56C149.031 36.8 149.091 37.19 148.921 37.4C148.721 37.64 148.431 37.77 148.251 37.93C147.981 38.17 147.711 38.14 147.521 38.14M112.951 23.62C112.911 23.91 113.021 24.23 112.981 24.52C112.941 24.81 113.011 25.12 112.971 25.41C112.931 25.7 112.631 25.96 112.591 26.25C112.551 26.54 112.411 26.82 112.371 27.11C112.331 27.37 112.561 27.66 112.521 27.92C112.481 28.18 112.331 28.42 112.291 28.67C112.251 28.93 112.301 29.2 112.261 29.45C112.221 29.7 112.161 29.96 112.121 30.21C112.081 30.47 112.251 30.75 112.211 31.01C112.171 31.27 111.811 31.47 111.771 31.73C111.731 31.99 111.751 32.25 111.711 32.51C111.671 32.76 111.471 33 111.431 33.25C111.391 33.51 111.741 33.82 111.701 34.08C111.661 34.33 111.581 34.58 111.541 34.84C111.501 35.1 111.481 35.35 111.451 35.61C111.411 35.86 111.231 36.1 111.201 36.36C111.161 36.62 111.161 36.88 111.121 37.13C111.091 37.34 111.221 37.57 111.181 37.79C111.141 38.04 110.831 38.24 110.791 38.49C110.751 38.74 110.861 39 110.821 39.25C110.781 39.5 110.511 39.71 110.471 39.95C110.431 40.2 110.591 40.47 110.551 40.72C110.511 40.97 110.311 41.19 110.271 41.43C110.231 41.68 110.291 41.94 110.251 42.18C110.211 42.43 110.431 42.71 110.391 42.96C110.341 43.29 109.911 43.44 109.811 43.64C109.661 43.91 109.611 44.2 109.321 44.25C109.101 44.29 108.831 44.14 108.511 44.05C108.271 43.99 108.061 43.83 107.821 43.76C107.581 43.7 107.241 43.99 107.001 43.92C106.761 43.85 106.611 43.51 106.371 43.43C106.131 43.35 105.941 43.19 105.711 43.1C105.441 42.99 105.241 42.89 105.061 42.79C104.801 42.64 104.441 42.68 104.341 42.49C104.241 42.31 104.311 42.02 104.301 41.72C104.301 41.52 104.491 41.29 104.511 41C104.541 40.73 104.161 40.42 104.191 40.15C104.221 39.88 104.291 39.62 104.321 39.35C104.351 39.08 104.421 38.82 104.451 38.55C104.481 38.28 104.811 38.05 104.841 37.78H104.871C104.901 37.53 104.541 37.24 104.561 37C104.591 36.75 104.631 36.51 104.661 36.26C104.691 36.01 105.031 35.8 105.051 35.55C105.071 35.3 105.021 35.04 105.051 34.8C105.081 34.55 104.981 34.29 105.011 34.04C105.041 33.79 105.081 33.55 105.111 33.3C105.141 33.05 105.391 32.83 105.421 32.59C105.451 32.34 105.331 32.08 105.361 31.83C105.391 31.58 105.481 31.33 105.511 31.07C105.551 30.81 105.381 30.53 105.421 30.28C105.461 30.03 105.641 29.79 105.681 29.54C105.721 29.29 105.701 29.02 105.741 28.77C105.781 28.52 105.831 28.26 105.871 28.01C105.911 27.76 106.181 27.36 106.221 27.11C105.981 27.11 105.551 27.25 105.311 27.25C105.071 27.25 104.871 27.26 104.631 27.27C104.871 27.27 105.071 27.21 105.311 27.2C105.551 27.2 105.681 27.11 105.921 27.1C105.961 26.87 106.141 26.78 106.181 26.55C106.221 26.32 106.061 26.06 106.101 25.83C106.141 25.6 106.201 25.37 106.231 25.14C106.271 24.91 106.261 24.67 106.291 24.44C106.331 24.19 106.681 23.99 106.731 23.75C106.771 23.5 106.681 23.23 106.731 22.98C106.781 22.73 106.891 22.5 106.931 22.25C106.971 22 106.851 21.73 106.891 21.48C106.931 21.23 107.151 21.01 107.181 20.76C107.211 20.46 107.311 20.33 107.451 20.21C107.611 20.07 107.771 20.06 108.031 20.03C108.321 20 108.601 20.07 108.881 20.06C109.171 20.06 109.451 19.82 109.731 19.83C110.021 19.84 110.331 19.68 110.611 19.73C110.891 19.77 111.201 19.83 111.481 19.91C111.751 19.99 112.001 20.2 112.261 20.33C112.511 20.45 112.811 20.56 113.051 20.73C113.261 20.88 113.481 21.37 113.471 21.61C113.471 21.84 113.351 22.07 113.331 22.3C113.301 22.53 113.371 22.77 113.331 23C113.301 23.23 112.951 23.41 112.911 23.63M102.671 16.98C102.651 17.26 102.791 17.56 102.771 17.84C102.751 18.12 102.841 18.42 102.821 18.7C102.801 18.98 102.521 19.24 102.491 19.53C102.461 19.81 102.341 20.09 102.311 20.37C102.281 20.65 102.521 20.97 102.491 21.25C102.461 21.53 102.311 21.8 102.281 22.09C102.251 22.34 102.311 22.6 102.281 22.84C102.251 23.09 102.201 23.33 102.171 23.58C102.141 23.83 102.321 24.1 102.291 24.35C102.261 24.6 101.901 24.8 101.871 25.05C101.841 25.3 101.871 25.55 101.841 25.8C101.811 26.05 101.611 26.27 101.581 26.52C101.551 26.77 101.901 27.06 101.871 27.31H101.831C101.791 27.58 101.781 27.85 101.751 28.12C101.721 28.39 101.541 28.65 101.511 28.92C101.481 29.19 101.481 29.47 101.451 29.74C101.421 30.01 101.541 30.31 101.511 30.58C101.481 30.85 101.161 31.09 101.131 31.36C101.101 31.63 101.211 31.92 101.181 32.19C101.151 32.46 100.871 32.71 100.841 32.98C100.811 33.24 100.971 33.53 100.941 33.8C100.911 34.06 100.711 34.31 100.681 34.58C100.651 34.84 100.711 35.12 100.681 35.39C100.651 35.65 100.881 35.95 100.851 36.21C100.821 36.47 100.421 36.7 100.391 36.96C100.361 37.23 100.561 37.52 100.531 37.78H100.401C100.371 38.06 100.231 38.34 100.201 38.63C100.171 38.92 100.511 39.26 100.481 39.55C100.451 39.84 100.141 40.1 100.101 40.4C100.071 40.66 99.9209 40.87 99.7809 41.14C99.6509 41.38 99.5009 41.58 99.3109 41.8C99.1309 42.01 99.1009 42.41 98.8809 42.57C98.6509 42.74 98.3309 42.79 98.0809 42.9C97.8109 43.02 97.5209 42.9 97.2509 42.9C96.9309 42.92 96.6609 43.37 96.3409 43.41C96.0309 43.46 95.6909 43.46 95.3809 43.48C95.1009 43.5 94.8409 43.44 94.6709 43.4C94.4309 43.34 94.4609 43.01 94.3809 42.79C94.3209 42.62 94.3309 42.46 94.3209 42.18C94.3209 41.93 93.9109 41.69 93.9109 41.44C93.9109 41.19 93.9209 40.94 93.9209 40.69C93.9209 40.44 94.2409 40.19 94.2409 39.94C94.2409 39.69 94.1509 39.45 94.1509 39.2C94.1909 39.2 94.1109 39.18 94.1509 39.18C94.1409 38.95 94.1309 38.73 94.1209 38.49C94.1009 38.25 94.3109 38 94.2909 37.77C94.2709 37.51 94.1009 37.26 94.0809 36.99C94.0609 36.73 94.0809 36.46 94.0809 36.2C94.0609 35.94 93.8409 35.69 93.8209 35.43C93.8009 35.17 93.9409 34.9 93.9209 34.63C93.9109 34.37 93.8409 34.11 93.8209 33.84C93.8209 33.58 93.8209 33.31 93.8209 33.05C93.8209 32.78 94.0909 32.51 94.0909 32.24C94.0909 31.97 93.8609 31.7 93.8609 31.44C93.8609 31.17 93.8009 30.9 93.7909 30.63C93.7909 30.36 93.7809 30.09 93.7809 29.82C93.7809 29.55 93.6509 29.28 93.6509 29.01C93.6509 28.74 93.8609 28.47 93.8609 28.2C93.8609 27.93 93.7009 27.76 93.7009 27.49C93.5009 27.49 93.4409 27.54 93.2409 27.55C93.0409 27.55 92.8409 27.21 92.6409 27.21C92.8409 27.21 93.0409 27.52 93.2409 27.51C93.4409 27.51 93.6209 27.37 93.8209 27.37C93.8209 27.09 93.8909 26.83 93.8909 26.56C93.8909 26.29 93.7209 26.01 93.7209 25.73C93.7209 25.45 93.9109 25.18 93.9109 24.9C93.9109 24.63 93.9509 24.35 93.9509 24.07C93.9509 23.79 93.9709 23.52 93.9709 23.24C93.9709 22.96 94.0609 22.69 94.0609 22.41C94.0609 22.16 93.8309 21.91 93.8309 21.65C93.8309 21.4 93.6409 21.15 93.6409 20.89C93.6409 20.63 93.6209 20.38 93.6309 20.13C93.6309 19.88 93.7309 19.63 93.7309 19.37C93.7309 19.12 93.6709 18.86 93.6709 18.61C93.6709 18.36 93.7309 18.11 93.7409 17.85C93.7409 17.6 93.8509 17.35 93.8609 17.1C93.8709 16.86 93.8309 16.55 93.9109 16.3C93.9909 16.05 94.3709 15.95 94.5209 15.77C94.6909 15.57 94.6409 15.18 94.8109 14.98C94.9809 14.78 95.3909 14.79 95.5709 14.59C95.7509 14.39 95.6609 13.96 95.8409 13.77C96.0209 13.58 96.2909 13.47 96.4709 13.27C96.6509 13.08 96.9009 12.95 97.0809 12.76C97.2609 12.57 97.3309 12.27 97.5109 12.08C97.7009 11.88 98.1709 11.8 98.3509 11.88C98.6309 12 99.0309 11.87 99.3109 11.99C99.5909 12.11 99.7209 12.56 99.9809 12.71C100.251 12.86 100.541 12.95 100.771 13.15C100.951 13.31 101.131 13.48 101.291 13.67C101.451 13.85 101.621 14.03 101.771 14.23C101.911 14.43 101.901 14.73 102.031 14.94C102.161 15.15 102.561 15.19 102.691 15.4C102.811 15.61 103.001 15.88 103.051 16.14C103.101 16.39 102.731 16.68 102.711 16.92M89.3609 13.44C89.3309 13.68 89.4609 13.93 89.4409 14.17C89.4209 14.41 89.5209 14.65 89.5109 14.89C89.5009 15.13 89.2409 15.35 89.2309 15.59C89.2309 15.83 89.1209 16.06 89.1109 16.3C89.1109 16.54 89.3609 16.79 89.3509 17.02C89.3509 17.28 89.2209 17.55 89.2109 17.81C89.2009 18.07 89.2809 18.34 89.2709 18.61C89.2609 18.87 89.2309 19.14 89.2109 19.4C89.2009 19.67 89.4009 19.94 89.3909 20.21C89.3809 20.48 89.0409 20.73 89.0309 20.99C89.0209 21.26 89.0709 21.52 89.0609 21.79C89.0509 22.05 88.8709 22.31 88.8609 22.58C88.8509 22.85 89.2309 23.12 89.2209 23.39C89.2209 23.66 89.1609 23.92 89.1509 24.18C89.1509 24.44 89.1509 24.71 89.1509 24.98C89.1509 25.24 89.0009 25.51 88.9909 25.77C88.9909 26.03 89.0209 26.3 89.0209 26.57C89.0209 26.87 89.1809 27.17 89.1709 27.47C89.1709 27.73 88.8809 27.99 88.8809 28.25C88.8809 28.51 89.0209 28.77 89.0209 29.03C89.0209 29.29 88.7809 29.55 88.7809 29.81C88.7809 30.07 88.9709 30.33 88.9709 30.59C88.9709 30.85 88.8009 31.11 88.8009 31.37C88.8009 31.63 88.8909 31.89 88.8909 32.15C88.8909 32.41 89.1509 32.67 89.1509 32.93C89.1509 33.19 88.7809 33.45 88.7809 33.72C88.7809 33.98 89.0109 34.24 89.0109 34.5C89.0109 34.76 88.8909 35.02 88.8909 35.28C88.8909 35.54 88.7909 35.8 88.7909 36.06C88.7909 36.32 89.1709 36.58 89.1709 36.84C89.1709 37.1 88.8909 37.36 88.8909 37.62C88.8909 37.66 88.8109 37.7 88.8109 37.74C88.8109 38.01 88.8109 38.29 88.8109 38.56C88.8109 38.83 89.0909 39.11 89.0909 39.38C89.0909 39.65 88.9509 39.92 88.9309 40.2C88.9109 40.45 88.5609 40.65 88.3309 40.71C88.1009 40.77 87.9609 41.22 87.7309 41.25C87.4909 41.29 87.2509 41.28 87.0209 41.31C86.7709 41.34 86.5209 41.32 86.3109 41.36C85.9909 41.36 85.7809 41.03 85.6009 40.99C85.3109 40.92 85.3209 40.88 85.2409 40.61C85.1809 40.43 84.7709 40.28 84.7309 39.96C84.7009 39.72 84.6909 39.47 84.6609 39.23C84.6309 38.99 84.9009 38.7 84.8709 38.46C84.8409 38.22 84.7109 37.99 84.6809 37.74C84.6309 37.43 84.4509 37.14 84.4009 36.82C84.3509 36.51 84.3009 36.2 84.2409 35.89C84.1909 35.64 84.4009 35.39 84.4109 35.16C84.4209 34.92 84.3109 34.67 84.3609 34.43C84.4209 34.19 84.5309 33.98 84.6109 33.74C84.6809 33.51 84.5709 33.22 84.6409 32.99C84.7109 32.76 84.9209 32.57 84.9609 32.33C85.0009 32.09 85.0009 31.85 85.0609 31.62C85.1209 31.39 85.1909 31.16 85.2509 30.93C85.3109 30.7 85.6409 30.53 85.7009 30.3C85.7509 30.07 85.5909 29.78 85.6309 29.55C85.6709 29.27 85.6009 29.03 85.5209 28.8C85.4409 28.55 85.3109 28.36 85.1409 28.15C84.9809 27.96 84.7109 27.9 84.5009 27.75C84.4609 27.72 84.5409 27.52 84.5009 27.5C84.2009 27.29 83.7609 27.25 83.4709 27.03C83.2809 26.88 82.9809 26.57 82.9609 26.37C82.9209 26.12 82.8409 25.87 82.8109 25.61C82.7809 25.35 83.0509 25.06 83.0209 24.8C82.9909 24.54 82.8109 24.31 82.7809 24.05C82.7509 23.8 82.7809 23.53 82.7609 23.28C82.7309 23.02 82.5309 22.79 82.5009 22.53C82.4709 22.27 82.6309 22 82.6009 21.74C82.5709 21.48 82.5809 21.22 82.5409 20.97C82.5109 20.71 82.5009 20.46 82.4709 20.2C82.4409 19.94 82.4909 19.66 82.4609 19.4C82.4209 19.14 82.1609 18.91 82.1309 18.64C82.1009 18.38 81.8709 18.14 81.8409 17.87C81.8109 17.61 81.7709 17.34 81.7509 17.08C81.7309 16.8 81.8109 16.5 81.7909 16.22C81.7709 15.94 81.6909 15.65 81.6809 15.37C81.6709 15.09 81.7009 14.8 81.6909 14.51C81.6809 14.23 81.7609 13.94 81.7509 13.65C81.7409 13.37 81.6309 13.08 81.6209 12.8C81.6209 12.55 81.9109 12.3 81.9109 12.06C81.9109 11.81 81.6309 11.57 81.6309 11.32C81.6309 11.07 81.9409 10.82 81.9309 10.58C81.9209 10.33 81.5409 10.13 81.5009 9.88C81.4609 9.61 81.6009 9.35 81.6609 9.16C81.7309 8.95 81.9509 8.83 82.1409 8.67C82.3309 8.52 82.4309 8.25 82.6209 8.1C82.8109 7.95 83.1109 7.95 83.3109 7.81C83.5009 7.67 83.5409 7.3 83.7409 7.16C83.9409 7.02 84.3309 7.16 84.5309 7.04C84.7209 6.92 84.9809 6.89 85.2409 6.93C85.4609 6.97 85.6709 7 85.8909 7.05C86.1009 7.1 86.3309 7.12 86.5409 7.17C86.7509 7.22 86.9409 7.44 87.1509 7.49C87.4509 7.55 87.8109 7.39 88.0109 7.55C88.2309 7.72 88.5009 7.91 88.6609 8.15C88.8209 8.37 88.8809 8.67 89.0309 8.9C89.1709 9.12 89.2709 9.39 89.3609 9.61C89.4609 9.85 89.5209 10.12 89.5709 10.36C89.6309 10.61 89.5709 10.88 89.5809 11.14C89.6009 11.39 89.8209 11.65 89.8109 11.91C89.8109 12.16 89.6109 12.41 89.5809 12.67C89.5509 12.92 89.3609 13.16 89.3309 13.41M80.0909 40.89C79.8109 40.99 79.5909 41.21 79.3109 41.26C79.0209 41.31 78.7309 41.45 78.4509 41.45C78.1609 41.45 77.8909 41.18 77.6109 41.13C77.3309 41.09 77.0809 40.95 76.8009 40.88C76.5209 40.81 76.1809 40.99 75.9009 40.91C75.6109 40.82 75.3509 40.64 75.0609 40.56C74.7709 40.49 74.4509 40.51 74.1609 40.44C73.8709 40.37 73.5809 40.27 73.2909 40.19C72.9809 40.1 72.5609 40.05 72.2809 39.89C72.3209 39.79 72.5209 39.67 72.5609 39.57C72.8309 39.61 73.0609 39.6 73.3309 39.66C73.5909 39.72 73.8209 39.95 74.0809 40.02C74.3409 40.09 74.7109 39.79 74.9709 39.86C75.2309 39.93 75.4809 40.04 75.7509 40.11C76.0209 40.18 76.2809 40.21 76.5509 40.26C76.8209 40.31 77.0609 40.49 77.3309 40.52C77.6009 40.55 77.8709 40.52 78.1509 40.52C78.4209 40.52 78.6609 40.33 78.9309 40.28C79.1909 40.23 79.5209 40.44 79.7809 40.35C80.0309 40.26 80.2809 40.02 80.5309 39.88C80.7109 40.17 80.6009 40.42 80.5609 40.59C80.5209 40.77 80.4509 40.78 80.1109 40.9M75.9409 21.8C75.7209 21.67 75.5609 21.7 75.3409 21.57C75.1209 21.44 74.8409 21.42 74.6209 21.29C74.4009 21.16 74.3109 20.82 74.0909 20.7C73.8709 20.57 73.7009 20.37 73.4809 20.24C73.2609 20.11 72.9109 20.22 72.6909 20.09C72.4709 19.96 72.3109 19.74 72.1009 19.61C71.8809 19.48 71.6209 19.43 71.4109 19.3C71.2009 19.17 70.9909 19.02 70.7809 18.88C70.5509 18.74 70.2109 18.77 69.9909 18.62C69.7709 18.47 69.7309 18.05 69.5109 17.9C69.2909 17.75 69.0309 17.65 68.8109 17.5C68.5909 17.35 68.4709 17.06 68.2509 16.91C68.0309 16.76 67.5909 16.92 67.3709 16.77C67.1509 16.62 66.9509 16.43 66.7409 16.28C66.5209 16.13 66.2909 16 66.0709 15.85C65.8209 15.68 65.6409 15.41 65.3809 15.25C65.1209 15.09 64.8409 14.95 64.6209 14.75C64.4209 14.57 64.0909 13.94 64.1909 13.74C64.3209 13.5 64.7009 13.38 64.8209 13.14C64.9509 12.9 64.9509 12.58 65.0809 12.34C65.2109 12.1 65.5509 11.97 65.6809 11.72C65.8109 11.48 65.7709 11.14 65.9009 10.9C66.0309 10.66 66.3109 10.5 66.4509 10.26C66.5809 10.02 66.6409 9.73 66.7709 9.5C66.9109 9.26 66.8209 8.89 66.9609 8.65C67.1009 8.41 67.5609 8.36 67.7009 8.13C67.8509 7.89 67.8709 7.55 68.0909 7.41C68.3209 7.26 68.6209 7.28 68.9009 7.23C69.1609 7.18 69.4109 7.28 69.6809 7.32C69.9509 7.36 70.3409 7.1 70.5809 7.22C70.8209 7.35 70.8909 7.75 71.0709 7.95C71.2509 8.16 71.3709 8.42 71.5609 8.62C71.7409 8.83 71.9209 9.03 72.1009 9.24C72.2809 9.45 72.6809 9.46 72.8609 9.67C73.0409 9.88 73.1309 10.16 73.3209 10.37C73.5009 10.58 73.5309 10.91 73.7109 11.12C73.8909 11.33 74.3809 11.27 74.5609 11.48C74.7009 11.65 74.8109 11.93 74.9009 12.15C74.9909 12.37 75.0109 12.64 75.0509 12.86C75.0909 13.13 74.8209 13.44 74.8509 13.72C74.8809 13.99 74.8809 14.26 74.9109 14.54C74.9409 14.81 75.3609 15.04 75.3909 15.31C75.4209 15.58 75.4309 15.85 75.4609 16.13C75.4909 16.4 75.2209 16.71 75.2509 16.98C75.2909 17.27 75.4209 17.54 75.4709 17.83C75.5109 18.12 75.6909 18.38 75.7309 18.67C75.7809 18.96 75.8109 19.25 75.8609 19.53C75.9109 19.81 75.7409 20.14 75.7809 20.43C75.8309 20.72 76.0209 20.98 76.0609 21.27C76.0909 21.49 75.9709 21.58 75.9509 21.79M56.6009 29.12V29.3C56.8809 29.31 57.1709 29.2 57.4609 29.21C57.7409 29.21 58.0309 29.2 58.3109 29.2C58.0309 29.2 57.7509 29.1 57.4609 29.09C57.1809 29.09 56.8909 29.13 56.6109 29.12M155.061 29.79C154.941 29.54 154.681 29.37 154.551 29.14C154.421 28.9 154.181 28.73 154.041 28.51C153.901 28.28 153.951 27.92 153.791 27.7C153.631 27.48 153.521 27.2 153.351 27C153.171 26.8 152.791 26.78 152.601 26.59C152.411 26.4 152.281 26.14 152.071 25.97C151.861 25.8 151.591 25.71 151.371 25.56C151.151 25.41 150.931 25.25 150.691 25.13C150.451 25 150.131 25.08 149.881 24.98C149.641 24.88 149.501 24.48 149.241 24.4C148.991 24.32 148.701 24.31 148.441 24.26C148.181 24.2 147.931 23.99 147.661 23.96C147.401 23.93 147.101 24.29 146.821 24.28C146.561 24.27 146.291 24.22 146.021 24.21C145.761 24.21 145.491 24.21 145.211 24.21C144.951 24.21 144.681 24.06 144.411 24.05C144.151 24.05 143.881 24.08 143.601 24.07C143.341 24.07 143.061 24.22 142.791 24.21C142.521 24.21 142.261 23.92 141.991 23.91C141.731 23.91 141.451 24.05 141.181 24.04C140.911 24.04 140.651 23.79 140.381 23.79C140.111 23.79 139.841 23.98 139.571 23.97C139.301 23.97 139.041 23.79 138.771 23.79C138.501 23.79 138.231 23.88 137.961 23.87C137.691 23.87 137.421 24.12 137.151 24.12C136.881 24.12 136.621 23.74 136.351 23.74C136.081 23.74 135.811 23.96 135.541 23.96C135.271 23.96 135.001 23.83 134.731 23.83C134.461 23.83 134.191 23.72 133.921 23.72C133.651 23.72 133.381 24.09 133.111 24.09C132.841 24.09 132.571 23.81 132.301 23.81C132.031 23.81 131.761 23.73 131.491 23.73C131.221 23.73 130.951 23.73 130.681 23.73C130.411 23.73 130.141 24.01 129.871 24.01C129.601 24.01 129.331 23.88 129.061 23.88C128.791 23.88 128.521 23.68 128.251 23.68C127.981 23.68 127.711 24.09 127.441 24.09C127.171 24.09 126.901 24.05 126.631 24.05C126.361 24.05 126.091 24 125.821 24C125.551 24 125.281 23.69 125.021 23.69C124.751 23.69 124.481 23.65 124.211 23.65C123.941 23.65 123.661 24.04 123.401 24.04C123.131 24.04 122.831 24.01 122.571 24.01C122.551 23.96 122.661 23.67 122.641 23.62C122.521 23.41 122.371 23.22 122.361 22.98C122.361 22.88 122.101 22.67 121.871 22.31C121.741 22.11 121.601 21.88 121.431 21.63C121.281 21.42 121.301 21.07 121.131 20.84C120.981 20.63 120.691 20.5 120.521 20.27C120.361 20.06 120.231 19.81 120.061 19.59C119.891 19.37 119.561 19.28 119.391 19.07C119.221 18.85 119.161 18.54 119.001 18.34C118.821 18.12 118.601 17.94 118.441 17.74C118.251 17.51 118.081 17.29 117.931 17.11C117.651 16.78 117.601 16.34 117.521 16.29C117.331 16.18 117.021 16.27 116.831 16.16C116.641 16.05 116.421 15.97 116.251 15.83C116.191 15.78 115.931 15.68 115.511 15.52C115.291 15.44 114.991 15.46 114.701 15.35C114.461 15.26 114.271 14.97 114.001 14.87C113.751 14.78 113.431 14.87 113.161 14.78C112.901 14.69 112.651 14.58 112.391 14.49C112.131 14.4 111.851 14.36 111.601 14.28C111.331 14.19 111.171 13.81 110.911 13.73C110.641 13.64 110.331 13.69 110.091 13.62C109.801 13.53 109.551 13.39 109.321 13.32C108.941 13.22 108.641 13.32 108.501 13.32C108.211 13.3 108.051 13.03 107.921 12.88C107.791 12.71 107.801 12.55 107.901 12.28C107.901 12.26 107.931 12.16 107.941 12.14C107.881 12.03 107.911 11.88 107.861 11.76C107.711 11.4 107.381 11.12 107.231 10.76C107.131 10.52 106.871 10.42 106.741 10.21C106.601 10.08 106.461 9.96 106.301 9.79C106.171 9.65 106.091 9.43 105.921 9.26C105.921 9.26 105.901 9.31 105.901 9.3C105.831 9.24 105.831 9.18 105.751 9.12C105.531 8.97 105.361 8.76 105.131 8.63C104.901 8.5 104.631 8.48 104.381 8.37C104.141 8.26 103.991 7.89 103.741 7.81C103.481 7.72 103.141 7.92 102.881 7.85C102.621 7.78 102.431 7.41 102.161 7.36C101.901 7.31 101.571 7.61 101.301 7.58C101.031 7.54 100.781 7.39 100.511 7.37C100.241 7.35 99.9809 7.24 99.7109 7.24C99.4409 7.24 99.1709 7.39 98.9109 7.41C98.6409 7.42 98.3609 7.26 98.0909 7.29C97.8209 7.32 97.5909 7.63 97.3309 7.67C97.0709 7.71 96.7409 7.43 96.4709 7.49C96.2109 7.55 95.9609 7.71 95.7009 7.78C95.4409 7.85 95.1809 7.95 94.9309 8.03C94.6809 8.12 94.4309 8.24 94.1809 8.35C93.9309 8.45 93.6009 8.4 93.3609 8.52C93.2609 8.57 93.1509 8.76 93.1109 8.69C93.0709 8.68 92.9209 8.63 92.9109 8.58C92.8209 8.33 92.8109 8.04 92.7109 7.79C92.6109 7.54 92.5509 7.27 92.4409 7.03C92.3309 6.78 92.2409 6.53 92.1209 6.28C92.0009 6.04 91.9609 5.75 91.8209 5.52C91.6809 5.29 91.3609 5.18 91.2009 4.96C91.0309 4.72 90.9909 4.38 90.7909 4.16C90.5909 3.94 90.3209 3.8 90.0909 3.61C89.8609 3.42 89.7309 3.07 89.4709 2.93C89.2109 2.79 88.8009 3.01 88.5209 2.92C88.2509 2.84 88.0209 2.73 87.7409 2.68C87.4609 2.64 87.2209 2.29 86.9409 2.27C86.6609 2.26 86.3709 2.32 86.0909 2.32C85.8109 2.32 85.5209 2.31 85.2509 2.32C85.0009 2.33 84.7809 2.67 84.5309 2.69C84.2809 2.71 84.0309 2.63 83.7909 2.66C83.5409 2.69 83.3009 2.71 83.0509 2.75C82.8109 2.79 82.6009 2.99 82.3609 3.04C82.1209 3.09 81.8009 2.83 81.5609 2.89C81.3109 2.96 81.1309 3.27 80.8809 3.36C80.6309 3.44 80.3909 3.52 80.1609 3.64C79.9209 3.75 79.6009 3.7 79.3809 3.85C79.1609 4 78.9809 4.2 78.8009 4.39C78.7309 4.46 78.7309 4.35 78.6609 4.29C78.4509 4.12 78.2309 3.98 78.0309 3.8C77.8309 3.62 77.5209 3.55 77.3309 3.36C77.1509 3.17 77.0909 2.85 76.9109 2.65C76.7509 2.47 76.5609 2.33 76.3909 2.16C76.2309 1.99 75.9209 1.98 75.7509 1.82C75.5709 1.66 75.5209 1.37 75.3209 1.24C75.1009 1.1 74.9109 0.89 74.6709 0.79C74.4309 0.68 74.1609 0.66 73.9109 0.59C73.6609 0.52 73.4109 0.46 73.1609 0.4C72.8609 0.33 72.5709 0.18 72.2709 0.14C71.9709 0.11 71.6509 0 71.3409 0C71.0409 0 70.7409 0.34 70.4409 0.37C70.1809 0.39 69.9109 0.34 69.6609 0.38C69.4009 0.43 69.1209 0.38 68.8709 0.44C68.6209 0.51 68.4109 0.71 68.1609 0.8C67.9209 0.89 67.6409 0.89 67.4009 1C67.1609 1.11 66.9309 1.24 66.7109 1.36C66.4809 1.48 66.3709 1.81 66.1509 1.94C65.9309 2.07 65.6309 2.08 65.4209 2.23C65.2209 2.37 64.9909 2.49 64.7709 2.67C64.5809 2.83 64.3509 2.97 64.1509 3.16C63.9609 3.33 63.9309 3.67 63.7409 3.87C63.5609 4.05 63.2909 4.16 63.1109 4.35C62.9309 4.54 62.8609 4.83 62.6909 5.03C62.5209 5.22 62.2809 5.36 62.1009 5.56C61.9309 5.76 61.5509 5.78 61.3809 5.99C61.2109 6.19 61.0509 6.41 60.8909 6.61C60.7209 6.82 60.6609 7.11 60.4909 7.31C60.3209 7.52 60.1909 7.75 60.0309 7.96C59.8609 8.17 59.7709 8.43 59.6109 8.63C59.4509 8.85 59.3009 9.07 59.1509 9.27C58.9909 9.49 58.9409 9.79 58.8009 9.99C58.6309 10.22 58.4709 10.42 58.3309 10.62C58.1609 10.86 57.8309 10.96 57.7109 11.15C57.4809 11.5 57.4609 11.78 57.4309 11.86C57.3609 12.05 57.2809 12.23 57.2209 12.42C57.1509 12.61 56.9209 12.74 56.8609 12.93C56.7809 13.18 56.8409 13.47 56.7609 13.72C56.7509 13.75 56.6609 13.76 56.6409 13.79C56.5409 14.08 56.2409 14.31 56.1509 14.61C56.0609 14.91 56.1509 15.25 56.0709 15.55C56.0009 15.84 55.7909 16.11 55.7509 16.4C55.7109 16.69 55.8709 17.02 55.8709 17.32C55.8709 17.52 55.8109 17.76 55.8509 17.96C55.9009 18.17 56.1909 18.21 56.3209 18.37C56.3709 18.37 56.1409 18.77 56.0009 19.12C55.9209 19.3 55.6709 19.48 55.6809 19.72C55.6809 20.01 55.6209 20.32 55.6309 20.61C55.6409 20.91 55.9709 21.2 55.9609 21.5C55.9609 21.8 55.8109 22.09 55.7609 22.38C55.7609 22.38 55.7209 22.2 55.7209 22.21C55.4609 22.21 55.2009 22.21 54.9409 22.21C54.6809 22.21 54.4109 22.37 54.1509 22.37C53.8909 22.37 53.6209 22.54 53.3609 22.53C53.1009 22.53 52.8409 22.32 52.5809 22.31C52.3209 22.31 52.0509 22.52 51.7909 22.51C51.5309 22.51 51.2709 22.36 51.0109 22.36C50.7509 22.36 50.4909 22.11 50.2309 22.1C49.9709 22.1 49.7009 22.52 49.4409 22.51C49.1809 22.51 48.9209 22.12 48.6609 22.11C48.4009 22.11 48.1309 22.32 47.8709 22.31C47.6109 22.31 47.3409 22.46 47.0809 22.46C46.8209 22.46 46.5609 22.43 46.3009 22.42C46.0409 22.42 45.7809 22.42 45.5209 22.42C45.2609 22.42 45.0009 22.32 44.7409 22.32C44.4809 22.32 44.2209 22.14 43.9609 22.14C43.7009 22.14 43.4309 22.41 43.1709 22.41C42.9109 22.41 42.6509 22.34 42.3909 22.33C42.1309 22.33 41.8709 22.33 41.6109 22.33C41.3509 22.33 41.1009 21.97 40.8409 21.96C40.5409 21.96 40.2809 21.85 39.9709 21.71C39.6609 21.57 39.2009 21.65 38.9909 21.43C38.8109 21.24 38.8409 20.84 38.6509 20.65C38.4709 20.46 38.0109 20.53 37.8309 20.34C37.6509 20.15 37.6609 19.77 37.4709 19.58C37.2909 19.39 37.1409 19.16 36.9609 18.97C36.7809 18.78 36.3509 18.82 36.1709 18.63C35.9909 18.44 36.1309 17.94 35.9509 17.75C35.7709 17.56 35.4009 17.54 35.2209 17.35C35.0409 17.16 34.7909 17.02 34.6109 16.83C34.4309 16.64 34.1709 16.51 33.9909 16.32C33.8109 16.13 33.7809 15.79 33.6009 15.6C33.4209 15.41 33.4109 15.06 33.2209 14.86C33.0409 14.67 32.6109 14.7 32.4309 14.51C32.2509 14.32 32.0109 14.18 31.8309 13.98C31.6509 13.79 31.7609 13.32 31.5809 13.12C31.4009 12.93 31.2009 12.75 31.0209 12.55C30.8409 12.36 30.6209 12.2 30.4409 12C30.2609 11.81 30.1009 11.59 29.9209 11.4C29.7409 11.2 29.4809 11.09 29.3009 10.89C29.0909 10.67 28.7909 10.62 28.5709 10.47C28.3309 10.32 28.1509 10.11 27.8709 10.04C27.6209 9.97 27.3409 9.87 27.0409 9.86C26.7809 9.86 26.5209 9.78 26.2509 9.77C25.9909 9.77 25.7209 10.04 25.4609 10.04C25.2009 10.04 24.9409 9.92 24.6709 9.91C24.4109 9.91 24.1509 9.69 23.8909 9.68C23.6309 9.67 23.3609 9.74 23.1009 9.74C22.8409 9.74 22.5709 9.91 22.3109 9.91C22.0509 9.91 21.7909 9.81 21.5209 9.81C21.2609 9.81 20.9909 10.03 20.7309 10.03C20.4709 10.03 20.2109 9.74 19.9509 9.74C19.6909 9.74 19.4209 10.03 19.1609 10.02C18.9009 10.02 18.6409 9.78 18.3809 9.78C18.1209 9.78 17.8509 10.02 17.5909 10.02C17.3309 10.02 17.0709 9.71 16.8109 9.7C16.5509 9.7 16.2809 9.7 16.0209 9.7C15.7609 9.7 15.4909 9.84 15.2309 9.83C14.9709 9.83 14.7109 9.89 14.4409 9.88C14.1809 9.88 13.9209 9.63 13.6509 9.63C13.3909 9.63 13.1209 9.92 12.8609 9.92C12.6009 9.92 12.3409 9.79 12.0709 9.78C11.8109 9.78 11.5509 9.64 11.2809 9.64C11.0209 9.64 10.7609 9.56 10.4909 9.56C10.2209 9.56 9.89094 9.69 9.61094 9.81C9.33094 9.93 9.00094 10.06 8.80094 10.24C8.60094 10.43 8.52094 10.74 8.32094 10.92C8.12094 11.11 7.96094 11.34 7.77094 11.53C7.57094 11.72 7.20094 11.72 7.00094 11.91C6.80094 12.1 6.62094 12.3 6.42094 12.49C6.22094 12.68 6.11094 12.96 5.91094 13.14C5.71094 13.33 5.62094 13.62 5.42094 13.81C5.22094 14 5.09094 14.25 4.89094 14.44C4.69094 14.63 4.29094 14.61 4.09094 14.8C3.89094 14.99 3.81094 15.3 3.62094 15.49C3.42094 15.68 3.30094 15.95 3.11094 16.14C2.91094 16.33 2.74094 16.55 2.55094 16.74C2.35094 16.93 1.91094 16.87 1.72094 17.06C1.52094 17.25 1.47094 17.59 1.27094 17.78C1.11094 17.93 0.760938 17.91 0.580938 18.13C0.450938 18.29 0.610937 18.53 0.430937 18.75C0.750937 18.77 0.870937 18.89 1.10094 18.91C1.41094 18.93 1.66094 18.83 1.90094 18.84C2.17094 18.84 2.44094 19.06 2.71094 19.06C2.98094 19.06 3.25094 19.11 3.52094 19.12C3.79094 19.12 4.07094 18.8 4.34094 18.81C4.61094 18.81 4.88094 18.93 5.15094 18.94C5.42094 18.94 5.70094 18.8 5.97094 18.8C6.24094 18.8 6.51094 18.98 6.78094 18.98C7.05094 18.98 7.32094 19.26 7.59094 19.26C7.86094 19.26 8.13094 19.22 8.40094 19.22C8.67094 19.22 8.94094 19.13 9.22094 19.14C9.49094 19.14 9.77094 18.85 10.0409 18.86C10.3109 18.86 10.5809 19.29 10.8509 19.3C11.1209 19.3 11.4009 19 11.6709 19C11.9409 19 12.2109 19.32 12.4809 19.32C12.7509 19.32 13.0209 19.24 13.3009 19.24C13.5709 19.24 13.8409 19.12 14.1209 19.13C14.3909 19.13 14.6609 18.99 14.9409 18.99C15.2109 18.99 15.4809 19.18 15.7509 19.18C16.0109 19.18 16.2909 19 16.5109 19.04C16.7609 19.08 17.0109 19.22 17.2309 19.31C17.4509 19.41 17.6109 19.66 17.8009 19.81C17.9809 19.96 18.2209 20.08 18.3809 20.28C18.5209 20.46 18.5009 20.77 18.6209 20.99C18.7509 21.23 19.0009 21.4 19.1209 21.64C19.2509 21.88 19.1609 22.23 19.2909 22.47C19.4209 22.71 19.5509 22.94 19.6809 23.18C19.8109 23.42 20.3009 23.46 20.4309 23.69C20.5609 23.93 20.3309 24.36 20.4609 24.6C20.5909 24.84 20.7909 25.04 20.9209 25.27C21.0509 25.51 21.4009 25.62 21.5309 25.85C21.6609 26.09 21.5309 26.47 21.6509 26.71C21.7809 26.95 21.9209 27.18 22.0509 27.41C22.1809 27.65 22.2609 27.91 22.3909 28.15C22.5209 28.39 22.8209 28.53 22.9509 28.76C23.0809 29 23.2609 29.2 23.4009 29.44C23.5309 29.67 23.6009 29.94 23.7409 30.18C23.8709 30.4 24.1009 30.57 24.1809 30.78C24.2709 31.02 24.1809 31.29 24.2209 31.52C24.2509 31.76 24.3509 32 24.3209 32.24C24.2909 32.47 23.9809 32.62 23.8909 32.85C23.8109 33.06 23.8609 33.33 23.7209 33.55C23.5809 33.78 23.4809 34.04 23.3409 34.27C23.2009 34.5 22.9509 34.66 22.8009 34.89C22.6609 35.12 22.4609 35.31 22.3209 35.54C22.1809 35.77 22.0109 35.99 21.8709 36.22C21.7309 36.45 21.8709 36.85 21.7309 37.08C21.5909 37.31 21.4409 37.53 21.3009 37.76C21.1609 37.99 20.8609 38.12 20.7209 38.35C20.5809 38.58 20.3809 38.78 20.2409 39.01C20.1009 39.24 20.2409 39.64 20.1109 39.87C19.9709 40.1 19.8509 40.34 19.7109 40.57C19.5709 40.8 19.5109 41.08 19.3709 41.31C19.2309 41.54 18.9909 41.71 18.8509 41.94C18.7109 42.17 18.6609 42.45 18.5309 42.69C18.4009 42.92 17.9309 42.9 17.7809 43.08C17.6109 43.28 17.6409 43.67 17.4509 43.81C17.2509 43.96 17.0209 44.14 16.7809 44.23C16.5509 44.32 16.2409 44.15 15.9809 44.18C15.7409 44.21 15.5109 44.17 15.2409 44.16C14.9709 44.16 14.7109 44.09 14.4409 44.08C14.1709 44.08 13.9009 44.43 13.6309 44.42C13.3609 44.42 13.1009 44.27 12.8309 44.27C12.5609 44.27 12.3009 44.24 12.0309 44.24C11.7609 44.24 11.5009 44.06 11.2309 44.05C10.9609 44.05 10.6909 44.19 10.4309 44.19C10.1609 44.19 9.89094 44.41 9.63094 44.4C9.36094 44.4 9.10094 44.35 8.83094 44.35C8.56094 44.35 8.30094 44.05 8.04094 44.05C7.77094 44.05 7.51094 43.94 7.24094 43.93C6.97094 43.93 6.71094 44.01 6.44094 44.01C6.17094 44.01 5.91094 44.01 5.64094 44.01C5.37094 44.01 5.10094 44.19 4.84094 44.19C4.57094 44.19 4.31094 44.15 4.04094 44.14C3.77094 44.14 3.51094 44.12 3.24094 44.12C2.97094 44.12 2.70094 44.31 2.44094 44.31C2.17094 44.31 1.91094 44.03 1.64094 44.03C1.37094 44.03 1.10094 43.91 0.780937 43.92C0.530937 43.92 0.290938 44.1 -0.0390625 44.1C0.250937 44.56 0.330938 44.71 0.460938 44.85C0.640938 45.03 0.940937 45.1 1.11094 45.29C1.29094 45.47 1.49094 45.64 1.66094 45.82C1.83094 46 1.81094 46.38 1.99094 46.57C2.17094 46.75 2.54094 46.75 2.72094 46.93C2.90094 47.11 2.84094 47.52 3.02094 47.7C3.20094 47.88 3.43094 48.01 3.61094 48.2C3.79094 48.38 3.84094 48.69 4.01094 48.88C4.19094 49.06 4.64094 48.99 4.82094 49.17C5.00094 49.35 5.00094 49.71 5.17094 49.89C5.35094 50.07 5.68094 50.1 5.86094 50.29C6.04094 50.47 6.18094 50.69 6.36094 50.87C6.54094 51.05 6.48094 51.47 6.66094 51.65C6.84094 51.83 7.30094 51.74 7.48094 51.92C7.66094 52.1 7.73094 52.39 7.91094 52.57C8.09094 52.75 8.22094 52.99 8.40094 53.17C8.56094 53.33 8.81094 53.5 9.08094 53.57C9.33094 53.65 9.62094 53.72 9.85094 53.72C10.1109 53.72 10.3809 53.76 10.6409 53.77C10.9009 53.77 11.1709 53.66 11.4409 53.66C11.7009 53.66 11.9709 53.47 12.2409 53.48C12.5009 53.48 12.7609 53.64 13.0309 53.65C13.2909 53.65 13.5609 53.56 13.8209 53.57C14.0809 53.57 14.3409 53.8 14.6109 53.8C14.8709 53.8 15.1409 53.53 15.4109 53.54C15.6709 53.54 15.9309 53.89 16.2009 53.89C16.4609 53.89 16.7309 53.79 16.9909 53.79C17.2509 53.79 17.5209 53.58 17.7909 53.59C18.0509 53.59 18.3209 53.74 18.5809 53.74C18.8409 53.74 19.1109 53.69 19.3709 53.7C19.6409 53.7 19.9009 53.85 20.1609 53.86C20.4309 53.86 20.6909 53.92 20.9509 53.92C21.2109 53.92 21.4809 53.78 21.7409 53.79C22.0009 53.79 22.2709 53.79 22.5309 53.79C22.7909 53.79 23.0609 54.02 23.3209 54.03C23.5809 54.03 23.8509 53.76 24.1209 53.77C24.3809 53.77 24.6509 53.82 24.9109 53.82C25.1709 53.82 25.4409 54.03 25.7009 54.03C25.9609 54.03 26.2309 53.94 26.4909 53.94C26.7909 53.94 27.0509 53.63 27.3709 53.49C27.6809 53.36 27.9709 53.26 28.1809 53.05C28.3709 52.86 28.6909 52.81 28.8909 52.63C29.0809 52.44 29.2109 52.2 29.4009 52.01C29.5909 51.82 29.6709 51.52 29.8609 51.34C30.0509 51.15 30.3309 51.05 30.5209 50.87C30.7109 50.68 30.8009 50.39 30.9909 50.21C31.1809 50.02 31.4809 49.95 31.6709 49.76C31.8609 49.57 32.1309 49.47 32.3209 49.28C32.5109 49.09 32.7309 48.94 32.9209 48.75C33.1109 48.56 33.2209 48.29 33.4109 48.11C33.6009 47.92 33.6409 47.58 33.8309 47.4C34.0209 47.21 34.5209 47.34 34.7109 47.15C34.9009 46.96 35.0609 46.74 35.2409 46.55C35.4309 46.36 35.6409 46.2 35.8309 46.01C36.0209 45.82 36.2109 45.63 36.3909 45.44C36.5809 45.25 36.6809 44.98 36.8609 44.79C37.0509 44.6 37.2309 44.4 37.4109 44.21C37.6009 44.02 37.8209 43.87 38.0109 43.67C38.2009 43.47 38.3409 43.27 38.5409 43.11C38.7509 42.94 38.9409 42.77 39.1609 42.65C39.3909 42.53 39.6509 42.51 39.9009 42.44C40.1409 42.37 40.3709 42.28 40.6409 42.25C40.8909 42.23 41.1409 42.33 41.4109 42.34C41.7209 42.35 42.0109 42.18 42.2709 42.19C42.5909 42.2 42.8709 42.12 43.1309 42.13C43.4609 42.15 43.7509 42.26 43.9909 42.27C43.8809 42.46 43.7809 42.75 43.6309 43.01C43.5009 43.23 43.3609 43.47 43.2109 43.7C43.0609 43.94 42.9609 44.21 42.8309 44.41C42.6509 44.69 42.5409 44.88 42.4109 45.02C42.4509 45.29 42.2709 45.56 42.3709 45.81C42.4709 46.06 42.5609 46.33 42.6809 46.57C42.8009 46.81 42.9109 47.05 43.0109 47.3C43.0609 47.42 43.0609 47.69 43.1509 47.77C43.3509 47.95 43.6209 48.04 43.8209 48.22C44.0209 48.4 44.1409 48.66 44.3409 48.84C44.5409 49.02 44.8109 49.12 45.0009 49.3C45.2009 49.48 45.5109 49.54 45.7109 49.71C45.9109 49.89 46.0809 50.1 46.2809 50.27C46.4909 50.45 46.7409 50.58 46.9509 50.76C47.1609 50.94 47.3409 51.15 47.5509 51.33C47.7609 51.51 47.9109 51.76 48.1209 51.94C48.3309 52.12 48.5109 52.33 48.7209 52.51L49.3409 53.05C49.5509 53.23 49.6809 53.5 49.8909 53.68C50.1009 53.86 50.3709 53.97 50.5809 54.15C50.7609 54.31 50.9109 54.52 51.1009 54.68C51.2809 54.84 51.7109 54.74 51.8909 54.91C52.0709 55.08 52.1309 55.38 52.2909 55.56C52.3209 55.59 52.4909 55.82 52.7609 56.08C52.9109 56.23 53.0109 56.48 53.1909 56.65C53.3709 56.82 53.6409 56.88 53.8009 57.03C54.0409 57.25 54.0909 57.61 54.1609 57.68C54.3509 57.85 54.6909 57.85 54.8809 58.01C55.0709 58.18 55.3609 58.23 55.5609 58.39C55.7509 58.56 55.9709 58.69 56.1609 58.86C56.3509 59.03 56.3709 59.39 56.5609 59.56C56.7509 59.73 56.9109 59.92 57.1009 60.1C57.2909 60.27 57.5009 60.41 57.6809 60.59C57.8609 60.76 58.1409 60.85 58.3609 61.06C58.5409 61.24 58.6709 61.5 58.8709 61.7C59.0609 61.88 59.2209 62.11 59.4209 62.31C59.6109 62.49 60.0609 62.42 60.2609 62.62C60.4509 62.81 60.5409 63.11 60.7409 63.3C60.9309 63.49 61.2209 63.58 61.4209 63.77C61.6209 63.96 61.7409 64.23 61.9309 64.42C62.1309 64.61 62.3509 64.78 62.5409 64.97C62.7409 65.16 62.9509 65.34 63.1409 65.53C63.3409 65.72 63.5709 65.88 63.7609 66.07C63.9709 66.27 64.1609 66.46 64.3409 66.64C64.5509 66.84 64.7409 67.05 64.9209 67.23C65.1409 67.45 65.2209 67.77 65.3809 67.93C65.7509 68.28 65.8109 68.08 66.0909 68.37C66.0809 68.37 65.9809 68.45 65.9609 68.45C66.1409 68.62 66.2509 68.85 66.4009 69.04C66.5509 69.23 66.7609 69.39 66.8809 69.6C67.0009 69.81 66.9209 70.11 67.0009 70.34C67.0809 70.57 67.3709 70.74 67.4109 70.99C67.4509 71.23 67.4809 71.49 67.4909 71.73C67.4909 72 67.2009 72.23 67.1509 72.49C67.1109 72.75 67.1409 73.02 67.0509 73.27C67.0509 73.55 67.0009 73.85 67.0009 74.13C67.0009 74.4 67.3009 74.68 67.2909 74.95C67.2909 75.22 66.9609 75.48 66.9509 75.75C66.9409 76.02 67.2809 76.31 67.2709 76.58C67.2609 76.85 66.8209 77.1 66.8109 77.37C66.8009 77.64 66.8109 77.91 66.8009 78.18C66.7809 78.44 66.7409 78.69 66.7209 78.95C66.7009 79.21 66.7209 79.47 66.6909 79.72C66.6709 79.98 66.8309 80.25 66.8109 80.51C66.7909 80.77 66.8309 81.03 66.8109 81.29C66.7909 81.55 66.7109 81.8 66.6909 82.06C66.6909 82.06 66.5209 82.36 66.4909 82.86C66.4809 83.1 66.3909 83.37 66.3709 83.68C66.3509 83.94 66.5909 84.23 66.5809 84.52C66.5609 84.79 66.2909 85.05 66.2709 85.33C66.2509 85.6 66.3209 85.89 66.3009 86.16C66.2809 86.44 66.2309 86.71 66.2109 86.98C66.1909 87.27 66.3309 87.55 66.3109 87.81C66.2909 88.11 66.2109 88.39 66.1909 88.63C66.1709 88.99 66.1909 89.28 66.1709 89.45C66.1509 89.72 66.1609 89.99 66.1309 90.26C66.1009 90.53 65.9409 90.78 65.9109 91.05C65.8809 91.32 66.1309 91.61 66.1009 91.88C66.0709 92.15 66.0809 92.42 66.0509 92.69C66.0509 92.76 66.0209 93.04 65.9709 93.43C65.9509 93.64 65.9409 93.9 65.9109 94.16C65.8809 94.39 65.6709 94.62 65.6409 94.87C65.6109 95.11 65.6809 95.37 65.6509 95.62C65.6209 95.87 65.4209 96.1 65.3909 96.34C65.3609 96.6 65.2809 96.85 65.2609 97.07C65.2309 97.37 65.3409 97.64 65.3309 97.82C65.3109 98.1 65.2109 98.36 65.1909 98.64C65.1709 98.91 65.3009 99.19 65.2809 99.47C65.2609 99.74 65.1509 100.01 65.1409 100.28C65.1209 100.55 65.2609 100.84 65.2409 101.11C65.2209 101.38 65.2109 101.65 65.1909 101.93C65.1709 102.2 65.0709 102.47 65.0509 102.74C65.0309 103.01 65.0909 103.29 65.0709 103.56C65.0509 103.83 64.9809 104.1 64.9609 104.37C64.9509 104.56 64.7909 104.76 64.8109 104.95C64.8209 105.08 64.8709 105.36 64.8209 105.74C64.7909 105.97 64.8909 106.26 64.8509 106.55C64.8209 106.8 64.8909 107.08 64.8509 107.36C64.8109 107.62 64.4209 107.84 64.3809 108.11C64.3409 108.38 64.2109 108.63 64.1709 108.9C64.1309 109.17 64.3309 109.47 64.3009 109.73C64.2709 110.01 64.2009 110.28 64.1809 110.53C64.1509 110.85 64.3509 111.13 64.3509 111.34C64.3509 111.59 64.1909 111.84 64.1709 112.09C64.1509 112.34 64.2209 112.59 64.2009 112.85C64.1809 113.09 64.0809 113.33 64.0609 113.6C64.0809 113.63 64.2409 113.66 64.2409 113.7C64.2409 113.94 63.9209 114.21 63.9109 114.51C63.9009 114.77 64.1009 115.05 64.0909 115.34C64.0709 115.61 63.7809 115.86 63.7609 116.14C63.7409 116.42 63.8009 116.7 63.7809 116.96C63.7609 117.24 63.9409 117.54 63.9209 117.8C63.8909 118.1 63.7409 118.37 63.7209 118.61C63.6809 119.05 63.6409 119.36 63.6309 119.42C63.6109 119.68 63.8509 119.95 63.8309 120.21C63.8109 120.47 63.4509 120.7 63.4309 120.96C63.4109 121.22 63.5809 121.49 63.5609 121.75C63.5409 122.01 63.2809 122.25 63.2609 122.51C63.2409 122.77 63.2709 123.03 63.2609 123.29C63.2409 123.56 63.4909 123.73 63.6109 123.91C63.7209 124.08 63.7609 124.39 64.0109 124.51C64.2509 124.62 64.5509 124.57 64.7909 124.67C65.0309 124.78 65.2809 124.86 65.5109 124.97C65.7409 125.08 66.0409 125.07 66.2709 125.18C66.5009 125.29 66.7409 125.4 66.9809 125.51C67.2109 125.62 67.3809 125.88 67.6109 126C67.8409 126.11 68.0609 126.27 68.2909 126.38C68.5309 126.49 68.7509 126.62 68.9909 126.72C69.2509 126.84 69.4909 127 69.7509 127.11C70.0109 127.23 70.3809 127.1 70.6409 127.21C70.9009 127.32 71.1509 127.45 71.4209 127.56C71.6809 127.67 71.8209 128.07 72.0809 128.19C72.3409 128.3 72.7209 128.13 72.9809 128.25C73.2409 128.37 73.4209 128.66 73.6809 128.77C74.0309 128.92 74.1509 128.77 74.2909 128.65C74.4309 128.51 74.7509 128.36 74.7309 128.05C74.7209 127.79 74.6509 127.54 74.6409 127.28C74.6309 127.02 74.4209 126.77 74.4109 126.52C74.4009 126.26 74.2709 126.01 74.2609 125.75C74.2509 125.49 74.5109 125.22 74.5009 124.96C74.4909 124.7 74.5209 124.44 74.5009 124.18C74.4909 123.92 74.3409 123.67 74.3309 123.42C74.3209 123.16 74.2209 122.91 74.2109 122.65C74.2009 122.39 74.2809 122.13 74.2709 121.87C74.2609 121.61 74.4909 121.34 74.4709 121.09C74.4609 120.83 74.4409 120.57 74.4309 120.3C74.4309 120.04 73.9809 119.78 73.9809 119.51C73.9809 119.24 74.4209 118.99 74.4309 118.73C74.4309 118.47 74.0709 118.2 74.0809 117.94C74.0909 117.68 74.1509 117.42 74.1609 117.16C74.1709 116.9 74.2709 116.65 74.2909 116.39C74.3009 116.13 74.5109 115.88 74.5209 115.62C74.5309 115.36 74.3509 115.09 74.3609 114.83C74.3609 114.56 74.2109 114.3 74.2109 114.03C74.2109 113.76 74.6209 113.49 74.6209 113.23C74.6209 112.96 74.5709 112.7 74.5709 112.43C74.5709 112.16 74.3209 111.9 74.3209 111.63C74.3209 111.36 74.3809 111.1 74.3909 110.83C74.4009 110.56 74.3509 110.28 74.3709 110.01C74.3909 109.74 74.6409 109.48 74.6609 109.21C74.6809 108.94 74.3309 108.64 74.3609 108.37C74.3809 108.1 74.4009 107.83 74.4209 107.56C74.4409 107.29 74.4709 107.02 74.4909 106.75C74.5009 106.48 74.5209 106.21 74.5309 105.94C74.5309 105.68 74.7909 105.42 74.7909 105.15C74.7909 104.89 74.9209 104.62 74.9309 104.36C74.9309 104.1 74.7309 103.83 74.7409 103.56C74.7409 103.3 74.7809 103.03 74.7809 102.77C74.7809 102.51 74.7809 102.24 74.7809 101.98C74.7809 101.72 74.8109 101.45 74.8209 101.19C74.8209 100.93 74.9309 100.66 74.9409 100.4C74.9409 100.14 75.0509 99.87 75.0509 99.61C75.0509 99.35 75.0309 99.08 75.0409 98.82C75.0409 98.56 74.9109 98.29 74.9209 98.03C74.9209 97.77 74.9109 97.5 74.9109 97.24C74.9109 96.98 75.0809 96.71 75.0909 96.45C75.0909 96.19 74.9609 95.92 74.9609 95.66C74.9609 95.4 74.8109 95.13 74.8109 94.87C74.8109 94.61 74.7609 94.34 74.7609 94.08C74.7609 93.82 75.0209 93.55 75.0309 93.29C75.0309 93.03 75.1509 92.78 75.1509 92.52C75.1509 92.26 74.9809 92 74.9809 91.75C74.9809 91.49 74.8709 91.23 74.8709 90.98C74.8709 90.72 75.0009 90.47 75.0009 90.21C75.0009 89.95 74.7209 89.69 74.7209 89.44V88.67C74.7209 88.41 74.8709 88.16 74.8609 87.9C74.8609 87.64 75.0309 87.38 75.0309 87.13C75.0309 86.87 75.0709 86.61 75.0709 86.36C75.0709 86.11 75.0109 85.85 75.0109 85.59C75.0109 85.33 75.0409 85.08 75.0409 84.82C75.0409 84.55 74.9009 84.27 74.9009 84C74.9009 83.73 74.8509 83.45 74.8409 83.18C74.8409 82.91 75.0509 82.63 75.0509 82.36C75.0509 82.09 74.7709 81.82 74.7609 81.54C74.7609 81.27 74.6709 80.99 74.6709 80.72C74.6709 80.45 74.7609 80.17 74.7509 79.9C74.7509 79.63 74.9009 79.35 74.9009 79.08C74.9009 78.81 74.6009 78.54 74.6009 78.26C74.6009 77.99 74.8009 77.71 74.8009 77.44C74.8009 77.17 74.7409 76.89 74.7409 76.62C74.7409 76.31 75.0909 75.93 75.3409 75.8C75.5609 75.69 75.7509 75.52 75.9709 75.41C76.1909 75.3 76.4509 75.27 76.6709 75.16C76.8909 75.06 77.0609 74.82 77.2809 74.72C77.5109 74.62 77.6709 74.37 77.8909 74.27C78.1209 74.17 78.3409 74.06 78.5709 73.96C78.8609 73.83 79.2609 73.9 79.4909 73.7C79.7309 73.49 79.6809 73.21 79.6809 72.86C79.6809 72.63 79.9409 72.3 79.8409 72.04C79.7309 71.76 79.4809 71.51 79.2909 71.4C79.0609 71.27 78.9009 71.04 78.6809 70.91C78.4609 70.77 78.1809 70.73 77.9709 70.58C77.7509 70.43 77.3909 70.48 77.1909 70.32C76.9909 70.16 76.7709 70 76.5709 69.83C76.3709 69.66 76.2209 69.42 76.0309 69.25C75.8409 69.08 75.8009 68.73 75.6109 68.55C75.4209 68.37 75.2209 68.2 75.0409 68.02C74.8509 67.84 74.4309 67.89 74.2509 67.71C74.0709 67.53 74.1409 67.09 73.9609 66.9C73.7809 66.71 73.3309 66.78 73.1509 66.59C72.9709 66.4 72.8809 66.13 72.7009 65.94C72.5209 65.75 72.2609 65.65 72.0809 65.46C71.9009 65.27 71.8109 65 71.6309 64.82C71.4509 64.63 71.5009 64.24 71.3209 64.05C71.1409 63.86 70.9609 63.68 70.7809 63.49C70.6009 63.3 70.2209 63.31 70.0409 63.11C69.8609 62.92 69.6409 62.77 69.4709 62.58C69.3009 62.39 69.1909 62.14 69.0109 61.95C68.8409 61.76 68.8509 61.4 68.6809 61.21C68.5109 61.02 68.2509 60.9 68.0809 60.71C67.9109 60.52 67.7109 60.35 67.5409 60.16C67.3709 59.97 67.1809 59.79 67.0109 59.6C66.8309 59.41 66.7809 59.1 66.6109 58.92C66.4309 58.73 65.9409 58.83 65.7709 58.65C65.5909 58.46 65.4909 58.2 65.3209 58.01C65.1409 57.82 65.1109 57.47 64.9309 57.28C64.7509 57.09 64.4509 57 64.2709 56.81C64.0909 56.62 63.9809 56.35 63.7909 56.16C63.6109 55.97 63.5409 55.66 63.3609 55.47C63.1809 55.28 62.7309 55.33 62.5509 55.14C62.3609 54.95 62.4209 54.52 62.2409 54.33C62.0509 54.14 61.7209 54.1 61.5309 53.9C61.3409 53.71 61.1009 53.58 60.9109 53.39C60.7209 53.2 60.6509 52.9 60.4609 52.71C60.2709 52.52 60.1009 52.31 59.9209 52.12C59.7309 51.93 59.5009 51.78 59.3209 51.59C59.1309 51.4 59.0609 51.11 58.8709 50.92C58.6809 50.73 58.5209 50.52 58.3409 50.33C58.1509 50.15 57.6509 50.28 57.4609 50.09C57.2709 49.91 57.2409 49.56 57.0509 49.37C56.8609 49.19 56.6609 49.02 56.4709 48.84C56.2809 48.66 56.0609 48.51 55.8709 48.33C55.6809 48.15 55.4909 47.96 55.3009 47.78C55.1109 47.6 55.1009 47.23 54.9109 47.05C54.7209 46.87 54.4709 46.74 54.2809 46.56C54.0909 46.38 53.7609 46.34 53.5709 46.16C53.3809 45.98 53.1009 45.88 52.9209 45.7C52.6909 45.48 52.7709 45.02 52.6109 44.87C52.3609 44.61 52.2209 44.49 52.1709 44.29C52.1109 44.07 52.1309 43.91 52.2709 43.58C52.3609 43.38 52.4409 43.14 52.6009 42.86C52.7309 42.62 52.8809 42.4 53.0109 42.17C53.1409 41.93 53.1909 41.65 53.3209 41.42C53.4509 41.19 53.6909 41.01 53.8209 40.78C53.9509 40.55 54.1509 40.35 54.2809 40.11C54.4209 39.88 54.5009 39.61 54.6309 39.38C54.7609 39.15 55.0009 38.97 55.1409 38.74C55.2809 38.51 55.0809 38.08 55.2209 37.85C55.3609 37.62 55.5309 37.41 55.6609 37.17C55.8009 36.94 56.1909 36.86 56.3309 36.63L56.1809 36.54C56.3109 36.32 56.3409 36.05 56.4709 35.84C56.6009 35.62 56.9609 35.54 57.0809 35.33C57.2209 35.1 57.3909 34.89 57.5309 34.65C57.6709 34.42 57.4709 33.99 57.6009 33.75C57.7409 33.52 57.9609 33.34 58.1009 33.11C58.2409 32.88 58.3709 32.64 58.5109 32.41C58.6509 32.18 58.8009 31.96 58.9409 31.73C59.0809 31.5 59.2209 31.27 59.3609 31.04C59.5009 30.81 59.6209 30.57 59.7609 30.33C59.9009 30.1 59.9709 29.83 60.1009 29.59C60.1609 29.48 60.3309 29.44 60.3909 29.33C60.5309 29.09 60.6009 28.82 60.7409 28.59C60.8809 28.36 61.3209 28.3 61.4509 28.06C61.5809 27.82 61.7109 27.58 61.8409 27.35C61.9809 27.11 62.0109 26.82 62.1509 26.59C62.2909 26.35 62.5309 26.18 62.6709 25.95C62.8109 25.72 62.6809 25.33 62.8209 25.09C62.9609 24.85 63.1609 24.66 63.2909 24.42C63.4209 24.18 63.6409 23.99 63.7709 23.76C63.9109 23.52 64.0609 23.3 64.2009 23.07C64.3809 22.75 64.4609 22.39 64.6809 22.35C64.9009 22.32 65.1109 22.66 65.4109 22.83C65.6209 22.95 65.8009 23.13 66.0209 23.25C66.2309 23.37 66.5909 23.23 66.8009 23.34C67.0209 23.45 67.1609 23.7 67.3809 23.82C67.6009 23.93 67.8509 23.98 68.0609 24.1C68.2809 24.21 68.5209 24.27 68.7409 24.38C68.9609 24.49 69.1209 24.72 69.3309 24.83C69.5709 24.95 69.7509 25.18 69.9809 25.31C70.2109 25.44 70.6009 25.28 70.8309 25.4C71.0709 25.52 71.3309 25.59 71.5709 25.71C71.8109 25.83 71.9909 26.06 72.2309 26.18C72.4709 26.3 72.5609 26.7 72.8009 26.82C73.0409 26.94 73.4509 26.74 73.6809 26.86C73.9209 26.98 74.0909 27.23 74.3209 27.36C74.5609 27.48 74.7209 27.74 74.9609 27.87L75.1209 27.57C75.3509 27.69 75.5909 27.79 75.8209 27.91C76.0509 28.03 76.1209 28.45 76.3509 28.57C76.5809 28.69 76.8909 28.66 77.1109 28.78C77.3409 28.9 77.4409 29.26 77.6609 29.39C77.8909 29.51 78.1009 29.65 78.3309 29.78C78.5709 29.91 78.8809 29.88 79.0609 30.03C79.2609 30.2 79.6209 30.27 79.7509 30.47C79.8909 30.69 80.0009 30.99 80.0609 31.23C80.1209 31.47 80.1009 31.78 80.0909 32.04C80.0809 32.28 79.9109 32.53 79.8309 32.78C79.7609 33.01 79.8309 33.35 79.7109 33.58C79.6309 33.73 79.4109 33.79 79.3409 33.94C79.2409 34.18 79.1309 34.52 78.8909 34.75C78.6809 34.95 78.2709 34.92 78.0109 35.08C77.7509 35.24 77.5809 35.66 77.3109 35.74C76.9909 35.83 76.6309 35.66 76.3709 35.58C76.1009 35.5 75.8009 35.51 75.5309 35.42C75.2609 35.34 75.0809 34.97 74.8109 34.88C74.5409 34.79 74.1509 35.05 73.8809 34.96C73.6109 34.86 73.4309 34.55 73.1609 34.44C72.9009 34.33 72.5909 34.32 72.3309 34.2C72.0709 34.08 71.8909 33.81 71.6409 33.68C71.4109 33.56 71.0509 33.68 70.8309 33.55C70.6009 33.42 70.5709 32.97 70.3409 32.84C70.1209 32.71 69.8809 32.6 69.6609 32.46C69.4409 32.32 69.2409 32.16 69.0209 32.02C68.8009 31.88 68.3909 32.04 68.1709 31.9C67.9509 31.76 67.7509 31.59 67.5409 31.45C67.3209 31.31 67.2809 30.91 67.0609 30.77C66.8409 30.63 66.5209 30.65 66.3009 30.51C66.0609 30.35 65.8209 30.08 65.6509 30.13C65.4809 30.18 65.2209 30.45 65.1209 30.73C65.0209 31 65.0309 31.3 64.9309 31.57C64.8409 31.84 64.8309 32.14 64.7309 32.4C64.6309 32.66 64.6209 32.97 64.5009 33.23C64.3409 33.59 64.3109 33.75 64.4109 33.95C64.5109 34.16 64.6009 34.46 64.9609 34.58C65.2709 34.68 65.5709 34.79 65.8709 34.93C66.1709 35.07 66.3909 35.27 66.6909 35.41C66.6609 35.5 66.7409 35.41 66.7109 35.49C66.4109 35.47 66.1209 35.64 65.8209 35.63C65.5209 35.61 65.2409 35.31 64.9509 35.3C64.6509 35.28 64.3509 35.37 64.0609 35.35C63.7609 35.32 63.4509 35.48 63.1509 35.44C62.8609 35.4 62.6509 35.33 62.4909 35.32C62.2009 35.32 62.2909 35.35 62.2209 35.63C62.1809 35.79 61.7309 35.93 61.7009 36.23C61.6809 36.44 62.0009 36.69 61.9709 36.9C61.9709 36.94 61.9709 36.97 61.9709 37C61.9409 37.28 61.6009 37.52 61.5809 37.8C61.5509 38.08 61.6109 38.36 61.5809 38.64C61.5609 38.91 61.7209 39.21 61.6909 39.48C61.6709 39.75 61.5109 40.02 61.4809 40.3C61.4509 40.57 61.3609 40.91 61.3409 41.19C61.6109 41.19 61.9509 41.19 62.2109 41.16C62.4809 41.13 62.6909 40.85 62.9509 40.79C63.2109 40.73 63.5309 40.93 63.7809 40.86C64.0309 40.78 64.3009 40.74 64.5509 40.65C64.8009 40.56 65.0009 40.34 65.2509 40.25C65.5009 40.16 65.7009 39.95 65.9509 39.86C66.2009 39.77 66.4709 39.73 66.7209 39.65C66.9709 39.57 67.2309 39.49 67.4909 39.44C67.7509 39.38 68.1209 39.34 68.3809 39.31C68.3309 39.63 68.0509 39.95 67.9409 40.21C67.8209 40.5 67.8909 40.9 67.6909 41.13C67.5009 41.35 67.0509 41.28 66.7709 41.45C66.5609 41.59 66.5709 42.07 66.3609 42.21C66.1509 42.35 65.7009 42.13 65.4909 42.26C65.2809 42.4 65.2709 42.84 65.0609 42.98C64.8509 43.12 64.4809 43.01 64.2709 43.15C64.0609 43.29 63.8109 43.37 63.6009 43.51C63.3909 43.65 63.3709 44.07 63.1709 44.22C62.9709 44.37 62.6009 44.27 62.3909 44.41C62.1809 44.55 61.9909 44.72 61.7809 44.86C61.5709 45 61.3409 45.1 61.1309 45.24C60.9609 45.36 60.9009 45.99 60.9909 46.13C61.1409 46.35 61.2809 46.56 61.4309 46.78C61.5709 47 61.6909 47.24 61.8309 47.46C61.9709 47.68 62.0109 47.97 62.1609 48.19C62.3109 48.41 62.6009 48.52 62.7609 48.74C62.9109 48.95 63.2109 49.05 63.3709 49.25C63.5309 49.45 63.6609 49.67 63.8409 49.87C64.0209 50.06 64.1709 50.26 64.3609 50.44C64.5509 50.62 64.7009 50.84 64.9109 51C65.1409 51.17 65.3009 51.21 65.4709 51.19C65.6509 51.16 65.7409 51.03 65.8909 50.8C66.0409 50.57 66.2709 50.4 66.4209 50.17C66.5709 49.94 66.5809 49.62 66.7309 49.4C66.8809 49.17 67.0709 48.96 67.2309 48.75C67.3809 48.55 67.6909 48.46 67.8509 48.26C68.0109 48.06 68.1609 47.86 68.3209 47.66C68.4809 47.46 68.6909 47.31 68.8509 47.11C69.0109 46.91 69.1309 46.68 69.2809 46.48C69.4409 46.28 69.6709 46.13 69.8209 45.93C69.9809 45.73 70.1409 45.53 70.2909 45.33C70.4409 45.13 70.4209 44.79 70.5709 44.58C70.7909 44.29 71.0209 44.09 71.2809 44.02C71.5409 43.94 71.8809 43.84 72.2109 43.91C72.4609 43.96 72.6609 44.22 72.9109 44.27C73.1609 44.32 73.4409 44.21 73.6909 44.25C73.9409 44.3 74.1709 44.46 74.4109 44.51C74.6609 44.56 74.8709 44.8 75.1209 44.86C75.3709 44.91 75.6209 44.91 75.8709 44.96C76.1209 45.01 76.3809 45 76.6209 45.06C76.8809 45.13 77.2109 44.99 77.4809 45.06C77.7409 45.13 78.0109 45.23 78.2709 45.3C78.5309 45.38 78.8109 45.43 79.0709 45.52C79.3309 45.61 79.4709 46 79.7309 46.11C79.9809 46.22 80.3809 46.04 80.6209 46.17C80.8409 46.29 80.9409 46.62 81.1509 46.77C81.3609 46.91 81.6109 47 81.8109 47.16C82.0009 47.32 82.1009 47.59 82.2909 47.76C82.4809 47.93 82.8609 47.88 83.0509 48.05C83.2309 48.22 83.3209 48.51 83.5009 48.67C83.6809 48.84 83.9509 48.92 84.1309 49.09C84.3109 49.26 84.4009 49.53 84.5809 49.7C84.7609 49.87 84.8109 50.18 84.9909 50.35C85.1709 50.52 85.4609 50.57 85.6409 50.74C85.8209 50.91 86.0709 51 86.2609 51.17C86.4409 51.34 86.5309 51.6 86.7109 51.77C86.8909 51.94 86.9709 52.21 87.1609 52.38C87.3409 52.55 87.8009 52.43 87.9809 52.6C88.1609 52.77 88.1909 53.1 88.3709 53.27C88.5509 53.44 88.6109 53.71 88.7709 53.9C88.9309 54.09 89.2909 54.12 89.4209 54.33C89.5409 54.53 89.4509 54.85 89.5309 55.09C89.6009 55.31 89.9409 55.5 89.9609 55.76C89.9809 56.02 89.8209 56.29 89.8709 56.54C89.9209 56.79 90.1509 57 90.2109 57.25C90.2709 57.5 90.1209 57.8 90.1909 58.05C90.2609 58.29 90.4509 58.51 90.5209 58.76C90.5909 59 90.6009 59.29 90.6609 59.54C90.8809 59.42 91.0809 59.26 91.2809 59.16C91.5009 59.05 91.6609 58.87 91.8609 58.76C92.0709 58.65 92.2509 58.51 92.4409 58.39C92.6609 58.26 92.9209 58.19 93.1409 58.06C93.3609 57.93 93.5409 57.73 93.7609 57.59C93.9809 57.46 94.2709 57.45 94.4909 57.31C94.7109 57.17 94.8509 56.92 95.0709 56.78C95.2909 56.64 95.6509 56.75 95.8709 56.61C96.0909 56.47 96.3009 56.33 96.5209 56.2C96.7409 56.07 96.8609 55.78 97.0809 55.64C97.3009 55.5 97.5509 55.42 97.7709 55.28C97.9909 55.14 98.3109 55.17 98.5209 55.03C98.7409 54.89 98.9509 54.75 99.1709 54.62C99.3909 54.48 99.4909 53.97 99.4509 53.78C99.3909 53.5 99.2809 53.24 99.2209 52.97C99.1509 52.69 99.0009 52.46 98.9109 52.2C98.8209 51.93 98.9309 51.6 98.7909 51.35C98.6609 51.1 98.5709 50.81 98.3909 50.59C98.2109 50.38 98.0609 50.09 97.8209 49.91C97.6409 49.78 97.4809 49.67 97.3209 49.51C97.1709 49.35 96.7909 49.4 96.6409 49.23C96.4909 49.07 96.2909 48.78 96.1409 48.61C96.3509 48.44 96.7909 48.47 97.0209 48.37C97.2609 48.26 97.4609 48.14 97.7109 48.09C97.9609 48.04 98.1909 47.7 98.4409 47.68C98.7009 47.66 98.9809 48.01 99.2309 48C99.5109 47.99 99.7809 47.8 100.051 47.81C100.331 47.81 100.601 47.93 100.871 47.95C101.151 47.98 101.441 47.88 101.711 47.93C101.981 47.98 102.221 48.2 102.481 48.28C102.751 48.35 103.011 48.43 103.271 48.52C103.531 48.61 103.781 48.71 104.041 48.82C104.291 48.93 104.461 49.2 104.701 49.33C104.941 49.46 105.211 49.53 105.441 49.68C105.671 49.83 105.891 49.98 106.111 50.15C106.351 50.33 106.641 50.4 106.771 50.61C106.901 50.82 106.881 51.06 106.821 51.38C106.771 51.67 106.911 51.86 107.041 51.99C107.171 52.12 107.361 52.15 107.631 52.16C107.991 52.16 108.341 52.26 108.691 52.26C108.931 52.26 109.181 52.37 109.431 52.35C109.691 52.33 109.861 52.17 110.061 52.05C110.281 51.92 110.481 51.78 110.691 51.63C110.901 51.48 111.311 51.61 111.511 51.45C111.711 51.29 111.731 50.91 111.931 50.75C112.131 50.59 112.351 50.45 112.551 50.3C112.791 50.11 113.201 50.12 113.431 49.93C113.661 49.73 113.891 49.54 114.131 49.36C114.371 49.17 114.361 48.62 114.611 48.46C114.871 48.3 115.331 48.46 115.471 48.28C115.651 48.07 115.491 47.72 115.491 47.45C115.491 47.22 115.381 47.05 115.271 46.76C115.181 46.51 115.271 46.18 115.221 45.91C115.181 45.63 115.271 45.37 115.321 45.11C115.361 44.84 115.501 44.59 115.551 44.32C115.601 44.05 115.241 43.71 115.291 43.45C115.341 43.18 115.491 42.93 115.541 42.66C115.591 42.39 115.921 42.18 115.971 41.91C116.021 41.64 115.871 41.34 115.921 41.07C115.971 40.8 116.231 40.58 116.291 40.31C116.341 40.04 116.241 39.75 116.291 39.48C116.341 39.21 116.561 38.98 116.611 38.71C116.661 38.44 116.481 38.08 116.531 37.81C116.771 37.81 117.061 37.94 117.301 37.94C117.541 37.94 117.671 37.99 117.911 37.99C117.981 38.27 118.361 38.38 118.421 38.66C118.481 38.94 118.121 39.3 118.171 39.58C118.221 39.86 118.531 40.09 118.581 40.38C118.631 40.64 118.571 40.92 118.611 41.18C118.661 41.44 118.661 41.71 118.701 41.97C118.741 42.23 119.031 42.45 119.081 42.71C119.121 42.97 118.901 43.28 118.941 43.54C118.981 43.8 118.921 44.08 118.971 44.34C119.011 44.58 119.241 44.79 119.271 45.02C119.301 45.26 119.221 45.51 119.231 45.75C119.231 45.99 119.361 46.23 119.341 46.47C119.321 46.71 119.461 47 119.391 47.24C119.321 47.46 118.981 47.59 118.861 47.81C118.751 48.01 118.591 48.17 118.431 48.37C118.271 48.57 118.131 48.8 117.981 49.01C117.831 49.22 117.661 49.42 117.521 49.64C117.391 49.86 117.361 50.14 117.241 50.37C117.121 50.6 116.981 50.81 116.871 51.04C116.751 51.28 116.691 51.51 116.551 51.64C116.371 51.8 116.121 52.03 115.881 52.01C115.691 51.99 115.621 51.52 115.381 51.38C115.061 51.19 114.621 51.17 114.351 51.23C114.081 51.29 113.741 51.54 113.521 51.82C113.371 52.02 113.231 52.22 113.081 52.42C112.931 52.62 112.721 52.77 112.571 52.96C112.421 53.16 112.611 53.61 112.461 53.81C112.261 54.07 112.021 54.19 112.061 54.42C112.091 54.65 112.201 54.91 112.431 55.12C112.611 55.28 112.731 55.42 112.951 55.6C112.811 55.78 112.951 56.02 112.831 56.17C112.631 56.41 112.511 56.56 112.431 56.71C112.301 56.96 112.291 56.93 112.481 57.16C112.591 57.3 112.671 57.5 112.911 57.7C113.091 57.85 113.101 58.22 113.291 58.36C113.471 58.51 113.651 58.66 113.831 58.81C114.011 58.96 114.211 59.07 114.381 59.24C114.581 59.43 114.881 59.7 114.871 59.97C114.851 60.25 114.811 60.54 114.791 60.82C114.771 61.1 114.521 61.36 114.481 61.64C114.441 61.92 114.651 62.25 114.581 62.52C114.521 62.74 114.451 63.09 114.281 63.3C114.111 63.51 113.661 63.4 113.451 63.49C113.201 63.6 113.051 63.96 112.801 64.06C112.541 64.16 112.171 63.96 111.911 64.06C111.651 64.16 111.411 64.29 111.151 64.38C110.891 64.47 110.671 64.67 110.411 64.76C110.151 64.85 109.851 64.84 109.591 64.93C109.351 65.02 109.131 65.17 108.891 65.26C108.651 65.34 108.491 65.68 108.251 65.77C108.011 65.85 107.721 65.82 107.481 65.9C107.241 65.98 106.941 65.93 106.701 66.01C106.461 66.09 106.261 66.32 106.021 66.41C105.781 66.49 105.441 66.32 105.201 66.41C104.921 66.51 104.781 66.87 104.681 67.08C104.581 67.29 104.561 67.56 104.611 67.84C104.651 68.08 104.941 68.29 104.971 68.53C105.011 68.77 104.941 69.03 104.971 69.28C105.011 69.53 104.971 69.75 105.121 69.86C105.251 69.96 105.461 69.99 105.741 69.92C105.981 69.86 106.181 69.67 106.421 69.61C106.661 69.55 106.881 69.43 107.121 69.37C107.361 69.31 107.611 69.32 107.851 69.27C108.091 69.21 108.371 69.37 108.611 69.31C108.851 69.25 109.031 68.98 109.271 68.92C109.511 68.87 109.731 68.75 109.971 68.7C110.181 68.65 110.701 68.92 110.801 69.09C110.901 69.27 110.651 69.59 110.701 69.81C110.751 70.01 111.161 70.28 111.221 70.51C110.971 70.54 110.591 70.64 110.331 70.67C110.081 70.7 109.781 70.43 109.531 70.46C109.281 70.49 109.031 70.58 108.781 70.61C108.531 70.64 108.261 70.55 108.011 70.59C107.761 70.62 107.541 70.96 107.291 70.99C107.041 71.02 106.791 71.11 106.541 71.14C106.291 71.17 106.011 70.98 105.761 71.01C105.511 71.04 105.261 71.07 105.011 71.11C104.761 71.14 104.541 71.38 104.291 71.41C104.001 71.45 103.781 71.45 103.561 71.52C103.291 71.61 103.081 71.67 102.921 71.84C102.751 72.02 102.411 72.16 102.361 72.44C102.321 72.66 102.691 72.93 102.711 73.22C102.731 73.49 102.661 73.77 102.691 74.04C102.711 74.31 102.531 74.6 102.551 74.87C102.571 75.14 102.631 75.41 102.651 75.68C102.671 75.95 102.921 76.2 102.951 76.47C102.971 76.74 102.821 77.03 102.841 77.3C102.861 77.57 102.751 77.85 102.771 78.13C102.791 78.41 102.911 78.66 102.931 78.94C102.951 79.21 102.871 79.49 102.891 79.76C102.911 80.03 103.281 80.27 103.301 80.54C103.321 80.81 103.041 81.11 103.061 81.38C103.081 81.65 103.421 81.9 103.441 82.17C103.461 82.44 103.251 82.73 103.271 83C103.291 83.27 103.581 83.52 103.601 83.79C103.621 84.06 103.281 84.36 103.311 84.63C103.331 84.89 103.571 85.14 103.581 85.41C103.601 85.67 103.751 85.93 103.771 86.19C103.791 86.45 103.451 86.74 103.471 87.01C103.491 87.27 103.771 87.52 103.791 87.79C103.811 88.05 103.791 88.32 103.811 88.59C103.831 88.85 103.811 89.12 103.831 89.39C103.841 89.66 103.671 89.93 103.691 90.2C103.701 90.47 103.831 90.72 103.841 90.99C103.851 91.26 103.691 91.53 103.701 91.79C103.711 92.05 103.711 92.32 103.731 92.59C103.741 92.85 103.931 93.11 103.951 93.38C103.961 93.65 103.871 93.91 103.881 94.18C103.881 94.44 103.951 94.69 103.961 94.94C103.961 95.2 104.081 95.45 104.091 95.7C104.091 95.96 104.231 96.21 104.231 96.47C104.231 96.73 103.991 96.98 103.991 97.24C103.991 97.5 104.171 97.75 104.171 98.01C104.171 98.27 104.211 98.52 104.211 98.78C104.211 99.03 104.181 99.29 104.191 99.54C104.191 99.79 104.251 100.05 104.261 100.3C104.261 100.58 104.221 100.86 104.231 101.13C104.231 101.41 104.021 101.69 104.041 101.97C104.051 102.25 104.361 102.51 104.371 102.79C104.381 103.07 104.071 103.36 104.091 103.63C104.101 103.91 104.041 104.19 104.051 104.46C104.061 104.74 104.441 105 104.461 105.27C104.471 105.55 104.331 105.83 104.341 106.11C104.351 106.39 104.141 106.67 104.151 106.95C104.151 107.19 104.221 107.43 104.231 107.67C104.231 107.91 104.481 108.14 104.491 108.38C104.491 108.62 104.581 108.86 104.591 109.1C104.591 109.34 104.321 109.59 104.341 109.83C104.351 110.11 104.341 110.39 104.361 110.67C104.381 110.95 104.411 111.23 104.431 111.51C104.451 111.79 104.581 112.06 104.601 112.34C104.621 112.62 104.781 112.89 104.791 113.17C104.801 113.45 104.861 113.73 104.871 114.01C104.891 114.29 104.521 114.59 104.531 114.87C104.551 115.15 104.811 115.41 104.831 115.69C104.841 115.97 104.971 116.24 104.981 116.52C104.991 116.8 104.731 117.1 104.731 117.38C104.731 117.67 104.631 117.95 104.621 118.23C104.621 118.51 104.901 118.8 104.901 119.09C104.901 119.38 104.641 119.67 104.651 119.96C104.651 120.25 104.721 120.53 104.731 120.82C104.741 121.11 105.071 121.38 105.081 121.67C105.091 121.96 104.931 122.25 104.941 122.53C104.941 122.82 105.011 123.1 105.021 123.39C105.021 123.68 104.751 123.97 104.761 124.25C104.761 124.47 105.161 124.7 105.151 124.92C105.141 125.14 104.991 125.35 104.971 125.57C104.951 125.79 104.961 126.01 104.971 126.23C104.991 126.59 105.051 126.79 105.231 126.9C105.411 127.01 105.611 126.98 105.951 126.85C106.221 126.74 106.461 126.57 106.731 126.45C107.001 126.33 107.381 126.45 107.641 126.33C107.911 126.21 108.141 126.02 108.411 125.89C108.631 125.78 108.821 125.61 109.051 125.5C109.281 125.4 109.491 125.26 109.711 125.15C109.941 125.05 110.211 125.04 110.431 124.93C110.651 124.82 110.761 124.49 110.981 124.37C111.201 124.26 111.401 124.12 111.621 124C111.841 123.88 112.091 123.83 112.301 123.69C112.511 123.55 112.791 123.53 112.991 123.38C113.191 123.23 113.431 123.13 113.621 122.97C113.811 122.81 113.821 122.44 114.011 122.28C114.201 122.12 114.561 122.16 114.741 122C114.931 121.84 114.991 121.54 115.171 121.37C115.351 121.19 115.531 121.04 115.691 120.85C115.841 120.66 116.001 120.48 116.131 120.26C116.251 120.05 116.431 119.86 116.511 119.61C116.581 119.41 116.711 119.27 116.851 119.17C116.821 118.92 116.621 118.65 116.591 118.39C116.561 118.14 116.471 117.88 116.451 117.63C116.431 117.37 116.741 117.1 116.731 116.85C116.721 116.6 116.761 116.34 116.751 116.09C116.751 115.83 116.561 115.58 116.561 115.33C116.561 115.07 116.391 114.82 116.391 114.56C116.391 114.31 116.351 114.05 116.351 113.8C116.351 113.77 116.541 113.74 116.561 113.72C116.541 113.61 116.591 113.5 116.591 113.36C116.591 113.13 116.551 112.89 116.521 112.66C116.501 112.43 116.621 112.21 116.601 111.98C116.631 111.98 116.511 111.93 116.531 111.92C116.441 111.68 116.151 111.47 116.101 111.21C116.051 110.96 116.051 110.67 116.051 110.4C116.051 110.34 116.151 110.28 116.151 110.22C116.081 110.12 116.021 110.02 116.011 109.91C115.981 109.66 116.101 109.4 116.071 109.15C116.041 108.9 115.721 108.69 115.691 108.44C115.661 108.19 115.901 107.92 115.871 107.67C115.841 107.42 115.491 107.21 115.461 106.97C115.431 106.72 115.541 106.46 115.511 106.21C115.481 105.96 115.301 105.74 115.271 105.49C115.241 105.24 115.411 104.97 115.381 104.73C115.351 104.47 115.221 104.23 115.181 103.97C115.141 103.71 115.141 103.45 115.101 103.19C115.061 102.93 115.281 102.63 115.241 102.38C115.201 102.12 115.051 101.88 115.011 101.62C114.971 101.36 114.941 101.1 114.901 100.84C114.861 100.58 114.831 100.32 114.791 100.06C114.751 99.8 114.821 99.53 114.781 99.27C114.741 99.01 114.731 98.75 114.701 98.49C114.661 98.22 114.401 97.98 114.371 97.7C114.331 97.43 114.131 97.17 114.091 96.9C114.061 96.63 114.271 96.32 114.241 96.05C114.201 95.78 114.221 95.5 114.181 95.23C114.151 94.96 114.091 94.69 114.051 94.41C114.011 94.14 113.911 93.87 113.871 93.6C113.831 93.33 113.711 93.07 113.671 92.79C113.631 92.52 113.751 92.22 113.711 91.95C113.671 91.68 113.521 91.42 113.471 91.15C113.431 90.88 113.391 90.6 113.351 90.33C113.301 90.06 113.341 89.77 113.291 89.5C113.251 89.23 113.131 88.97 113.091 88.69C113.051 88.42 112.831 88.17 112.781 87.9C112.761 87.77 113.111 87.48 113.101 87.12C113.101 86.9 112.871 86.65 112.861 86.37C112.861 86.13 112.841 85.88 112.841 85.61C112.841 85.37 112.661 85.11 112.671 84.85C112.671 84.6 112.741 84.34 112.741 84.09C112.741 83.83 113.121 83.59 113.121 83.34C113.121 83.08 113.101 82.82 113.121 82.58C113.121 82.31 112.971 82.05 112.991 81.82C113.001 81.54 112.871 81.27 112.891 81.05C112.921 80.65 112.971 80.34 113.011 80.26C113.131 80.02 113.511 79.9 113.641 79.66C113.761 79.42 113.751 79.1 113.871 78.86C113.991 78.62 114.181 78.41 114.301 78.16C114.421 77.92 114.311 77.55 114.441 77.31C114.561 77.07 114.711 76.83 114.831 76.59C114.961 76.35 115.181 76.16 115.311 75.92C115.441 75.68 115.701 75.51 115.821 75.27C115.951 75.03 116.191 74.85 116.321 74.61C116.451 74.37 116.421 74.05 116.551 73.81C116.571 73.77 116.591 73.44 116.811 73.12C116.931 72.94 117.331 72.91 117.481 72.7C117.611 72.5 117.571 72.17 117.691 71.97C117.831 71.75 118.101 71.61 118.201 71.42C118.351 71.14 118.441 70.83 118.441 70.68C118.441 70.54 118.341 70.2 118.521 69.83C118.631 69.6 119.001 69.45 119.141 69.18C119.281 68.93 119.341 68.63 119.491 68.38C119.641 68.12 119.561 67.72 119.701 67.49C119.891 67.17 120.131 66.94 120.231 66.79C120.401 66.55 120.591 66.35 120.701 66.1C120.821 65.83 121.191 65.64 121.241 65.37C121.301 65.09 121.311 64.77 121.321 64.49C121.331 64.21 121.261 63.91 121.241 63.62C121.221 63.34 121.011 63.08 120.971 62.79C120.931 62.55 120.811 62.31 120.781 62.06C120.761 61.81 121.081 61.54 121.061 61.3C121.051 61.05 121.011 60.81 121.001 60.56C120.991 60.31 120.791 60.08 120.781 59.83C120.771 59.58 120.661 59.35 120.631 59.1C120.601 58.85 120.531 58.62 120.501 58.38C120.461 58.11 120.441 57.85 120.441 57.61C120.441 57.37 120.481 57.04 120.671 56.8C120.821 56.61 121.021 56.39 121.201 56.22C121.201 56.24 121.201 56.34 121.201 56.36C121.281 56.17 121.311 55.94 121.411 55.77C121.511 55.59 121.941 55.59 122.061 55.43C122.011 55.43 121.641 55.29 121.591 55.29C121.741 55.06 122.051 54.89 122.191 54.67C122.341 54.44 122.401 54.15 122.551 53.93C122.701 53.7 122.821 53.46 122.971 53.24C123.121 53.01 123.521 52.95 123.671 52.73C123.821 52.5 123.761 52.14 123.911 51.91C124.061 51.68 124.211 51.46 124.351 51.24C124.511 51 124.931 50.95 125.091 50.71C125.241 50.47 125.131 50.06 125.281 49.83C125.431 49.59 125.781 49.49 125.941 49.25C126.091 49.01 126.081 48.67 126.231 48.43C126.381 48.19 126.581 47.98 126.731 47.75C126.841 47.57 127.081 47.28 127.051 47.06C127.011 46.79 126.651 46.57 126.611 46.31C126.571 46.04 126.791 45.74 126.741 45.47C126.701 45.2 126.611 44.94 126.571 44.68C126.531 44.41 126.291 44.06 126.241 43.79C126.511 43.79 126.901 43.96 127.161 43.96C127.441 43.96 127.711 44.01 127.971 44.02C128.251 44.02 128.521 43.73 128.771 43.73C129.061 43.73 129.331 43.94 129.571 43.94C129.911 43.94 130.181 44.05 130.371 44.05C130.641 44.05 130.911 43.88 131.181 43.89C131.451 43.89 131.721 43.89 131.991 43.89C132.261 43.89 132.531 43.94 132.801 43.95C133.071 43.95 133.341 44.09 133.601 44.09C133.871 44.09 134.141 44.15 134.411 44.16C134.681 44.16 134.951 44.22 135.221 44.22C135.491 44.22 135.761 44.05 136.031 44.06C136.301 44.06 136.571 44.02 136.841 44.03C137.111 44.03 137.381 43.93 137.651 43.94C137.921 43.94 138.191 43.89 138.461 43.89C138.731 43.89 138.991 44.04 139.261 44.05C139.531 44.05 139.801 44.05 140.071 44.05C140.341 44.05 140.611 44.14 140.881 44.15C141.151 44.15 141.421 44.36 141.691 44.36C141.961 44.36 142.231 44.32 142.501 44.32C142.771 44.32 143.041 44.2 143.311 44.2C143.581 44.2 143.851 44.2 144.121 44.19C144.391 44.19 144.651 43.94 144.921 43.94C145.191 43.94 145.461 43.9 145.731 43.89C146.001 43.89 146.281 44.18 146.551 44.17C146.821 44.16 147.111 44.23 147.371 44.2C147.641 44.17 147.861 43.86 148.121 43.81C148.381 43.76 148.621 43.62 148.871 43.54C149.131 43.46 149.391 43.43 149.641 43.33C149.891 43.23 150.211 43.3 150.451 43.18C150.691 43.06 150.951 42.96 151.181 42.82C151.411 42.68 151.501 42.34 151.721 42.18C151.941 42.02 152.051 41.76 152.261 41.59C152.471 41.42 152.631 41.22 152.811 41.03C153.001 40.84 153.291 40.76 153.461 40.55C153.631 40.34 153.721 40.09 153.871 39.87C154.021 39.65 154.421 39.59 154.561 39.36C154.691 39.13 154.861 38.9 154.971 38.65C155.091 38.41 155.081 38.1 155.171 37.85C155.261 37.6 155.281 37.32 155.361 37.06C155.431 36.8 155.341 36.51 155.401 36.25C155.461 35.99 155.691 35.76 155.721 35.5C155.751 35.24 155.651 34.96 155.661 34.69C155.671 34.42 155.761 34.16 155.741 33.9C155.741 33.63 155.941 33.34 155.911 33.08C155.881 32.82 155.661 32.57 155.601 32.31C155.551 32.05 155.341 31.83 155.271 31.57C155.201 31.31 155.251 31.02 155.151 30.77C155.061 30.52 155.101 30.21 154.981 29.96" />
</svg>
