<svg width="369" height="297" viewBox="0 0 369 297" fill="none" xmlns="http://www.w3.org/2000/svg">
<path d="M115.345 0H122.187C122.451 0 122.671 0.219996 122.671 0.483991C122.671 0.747985 122.451 0.967981 122.187 0.967981H115.345C115.081 0.967981 114.861 0.747985 114.861 0.483991C114.861 0.219996 115.081 0 115.345 0Z" fill="white"/>
<path d="M126.101 0H132.943C133.207 0 133.427 0.219996 133.427 0.483991C133.427 0.747985 133.207 0.967981 132.943 0.967981H126.101C125.837 0.967981 125.617 0.747985 125.617 0.483991C125.617 0.219996 125.837 0 126.101 0Z" fill="white"/>
<path d="M136.859 0H143.701C143.965 0 144.185 0.219996 144.185 0.483991C144.185 0.747985 143.965 0.967981 143.701 0.967981H136.859C136.595 0.967981 136.375 0.747985 136.375 0.483991C136.375 0.219996 136.595 0 136.859 0Z" fill="white"/>
<path d="M147.619 0H154.461C154.725 0 154.945 0.219996 154.945 0.483991C154.945 0.747985 154.725 0.967981 154.461 0.967981H147.619C147.355 0.967981 147.135 0.747985 147.135 0.483991C147.135 0.219996 147.355 0 147.619 0Z" fill="white"/>
<path d="M158.353 0H165.195C165.459 0 165.679 0.219996 165.679 0.483991C165.679 0.747985 165.459 0.967981 165.195 0.967981H158.353C158.089 0.967981 157.869 0.747985 157.869 0.483991C157.869 0.219996 158.089 0 158.353 0Z" fill="white"/>
<path d="M169.111 0H175.953C176.217 0 176.437 0.219996 176.437 0.483991C176.437 0.747985 176.217 0.967981 175.953 0.967981H169.111C168.847 0.967981 168.627 0.747985 168.627 0.483991C168.627 0.219996 168.847 0 169.111 0Z" fill="white"/>
<path d="M179.867 0H186.709C186.973 0 187.193 0.219996 187.193 0.483991C187.193 0.747985 186.973 0.967981 186.709 0.967981H179.867C179.603 0.967981 179.383 0.747985 179.383 0.483991C179.383 0.219996 179.603 0 179.867 0Z" fill="white"/>
<path d="M190.625 0H197.466C197.73 0 197.95 0.219996 197.95 0.483991C197.95 0.747985 197.73 0.967981 197.466 0.967981H190.625C190.361 0.967981 190.141 0.747985 190.141 0.483991C190.141 0.219996 190.361 0 190.625 0Z" fill="white"/>
<path d="M201.363 0H208.205C208.469 0 208.689 0.219996 208.689 0.483991C208.689 0.747985 208.469 0.967981 208.205 0.967981H201.363C201.099 0.967981 200.879 0.747985 200.879 0.483991C200.879 0.219996 201.099 0 201.363 0Z" fill="white"/>
<path d="M212.119 0H218.961C219.225 0 219.445 0.219996 219.445 0.483991C219.445 0.747985 219.225 0.967981 218.961 0.967981H212.119C211.855 0.967981 211.635 0.747985 211.635 0.483991C211.635 0.219996 211.855 0 212.119 0Z" fill="white"/>
<path d="M222.877 0H229.718C229.982 0 230.202 0.219996 230.202 0.483991C230.202 0.747985 229.982 0.967981 229.718 0.967981H222.877C222.613 0.967981 222.393 0.747985 222.393 0.483991C222.393 0.219996 222.613 0 222.877 0Z" fill="white"/>
<path d="M276.642 0H283.484C283.748 0 283.968 0.219996 283.968 0.483991C283.968 0.747985 283.748 0.967981 283.484 0.967981H276.642C276.378 0.967981 276.158 0.747985 276.158 0.483991C276.158 0.219996 276.378 0 276.642 0Z" fill="white"/>
<path d="M287.402 0H294.244C294.508 0 294.728 0.219996 294.728 0.483991C294.728 0.747985 294.508 0.967981 294.244 0.967981H287.402C287.138 0.967981 286.918 0.747985 286.918 0.483991C286.918 0.219996 287.138 0 287.402 0Z" fill="white"/>
<path d="M298.14 0H304.982C305.246 0 305.466 0.219996 305.466 0.483991C305.466 0.747985 305.246 0.967981 304.982 0.967981H298.14C297.876 0.967981 297.656 0.747985 297.656 0.483991C297.656 0.219996 297.876 0 298.14 0Z" fill="white"/>
<path d="M308.894 0H315.736C316 0 316.22 0.219996 316.22 0.483991C316.22 0.747985 316 0.967981 315.736 0.967981H308.894C308.63 0.967981 308.41 0.747985 308.41 0.483991C308.41 0.219996 308.63 0 308.894 0Z" fill="white"/>
<path d="M40.0836 21.1191H46.9255C47.1895 21.1191 47.4095 21.3391 47.4095 21.6031C47.4095 21.8671 47.1895 22.0871 46.9255 22.0871H40.0836C39.8196 22.0871 39.5996 21.8671 39.5996 21.6031C39.5996 21.3391 39.8196 21.1191 40.0836 21.1191Z" fill="white"/>
<path d="M50.8414 21.1191H57.6833C57.9473 21.1191 58.1673 21.3391 58.1673 21.6031C58.1673 21.8671 57.9473 22.0871 57.6833 22.0871H50.8414C50.5774 22.0871 50.3574 21.8671 50.3574 21.6031C50.3574 21.3391 50.5774 21.1191 50.8414 21.1191Z" fill="white"/>
<path d="M61.5758 21.1191H68.4177C68.6816 21.1191 68.9016 21.3391 68.9016 21.6031C68.9016 21.8671 68.6816 22.0871 68.4177 22.0871H61.5758C61.3118 22.0871 61.0918 21.8671 61.0918 21.6031C61.0918 21.3391 61.3118 21.1191 61.5758 21.1191Z" fill="white"/>
<path d="M72.3356 21.1191H79.1774C79.4414 21.1191 79.6614 21.3391 79.6614 21.6031C79.6614 21.8671 79.4414 22.0871 79.1774 22.0871H72.3356C72.0716 22.0871 71.8516 21.8671 71.8516 21.6031C71.8516 21.3391 72.0716 21.1191 72.3356 21.1191Z" fill="white"/>
<path d="M83.0934 21.1191H89.9352C90.1992 21.1191 90.4192 21.3391 90.4192 21.6031C90.4192 21.8671 90.1992 22.0871 89.9352 22.0871H83.0934C82.8294 22.0871 82.6094 21.8671 82.6094 21.6031C82.6094 21.3391 82.8294 21.1191 83.0934 21.1191Z" fill="white"/>
<path d="M93.8492 21.1191H100.691C100.955 21.1191 101.175 21.3391 101.175 21.6031C101.175 21.8671 100.955 22.0871 100.691 22.0871H93.8492C93.5852 22.0871 93.3652 21.8671 93.3652 21.6031C93.3652 21.3391 93.5852 21.1191 93.8492 21.1191Z" fill="white"/>
<path d="M110.46 8.42578C110.724 8.42578 110.944 8.64578 110.944 8.90977C110.944 8.97577 110.944 9.04177 110.9 9.10777L106.016 20.8335C105.95 21.0095 105.752 21.1415 105.554 21.1415C105.29 21.1415 105.07 20.9215 105.07 20.6575C105.07 20.5915 105.07 20.5255 105.114 20.4595L109.998 8.73378C110.064 8.55778 110.262 8.42578 110.438 8.42578H110.46Z" fill="white"/>
<path d="M148.85 8.51378C148.85 8.51378 149.004 8.64578 149.026 8.73378L153.888 20.4595C153.888 20.4595 153.932 20.5915 153.932 20.6575C153.932 20.7895 153.888 20.8995 153.8 21.0095C153.712 21.0975 153.602 21.1635 153.47 21.1635C153.382 21.1635 153.294 21.1415 153.206 21.0755C153.118 21.0095 153.052 20.9435 153.03 20.8555L148.146 9.12977C148.146 9.12977 148.102 8.99777 148.102 8.93177C148.102 8.79977 148.146 8.68978 148.234 8.57978C148.322 8.49178 148.454 8.42578 148.586 8.42578C148.674 8.42578 148.762 8.44778 148.85 8.51378Z" fill="white"/>
<path d="M158.353 21.1191H165.195C165.459 21.1191 165.679 21.3391 165.679 21.6031C165.679 21.8671 165.459 22.0871 165.195 22.0871H158.353C158.089 22.0871 157.869 21.8671 157.869 21.6031C157.869 21.3391 158.089 21.1191 158.353 21.1191Z" fill="white"/>
<path d="M169.111 21.1191H175.953C176.217 21.1191 176.437 21.3391 176.437 21.6031C176.437 21.8671 176.217 22.0871 175.953 22.0871H169.111C168.847 22.0871 168.627 21.8671 168.627 21.6031C168.627 21.3391 168.847 21.1191 169.111 21.1191Z" fill="white"/>
<path d="M185.722 8.42578C185.986 8.42578 186.206 8.64578 186.206 8.90977C186.206 8.97577 186.206 9.04177 186.162 9.10777L181.278 20.8335C181.212 21.0095 181.014 21.1415 180.816 21.1415C180.552 21.1415 180.332 20.9215 180.332 20.6575C180.332 20.5915 180.332 20.5255 180.376 20.4595L185.26 8.73378C185.326 8.55778 185.524 8.42578 185.7 8.42578H185.722Z" fill="white"/>
<path d="M196.476 8.42578C196.74 8.42578 196.96 8.64578 196.96 8.90977C196.96 8.97577 196.96 9.04177 196.916 9.10777L192.032 20.8335C191.966 21.0095 191.768 21.1415 191.57 21.1415C191.306 21.1415 191.086 20.9215 191.086 20.6575C191.086 20.5915 191.086 20.5255 191.13 20.4595L196.014 8.73378C196.08 8.55778 196.278 8.42578 196.454 8.42578H196.476Z" fill="white"/>
<path d="M234.889 8.51378C234.889 8.51378 235.043 8.64578 235.065 8.73378L239.927 20.4595C239.927 20.4595 239.971 20.5915 239.971 20.6575C239.971 20.7895 239.927 20.8995 239.839 21.0095C239.751 21.0975 239.641 21.1635 239.509 21.1635C239.421 21.1635 239.333 21.1415 239.245 21.0755C239.157 21.0095 239.091 20.9435 239.069 20.8555L234.185 9.12977C234.185 9.12977 234.141 8.99777 234.141 8.93177C234.141 8.79977 234.185 8.68978 234.273 8.57978C234.361 8.49178 234.493 8.42578 234.625 8.42578C234.713 8.42578 234.801 8.44778 234.889 8.51378Z" fill="white"/>
<path d="M244.392 21.1191H251.234C251.498 21.1191 251.718 21.3391 251.718 21.6031C251.718 21.8671 251.498 22.0871 251.234 22.0871H244.392C244.128 22.0871 243.908 21.8671 243.908 21.6031C243.908 21.3391 244.128 21.1191 244.392 21.1191Z" fill="white"/>
<path d="M255.129 21.1191H261.97C262.234 21.1191 262.454 21.3391 262.454 21.6031C262.454 21.8671 262.234 22.0871 261.97 22.0871H255.129C254.865 22.0871 254.645 21.8671 254.645 21.6031C254.645 21.3391 254.865 21.1191 255.129 21.1191Z" fill="white"/>
<path d="M271.739 8.42578C272.003 8.42578 272.223 8.64578 272.223 8.90977C272.223 8.97577 272.223 9.04177 272.179 9.10777L267.296 20.8335C267.23 21.0095 267.032 21.1415 266.834 21.1415C266.57 21.1415 266.35 20.9215 266.35 20.6575C266.35 20.5915 266.35 20.5255 266.394 20.4595L271.278 8.73378C271.344 8.55778 271.542 8.42578 271.718 8.42578H271.739Z" fill="white"/>
<path d="M276.642 21.1191H283.484C283.748 21.1191 283.968 21.3391 283.968 21.6031C283.968 21.8671 283.748 22.0871 283.484 22.0871H276.642C276.378 22.0871 276.158 21.8671 276.158 21.6031C276.158 21.3391 276.378 21.1191 276.642 21.1191Z" fill="white"/>
<path d="M287.402 21.1191H294.244C294.508 21.1191 294.728 21.3391 294.728 21.6031C294.728 21.8671 294.508 22.0871 294.244 22.0871H287.402C287.138 22.0871 286.918 21.8671 286.918 21.6031C286.918 21.3391 287.138 21.1191 287.402 21.1191Z" fill="white"/>
<path d="M298.14 21.1191H304.982C305.246 21.1191 305.466 21.3391 305.466 21.6031C305.466 21.8671 305.246 22.0871 304.982 22.0871H298.14C297.876 22.0871 297.656 21.8671 297.656 21.6031C297.656 21.3391 297.876 21.1191 298.14 21.1191Z" fill="white"/>
<path d="M308.894 21.1191H315.736C316 21.1191 316.22 21.3391 316.22 21.6031C316.22 21.8671 316 22.0871 315.736 22.0871H308.894C308.63 22.0871 308.41 21.8671 308.41 21.6031C308.41 21.3391 308.63 21.1191 308.894 21.1191Z" fill="white"/>
<path d="M320.906 8.51378C320.906 8.51378 321.06 8.64578 321.082 8.73378L325.944 20.4595C325.944 20.4595 325.988 20.5915 325.988 20.6575C325.988 20.7895 325.944 20.8995 325.856 21.0095C325.768 21.0975 325.658 21.1635 325.526 21.1635C325.438 21.1635 325.35 21.1415 325.262 21.0755C325.174 21.0095 325.108 20.9435 325.086 20.8555L320.202 9.12977C320.202 9.12977 320.158 8.99777 320.158 8.93177C320.158 8.79977 320.202 8.68978 320.29 8.57978C320.378 8.49178 320.51 8.42578 320.642 8.42578C320.73 8.42578 320.818 8.44778 320.906 8.51378Z" fill="white"/>
<path d="M18.5699 42.2393H25.4118C25.6758 42.2393 25.8958 42.4593 25.8958 42.7232C25.8958 42.9872 25.6758 43.2072 25.4118 43.2072H18.5699C18.3059 43.2072 18.0859 42.9872 18.0859 42.7232C18.0859 42.4593 18.3059 42.2393 18.5699 42.2393Z" fill="white"/>
<path d="M35.1751 29.5459C35.439 29.5459 35.659 29.7659 35.659 30.0299C35.659 30.0959 35.659 30.1619 35.615 30.2279L30.7311 41.9537C30.6651 42.1297 30.4671 42.2616 30.2691 42.2616C30.0052 42.2616 29.7852 42.0417 29.7852 41.7777C29.7852 41.7117 29.7852 41.6237 29.8292 41.5797L34.7131 29.8539C34.7791 29.6779 34.9771 29.5459 35.153 29.5459H35.1751Z" fill="white"/>
<path d="M73.5878 29.6339C73.5878 29.6339 73.7418 29.7659 73.7638 29.8539L78.6257 41.5797C78.6257 41.5797 78.6697 41.7117 78.6697 41.7777C78.6697 41.9097 78.6257 42.0197 78.5377 42.1297C78.4497 42.2396 78.3397 42.2836 78.2077 42.2836C78.1197 42.2836 78.0317 42.2617 77.9437 42.1957C77.8557 42.1297 77.7897 42.0637 77.7677 41.9757L72.8838 30.2499C72.8838 30.2499 72.8398 30.1179 72.8398 30.0519C72.8398 29.9199 72.8838 29.8099 72.9718 29.6999C73.0598 29.5899 73.1918 29.5459 73.3238 29.5459C73.4118 29.5459 73.4998 29.5679 73.5878 29.6339Z" fill="white"/>
<path d="M83.0934 42.2393H89.9352C90.1992 42.2393 90.4192 42.4593 90.4192 42.7232C90.4192 42.9872 90.1992 43.2072 89.9352 43.2072H83.0934C82.8294 43.2072 82.6094 42.9872 82.6094 42.7232C82.6094 42.4593 82.8294 42.2393 83.0934 42.2393Z" fill="white"/>
<path d="M99.7004 29.5459C99.9644 29.5459 100.184 29.7659 100.184 30.0299C100.184 30.0959 100.184 30.1619 100.14 30.2279L95.2565 41.9537C95.1905 42.1297 94.9925 42.2616 94.7945 42.2616C94.5305 42.2616 94.3105 42.0417 94.3105 41.7777C94.3105 41.7117 94.3105 41.6237 94.3545 41.5797L99.2385 29.8539C99.3045 29.6779 99.5025 29.5459 99.6784 29.5459H99.7004Z" fill="white"/>
<path d="M128.39 34.5615H130.634C130.898 34.5615 131.118 34.7815 131.118 35.0455V36.6955C131.118 36.9595 130.898 37.1795 130.634 37.1795H128.39C128.126 37.1795 127.906 36.9595 127.906 36.6955V35.0455C127.906 34.7815 128.126 34.5615 128.39 34.5615ZM128.39 39.5554H130.634C130.898 39.5554 131.118 39.7754 131.118 40.0394V41.7554C131.118 42.0194 130.898 42.2394 130.634 42.2394H128.39C128.126 42.2394 127.906 42.0194 127.906 41.7554V40.0394C127.906 39.7754 128.126 39.5554 128.39 39.5554ZM128.896 35.5295V36.2115H130.172V35.5295H128.896ZM128.896 40.5234V41.2494H130.172V40.5234H128.896Z" fill="white"/>
<path d="M260.98 29.5459C261.244 29.5459 261.464 29.7659 261.464 30.0299C261.464 30.0959 261.464 30.1619 261.42 30.2279L256.536 41.9537C256.47 42.1297 256.272 42.2616 256.074 42.2616C255.81 42.2616 255.59 42.0417 255.59 41.7777C255.59 41.7117 255.59 41.6237 255.634 41.5797L260.518 29.8539C260.584 29.6779 260.782 29.5459 260.958 29.5459H260.98Z" fill="white"/>
<path d="M271.739 29.5459C272.003 29.5459 272.223 29.7659 272.223 30.0299C272.223 30.0959 272.223 30.1619 272.179 30.2279L267.296 41.9537C267.23 42.1297 267.032 42.2616 266.834 42.2616C266.57 42.2616 266.35 42.0417 266.35 41.7777C266.35 41.7117 266.35 41.6237 266.394 41.5797L271.278 29.8539C271.344 29.6779 271.542 29.5459 271.718 29.5459H271.739Z" fill="white"/>
<path d="M276.642 42.2393H283.484C283.748 42.2393 283.968 42.4593 283.968 42.7232C283.968 42.9872 283.748 43.2072 283.484 43.2072H276.642C276.378 43.2072 276.158 42.9872 276.158 42.7232C276.158 42.4593 276.378 42.2393 276.642 42.2393Z" fill="white"/>
<path d="M287.402 42.2393H294.244C294.508 42.2393 294.728 42.4593 294.728 42.7232C294.728 42.9872 294.508 43.2072 294.244 43.2072H287.402C287.138 43.2072 286.918 42.9872 286.918 42.7232C286.918 42.4593 287.138 42.2393 287.402 42.2393Z" fill="white"/>
<path d="M298.14 42.2393H304.982C305.246 42.2393 305.466 42.4593 305.466 42.7232C305.466 42.9872 305.246 43.2072 304.982 43.2072H298.14C297.876 43.2072 297.656 42.9872 297.656 42.7232C297.656 42.4593 297.876 42.2393 298.14 42.2393Z" fill="white"/>
<path d="M308.894 42.2393H315.736C316 42.2393 316.22 42.4593 316.22 42.7232C316.22 42.9872 316 43.2072 315.736 43.2072H308.894C308.63 43.2072 308.41 42.9872 308.41 42.7232C308.41 42.4593 308.63 42.2393 308.894 42.2393Z" fill="white"/>
<path d="M320.906 29.6339C320.906 29.6339 321.06 29.7659 321.082 29.8539L325.944 41.5797C325.944 41.5797 325.988 41.7117 325.988 41.7777C325.988 41.9097 325.944 42.0197 325.856 42.1297C325.768 42.2396 325.658 42.2836 325.526 42.2836C325.438 42.2836 325.35 42.2617 325.262 42.1957C325.174 42.1297 325.108 42.0637 325.086 41.9757L320.202 30.2499C320.202 30.2499 320.158 30.1179 320.158 30.0519C320.158 29.9199 320.202 29.8099 320.29 29.6999C320.378 29.5899 320.51 29.5459 320.642 29.5459C320.73 29.5459 320.818 29.5679 320.906 29.6339Z" fill="white"/>
<path d="M331.644 29.6339C331.644 29.6339 331.798 29.7659 331.82 29.8539L336.682 41.5797C336.682 41.5797 336.726 41.7117 336.726 41.7777C336.726 41.9097 336.682 42.0197 336.594 42.1297C336.506 42.2396 336.396 42.2836 336.264 42.2836C336.176 42.2836 336.088 42.2617 336 42.1957C335.912 42.1297 335.846 42.0637 335.824 41.9757L330.94 30.2499C330.94 30.2499 330.896 30.1179 330.896 30.0519C330.896 29.9199 330.94 29.8099 331.028 29.6999C331.116 29.5899 331.248 29.5459 331.38 29.5459C331.468 29.5459 331.556 29.5679 331.644 29.6339Z" fill="white"/>
<path d="M13.6827 50.665C13.9467 50.665 14.1667 50.885 14.1667 51.149C14.1667 51.215 14.1667 51.281 14.1227 51.347L9.23883 63.0728C9.17283 63.2488 8.97483 63.3808 8.77684 63.3808C8.51284 63.3808 8.29285 63.1608 8.29285 62.8968C8.29285 62.8308 8.29285 62.7428 8.33685 62.6988L13.2208 50.973C13.2867 50.797 13.4847 50.665 13.6607 50.665H13.6827Z" fill="white"/>
<path d="M21.9762 50.665C22.2402 50.665 22.4602 50.885 22.4602 51.149V62.8748C22.4602 63.1388 22.2402 63.3588 21.9762 63.3588C21.7122 63.3588 21.4922 63.1388 21.4922 62.8748V51.149C21.4922 50.885 21.7122 50.665 21.9762 50.665Z" fill="white"/>
<path d="M96.1383 55.6592H98.3822C98.6462 55.6592 98.8662 55.8792 98.8662 56.1432V57.7931C98.8662 58.0571 98.6462 58.2771 98.3822 58.2771H96.1383C95.8743 58.2771 95.6543 58.0571 95.6543 57.7931V56.1432C95.6543 55.8792 95.8743 55.6592 96.1383 55.6592ZM96.1383 60.6751H98.3822C98.6462 60.6751 98.8662 60.8951 98.8662 61.1591V62.875C98.8662 63.139 98.6462 63.359 98.3822 63.359H96.1383C95.8743 63.359 95.6543 63.139 95.6543 62.875V61.1591C95.6543 60.8951 95.8743 60.6751 96.1383 60.6751ZM96.6223 56.6492V57.3311H97.8983V56.6492H96.6223ZM96.6223 61.6431V62.3691H97.8983V61.6431H96.6223Z" fill="white"/>
<path d="M128.39 55.6592H130.634C130.898 55.6592 131.118 55.8792 131.118 56.1432V57.7931C131.118 58.0571 130.898 58.2771 130.634 58.2771H128.39C128.126 58.2771 127.906 58.0571 127.906 57.7931V56.1432C127.906 55.8792 128.126 55.6592 128.39 55.6592ZM128.39 60.6751H130.634C130.898 60.6751 131.118 60.8951 131.118 61.1591V62.875C131.118 63.139 130.898 63.359 130.634 63.359H128.39C128.126 63.359 127.906 63.139 127.906 62.875V61.1591C127.906 60.8951 128.126 60.6751 128.39 60.6751ZM128.896 56.6492V57.3311H130.172V56.6492H128.896ZM128.896 61.6431V62.3691H130.172V61.6431H128.896Z" fill="white"/>
<path d="M160.664 60.6748H162.908C163.172 60.6748 163.392 60.8948 163.392 61.1588V62.8748C163.392 63.1388 163.172 63.3588 162.908 63.3588H160.664C160.4 63.3588 160.18 63.1388 160.18 62.8748V61.1588C160.18 60.8948 160.4 60.6748 160.664 60.6748ZM161.148 61.6428V62.3688H162.424V61.6428H161.148Z" fill="white"/>
<path d="M171.398 60.6748H173.642C173.906 60.6748 174.126 60.8948 174.126 61.1588V62.8748C174.126 63.1388 173.906 63.3588 173.642 63.3588H171.398C171.134 63.3588 170.914 63.1388 170.914 62.8748V61.1588C170.914 60.8948 171.134 60.6748 171.398 60.6748ZM171.904 61.6428V62.3688H173.18V61.6428H171.904Z" fill="white"/>
<path d="M250.247 50.665C250.511 50.665 250.731 50.885 250.731 51.149C250.731 51.215 250.731 51.281 250.687 51.347L245.803 63.0728C245.737 63.2488 245.539 63.3808 245.341 63.3808C245.077 63.3808 244.857 63.1608 244.857 62.8968C244.857 62.8308 244.857 62.7428 244.901 62.6988L249.785 50.973C249.851 50.797 250.049 50.665 250.225 50.665H250.247Z" fill="white"/>
<path d="M342.402 50.753C342.402 50.753 342.556 50.885 342.578 50.973L347.44 62.6988C347.44 62.6988 347.484 62.8308 347.484 62.8968C347.484 63.0288 347.44 63.1388 347.352 63.2488C347.264 63.3588 347.154 63.4028 347.022 63.4028C346.934 63.4028 346.846 63.3808 346.758 63.3148C346.67 63.2488 346.604 63.1828 346.582 63.0948L341.698 51.369C341.698 51.369 341.654 51.237 341.654 51.171C341.654 51.039 341.698 50.929 341.786 50.819C341.874 50.709 342.006 50.665 342.138 50.665C342.226 50.665 342.314 50.687 342.402 50.753Z" fill="white"/>
<path d="M0.483991 71.7842C0.747985 71.7842 0.967981 72.0042 0.967981 72.2682V83.9939C0.967981 84.2799 0.747985 84.4999 0.483991 84.4999C0.219996 84.4999 0 84.2799 0 84.0159V72.2902C0 72.0262 0.219996 71.8062 0.483991 71.8062V71.7842Z" fill="white"/>
<path d="M21.9762 71.7852C22.2402 71.7852 22.4602 72.0051 22.4602 72.2691V83.9949C22.4602 84.2809 22.2402 84.5009 21.9762 84.5009C21.7122 84.5009 21.4922 84.2809 21.4922 84.0169V72.2911C21.4922 72.0272 21.7122 71.8072 21.9762 71.8072V71.7852Z" fill="white"/>
<path d="M85.3805 76.8008H87.6244C87.8884 76.8008 88.1084 77.0208 88.1084 77.2848V78.9347C88.1084 79.1987 87.8884 79.4187 87.6244 79.4187H85.3805C85.1165 79.4187 84.8965 79.1987 84.8965 78.9347V77.2848C84.8965 77.0208 85.1165 76.8008 85.3805 76.8008ZM85.3805 81.7947H87.6244C87.8884 81.7947 88.1084 82.0147 88.1084 82.2787V83.9946C88.1084 84.2586 87.8884 84.4786 87.6244 84.4786H85.3805C85.1165 84.4786 84.8965 84.2586 84.8965 83.9946V82.2787C84.8965 82.0147 85.1165 81.7947 85.3805 81.7947ZM85.8865 77.7688V78.4507H87.1624V77.7688H85.8865ZM85.8865 82.7627V83.4887H87.1624V82.7627H85.8865Z" fill="white"/>
<path d="M96.1383 76.8008H98.3822C98.6462 76.8008 98.8662 77.0208 98.8662 77.2848V78.9347C98.8662 79.1987 98.6462 79.4187 98.3822 79.4187H96.1383C95.8743 79.4187 95.6543 79.1987 95.6543 78.9347V77.2848C95.6543 77.0208 95.8743 76.8008 96.1383 76.8008ZM96.1383 81.7947H98.3822C98.6462 81.7947 98.8662 82.0147 98.8662 82.2787V83.9946C98.8662 84.2586 98.6462 84.4786 98.3822 84.4786H96.1383C95.8743 84.4786 95.6543 84.2586 95.6543 83.9946V82.2787C95.6543 82.0147 95.8743 81.7947 96.1383 81.7947ZM96.6223 77.7688V78.4507H97.8983V77.7688H96.6223ZM96.6223 82.7627V83.4887H97.8983V82.7627H96.6223Z" fill="white"/>
<path d="M160.664 76.8008H162.908C163.172 76.8008 163.392 77.0208 163.392 77.2848V78.9347C163.392 79.1987 163.172 79.4187 162.908 79.4187H160.664C160.4 79.4187 160.18 79.1987 160.18 78.9347V77.2848C160.18 77.0208 160.4 76.8008 160.664 76.8008ZM160.664 81.7947H162.908C163.172 81.7947 163.392 82.0147 163.392 82.2787V83.9946C163.392 84.2586 163.172 84.4786 162.908 84.4786H160.664C160.4 84.4786 160.18 84.2586 160.18 83.9946V82.2787C160.18 82.0147 160.4 81.7947 160.664 81.7947ZM161.148 77.7688V78.4507H162.424V77.7688H161.148ZM161.148 82.7627V83.4887H162.424V82.7627H161.148Z" fill="white"/>
<path d="M171.398 76.8008H173.642C173.906 76.8008 174.126 77.0208 174.126 77.2848V78.9347C174.126 79.1987 173.906 79.4187 173.642 79.4187H171.398C171.134 79.4187 170.914 79.1987 170.914 78.9347V77.2848C170.914 77.0208 171.134 76.8008 171.398 76.8008ZM171.398 81.7947H173.642C173.906 81.7947 174.126 82.0147 174.126 82.2787V83.9946C174.126 84.2586 173.906 84.4786 173.642 84.4786H171.398C171.134 84.4786 170.914 84.2586 170.914 83.9946V82.2787C170.914 82.0147 171.134 81.7947 171.398 81.7947ZM171.904 77.7688V78.4507H173.18V77.7688H171.904ZM171.904 82.7627V83.4887H173.18V82.7627H171.904Z" fill="white"/>
<path d="M245.627 71.8731C245.627 71.8731 245.781 72.0052 245.803 72.0931L250.665 83.8189C250.665 83.8189 250.709 83.9509 250.709 84.0169C250.709 84.1489 250.665 84.2589 250.577 84.3689C250.489 84.4569 250.379 84.5229 250.247 84.5229C250.159 84.5229 250.071 84.5009 249.983 84.4349C249.895 84.3689 249.829 84.3029 249.807 84.2149L244.923 72.4891C244.923 72.4891 244.879 72.3571 244.879 72.2911C244.879 72.1591 244.923 72.0492 245.011 71.9392C245.099 71.8512 245.231 71.7852 245.363 71.7852C245.451 71.7852 245.539 71.8071 245.627 71.8731Z" fill="white"/>
<path d="M346.997 71.7852C347.261 71.7852 347.481 72.0051 347.481 72.2691C347.481 72.3351 347.481 72.4011 347.437 72.4671L342.553 84.1929C342.487 84.3689 342.289 84.5009 342.091 84.5009C341.827 84.5009 341.607 84.2809 341.607 84.0169C341.607 83.9509 341.607 83.8849 341.651 83.8189L346.535 72.0931C346.601 71.9172 346.799 71.7852 346.975 71.7852H346.997Z" fill="white"/>
<path d="M0.483991 92.9041C0.747985 92.9041 0.967981 93.1241 0.967981 93.388V105.114C0.967981 105.378 0.747985 105.598 0.483991 105.598C0.219996 105.598 0 105.378 0 105.114V93.388C0 93.1241 0.219996 92.9041 0.483991 92.9041Z" fill="white"/>
<path d="M21.9762 92.9043C22.2402 92.9043 22.4602 93.1243 22.4602 93.3883V105.114C22.4602 105.378 22.2402 105.598 21.9762 105.598C21.7122 105.598 21.4922 105.378 21.4922 105.114V93.3883C21.4922 93.1243 21.7122 92.9043 21.9762 92.9043Z" fill="white"/>
<path d="M85.3805 97.8984H87.6244C87.8884 97.8984 88.1084 98.1184 88.1084 98.3824V100.032C88.1084 100.296 87.8884 100.516 87.6244 100.516H85.3805C85.1165 100.516 84.8965 100.296 84.8965 100.032V98.3824C84.8965 98.1184 85.1165 97.8984 85.3805 97.8984ZM85.3805 102.914H87.6244C87.8884 102.914 88.1084 103.134 88.1084 103.398V105.114C88.1084 105.378 87.8884 105.598 87.6244 105.598H85.3805C85.1165 105.598 84.8965 105.378 84.8965 105.114V103.398C84.8965 103.134 85.1165 102.914 85.3805 102.914ZM85.8865 98.8884V99.5704H87.1624V98.8884H85.8865ZM85.8865 103.882V104.608H87.1624V103.882H85.8865Z" fill="white"/>
<path d="M97.2613 92.9043C97.5253 92.9043 97.7453 93.1243 97.7453 93.3883V105.114C97.7453 105.378 97.5253 105.598 97.2613 105.598C96.9973 105.598 96.7773 105.378 96.7773 105.114V93.3883C96.7773 93.1243 96.9973 92.9043 97.2613 92.9043Z" fill="white"/>
<path d="M161.763 92.9043C162.027 92.9043 162.247 93.1243 162.247 93.3883V105.114C162.247 105.378 162.027 105.598 161.763 105.598C161.499 105.598 161.279 105.378 161.279 105.114V93.3883C161.279 93.1243 161.499 92.9043 161.763 92.9043Z" fill="white"/>
<path d="M172.519 92.9041C172.783 92.9041 173.003 93.1241 173.003 93.388V105.114C173.003 105.378 172.783 105.598 172.519 105.598C172.255 105.598 172.035 105.378 172.035 105.114V93.388C172.035 93.1241 172.255 92.9041 172.519 92.9041Z" fill="white"/>
<path d="M234.889 92.9921C234.889 92.9921 235.043 93.124 235.065 93.212L239.927 104.938C239.927 104.938 239.971 105.07 239.971 105.136C239.971 105.268 239.927 105.378 239.839 105.488C239.751 105.598 239.641 105.642 239.509 105.642C239.421 105.642 239.333 105.62 239.245 105.554C239.157 105.488 239.091 105.422 239.069 105.334L234.185 93.608C234.185 93.608 234.141 93.476 234.141 93.41C234.141 93.278 234.185 93.168 234.273 93.058C234.361 92.9481 234.493 92.9041 234.625 92.9041C234.713 92.9041 234.801 92.9261 234.889 92.9921Z" fill="white"/>
<path d="M256.381 92.9923C256.381 92.9923 256.535 93.1243 256.557 93.2123L261.419 104.938C261.419 104.938 261.463 105.07 261.463 105.136C261.463 105.268 261.419 105.378 261.331 105.488C261.243 105.598 261.133 105.642 261.001 105.642C260.913 105.642 260.825 105.62 260.737 105.554C260.649 105.488 260.583 105.422 260.561 105.334L255.677 93.6083C255.677 93.6083 255.633 93.4763 255.633 93.4103C255.633 93.2783 255.677 93.1683 255.765 93.0583C255.853 92.9483 255.985 92.9043 256.117 92.9043C256.205 92.9043 256.293 92.9263 256.381 92.9923Z" fill="white"/>
<path d="M265.888 105.598H272.73C272.994 105.598 273.214 105.818 273.214 106.082C273.214 106.346 272.994 106.566 272.73 106.566H265.888C265.624 106.566 265.404 106.346 265.404 106.082C265.404 105.818 265.624 105.598 265.888 105.598Z" fill="white"/>
<path d="M276.642 105.598H283.484C283.748 105.598 283.968 105.818 283.968 106.082C283.968 106.346 283.748 106.566 283.484 106.566H276.642C276.378 106.566 276.158 106.346 276.158 106.082C276.158 105.818 276.378 105.598 276.642 105.598Z" fill="white"/>
<path d="M287.402 105.598H294.244C294.508 105.598 294.728 105.818 294.728 106.082C294.728 106.346 294.508 106.566 294.244 106.566H287.402C287.138 106.566 286.918 106.346 286.918 106.082C286.918 105.818 287.138 105.598 287.402 105.598Z" fill="white"/>
<path d="M298.14 105.598H304.982C305.246 105.598 305.466 105.818 305.466 106.082C305.466 106.346 305.246 106.566 304.982 106.566H298.14C297.876 106.566 297.656 106.346 297.656 106.082C297.656 105.818 297.876 105.598 298.14 105.598Z" fill="white"/>
<path d="M308.894 105.598H315.736C316 105.598 316.22 105.818 316.22 106.082C316.22 106.346 316 106.566 315.736 106.566H308.894C308.63 106.566 308.41 106.346 308.41 106.082C308.41 105.818 308.63 105.598 308.894 105.598Z" fill="white"/>
<path d="M319.654 105.598H326.496C326.76 105.598 326.98 105.818 326.98 106.082C326.98 106.346 326.76 106.566 326.496 106.566H319.654C319.39 106.566 319.17 106.346 319.17 106.082C319.17 105.818 319.39 105.598 319.654 105.598Z" fill="white"/>
<path d="M336.265 92.9043C336.529 92.9043 336.749 93.1243 336.749 93.3883C336.749 93.4543 336.749 93.5203 336.705 93.5863L331.821 105.312C331.755 105.488 331.557 105.62 331.359 105.62C331.095 105.62 330.875 105.4 330.875 105.136C330.875 105.07 330.875 104.982 330.919 104.938L335.803 93.2123C335.869 93.0363 336.067 92.9043 336.243 92.9043H336.265Z" fill="white"/>
<path d="M0.483991 114.024C0.747985 114.024 0.967981 114.244 0.967981 114.508V126.234C0.967981 126.52 0.747985 126.74 0.483991 126.74C0.219996 126.74 0 126.52 0 126.256V114.53C0 114.266 0.219996 114.046 0.483991 114.046V114.024Z" fill="white"/>
<path d="M21.9762 114.023C22.2402 114.023 22.4602 114.243 22.4602 114.507V126.233C22.4602 126.519 22.2402 126.739 21.9762 126.739C21.7122 126.739 21.4922 126.519 21.4922 126.255V114.529C21.4922 114.265 21.7122 114.045 21.9762 114.045V114.023Z" fill="white"/>
<path d="M86.5016 114.024C86.7656 114.024 86.9856 114.244 86.9856 114.508V126.234C86.9856 126.52 86.7656 126.74 86.5016 126.74C86.2376 126.74 86.0176 126.52 86.0176 126.256V114.53C86.0176 114.266 86.2376 114.046 86.5016 114.046V114.024Z" fill="white"/>
<path d="M97.2613 114.023C97.5253 114.023 97.7453 114.243 97.7453 114.507V126.233C97.7453 126.519 97.5253 126.739 97.2613 126.739C96.9973 126.739 96.7773 126.519 96.7773 126.255V114.529C96.7773 114.265 96.9973 114.045 97.2613 114.045V114.023Z" fill="white"/>
<path d="M161.763 114.023C162.027 114.023 162.247 114.243 162.247 114.507V126.233C162.247 126.519 162.027 126.739 161.763 126.739C161.499 126.739 161.279 126.519 161.279 126.255V114.529C161.279 114.265 161.499 114.045 161.763 114.045V114.023Z" fill="white"/>
<path d="M172.519 114.024C172.783 114.024 173.003 114.244 173.003 114.508V126.234C173.003 126.52 172.783 126.74 172.519 126.74C172.255 126.74 172.035 126.52 172.035 126.256V114.53C172.035 114.266 172.255 114.046 172.519 114.046V114.024Z" fill="white"/>
<path d="M247.802 114.023C248.066 114.023 248.286 114.243 248.286 114.507V126.233C248.286 126.519 248.066 126.739 247.802 126.739C247.538 126.739 247.318 126.519 247.318 126.255V114.529C247.318 114.265 247.538 114.045 247.802 114.045V114.023Z" fill="white"/>
<path d="M256.381 114.111C256.381 114.111 256.535 114.243 256.557 114.331L261.419 126.057C261.419 126.057 261.463 126.189 261.463 126.255C261.463 126.387 261.419 126.497 261.331 126.607C261.243 126.695 261.133 126.761 261.001 126.761C260.913 126.761 260.825 126.739 260.737 126.673C260.649 126.607 260.583 126.541 260.561 126.453L255.677 114.727C255.677 114.727 255.633 114.595 255.633 114.529C255.633 114.397 255.677 114.287 255.765 114.177C255.853 114.089 255.985 114.023 256.117 114.023C256.205 114.023 256.293 114.045 256.381 114.111Z" fill="white"/>
<path d="M293.253 114.023C293.517 114.023 293.737 114.243 293.737 114.507C293.737 114.573 293.737 114.639 293.693 114.705L288.809 126.431C288.743 126.607 288.545 126.739 288.347 126.739C288.083 126.739 287.863 126.519 287.863 126.255C287.863 126.189 287.863 126.123 287.907 126.057L292.791 114.331C292.857 114.155 293.055 114.023 293.231 114.023H293.253Z" fill="white"/>
<path d="M323.066 114.023C323.33 114.023 323.55 114.243 323.55 114.507V126.233C323.55 126.519 323.33 126.739 323.066 126.739C322.802 126.739 322.582 126.519 322.582 126.255V114.529C322.582 114.265 322.802 114.045 323.066 114.045V114.023Z" fill="white"/>
<path d="M9.06232 135.232C9.06232 135.232 9.21631 135.364 9.23831 135.452L14.1002 147.178C14.1002 147.178 14.1442 147.31 14.1442 147.376C14.1442 147.508 14.1002 147.618 14.0122 147.728C13.9242 147.838 13.8142 147.882 13.6822 147.882C13.5942 147.882 13.5062 147.86 13.4182 147.794C13.3302 147.728 13.2642 147.662 13.2422 147.574L8.35833 135.848C8.35833 135.848 8.31433 135.716 8.31433 135.65C8.31433 135.518 8.35833 135.408 8.44633 135.298C8.53433 135.188 8.66632 135.144 8.79832 135.144C8.88632 135.144 8.97432 135.166 9.06232 135.232Z" fill="white"/>
<path d="M21.9762 135.144C22.2402 135.144 22.4602 135.364 22.4602 135.628V147.353C22.4602 147.617 22.2402 147.837 21.9762 147.837C21.7122 147.837 21.4922 147.617 21.4922 147.353V135.628C21.4922 135.364 21.7122 135.144 21.9762 135.144Z" fill="white"/>
<path d="M86.5014 135.144C86.7654 135.144 86.9854 135.364 86.9854 135.628V147.354C86.9854 147.618 86.7654 147.838 86.5014 147.838C86.2375 147.838 86.0175 147.618 86.0175 147.354V135.628C86.0175 135.364 86.2375 135.144 86.5014 135.144Z" fill="white"/>
<path d="M97.2613 135.144C97.5253 135.144 97.7453 135.364 97.7453 135.628V147.353C97.7453 147.617 97.5253 147.837 97.2613 147.837C96.9973 147.837 96.7773 147.617 96.7773 147.353V135.628C96.7773 135.364 96.9973 135.144 97.2613 135.144Z" fill="white"/>
<path d="M161.763 135.144C162.027 135.144 162.247 135.364 162.247 135.628V147.353C162.247 147.617 162.027 147.837 161.763 147.837C161.499 147.837 161.279 147.617 161.279 147.353V135.628C161.279 135.364 161.499 135.144 161.763 135.144Z" fill="white"/>
<path d="M172.519 135.144C172.783 135.144 173.003 135.364 173.003 135.628V147.354C173.003 147.618 172.783 147.838 172.519 147.838C172.255 147.838 172.035 147.618 172.035 147.354V135.628C172.035 135.364 172.255 135.144 172.519 135.144Z" fill="white"/>
<path d="M247.802 135.144C248.066 135.144 248.286 135.364 248.286 135.628V147.353C248.286 147.617 248.066 147.837 247.802 147.837C247.538 147.837 247.318 147.617 247.318 147.353V135.628C247.318 135.364 247.538 135.144 247.802 135.144Z" fill="white"/>
<path d="M293.253 135.144C293.517 135.144 293.737 135.364 293.737 135.628C293.737 135.694 293.737 135.76 293.693 135.826L288.809 147.551C288.743 147.727 288.545 147.859 288.347 147.859C288.083 147.859 287.863 147.639 287.863 147.375C287.863 147.309 287.863 147.221 287.907 147.177L292.791 135.452C292.857 135.276 293.055 135.144 293.231 135.144H293.253Z" fill="white"/>
<path d="M312.307 135.144C312.57 135.144 312.79 135.364 312.79 135.628V147.354C312.79 147.618 312.57 147.838 312.307 147.838C312.043 147.838 311.823 147.618 311.823 147.354V135.628C311.823 135.364 312.043 135.144 312.307 135.144Z" fill="white"/>
<path d="M331.644 135.232C331.644 135.232 331.798 135.364 331.82 135.452L336.682 147.177C336.682 147.177 336.726 147.309 336.726 147.375C336.726 147.507 336.682 147.617 336.594 147.727C336.506 147.837 336.396 147.881 336.264 147.881C336.176 147.881 336.088 147.859 336 147.793C335.912 147.727 335.846 147.661 335.824 147.573L330.94 135.848C330.94 135.848 330.896 135.716 330.896 135.65C330.896 135.518 330.94 135.408 331.028 135.298C331.116 135.188 331.248 135.144 331.38 135.144C331.468 135.144 331.556 135.166 331.644 135.232Z" fill="white"/>
<path d="M21.9762 156.263C22.2402 156.263 22.4602 156.483 22.4602 156.747V168.472C22.4602 168.736 22.2402 168.956 21.9762 168.956C21.7122 168.956 21.4922 168.736 21.4922 168.472V156.747C21.4922 156.483 21.7122 156.263 21.9762 156.263Z" fill="white"/>
<path d="M86.5016 156.263C86.7656 156.263 86.9856 156.483 86.9856 156.747V168.472C86.9856 168.736 86.7656 168.956 86.5016 168.956C86.2376 168.956 86.0176 168.736 86.0176 168.472V156.747C86.0176 156.483 86.2376 156.263 86.5016 156.263Z" fill="white"/>
<path d="M97.2613 156.263C97.5253 156.263 97.7453 156.483 97.7453 156.747V168.472C97.7453 168.736 97.5253 168.956 97.2613 168.956C96.9973 168.956 96.7773 168.736 96.7773 168.472V156.747C96.7773 156.483 96.9973 156.263 97.2613 156.263Z" fill="white"/>
<path d="M161.763 156.263C162.027 156.263 162.247 156.483 162.247 156.747V168.472C162.247 168.736 162.027 168.956 161.763 168.956C161.499 168.956 161.279 168.736 161.279 168.472V156.747C161.279 156.483 161.499 156.263 161.763 156.263Z" fill="white"/>
<path d="M172.519 156.263C172.783 156.263 173.003 156.483 173.003 156.747V168.472C173.003 168.736 172.783 168.956 172.519 168.956C172.255 168.956 172.035 168.736 172.035 168.472V156.747C172.035 156.483 172.255 156.263 172.519 156.263Z" fill="white"/>
<path d="M247.802 156.263C248.066 156.263 248.286 156.483 248.286 156.747V168.472C248.286 168.736 248.066 168.956 247.802 168.956C247.538 168.956 247.318 168.736 247.318 168.472V156.747C247.318 156.483 247.538 156.263 247.802 156.263Z" fill="white"/>
<path d="M282.499 156.263C282.763 156.263 282.983 156.483 282.983 156.747C282.983 156.813 282.983 156.879 282.939 156.945L278.055 168.67C277.989 168.846 277.791 168.978 277.593 168.978C277.329 168.978 277.109 168.758 277.109 168.494C277.109 168.428 277.109 168.34 277.153 168.296L282.037 156.571C282.103 156.395 282.301 156.263 282.477 156.263H282.499Z" fill="white"/>
<path d="M303.991 156.263C304.255 156.263 304.475 156.483 304.475 156.747C304.475 156.813 304.475 156.879 304.431 156.945L299.548 168.67C299.482 168.846 299.284 168.978 299.086 168.978C298.822 168.978 298.602 168.758 298.602 168.494C298.602 168.428 298.602 168.34 298.646 168.296L303.529 156.571C303.595 156.395 303.793 156.263 303.969 156.263H303.991Z" fill="white"/>
<path d="M308.894 168.957H315.736C316 168.957 316.22 169.177 316.22 169.441C316.22 169.705 316 169.925 315.736 169.925H308.894C308.63 169.925 308.41 169.705 308.41 169.441C308.41 169.177 308.63 168.957 308.894 168.957Z" fill="white"/>
<path d="M320.906 156.351C320.906 156.351 321.06 156.483 321.082 156.571L325.944 168.296C325.944 168.296 325.988 168.428 325.988 168.494C325.988 168.626 325.944 168.736 325.856 168.846C325.768 168.956 325.658 169 325.526 169C325.438 169 325.35 168.978 325.262 168.912C325.174 168.846 325.108 168.78 325.086 168.692L320.202 156.967C320.202 156.967 320.158 156.835 320.158 156.769C320.158 156.637 320.202 156.527 320.29 156.417C320.378 156.307 320.51 156.263 320.642 156.263C320.73 156.263 320.818 156.285 320.906 156.351Z" fill="white"/>
<path d="M342.402 156.351C342.402 156.351 342.556 156.483 342.578 156.571L347.44 168.296C347.44 168.296 347.484 168.428 347.484 168.494C347.484 168.626 347.44 168.736 347.352 168.846C347.264 168.956 347.154 169 347.022 169C346.934 169 346.846 168.978 346.758 168.912C346.67 168.846 346.604 168.78 346.582 168.692L341.698 156.967C341.698 156.967 341.654 156.835 341.654 156.769C341.654 156.637 341.698 156.527 341.786 156.417C341.874 156.307 342.006 156.263 342.138 156.263C342.226 156.263 342.314 156.285 342.402 156.351Z" fill="white"/>
<path d="M21.9762 177.383C22.2402 177.383 22.4602 177.603 22.4602 177.867V189.593C22.4602 189.879 22.2402 190.099 21.9762 190.099C21.7122 190.099 21.4922 189.879 21.4922 189.615V177.889C21.4922 177.625 21.7122 177.405 21.9762 177.405V177.383Z" fill="white"/>
<path d="M40.0836 190.076H46.9255C47.1895 190.076 47.4095 190.296 47.4095 190.56C47.4095 190.824 47.1895 191.044 46.9255 191.044H40.0836C39.8196 191.044 39.5996 190.824 39.5996 190.56C39.5996 190.296 39.8196 190.076 40.0836 190.076Z" fill="white"/>
<path d="M50.8414 190.076H57.6833C57.9473 190.076 58.1673 190.296 58.1673 190.56C58.1673 190.824 57.9473 191.044 57.6833 191.044H50.8414C50.5774 191.044 50.3574 190.824 50.3574 190.56C50.3574 190.296 50.5774 190.076 50.8414 190.076Z" fill="white"/>
<path d="M61.5758 190.076H68.4177C68.6816 190.076 68.9016 190.296 68.9016 190.56C68.9016 190.824 68.6816 191.044 68.4177 191.044H61.5758C61.3118 191.044 61.0918 190.824 61.0918 190.56C61.0918 190.296 61.3118 190.076 61.5758 190.076Z" fill="white"/>
<path d="M86.5016 177.382C86.7656 177.382 86.9856 177.602 86.9856 177.866V189.592C86.9856 189.878 86.7656 190.098 86.5016 190.098C86.2376 190.098 86.0176 189.878 86.0176 189.614V177.888C86.0176 177.624 86.2376 177.404 86.5016 177.404V177.382Z" fill="white"/>
<path d="M97.2613 177.383C97.5253 177.383 97.7453 177.603 97.7453 177.867V189.593C97.7453 189.879 97.5253 190.099 97.2613 190.099C96.9973 190.099 96.7773 189.879 96.7773 189.615V177.889C96.7773 177.625 96.9973 177.405 97.2613 177.405V177.383Z" fill="white"/>
<path d="M115.345 190.076H122.187C122.451 190.076 122.671 190.296 122.671 190.56C122.671 190.824 122.451 191.044 122.187 191.044H115.345C115.081 191.044 114.861 190.824 114.861 190.56C114.861 190.296 115.081 190.076 115.345 190.076Z" fill="white"/>
<path d="M126.101 190.076H132.943C133.207 190.076 133.427 190.296 133.427 190.56C133.427 190.824 133.207 191.044 132.943 191.044H126.101C125.837 191.044 125.617 190.824 125.617 190.56C125.617 190.296 125.837 190.076 126.101 190.076Z" fill="white"/>
<path d="M136.859 190.076H143.701C143.965 190.076 144.185 190.296 144.185 190.56C144.185 190.824 143.965 191.044 143.701 191.044H136.859C136.595 191.044 136.375 190.824 136.375 190.56C136.375 190.296 136.595 190.076 136.859 190.076Z" fill="white"/>
<path d="M161.763 177.383C162.027 177.383 162.247 177.603 162.247 177.867V189.593C162.247 189.879 162.027 190.099 161.763 190.099C161.499 190.099 161.279 189.879 161.279 189.615V177.889C161.279 177.625 161.499 177.405 161.763 177.405V177.383Z" fill="white"/>
<path d="M172.519 177.382C172.783 177.382 173.003 177.602 173.003 177.866V189.592C173.003 189.878 172.783 190.098 172.519 190.098C172.255 190.098 172.035 189.878 172.035 189.614V177.888C172.035 177.624 172.255 177.404 172.519 177.404V177.382Z" fill="white"/>
<path d="M247.802 177.383C248.066 177.383 248.286 177.603 248.286 177.867V189.593C248.286 189.879 248.066 190.099 247.802 190.099C247.538 190.099 247.318 189.879 247.318 189.615V177.889C247.318 177.625 247.538 177.405 247.802 177.405V177.383Z" fill="white"/>
<path d="M271.739 177.382C272.003 177.382 272.223 177.602 272.223 177.866C272.223 177.932 272.223 177.998 272.179 178.064L267.296 189.79C267.23 189.966 267.032 190.098 266.834 190.098C266.57 190.098 266.35 189.878 266.35 189.614C266.35 189.548 266.35 189.482 266.394 189.416L271.278 177.69C271.344 177.514 271.542 177.382 271.718 177.382H271.739Z" fill="white"/>
<path d="M303.991 177.383C304.255 177.383 304.475 177.603 304.475 177.867C304.475 177.933 304.475 177.999 304.431 178.065L299.548 189.791C299.482 189.967 299.284 190.099 299.086 190.099C298.822 190.099 298.602 189.879 298.602 189.615C298.602 189.549 298.602 189.483 298.646 189.417L303.529 177.691C303.595 177.515 303.793 177.383 303.969 177.383H303.991Z" fill="white"/>
<path d="M353.158 177.471C353.158 177.471 353.312 177.603 353.334 177.691L358.196 189.417C358.196 189.417 358.24 189.549 358.24 189.615C358.24 189.747 358.196 189.857 358.108 189.967C358.02 190.055 357.91 190.121 357.778 190.121C357.69 190.121 357.602 190.099 357.514 190.033C357.426 189.967 357.36 189.901 357.338 189.813L352.454 178.087C352.454 178.087 352.41 177.955 352.41 177.889C352.41 177.757 352.454 177.647 352.542 177.537C352.63 177.449 352.762 177.383 352.894 177.383C352.982 177.383 353.07 177.405 353.158 177.471Z" fill="white"/>
<path d="M30.58 198.59C30.58 198.59 30.734 198.722 30.756 198.81L35.6179 210.536C35.6179 210.536 35.6619 210.668 35.6619 210.734C35.6619 210.866 35.6179 210.976 35.5299 211.086C35.4419 211.196 35.3319 211.24 35.1999 211.24C35.1119 211.24 35.0239 211.218 34.9359 211.152C34.8479 211.086 34.7819 211.02 34.7599 210.932L29.876 199.206C29.876 199.206 29.832 199.074 29.832 199.008C29.832 198.876 29.876 198.766 29.964 198.656C30.052 198.546 30.184 198.502 30.316 198.502C30.404 198.502 30.492 198.524 30.58 198.59Z" fill="white"/>
<path d="M40.0836 211.195H46.9255C47.1895 211.195 47.4095 211.415 47.4095 211.679C47.4095 211.943 47.1895 212.163 46.9255 212.163H40.0836C39.8196 212.163 39.5996 211.943 39.5996 211.679C39.5996 211.415 39.8196 211.195 40.0836 211.195Z" fill="white"/>
<path d="M56.6921 204.376C56.6921 204.376 56.8461 204.376 56.9341 204.442C57.0221 204.508 57.0661 204.552 57.1101 204.618C57.1541 204.706 57.1761 204.772 57.1761 204.86C57.1761 204.948 57.1541 205.036 57.1101 205.102C57.0661 205.19 57.0001 205.234 56.9341 205.278C56.8681 205.322 56.7801 205.344 56.6921 205.344H51.8082C51.6762 205.344 51.5442 205.3 51.4562 205.212C51.3682 205.124 51.3242 205.014 51.3242 204.86C51.3242 204.706 51.3682 204.618 51.4562 204.508C51.5442 204.42 51.6762 204.376 51.8082 204.376H56.6701H56.6921Z" fill="white"/>
<path d="M61.5758 211.196H68.4177C68.6816 211.196 68.9016 211.416 68.9016 211.68C68.9016 211.944 68.6816 212.164 68.4177 212.164H61.5758C61.3118 212.164 61.0918 211.944 61.0918 211.68C61.0918 211.416 61.3118 211.196 61.5758 211.196Z" fill="white"/>
<path d="M78.1868 198.502C78.4508 198.502 78.6708 198.722 78.6708 198.986C78.6708 199.052 78.6708 199.118 78.6268 199.184L73.7429 210.91C73.6769 211.086 73.4789 211.218 73.2809 211.218C73.0169 211.218 72.7969 210.998 72.7969 210.734C72.7969 210.668 72.7969 210.58 72.8409 210.536L77.7248 198.81C77.7908 198.634 77.9888 198.502 78.1648 198.502H78.1868Z" fill="white"/>
<path d="M105.84 198.59C105.84 198.59 105.994 198.722 106.016 198.81L110.878 210.536C110.878 210.536 110.922 210.668 110.922 210.734C110.922 210.866 110.878 210.976 110.79 211.086C110.702 211.196 110.592 211.24 110.46 211.24C110.372 211.24 110.284 211.218 110.196 211.152C110.108 211.086 110.042 211.02 110.02 210.932L105.136 199.206C105.136 199.206 105.092 199.074 105.092 199.008C105.092 198.876 105.136 198.766 105.224 198.656C105.312 198.546 105.444 198.502 105.576 198.502C105.664 198.502 105.752 198.524 105.84 198.59Z" fill="white"/>
<path d="M115.345 211.195H122.187C122.451 211.195 122.671 211.415 122.671 211.679C122.671 211.943 122.451 212.163 122.187 212.163H115.345C115.081 212.163 114.861 211.943 114.861 211.679C114.861 211.415 115.081 211.195 115.345 211.195Z" fill="white"/>
<path d="M131.952 204.376C131.952 204.376 132.106 204.376 132.194 204.442C132.282 204.508 132.326 204.552 132.37 204.618C132.414 204.706 132.436 204.772 132.436 204.86C132.436 204.948 132.414 205.036 132.37 205.102C132.326 205.19 132.26 205.234 132.194 205.278C132.128 205.322 132.04 205.344 131.952 205.344H127.068C126.936 205.344 126.804 205.3 126.716 205.212C126.628 205.124 126.584 205.014 126.584 204.86C126.584 204.706 126.628 204.618 126.716 204.508C126.804 204.42 126.936 204.376 127.068 204.376H131.93H131.952Z" fill="white"/>
<path d="M136.859 211.195H143.701C143.965 211.195 144.185 211.415 144.185 211.679C144.185 211.943 143.965 212.163 143.701 212.163H136.859C136.595 212.163 136.375 211.943 136.375 211.679C136.375 211.415 136.595 211.195 136.859 211.195Z" fill="white"/>
<path d="M153.47 198.502C153.734 198.502 153.954 198.722 153.954 198.986C153.954 199.052 153.954 199.118 153.91 199.184L149.026 210.91C148.96 211.086 148.762 211.218 148.564 211.218C148.3 211.218 148.08 210.998 148.08 210.734C148.08 210.668 148.08 210.58 148.124 210.536L153.008 198.81C153.074 198.634 153.272 198.502 153.448 198.502H153.47Z" fill="white"/>
<path d="M172.519 198.502C172.783 198.502 173.003 198.722 173.003 198.986V210.712C173.003 210.976 172.783 211.196 172.519 211.196C172.255 211.196 172.035 210.976 172.035 210.712V198.986C172.035 198.722 172.255 198.502 172.519 198.502Z" fill="white"/>
<path d="M190.625 211.195H197.466C197.73 211.195 197.95 211.415 197.95 211.679C197.95 211.943 197.73 212.163 197.466 212.163H190.625C190.361 212.163 190.141 211.943 190.141 211.679C190.141 211.415 190.361 211.195 190.625 211.195Z" fill="white"/>
<path d="M201.363 211.195H208.205C208.469 211.195 208.689 211.415 208.689 211.679C208.689 211.943 208.469 212.163 208.205 212.163H201.363C201.099 212.163 200.879 211.943 200.879 211.679C200.879 211.415 201.099 211.195 201.363 211.195Z" fill="white"/>
<path d="M212.119 211.195H218.961C219.225 211.195 219.445 211.415 219.445 211.679C219.445 211.943 219.225 212.163 218.961 212.163H212.119C211.855 212.163 211.635 211.943 211.635 211.679C211.635 211.415 211.855 211.195 212.119 211.195Z" fill="white"/>
<path d="M222.877 211.195H229.718C229.982 211.195 230.202 211.415 230.202 211.679C230.202 211.943 229.982 212.163 229.718 212.163H222.877C222.613 212.163 222.393 211.943 222.393 211.679C222.393 211.415 222.613 211.195 222.877 211.195Z" fill="white"/>
<path d="M247.802 198.502C248.066 198.502 248.286 198.722 248.286 198.986V210.712C248.286 210.976 248.066 211.196 247.802 211.196C247.538 211.196 247.318 210.976 247.318 210.712V198.986C247.318 198.722 247.538 198.502 247.802 198.502Z" fill="white"/>
<path d="M260.98 198.502C261.244 198.502 261.464 198.722 261.464 198.986C261.464 199.052 261.464 199.118 261.42 199.184L256.536 210.91C256.47 211.086 256.272 211.218 256.074 211.218C255.81 211.218 255.59 210.998 255.59 210.734C255.59 210.668 255.59 210.58 255.634 210.536L260.518 198.81C260.584 198.634 260.782 198.502 260.958 198.502H260.98Z" fill="white"/>
<path d="M265.888 211.196H272.73C272.994 211.196 273.214 211.416 273.214 211.68C273.214 211.944 272.994 212.164 272.73 212.164H265.888C265.624 212.164 265.404 211.944 265.404 211.68C265.404 211.416 265.624 211.196 265.888 211.196Z" fill="white"/>
<path d="M276.642 211.195H283.484C283.748 211.195 283.968 211.415 283.968 211.679C283.968 211.943 283.748 212.163 283.484 212.163H276.642C276.378 212.163 276.158 211.943 276.158 211.679C276.158 211.415 276.378 211.195 276.642 211.195Z" fill="white"/>
<path d="M293.253 198.502C293.517 198.502 293.737 198.722 293.737 198.986C293.737 199.052 293.737 199.118 293.693 199.184L288.809 210.91C288.743 211.086 288.545 211.218 288.347 211.218C288.083 211.218 287.863 210.998 287.863 210.734C287.863 210.668 287.863 210.58 287.907 210.536L292.791 198.81C292.857 198.634 293.055 198.502 293.231 198.502H293.253Z" fill="white"/>
<path d="M363.918 198.59C363.918 198.59 364.072 198.722 364.094 198.81L368.956 210.536C368.956 210.536 369 210.668 369 210.734C369 210.866 368.956 210.976 368.868 211.086C368.78 211.196 368.67 211.24 368.538 211.24C368.45 211.24 368.362 211.218 368.274 211.152C368.186 211.086 368.12 211.02 368.098 210.932L363.214 199.206C363.214 199.206 363.17 199.074 363.17 199.008C363.17 198.876 363.214 198.766 363.302 198.656C363.39 198.546 363.522 198.502 363.654 198.502C363.742 198.502 363.83 198.524 363.918 198.59Z" fill="white"/>
<path d="M169.111 232.315H175.953C176.217 232.315 176.437 232.535 176.437 232.799C176.437 233.063 176.217 233.283 175.953 233.283H169.111C168.847 233.283 168.627 233.063 168.627 232.799C168.627 232.535 168.847 232.315 169.111 232.315Z" fill="white"/>
<path d="M181.123 219.71C181.123 219.71 181.277 219.842 181.299 219.93L186.161 231.656C186.161 231.656 186.205 231.788 186.205 231.854C186.205 231.986 186.161 232.096 186.073 232.206C185.985 232.294 185.875 232.36 185.743 232.36C185.655 232.36 185.567 232.338 185.479 232.272C185.391 232.206 185.325 232.14 185.303 232.052L180.419 220.326C180.419 220.326 180.375 220.194 180.375 220.128C180.375 219.996 180.419 219.886 180.507 219.776C180.595 219.688 180.727 219.622 180.859 219.622C180.947 219.622 181.035 219.644 181.123 219.71Z" fill="white"/>
<path d="M190.625 232.315H197.466C197.73 232.315 197.95 232.535 197.95 232.799C197.95 233.063 197.73 233.283 197.466 233.283H190.625C190.361 233.283 190.141 233.063 190.141 232.799C190.141 232.535 190.361 232.315 190.625 232.315Z" fill="white"/>
<path d="M207.214 225.496C207.214 225.496 207.368 225.496 207.456 225.562C207.544 225.628 207.588 225.65 207.632 225.738C207.676 225.804 207.698 225.892 207.698 225.98C207.698 226.068 207.676 226.156 207.632 226.222C207.588 226.288 207.522 226.354 207.456 226.398C207.39 226.442 207.302 226.464 207.214 226.464H202.33C202.198 226.464 202.066 226.42 201.978 226.332C201.89 226.244 201.846 226.134 201.846 225.98C201.846 225.826 201.89 225.738 201.978 225.628C202.066 225.54 202.198 225.496 202.33 225.496H207.192H207.214Z" fill="white"/>
<path d="M217.973 225.496C217.973 225.496 218.127 225.496 218.215 225.562C218.303 225.628 218.347 225.65 218.391 225.738C218.435 225.804 218.457 225.892 218.457 225.98C218.457 226.068 218.435 226.156 218.391 226.222C218.347 226.288 218.281 226.354 218.215 226.398C218.149 226.442 218.061 226.464 217.973 226.464H213.089C212.957 226.464 212.825 226.42 212.737 226.332C212.649 226.244 212.605 226.134 212.605 225.98C212.605 225.826 212.649 225.738 212.737 225.628C212.825 225.54 212.957 225.496 213.089 225.496H217.951H217.973Z" fill="white"/>
<path d="M222.877 232.315H229.718C229.982 232.315 230.202 232.535 230.202 232.799C230.202 233.063 229.982 233.283 229.718 233.283H222.877C222.613 233.283 222.393 233.063 222.393 232.799C222.393 232.535 222.613 232.315 222.877 232.315Z" fill="white"/>
<path d="M239.488 219.622C239.752 219.622 239.972 219.842 239.972 220.106C239.972 220.172 239.972 220.238 239.928 220.304L235.044 232.03C234.978 232.206 234.78 232.338 234.582 232.338C234.318 232.338 234.098 232.118 234.098 231.854C234.098 231.788 234.098 231.722 234.142 231.656L239.026 219.93C239.092 219.754 239.29 219.622 239.466 219.622H239.488Z" fill="white"/>
<path d="M288.633 219.71C288.633 219.71 288.787 219.842 288.809 219.93L293.671 231.656C293.671 231.656 293.715 231.788 293.715 231.854C293.715 231.986 293.671 232.096 293.583 232.206C293.495 232.294 293.385 232.36 293.253 232.36C293.165 232.36 293.077 232.338 292.989 232.272C292.901 232.206 292.835 232.14 292.813 232.052L287.929 220.326C287.929 220.326 287.885 220.194 287.885 220.128C287.885 219.996 287.929 219.886 288.017 219.776C288.105 219.688 288.237 219.622 288.369 219.622C288.457 219.622 288.545 219.644 288.633 219.71Z" fill="white"/>
<path d="M368.517 219.622C368.781 219.622 369.001 219.842 369.001 220.106C369.001 220.172 369.001 220.238 368.957 220.304L364.073 232.03C364.007 232.206 363.809 232.338 363.611 232.338C363.347 232.338 363.127 232.118 363.127 231.854C363.127 231.788 363.127 231.722 363.171 231.656L368.055 219.93C368.121 219.754 368.319 219.622 368.495 219.622H368.517Z" fill="white"/>
<path d="M164.204 240.742C164.468 240.742 164.688 240.962 164.688 241.226C164.688 241.292 164.688 241.358 164.644 241.424L159.76 253.15C159.694 253.326 159.496 253.458 159.298 253.458C159.034 253.458 158.814 253.238 158.814 252.974C158.814 252.908 158.814 252.82 158.858 252.776L163.742 241.05C163.808 240.874 164.006 240.742 164.182 240.742H164.204Z" fill="white"/>
<path d="M169.111 253.436H175.953C176.217 253.436 176.437 253.656 176.437 253.92C176.437 254.184 176.217 254.404 175.953 254.404H169.111C168.847 254.404 168.627 254.184 168.627 253.92C168.627 253.656 168.847 253.436 169.111 253.436Z" fill="white"/>
<path d="M179.867 253.436H186.709C186.973 253.436 187.193 253.656 187.193 253.92C187.193 254.184 186.973 254.404 186.709 254.404H179.867C179.603 254.404 179.383 254.184 179.383 253.92C179.383 253.656 179.603 253.436 179.867 253.436Z" fill="white"/>
<path d="M190.625 253.436H197.466C197.73 253.436 197.95 253.656 197.95 253.92C197.95 254.184 197.73 254.404 197.466 254.404H190.625C190.361 254.404 190.141 254.184 190.141 253.92C190.141 253.656 190.361 253.436 190.625 253.436Z" fill="white"/>
<path d="M201.363 253.436H208.205C208.469 253.436 208.689 253.656 208.689 253.92C208.689 254.184 208.469 254.404 208.205 254.404H201.363C201.099 254.404 200.879 254.184 200.879 253.92C200.879 253.656 201.099 253.436 201.363 253.436Z" fill="white"/>
<path d="M357.757 240.742C358.021 240.742 358.241 240.962 358.241 241.226C358.241 241.292 358.241 241.358 358.197 241.424L353.313 253.15C353.247 253.326 353.049 253.458 352.851 253.458C352.587 253.458 352.367 253.238 352.367 252.974C352.367 252.908 352.367 252.82 352.411 252.776L357.295 241.05C357.361 240.874 357.559 240.742 357.735 240.742H357.757Z" fill="white"/>
<path d="M153.47 261.861C153.734 261.861 153.954 262.081 153.954 262.345C153.954 262.411 153.954 262.477 153.91 262.543L149.026 274.269C148.96 274.445 148.762 274.577 148.564 274.577C148.3 274.577 148.08 274.357 148.08 274.093C148.08 274.027 148.08 273.939 148.124 273.895L153.008 262.169C153.074 261.993 153.272 261.861 153.448 261.861H153.47Z" fill="white"/>
<path d="M213.375 261.949C213.375 261.949 213.529 262.081 213.551 262.169L218.413 273.895C218.413 273.895 218.457 274.027 218.457 274.093C218.457 274.225 218.413 274.335 218.325 274.445C218.237 274.555 218.127 274.599 217.995 274.599C217.907 274.599 217.819 274.577 217.731 274.511C217.643 274.445 217.577 274.379 217.555 274.291L212.671 262.565C212.671 262.565 212.627 262.433 212.627 262.367C212.627 262.235 212.671 262.125 212.759 262.015C212.847 261.905 212.979 261.861 213.111 261.861C213.199 261.861 213.287 261.883 213.375 261.949Z" fill="white"/>
<path d="M346.997 261.861C347.261 261.861 347.481 262.081 347.481 262.345C347.481 262.411 347.481 262.477 347.437 262.543L342.553 274.269C342.487 274.445 342.289 274.577 342.091 274.577C341.827 274.577 341.607 274.357 341.607 274.093C341.607 274.027 341.607 273.939 341.651 273.895L346.535 262.169C346.601 261.993 346.799 261.861 346.975 261.861H346.997Z" fill="white"/>
<path d="M148.85 283.068C148.85 283.068 149.004 283.2 149.026 283.288L153.887 295.014C153.887 295.014 153.931 295.146 153.931 295.212C153.931 295.344 153.887 295.454 153.799 295.564C153.711 295.652 153.601 295.718 153.469 295.718C153.381 295.718 153.293 295.696 153.205 295.63C153.117 295.564 153.051 295.498 153.029 295.41L148.146 283.684C148.146 283.684 148.102 283.552 148.102 283.486C148.102 283.354 148.146 283.244 148.234 283.134C148.322 283.046 148.454 282.98 148.586 282.98C148.674 282.98 148.762 283.002 148.85 283.068Z" fill="white"/>
<path d="M158.353 295.674H165.195C165.459 295.674 165.679 295.894 165.679 296.158C165.679 296.422 165.459 296.642 165.195 296.642H158.353C158.089 296.642 157.869 296.422 157.869 296.158C157.869 295.894 158.089 295.674 158.353 295.674Z" fill="white"/>
<path d="M169.111 295.674H175.953C176.217 295.674 176.437 295.894 176.437 296.158C176.437 296.422 176.217 296.642 175.953 296.642H169.111C168.847 296.642 168.627 296.422 168.627 296.158C168.627 295.894 168.847 295.674 169.111 295.674Z" fill="white"/>
<path d="M179.867 295.674H186.709C186.973 295.674 187.193 295.894 187.193 296.158C187.193 296.422 186.973 296.642 186.709 296.642H179.867C179.603 296.642 179.383 296.422 179.383 296.158C179.383 295.894 179.603 295.674 179.867 295.674Z" fill="white"/>
<path d="M190.625 295.674H197.466C197.73 295.674 197.95 295.894 197.95 296.158C197.95 296.422 197.73 296.642 197.466 296.642H190.625C190.361 296.642 190.141 296.422 190.141 296.158C190.141 295.894 190.361 295.674 190.625 295.674Z" fill="white"/>
<path d="M201.363 295.674H208.205C208.469 295.674 208.689 295.894 208.689 296.158C208.689 296.422 208.469 296.642 208.205 296.642H201.363C201.099 296.642 200.879 296.422 200.879 296.158C200.879 295.894 201.099 295.674 201.363 295.674Z" fill="white"/>
<path d="M212.119 295.674H218.961C219.225 295.674 219.445 295.894 219.445 296.158C219.445 296.422 219.225 296.642 218.961 296.642H212.119C211.855 296.642 211.635 296.422 211.635 296.158C211.635 295.894 211.855 295.674 212.119 295.674Z" fill="white"/>
<path d="M224.129 283.068C224.129 283.068 224.283 283.2 224.305 283.288L229.167 295.014C229.167 295.014 229.211 295.146 229.211 295.212C229.211 295.344 229.167 295.454 229.079 295.564C228.991 295.652 228.881 295.718 228.749 295.718C228.661 295.718 228.573 295.696 228.485 295.63C228.397 295.564 228.331 295.498 228.309 295.41L223.425 283.684C223.425 283.684 223.381 283.552 223.381 283.486C223.381 283.354 223.425 283.244 223.513 283.134C223.601 283.046 223.733 282.98 223.865 282.98C223.953 282.98 224.041 283.002 224.129 283.068Z" fill="white"/>
<path d="M233.637 295.674H240.478C240.742 295.674 240.962 295.894 240.962 296.158C240.962 296.422 240.742 296.642 240.478 296.642H233.637C233.373 296.642 233.153 296.422 233.153 296.158C233.153 295.894 233.373 295.674 233.637 295.674Z" fill="white"/>
<path d="M244.392 295.674H251.234C251.498 295.674 251.718 295.894 251.718 296.158C251.718 296.422 251.498 296.642 251.234 296.642H244.392C244.128 296.642 243.908 296.422 243.908 296.158C243.908 295.894 244.128 295.674 244.392 295.674Z" fill="white"/>
<path d="M255.129 295.674H261.97C262.234 295.674 262.454 295.894 262.454 296.158C262.454 296.422 262.234 296.642 261.97 296.642H255.129C254.865 296.642 254.645 296.422 254.645 296.158C254.645 295.894 254.865 295.674 255.129 295.674Z" fill="white"/>
<path d="M265.888 295.674H272.73C272.994 295.674 273.214 295.894 273.214 296.158C273.214 296.422 272.994 296.642 272.73 296.642H265.888C265.624 296.642 265.404 296.422 265.404 296.158C265.404 295.894 265.624 295.674 265.888 295.674Z" fill="white"/>
<path d="M276.642 295.674H283.484C283.748 295.674 283.968 295.894 283.968 296.158C283.968 296.422 283.748 296.642 283.484 296.642H276.642C276.378 296.642 276.158 296.422 276.158 296.158C276.158 295.894 276.378 295.674 276.642 295.674Z" fill="white"/>
<path d="M287.402 295.674H294.244C294.508 295.674 294.728 295.894 294.728 296.158C294.728 296.422 294.508 296.642 294.244 296.642H287.402C287.138 296.642 286.918 296.422 286.918 296.158C286.918 295.894 287.138 295.674 287.402 295.674Z" fill="white"/>
<path d="M298.14 295.674H304.982C305.246 295.674 305.466 295.894 305.466 296.158C305.466 296.422 305.246 296.642 304.982 296.642H298.14C297.876 296.642 297.656 296.422 297.656 296.158C297.656 295.894 297.876 295.674 298.14 295.674Z" fill="white"/>
<path d="M308.894 295.674H315.736C316 295.674 316.22 295.894 316.22 296.158C316.22 296.422 316 296.642 315.736 296.642H308.894C308.63 296.642 308.41 296.422 308.41 296.158C308.41 295.894 308.63 295.674 308.894 295.674Z" fill="white"/>
<path d="M319.654 295.674H326.496C326.76 295.674 326.98 295.894 326.98 296.158C326.98 296.422 326.76 296.642 326.496 296.642H319.654C319.39 296.642 319.17 296.422 319.17 296.158C319.17 295.894 319.39 295.674 319.654 295.674Z" fill="white"/>
<path d="M336.265 282.98C336.529 282.98 336.749 283.2 336.749 283.464C336.749 283.53 336.749 283.596 336.705 283.662L331.821 295.388C331.755 295.564 331.557 295.696 331.359 295.696C331.095 295.696 330.875 295.476 330.875 295.212C330.875 295.146 330.875 295.08 330.919 295.014L335.803 283.288C335.869 283.112 336.067 282.98 336.243 282.98H336.265Z" fill="white"/>
</svg>
