<svg xmlns="http://www.w3.org/2000/svg" fill="none" class="w-[184.5px] h-[148.5px] lg:w-[369px] lg:h-[297px]" viewBox="0 0 369 297"><path fill="#fff" d="M115.3 0h6.9q.5 0 .5.5t-.5.5h-6.9l-.4-.5q0-.5.4-.5m10.8 0h6.8q.5 0 .5.5t-.5.5h-6.8l-.5-.5q0-.5.5-.5m10.8 0h6.8q.5 0 .5.5t-.5.5h-6.8l-.5-.5q0-.5.5-.5m10.7 0h6.9q.4 0 .4.5t-.4.5h-6.9l-.5-.5q.1-.5.5-.5m10.8 0h6.8q.5 0 .5.5t-.5.5h-6.8l-.5-.5q0-.5.5-.5m10.7 0h6.9q.3 0 .4.5 0 .4-.4.5h-7l-.5-.5q0-.5.5-.5m10.9 0h6.8q.5 0 .5.5t-.5.5H180l-.5-.5q0-.5.5-.5m10.6 0h6.9q.4 0 .4.5t-.4.5h-6.9l-.5-.5q.1-.5.5-.5m10.8 0h6.8q.5 0 .5.5t-.5.5h-6.8l-.5-.5q0-.5.5-.5m10.7 0h6.9q.3 0 .4.5 0 .4-.4.5h-7l-.5-.5q.1-.5.5-.5m10.9 0h6.8q.5 0 .5.5t-.5.5H223l-.5-.5q0-.5.5-.5m53.6 0h6.9q.4 0 .5.5-.1.4-.5.5h-6.9l-.4-.5q0-.5.4-.5m10.8 0h6.8q.5 0 .5.5t-.5.5h-6.8l-.5-.5q0-.5.5-.5m10.7 0h6.9q.4 0 .5.5-.1.4-.5.5h-7l-.4-.5q0-.5.4-.5m10.9 0h6.8q.5 0 .5.5t-.5.5H309l-.5-.5q0-.5.5-.5M40 21.1h7q.4 0 .4.5t-.5.5h-6.8l-.5-.5q0-.5.5-.5m10.7 0h6.9q.4 0 .5.5-.1.5-.5.5h-6.9l-.4-.5q0-.5.4-.5m10.8 0h6.8q.5 0 .5.5t-.5.5h-6.8l-.5-.5q0-.5.5-.5m10.7 0h6.9q.4 0 .5.5-.1.5-.5.5h-6.9l-.4-.5q0-.5.4-.5m10.7 0h7q.4 0 .4.5t-.5.5h-6.8l-.5-.5q0-.5.5-.5m10.7 0h6.9q.5 0 .5.5t-.5.5h-6.9l-.4-.5q0-.5.4-.5m16.7-12.7q.4 0 .4.5v.2L106 20.8q0 .3-.4.3l-.5-.4v-.2L110 8.7zm38.4.1.1.2 4.9 11.8v.2l-.1.3-.3.2-.3-.1-.2-.2L148.1 9l.1-.3.4-.2zm9.5 12.6h6.8q.5 0 .5.5t-.5.5h-6.8l-.5-.5q0-.5.5-.5m10.7 0h6.9q.3 0 .4.5 0 .5-.4.5h-7l-.5-.5q0-.5.5-.5m16.7-12.7q.5 0 .5.5v.2l-5 11.7q0 .3-.4.3l-.5-.4v-.2l5-11.8q0-.2.4-.3m10.8 0q.4 0 .5.5v.2l-5 11.7q0 .3-.4.3l-.5-.4v-.2l5-11.8q0-.2.4-.3m38.4.1.2.2 4.8 11.8v.5l-.4.2-.3-.1-.1-.2L234 9l.2-.3.3-.2zm9.5 12.6h6.8q.5 0 .5.5t-.5.5h-6.8l-.5-.5q0-.5.5-.5m10.7 0h6.9q.4 0 .5.5-.1.5-.5.5h-7l-.5-.5q.1-.5.5-.5m16.7-12.7q.5 0 .5.5v.2l-4.9 11.7q-.1.3-.5.3l-.4-.4v-.2l4.9-11.8q0-.2.4-.3m4.9 12.7h6.9q.4 0 .5.5-.1.5-.5.5h-6.9l-.4-.5q0-.5.4-.5m10.8 0h6.8q.5 0 .5.5t-.5.5h-6.8l-.5-.5q0-.5.5-.5m10.7 0h6.9q.4 0 .5.5-.1.5-.5.5h-7l-.4-.5q0-.5.4-.5m10.9 0h6.8q.5 0 .5.5t-.5.5H309l-.5-.5q0-.5.5-.5m12-12.6v.2l5 11.8v.2l-.1.3-.4.2-.2-.1-.2-.2L320.2 9v-.5l.4-.2zM18.6 42.2h6.8q.5.1.5.5t-.5.5h-6.8l-.5-.5q0-.4.5-.5m16.6-12.7q.4.1.5.5v.2l-5 11.8q0 .2-.4.3l-.5-.5v-.2l5-11.7q0-.3.4-.4m38.4.1.2.3 4.8 11.7v.5l-.4.2-.3-.1-.1-.2-5-11.8v-.1q0-.3.2-.4l.3-.2zM83 42.2h7q.4.1.4.5t-.5.5h-6.8l-.5-.5q0-.4.5-.5m16.6-12.7q.5.1.5.5v.2l-5 11.8q0 .2-.4.3l-.5-.5v-.2l5-11.7q0-.3.4-.4m28.7 5.1h2.2q.5 0 .5.4v1.7q0 .5-.5.5h-2.2l-.5-.5V35q0-.4.5-.4m0 5h2.2q.5 0 .5.4v1.8q0 .4-.5.4h-2.2l-.5-.4V40q0-.3.5-.4m.5-4v.6h1.3v-.7zm0 5v.6h1.3v-.7zM261 29.5q.4.1.5.5v.2l-5 11.8q0 .2-.4.3l-.5-.5v-.2l5-11.7q0-.3.4-.4m10.7 0q.5.1.5.5v.2L267.3 42q-.1.2-.5.3l-.4-.5v-.2l4.9-11.7q0-.3.4-.4m4.9 12.7h6.9q.4.1.5.5-.1.5-.5.5h-6.9l-.4-.5q0-.4.4-.5m10.8 0h6.8q.5.1.5.5t-.5.5h-6.8l-.5-.5q0-.4.5-.5m10.7 0h6.9q.4.1.5.5-.1.5-.5.5h-7l-.4-.5q0-.4.4-.5m10.9 0h6.8q.5.1.5.5t-.5.5H309l-.5-.5q0-.4.5-.5m12-12.6v.3l5 11.7v.2l-.1.3-.4.2-.2-.1-.2-.2-4.9-11.8v-.5l.4-.2zm10.6 0 .2.3 4.9 11.7v.2l-.1.3-.3.2-.3-.1-.2-.2-4.9-11.8v-.1l.1-.4.4-.2zM13.7 50.7q.4 0 .5.4v.2l-5 11.8q0 .2-.4.3l-.5-.5v-.2l5-11.7q0-.3.4-.3m8.3 0q.4 0 .5.4V63q-.1.4-.5.5l-.5-.5V51q0-.4.5-.4m74.1 5.1h2.3q.4 0 .5.4v1.7q-.1.5-.5.5H96l-.4-.5V56q0-.4.4-.4m0 5h2.3q.4 0 .5.5v1.7q-.1.4-.5.5H96l-.4-.5v-1.7q0-.5.4-.5m.5-4v.6H98v-.7zm0 5v.7H98v-.8zm31.9-5.9h2.2q.5 0 .5.4v1.7q0 .5-.5.5h-2.2l-.5-.5V56q0-.4.5-.4m0 5h2.2q.5 0 .5.5v1.7q0 .4-.5.5h-2.2l-.5-.5v-1.7q0-.5.5-.5m.5-4v.6h1.3v-.7zm0 5v.7h1.3v-.8zm31.8-.9h2.2q.5 0 .5.5v1.7q0 .4-.5.5h-2.2l-.5-.5v-1.7q0-.5.5-.5m.4 1v.7h1.3v-.8zm10.3-1h2.2q.5 0 .5.5v1.7q0 .4-.5.5h-2.2l-.5-.5v-1.7q0-.5.5-.5m.5 1v.7h1.3v-.8zm78.3-11q.5 0 .5.4v.2l-4.9 11.8q-.1.2-.5.3l-.4-.5v-.2l4.9-11.7q0-.3.4-.3m92.2.1.2.2 4.8 11.7v.5q-.1.3-.4.2h-.2l-.2-.3-4.9-11.7v-.6l.4-.1zM.5 71.8q.4 0 .5.5V84q-.1.5-.5.5L0 84V72.3q0-.5.5-.5m21.5 0q.4 0 .5.5V84q-.1.5-.5.5l-.5-.5V72.3q0-.5.5-.5m63.4 5h2.2q.5 0 .5.5v1.6q0 .5-.5.5h-2.2l-.5-.5v-1.6q0-.5.5-.5m0 5h2.2q.5 0 .5.5V84q0 .5-.5.5h-2.2l-.5-.5v-1.7q0-.5.5-.5m.5-4v.7h1.3v-.7zm0 5v.7h1.3v-.7zm10.2-6h2.3q.4 0 .5.5v1.6q-.1.5-.5.5H96l-.4-.5v-1.6q0-.5.4-.5m0 5h2.3q.4 0 .5.5V84q-.1.5-.5.5H96l-.4-.5v-1.7q0-.5.4-.5m.5-4v.7H98v-.7zm0 5v.7H98v-.7zm64.2-6h2.2q.5 0 .5.5v1.6q0 .5-.5.5h-2.2l-.5-.5v-1.6q0-.5.5-.5m0 5h2.2q.5 0 .5.5V84q0 .5-.5.5h-2.2l-.5-.5v-1.7q0-.5.5-.5m.4-4v.7h1.3v-.7zm0 5v.7h1.3v-.7zm10.3-6h2.2q.5 0 .5.5v1.6q0 .5-.5.5h-2.2l-.5-.5v-1.6q0-.5.5-.5m0 5h2.2q.5 0 .5.5V84q0 .5-.5.5h-2.2l-.5-.5v-1.7q0-.5.5-.5m.5-4v.7h1.3v-.7zm0 5v.7h1.3v-.7zm73.7-10.9.2.2 4.9 11.7v.2l-.1.4-.4.1h-.2l-.2-.3-4.9-11.7v-.2l.1-.4.4-.1zm101.4-.1q.5 0 .5.5v.2l-5 11.7q0 .3-.4.3l-.5-.5v-.2l5-11.7q0-.3.4-.3M.5 92.9q.4 0 .5.5V105q-.1.5-.5.5L0 105V93.4q0-.5.5-.5m21.5 0q.4 0 .5.5V105q-.1.5-.5.5l-.5-.5V93.4q0-.5.5-.5m63.4 5h2.2q.5 0 .5.5v1.6q0 .5-.5.5h-2.2l-.5-.5v-1.6q0-.5.5-.5m0 5h2.2q.5 0 .5.5v1.7q0 .5-.5.5h-2.2l-.5-.5v-1.7q0-.5.5-.5m.5-4v.7h1.3v-.7zm0 5v.7h1.3v-.7zm11.4-11q.4 0 .4.5V105q0 .5-.4.5l-.5-.5V93.4q0-.5.5-.5m64.5 0q.3 0 .4.5V105q0 .5-.4.5l-.5-.5V93.4q0-.5.5-.5m10.7 0q.5 0 .5.5V105q0 .5-.5.5l-.5-.5V93.4q.1-.5.5-.5m62.4.1.2.2 4.8 11.7v.6l-.4.1h-.3l-.1-.3-5-11.7v-.2q0-.2.2-.3 0-.2.3-.2zm21.5 0 .2.2 4.8 11.7v.6l-.4.1h-.3l-.1-.3-5-11.7v-.2l.2-.3q0-.2.3-.2zm9.5 12.6h6.8q.5 0 .5.5t-.5.5H266l-.5-.5q0-.5.5-.5m10.6 0h6.9q.4 0 .5.5-.1.4-.5.5h-6.9l-.4-.5q0-.5.4-.5m10.8 0h6.8q.5 0 .5.5t-.5.5h-6.8l-.5-.5q0-.5.5-.5m10.7 0h6.9q.4 0 .5.5-.1.4-.5.5h-7l-.4-.5q0-.5.4-.5m10.9 0h6.8q.5 0 .5.5t-.5.5H309l-.5-.5q0-.5.5-.5m10.7 0h6.8q.5 0 .5.5t-.5.5h-6.8l-.5-.5q0-.5.5-.5m16.6-12.7q.4 0 .4.5v.2l-4.9 11.7q0 .3-.4.3l-.5-.5v-.2l4.9-11.7q.1-.3.4-.3M.5 114q.4 0 .5.5v11.7q-.1.5-.5.5l-.5-.4v-11.8q0-.4.5-.5m21.5 0q.4 0 .5.5v11.7q-.1.5-.5.5l-.5-.4v-11.8q0-.4.5-.5m64.5 0q.5 0 .5.5v11.7q0 .5-.5.5l-.5-.4v-11.8q0-.4.5-.5m10.8 0q.4 0 .4.5v11.7q0 .5-.4.5l-.5-.4v-11.8q0-.4.5-.5m64.5 0q.3 0 .4.5v11.7q0 .5-.4.5l-.5-.4v-11.8q0-.4.5-.5m10.7 0q.5 0 .5.5v11.7q0 .5-.5.5l-.5-.4v-11.8q.1-.4.5-.5m75.3 0q.5 0 .5.5v11.7q0 .5-.5.5l-.5-.4v-11.8q0-.4.5-.5m8.6.1.2.2 4.8 11.8v.5l-.4.2-.3-.1-.1-.2-5-11.8v-.2l.2-.3.3-.2zm36.9-.1q.3 0 .4.5v.2l-4.9 11.7q-.1.3-.5.3l-.4-.4v-.2l4.9-11.8zm29.7 0q.5 0 .6.5v11.7q-.1.5-.5.5l-.5-.4v-11.8q0-.4.5-.5M9 135.2l.2.3 4.9 11.7v.5l-.4.2-.3-.1-.2-.2-4.8-11.8v-.5l.4-.2zm13-.1q.4.1.5.5v11.8q-.1.3-.5.4l-.5-.4v-11.8q0-.4.5-.5m64.5 0q.5.1.5.5v11.8q0 .3-.5.4l-.5-.4v-11.8q0-.4.5-.5m10.8 0q.4.1.4.5v11.8q0 .3-.4.4l-.5-.4v-11.8q0-.4.5-.5m64.5 0q.3.1.4.5v11.8q0 .3-.4.4l-.5-.4v-11.8q0-.4.5-.5m10.7 0q.5.1.5.5v11.8q0 .3-.5.4l-.5-.4v-11.8q.1-.4.5-.5m75.3 0q.5.1.5.5v11.8q0 .3-.5.4l-.5-.4v-11.8q0-.4.5-.5m45.5 0q.3.1.4.5v.2l-4.9 11.8q-.1.2-.5.3l-.4-.5v-.2l4.9-11.7q.1-.4.4-.4m19.1 0q.5.1.5.5v11.8q0 .3-.5.4l-.5-.4v-11.8q0-.4.5-.5m19.3.1.2.3 4.9 11.7v.2l-.1.3-.3.2-.3-.1-.2-.2-4.9-11.8v-.2l.1-.3.4-.2zM22 156.3q.4 0 .5.4v11.8q-.1.4-.5.5l-.5-.5v-11.8q0-.3.5-.4m64.5 0q.5 0 .5.4v11.8q0 .4-.5.5l-.5-.5v-11.8q0-.3.5-.4m10.8 0q.4 0 .4.4v11.8q0 .4-.4.5l-.5-.5v-11.8q0-.3.5-.4m64.5 0q.3 0 .4.4v11.8q0 .4-.4.5l-.5-.5v-11.8q0-.3.5-.4m10.7 0q.5 0 .5.4v11.8q0 .4-.5.5l-.5-.5v-11.8q.1-.3.5-.4m75.3 0q.5 0 .5.4v11.8q0 .4-.5.5l-.5-.5v-11.8q0-.3.5-.4m34.7 0q.5 0 .5.4v.2l-5 11.8q0 .2-.4.3l-.5-.5v-.2l5-11.7q0-.3.4-.3m21.5 0q.5 0 .5.4v.2l-5 11.8q0 .2-.4.3l-.5-.5v-.2l5-11.7q0-.3.4-.3m4.9 12.7h6.8q.5 0 .5.4t-.5.5H309l-.5-.5q0-.3.5-.4m12-12.6v.2l5 11.7v.2l-.1.3q-.1.3-.4.2h-.2l-.2-.3-4.9-11.7v-.6l.4-.1zm21.4 0 .2.2 4.8 11.7v.5q-.1.3-.4.2h-.2l-.2-.3-4.9-11.7v-.6l.4-.1zM22 177.4q.4 0 .5.5v11.7q-.1.5-.5.5l-.5-.5V178q0-.5.5-.5M40 190h7q.4 0 .4.6 0 .3-.5.4h-6.8l-.5-.4q0-.5.5-.5m10.7-.1h6.9q.4 0 .5.6-.1.3-.5.4h-6.9l-.4-.4q0-.5.4-.5m10.8-.1h6.8q.5 0 .5.6 0 .3-.5.4h-6.8l-.5-.4q0-.5.5-.5m24.9-12.7q.5 0 .5.5v11.7q0 .5-.5.5l-.5-.5V178q0-.5.5-.5m10.8-.1q.4 0 .4.5v11.7q0 .5-.4.5l-.5-.5V178q0-.5.5-.5m18 12.5h6.9q.5 0 .5.6 0 .3-.5.4h-6.9l-.4-.4q0-.5.4-.5m10.8-.1h6.8q.5 0 .5.6 0 .3-.5.4h-6.8l-.5-.4q0-.5.5-.5m10.8-.1h6.8q.5 0 .5.6 0 .3-.5.4h-6.8l-.5-.4q0-.5.5-.5m24.9-12.7q.3 0 .4.5v11.7q0 .5-.4.5l-.5-.5V178q0-.5.5-.5m10.7-.1q.5 0 .5.5v11.7q0 .5-.5.5l-.5-.5V178q.1-.5.5-.5m75.3-.1q.5 0 .5.5v11.7q0 .5-.5.5l-.5-.5V178q0-.5.5-.5m23.9-.1q.5 0 .5.5v.2l-4.9 11.7q-.1.3-.5.3l-.4-.5v-.2l4.9-11.7q0-.3.4-.3m32.3 0q.5 0 .5.5v.2l-5 11.7q0 .3-.4.3l-.5-.5v-.2l5-11.7q0-.3.4-.3m49.2.1.1.2 4.9 11.7v.6l-.4.1h-.3l-.2-.3-4.8-11.7v-.6l.4-.1zM30.6 198.6l.2.2 4.8 11.7v.6l-.4.1h-.3l-.1-.3-5-11.7v-.2l.2-.3q0-.2.3-.2zm9.4 12.6h7q.4 0 .4.5t-.5.5h-6.8l-.5-.5q0-.5.5-.5m16.6-6.8h.2l.2.2v.5l-.2.2h-5.4l-.2-.4q0-.3.2-.4l.3-.1zm4.9 6.8h6.8q.5 0 .5.5t-.5.5h-6.8l-.5-.5q0-.5.5-.5m16.6-12.7q.5 0 .5.5v.2l-5 11.7q0 .3-.4.3l-.5-.5v-.2l5-11.7q0-.3.4-.3m27.6.1.2.2 4.9 11.7v.2l-.1.4-.3.1h-.3l-.2-.3-4.9-11.7v-.2l.1-.3q.1-.2.4-.2zm9.5 12.6h6.9q.5 0 .5.5t-.5.5h-6.9l-.4-.5q0-.5.4-.5m16.7-6.8h.2l.2.2v.5l-.2.2h-5.5l-.1-.4.1-.4.4-.1zm4.9 6.8h6.8q.5 0 .5.5t-.5.5h-6.8l-.5-.5q0-.5.5-.5m16.6-12.7q.4 0 .5.5v.2l-5 11.7q0 .3-.4.3l-.5-.5v-.2l5-11.7q0-.3.3-.3m19.1 0q.5 0 .5.5v11.7q0 .5-.5.5l-.5-.5V199q.1-.5.5-.5m18.1 12.7h6.9q.4 0 .4.5t-.4.5h-6.9l-.5-.5q.1-.5.5-.5m10.8 0h6.8q.5 0 .5.5t-.5.5h-6.8l-.5-.5q0-.5.5-.5m10.7 0h6.9q.3 0 .4.5 0 .4-.4.5h-7l-.5-.5q.1-.5.5-.5m10.9 0h6.8q.5 0 .5.5t-.5.5H223l-.5-.5q0-.5.5-.5m24.8-12.7q.5 0 .5.5v11.7q0 .5-.5.5l-.5-.5V199q0-.5.5-.5m13.2 0q.4 0 .5.5v.2l-5 11.7q0 .3-.4.3l-.5-.5v-.2l5-11.7q0-.3.4-.3m4.9 12.7h6.8q.5 0 .5.5t-.5.5H266l-.5-.5q0-.5.5-.5m10.6 0h6.9q.4 0 .5.5-.1.4-.5.5h-6.9l-.4-.5q0-.5.4-.5m16.7-12.7q.3 0 .4.5v.2l-4.9 11.7q-.1.3-.5.3l-.4-.5v-.2l4.9-11.7q.1-.3.4-.3m70.8.1v.2l5 11.7v.2l-.1.4-.4.1h-.2l-.2-.3-4.9-11.7v-.2l.1-.3q0-.2.4-.2zm-194.9 33.7h6.9q.3 0 .4.5 0 .5-.4.5h-7l-.5-.5q0-.5.5-.5m12.1-12.6.2.2 4.9 11.8v.2l-.1.3-.4.2-.2-.1-.2-.2-4.9-11.8v-.2l.1-.3.4-.2zm9.5 12.6h6.9q.4 0 .4.5t-.4.5h-6.9l-.5-.5q.1-.5.5-.5m16.6-6.8h.3l.1.2.1.3v.2l-.2.2H202l-.2-.4q0-.3.2-.4l.3-.1zm10.8 0h.2l.2.2v.5l-.2.2h-5.5v-.8l.4-.1zm4.9 6.8h6.8q.5 0 .5.5t-.5.5H223l-.5-.5q0-.5.5-.5m16.5-12.7q.5 0 .5.5v.2l-5 11.7q0 .3-.4.3l-.5-.4v-.2l5-11.8q0-.2.4-.3m49.1.1.2.2 4.9 11.8v.2l-.1.3-.3.2-.3-.1-.2-.2-4.9-11.8v-.2l.1-.3.4-.2zm79.9-.1q.5 0 .5.5v.2l-5 11.7q0 .3-.4.3l-.5-.4v-.2l5-11.8q0-.2.4-.3m-204.3 21.1q.5.1.5.5v.2l-5 11.8q0 .2-.4.3l-.5-.5v-.2l5-11.7q0-.3.4-.4m4.9 12.7h6.9q.3.1.4.5 0 .5-.4.5h-7l-.5-.5q0-.4.5-.5m10.9 0h6.8q.5.1.5.5t-.5.5H180l-.5-.5q0-.4.5-.5m10.6 0h6.9q.4.1.4.5t-.4.5h-6.9l-.5-.5q.1-.4.5-.5m10.8 0h6.8q.5.1.5.5t-.5.5h-6.8l-.5-.5q0-.4.5-.5m156.4-12.7q.4.1.4.5v.2l-4.9 11.8-.4.3-.5-.5v-.2l4.9-11.7q.1-.3.4-.4m-204.2 21.2q.4 0 .5.4v.2l-5 11.8q0 .2-.4.3l-.5-.5v-.2l5-11.7q0-.3.3-.3m60 .1.2.2 4.8 11.7v.5l-.4.2h-.3l-.1-.3-5-11.7v-.2q0-.3.2-.4l.3-.1zm133.6-.1q.5 0 .5.4v.2l-5 11.8q0 .2-.4.3l-.5-.5v-.2l5-11.7q0-.3.4-.3M148.9 283l.1.3 5 11.7v.2l-.1.4-.3.1h-.3l-.2-.3-4.9-11.7v-.2l.1-.4.4-.1zm9.5 12.7h6.8q.5 0 .5.5t-.5.4h-6.8l-.5-.4q0-.5.5-.5m10.7 0h6.9q.3 0 .4.5 0 .4-.4.4h-7l-.5-.4q0-.5.5-.5m10.9 0h6.8q.5 0 .5.5t-.5.4H180l-.5-.4q0-.5.5-.5m10.6 0h6.9q.4 0 .4.5t-.4.4h-6.9l-.5-.4q.1-.5.5-.5m10.8 0h6.8q.5 0 .5.5t-.5.4h-6.8l-.5-.4q0-.5.5-.5m10.7 0h6.9q.3 0 .4.5 0 .4-.4.4h-7l-.5-.4q.1-.5.5-.5m12.1-12.7.2.3 4.9 11.7v.2l-.1.4-.4.1h-.2l-.2-.3-4.9-11.7v-.2l.1-.4.4-.1zm9.5 12.7h6.9q.4 0 .5.5-.1.4-.5.4h-6.9l-.4-.4q0-.5.4-.5m10.8 0h6.8q.5 0 .5.5t-.5.4h-6.8l-.5-.4q0-.5.5-.5m10.7 0h6.9q.4 0 .5.5-.1.4-.5.4h-7l-.5-.4q.1-.5.5-.5m10.9 0h6.8q.5 0 .5.5t-.5.4H266l-.5-.4q0-.5.5-.5m10.6 0h6.9q.4 0 .5.5-.1.4-.5.4h-6.9l-.4-.4q0-.5.4-.5m10.8 0h6.8q.5 0 .5.5t-.5.4h-6.8l-.5-.4q0-.5.5-.5m10.7 0h6.9q.4 0 .5.5-.1.4-.5.4h-7l-.4-.4q0-.5.4-.5m10.9 0h6.8q.5 0 .5.5t-.5.4H309l-.5-.4q0-.5.5-.5m10.7 0h6.8q.5 0 .5.5t-.5.4h-6.8l-.5-.4q0-.5.5-.5m16.6-12.7q.4 0 .4.5v.2l-4.9 11.7q0 .3-.4.3l-.5-.5v-.2l4.9-11.7q.1-.3.4-.3"/></svg>