<svg width="494" height="457" viewBox="0 0 494 457" fill="none" xmlns="http://www.w3.org/2000/svg">
<g clip-path="url(#clip0_175_11)">
<path d="M107.3 324.499C98.9998 324.499 90.8998 327.199 83.8998 332.199C83.4998 332.499 83.0998 332.899 82.6998 333.199C82.2998 332.499 81.8998 331.799 81.4998 331.099L90.8998 319.799C97.6998 311.499 99.2998 299.899 94.6998 290.199C92.2998 285.099 88.4998 280.899 83.8998 278.099L84.3998 253.699H410.3V277.599C405.5 280.399 401.6 284.599 399.2 289.699C394.5 299.499 395.8 310.799 402.7 319.299L406 323.299C403.9 325.499 402.1 327.899 400.7 330.699C390.9 324.799 380.8 320.999 372.5 318.199C353.7 311.899 333.2 307.599 307.9 304.699C289.9 302.699 271.2 301.599 252.2 301.599C233.2 301.599 236.6 301.799 228.9 302.099C223 298.699 216.3 296.899 209.3 296.899C202.3 296.899 204.8 297.099 202.7 297.399C195.6 298.599 189.1 301.599 183.8 306.099C178.7 306.899 173.2 307.699 167.8 308.599C145.8 312.499 127.9 317.599 112 324.499C110.5 324.299 108.9 324.199 107.3 324.199V324.499ZM493.4 393.099C493.4 392.199 493.4 391.299 493.3 390.399V389.299C493.3 388.399 493.4 387.399 493.4 386.499C493.4 385.599 493.4 384.499 493.2 383.399C493.2 383.199 493.2 382.999 493.2 382.799C492.8 377.699 491.1 372.699 488.2 368.299C487.2 365.499 485.8 362.799 484 360.399C483.8 360.199 483.6 359.899 483.5 359.599C483.5 358.499 483.5 357.499 483.5 356.299C483.5 354.099 483.3 352.199 483.1 350.399C482.4 345.999 480.8 341.799 478.4 337.999C478.4 337.999 478.4 337.899 478.4 337.799C477.8 336.099 477.1 334.399 476.2 332.799L487.2 319.199C493.9 310.899 495.3 299.199 490.7 289.599C488.3 284.499 484.3 280.299 479.5 277.499V216.699C479.5 201.199 466.7 188.599 450.9 188.599H281.2V127.799C281.7 127.699 282.2 127.599 282.7 127.499L283.5 127.299C285.7 126.699 287.9 125.899 290 124.799C290.1 124.799 290.2 124.699 290.3 124.599C291.2 125.099 292 125.499 292.9 125.899C294.9 126.699 296.9 127.399 298.7 127.699L300.1 127.999C301.9 128.399 303.7 128.599 305.5 128.599H306.8C309 128.599 311.1 128.399 313.7 127.799C314.1 127.799 314.4 127.599 314.7 127.599C317.5 126.899 320.1 125.899 322.6 124.499C325.5 126.199 328.7 127.299 331.7 127.899L332.6 128.099C334.4 128.499 336.2 128.699 338.1 128.699H339.5C343.1 128.699 346.6 128.099 350 126.899C351.8 127.499 353.6 127.999 355.4 128.199C357 128.499 358.7 128.599 360.3 128.599C361.9 128.599 362.4 128.599 363.3 128.499H363.7C364.6 128.499 365.4 128.599 366.3 128.599C367.2 128.599 368.6 128.599 369.4 128.499H370.2C371.1 128.499 372 128.599 372.8 128.599C373.6 128.599 375 128.599 375.9 128.499H377C377.8 128.499 378.6 128.599 379.4 128.599C380.2 128.599 381.6 128.599 382.7 128.499H385.2C386 128.499 386.9 128.599 387.7 128.599C388.5 128.599 389.2 128.599 389.9 128.599C390.7 128.599 391.4 128.599 392.2 128.599H393.6C396.4 128.599 399.2 128.199 402 127.499C412.9 124.699 421.1 116.599 424 105.699C424 105.399 424.2 105.199 424.2 104.899C425.5 99.3992 425.5 93.7992 424.2 88.4992C422.4 80.3992 417.6 73.5992 410.7 69.1992C410.7 68.9992 410.8 68.7992 410.9 68.5992C411.7 65.5992 412.1 62.5992 412.1 59.5992C412.1 56.5992 412.1 57.3992 411.9 56.2992C411.9 55.1992 411.7 54.1992 411.5 53.0992C414.8 48.9992 417 44.1992 417.9 39.1992C418.7 34.5992 418.7 29.9992 417.9 25.4992C415.7 13.6992 407.3 4.49922 395.8 1.49922C393 0.699219 390.2 0.299219 387.3 0.299219H385.8C385 0.299219 384.2 0.299219 383.4 0.399219H382.7C381.7 0.399219 380.8 0.299219 379.9 0.299219H379.4C378.6 0.299219 377.8 0.299219 377 0.399219H376.2C375.2 0.399219 374.3 0.299219 373.4 0.299219H372.9C372.1 0.299219 371.3 0.299219 370.5 0.399219H369.7C368.7 0.399219 367.8 0.299219 366.9 0.299219H366.4C365.6 0.299219 364.8 0.299219 364 0.399219H363.5C362.6 0.399219 361.7 0.299219 360.9 0.299219H360.2C356.6 0.299219 353 0.899219 349.6 2.09922C347.9 2.69922 346.3 3.39922 344.8 4.29922C342.8 3.19922 340.6 2.19922 338.3 1.49922C337.7 1.29922 337 1.19922 336.4 0.999219C335.3 0.799219 334.3 0.599219 333.4 0.499219C332.2 0.0992188 330.8 -0.000781249 329.3 -0.000781249H324.7C323.9 -0.000781249 323.2 -0.000781249 322.5 -0.000781249C321.6 -0.000781249 320.8 -0.000781249 319.9 -0.000781249H318.2C317.4 -0.000781249 316.7 -0.000781249 315.9 -0.000781249C315.1 -0.000781249 314.2 -0.000781249 313.4 -0.000781249H311.7C310.9 -0.000781249 310.1 -0.000781246 309.3 0.0992188C308.5 0.0992188 307.7 -0.000781249 306.9 -0.000781249H305.7C303 -0.000781249 300.3 0.299219 297.7 1.09922C296.8 1.29922 296 1.59922 295.1 1.89922C294.2 1.59922 293.3 1.29922 292.4 0.999219C292.2 0.999219 291.6 0.799219 291.3 0.799219L290.3 0.599219C288.5 0.199219 286.7 -0.000781249 284.8 -0.000781249H283.5C281.1 -0.000781249 278.6 0.299219 276.1 0.899219C273.1 1.59922 270.2 2.69922 267.6 4.09922C264.2 2.19922 260.5 0.899219 256.4 0.299219C255.3 0.0992188 253.9 -0.000781249 252.6 -0.000781249H251.2C248.9 -0.000781249 246.6 0.199219 244.1 0.799219C243.3 0.999219 242.6 1.19922 241.9 1.39922C239.3 0.599219 236.7 0.199219 233.9 0.0992188C232 -0.100781 230.3 -0.100781 228.6 0.0992188C227.8 0.0992188 227 0.0992188 226.2 0.0992188H224.6C223.8 0.0992188 223.1 0.0992188 222.4 0.0992188C221.6 0.0992188 220.8 0.0992188 219.8 0.0992188H218.1C217.3 0.0992188 216.6 0.0992188 215.9 0.0992188C215.1 0.0992188 214.3 0.0992188 213.3 0.0992188H211.6C210.8 0.0992188 210.1 0.0992188 209.4 0.0992188C208.6 0.0992188 207.8 0.0992188 206.9 0.0992188H205.2C204.4 0.0992188 203.6 0.0992187 202.8 0.199219C202 0.199219 201.2 0.0992188 200.4 0.0992188H199.2C196.3 0.0992188 193.3 0.499219 190.5 1.39922C190.3 1.39922 190.2 1.49922 190.1 1.59922C189.6 1.39922 189.1 1.19922 188.7 1.09922C188.5 1.09922 188.1 0.999219 187.9 0.899219L186.8 0.699219C185 0.399219 183.2 0.0992188 181.4 0.0992188H180.1C177.7 0.0992188 175.2 0.399219 172.7 0.999219C169.7 1.69922 166.8 2.79922 164.3 4.19922C160.9 2.29922 157.1 0.999219 153.1 0.399219C151.8 0.199219 150.4 0.0992188 149 0.0992188H147.6C145.3 0.0992188 143 0.299219 140.5 0.899219C139.9 0.999219 139.3 1.19922 138.7 1.39922C138.6 1.39922 138.5 1.39922 138.3 1.29922C137.4 1.09922 136.7 0.899219 136 0.799219C135.8 0.799219 135.6 0.799219 135.4 0.699219C134 0.499219 132.6 0.299219 131.1 0.299219C129.9 -0.000781238 128.8 -0.000781249 127.8 -0.000781249C126.8 -0.000781249 126.2 -0.000781249 125.4 -0.000781249C124.7 -0.000781249 123.9 -0.000781249 123 -0.000781249H121.3C120.6 -0.000781249 119.8 -0.000781249 119.1 -0.000781249C118.2 -0.000781249 117.4 -0.000781249 116.5 -0.000781249H114.8C114 -0.000781249 113.3 -0.000781249 112.5 -0.000781249C111.7 -0.000781249 110.9 -0.000781249 110 -0.000781249H108.3C107.5 -0.000781249 106.7 -0.000781246 105.9 0.0992188C105.1 -0.000781246 104.3 -0.000781249 103.5 -0.000781249H102.3C98.8998 -0.000781249 95.6998 0.499219 92.4998 1.59922C83.8998 4.39922 76.9998 10.6992 73.4998 18.9992C73.3998 19.2992 73.1998 19.5992 73.0998 19.8992C72.1998 22.1992 71.6998 24.4992 71.2998 26.9992C71.0998 28.4992 70.8998 29.9992 70.8998 31.5992C70.8998 33.1992 70.8998 33.4992 70.9998 34.4992V36.0992C70.9998 37.1992 70.8998 38.2992 70.8998 39.3992V39.8992C70.8998 40.6992 70.8998 41.4992 70.9998 42.1992C70.9998 42.9992 70.8998 43.7992 70.8998 44.4992C70.8998 45.1992 70.8998 46.5992 70.9998 47.5992V49.8992C70.9998 50.9992 70.8998 52.0992 70.8998 53.3992C70.8998 54.6992 70.8998 54.6992 70.8998 55.3992C70.8998 56.2992 70.8998 57.0992 70.8998 57.8992C70.8998 58.6992 70.8998 59.9992 70.9998 60.9992V62.9992C70.9998 63.7992 70.8998 64.5992 70.8998 65.3992V66.8992C70.8998 67.5992 70.8998 68.2992 70.8998 68.9992C70.8998 69.7992 70.8998 70.6992 70.8998 71.5992C70.8998 72.4992 70.8998 73.6992 70.9998 74.6992V76.4992C70.9998 77.2992 70.8998 78.0992 70.8998 78.8992C70.8998 79.6992 70.8998 81.0992 70.9998 81.9992V84.3992C70.9998 85.3992 70.8998 86.2992 70.8998 87.1992C70.8998 88.0992 70.8998 88.9992 70.8998 89.7992C70.8998 90.4992 70.8998 91.1992 70.8998 91.8992V96.6992C70.8998 98.2992 70.8998 99.6992 71.1998 101.199C71.1998 101.899 71.3998 102.599 71.5998 103.499C71.7998 104.599 72.0998 105.699 72.3998 106.799C74.7998 114.399 79.9998 120.699 86.8998 124.499C87.7998 124.999 88.5998 125.399 89.4998 125.799C91.2998 126.599 93.0998 127.099 94.9998 127.599C95.4998 127.699 95.9998 127.799 96.5998 127.899C98.3998 128.299 100.2 128.499 102 128.499H103.3C105.5 128.499 107.7 128.199 110.3 127.699C110.7 127.699 111.1 127.499 111.5 127.399C118.4 125.599 124.2 121.699 128.3 116.199C131.3 119.099 134.8 121.399 138.8 122.899C140.7 124.199 142.6 125.199 144.7 126.099C145.1 126.299 145.5 126.399 145.9 126.499C149 127.599 152.1 128.199 155.4 128.299C156.8 128.299 158.1 128.399 159.5 128.399C160.9 128.399 162 128.399 163.2 128.299C163.6 128.299 164.1 128.299 164.5 128.299C165.1 128.299 165.6 128.299 166.1 128.299H168.5C171.9 128.499 175.3 128.199 178.6 127.399C178.6 127.399 179 127.299 179.1 127.299H179.5C181.8 126.599 184 125.699 186.1 124.599C186.7 124.299 187.4 123.899 188 123.499C188.4 123.299 188.8 122.999 189.1 122.699C190.9 121.999 192.5 121.099 194.1 120.199C196.5 122.399 199.3 124.299 202.4 125.599C203.2 125.899 203.9 126.199 204.6 126.499C207 127.299 209.4 127.799 211.8 128.099V188.499H44.2998C28.5998 188.499 16.0998 200.599 15.7998 216.099L14.6998 276.999C9.7998 279.799 5.7998 283.899 3.2998 288.999C-1.5002 298.699 -0.400195 309.999 6.2998 318.599L15.4998 330.399C13.8998 332.699 12.5998 335.199 11.5998 337.899C10.1998 339.999 9.0998 342.299 8.2998 344.699C6.8998 346.799 5.7998 349.099 4.9998 351.599C3.3998 354.199 2.0998 356.899 1.2998 359.799C1.0998 360.499 0.899805 361.299 0.799805 361.999C0.499805 363.599 0.299805 365.099 0.199805 366.599C-0.00019531 368.299 -0.00019531 369.999 0.199805 371.799V374.399C0.199805 375.899 0.199805 377.399 0.199805 378.899V394.399C0.199805 395.699 0.199805 397.099 0.199805 398.399V400.799C0.0998047 402.299 0.0998047 403.899 0.199805 405.399V407.899C0.199805 409.099 0.199805 410.299 0.199805 411.599C0.199805 414.799 0.799805 418.099 1.8998 421.099C4.6998 429.699 11.0998 436.599 19.4998 439.999C22.1998 441.099 25.0998 441.899 27.9998 442.199C29.1998 442.399 30.3998 442.399 31.5998 442.399C32.7998 442.399 34.2998 442.399 35.1998 442.199C37.1998 441.999 39.1998 441.699 41.1998 441.099C43.7998 440.399 46.1998 439.499 48.3998 438.199C49.6998 438.899 50.9998 439.599 52.3998 440.099C55.1998 441.199 57.9998 441.899 60.8998 442.099C61.9998 442.199 63.0998 442.299 64.1998 442.299C65.7998 442.299 67.3998 442.199 68.8998 441.999C70.3998 441.799 71.9998 441.499 73.5998 441.099C73.7998 441.099 73.8998 441.099 74.1998 440.899C82.3998 438.499 88.9998 433.099 92.8998 425.699C97.9998 428.999 103.5 431.899 109.5 434.499C125.3 441.499 142.4 446.499 163.3 450.099C189.9 454.699 217.3 456.999 244.8 456.999C272.3 456.999 291.4 455.399 314.8 452.099C320.2 454.699 326.2 455.999 332.3 455.999C338.4 455.999 340.1 455.499 343.9 454.399C351.7 452.099 358.4 447.599 363.2 441.699C368.5 440.099 374 438.399 379.6 436.299C387.6 433.299 394.7 429.799 401.1 425.999C404.5 432.399 410 437.399 416.9 440.099C418.4 440.699 419.9 441.099 421.4 441.399C422.8 441.699 424.1 441.899 425.4 441.999C426.7 442.199 428.1 442.299 429.4 442.299H430.4C431.2 442.299 431.9 442.299 432.6 442.299C433.3 442.299 433.9 442.299 434.6 442.299C435.7 442.299 436.8 442.299 437.8 442.199H438.6C439.5 442.199 440.3 442.299 441.3 442.299C442.3 442.299 443.4 442.299 444.4 442.199H445.2C446.1 442.199 447 442.299 447.9 442.299C448.8 442.299 450 442.299 451 442.199H451.9C452.8 442.199 453.7 442.299 454.6 442.299H455.5C456.8 442.299 458.1 442.299 459.5 441.999C463 441.599 466.4 440.699 469.5 439.199C472.9 437.599 476 435.499 478.5 432.899L479.3 432.099C479.7 431.699 480.1 431.299 480.4 430.799C480.8 430.399 481.1 430.099 481.5 429.699C484.4 426.699 486.6 423.399 488.2 419.599C488.5 418.999 488.7 418.399 488.9 417.699C490.5 415.199 491.7 412.499 492.5 409.699C493.1 407.499 493.6 405.299 493.8 402.999V402.599C493.8 401.499 493.9 400.499 493.9 399.499C493.9 398.499 493.9 397.599 493.8 396.699V395.899C493.8 394.899 493.9 393.899 493.9 392.899V393.199L493.4 393.099Z" fill="white"/>
<path d="M452.3 299.701V216.801C452.3 216.201 451.7 215.801 450.9 215.801H255.4C254.6 215.801 254 215.401 254 214.801V114.801C254 114.201 253.4 113.801 252.6 113.801H240.5C239.7 113.801 239.1 114.201 239.1 114.801V214.801C239.1 215.401 238.5 215.801 237.7 215.801H44.2999C43.4999 215.801 42.8999 216.201 42.8999 216.801L41.2999 299.701C41.2999 300.201 40.5999 300.701 39.8999 300.701H28.8999C27.7999 300.601 27.0999 301.401 27.5999 302.101L47.0999 327.101C47.5999 327.801 48.9999 327.801 49.4999 327.101L69.8999 302.501C70.4999 301.801 69.7999 301.001 68.6999 301.001H57.6999C56.8999 300.901 56.2999 300.401 56.2999 299.901L57.6999 227.601C57.6999 227.001 58.2999 226.601 59.0999 226.601H435.9C436.7 226.601 437.3 227.101 437.3 227.601V299.801C437.3 300.301 436.7 300.801 435.9 300.801H424.9C423.8 300.801 423.1 301.701 423.7 302.301L443.7 327.101C444.2 327.801 445.6 327.801 446.1 327.101L466.1 302.301C466.6 301.601 466 300.801 464.9 300.801H453.9C453.1 300.801 452.5 300.301 452.5 299.801" fill="black"/>
<path d="M98.2002 94.2008V92.0008C98.2002 91.5008 98.3002 91.1008 98.3002 90.6008V89.3008C98.3002 89.0008 98.3002 88.6008 98.3002 88.3008C98.3002 88.0008 98.3002 87.6008 98.3002 87.3008C98.3002 87.0008 98.3002 86.6008 98.3002 86.2008C98.3002 85.8008 98.3002 85.4008 98.3002 85.0008V82.1008C98.3002 81.5008 98.3002 81.0008 98.3002 80.5008C98.3002 80.0008 98.3002 79.5008 98.3002 79.0008C98.3002 78.7008 98.4002 78.3008 98.4002 78.0008V74.5008C98.4002 74.0008 98.4002 73.5008 98.4002 73.1008C98.4002 72.6008 98.4002 72.2008 98.4002 71.7008C98.4002 71.2008 98.4002 70.9008 98.4002 70.5008C98.4002 70.1008 98.4002 69.7008 98.4002 69.3008V68.2008C98.4002 67.8008 98.4002 67.4008 98.3002 67.1008V65.6008C98.3002 65.3008 98.4002 64.9008 98.4002 64.5008V61.0008C98.4002 60.5008 98.4002 60.0008 98.4002 59.6008C98.4002 59.1008 98.4002 58.7008 98.4002 58.2008C98.4002 57.7008 98.4002 57.3008 98.4002 56.9008C98.4002 56.5008 98.4002 56.0008 98.4002 55.6008V54.6008C98.4002 54.3008 98.4002 53.9008 98.3002 53.6008V53.4008C98.3002 52.9008 98.3002 52.3008 98.3002 51.7008C98.3002 51.1008 98.3002 50.5008 98.3002 50.0008V47.7008C98.3002 47.2008 98.3002 46.7008 98.3002 46.3008C98.3002 45.8008 98.3002 45.4008 98.3002 44.9008C98.3002 44.4008 98.4002 43.8008 98.4002 43.4008V41.9008C98.4002 41.2008 98.4002 40.7008 98.3002 40.3008V39.8008C98.3002 39.3008 98.3002 38.8008 98.3002 38.3008C98.3002 37.8008 98.3002 37.3008 98.3002 36.7008V34.3008C98.3002 34.0008 98.3002 33.5008 98.3002 33.1008C98.3002 32.7008 98.3002 32.3008 98.3002 31.9008C98.3002 31.5008 98.4002 31.2008 98.5002 30.9008C98.5002 30.6008 98.6002 30.2008 98.8002 29.9008C99.3002 28.8008 100.2 28.0008 101.4 27.7008C101.7 27.5008 102.1 27.5008 102.5 27.5008H103.7C104 27.5008 104.3 27.6008 104.6 27.6008H107.5C107.8 27.6008 108.1 27.6008 108.4 27.5008H110.1C110.4 27.5008 110.7 27.5008 111 27.5008C111.3 27.5008 111.6 27.5008 111.9 27.5008H113.8C114.1 27.5008 114.5 27.5008 114.8 27.4008H116.5C116.8 27.4008 117.1 27.4008 117.4 27.4008C117.7 27.4008 118 27.4008 118.3 27.4008H120.2C120.6 27.4008 121 27.4008 121.3 27.3008H123C123.3 27.3008 123.6 27.3008 123.9 27.3008C124.1 27.3008 124.4 27.3008 124.8 27.3008H126.1C126.4 27.3008 126.7 27.3008 127 27.3008C127.2 27.3008 127.5 27.3008 127.9 27.3008C128.3 27.3008 128.6 27.3008 128.9 27.3008C129.3 27.3008 129.6 27.3008 129.9 27.3008C130.2 27.3008 130.4 27.3008 130.6 27.3008C130.8 27.3008 131 27.3008 131.3 27.5008C132.5 27.9008 133.3 28.8008 133.7 30.3008C133.9 31.1008 133.9 31.9008 133.8 32.9008C133.8 33.3008 133.8 33.9008 133.6 34.6008C133.2 35.7008 132.4 36.5008 131.2 36.9008C130.8 37.1008 130.3 37.1008 129.7 37.1008C129 37.1008 128.3 37.1008 127.6 37.1008H124.8C124.3 37.1008 123.9 37.1008 123.5 37.1008C123.1 37.1008 122.6 37.1008 122.2 37.1008C121.8 37.1008 121 37.1008 120.4 37.1008C119.8 37.1008 119.2 37.1008 118.6 37.1008C118 37.1008 117.5 37.1008 116.9 37.1008C116.3 37.1008 115.8 37.1008 115.3 37.1008C114.8 37.1008 114.2 37.1008 113.7 37.1008C113.2 37.1008 112.7 37.1008 112.1 37.1008C111.5 37.1008 111.4 37.1008 111 37.1008C110.7 37.1008 110.2 37.1008 109.9 37.3008C109.1 37.5008 108.6 37.8008 108.4 38.4008C108.1 38.8008 108 39.2008 108 39.6008C108 39.9008 107.9 40.1008 107.9 40.4008C107.9 40.7008 107.9 40.9008 107.8 41.2008V42.9008C107.8 43.6008 107.8 44.2008 107.9 44.5008V46.3008C107.9 46.5008 107.9 46.7008 107.9 47.0008C107.9 47.2008 107.9 47.5008 107.9 47.8008V50.8008C107.9 51.2008 107.9 51.6008 108.1 51.9008C108.1 52.2008 108.2 52.6008 108.4 53.0008C108.7 53.5008 109.3 53.9008 110.1 54.2008C110.4 54.2008 110.9 54.3008 111.5 54.3008C111.8 54.3008 112.2 54.4008 112.6 54.4008H113.7C114 54.4008 114.3 54.4008 114.6 54.4008C114.9 54.4008 115.2 54.4008 115.5 54.4008H117.5C118.1 54.4008 118.5 54.5008 119 54.5008H120.5C120.8 54.5008 121.2 54.5008 121.6 54.5008C122 54.5008 122.4 54.5008 122.8 54.5008C123.6 54.5008 124.4 54.6008 125 54.8008C126.1 55.3008 126.9 56.2008 127.2 57.6008C127.3 58.0008 127.4 58.5008 127.4 58.9008V60.2008C127.4 60.5008 127.4 61.1008 127.2 61.8008C126.8 63.1008 125.9 64.0008 124.6 64.4008C124.3 64.4008 123.9 64.5008 123.4 64.5008C122.9 64.5008 122.9 64.5008 122.7 64.5008C122.5 64.5008 122.3 64.5008 122 64.5008C121.7 64.5008 121.1 64.4008 120.5 64.4008H117.3C117 64.4008 116.6 64.4008 116.3 64.4008C116 64.4008 115.7 64.4008 115.3 64.4008C114.7 64.4008 114.2 64.3008 113.7 64.2008C113.2 64.2008 112.7 64.2008 112.1 64.2008H110.9C110.5 64.2008 110.1 64.2008 109.8 64.4008C108.9 64.7008 108.3 65.3008 108 66.3008C108 66.6008 107.9 67.0008 107.9 67.2008C107.9 67.4008 107.9 67.8008 107.8 68.1008V70.5008C107.8 70.8008 107.8 71.1008 107.9 71.4008V73.1008C107.9 73.4008 107.9 73.7008 107.9 73.9008C107.9 74.1008 107.9 74.4008 107.9 74.7008V77.3008C107.9 77.6008 107.9 77.9008 108 78.2008V79.9008C108 80.2008 108 80.5008 108 80.7008C108 80.9008 108 81.2008 108 81.5008V84.1008C108 84.4008 108 84.7008 108.1 85.0008V86.8008C108.1 87.1008 108.1 87.4008 108.1 87.6008C108.1 87.8008 108.1 88.1008 108.1 88.4008V90.8008C108.1 91.1008 108.1 91.5008 108.2 91.8008V96.6008C108.2 97.2008 108.1 97.9008 107.9 98.7008C107.5 100.001 106.6 100.901 105.2 101.301C104.5 101.501 104 101.501 103.8 101.501H102.5C102.2 101.501 101.8 101.301 101.5 101.301C101.2 101.301 100.9 101.101 100.5 101.001C99.6002 100.501 99.0002 99.7008 98.7002 98.7008C98.7002 98.4008 98.6002 98.1008 98.5002 97.8008C98.5002 97.6008 98.5002 97.2008 98.5002 96.9008V94.3008V94.5008L98.2002 94.2008Z" fill="black"/>
<path d="M168.699 101.399H166.299C165.999 101.399 165.799 101.399 165.499 101.399C165.299 101.399 164.999 101.399 164.799 101.399C164.399 101.399 164.099 101.399 163.799 101.399C163.499 101.399 163.199 101.399 162.899 101.399H162.399C160.499 101.599 158.699 101.599 156.899 101.399C156.299 101.399 155.699 101.299 154.999 101.099C154.599 100.999 154.399 100.799 154.099 100.599C153.899 100.399 153.599 100.299 153.299 99.9992L152.399 99.0992C151.799 98.4992 151.099 98.1992 150.299 98.1992L148.799 97.8992C147.499 97.4992 146.699 96.5992 146.399 95.3992C146.299 95.0992 146.199 94.7992 146.199 94.4992C146.199 94.1992 146.199 93.8992 146.099 93.5992C145.899 92.6992 145.499 91.8992 144.899 91.2992L143.999 90.3992C143.399 89.4992 143.099 88.6992 142.999 87.9992V87.0992C142.999 86.7992 142.999 86.4992 142.899 86.1992V84.0992C142.899 83.5992 142.999 83.1992 142.999 82.6992V71.2992C142.999 70.8992 142.999 70.4992 142.899 70.0992V66.9992C142.899 66.5992 142.899 66.0992 142.899 65.6992C142.899 65.2992 142.899 64.8992 142.899 64.3992C142.899 63.8992 142.899 63.3992 142.899 62.9992C142.899 62.4992 142.899 62.0992 142.899 61.5992C142.899 61.0992 142.899 60.3992 142.899 59.7992C142.899 59.1992 142.899 58.5992 142.899 57.9992C142.899 57.5992 142.899 57.0992 142.899 56.6992C142.899 56.1992 142.899 55.7992 142.899 55.3992C142.899 54.7992 142.899 54.0992 142.899 53.5992C142.899 52.9992 142.899 52.3992 142.899 51.7992C142.899 51.2992 142.899 50.6992 142.899 50.1992C142.899 49.6992 142.899 49.1992 142.899 48.5992C142.899 48.0992 142.899 47.3992 142.899 46.7992C142.899 46.1992 142.899 45.5992 142.899 44.9992C142.899 44.4992 142.899 43.9992 142.899 43.5992C142.899 43.0992 142.899 42.6992 142.899 42.1992V32.3992C142.899 31.5992 142.999 30.8992 143.199 30.2992C143.599 29.1992 144.299 28.4992 145.599 28.0992C146.299 27.9992 146.799 27.8992 147.199 27.8992H148.599C149.499 28.0992 150.299 28.2992 150.999 28.7992C151.599 29.1992 151.899 29.6992 152.099 30.3992C152.199 30.7992 152.299 31.0992 152.299 31.2992C152.299 31.4992 152.299 31.8992 152.499 32.1992V34.5992C152.499 34.8992 152.399 35.2992 152.399 35.4992V36.3992C152.399 36.7992 152.399 37.2992 152.399 37.6992C152.399 38.1992 152.399 38.5992 152.399 38.9992V40.6992C152.399 41.1992 152.299 41.7992 152.299 42.3992V44.0992C152.299 44.3992 152.399 44.7992 152.399 44.9992V45.8992C152.399 46.1992 152.399 46.5992 152.399 46.9992C152.399 47.3992 152.399 47.7992 152.399 48.0992V50.2992C152.399 50.5992 152.399 50.7992 152.399 51.1992C152.399 51.4992 152.399 51.6992 152.399 52.0992V52.9992C152.399 53.2992 152.399 53.6992 152.399 53.8992C152.399 54.0992 152.399 54.3992 152.399 54.7992V56.9992C152.399 57.2992 152.399 57.4992 152.399 57.7992C152.399 57.9992 152.399 58.2992 152.399 58.5992V59.4992C152.399 59.7992 152.399 60.1992 152.399 60.4992C152.399 60.7992 152.399 61.1992 152.399 61.4992V63.6992C152.399 63.9992 152.399 64.2992 152.399 64.4992C152.399 64.7992 152.399 65.0992 152.399 65.2992V69.4992C152.399 69.7992 152.399 70.1992 152.399 70.4992C152.399 70.7992 152.399 71.1992 152.399 71.4992V73.5992C152.399 73.8992 152.399 74.2992 152.399 74.4992C152.399 74.6992 152.399 74.9992 152.399 75.2992V76.1992C152.399 76.4992 152.399 76.8992 152.399 77.1992C152.399 77.4992 152.399 77.8992 152.399 78.1992V80.3992C152.399 80.6992 152.399 80.9992 152.399 81.1992C152.399 81.3992 152.399 81.6992 152.399 81.9992V85.0992C152.399 85.3992 152.499 85.7992 152.599 86.0992C152.599 86.3992 152.699 86.7992 152.799 87.0992C152.899 87.3992 153.199 87.6992 153.599 88.1992C154.199 88.8992 154.899 89.5992 155.499 90.1992C155.899 90.7992 156.599 91.0992 157.699 91.3992C158.099 91.3992 158.399 91.3992 158.699 91.3992C158.999 91.3992 159.299 91.3992 159.699 91.3992H162.299C162.799 91.3992 163.199 91.4992 163.699 91.4992H165.099C165.799 91.4992 166.399 91.3992 167.099 91.3992C167.799 91.3992 168.399 91.3992 169.099 91.2992C169.799 91.2992 170.199 91.2992 170.499 91.1992C171.099 90.9992 171.599 90.6992 172.099 90.2992C172.399 89.9992 172.599 89.6992 172.899 89.4992C173.199 89.2992 173.399 88.8992 173.699 88.5992C174.099 88.3992 174.299 88.0992 174.499 87.6992C174.899 87.1992 175.099 86.5992 175.199 85.7992C175.199 85.4992 175.199 85.1992 175.199 84.8992C175.199 84.5992 175.199 84.2992 175.199 83.9992V81.9992C175.199 81.4992 175.299 80.9992 175.299 80.5992V79.0992C175.299 78.7992 175.299 78.3992 175.299 78.1992C175.299 77.8992 175.299 77.5992 175.299 77.2992V74.6992C175.299 74.2992 175.399 73.7992 175.399 73.3992V72.0992C175.399 71.0992 175.299 70.0992 175.299 69.1992V66.2992C175.299 65.8992 175.299 65.3992 175.299 64.9992C175.299 64.5992 175.299 64.0992 175.299 63.6992V61.5992C175.299 61.5992 175.199 61.2992 175.199 60.9992V58.3992C175.199 57.8992 175.199 57.3992 175.199 56.9992C175.199 56.4992 175.199 56.0992 175.199 55.5992C175.199 55.0992 175.199 54.8992 175.199 54.5992C175.199 54.2992 175.199 53.8992 175.199 53.5992V50.9992C175.199 50.5992 175.299 50.0992 175.299 49.6992V48.3992C175.299 47.8992 175.299 47.3992 175.299 46.9992C175.299 46.4992 175.299 46.0992 175.299 45.5992C175.299 45.0992 175.299 44.8992 175.299 44.5992C175.299 44.2992 175.299 43.8992 175.299 43.5992V41.4992C175.299 41.4992 175.299 41.2992 175.299 41.1992C175.299 41.1992 175.299 41.0992 175.299 40.9992V38.3992C175.299 37.8992 175.299 37.3992 175.299 36.8992C175.299 36.3992 175.299 35.8992 175.299 35.3992C175.299 34.8992 175.299 34.6992 175.299 34.4992C175.299 34.1992 175.299 33.8992 175.299 33.5992V32.1992C175.299 31.6992 175.299 31.2992 175.499 30.7992C175.899 29.1992 176.799 28.1992 178.299 27.8992C178.899 27.7992 179.299 27.6992 179.699 27.6992H180.999C181.399 27.6992 181.699 27.8992 181.999 27.8992C182.299 27.8992 182.599 28.0992 182.999 28.1992C183.899 28.6992 184.499 29.5992 184.899 30.7992C184.899 31.1992 184.999 31.5992 185.099 31.9992C185.099 32.3992 185.099 32.7992 185.099 33.1992V34.9992C185.099 35.1992 185.099 35.3992 185.099 35.5992C185.099 35.7992 185.099 35.9992 185.099 36.0992C185.099 36.3992 185.199 36.7992 185.199 37.0992V41.5992C185.199 41.5992 185.199 41.8992 185.199 42.0992C185.199 42.2992 185.199 42.4992 185.199 42.6992C185.199 42.9992 185.299 43.3992 185.299 43.6992V48.0992C185.299 48.2992 185.299 48.4992 185.299 48.6992C185.299 48.8992 185.299 49.0992 185.299 49.2992C185.299 49.5992 185.399 49.9992 185.399 50.3992V54.7992C185.399 55.0992 185.399 55.4992 185.399 55.6992C185.399 55.8992 185.399 56.2992 185.399 56.5992C185.399 56.8992 185.499 57.3992 185.499 57.7992V59.0992C185.499 59.3992 185.499 59.7992 185.499 59.9992C185.499 60.1992 185.499 60.4992 185.499 60.8992V61.3992C185.499 61.6992 185.499 62.0992 185.499 62.3992C185.499 62.6992 185.499 63.0992 185.499 63.3992C185.599 64.4992 185.699 65.5992 185.699 66.6992C185.699 67.7992 185.699 68.8992 185.699 69.8992V71.0992C185.699 71.4992 185.699 71.8992 185.599 72.1992C185.599 72.4992 185.599 72.6992 185.599 72.9992C185.599 73.1992 185.599 73.4992 185.599 73.7992V78.8992C185.599 79.2992 185.599 79.7992 185.499 80.1992C185.499 80.4992 185.499 80.7992 185.499 80.9992C185.499 81.1992 185.499 81.4992 185.499 81.7992V82.6992C185.499 83.2992 185.499 83.9992 185.499 84.5992C185.499 85.1992 185.499 85.8992 185.499 86.4992V87.6992C185.499 88.0992 185.499 88.4992 185.299 88.7992C185.099 89.0992 184.999 89.4992 184.799 89.6992C184.599 89.8992 184.399 90.1992 184.199 90.4992C184.099 90.6992 183.899 90.7992 183.799 90.8992C183.699 91.0992 183.499 91.1992 183.399 91.2992C182.699 92.0992 182.299 92.8992 182.299 93.6992C182.299 93.9992 182.199 94.3992 182.099 94.5992C182.099 94.7992 182.099 95.0992 181.899 95.3992C181.499 96.6992 180.599 97.4992 179.299 97.7992C178.899 97.9992 178.599 97.9992 178.399 98.0992C178.099 98.0992 177.799 98.0992 177.599 98.2992C176.799 98.2992 176.199 98.7992 175.399 99.4992C175.099 99.7992 174.899 100.099 174.699 100.299C174.499 100.499 174.199 100.699 173.899 100.899C173.599 101.099 173.299 101.099 173.099 101.199C172.799 101.199 172.499 101.399 172.299 101.399C171.699 101.599 171.199 101.599 170.699 101.599C170.099 101.599 169.599 101.599 169.099 101.599" fill="black"/>
<path d="M205.9 37.3C205.6 37.3 205.3 37.3 205 37.3H203.3C203.3 37.3 203.1 37.3 203 37.3C203 37.3 202.8 37.3 202.7 37.3H202C201.4 37.3 201 37.3 200.5 37.3C200.1 37.3 199.6 37.3 199 37.3C198.2 37.3 197.5 37.1 196.8 36.7C196 36.2 195.4 35.4 195.2 34.4C195.2 34.1 195.1 33.5 195.1 32.8V31.6C195.1 31.2 195.1 30.8 195.2 30.4C195.6 28.9 196.6 27.9 198.1 27.5C198.5 27.3 198.9 27.3 199.3 27.3H200.5C200.9 27.3 201.1 27.4 201.4 27.4H204.3C204.6 27.4 204.9 27.4 205.3 27.3H207C207.4 27.3 207.7 27.3 208 27.3C208.3 27.3 208.6 27.3 209 27.3H210.7C211.1 27.3 211.4 27.3 211.7 27.2H213.4C213.8 27.2 214 27.2 214.3 27.2C214.6 27.2 214.9 27.2 215.2 27.2H217.1C217.5 27.2 217.9 27.2 218.2 27.1H219.9C220.3 27.1 220.5 27.1 220.8 27.1C221.1 27.1 221.4 27.1 221.6 27.1H223.5C223.9 27.1 224.3 27.1 224.7 27H226.3C226.7 27 226.9 27 227.2 27C227.5 27 227.8 27 228.1 27H229.3C229.7 27 230 27 230.2 27C230.5 27 230.8 27 231 27C231.2 27 231.7 27 232.1 27C232.5 27 232.9 27 233.2 27C233.8 27 234.3 27.1 234.8 27.3C235.8 27.7 236.5 28.5 236.9 29.6C237.1 30 237.1 30.3 237.1 30.5V32.4C237.1 32.7 237.1 33.1 237 33.4C237 33.7 236.9 34.1 236.8 34.3C236.8 34.5 236.6 34.8 236.5 35.1C236 36 235.2 36.5 234.1 36.7C233.8 36.7 233.6 36.8 233.3 36.9C233.1 36.9 232.8 36.9 232.4 36.9C232.1 36.9 231.8 36.8 231.6 36.8H226.5C226 36.8 225.5 36.8 224.9 36.9C224.6 36.9 224.4 36.9 224.1 36.9C223.9 36.9 223.6 36.9 223.3 36.9C222.7 36.9 222.2 37.1 221.9 37.4C221.4 37.7 221.1 38.2 221 38.9C221 39.2 221 39.4 221 39.7C221 39.9 221 40.2 221 40.5C221 40.8 220.9 41.4 220.9 42C220.9 42.6 220.9 43 220.9 43.5C220.9 44 220.9 44.5 220.9 45V46.7C220.9 47.3 220.8 47.8 220.8 48.4V50.1C220.8 50.4 220.9 50.8 220.9 51.4V53.3C220.9 53.6 220.9 53.9 220.8 54.2V56.2C220.8 56.5 220.8 56.9 220.8 57.1C220.8 57.3 220.8 57.6 220.8 57.9V60C220.8 60.3 220.8 60.6 220.7 60.9V62.9C220.7 63.2 220.7 63.6 220.7 63.8C220.7 64 220.7 64.3 220.7 64.6V66.6C220.7 66.9 220.7 67.3 220.6 67.6V69.7C220.6 70 220.6 70.3 220.6 70.6C220.6 70.9 220.6 71.2 220.6 71.4V73.3C220.6 73.6 220.6 74 220.5 74.4V76.5C220.5 76.8 220.5 77.1 220.5 77.4C220.5 77.7 220.5 78 220.5 78.3V80.3C220.5 80.6 220.5 81 220.4 81.3V83.3C220.4 83.6 220.4 83.9 220.4 84.1C220.4 84.3 220.4 84.6 220.4 84.9V86.9C220.4 87.3 220.4 87.7 220.3 88V90C220.3 90.3 220.4 90.7 220.4 90.9V97.1C220.4 97.4 220.4 97.8 220.2 98.1C219.8 99.5 218.9 100.4 217.4 100.7C216.6 100.9 215.7 100.9 214.6 100.8C214.1 100.8 213.6 100.7 213 100.5C212.1 100.1 211.4 99.3 211.1 98.3C210.9 97.7 210.8 97 210.8 96.4C210.8 95.8 210.8 95.1 210.8 94.6C210.8 94 210.8 93.4 210.8 92.9C210.8 92.6 210.9 92.2 210.9 91.9V90.9C210.9 90.4 210.9 90 210.9 89.5C210.9 89.1 210.9 88.6 210.9 88.1V84.8C210.9 84.2 210.9 83.7 210.9 83.1C210.9 82.5 210.9 81.9 210.9 81.4C210.9 80.8 210.9 80.3 210.9 79.7C210.9 79.1 210.9 78.6 210.9 78C211 76.8 211 75.6 210.9 74.5C210.9 73.9 210.9 73.4 210.9 72.8C210.9 72.2 210.9 71.6 210.9 71.1C210.9 70 210.9 68.8 210.9 67.7V64.6C210.9 64 210.9 63.5 210.9 62.9C210.9 62.3 210.9 61.7 210.9 61.2C210.9 60.6 210.9 59.9 210.9 59.4C210.9 58.8 210.9 58.2 210.9 57.7C210.9 56.6 210.9 55.5 210.9 54.3V44.8C210.9 44.3 210.9 43.7 210.9 43.2C210.9 42.7 210.9 42.2 210.9 41.6V40.3C210.9 39.9 210.9 39.5 210.7 39C210.3 37.9 209.7 37.3 208.8 37.2C208.4 37.2 208.1 37.2 207.9 37.2C207.6 37.2 207.3 37.2 207.1 37.2H206.5C206.1 37.2 205.8 37.2 205.6 37.2" fill="black"/>
<path d="M272.6 101.399H270.2C269.9 101.399 269.7 101.399 269.4 101.399C269.2 101.399 268.9 101.399 268.7 101.399C268.3 101.399 268 101.399 267.7 101.399C267.4 101.399 267.1 101.399 266.7 101.399H266.2C264.3 101.599 262.5 101.599 260.7 101.399C260.1 101.399 259.5 101.299 258.8 101.099C258.4 100.999 258.2 100.799 257.9 100.599C257.7 100.399 257.4 100.299 257.1 99.9992L256.2 99.0992C255.6 98.4992 254.9 98.1992 254 98.1992L252.5 97.8992C251.2 97.4992 250.4 96.5992 250.1 95.3992C250 95.0992 249.9 94.7992 249.9 94.4992C249.9 94.1992 249.9 93.8992 249.8 93.5992C249.6 92.6992 249.2 91.8992 248.6 91.2992L247.7 90.3992C247.1 89.4992 246.8 88.6992 246.7 87.9992V87.0992C246.7 86.7992 246.7 86.4992 246.6 86.1992V84.0992C246.6 83.5992 246.7 83.1992 246.7 82.6992V71.2992C246.7 70.8992 246.7 70.4992 246.6 70.0992V66.9992C246.6 66.5992 246.6 66.0992 246.6 65.6992C246.6 65.2992 246.6 64.8992 246.6 64.3992C246.6 63.8992 246.6 63.3992 246.6 62.9992C246.6 62.4992 246.6 62.0992 246.6 61.5992C246.6 61.0992 246.6 60.3992 246.6 59.7992C246.6 59.1992 246.6 58.5992 246.6 57.9992C246.6 57.5992 246.6 57.0992 246.6 56.6992C246.6 56.1992 246.6 55.7992 246.6 55.3992C246.6 54.7992 246.6 54.0992 246.6 53.5992C246.6 52.9992 246.6 52.3992 246.6 51.7992C246.6 51.2992 246.6 50.6992 246.6 50.1992C246.6 49.6992 246.6 49.1992 246.6 48.5992C246.6 48.0992 246.6 47.3992 246.6 46.7992C246.6 46.1992 246.6 45.5992 246.6 44.9992C246.6 44.4992 246.6 43.9992 246.6 43.5992C246.6 43.0992 246.6 42.6992 246.6 42.1992V32.3992C246.6 31.5992 246.7 30.8992 246.9 30.2992C247.3 29.1992 248 28.4992 249.3 28.0992C250 27.9992 250.5 27.8992 250.9 27.8992H252.3C253.2 28.0992 254 28.2992 254.7 28.7992C255.3 29.1992 255.6 29.6992 255.8 30.3992C255.9 30.7992 256 31.0992 256.1 31.2992C256.1 31.5992 256.1 31.8992 256.3 32.1992V34.5992C256.3 34.8992 256.2 35.2992 256.2 35.4992V36.3992C256.2 36.7992 256.2 37.2992 256.2 37.6992C256.2 38.1992 256.2 38.5992 256.2 38.9992V40.6992C256.2 41.1992 256.1 41.7992 256.1 42.3992V44.0992C256.1 44.3992 256.2 44.7992 256.2 44.9992V45.8992C256.2 46.1992 256.2 46.5992 256.2 46.9992C256.2 47.3992 256.2 47.7992 256.2 48.0992V50.2992C256.2 50.5992 256.2 50.7992 256.2 51.1992C256.2 51.4992 256.2 51.6992 256.2 52.0992V52.9992C256.2 53.2992 256.2 53.6992 256.2 53.8992C256.2 54.0992 256.2 54.3992 256.2 54.7992V56.9992C256.2 57.2992 256.2 57.4992 256.2 57.7992C256.2 57.9992 256.2 58.2992 256.2 58.5992V59.4992C256.2 59.7992 256.2 60.1992 256.2 60.4992C256.2 60.7992 256.2 61.1992 256.2 61.4992V63.6992C256.2 63.9992 256.2 64.1992 256.2 64.4992C256.2 64.7992 256.2 65.0992 256.2 65.2992V69.4992C256.2 69.7992 256.2 70.1992 256.2 70.4992C256.2 70.7992 256.2 71.1992 256.2 71.4992V73.5992C256.2 73.8992 256.2 74.2992 256.2 74.4992C256.2 74.6992 256.2 74.9992 256.2 75.2992V76.1992C256.2 76.4992 256.2 76.8992 256.2 77.1992C256.2 77.4992 256.2 77.8992 256.2 78.1992V80.3992C256.2 80.6992 256.2 80.9992 256.2 81.1992C256.2 81.3992 256.2 81.6992 256.2 81.9992V85.0992C256.2 85.3992 256.3 85.7992 256.4 86.0992C256.4 86.3992 256.5 86.7992 256.6 87.0992C256.8 87.3992 257 87.6992 257.4 88.1992C258 88.8992 258.7 89.5992 259.3 90.1992C259.7 90.7992 260.4 91.0992 261.4 91.3992C261.8 91.3992 262.1 91.3992 262.4 91.3992C262.7 91.3992 263 91.3992 263.4 91.3992H266.1C266.6 91.3992 267 91.4992 267.5 91.4992H268.9C269.6 91.4992 270.2 91.3992 270.9 91.3992C271.6 91.3992 272.2 91.3992 272.9 91.2992C273.6 91.2992 274 91.2992 274.3 91.1992C274.8 90.9992 275.4 90.6992 275.9 90.2992C276.2 89.9992 276.4 89.6992 276.7 89.4992C277 89.2992 277.2 88.8992 277.5 88.5992C277.9 88.3992 278.1 88.0992 278.3 87.6992C278.7 87.1992 278.9 86.5992 279 85.7992C279 85.4992 279 85.1992 279 84.8992C279 84.5992 279 84.2992 279 83.9992V81.9992C279 81.4992 279.1 80.9992 279.1 80.5992V79.0992C279.1 78.7992 279.1 78.3992 279.1 78.1992C279.1 77.8992 279.1 77.5992 279.1 77.2992V74.6992C279.1 74.2992 279.2 73.7992 279.2 73.3992V72.0992C279.2 71.0992 279.1 70.0992 279.1 69.1992V66.2992C279.1 65.8992 279.1 65.3992 279.1 64.9992C279.1 64.5992 279.1 64.0992 279.1 63.6992V61.5992C279.1 61.5992 279 61.2992 279 60.9992V58.3992C279 57.8992 279 57.3992 279 56.9992C279 56.4992 279 56.0992 279 55.5992C279 55.0992 279 54.8992 279 54.5992C279 54.2992 279 53.8992 279 53.5992V50.9992C279 50.5992 279.1 50.0992 279.1 49.6992V48.3992C279.1 47.8992 279.1 47.3992 279.1 46.9992C279.1 46.4992 279.1 46.0992 279.1 45.5992C279.1 45.0992 279.1 44.8992 279.1 44.5992C279.1 44.2992 279.1 43.8992 279.1 43.5992V41.4992C279.1 41.4992 279.1 41.2992 279.1 41.1992C279.1 41.1992 279.1 41.0992 279.1 40.9992V38.3992C279.1 37.8992 279.1 37.3992 279.1 36.8992C279.1 36.3992 279.1 35.8992 279.1 35.3992C279.1 34.8992 279.1 34.6992 279.1 34.4992C279.1 34.1992 279.1 33.8992 279.1 33.5992V32.1992C279.1 31.6992 279.1 31.2992 279.3 30.7992C279.7 29.1992 280.6 28.1992 282.1 27.8992C282.6 27.7992 283.1 27.6992 283.5 27.6992H284.8C285.2 27.6992 285.5 27.8992 285.8 27.8992C286.1 27.8992 286.4 28.0992 286.8 28.1992C287.7 28.6992 288.3 29.5992 288.7 30.7992C288.7 31.1992 288.8 31.5992 288.9 31.9992C288.9 32.3992 288.9 32.7992 288.9 33.1992V34.9992C288.9 35.1992 288.9 35.3992 288.9 35.5992C288.9 35.7992 288.9 35.9992 288.9 36.0992C288.9 36.3992 289 36.7992 289 37.0992V41.5992C289 41.5992 289 41.8992 289 42.0992C289 42.2992 289 42.4992 289 42.6992C289 42.9992 289.1 43.3992 289.1 43.6992V48.0992C289.1 48.2992 289.1 48.4992 289.1 48.6992C289.1 48.8992 289.1 49.0992 289.1 49.2992C289.1 49.5992 289.2 49.9992 289.2 50.3992V54.7992C289.2 55.0992 289.2 55.4992 289.2 55.6992C289.2 55.9992 289.2 56.2992 289.2 56.5992C289.2 56.8992 289.3 57.3992 289.3 57.7992V59.0992C289.3 59.3992 289.3 59.7992 289.3 59.9992C289.3 60.1992 289.3 60.4992 289.3 60.8992V61.3992C289.3 61.6992 289.3 62.0992 289.3 62.3992C289.3 62.6992 289.3 63.0992 289.3 63.3992C289.4 64.4992 289.5 65.5992 289.5 66.6992C289.5 67.7992 289.5 68.8992 289.5 69.8992V71.0992C289.5 71.4992 289.5 71.8992 289.4 72.1992C289.4 72.4992 289.4 72.6992 289.4 72.9992C289.4 73.1992 289.4 73.4992 289.4 73.7992V78.8992C289.4 79.2992 289.4 79.7992 289.3 80.1992C289.3 80.4992 289.3 80.7992 289.3 80.9992C289.3 81.1992 289.3 81.4992 289.3 81.7992V82.6992C289.3 83.2992 289.3 83.9992 289.3 84.5992C289.3 85.1992 289.3 85.8992 289.3 86.4992V87.6992C289.3 88.0992 289.3 88.4992 289.1 88.7992C289 89.0992 288.8 89.4992 288.6 89.6992C288.4 89.8992 288.2 90.1992 288.1 90.4992C288 90.6992 287.8 90.7992 287.7 90.8992C287.6 91.0992 287.4 91.1992 287.3 91.2992C286.6 92.0992 286.2 92.8992 286.2 93.6992C286.2 93.9992 286.1 94.3992 286 94.5992C286 94.7992 286 95.0992 285.8 95.3992C285.4 96.6992 284.5 97.4992 283.2 97.7992C282.8 97.9992 282.5 97.9992 282.3 98.0992C282 98.0992 281.8 98.0992 281.5 98.2992C280.7 98.2992 280 98.7992 279.3 99.4992C279 99.7992 278.8 100.099 278.6 100.299C278.4 100.499 278.1 100.699 277.8 100.899C277.5 101.099 277.3 101.099 277 101.199C276.7 101.199 276.5 101.399 276.2 101.399C275.7 101.599 275.1 101.599 274.6 101.599C274.1 101.599 273.5 101.599 273 101.599" fill="black"/>
<path d="M316.3 37.2992H315.1C314.7 37.2992 314.3 37.2992 314 37.3992C313.8 37.3992 313.6 37.4992 313.4 37.4992C313.2 37.4992 313 37.4992 312.8 37.6992C312.6 37.6992 312.4 37.8992 312.1 38.1992C311.7 38.6992 311.5 39.1992 311.5 39.7992C311.5 40.0992 311.4 40.4992 311.3 40.6992C311.3 40.8992 311.3 41.1992 311.3 41.5992V43.7992C311.3 44.0992 311.3 44.2992 311.3 44.5992C311.3 44.8992 311.3 45.1992 311.3 45.4992V46.2992C311.3 46.5992 311.2 47.1992 311.2 47.7992V51.0992C311.2 51.0992 311.2 51.3992 311.2 51.4992C311.2 51.6992 311.2 51.7992 311.2 51.8992V52.7992C311.2 53.1992 311.2 53.6992 311.2 54.0992C311.2 54.4992 311.2 54.9992 311.2 55.3992V57.3992C311.2 57.6992 311.3 57.8992 311.3 58.1992C311.3 58.4992 311.3 58.6992 311.5 58.9992C311.7 59.4992 311.8 59.8992 312 60.1992C312.5 60.4992 313 60.7992 313.6 60.9992C314 60.9992 314.2 61.0992 314.5 61.1992C314.8 61.1992 315.1 61.1992 315.4 61.1992H317.4C317.7 61.1992 318.1 61.0992 318.4 61.0992H320.4C320.8 61.0992 321.1 61.0992 321.4 61.1992C321.9 61.1992 322.3 61.1992 322.8 61.1992C323.2 61.1992 323.7 61.1992 324.2 61.1992H326.6C327 61.1992 327.3 61.1992 327.7 61.1992C328.1 61.1992 328.5 61.1992 328.9 60.9992C329.7 60.7992 330.2 60.5992 330.6 60.1992C331 59.8992 331.4 59.3992 331.8 58.9992C332.2 58.5992 332.6 58.1992 333 57.6992C333.3 57.3992 333.4 57.1992 333.5 56.7992C333.7 56.4992 333.8 55.9992 333.9 55.5992C333.9 55.1992 333.9 54.7992 334.1 54.3992V50.5992C334.1 50.1992 334.2 49.7992 334.2 49.3992V48.1992C334.2 47.7992 334.2 47.2992 334.2 46.8992C334.2 46.4992 334.2 46.0992 334.2 45.6992C334.2 45.3992 334.2 44.9992 334.2 44.5992C334.2 44.1992 334.2 43.7992 334.2 43.4992C334.2 43.1992 334.2 42.5992 334 41.8992C333.8 41.5992 333.6 41.1992 333.4 40.8992C333.1 40.5992 332.9 40.2992 332.6 39.9992C332.2 39.5992 331.9 39.2992 331.7 39.0992C331.5 38.8992 331.4 38.7992 331.2 38.5992C331 38.3992 330.9 38.2992 330.7 38.0992C330.3 37.7992 329.9 37.5992 329.5 37.4992C329.1 37.3992 328.6 37.2992 328.2 37.2992H325.8C325.4 37.2992 325.1 37.1992 324.7 37.1992H323.5C323 37.1992 322.4 37.1992 322 37.1992C321.5 37.1992 321 37.1992 320.5 37.1992C320 37.1992 319.6 37.1992 319.2 37.1992C318.8 37.1992 318.4 37.1992 318 37.1992H316.5L316.3 37.2992ZM343.8 46.9992C343.8 47.2992 343.8 47.6992 343.8 48.0992C343.8 48.4992 343.8 48.8992 343.8 49.2992C343.8 49.6992 343.8 49.7992 343.8 50.0992C343.8 50.2992 343.8 50.5992 343.8 50.9992V51.5992C343.8 52.0992 343.9 52.6992 343.9 53.2992V54.9992C343.9 55.2992 343.9 55.7992 343.9 56.1992C343.9 56.5992 343.9 57.0992 343.7 57.4992C343.7 58.3992 343.3 59.2992 342.6 60.0992C342.2 60.2992 342 60.5992 341.8 60.8992C341.2 61.4992 340.8 62.3992 340.7 63.2992C340.7 63.5992 340.6 63.9992 340.5 64.1992C340.5 64.3992 340.5 64.6992 340.3 64.9992C339.9 66.2992 339 67.0992 337.7 67.3992C337.3 67.5992 337 67.5992 336.8 67.5992C336.6 67.5992 336.2 67.5992 335.9 67.7992C334.5 68.0992 333.5 68.9992 333 70.3992C333 70.9992 333 71.4992 333.2 72.0992C333.2 72.3992 333.4 72.8992 333.7 73.4992C333.9 73.7992 333.9 74.1992 333.9 74.3992C333.9 74.5992 333.9 74.9992 334 75.2992C334.2 76.1992 334.4 76.8992 334.8 77.3992C335 77.5992 335.2 77.7992 335.3 77.9992C335.5 78.1992 335.6 78.3992 335.8 78.4992C336.1 78.7992 336.2 78.9992 336.3 79.0992C336.7 79.5992 337 80.2992 337.1 81.1992L337.4 82.7992C337.6 83.3992 337.9 83.8992 338.3 84.4992C338.4 84.5992 338.6 84.7992 338.8 84.8992C339 85.0992 339.1 85.1992 339.3 85.2992C339.8 85.8992 340.2 86.7992 340.4 87.8992C340.4 88.1992 340.5 88.4992 340.6 88.6992C340.6 88.9992 340.6 89.2992 340.8 89.4992C341 89.9992 341.2 90.4992 341.6 90.9992C341.7 91.1992 341.9 91.3992 342.1 91.5992C342.3 91.7992 342.5 91.8992 342.6 92.1992C343.1 92.7992 343.5 93.6992 343.7 94.7992C343.9 95.8992 343.8 96.8992 343.6 97.6992C343.6 98.5992 343.2 99.2992 342.7 99.8992C342.2 100.199 341.8 100.499 341.3 100.799C340.8 100.999 340.2 101.099 339.6 101.099H338.2C337.8 101.099 337.5 100.999 337.1 100.899C336.7 100.899 336.3 100.699 336 100.499C335.1 99.8992 334.6 99.1992 334.4 98.1992C334.4 97.8992 334.3 97.6992 334.2 97.3992C334.2 97.1992 334.2 96.8992 334 96.5992C334 95.5992 333.5 94.7992 332.8 93.9992C332.7 93.7992 332.5 93.5992 332.3 93.3992C332.1 93.1992 331.9 92.9992 331.8 92.7992C331.4 92.3992 331.1 91.6992 331 90.7992C331 90.5992 330.9 90.3992 330.9 90.1992C330.9 89.9992 330.9 89.7992 330.8 89.5992C330.5 88.6992 330.2 87.9992 329.8 87.5992C329.3 87.0992 329 86.6992 328.8 86.3992C328.4 86.0992 328.3 85.6992 328.1 85.2992C327.9 84.8992 327.9 84.4992 327.7 84.0992L327.4 82.4992C327.4 82.1992 327.2 81.7992 327 81.5992C326.8 81.3992 326.6 81.0992 326.5 80.7992L325.6 79.8992C325.1 79.2992 324.7 78.4992 324.5 77.4992C324.5 77.1992 324.5 76.7992 324.3 76.1992C324.1 75.2992 323.8 74.6992 323.2 74.0992C323 73.7992 322.8 73.5992 322.5 73.2992C322.3 73.0992 322 72.7992 321.8 72.4992C321.7 72.2992 321.5 72.1992 321.3 72.0992C321.1 71.8992 321 71.7992 320.8 71.6992C320.4 71.3992 319.8 71.0992 319.1 70.7992C318.7 70.7992 318.5 70.6992 318.2 70.6992H317.3C316.9 70.6992 316.7 70.6992 316.4 70.6992C316.2 70.6992 315.9 70.6992 315.5 70.6992C315.1 70.6992 314.7 70.7992 314.2 70.8992C313.8 70.8992 313.3 70.9992 312.9 71.1992C312.2 71.3992 311.7 71.8992 311.4 72.6992C311.3 72.9992 311.2 73.2992 311.2 73.5992C311.2 73.8992 311.2 74.1992 311.1 74.3992V76.4992C311.1 76.8992 311.1 77.3992 311.1 77.7992C311.1 78.1992 311.1 78.6992 311.1 79.0992V79.9992C311.1 79.9992 311.1 80.2992 311.1 80.3992C311.1 80.5992 311.1 80.6992 311.1 80.7992V82.9992C311.1 83.4992 311.1 83.8992 311.1 84.3992C311.1 84.7992 311.1 85.2992 311.1 85.7992C311.1 86.4992 311.1 86.9992 311 87.3992C311 87.9992 311 88.4992 311 89.0992C311 89.6992 311 90.1992 311 90.7992C311 91.7992 311.1 92.6992 311.1 93.6992V96.4992C311.1 96.9992 311.1 97.5992 310.9 98.2992C310.5 99.7992 309.6 100.799 308.1 101.199C307.4 101.399 306.9 101.399 306.7 101.399H305.4C305 101.399 304.7 101.299 304.4 101.199C304 101.199 303.7 100.999 303.4 100.899C302.6 100.399 302 99.5992 301.7 98.4992C301.6 97.7992 301.5 97.2992 301.5 96.8992V93.0992C301.5 92.7992 301.5 92.3992 301.5 92.1992C301.5 91.8992 301.5 91.5992 301.5 91.2992V88.6992C301.5 87.5992 301.5 86.3992 301.5 85.0992V81.8992C301.4 80.6992 301.4 79.4992 301.5 78.2992V75.0992C301.4 73.8992 301.4 72.6992 301.5 71.4992V68.2992C301.5 67.1992 301.5 65.9992 301.5 64.6992V61.2992C301.5 60.0992 301.5 58.8992 301.5 57.7992V54.7992C301.5 53.6992 301.5 52.4992 301.5 51.1992V47.9992C301.4 46.7992 301.4 45.5992 301.5 44.3992V41.4992C301.5 40.9992 301.5 40.3992 301.5 39.7992C301.5 39.1992 301.5 38.5992 301.5 38.0992C301.5 37.5992 301.5 36.9992 301.5 36.4992C301.5 35.9992 301.5 35.4992 301.5 34.8992C301.5 34.2992 301.5 33.7992 301.5 33.3992C301.5 32.8992 301.5 32.3992 301.5 31.8992C301.5 30.9992 301.7 30.2992 302 29.6992C302.5 28.4992 303.4 27.7992 304.5 27.5992C304.9 27.3992 305.3 27.3992 305.7 27.3992H306.9C307.2 27.3992 307.5 27.4992 307.8 27.4992H310.8C311.1 27.4992 311.3 27.4992 311.6 27.3992H313.3C313.7 27.3992 313.9 27.3992 314.2 27.3992C314.5 27.3992 314.8 27.3992 315.1 27.3992H317.2C317.5 27.3992 317.7 27.3992 318 27.2992H319.7C320.1 27.2992 320.3 27.2992 320.6 27.2992C320.9 27.2992 321.1 27.2992 321.4 27.2992H323.5C323.8 27.2992 324.1 27.2992 324.5 27.1992H329.1C329.5 27.1992 329.8 27.1992 330 27.1992C330.3 27.1992 330.6 27.1992 330.9 27.3992C331.7 27.5992 332.3 27.9992 332.9 28.6992L333.9 29.7992C334.4 30.1992 335 30.3992 335.6 30.5992C335.9 30.5992 336.1 30.6992 336.4 30.7992C336.7 30.7992 337 30.7992 337.3 30.9992C338.2 31.1992 338.9 31.6992 339.3 32.3992C339.6 32.8992 339.8 33.4992 339.9 34.1992C339.9 34.4992 340 34.6992 340.1 35.0992C340.1 35.3992 340.2 35.5992 340.3 35.8992C340.3 36.4992 340.7 36.9992 341.1 37.5992C341.5 37.9992 341.8 38.3992 342 38.6992C342.6 39.1992 343 40.0992 343.1 41.0992C343.1 41.3992 343.2 41.9992 343.2 42.6992C343.2 42.9992 343.2 43.3992 343.2 43.6992C343.2 43.9992 343.2 44.3992 343.2 44.6992V47.2992L343.8 46.9992Z" fill="black"/>
<path d="M370.4 91.4977H371.9C372.3 91.4977 372.8 91.4977 373.2 91.3977H374C374.4 91.3977 374.8 91.3977 375.2 91.3977C375.6 91.3977 375.9 91.3977 376.3 91.3977H378.3C378.8 91.3977 379.3 91.3977 379.6 91.2977H380.3C380.7 91.2977 381 91.2977 381.3 91.2977C381.6 91.2977 381.9 91.2977 382.3 91.2977H385.3C385.6 91.2977 385.9 91.2977 386.2 91.1977H386.8C387.2 91.1977 387.5 91.1977 387.8 91.1977C388.1 91.1977 388.4 91.1977 388.8 91.1977H391.8C392.1 91.1977 392.4 91.1977 392.7 91.0977H394.3C394.7 91.0977 395 91.0977 395.4 91.2977C396.9 91.6977 397.8 92.6977 398 94.1977C398.4 95.4977 398.4 96.7977 398 98.1977C397.6 99.6977 396.6 100.598 395.1 100.998C394.6 101.198 394.2 101.198 393.7 101.198H392.3C392.1 101.198 391.9 101.198 391.8 101.198C391.6 101.198 391.4 101.198 391.3 101.198H389C388.6 101.198 388.3 101.198 387.9 101.298H387.8C387.3 101.298 386.7 101.198 386.3 101.198H384.8C384.4 101.198 384.1 101.198 383.8 101.198C383.5 101.198 383.2 101.198 382.8 101.198C382.3 101.198 381.7 101.198 381.2 101.198C380.7 101.198 380.2 101.198 379.6 101.198C379.3 101.198 379.1 101.098 378.8 101.098H375.6C375.1 101.098 374.7 101.098 374.3 101.098C373.9 101.098 373.4 101.098 373 101.098C372.6 101.098 372.5 101.098 372.2 101.098C372 101.098 371.7 101.098 371.4 101.098H369C368.6 101.098 368.2 101.098 367.7 101.098C367.3 101.098 366.8 101.098 366.3 101.098C365.8 101.098 365.8 101.098 365.6 101.098C365.4 101.098 365.2 101.098 364.9 101.098H362.5C362.1 101.098 361.8 101.098 361.4 101.098C361 101.098 360.6 101.098 360.2 101.098C359.8 101.098 359.5 100.998 359.2 100.898C358.9 100.898 358.6 100.798 358.2 100.598C357.1 100.198 356.4 99.3977 356 98.1977C355.8 97.5977 355.7 97.0977 355.7 96.4977V92.5977C355.7 92.2977 355.7 91.8977 355.7 91.6977C355.7 91.4977 355.7 91.0977 355.7 90.7977V88.1977C355.7 87.5977 355.7 87.0977 355.7 86.4977V84.6977C355.7 84.0977 355.7 83.5977 355.7 83.0977V81.4977C355.7 80.8977 355.7 80.2977 355.7 79.6977V77.8977C355.7 77.2977 355.7 76.7977 355.7 76.2977V74.6977C355.7 74.0977 355.7 73.5977 355.7 72.9977V71.1977C355.7 70.5977 355.7 70.0977 355.7 69.5977V67.9977C355.7 66.8977 355.7 65.6977 355.7 64.3977V60.9977C355.7 59.7977 355.7 58.5977 355.7 57.4977V54.4977C355.6 53.2977 355.6 52.0977 355.7 50.8977V47.4977C355.7 46.9977 355.7 46.3977 355.7 45.8977C355.7 45.3977 355.7 44.8977 355.7 44.2977C355.7 43.6977 355.7 43.2977 355.7 42.7977C355.7 42.2977 355.7 41.7977 355.7 41.1977C355.7 40.5977 355.7 40.0977 355.7 39.4977C355.7 38.8977 355.7 38.2977 355.7 37.7977C355.7 37.2977 355.7 36.6977 355.7 36.1977C355.7 35.6977 355.7 35.1977 355.7 34.5977C355.7 33.9977 355.7 33.5977 355.7 33.0977C355.7 32.5977 355.7 32.0977 355.7 31.5977C355.7 30.6977 355.8 29.9977 356.1 29.3977C356.5 28.2977 357.3 27.5977 358.5 27.2977C359 27.0977 359.6 26.9977 360.1 26.9977H360.8C361.1 26.9977 361.3 26.9977 361.6 26.9977C361.9 26.9977 362.2 26.9977 362.5 26.9977H365.4C365.7 26.9977 366 26.9977 366.3 26.8977H366.8C367.2 26.8977 367.5 26.8977 367.9 26.8977C368.3 26.8977 368.6 26.8977 369 26.8977H372C372.3 26.8977 372.6 26.8977 372.9 26.7977H373.4C373.8 26.7977 374.1 26.7977 374.5 26.7977C374.9 26.7977 375.2 26.7977 375.6 26.7977H378.6C378.9 26.7977 379.2 26.7977 379.5 26.6977H380C380.4 26.6977 380.7 26.6977 381.1 26.6977C381.5 26.6977 381.9 26.6977 382.2 26.6977H385.1C385.4 26.6977 385.7 26.6977 386 26.5977H387.5C387.9 26.5977 388.3 26.5977 388.6 26.7977C390.2 27.0977 391.1 27.9977 391.4 29.6977C391.7 30.9977 391.7 32.3977 391.4 33.6977C391.4 34.1977 391 34.8977 390.4 35.4977C390 35.7977 389.5 36.1977 388.8 36.3977C388.6 36.3977 388.4 36.3977 388.2 36.3977C388 36.3977 387.8 36.3977 387.6 36.3977C387.4 36.3977 387.1 36.4977 386.6 36.4977C386.2 36.4977 385.9 36.3977 385.6 36.3977H382.1C381.7 36.3977 381.3 36.3977 380.9 36.3977C380.5 36.3977 380.1 36.3977 379.7 36.3977C379.3 36.3977 379.2 36.3977 378.9 36.3977C378.7 36.3977 378.4 36.3977 378.1 36.3977H375C374.6 36.3977 374.3 36.3977 374 36.3977C373.7 36.3977 373.4 36.3977 373 36.3977C372.5 36.3977 371.9 36.2977 371.4 36.1977C370.9 36.1977 370.4 36.1977 369.8 36.1977C369.4 36.1977 369 36.1977 368.6 36.1977C368.2 36.1977 367.8 36.2977 367.4 36.4977C366.6 36.6977 366.1 37.2977 365.9 38.0977C365.7 38.3977 365.7 38.5977 365.7 38.8977C365.7 39.1977 365.7 39.3977 365.6 39.7977V43.0977C365.6 43.4977 365.6 43.8977 365.7 44.2977C365.7 44.6977 365.7 45.0977 365.6 45.1977V49.6977C365.6 50.0977 365.6 50.4977 365.8 50.8977C365.8 51.0977 365.9 51.1977 365.9 51.2977C365.9 51.3977 365.9 51.5977 366.1 51.6977C366.5 52.3977 367 52.7977 367.6 52.8977C368.1 53.0977 368.5 53.0977 368.8 53.0977C369.2 53.0977 369.5 53.1977 369.8 53.1977H370.8C371.2 53.1977 371.4 53.1977 371.7 53.1977C372 53.1977 372.2 53.1977 372.5 53.1977H375.4C375.7 53.1977 376 53.1977 376.3 53.2977H377.2C377.6 53.2977 377.9 53.2977 378.1 53.2977C378.4 53.2977 378.7 53.2977 379 53.2977H381.2C381.9 53.4977 382.4 53.5977 382.7 53.6977C383.6 53.9977 384.3 54.7977 384.6 55.7977C384.8 56.2977 384.9 56.8977 384.9 57.4977C384.9 58.0977 384.9 57.7977 384.9 57.9977C384.9 58.1977 384.9 58.2977 384.9 58.4977C384.9 59.0977 384.8 59.7977 384.6 60.5977C384.2 61.7977 383.4 62.5977 382.2 62.9977C381.8 63.0977 381.5 63.1977 381.2 63.1977H380.2C379.9 63.1977 379.6 63.1977 379.3 63.1977C379.1 63.1977 378.8 63.1977 378.4 63.1977C377.9 63.1977 377.5 63.1977 377 63.1977C376.5 63.1977 376.1 63.1977 375.6 63.1977H368.4C368 63.1977 367.7 63.1977 367.4 63.3977C367 63.5977 366.7 63.5977 366.6 63.6977C366.1 63.9977 365.7 64.4977 365.5 65.1977C365.4 65.8977 365.3 66.3977 365.3 66.6977V70.1977C365.3 70.5977 365.3 70.9977 365.4 71.3977V72.1977C365.4 72.3977 365.3 72.6977 365.3 73.0977V75.2977C365.3 75.7977 365.3 76.1977 365.3 76.6977C365.3 77.0977 365.3 77.5977 365.3 78.0977C365.3 78.5977 365.3 79.3977 365.2 79.6977C365.2 80.2977 365.2 80.7977 365.2 81.1977C365.2 81.6977 365.2 82.1977 365.2 82.6977V84.4977C365.2 84.6977 365.3 85.0977 365.3 85.3977C365.3 85.6977 365.3 86.0977 365.3 86.2977C365.3 86.4977 365.3 86.8977 365.3 87.1977C365.3 87.4977 365.3 87.7977 365.5 88.3977C365.7 89.2977 366.3 89.7977 367.1 89.9977C367.4 90.1977 367.9 90.1977 368.5 90.1977C368.9 90.1977 369.1 90.2977 369.4 90.2977H370.1L370.4 90.5977V91.4977Z" fill="black"/>
<path d="M59.6994 373.298V371.698C59.6994 371.198 59.6994 370.698 59.4994 370.098C59.2994 369.198 59.0994 368.498 58.6994 367.998L57.7994 367.098C57.1994 366.498 56.7994 365.698 56.5994 364.898C56.5994 364.598 56.4994 364.398 56.3994 364.098C56.3994 363.898 56.3994 363.598 56.1994 363.298C56.0994 362.498 55.7994 361.798 55.2994 361.198C55.0994 360.798 54.7994 360.598 54.4994 360.298C54.1994 359.898 53.8994 359.498 53.6994 359.098C53.4994 358.698 53.3994 358.198 53.2994 357.698C53.2994 357.498 53.1994 357.298 53.0994 357.098C53.0994 356.898 53.0994 356.698 53.0994 356.498C52.8994 355.398 52.3994 354.498 51.5994 353.698L50.3994 352.398C50.0994 351.998 49.7994 351.798 49.5994 351.598C48.9994 351.098 48.2994 350.998 47.6994 351.198C47.0994 351.398 46.6994 351.698 46.4994 352.098L44.5994 354.098C44.0994 354.598 43.6994 355.198 43.6994 355.798C43.5994 356.298 43.3994 356.898 43.2994 357.598C43.1994 358.498 42.7994 359.198 42.2994 359.798L41.3994 360.698C41.1994 360.998 40.9994 361.198 40.8994 361.598C40.6994 361.898 40.5994 362.198 40.5994 362.498C40.5994 362.898 40.4994 363.198 40.3994 363.398C40.3994 363.598 40.3994 363.898 40.1994 364.198C39.9994 365.098 39.6994 365.798 39.1994 366.398C38.7994 366.798 38.4994 367.198 38.2994 367.498C37.7994 367.998 37.3994 368.698 37.1994 369.498C37.1994 369.898 37.0994 370.398 36.9994 370.798C36.9994 371.298 36.9994 371.698 36.9994 372.098V373.998C36.9994 373.998 36.9994 374.198 36.9994 374.298C36.9994 374.298 36.9994 374.498 36.9994 374.598V376.398C36.9994 376.798 36.9994 377.198 36.9994 377.598C36.9994 377.998 36.9994 378.398 36.9994 378.798C36.9994 379.198 37.0994 379.898 37.2994 380.298C37.5994 380.898 37.8994 381.298 38.3994 381.398H39.0994C39.3994 381.398 39.7994 381.298 40.1994 381.198C40.5994 381.198 40.9994 381.198 41.2994 381.198C41.5994 381.198 41.8994 381.098 42.1994 381.098H42.9994C43.2994 381.098 43.6994 381.198 43.8994 381.198H44.7994C45.2994 381.198 45.6994 381.198 46.0994 381.198C46.4994 381.198 46.9994 381.198 47.3994 380.998C47.8994 380.998 48.2994 380.998 48.7994 380.998C49.1994 380.998 49.6994 380.998 50.1994 380.998H53.3994C53.5994 380.998 53.8994 380.998 54.2994 380.898C54.5994 380.898 54.7994 380.898 55.0994 380.898C55.2994 380.898 55.5994 380.898 55.8994 380.898C56.1994 380.898 56.5994 380.898 56.7994 380.998C57.0994 380.998 57.2994 380.998 57.4994 380.998C57.6994 380.998 57.8994 380.998 58.1994 380.998C58.9994 380.998 59.4994 380.598 59.8994 379.798C59.9994 379.298 60.0994 378.798 60.0994 378.498C60.0994 378.098 59.9994 377.698 59.9994 377.298V376.198C59.9994 375.598 59.9994 374.898 59.9994 374.298C59.9994 373.698 59.9994 373.098 59.9994 372.398M48.1994 340.998H51.4994C51.7994 340.998 52.0994 340.998 52.3994 340.998C52.6994 340.998 52.9994 340.998 53.2994 341.198C54.0994 341.398 54.8994 341.898 55.6994 342.698C55.7994 342.898 55.9994 342.998 56.1994 343.198C56.3994 343.398 56.4994 343.598 56.6994 343.698C56.8994 343.898 57.0994 344.098 57.3994 344.298C57.5994 344.498 57.8994 344.698 58.0994 344.898C58.8994 345.598 59.3994 346.498 59.5994 347.798C59.5994 347.998 59.6994 348.198 59.6994 348.498C59.6994 348.798 59.6994 348.998 59.7994 349.198C59.9994 349.998 60.3994 350.698 60.9994 351.298C61.0994 351.498 61.2994 351.598 61.4994 351.798C61.6994 351.998 61.7994 352.198 61.9994 352.298C62.2994 352.698 62.4994 352.998 62.4994 353.398C62.5994 353.798 62.6994 354.198 62.7994 354.598C62.7994 354.798 62.8994 354.998 62.8994 355.198C62.8994 355.398 62.8994 355.598 62.9994 355.798C62.9994 356.498 63.3994 357.198 64.0994 357.898C64.1994 358.098 64.3994 358.198 64.4994 358.398C64.5994 358.598 64.7994 358.798 64.8994 358.898C65.1994 359.298 65.4994 359.598 65.5994 359.998C65.6994 360.398 65.8994 360.798 65.9994 361.198C65.9994 361.598 65.9994 362.098 66.1994 362.698C66.3994 363.498 66.7994 364.198 67.2994 364.698C67.3994 364.798 67.5994 364.998 67.7994 365.198C67.9994 365.398 68.0994 365.598 68.2994 365.698C68.5994 366.098 68.8994 366.398 68.9994 366.798C69.0994 367.198 69.1994 367.598 69.2994 367.998C69.2994 368.198 69.3994 368.498 69.3994 368.898V371.098C69.3994 371.398 69.3994 371.598 69.3994 371.898C69.3994 372.098 69.3994 372.398 69.3994 372.698C69.3994 373.198 69.4994 373.798 69.4994 374.198V375.598C69.4994 375.998 69.4994 376.298 69.4994 376.498C69.4994 376.698 69.4994 376.998 69.4994 377.298C69.4994 377.798 69.4994 378.298 69.4994 378.798C69.4994 379.298 69.4994 379.798 69.4994 380.298V382.098C69.4994 382.098 69.4994 382.398 69.4994 382.498C69.4994 382.698 69.4994 382.798 69.4994 382.898V388.398C69.4994 388.398 69.4994 388.698 69.4994 388.898C69.4994 389.098 69.4994 389.298 69.4994 389.398V402.198C69.4994 402.198 69.4994 402.498 69.4994 402.698C69.4994 402.898 69.4994 403.098 69.4994 403.198V408.698C69.4994 408.698 69.4994 408.898 69.4994 408.998C69.4994 408.998 69.4994 409.198 69.4994 409.298C69.4994 409.798 69.4994 410.298 69.4994 410.698C69.4994 411.198 69.3994 411.598 69.1994 411.998C68.7994 413.198 67.9994 413.998 66.7994 414.298C66.1994 414.498 65.8994 414.498 65.5994 414.498C65.2994 414.498 64.8994 414.598 64.3994 414.598C64.0994 414.598 63.6994 414.498 63.4994 414.498C63.2994 414.498 62.8994 414.498 62.5994 414.298C61.3994 413.898 60.6994 412.998 60.1994 411.698C60.0994 410.998 59.9994 410.398 59.9994 409.898C59.9994 409.398 59.9994 408.998 59.9994 408.598C59.9994 408.098 59.9994 407.698 59.9994 407.198V405.098C59.9994 404.598 59.8994 403.998 59.8994 403.398V401.698C59.8994 401.198 59.9994 400.598 59.9994 400.098V398.498C59.9994 397.998 59.9994 397.398 59.9994 396.898C59.9994 396.398 59.9994 395.898 59.9994 395.298C59.9994 394.698 59.9994 394.598 59.9994 394.198C59.9994 393.798 59.9994 393.398 59.9994 393.098C59.9994 392.598 59.8994 392.198 59.6994 391.698C59.3994 391.098 58.9994 390.698 58.3994 390.598C57.9994 390.598 57.6994 390.598 57.4994 390.698C57.1994 390.698 56.7994 390.698 56.3994 390.698C55.9994 390.698 55.5994 390.698 55.2994 390.898C54.9994 390.898 54.5994 390.898 54.2994 390.898C53.9994 390.898 53.5994 390.898 53.2994 390.898H50.1994C49.7994 390.898 49.3994 390.898 49.0994 390.998H47.8994C47.4994 390.998 47.0994 390.998 46.6994 390.898H43.8994C43.1994 390.898 42.7994 390.898 42.4994 390.998C41.8994 390.998 41.3994 390.998 41.1994 390.898C40.8994 390.898 40.5994 390.898 40.2994 390.898C40.0994 390.898 39.7994 390.898 39.4994 390.898C39.1994 390.898 38.7994 390.798 38.2994 390.798C37.7994 390.998 37.3994 391.298 37.1994 391.898C36.9994 392.298 36.8994 392.798 36.8994 393.398C36.8994 393.998 36.8994 394.298 36.8994 394.698C36.8994 395.098 36.8994 395.498 36.8994 395.898V397.698C36.8994 397.698 36.8994 397.898 36.8994 397.998V398.198V400.298C36.8994 400.798 36.8994 401.398 36.8994 401.798C36.8994 402.298 36.8994 402.698 36.8994 403.198C36.8994 403.698 36.8994 403.998 36.8994 404.398C36.8994 404.798 36.8994 405.298 36.8994 405.698V407.798C36.8994 408.198 36.9994 408.698 36.9994 409.098V410.398C36.9994 410.998 36.7994 411.798 36.4994 412.598C36.0994 413.698 35.2994 414.298 34.0994 414.498C33.6994 414.698 33.2994 414.698 32.8994 414.798C32.4994 414.898 31.9994 414.798 31.5994 414.798C31.2994 414.798 31.0994 414.698 30.7994 414.698C30.4994 414.698 30.2994 414.698 29.9994 414.498C28.7994 414.098 27.9994 413.198 27.5994 411.898C27.4994 411.598 27.3994 411.398 27.3994 410.998V410.098C27.3994 410.098 27.3994 409.798 27.3994 409.598C27.3994 409.398 27.3994 409.198 27.3994 408.998V404.898C27.3994 404.398 27.3994 403.898 27.3994 403.498C27.3994 402.998 27.3994 402.598 27.3994 402.098C27.3994 401.598 27.3994 401.098 27.3994 400.698C27.3994 400.198 27.3994 399.798 27.3994 399.298V397.598C27.3994 397.198 27.3994 396.898 27.3994 396.598C27.3994 396.298 27.3994 395.998 27.3994 395.598V381.098C27.3994 380.698 27.3994 380.398 27.3994 379.998C27.3994 379.598 27.3994 379.198 27.3994 378.798C27.3994 378.298 27.3994 377.698 27.3994 377.098C27.3994 376.598 27.3994 375.998 27.3994 375.398V371.298C27.3994 370.898 27.3994 370.498 27.3994 370.098C27.3994 369.698 27.3994 369.298 27.3994 368.898C27.3994 368.498 27.3994 367.898 27.5994 367.198C27.7994 366.498 28.1994 365.898 28.6994 365.298C28.8994 365.098 28.9994 364.998 29.0994 364.898C29.1994 364.698 29.3994 364.598 29.4994 364.498C29.9994 363.998 30.3994 363.198 30.4994 362.198C30.4994 361.998 30.5994 361.798 30.5994 361.498C30.5994 361.198 30.5994 360.998 30.5994 360.798C30.7994 359.898 31.1994 359.198 31.7994 358.698C31.8994 358.498 32.1994 358.198 32.5994 357.798C33.0994 357.298 33.3994 356.498 33.5994 355.598C33.5994 355.298 33.5994 355.098 33.5994 354.798C33.5994 354.598 33.5994 354.298 33.7994 353.998C33.9994 353.298 34.2994 352.598 34.8994 351.898L35.7994 350.998C36.0994 350.598 36.2994 350.298 36.4994 349.898C36.6994 349.498 36.6994 349.098 36.6994 348.698C36.6994 348.398 36.7994 348.198 36.8994 347.898C36.8994 347.698 36.8994 347.398 37.0994 347.098C37.2994 346.298 37.6994 345.598 38.1994 345.098C38.4994 344.898 38.6994 344.698 38.8994 344.498C39.0994 344.298 39.2994 343.998 39.5994 343.698L40.2994 342.898C40.4994 342.598 40.6994 342.398 40.8994 342.098C41.0994 341.898 41.3994 341.698 41.6994 341.498C41.9994 341.298 42.1994 341.098 42.5994 340.998C42.9994 340.898 43.1994 340.798 43.5994 340.698C43.9994 340.698 44.3994 340.598 44.7994 340.598H48.1994V340.398V340.998Z" fill="black"/>
<path d="M450 405.1H450.8C451.7 405.1 452.5 404.7 453.2 404C453.4 403.8 453.5 403.7 453.6 403.6C453.7 403.5 453.9 403.3 454 403.2C454.2 403 454.4 402.8 454.7 402.6C454.9 402.4 455.2 402.1 455.4 401.8C456.1 401.3 456.5 400.5 456.5 399.6C456.6 398.9 456.7 398.4 456.7 398V394.5C456.7 393.3 456.7 392.1 456.7 391V388.7C456.7 388.5 456.7 388.2 456.6 387.8V387.1C456.6 386.9 456.6 386.6 456.5 386.4C456.3 385.6 456 385 455.5 384.5C455.1 384.1 454.8 383.8 454.5 383.4C454.2 383 453.9 382.7 453.5 382.3L452.4 381.1C451.5 380.5 450.8 379.7 450.2 378.8C449.7 378.2 449.1 377.6 448.3 377.2C447.4 376.7 446.5 376.6 445.6 377C445.4 377 445.3 377.1 445.1 377.2C444.9 377.3 444.7 377.2 444.6 377.4C444 377.7 443.3 377.8 442.5 377.8C442 377.8 441.5 377.8 441 377.8C440.6 377.8 440.1 377.8 439.5 377.8H437.6C437.2 377.8 437 377.7 436.7 377.7C436.4 377.7 436.2 377.7 435.9 377.6C435.7 377.6 435.6 377.6 435.4 377.6C435.2 377.6 435 377.6 434.9 377.6C434.4 377.6 434.1 378 433.9 378.7C433.7 379 433.7 379.2 433.7 379.5C433.7 379.8 433.7 380 433.6 380.4V382.2C433.6 382.5 433.5 382.7 433.5 383V383.7C433.5 384.2 433.6 384.7 433.6 385.1V386.4C433.6 386.9 433.6 387.3 433.6 387.8C433.6 388.2 433.6 388.7 433.6 389.1C433.6 389.5 433.6 389.8 433.6 390.2C433.6 390.6 433.6 390.9 433.6 391.3V394.5C433.6 394.9 433.6 395.2 433.6 395.6C433.6 396 433.6 396.3 433.6 396.7C433.6 397.1 433.6 397.6 433.7 397.9V401.5C433.7 402.2 433.7 402.8 433.8 403.1C433.8 403.9 434.3 404.6 435.1 404.9C435.5 405.1 435.9 405.2 436.3 405.2C436.7 405.2 436.8 405.2 437.1 405.2C437.3 405.2 437.6 405.2 437.9 405.2H439.9C440.3 405.2 440.6 405.2 441 405.2C441.4 405.2 441.7 405.2 442.1 405.2C442.5 405.2 442.5 405.2 442.6 405.3H446.5C446.9 405.3 447.2 405.3 447.6 405.3C448 405.3 448.4 405.3 448.7 405.3C449 405.3 449.1 405.3 449.4 405.3C449.6 405.3 449.9 405.3 450.2 405.3M438 351H437C436.6 351 436.3 351 436 351.1C434.9 351.3 434.1 352 434 353.1C433.8 353.5 433.8 354 433.8 354.4C433.8 354.8 433.8 355.2 433.7 355.6V356.5C433.7 356.8 433.7 357.1 433.8 357.4V359.8C433.8 360.2 433.8 360.6 433.8 361C433.8 361.4 433.8 361.8 433.8 362.2C433.8 362.9 433.8 363.4 433.9 363.8V364.8C433.9 365.1 433.9 365.5 434 365.8C434 366.2 434 366.7 434.2 367.3C434.4 367.8 434.8 368.2 435.3 368.2C435.7 368.2 436.1 368.2 436.3 368.1C436.7 368.1 437 368.1 437.2 368.1C437.5 368.1 437.8 368.1 438.1 367.9H440.5C440.7 367.9 440.9 367.9 441 367.9C441.2 367.9 441.3 367.9 441.5 367.9C442.4 367.7 443.2 367.4 443.9 366.7C444.3 366.3 444.6 366 444.9 365.8C445.2 365.5 445.5 365.2 445.9 364.9C446.3 364.5 446.7 363.8 446.9 362.9C447.1 362.5 447.1 362.1 447.1 361.7V360.5C447.1 359.9 447.1 359.2 447.1 358.6C447.1 358 447.1 357.4 446.9 356.8C446.9 356.3 446.7 355.7 446.4 355.2C446.1 354.7 445.8 354.3 445.5 353.9C445.1 353.7 444.9 353.4 444.7 353L443.5 351.7C443.2 351.3 442.8 351.2 442.3 351.1C441.8 351 441.4 350.9 441.1 350.9C440.8 350.9 440.3 350.9 439.9 350.9C439.5 350.9 439.2 350.9 438.8 350.9H438.1L438 351ZM456.4 358.2C456.4 358.8 456.4 359.4 456.4 359.9C456.4 360.4 456.4 360.9 456.4 361.4C456.4 361.9 456.4 362.4 456.4 363C456.4 364.1 456.2 365.1 455.8 366.2C455.8 366.3 455.7 366.5 455.6 366.7C455.6 366.9 455.6 367.1 455.4 367.2C455.2 368 455.4 368.7 455.8 369.4C456.1 370.1 456.7 370.8 457.4 371.4C457.8 371.8 458.2 372.2 458.6 372.6C459 373 459.3 373.5 459.7 373.9C459.9 374.1 460.1 374.3 460.3 374.5C460.5 374.7 460.7 374.9 460.9 375.1C461.2 375.3 461.5 375.7 461.9 376.3C462.3 376.8 462.6 377.6 462.7 378.3C462.7 378.7 462.8 379 462.9 379.2C462.9 379.5 463 379.7 463.2 380.1C463.2 380.5 463.5 380.9 463.9 381.5L465.1 382.8C465.6 383.6 466 384.4 466 385.1C466 385.4 466 385.6 466 385.9C466 386.1 466 386.4 466 386.6C466 387 466 387.3 466 387.6C466 387.9 466 388.3 466 388.6V392.2C466 392.4 466.1 392.7 466.1 393.1C466.1 393.5 466.1 393.8 466.1 394.2C466.1 394.6 466.1 395 466.1 395.3C466.1 395.8 466.1 396.3 466.1 396.7C466.1 397.2 466.1 397.6 466.1 398V398.8C466.1 399 466.2 399.3 466.2 399.7C466.2 400.1 466.2 400.6 466.2 401C466.2 401.5 466.1 401.9 466 402.3C465.8 402.8 465.5 403.4 465 404C464.5 404.6 464.7 404.3 464.5 404.5C464.3 404.7 464.2 404.9 464 405C463.5 405.6 463.2 406.4 463.1 407.2C463.1 407.6 463 407.9 462.9 408.1C462.8 408.3 462.8 408.6 462.6 409C462.3 409.7 461.9 410.3 461.4 410.9C461 411.3 460.6 411.6 460.3 412C460 412.4 459.6 412.8 459.3 413.2C459 413.5 458.8 413.7 458.5 414C458.3 414.2 458 414.4 457.6 414.6C457.1 414.9 456.5 415 455.9 415C455.5 415 455.3 415.1 455 415.1H454.1C453.7 415.1 453.5 415.1 453.2 415.1C453 415.1 452.7 415.1 452.3 415.1H450.1C449.6 415.1 449.2 415.1 448.7 415.1C448.3 415.1 447.8 415.1 447.3 415.1C446.8 415.1 446.8 415.1 446.5 415.1C446.3 415.1 446 415.1 445.7 415.1H443.5C443 415.1 442.6 415.1 442.1 415.1C441.7 415.1 441.2 415.1 440.7 415.1C440.2 415.1 440.2 415.1 439.9 415.1C439.7 415.1 439.4 415.1 439.2 415.1H436.8C436.3 415.1 435.9 415.1 435.4 415.1C435 415.1 434.5 415.1 433.9 415.1C433.4 415.1 433 415 432.5 415H431.1C430.8 415 430.6 415 430.3 415C430.1 415 429.8 415 429.5 415H428.5C428.2 415 427.9 415 427.5 414.9C427.1 414.9 426.6 414.9 426 414.7C424.9 414.3 424.2 413.5 423.9 412.3C423.7 411.9 423.7 411.5 423.6 411.2C423.6 410.8 423.6 410.4 423.6 410.1C423.6 409.5 423.6 408.8 423.6 408.2C423.6 407.6 423.6 407 423.6 406.3V405.2C423.6 404.8 423.6 404.4 423.7 404.1V403.2C423.7 402.9 423.7 402.7 423.6 402.3V398.7C423.6 398.3 423.6 397.8 423.6 397.4C423.6 397 423.6 396.5 423.6 396C423.6 395.5 423.6 395.5 423.6 395.1C423.6 394.8 423.6 394.6 423.6 394.2V391C423.6 390.6 423.7 390.3 423.7 390V389C423.7 388.7 423.7 388.5 423.7 388.2C423.7 388 423.7 387.7 423.7 387.4V384.2C423.7 383.8 423.8 383.5 423.8 383.3V382.4C423.8 382 423.8 381.7 423.8 381.5C423.8 381.3 423.8 381 423.8 380.6V377.5C423.8 377.1 423.9 376.8 423.9 376.6V375.7C423.9 375.3 423.9 375 423.9 374.8C423.9 374.5 423.9 374.2 423.9 373.9V370.6C423.9 370.2 424 369.9 424 369.7V368.9C424 368.6 424 368.4 424 368.1C424 367.9 424 367.6 424 367.3V364.1C424 363.7 424.1 363.4 424.1 363.2V362.3C424.1 362 424.1 361.8 424.1 361.5C424.1 361.3 424.1 361 424.1 360.6V357.4C424.1 357 424.2 356.7 424.2 356.5V355.6C424.2 355.3 424.2 355.1 424.2 354.8C424.2 354.6 424.2 354.3 424.2 353.9V350.8C424.2 350.4 424.3 350.1 424.3 349.8V348.8C424.3 348.5 424.3 348.3 424.3 348C424.3 347.8 424.3 347.5 424.3 347.2V345.6C424.3 345.1 424.3 344.5 424.5 344C424.9 342.6 425.8 341.7 427.3 341.2C427.7 341.2 428.1 341.1 428.7 341.1C429.3 341.1 428.9 341.1 429 341.1C429 341.1 429.2 341.1 429.3 341.1C429.7 341.1 429.9 341.1 430.2 341.1C430.5 341.1 430.7 341.1 431 341.1H434.8C435.4 341.1 436.1 341 436.7 341H438.7C439.1 341 439.4 341 439.8 341C440.2 341 440.6 341 440.9 341H444.8C445.1 341 445.3 341 445.6 341C445.8 341 446.1 341 446.4 341C447.5 341 448.4 341.3 449.1 341.9C449.6 342.4 449.9 342.8 450.1 343.1C450.4 343.4 450.6 343.6 450.9 344C451.2 344.3 451.5 344.5 451.8 344.8C452.1 345.2 452.3 345.5 452.6 345.7C452.8 346 453 346.3 453.1 346.8C453.2 347.2 453.4 347.7 453.5 348.4L453.8 349.7C453.8 350.2 454.2 350.7 454.7 351.3C454.8 351.5 455 351.7 455.2 351.9C455.4 352.1 455.6 352.3 455.7 352.5C456.2 353.1 456.5 353.9 456.6 354.8C456.6 355.2 456.7 355.7 456.7 356.4C456.7 357.1 456.7 357.7 456.7 358.3" fill="black"/>
<path d="M118.8 359.9C118.5 358.1 119 357.4 121.1 356.4C129.4 352.6 138.3 349.3 147.7 346.7C162.1 342.7 177.9 339.7 196.1 337.4C198 337.2 199.1 337.3 200.5 338.7C203.2 341.5 206.9 342.8 210.7 342.4C214.4 342 217.7 340 219.7 336.9C220.6 335.5 221.6 335 223.6 334.9C270.1 332.7 308.3 335.6 343.8 343.9C357.7 347.2 369.2 351.2 378.9 356.1C382.9 358.1 386.5 360.4 389.7 362.8C395.8 367.4 399.1 372.6 399.2 377.7C399.3 382.9 396.2 388.2 390.3 393C386 396.5 380.7 399.7 374.1 402.8C365.8 406.6 356.5 409.8 345.4 412.8C343.2 413.4 342.1 413.3 340.4 412C336.7 409.1 332 408.1 327.7 409.4C324 410.5 321.2 413.1 320 416.6C319.5 418.2 318.5 418.6 316.2 419C286.4 423.7 255.9 425.3 222.9 423.9C197 422.8 174.1 419.8 153 414.7C144.6 412.7 133.5 409.7 122.7 404.7C117.3 402.4 110.4 399.2 105.2 394.1C103.4 392.3 100.8 389.7 99.2 386.8C96.2 381.3 97 375.9 101.6 370.3C102 369.8 102.4 369.5 103 369.5C103.6 369.5 103.4 369.5 103.7 369.5C104.7 369.7 105.5 369.9 106.4 369.9C110.6 370.2 114.6 368.8 116.9 366.2C118.6 364.3 119.2 362 118.7 359.7M399.5 364.2C397.9 362.4 396 360.6 393.7 358.8C384.4 351.5 372.8 347 363.7 344C346.8 338.3 328.1 334.4 304.8 331.8C279 328.9 252 328.2 224.4 329.7C221.5 329.9 219.7 329.6 217.8 327.7C215.1 325.1 211.2 323.8 207.2 324.5C203.5 325.1 200.6 327.2 199.1 330.2C198.4 331.5 197.8 331.9 195.9 332.2L193.2 332.6C186.4 333.5 179.4 334.5 172.5 335.7C149.6 339.7 131.8 345.1 116.6 352.7C115 353.5 113.8 353.5 112.2 352.8C108 351 103.8 351.5 99.9 354.4C96.3 357 95.3 360.6 97.1 364.3C97.8 365.6 97.6 366.4 96.5 367.8C91.5 373.9 90.2 380.4 92.7 387.2C94 390.8 96.4 394.2 100.1 397.5C105.4 402.3 112.1 406.5 120.2 409.8C134 416 149.1 420.3 167.9 423.6C193.1 428 218.8 430.1 244.8 430.1C270.8 430.1 293 428.2 317.3 424.6C319.9 424.2 321.3 424.2 323.2 425.8C326.7 428.8 331.7 429.9 336.2 428.6C340 427.5 342.7 424.9 343.7 421.6C344.3 419.6 345.5 419 347.9 418.2C349.9 417.6 351.9 416.9 353.9 416.3C359.2 414.7 364.7 413 369.9 411C382 406.4 391.3 400.9 398.2 394.2C407.5 385 408 373.9 399.6 364.4" fill="black"/>
<path d="M145.4 374.098C148.5 369.698 153.5 366.798 158.4 364.298C165.1 360.898 172.8 358.198 182.7 355.798C208.7 349.498 236.8 347.198 268.6 348.798C289 349.798 306.5 352.498 322.4 357.098C330.9 359.598 340.7 362.898 348.1 369.098C353.6 373.698 355 378.398 352.3 383.298C351.1 385.398 348.9 387.398 346.8 389.198C341.5 393.598 334.7 396.398 328.1 398.698C315 403.298 300.1 406.398 282.6 408.298C247.7 411.998 216 410.698 185.7 404.398C177.3 402.598 168.8 399.998 160.4 396.698C154.5 393.698 149.3 390.898 145.8 386.498C142.5 382.398 142.4 378.298 145.4 373.998M144 393.198C147.9 396.598 152.6 399.398 158.2 401.698C170.5 406.898 184.3 410.398 202.9 412.898C216.8 414.798 231 415.698 245.6 415.698C260.2 415.698 270.3 414.998 282.8 413.698C299.8 411.898 314.2 408.998 326.9 404.798C336.9 401.598 344.4 397.998 350.5 393.498C356.6 388.998 359.9 383.998 359.9 378.798C359.9 373.798 357.1 368.798 351.4 364.298C348.7 362.198 345.5 360.198 341.4 358.198C332.8 353.998 322.9 350.798 309.1 348.098C285.5 343.498 260.6 341.898 233.1 343.198C207.5 344.498 186.8 347.998 168 354.098C157.5 357.498 149.9 361.498 144 366.398C139.2 370.398 136.6 374.998 136.6 379.598C136.6 384.198 139 388.798 143.8 392.798" fill="black"/>
<path d="M212.3 393.6C208.4 392.8 204.6 391.7 201 390.7C199.4 390.2 197.8 389.8 196.2 389.4C195.3 388.8 194.5 388.3 193.7 387.8C191.9 386.7 190.2 385.6 188.8 384.3C187.2 382.8 186.3 381.3 186.4 379.9C186.4 378.3 187.3 376.7 189.2 375.1C193.5 371.4 199.1 369.3 204.1 367.8C216.2 364.1 230 362.3 247.3 361.9C248.9 361.9 249.5 362.3 249.9 363.2C251.4 366.2 255.2 368.3 259.5 368.6C263.9 368.8 267.9 367.1 269.8 364.1C270.3 363.2 271.1 363 272.7 363.2C280.4 364.2 290.4 365.8 299.5 369.5C302.2 370.6 305 372.2 307.6 374.2C309.3 375.5 310.3 376.8 310.4 378.2C310.6 379.6 310 381.1 308.6 382.8C306.7 385.2 303.8 386.7 301.2 387.9C294.4 391 286.6 393.2 277.3 394.7C254.6 398.2 232.7 397.9 212.2 393.8M185.3 389C187 390.3 188.9 391.4 190.9 392.6C191.9 393.1 192.9 393.7 193.9 394.4H194.2C195.8 394.9 197.4 395.4 199 395.9C202.7 397 206.4 398 210.4 398.9C221.9 401.3 233.7 402.5 246.1 402.5C258.5 402.5 264.5 401.9 274.1 400.6C285.5 399.1 294.4 396.9 302.3 393.5C306.5 391.7 310 389.5 313.1 386.8C315.4 384.8 316.8 381.9 316.8 378.9C316.8 375.9 316.1 373.8 312.9 371C310.5 369 307.8 367.1 304.8 365.7C297 362 288.1 359.6 275.8 358.2C273 357.9 271.3 357.3 269.9 355.1C268 352.2 264.8 350.4 261 350.2C257.1 349.9 253.3 351.5 250.9 354.2C249.4 356 247.9 356.6 245 356.6C229.6 356.9 216.2 358.7 204.2 362.1C197.4 364 190.4 366.4 184.9 371.2C181.7 374 180 377.1 180.1 380.3C180.1 383.4 182 386.5 185.4 389.1" fill="black"/>
</g>
<defs>
<clipPath id="clip0_175_11">
<rect width="493.4" height="456.7" fill="white"/>
</clipPath>
</defs>
</svg>
