<svg width="470" height="487" viewBox="0 0 470 487" fill="none" xmlns="http://www.w3.org/2000/svg">
<g>
<path d="M465.82 174.59L458.54 164.91C456.33 161.97 453.37 159.7 450.04 158.29C450.01 158.25 443.66 149.81 443.66 149.81C443.06 146.82 441.78 143.98 439.9 141.47L433.04 132.36C429.14 127.18 422.95 124.09 416.47 124.09C412.01 124.09 407.58 125.57 404 128.26L368.65 154.86C365.62 157.14 363.34 160.14 361.94 163.56C361.39 163.72 360.83 163.89 360.28 164.08C355.41 165.75 350.37 168.62 344.41 173.11L337.56 178.27C337.65 177.63 337.73 176.98 337.82 176.34C340.92 154.18 343.34 137.15 345.68 121.13C347.22 110.59 341.48 101.09 331.41 97.48C328 96.26 324.43 94.18 319.84 90.72C315.54 87.49 311.36 83.18 306.28 76.73C302.59 72.04 299.3 66.72 296.23 60.46C293.78 55.47 292.07 50.79 290.99 46.17C290.61 44.52 290.21 42.88 289.8 41.24C288.16 34.58 286.75 28.83 287.05 23.74C287.39 17.95 285.52 12.47 281.8 8.33C279.15 5.38 274.36 1.78 266.65 1.41C261.69 1.17 256.73 0.89 251.77 0.61L249.54 0.49C248.18 0.18 246.76 0.02 245.3 0.02C244.52 0.02 243.75 0.02 242.97 0.01C242.1 0.01 241.22 0 240.35 0C239.1 0 237.85 0.01 236.6 0.05C223.82 0.45 215.9 8.02 214.88 20.81C214.64 23.78 214.42 26.76 214.19 29.73C213.79 35.05 213.37 40.56 212.89 45.89C212.7 47.92 212.4 50.11 212.08 52.42C211.75 54.8 211.41 57.27 211.15 59.89C210.52 66.2 209.93 72.59 209.36 78.76C209.02 82.4 208.68 86.03 208.33 89.67C207.48 89.59 206.63 89.5 205.79 89.42C195.77 88.42 185.41 87.38 175.17 86.44C168.85 85.86 162.49 85.39 156.34 84.93C152.23 84.62 148.12 84.32 144.01 83.98C138.41 83.52 112.74 81.93 85.5601 80.25C58.5301 78.58 30.59 76.85 25.2101 76.4H25.0601C24.4101 76.33 23.3101 76.24 22.0401 76.24C11.2601 76.24 6.08005 83.04 4.37005 85.95C1.50005 90.8 0.0700506 95.46 5.06069e-05 100.19C-0.0199494 101.65 0.0600506 105.89 0.260051 115.92C0.360051 121.11 0.500051 127.95 0.530051 130.61C-0.259949 137.96 2.73005 143.14 4.74005 145.72C7.50005 149.26 12.6701 153.52 21.6101 153.75C22.7301 153.78 24.1601 153.92 25.6701 154.07C26.7401 154.18 27.8101 154.28 28.8801 154.37C34.4201 154.81 61.4501 156.43 90.0701 158.15C101.52 158.84 113.13 159.53 122.86 160.12L92.9701 196.91C89.4901 201.2 87.8801 206.59 88.4501 212.09C89.0201 217.6 91.7001 222.56 96.0001 226.07L108.9 236.55C112.58 239.53 117.22 241.17 121.95 241.17C122.55 241.17 123.16 241.14 123.76 241.09C123.86 241.09 123.96 241.07 124.07 241.06C128.13 240.64 131.89 239.07 135.01 236.53C134.94 237.72 134.91 238.93 134.95 240.15C135.05 243.53 135.53 246.8 136.38 249.92C132.46 249.79 128.59 249.64 124.7 249.42C123.94 249.38 123.14 249.36 122.34 249.36C120.24 249.36 118.31 249.51 116.77 249.63C116.19 249.67 115.59 249.72 115.08 249.75C113.02 249.02 110.86 248.65 108.69 248.65C107.11 248.65 105.53 248.85 103.98 249.24L98.6701 250.59C92.58 252.14 87.6401 256.57 85.4401 262.46C83.2501 268.35 84.0801 274.94 87.6701 280.09L138.32 352.83C138.22 357.77 138.12 362.71 138.03 367.64C137.99 369.7 138 371.69 138.01 373.61V376.05C138.01 381.25 140.13 386.23 143.87 389.84C146.35 392.23 149.4 393.88 152.68 394.67C144.25 396.68 137.99 404.26 137.99 413.3V467.77C137.99 478.35 146.56 486.92 157.14 486.92H361.73C372.31 486.92 380.88 478.35 380.88 467.77V413.3C380.88 404.73 375.25 397.48 367.49 395.03C371.96 391.38 374.71 385.93 375.01 379.52C375.19 375.61 375.44 371.72 375.71 367.61L375.85 365.39C376.08 361.72 376.33 358.06 376.58 354.4C376.9 354.09 377.24 353.76 377.59 353.38C382.72 347.89 387.85 342.4 392.97 336.9C392.97 336.9 400.38 328.95 403.32 325.79C410.42 318.16 417.76 310.28 425 302.57C426.76 300.7 428.62 298.83 430.59 296.85C432.33 295.11 434.12 293.3 435.92 291.42C441.79 285.27 444.64 274.37 438.7 265.43C434.73 259.46 427.77 255.74 420.53 255.73H420.13C417.68 255.73 415.29 255.78 412.98 255.84C410.79 255.89 408.72 255.94 406.71 255.94H405.78C402.11 255.91 398.46 255.82 394.61 255.73C393.96 255.71 393.29 255.7 392.63 255.69L392.77 255.58C395.24 253.72 397.18 251.41 398.55 248.85C401.46 248.21 404.22 246.96 406.61 245.16L421.54 233.92C422.26 233.38 422.94 232.79 423.57 232.17C424.31 231.75 425.04 231.29 425.72 230.78L461.71 203.69C466.15 200.36 469.02 195.5 469.8 189.97C470.56 184.5 469.15 179.06 465.83 174.64V174.59H465.82ZM198.32 186.88L194.43 183.72C193.27 182.78 192.02 182 190.7 181.34C189.77 180.17 188.72 179.08 187.53 178.11L169.5 163.47C169.67 163.49 169.83 163.5 170 163.52C173.42 163.86 176.96 164.21 180.52 164.51C185.63 164.93 190.74 165.32 195.85 165.72C197.41 165.84 198.99 165.96 200.57 166.08C200.05 170.86 199.52 175.63 199.01 180.41C198.78 182.57 198.55 184.73 198.33 186.89H198.32V186.88Z" fill="#FFFFB4"/>
<path d="M162.99 143.611C169.36 144.161 175.72 144.891 182.09 145.421C193.72 146.381 205.35 147.191 216.98 148.191C218.71 148.341 219.42 148.101 219.55 146.251C220.33 135.751 221.23 125.261 222.03 114.771C222.37 110.301 222.3 110.301 217.76 109.861C202.97 108.411 188.19 106.871 173.38 105.511C163.07 104.571 152.72 103.911 142.4 103.061C131.41 102.161 34.5598 96.3908 23.5798 95.4708C22.6298 95.3908 21.0798 95.2208 20.8098 95.6808C19.9498 97.1308 19.1298 98.8608 19.0998 100.491C19.0598 103.201 19.7398 131.511 19.6198 132.051C19.1398 134.181 20.2098 134.541 22.0498 134.591C24.8198 134.661 27.5798 135.041 30.3398 135.261C40.7598 136.081 137.04 141.671 147.46 142.471C152.63 142.871 157.81 143.161 162.98 143.611H162.99Z" fill="#1D1D1B"/>
<path d="M305.45 405.541C310.56 398.031 317.4 392.461 325.59 388.631C334.62 384.411 344.31 382.381 354.05 380.651C355.4 380.411 355.79 379.921 355.85 378.611C356.07 373.781 356.4 368.951 356.71 364.131C357.45 352.481 358.3 340.841 358.95 329.201C359.92 311.721 360.76 294.241 361.65 276.771C361.74 274.921 361.79 273.071 361.92 271.221C362.01 269.801 361.35 269.071 359.98 268.961C355.74 268.631 351.5 268.191 347.25 268.041C344.06 267.921 340.85 268.291 337.66 268.251C332.96 268.191 328.26 268.121 323.56 268.051C326.74 267.091 329.49 265.861 331.77 264.371C334.02 262.921 336.02 260.811 337.73 258.111C339.44 255.401 340.49 252.421 340.85 249.241C341.21 246.131 341.02 242.901 340.29 239.661L333.25 208.591C333.08 207.861 332.43 207.361 331.7 207.361C331.59 207.361 331.47 207.361 331.35 207.401L315.28 211.041C314.87 211.131 314.51 211.381 314.29 211.741C314.06 212.091 313.99 212.521 314.08 212.931L321.28 244.741C321.85 247.231 321.64 249.201 320.64 250.781C319.65 252.361 318.01 253.391 315.64 253.921C314.81 254.111 314.02 254.211 313.3 254.211C311.94 254.211 310.77 253.881 309.74 253.221C308.15 252.201 307.11 250.521 306.56 248.081L300.95 223.341C303.79 223.611 306.62 223.891 309.45 224.181C311.2 224.361 312.05 223.931 312.28 222.041C312.95 216.551 313.78 211.081 314.53 205.591C315.97 194.951 317.35 184.311 318.84 173.681C321.41 155.231 324.02 136.781 326.71 118.351C326.96 116.621 326.19 115.941 324.94 115.491C318.84 113.311 313.44 109.871 308.32 106.021C301.75 101.091 296.3 95.0207 291.22 88.5707C286.4 82.4507 282.43 75.8407 279.02 68.8907C276.13 63.0107 273.81 56.9207 272.32 50.4907C270.18 41.2907 267.36 32.2307 267.92 22.6207C268.01 20.9807 267.17 20.6007 265.72 20.5307C258.9 20.2007 252.09 19.8007 245.28 19.4207V19.1607C242.58 19.1607 239.88 19.0907 237.18 19.1807C234.21 19.2707 234.18 19.3307 233.94 22.3307C233.27 30.7607 232.7 39.2007 231.93 47.6207C231.5 52.3507 230.64 57.0407 230.17 61.7707C229.02 73.3007 228.02 84.8307 226.9 96.3607C226.31 102.361 225.52 108.331 224.95 114.331C224.38 120.351 224.09 126.391 223.46 132.401C221.71 149.081 219.83 165.761 218.04 182.441C217 192.131 216.06 201.831 215.02 211.521C214.84 213.161 214.99 214.061 217.05 214.281C223.97 215.001 230.85 216.091 237.77 216.851C244.2 217.561 250.66 217.941 257.09 218.621C262.57 219.201 268.04 219.861 273.51 220.501L225.08 231.471C224.22 231.671 223.69 232.521 223.88 233.371L226.8 246.241C226.89 246.651 227.14 247.011 227.5 247.241C227.75 247.401 228.05 247.481 228.34 247.481C228.46 247.481 228.58 247.481 228.69 247.441L243.58 244.071L248.64 266.411C241.98 266.411 235.31 266.521 228.65 266.391C216.7 266.171 204.76 265.771 192.81 265.451C193.59 265.101 194.36 264.691 195.11 264.231C197.79 262.591 200.21 260.451 202.3 257.871L222.38 233.141C222.65 232.821 222.77 232.401 222.73 231.981C222.69 231.561 222.48 231.181 222.15 230.911L209.36 220.521C209.06 220.281 208.71 220.161 208.36 220.161C207.9 220.161 207.44 220.361 207.13 220.751L186.57 246.061C184.96 248.041 183.28 249.091 181.42 249.291C181.21 249.311 181 249.321 180.79 249.321C179.15 249.321 177.53 248.651 175.86 247.291C173.96 245.751 172.95 244.091 172.77 242.221C172.59 240.341 173.27 238.491 174.85 236.541L195.41 211.231C195.68 210.901 195.8 210.481 195.76 210.071C195.71 209.651 195.51 209.261 195.18 209.001L182.39 198.601C182.09 198.371 181.74 198.251 181.39 198.251C180.93 198.251 180.47 198.451 180.15 198.841L160.07 223.561C158.32 225.711 156.73 228.531 155.32 231.931C154.4 234.171 153.97 236.741 154.05 239.581C154.13 242.391 154.68 245.001 155.67 247.321C156.67 249.631 158.33 251.991 160.61 254.341C162.8 256.601 164.96 258.591 167.02 260.261C169.5 262.281 171.95 263.881 174.35 265.071C170.13 265.001 165.92 264.941 161.7 264.851C160.16 264.821 159.18 265.011 159.15 266.991C158.98 278.441 158.68 289.901 158.44 301.351C158.19 313.451 157.97 325.551 157.73 337.651C157.53 347.751 157.31 357.851 157.13 367.961C157.08 370.641 157.13 373.331 157.13 376.011C157.36 376.011 157.58 375.991 157.81 375.991C159.05 376.151 160.34 376.161 161.52 376.521C166.34 377.981 171.16 379.451 175.92 381.101C184.55 384.091 192.31 388.501 198.93 394.941C204.56 400.431 208.66 406.531 211.28 413.261H157.12V467.731H361.71V413.261H300.57C302.11 410.631 303.75 408.051 305.46 405.541H305.45ZM185.72 262.491C185.02 262.561 184.33 262.601 183.68 262.601C182.01 262.601 180.49 262.361 179.14 261.901C176.28 260.931 173.21 259.131 170.04 256.551C168.12 254.991 166.1 253.121 164.05 251.011C162.17 249.071 160.83 247.201 160.07 245.431C159.31 243.671 158.9 241.651 158.84 239.451C158.78 237.281 159.08 235.371 159.75 233.761C160.98 230.781 162.33 228.361 163.78 226.581L181.85 204.341L189.68 210.701L171.13 233.521C168.75 236.451 167.7 239.531 168 242.681C168.31 245.851 169.94 248.651 172.84 251.011C175.37 253.061 178.04 254.111 180.79 254.111C181.16 254.111 181.54 254.091 181.91 254.051C185.05 253.721 187.87 252.051 190.28 249.081L208.83 226.251L216.65 232.611L198.59 254.851C196.83 257.011 194.82 258.791 192.61 260.151C190.49 261.451 188.18 262.241 185.72 262.491ZM256.17 266.481C255.3 266.461 254.43 266.461 253.56 266.451L248.25 243.011C247.97 241.771 247.21 240.701 246.13 240.021C245.36 239.531 244.48 239.281 243.58 239.281C243.23 239.281 242.87 239.321 242.52 239.401L230.76 242.061L229.26 235.431L271.99 225.751L273.49 232.381L261.73 235.051C260.49 235.331 259.41 236.091 258.73 237.161C258.06 238.241 257.83 239.541 258.11 240.771L263.98 266.661C261.37 266.591 258.77 266.531 256.17 266.481ZM268.91 266.781L262.78 239.721L277.67 236.341C278.52 236.151 279.06 235.301 278.87 234.451L275.95 221.571C275.87 221.241 275.69 220.941 275.43 220.721C277.06 220.911 278.7 221.091 280.33 221.271L287.22 251.681C287.83 254.371 289.06 257.371 290.88 260.581C292.07 262.691 293.83 264.621 296.11 266.311C296.74 266.781 297.38 267.191 298.02 267.581C288.32 267.351 278.62 267.041 268.91 266.781ZM295.04 258.231C293.46 255.421 292.4 252.861 291.89 250.621L285.56 222.681L288.14 222.091C290.74 222.351 293.34 222.611 295.94 222.861L301.89 249.131C302.72 252.811 304.5 255.541 307.16 257.251C308.97 258.411 311.03 258.991 313.3 258.991C314.38 258.991 315.52 258.861 316.7 258.591C320.32 257.771 323.01 256.001 324.69 253.331C326.38 250.671 326.8 247.421 325.95 243.681L319.46 215.001L329.29 212.771L335.62 240.711C336.23 243.431 336.39 246.111 336.1 248.701C335.81 251.151 335 253.461 333.68 255.551C332.35 257.671 330.83 259.281 329.16 260.371C326.63 262.021 323.32 263.311 319.32 264.221C316.91 264.771 314.2 265.201 311.27 265.511C310.31 265.611 309.39 265.661 308.52 265.661C306.98 265.661 305.6 265.501 304.42 265.181C302.57 264.691 300.73 263.781 298.96 262.461C297.22 261.181 295.9 259.751 295.04 258.231Z" fill="#1D1D1B"/>
<path d="M336.1 248.7C335.81 251.15 335 253.46 333.68 255.55C332.35 257.67 330.83 259.28 329.16 260.37C326.63 262.02 323.32 263.31 319.32 264.22C316.91 264.77 314.2 265.2 311.27 265.51C310.31 265.61 309.39 265.66 308.52 265.66C306.98 265.66 305.6 265.5 304.42 265.18C302.57 264.69 300.73 263.78 298.96 262.46C297.22 261.18 295.9 259.75 295.04 258.23C293.46 255.42 292.4 252.86 291.89 250.62L285.56 222.68L288.14 222.09C290.74 222.35 293.34 222.61 295.94 222.86L301.89 249.13C302.72 252.81 304.5 255.54 307.16 257.25C308.97 258.41 311.03 258.99 313.3 258.99C314.38 258.99 315.52 258.86 316.7 258.59C320.32 257.77 323.01 256 324.69 253.33C326.38 250.67 326.8 247.42 325.95 243.68L319.46 215L329.29 212.77L335.62 240.71C336.23 243.43 336.39 246.11 336.1 248.7Z" fill="#ffffb4" stroke="black" stroke-miterlimit="10"/>
<path d="M258.11 240.77L263.98 266.66C261.37 266.59 258.77 266.53 256.17 266.48C255.3 266.46 254.43 266.46 253.56 266.45L248.25 243.01C247.97 241.77 247.21 240.7 246.13 240.02C245.36 239.53 244.48 239.28 243.58 239.28C243.23 239.28 242.87 239.32 242.52 239.4L230.76 242.06L229.26 235.43L271.99 225.75L273.49 232.38L261.73 235.05C260.49 235.33 259.41 236.09 258.73 237.16C258.06 238.24 257.83 239.54 258.11 240.77Z" fill="#ffffb4" stroke="black" stroke-miterlimit="10"/>
<path d="M216.65 232.61L198.59 254.85C196.83 257.01 194.82 258.79 192.61 260.15C190.49 261.45 188.18 262.24 185.72 262.49C185.02 262.56 184.33 262.6 183.68 262.6C182.01 262.6 180.49 262.36 179.14 261.9C176.28 260.93 173.21 259.13 170.04 256.55C168.12 254.99 166.1 253.12 164.05 251.01C162.17 249.07 160.83 247.2 160.07 245.43C159.31 243.67 158.9 241.65 158.84 239.45C158.78 237.28 159.08 235.37 159.75 233.76C160.98 230.78 162.33 228.36 163.78 226.58L181.85 204.34L189.68 210.7L171.13 233.52C168.75 236.45 167.7 239.53 168 242.68C168.31 245.85 169.94 248.65 172.84 251.01C175.37 253.06 178.04 254.11 180.79 254.11C181.16 254.11 181.54 254.09 181.91 254.05C185.05 253.72 187.87 252.05 190.28 249.08L208.83 226.25L216.65 232.61Z" fill="#ffffb4" stroke="black" stroke-miterlimit="10"/>
<path d="M420.46 274.838C415.51 274.828 410.56 275.078 405.61 275.038C398.15 274.978 390.68 274.688 383.22 274.618C377.96 274.568 372.69 274.918 367.45 274.688C365.58 274.608 365.04 275.028 364.94 276.678C364.58 282.568 364.15 288.458 363.84 294.358C363.44 301.968 363.12 309.568 362.78 317.178C362.42 325.188 362.08 333.208 361.71 341.928C362.67 341.078 363.16 340.708 363.58 340.258C369.22 334.228 374.84 328.198 380.47 322.158C390.65 311.238 400.8 300.288 411.02 289.408C414.62 285.578 418.42 281.948 422.05 278.148C422.54 277.628 423 276.398 422.73 275.988C422.31 275.358 421.25 274.838 420.46 274.838Z" fill="#1D1D1B"/>
<path d="M154.71 269.532C144.34 269.252 133.95 269.092 123.6 268.512C118.38 268.222 112.98 269.952 108.66 267.762C106.5 268.312 104.99 268.692 103.35 269.112C120.48 293.722 137.49 318.142 154.85 343.072C155.14 342.042 155.37 341.592 155.38 341.132C155.45 335.232 155.48 329.332 155.54 323.432C155.67 311.622 155.82 299.822 155.97 288.012C156.04 282.462 156.09 276.902 156.16 271.352C156.16 270.352 156.1 269.562 154.72 269.532H154.71Z" fill="#1D1D1B"/>
<path d="M175.45 192.969L143.74 167.209C143.45 166.979 143.09 166.859 142.74 166.859C142.28 166.859 141.83 167.059 141.51 167.449L107.8 208.939C107.54 209.269 107.41 209.689 107.46 210.099C107.5 210.519 107.71 210.909 108.03 211.169L120.91 221.639C121.2 221.869 121.55 221.989 121.91 221.989C121.97 221.989 122.02 221.989 122.08 221.989C122.49 221.949 122.88 221.739 123.14 221.419L135.92 205.689L150.76 217.749C151.06 217.989 151.41 218.109 151.76 218.109C152.22 218.109 152.68 217.909 153 217.519L159.8 209.139C160.07 208.819 160.19 208.399 160.15 207.979C160.11 207.559 159.9 207.179 159.57 206.909L144.72 194.849L148.61 190.059L166.2 204.359C166.5 204.599 166.85 204.709 167.21 204.709C167.67 204.709 168.12 204.509 168.44 204.129L175.68 195.209C175.94 194.879 176.07 194.469 176.03 194.049C175.98 193.629 175.77 193.239 175.45 192.979V192.969ZM166.74 198.609L151.63 186.339C150.77 185.639 149.71 185.269 148.61 185.269C148.45 185.269 148.28 185.269 148.12 185.289C146.86 185.419 145.7 186.049 144.9 187.039L141.01 191.819C140.21 192.809 139.83 194.069 139.96 195.329C140.09 196.599 140.72 197.759 141.71 198.559L154.07 208.599L151.3 212.009L138.94 201.959C138.08 201.269 137.01 200.889 135.92 200.889C135.75 200.889 135.59 200.889 135.42 200.919C134.16 201.049 133 201.679 132.2 202.659L121.45 215.899L113.54 209.479L143.21 172.949L169.95 194.669L166.74 198.609Z" fill="#1D1D1B"/>
<path d="M141.01 191.819C140.21 192.809 139.83 194.069 139.96 195.329C140.09 196.599 140.72 197.759 141.71 198.559L154.07 208.599L151.3 212.009L138.94 201.959C138.08 201.269 137.01 200.889 135.92 200.889C135.75 200.889 135.59 200.889 135.42 200.919C134.16 201.049 133 201.679 132.2 202.659L121.45 215.899L113.54 209.479L143.21 172.949L169.95 194.669L166.74 198.609L151.63 186.339C150.77 185.639 149.71 185.269 148.61 185.269C148.45 185.269 148.28 185.269 148.12 185.289C146.86 185.419 145.7 186.049 144.9 187.039L141.01 191.819Z" fill="#ffffb4" stroke="black" stroke-miterlimit="10"/>
<path d="M372.43 198.181C370.41 195.491 368.02 194.811 366.33 194.711C366.23 194.711 366.11 194.711 365.99 194.711C363.81 194.711 361.43 195.751 358.48 197.961L353.95 201.371C351.84 202.961 351.42 205.961 353.01 208.071L357.64 214.231C358.4 215.241 359.53 215.911 360.79 216.091C361.01 216.121 361.24 216.131 361.46 216.131C362.49 216.131 363.51 215.801 364.34 215.171L368.63 211.941C369.18 211.531 370.08 210.741 372.18 208.271C373.44 206.841 374.09 205.151 374.11 203.251C374.13 201.421 373.54 199.661 372.43 198.191V198.181ZM368.56 205.131C366.79 207.211 366.04 207.891 365.76 208.101L361.46 211.341L356.83 205.191L361.36 201.781C363.97 199.811 365.36 199.491 365.99 199.491H366.08C367.03 199.551 367.86 200.061 368.6 201.061C369.09 201.701 369.33 202.401 369.32 203.181C369.31 203.941 369.08 204.551 368.56 205.131Z" fill="#1D1D1B"/>
<path d="M409.72 215.891L394.03 208.331C393.13 207.891 391.77 207.441 389.87 206.951C387.9 206.451 386.58 206.261 385.65 206.251C385.4 206.251 385.14 206.271 384.86 206.301C385.28 205.591 385.62 204.921 385.89 204.261C386.95 201.621 387.33 198.901 387.01 196.171C386.7 193.421 385.55 190.711 383.61 188.121C381.37 185.151 378.69 183.141 375.64 182.141C374.13 181.641 372.62 181.391 371.11 181.391C369.6 181.391 368.01 181.661 366.49 182.181C363.62 183.171 360.16 185.201 355.91 188.401L333.91 204.961C333.21 205.491 333.07 206.481 333.6 207.181L365.75 249.901C366 250.241 366.38 250.461 366.79 250.521C366.87 250.531 366.94 250.531 367.01 250.531C367.36 250.531 367.69 250.421 367.97 250.211L381.22 240.231C381.92 239.711 382.06 238.711 381.54 238.011L369.44 221.941C370.36 221.281 371.34 220.941 372.4 220.891C372.81 220.921 374.03 221.051 376.58 222.241L393.45 229.991C393.67 230.081 393.89 230.131 394.12 230.131C394.45 230.131 394.79 230.021 395.07 229.811L409.99 218.591C410.43 218.261 410.66 217.721 410.61 217.171C410.55 216.621 410.22 216.131 409.72 215.891ZM393.72 224.841L378.61 217.911C376.27 216.811 374.35 216.231 372.72 216.121C372.62 216.121 372.51 216.121 372.4 216.121H372.22C370.2 216.201 368.32 216.861 366.63 218.081C365.59 218.831 364.9 219.971 364.71 221.241C364.52 222.511 364.85 223.811 365.62 224.831L375.79 238.351L367.65 244.471L339.35 206.871L358.79 192.241C362.58 189.381 365.69 187.531 368.05 186.721C369.06 186.371 370.09 186.191 371.11 186.191C372.13 186.191 373.13 186.361 374.15 186.691C376.25 187.381 378.15 188.831 379.78 191.011C381.21 192.911 382.04 194.831 382.26 196.731C382.48 198.651 382.21 200.591 381.45 202.481C381.28 202.911 381.04 203.371 380.75 203.861C379.82 205.421 379.86 207.371 380.84 208.891C381.72 210.271 383.25 211.101 384.86 211.101C385.03 211.101 385.2 211.101 385.37 211.071C385.47 211.071 385.56 211.051 385.66 211.051C386.06 211.051 386.94 211.161 388.69 211.601C390.72 212.121 391.57 212.471 391.9 212.631C391.91 212.631 391.93 212.651 391.95 212.661L402.91 217.931L393.72 224.851V224.841Z" fill="#1D1D1B"/>
<path d="M391.95 212.65C391.95 212.65 391.91 212.63 391.9 212.62C391.57 212.46 390.72 212.11 388.69 211.59C386.94 211.15 386.06 211.05 385.66 211.04C385.56 211.04 385.47 211.04 385.37 211.06C385.2 211.08 385.03 211.09 384.86 211.09C383.25 211.09 381.72 210.26 380.84 208.88C379.86 207.36 379.82 205.41 380.75 203.85C381.04 203.36 381.28 202.9 381.45 202.47C382.21 200.58 382.48 198.64 382.26 196.72C382.04 194.82 381.21 192.9 379.78 191C378.15 188.82 376.25 187.37 374.15 186.68C373.13 186.35 372.11 186.18 371.11 186.18C370.11 186.18 369.06 186.36 368.05 186.71C365.69 187.52 362.58 189.37 358.79 192.23L339.35 206.86L367.65 244.46L375.79 238.34L365.62 224.82C364.85 223.8 364.52 222.5 364.71 221.23C364.9 219.96 365.59 218.82 366.63 218.07C368.32 216.85 370.2 216.19 372.22 216.11H372.4C372.51 216.11 372.62 216.11 372.72 216.11C374.35 216.22 376.27 216.8 378.61 217.9L393.72 224.83L402.91 217.91L391.95 212.64V212.65ZM372.18 208.26C370.08 210.73 369.18 211.52 368.63 211.93L364.34 215.16C363.51 215.79 362.49 216.12 361.46 216.12C361.24 216.12 361.01 216.12 360.79 216.08C359.53 215.9 358.4 215.23 357.64 214.22L353.01 208.06C351.42 205.95 351.84 202.95 353.95 201.36L358.48 197.95C361.43 195.74 363.81 194.7 365.99 194.7C366.11 194.7 366.23 194.7 366.33 194.7C368.02 194.8 370.41 195.48 372.43 198.17C373.54 199.64 374.13 201.4 374.11 203.23C374.09 205.13 373.44 206.82 372.18 208.25V208.26Z" fill="#ffffb4" stroke="black" stroke-miterlimit="10"/>
<path d="M450.51 186.1L443.23 176.43C442.92 176.02 442.44 175.8 441.96 175.8C441.63 175.8 441.3 175.9 441.01 176.12L419.49 192.31L415.06 186.42L434.33 171.92C435.03 171.39 435.17 170.4 434.65 169.7L428.09 160.98C427.84 160.65 427.46 160.43 427.05 160.37C426.97 160.37 426.89 160.35 426.82 160.35C426.48 160.35 426.15 160.46 425.87 160.67L406.59 175.18L403.39 170.92L424.27 155.21C424.61 154.96 424.83 154.58 424.89 154.16C424.95 153.75 424.84 153.32 424.59 152.99L417.72 143.87C417.41 143.45 416.93 143.24 416.45 143.24C416.12 143.24 415.79 143.34 415.5 143.55L380.12 170.18C379.79 170.43 379.56 170.81 379.51 171.22C379.45 171.64 379.56 172.06 379.81 172.4L411.96 215.12C412.27 215.53 412.75 215.75 413.23 215.75C413.56 215.75 413.89 215.64 414.18 215.43L450.2 188.32C450.54 188.07 450.76 187.7 450.82 187.28C450.87 186.86 450.76 186.44 450.51 186.1ZM413.86 209.68L385.56 172.08L415.82 149.3L418.83 153.31L400.51 167.1C398.4 168.69 397.98 171.69 399.57 173.8L402.77 178.06C403.53 179.07 404.67 179.74 405.92 179.92C406.15 179.95 406.37 179.96 406.59 179.96C407.63 179.96 408.64 179.63 409.47 179L426.19 166.42L428.9 170.02L412.18 182.6C410.07 184.19 409.64 187.19 411.23 189.3L415.66 195.19C416.43 196.21 417.56 196.88 418.82 197.05C419.04 197.08 419.27 197.1 419.49 197.1C420.52 197.1 421.53 196.77 422.37 196.14L441.33 181.87L444.76 186.42L413.86 209.68Z" fill="#1D1D1B"/>
<path d="M444.76 186.421L413.86 209.681L385.56 172.081L415.82 149.301L418.83 153.311L400.51 167.101C398.4 168.691 397.98 171.691 399.57 173.801L402.77 178.061C403.53 179.071 404.67 179.741 405.92 179.921C406.15 179.951 406.37 179.961 406.59 179.961C407.63 179.961 408.64 179.631 409.47 179.001L426.19 166.421L428.9 170.021L412.18 182.601C410.07 184.191 409.64 187.191 411.23 189.301L415.66 195.191C416.43 196.211 417.56 196.881 418.82 197.051C419.04 197.081 419.27 197.101 419.49 197.101C420.52 197.101 421.53 196.771 422.37 196.141L441.33 181.871L444.76 186.421Z" fill="#ffffb4" stroke="black" stroke-miterlimit="10"/>
</g>
</svg>
