<svg width="330" height="487" viewBox="0 0 330 487" fill="none" xmlns="http://www.w3.org/2000/svg">
<g>
<path d="M321.04 129.669C322.03 125.529 323.29 121.309 324.64 116.829C325.65 113.469 326.69 109.999 327.65 106.409C328.61 102.839 329.82 97.3793 329.21 91.2593C328.53 84.4393 327.72 77.1693 325.91 69.7793C324.31 63.2493 321.64 54.7893 315.1 47.2393C311.05 42.5593 306.73 37.2993 301.89 31.1593C296.03 23.7193 288.56 17.5593 279.06 12.3493C274.64 9.92928 270.19 8.04928 266.27 6.39928C264.32 5.57928 262.48 4.79928 260.75 4.00928C258.68 3.05928 256.56 2.26928 254.44 1.65928C247.06 -0.480725 239.59 -0.550725 232.24 1.44928C223.31 3.87928 216.25 9.64928 212.38 17.6793C211.5 19.4993 209.46 23.7393 209.31 29.1193C208.37 29.5493 207.43 29.9993 206.49 30.4693C203.65 31.8993 200.98 33.3593 198.4 34.7793C196.21 35.9793 194.14 37.1193 192.11 38.1493C183.2 42.6893 176.3 49.0293 171.62 56.9893C167.16 64.5793 163.7 70.8393 160.73 76.6993C158.09 81.9193 155.38 87.5593 153.91 94.0993C152.68 99.5493 148.94 116.119 157.97 132.259C158.17 132.699 158.56 133.869 158.85 134.749C161.89 143.959 166.65 153.019 172.99 161.689C175.39 164.969 178.08 167.669 180.87 169.929L151.94 224.099L133.47 214.979L131.77 213.799C129.94 212.529 127.97 211.609 125.94 211.019C117.94 208.699 109.02 211.569 103.98 218.769L96.7499 229.099C95.4899 230.899 94.5399 232.889 93.9299 234.999L92.5699 239.689C92.1699 241.049 91.9499 242.429 91.8499 243.809C91.0799 244.829 90.3799 245.929 89.7999 247.119L84.3399 258.319C83.8399 259.349 83.4199 260.429 83.0999 261.529L79.1099 275.329C78.8499 276.249 78.6699 277.159 78.5399 278.079C78.0899 279.049 77.7199 280.069 77.4299 281.109L71.8999 301.119C71.1599 303.809 71.0099 306.539 71.3699 309.169C69.2999 311.689 67.6999 314.659 66.7399 317.989C66.5999 318.479 66.4799 318.969 66.3699 319.449C63.7499 322.229 61.7399 325.639 60.5999 329.549C60.5699 329.669 60.5399 329.779 60.5099 329.899C57.6599 332.759 55.4599 336.359 54.2599 340.509C54.1899 340.769 54.1199 341.029 54.0599 341.289C51.2299 344.149 49.0499 347.729 47.8499 351.849C46.3899 356.899 46.6099 362.039 48.1699 366.669C43.0999 369.449 38.9699 373.959 36.8099 379.709C36.7799 379.789 36.7599 379.869 36.7299 379.949C34.0799 382.459 31.9399 385.589 30.5799 389.199C30.2899 389.959 30.0499 390.729 29.8399 391.509C27.8699 393.729 26.2599 396.319 25.1699 399.239C24.5299 400.959 24.0799 402.709 23.8299 404.489C19.8899 405.799 16.4099 408.299 13.9399 411.729L11.5999 414.969C11.2699 415.429 10.9499 415.909 10.6599 416.389L2.8499 429.419C-2.3001 438.019 -0.300096 449.109 7.5499 455.349L41.2199 482.149C43.2899 483.799 45.6299 484.999 48.1099 485.709C51.6999 486.749 55.5499 486.779 59.2399 485.709L106.59 471.999C112.07 470.409 116.61 466.559 119.07 461.419L206.08 279.449C207.69 276.079 208.33 272.319 207.91 268.599L207.13 261.589C206.62 257.069 204.61 252.929 201.5 249.779L226.94 192.009C227.99 192.179 229.03 192.309 230.07 192.399C231.98 192.549 233.69 192.579 235.2 192.609C236.3 192.629 237.44 192.649 238.03 192.719C247.92 193.889 258.06 192.779 269.04 189.319C283.55 184.739 295.51 176.059 304.6 163.499C313.12 151.729 318.34 140.969 321.05 129.649V129.669H321.04Z" fill="#FFFFB4"/>
<path d="M30.1498 423.469L91.1798 306.479L96.7098 286.469L98.3298 280.909L102.32 267.109L107.79 255.909L111.8 245.279L119.61 235.609L158.9 255.909L106.02 395.839L61.6598 456.509L25.2998 430.899L30.1498 423.469Z" fill="#ffffb4"/>
<path d="M125.64 277.282C125.64 277.282 125.58 277.252 125.55 277.242C125.51 277.222 125.48 277.202 125.44 277.182C125.42 277.182 125.4 277.182 125.38 277.172C125.38 277.172 125.36 277.162 125.34 277.152C124.6 276.942 123.83 277.362 123.61 278.102C123.39 278.842 123.82 279.612 124.56 279.832H124.6C124.6 279.832 124.6 279.832 124.62 279.842C125.19 280.042 125.74 279.822 126.04 279.332C126.14 279.202 126.23 279.042 126.27 278.872C126.44 278.272 126.19 277.652 125.69 277.322C125.66 277.302 125.64 277.282 125.61 277.272H125.64V277.282Z" fill="black"/>
<path d="M301.59 125.03C303.5 117.02 306.2 109.19 308.34 101.23C309.03 98.6603 309.57 95.8603 309.31 93.2603C308.69 86.9903 307.98 80.6603 306.48 74.5503C305.25 69.5103 303.56 64.4803 299.97 60.3403C295.23 54.8603 290.65 49.2303 286.17 43.5403C281.59 37.7203 275.79 33.3803 269.44 29.8903C264 26.9103 258.09 24.8003 252.43 22.2103C247.6 20.0003 242.65 19.3603 237.51 20.7603C234.37 21.6203 231.88 23.3503 230.41 26.3803C228.36 30.6203 229.11 31.7403 233.76 31.4903C236.44 31.3403 239.27 30.7903 241.78 31.4103C249.55 33.3403 257.21 35.4903 264.15 39.9403C270.23 43.8403 275.65 48.2003 279.92 54.0303C281.72 56.4903 283.83 58.7203 285.69 61.1403C288.58 64.8903 291.83 68.4703 294.14 72.5603C299.23 81.5703 300.6 91.2603 297.7 101.36C296.28 106.28 294.85 111.19 293.43 116.11C291.81 121.71 290.2 127.32 288.55 132.91C288.25 133.93 287.92 134.96 287.42 135.88C283.57 142.97 278.43 148.95 272.04 153.91C262.65 161.2 252.17 162.57 241 159.62C234.23 157.83 227.44 156.05 220.77 153.93L222.88 149.39C227.08 151.99 231.37 154.39 236.53 155.03C246.92 156.3 256.61 154.27 265.03 148.15C272.83 142.49 279.21 135.26 284.77 127.36C289.42 120.75 292.11 113.35 292.55 105.35C292.84 100.13 292.12 94.8603 291.94 89.6103C291.75 84.0103 290.67 78.7603 286.59 74.5503C286.11 74.0503 285.88 73.3103 285.46 72.7503C283.32 69.9303 281.36 66.9303 278.96 64.3603C271.16 55.9903 262.3 48.9103 252.13 43.6003C250.55 42.7703 248.67 42.3303 246.88 42.1403C244.7 41.9203 242.48 42.2103 240.28 42.2003C231.49 42.1303 223.27 44.4403 215.48 48.3503C210.66 50.7703 206.01 53.5403 201.2 55.9803C196.06 58.6003 191.79 62.1703 188.88 67.1303C185.29 73.2403 181.79 79.4203 178.59 85.7403C176.52 89.8303 174.43 94.0803 173.43 98.5103C171.6 106.62 171.12 114.83 175.47 122.56C176.5 124.4 177.18 126.46 177.85 128.48C180.42 136.26 184.37 143.36 189.14 149.9C194.05 156.61 201.79 159.45 208.92 163.03L206.36 168.13L200.68 175.3L160.45 250.63L173.43 257.04L123.28 232.27L120.37 230.25L113.14 240.58L111.78 245.27L113.02 246.09L119.6 235.6L121.53 236.11L151.49 253.1L135 302.09L131.79 305.16L96.7098 286.45L91.1798 306.46L126.89 326.13L126.38 331.84L79.8398 430.39L66.8598 443.02C66.6398 443.05 66.4098 443.08 66.2698 443.21C65.8198 443.6 65.3798 444.04 65.0498 444.54C64.9898 444.63 64.9698 444.75 64.9598 444.88L60.0098 449.7L31.0998 429.04L31.3998 424.73L30.1598 423.45L27.8198 426.69L20.0098 439.72L53.6798 466.52L101.03 452.81L188.04 270.84L187.26 263.83L175.94 258.24L210 180.89L212.85 171.04L215.23 165.92C216.38 166.43 217.54 166.94 218.65 167.53C222.81 169.71 226.88 172.08 231.69 172.47C234.59 172.7 237.53 172.52 240.41 172.86C248.18 173.78 255.57 172.6 263.05 170.25C273.7 166.89 282.03 160.62 288.42 151.78C294.31 143.65 299.23 134.99 301.62 125L301.59 125.03ZM214.55 151.83C209.52 150.01 204.96 146.82 200.32 144.02C199.13 143.31 198.31 141.82 197.58 140.54C195.09 136.15 192.88 131.6 190.27 127.29C186.95 121.8 185.23 115.85 184.68 109.56C184.5 107.49 184.68 105.27 185.22 103.26C187.29 95.6703 189.68 88.2703 193.51 81.2203C198.1 72.7803 204.01 66.1603 212.54 61.8103C215.64 60.2303 218.65 58.4603 221.7 56.7903C232.56 50.8403 243.58 51.8903 253.9 57.4503C259.47 60.4503 264.11 65.3303 268.81 69.7403C271.94 72.6703 274.87 76.0003 277.15 79.6203C285.44 92.7903 284.86 108.56 276.53 121.53C272.31 128.1 266.82 133.57 260.9 138.62C255.05 143.61 248.31 144.39 241.07 143C236.42 142.11 232.16 140.33 228.1 138.14L230.47 133.04C230.66 133.15 230.86 133.27 231.05 133.38C233.44 134.72 236.32 135.64 239.05 135.87C244.55 136.33 250.37 136.02 254.81 132.59C263.82 125.64 269.63 116.38 271.59 105.01C272.03 102.45 272.28 99.7403 271.99 97.1803C270.46 83.7803 262.11 75.6503 250.57 70.0903C245.73 67.7603 240.58 67.1003 235.4 68.0503C230.19 69.0103 225.05 70.4503 219.94 71.9203C213.73 73.7103 208.58 77.0603 205.29 82.8503C204.41 84.3903 203.45 85.9003 202.45 87.3603C198.73 92.7703 197.01 98.8603 196.21 105.28C195.05 114.7 198.1 123.24 201.94 131.55C203.72 135.4 206.49 138.58 210.01 141.03C212.46 142.74 214.84 144.56 217.42 146.05H217.43L214.54 151.82L214.55 151.83ZM222.94 135.09C222.61 134.88 222.27 134.68 221.94 134.46C217.63 131.68 213.39 128.81 211.19 123.83C208.91 118.68 207.06 113.46 208.52 107.76C209.74 103.01 210.97 98.2403 212.65 93.6403C214.71 88.0003 217.86 83.1703 224.43 81.8803C225.61 81.6503 226.78 81.2503 227.87 80.7403C233.15 78.2603 238.57 78.8603 243.96 80.0303C250.7 81.4903 255.2 86.0603 259.22 91.3103C261.37 94.1303 262.44 97.3003 261.9 100.69C261.23 104.94 260.45 109.28 258.91 113.27C256.64 119.15 252.82 123.95 245.8 124.13C242.9 124.2 239.89 123.44 237.09 122.55C236.58 122.39 236.08 122.21 235.59 122.02L237.67 117.54C240.34 118.33 243.12 118.65 245.98 118.64C246.79 118.64 247.73 118.43 248.37 117.98C252.9 114.8 255.62 105.93 253.81 100.63C251.31 93.2903 246.02 89.4003 238.48 88.7703C232.41 88.2603 226.57 89.1703 222.63 94.5803C219.34 99.1003 217.06 104.15 215.92 109.64C214.49 116.52 216.51 122.32 221.95 126.77C223.16 127.76 224.38 128.76 225.63 129.72L222.93 135.09H222.94ZM227.66 115.97C226.84 114.7 226.3 112.88 226.49 111.42C226.95 107.94 228.24 104.73 230.88 102.16C233.88 99.2503 238.5 98.7603 241.66 101.47C242.54 102.22 243.16 103.71 243.21 104.88C243.29 106.74 242.19 107.66 240.09 107.72C237.52 107.79 234.73 107.86 232.45 108.86C229.07 110.33 229.3 113.4 232.51 115.31C232.6 115.36 232.7 115.41 232.79 115.46L230.82 119.39C229.61 118.45 228.53 117.33 227.66 115.98V115.97Z" fill="black"/>
<path d="M41.0996 430.51L45.2296 433.79C45.8396 434.46 46.5496 435 47.3296 435.46L50.9496 438.33L54.3596 432.59L45.5096 425.48L41.0996 430.51Z" fill="black"/>
<path d="M92.0099 320.249C89.4199 319.499 86.6999 320.989 85.9499 323.589C85.1999 326.189 86.6899 328.899 89.2899 329.649C91.8899 330.399 94.5999 328.909 95.3499 326.309C96.0999 323.709 94.6099 320.999 92.0099 320.249Z" fill="black"/>
<path d="M106.811 332.787C107.562 330.193 106.069 327.481 103.475 326.729C100.881 325.977 98.1688 327.471 97.4171 330.065C96.6655 332.659 98.159 335.371 100.753 336.123C103.347 336.874 106.059 335.381 106.811 332.787Z" fill="black"/>
<path d="M118.481 338.458C118.808 335.777 116.899 333.339 114.219 333.012C111.538 332.686 109.1 334.594 108.773 337.275C108.446 339.956 110.354 342.394 113.035 342.721C115.716 343.047 118.154 341.139 118.481 338.458Z" fill="black"/>
<path d="M89.2116 337.857C89.9633 335.263 88.4698 332.551 85.8758 331.799C83.2818 331.048 80.5697 332.541 79.818 335.135C79.0664 337.729 80.5599 340.441 83.1538 341.193C85.7478 341.945 88.46 340.451 89.2116 337.857Z" fill="black"/>
<path d="M91.2897 341.639C90.5397 344.229 92.0297 346.949 94.6297 347.699C97.2297 348.449 99.9397 346.959 100.69 344.359C101.44 341.759 99.9497 339.049 97.3497 338.299C94.7497 337.549 92.0397 339.039 91.2897 341.639Z" fill="black"/>
<path d="M111.292 352.428C112.979 350.319 112.637 347.242 110.529 345.555C108.42 343.867 105.342 344.209 103.655 346.318C101.968 348.427 102.31 351.504 104.419 353.191C106.528 354.879 109.605 354.537 111.292 352.428Z" fill="black"/>
<path d="M82.8493 348.81C83.6009 346.216 82.1075 343.504 79.5135 342.753C76.9195 342.001 74.2074 343.494 73.4557 346.088C72.7041 348.682 74.1976 351.394 76.7915 352.146C79.3855 352.898 82.0976 351.404 82.8493 348.81Z" fill="black"/>
<path d="M84.9396 352.6C84.1896 355.19 85.6796 357.91 88.2796 358.66C90.8796 359.41 93.5896 357.92 94.3396 355.32C95.0896 352.72 93.5996 350.01 90.9996 349.26C88.3996 348.51 85.6896 350 84.9396 352.6Z" fill="black"/>
<path d="M105.993 360.993C106.32 358.313 104.411 355.874 101.73 355.548C99.0495 355.221 96.6114 357.129 96.2846 359.81C95.9578 362.491 97.8661 364.929 100.547 365.256C103.228 365.583 105.666 363.674 105.993 360.993Z" fill="black"/>
<path d="M76.4367 360.154C77.1883 357.56 75.6949 354.848 73.1009 354.096C70.5069 353.345 67.7948 354.838 67.0431 357.432C66.2915 360.026 67.785 362.738 70.3789 363.49C72.9729 364.242 75.685 362.748 76.4367 360.154Z" fill="black"/>
<path d="M87.0491 368.326C88.7362 366.217 88.3943 363.14 86.2854 361.453C84.1765 359.766 81.0993 360.108 79.4122 362.217C77.7251 364.326 78.067 367.403 80.1758 369.09C82.2847 370.777 85.362 370.435 87.0491 368.326Z" fill="black"/>
<path d="M99.4197 373.059C100.17 370.469 98.6797 367.749 96.0797 366.999C93.4797 366.249 90.7697 367.739 90.0197 370.339C89.2697 372.939 90.7597 375.649 93.3597 376.399C95.9597 377.149 98.6697 375.659 99.4197 373.059Z" fill="black"/>
<path d="M46.7597 412.591C49.2897 413.541 52.1097 412.261 53.0597 409.731C54.0097 407.201 52.7297 404.381 50.1997 403.431C47.6697 402.481 44.8497 403.761 43.8997 406.291C42.9497 408.821 44.2297 411.641 46.7597 412.591Z" fill="black"/>
<path d="M68.6698 427.2C71.1998 428.15 74.0198 426.87 74.9698 424.34C75.9198 421.81 74.6398 418.99 72.1098 418.04C69.5798 417.09 66.7598 418.37 65.8098 420.9C64.8598 423.43 66.1398 426.25 68.6698 427.2Z" fill="black"/>
<path d="M52.1698 402.56C54.6998 403.51 57.5198 402.23 58.4698 399.7C59.4198 397.17 58.1398 394.35 55.6098 393.4C53.0798 392.45 50.2598 393.73 49.3098 396.26C48.3598 398.79 49.6398 401.61 52.1698 402.56Z" fill="black"/>
<path d="M69.4 407.051C70.35 404.521 69.07 401.701 66.54 400.751C64.01 399.801 61.19 401.081 60.24 403.611C59.29 406.141 60.57 408.961 63.1 409.911C65.63 410.861 68.45 409.581 69.4 407.051Z" fill="black"/>
<path d="M80.3697 414.309C81.3197 411.779 80.0397 408.959 77.5097 408.009C74.9797 407.059 72.1597 408.339 71.2097 410.869C70.2597 413.399 71.5397 416.219 74.0697 417.169C76.5997 418.119 79.4197 416.839 80.3697 414.309Z" fill="black"/>
<path d="M58.3998 393.071C60.9298 394.021 63.7498 392.741 64.6998 390.211C65.6498 387.681 64.3698 384.861 61.8398 383.911C59.3098 382.961 56.4898 384.241 55.5398 386.771C54.5898 389.301 55.8698 392.121 58.3998 393.071Z" fill="black"/>
<path d="M75.63 397.559C76.58 395.029 75.3 392.209 72.77 391.259C70.24 390.309 67.42 391.589 66.47 394.119C65.52 396.649 66.8 399.469 69.33 400.419C71.86 401.369 74.68 400.089 75.63 397.559Z" fill="black"/>
<path d="M86.5997 404.821C87.5497 402.291 86.2697 399.471 83.7397 398.521C81.2097 397.571 78.3897 398.851 77.4397 401.381C76.4897 403.911 77.7697 406.731 80.2997 407.681C82.8297 408.631 85.6497 407.351 86.5997 404.821Z" fill="black"/>
<path d="M125 271.479C124.69 272.549 125.31 273.669 126.38 273.979C127.45 274.289 128.57 273.669 128.88 272.599C129.19 271.529 128.57 270.409 127.5 270.099C126.43 269.789 125.31 270.409 125 271.479Z" fill="black"/>
<path d="M125.04 261.459C123.97 261.149 122.85 261.769 122.54 262.839C122.23 263.909 122.85 265.029 123.92 265.339C124.99 265.649 126.11 265.029 126.42 263.959C126.73 262.889 126.11 261.769 125.04 261.459Z" fill="black"/>
<path d="M136.55 268.721C136.86 267.651 136.24 266.531 135.17 266.221C134.1 265.911 132.98 266.531 132.67 267.601C132.36 268.671 132.98 269.791 134.05 270.101C135.12 270.411 136.24 269.791 136.55 268.721Z" fill="black"/>
<path d="M117.38 275.05C117.07 276.12 117.69 277.24 118.76 277.55C119.83 277.86 120.95 277.24 121.26 276.17C121.57 275.1 120.95 273.98 119.88 273.67C118.81 273.36 117.69 273.98 117.38 275.05Z" fill="black"/>
<path d="M129.51 282.768C130.58 283.078 131.7 282.458 132.01 281.388C132.32 280.318 131.7 279.198 130.63 278.888C129.56 278.578 128.44 279.198 128.13 280.268C127.82 281.338 128.44 282.458 129.51 282.768Z" fill="black"/>
<path d="M123.58 272.499C122.84 272.289 122.07 272.709 121.86 273.449C121.65 274.189 122.07 274.959 122.81 275.179C123.55 275.399 124.32 274.969 124.53 274.229C124.74 273.489 124.32 272.719 123.58 272.509V272.499Z" fill="black"/>
<path d="M129 275.101C128.26 274.891 127.49 275.311 127.28 276.051C127.07 276.791 127.49 277.561 128.23 277.771C128.97 277.981 129.74 277.561 129.96 276.821C130.18 276.081 129.75 275.311 129.01 275.091L129 275.101Z" fill="black"/>
<path d="M125.96 266.499C125.22 266.289 124.45 266.709 124.24 267.449C124.03 268.189 124.45 268.959 125.19 269.169C125.93 269.379 126.7 268.959 126.92 268.219C127.14 267.479 126.71 266.709 125.97 266.489L125.96 266.499Z" fill="black"/>
<path d="M129.64 270.041C129.43 270.781 129.85 271.551 130.59 271.771C131.33 271.991 132.1 271.561 132.31 270.821C132.52 270.081 132.1 269.311 131.36 269.101C130.62 268.891 129.85 269.311 129.63 270.051L129.64 270.041Z" fill="black"/>
<path d="M130.89 264.182C130.89 264.182 130.8 264.122 130.76 264.092C130.76 264.092 130.73 264.082 130.72 264.072C130.68 264.052 130.64 264.022 130.6 264.012C130.58 264.012 130.55 264.012 130.53 263.992C130.53 263.992 130.5 263.982 130.49 263.972C129.75 263.762 128.98 264.182 128.77 264.922C128.56 265.662 128.98 266.432 129.72 266.652H129.77C129.77 266.652 129.79 266.652 129.8 266.662C130.42 266.882 131 266.612 131.29 266.032C131.32 265.982 131.34 265.942 131.37 265.892C131.37 265.872 131.39 265.862 131.4 265.842V265.802C131.4 265.802 131.43 265.732 131.45 265.692C131.62 265.112 131.38 264.502 130.91 264.172H130.89V264.182Z" fill="black"/>
<path d="M99.6296 281.29L106.05 268.11L109 256.27L107.79 255.91L102.32 267.11L98.3296 280.91L99.6296 281.29Z" fill="black"/>
</g>
</svg>
