<svg width="499" height="444" viewBox="0 0 499 444" fill="none" xmlns="http://www.w3.org/2000/svg">
<g>
<path d="M468.58 313.98C478.9 304.37 487.09 293.17 492.94 280.7C497.62 270.71 499.57 260.22 498.73 249.51C498.51 246.7 497.81 244.07 496.72 241.7C496.09 232.14 492.08 223.08 484.76 214.67C480.37 209.63 474.96 206.17 469.07 204.55C469.83 202.33 470.26 199.94 470.26 197.46C470.26 186.66 462.37 177.66 452.06 175.93C450.67 173.44 448.8 171.25 446.58 169.48C446.3 166.51 446.01 163.53 445.72 160.52C447.55 158.84 449.29 157.18 451 155.54C452.91 153.71 454.72 151.98 456.51 150.38C462.74 144.8 467.21 137.64 469.8 129.1C472.61 119.83 471.55 110.65 466.81 103.25C462.16 95.98 454.51 91.27 445.27 89.98C442.55 89.6 439.84 89.27 437.15 88.96C437.09 88.41 437.03 87.84 436.95 87.28C436.51 83.91 435.68 81.09 435.02 78.82C434.83 78.18 434.64 77.54 434.48 76.9C433.99 74.97 433.51 73.04 433.03 71.11C431.87 66.45 430.67 61.63 429.27 56.76C425.94 45.18 415.6 37.64 402.91 37.56H402.66C396.89 37.56 389.69 39.19 384.09 45.72C379.67 43.34 375.25 41.01 370.94 38.74C368.66 37.54 366.37 36.33 364.09 35.12C363.13 34.61 362.17 34.08 361.21 33.55C356.65 31.03 351.12 27.97 344.32 26.16C343.96 25.98 343.57 25.81 343.15 25.63C342.63 25.41 342.1 25.19 341.58 24.96C339.55 24.09 337.24 23.11 334.62 22.23C332.07 21.38 329.56 20.6 327.14 19.85C323.71 18.79 320.47 17.78 317.42 16.67C311.08 14.36 304.88 13.11 299.42 12.01C298.34 11.79 297.26 11.58 296.19 11.35C293.36 10.76 290.5 10.37 287.71 10.2C286.33 10.12 284.7 10.02 282.95 10.02C281.98 10.02 280.43 10.02 278.49 10.22C274.05 6.94 268.68 4.79 262.65 3.98C255.84 3.07 249.07 2.41 242.53 1.78L241.31 1.66C239.5 1.49 237.83 1.4 236.21 1.4C232.75 1.4 229.63 1.81 226.83 2.51C223.15 0.87 219.12 0 214.96 0C210.51 0 206.15 1.03 202.18 2.95C199.02 1.63 195.56 0.91 191.94 0.91C186.97 0.91 182.1 2.29 177.85 4.91C167.65 11.18 162.3 21.74 163.55 33.14C163.6 33.57 163.67 33.99 163.74 34.42L162.78 34.55C162.1 34.65 161.2 34.77 160.81 34.81C159.1 34.67 157.35 34.6 155.58 34.6C148.35 34.6 141.71 35.75 135.85 36.76C133.91 37.1 132.07 37.41 130.3 37.68C127.67 38.07 125.2 38.82 122.94 39.88C120.33 38.95 117.62 38.45 114.91 38.45C109.91 38.45 105.1 40.07 101.1 43.06C99.8402 42.94 98.5602 42.88 97.2602 42.88C93.3902 42.88 89.8802 43.39 87.3202 43.76C82.9502 44.39 79.7702 46.09 78.2502 46.91L78.2002 46.94C73.4002 49.22 69.7002 53.32 67.9302 58.34C67.7402 58.87 67.5502 59.35 67.3702 59.81C66.6902 61.56 65.7602 63.96 65.1702 66.9C62.4702 80.36 71.6002 95.44 84.7102 99.18C85.7902 99.49 86.8702 99.75 87.9402 99.97C83.5102 101.42 79.3102 103.26 75.2702 105.53C73.4902 106.53 71.4602 107.53 69.3202 108.59C66.2102 110.12 62.6802 111.86 59.1502 114C52.5802 117.98 48.1802 122.6 45.2602 127.25C40.2402 128.86 34.9802 132.46 31.6702 137.81C27.9802 138.91 24.5902 140.94 21.7902 143.77C13.3502 152.28 11.8302 167.41 18.4002 177.5C21.6602 182.51 26.4802 186.05 31.9402 187.64C31.1102 188.51 30.3602 189.33 29.6902 190.07C28.9302 190.91 28.2002 191.71 27.6802 192.21C23.5102 196.19 20.4602 200.59 18.0102 204.12L17.4002 205C14.5202 209.14 12.0402 213.38 9.85019 217.11C8.91019 218.72 8.26019 220.3 7.82019 221.8C5.61019 225.7 4.37019 229.49 4.11019 233.16C2.86019 235.49 2.15019 237.73 1.76019 239.51C-0.819812 251.01 -0.569812 261.29 2.52019 270.94C4.41019 276.85 6.54019 283.15 9.89019 289.37C12.0802 293.45 14.6902 296.82 16.7802 299.54C17.8802 300.97 18.9202 302.31 19.6402 303.43C25.1402 311.92 32.2602 317.89 38.5002 322.6C48.2002 329.94 59.9402 338.26 73.4002 344.37C76.6502 345.85 79.7702 347.29 82.7902 348.71C81.2502 355.62 79.6602 362.59 78.1102 369.37C77.3102 372.9 76.5002 376.43 75.7002 379.95C75.3402 381.54 74.9902 383.13 74.6302 384.72C74.3902 385.8 74.1502 386.86 73.9202 387.92C69.6602 390.74 66.5802 395.13 65.4402 400.24C63.9402 406.98 66.0202 414.02 70.9402 418.86L71.6802 419.59C72.5602 420.46 73.4302 421.32 74.3502 422.18C78.3602 425.9 83.5102 427.95 88.8502 427.95C89.5002 427.95 90.2002 427.92 90.8402 427.85C95.7002 427.38 100.56 426.87 105.43 426.36L106.13 426.29C107.22 426.18 110.53 425.84 114.22 423.9C120.95 420.34 125.28 414.14 126.09 406.9C126.41 404.09 126.17 401.31 125.42 398.67C130.3 389.07 135.31 379.24 140.22 369.5C141.82 369.64 143.39 369.8 144.92 370C146.19 370.16 147.98 370.62 149.87 371.1C151.98 371.64 154.36 372.24 157 372.71C163.04 373.79 169.12 374.76 175.07 375.68C175.49 376.38 175.91 377.06 176.32 377.75C176.32 378.13 176.35 378.51 176.38 378.9C176.97 386.45 181.56 393.09 188.67 396.67C193.26 398.98 198.18 400.1 203.71 400.1C206.14 400.1 208.27 399.88 209.99 399.71C210.81 399.63 211.82 399.52 212.21 399.52C212.48 399.53 212.8 399.54 213.07 399.54C221.35 399.54 229.09 394.85 232.78 387.6C233.74 385.72 234.39 383.75 234.75 381.74C235.09 381.74 235.45 381.76 235.8 381.76C240.01 381.8 244.22 381.82 248.43 381.82C250.3 381.82 252.15 381.82 253.97 381.81C254.91 382.97 255.82 384.08 256.7 385.14L256.9 385.38C259.66 388.72 262.45 392.04 265.24 395.36C268.09 398.76 270.94 402.15 273.76 405.57L275.61 407.81C280.68 413.94 285.47 419.73 290.13 425.72C290.51 426.21 290.89 426.67 291.25 427.08C293.63 434.27 299.83 439.24 305.86 441.16C310.37 442.6 315.05 443.3 320.16 443.3C325.27 443.3 330.17 442.56 334.35 441.9L335.21 441.77C340.41 440.95 344.95 438.3 348.71 433.87C352.15 430.21 354.09 425.38 354.13 420.33C354.15 418.43 353.89 416.56 353.38 414.76C353.88 413.51 354.39 412.2 354.93 410.81C356.77 406.09 358.6 401.38 360.44 396.66C363.14 400.77 367.33 404.11 371.93 405.69C377.27 407.52 382.79 408.45 388.35 408.45C392.68 408.45 397.06 407.88 401.37 406.77C407.3 405.23 410.9 401.56 412.34 400C414.48 397.91 416.1 395.37 417.11 392.61C417.39 392.87 417.64 393.11 417.88 393.32C424.07 399.07 432.98 407.24 440.24 413.54C450.93 422.83 456.45 427.29 464.87 427.29C470.3 427.29 475.39 425.18 479.2 421.34C482.42 418.1 485.2 414.23 487.25 410.15C489.79 405.07 490.82 399.75 490.29 394.76C492.34 389.43 492.43 383.52 490.35 378.09C488.07 372.11 483.45 367.44 477.62 364.92C476.89 363.3 476 361.83 475 360.53C472.34 357.04 468.75 354.44 464.44 352.81C463.84 351.55 463.07 350.28 462.11 349.03C460.06 346.37 457.43 344.24 454.4 342.73C453.53 340.4 452.35 338.49 451.14 336.98C449.74 335.23 448.07 333.7 446.19 332.43C454.61 327.06 461.57 320.56 467.8 314.76L468.62 314L468.58 313.98ZM314.92 380.67C314.84 380.58 312.8 378.09 311.86 376.94C313.46 376.74 315.07 376.52 316.69 376.29C316.1 377.75 315.51 379.21 314.92 380.66V380.67Z" fill="#FFFFB4"/>
<path d="M402.29 332.358C406.17 330.618 410.19 329.138 413.98 327.218C420.33 323.998 426.62 320.648 432.8 317.108C441.1 312.358 448 305.798 454.94 299.328C463.28 291.558 469.99 282.488 474.82 272.188C477.92 265.578 479.36 258.448 478.78 251.048C478.74 250.578 478.46 249.728 478.26 249.718C475.97 249.638 476.54 247.918 476.66 246.748C477.46 239.248 474.35 233.158 469.65 227.778C467.1 224.848 463.63 222.938 459.66 223.588C455.57 224.268 453.29 227.198 451.9 231.158C448.18 241.718 449.55 251.708 454.68 261.378C457.01 265.778 463.05 268.408 466.78 266.848C469.01 265.918 470.07 266.668 469.95 269.098C469.95 269.188 469.97 269.288 469.95 269.368C469.78 269.818 469.6 270.258 469.43 270.708C469.1 270.398 468.79 270.048 468.43 269.778C467.91 269.378 467.3 268.678 466.84 268.748C466.37 268.828 465.66 269.698 465.68 270.208C465.77 272.408 464.26 271.918 463.1 271.818C456.3 271.258 449.59 269.798 442.68 270.168C438.47 270.388 434.23 269.808 430 269.718C419.88 269.488 409.76 269.338 399.64 269.158C388.34 268.968 377.04 268.728 365.74 268.628C340.71 268.408 315.69 268.128 290.66 268.108C270.8 268.098 250.94 268.398 231.08 268.628C224.22 268.708 217.37 268.978 210.51 269.158C203.56 269.338 196.62 269.548 189.67 269.698C179.46 269.908 169.25 270.078 159.04 270.248C147.11 270.438 135.18 270.618 123.25 270.798C120.96 270.828 118.68 270.868 116.39 270.878C114.65 270.878 112.9 270.738 111.16 270.858C106.78 271.148 102.41 271.668 98.0298 271.858C94.0498 272.028 90.0498 271.828 86.0698 271.928C84.4198 271.968 82.5898 272.958 81.1498 272.518C75.7898 270.888 70.4398 271.838 65.0798 271.908C64.4398 271.908 63.6198 271.178 63.1998 270.568C62.6598 269.788 62.5898 268.648 61.9998 267.918C61.5898 267.408 60.5598 266.988 59.9598 267.138C59.4398 267.278 58.9098 268.228 58.7898 268.888C58.6798 269.518 59.0898 270.238 59.2698 270.918C59.3798 271.328 59.4898 271.728 59.5998 272.138C59.2498 271.878 58.8698 271.658 58.5598 271.368C57.6198 270.478 56.7098 269.568 55.7898 268.658C54.1798 270.298 52.9298 268.518 51.5198 268.228C50.4898 268.008 49.7698 267.908 50.7898 266.618C51.5098 265.708 51.8098 264.068 50.0598 264.128C47.3598 264.218 47.2698 263.188 48.1598 261.208C48.3398 260.808 48.4698 260.368 48.5098 259.928C48.8998 255.518 49.0098 251.078 49.6898 246.718C50.6598 240.498 49.0098 234.958 45.4198 230.148C43.2898 227.298 40.0398 225.138 36.0698 226.808C33.8198 227.748 31.8198 229.288 29.6898 230.518C29.0898 230.858 28.4098 231.178 27.7498 231.248C26.9898 231.328 25.6698 230.818 25.4998 231.098C24.7998 232.288 23.6698 234.068 24.0998 234.918C25.6798 238.018 24.1898 239.888 22.2398 241.868C21.7198 242.398 21.3698 243.198 21.1998 243.928C19.6298 250.938 19.2798 257.998 21.4898 264.888C23.1298 270.018 24.8798 275.218 27.4198 279.938C29.8498 284.448 33.5398 288.258 36.3398 292.588C40.0598 298.328 45.2098 302.698 50.4798 306.688C60.2498 314.078 70.3398 321.098 81.5898 326.198C88.1098 329.158 94.5998 332.208 101.02 335.378C103.05 336.378 107 336.498 104.42 340.628C104.38 340.698 104.42 340.808 104.42 340.898C103.95 343.878 103.62 346.898 102.97 349.838C100.42 361.378 97.7598 372.888 95.1398 384.418C93.8598 390.048 92.6598 395.698 91.2598 401.308C91.0598 402.098 91.4398 404.028 89.0498 403.308C87.8998 402.958 86.2898 404.148 84.8898 404.638C85.8798 405.608 86.8598 406.608 87.8798 407.548C88.1298 407.778 88.5298 408.008 88.8298 407.978C93.8898 407.488 98.9398 406.948 104 406.428C104.27 406.398 104.56 406.378 104.79 406.248C106.47 405.358 106.6 404.088 105.16 402.838C102.9 400.888 102.54 398.498 104.12 395.778C104.52 395.088 105.06 394.468 105.42 393.748C111.21 382.368 117 370.998 122.75 359.598C124.28 356.568 125.58 353.428 127.13 350.428C127.5 349.708 128.51 348.788 129.19 348.818C135.28 349.138 141.39 349.398 147.43 350.178C151.82 350.748 156.07 352.258 160.44 353.038C168.42 354.458 176.43 355.688 184.44 356.918C186.59 357.248 188 358.288 189.08 360.188C191.59 364.588 194.3 368.888 196.9 373.238C197.54 374.318 198.4 375.288 196.72 376.488C195.93 377.058 196.1 378.058 197.59 378.808C202.66 381.358 207.84 379.338 212.95 379.548C213.93 379.588 215.83 378.638 214.67 377.038C213.57 375.528 214.4 374.798 215.15 373.828C218 370.158 220.78 366.438 223.75 362.868C224.43 362.048 225.74 361.328 226.78 361.318C229.83 361.268 232.88 361.728 235.93 361.758C244.45 361.828 252.97 361.838 261.49 361.738C263.4 361.718 264.45 362.358 265.52 363.948C267.57 366.978 269.92 369.798 272.26 372.618C277.85 379.378 283.54 386.058 289.13 392.818C294.77 399.638 300.44 406.438 305.87 413.428C307.55 415.588 310.42 417.158 310.2 420.598C310.17 421.068 311.22 421.878 311.9 422.098C318.62 424.238 325.37 423.038 332.08 421.998C332.83 421.878 333.43 420.798 334.09 420.168C333.49 419.578 332.98 418.668 332.26 418.468C330.59 417.998 330.67 417.258 331.25 415.918C332.99 411.828 334.65 407.698 336.26 403.548C338.82 396.998 341.36 390.448 343.9 383.888C345.17 380.608 346.44 377.328 347.71 374.048C348.3 372.528 348.88 371.008 349.47 369.488C349.52 369.368 349.56 369.248 349.61 369.128C349.75 368.758 349.92 368.398 350.04 368.018C350.06 367.958 350.07 367.908 350.07 367.848C350.07 367.728 350.06 367.628 350.07 367.508C350.13 367.128 350.27 366.768 350.42 366.418C350.65 365.868 350.88 365.318 351.13 364.778C351.27 364.468 351.4 364.158 351.5 363.828C351.6 363.508 351.74 363.198 351.81 362.868C351.91 362.398 352.05 361.918 352.25 361.478C352.4 361.138 352.6 360.798 352.71 360.448V360.368C352.74 360.268 352.81 360.178 352.85 360.078C352.88 360.008 352.9 359.968 352.93 359.908C352.96 359.858 352.97 359.798 352.99 359.748C353.02 359.678 353.09 359.618 353.13 359.548C353.18 359.438 353.21 359.298 353.26 359.188C353.33 359.038 353.38 358.908 353.44 358.758C353.5 358.598 353.55 358.418 353.61 358.258C353.63 358.218 353.66 358.178 353.68 358.138C353.7 358.078 353.7 358.008 353.73 357.948C353.76 357.878 353.8 357.828 353.82 357.758C354.51 355.558 355.47 353.438 356.45 351.338C356.73 350.728 357.44 349.938 357.97 349.928C358.69 349.928 359.68 350.398 360.09 350.988C366.67 360.628 373.19 370.298 379.68 379.998C380.68 381.498 381.48 382.998 378.62 383.538C377.98 383.658 377.38 384.728 377.08 385.478C376.99 385.708 377.85 386.588 378.41 386.778C384.31 388.808 390.31 388.968 396.32 387.408C397.07 387.208 397.64 386.298 398.3 385.718C397.69 385.108 397.17 384.138 396.45 383.948C394.41 383.428 393.89 382.318 393.91 380.268C394.02 369.118 393.94 357.968 394.01 346.818C394.01 345.918 394.65 345.028 395 344.128C395.88 344.658 396.8 345.138 397.63 345.738C397.96 345.978 398.04 346.528 398.32 346.858C401.84 351.118 463.04 409.188 464.98 407.238C466.72 405.488 468.23 403.388 469.34 401.188C470.11 399.648 470.8 397.308 470.15 395.988C468.83 393.298 468.55 391.418 470.71 388.998C473.02 386.408 471.61 383.268 468.16 382.878C465.04 382.528 461.89 382.518 458.75 382.298C458.02 382.248 456.7 381.948 456.69 381.738C456.67 380.738 456.94 379.698 457.25 378.728C457.37 378.348 457.91 378.118 458.17 377.748C459.28 376.188 460.31 374.278 459.08 372.668C458.29 371.638 456.42 371.158 454.96 370.978C452.73 370.698 450.43 371.008 448.17 370.868C443.11 370.548 443.11 370.498 445.68 365.908C445.86 365.598 446.14 365.288 446.17 364.958C446.28 363.678 446.82 361.998 446.22 361.218C445.58 360.388 443.82 360.068 442.57 360.118C440.46 360.208 438.38 360.888 436.26 361.058C435.22 361.138 433.52 360.958 433.21 360.338C432.7 359.338 432.82 357.808 433.17 356.648C433.51 355.498 434.7 354.618 435.08 353.468C435.51 352.168 436.08 350.218 435.47 349.448C434.72 348.508 432.73 348.028 431.4 348.208C428.7 348.578 426.1 349.588 423.43 350.208C422.47 350.428 421.44 350.288 420.43 350.318C420.43 349.198 420.11 347.968 420.49 346.988C421.16 345.258 422.3 343.718 423.14 342.048C424.79 338.748 423.79 337.218 420.01 337.188C416.75 337.158 413.48 337.198 410.22 337.168C409.52 337.168 408.78 337.098 408.12 336.888C406.31 336.308 404.51 335.688 402.76 334.968C402.12 334.708 401.62 334.118 401.06 333.668C401.47 333.228 401.8 332.598 402.31 332.378L402.29 332.358ZM467.79 262.078C467.11 261.258 466 260.518 465.84 259.608C465.38 257.018 465.3 254.358 465.08 251.728C465.19 251.728 465.29 251.708 465.4 251.698C465.16 249.248 464.77 246.808 464.71 244.358C464.64 241.648 465.92 240.418 468.32 240.468C471.07 240.528 472.06 241.608 472.17 244.438C472.25 246.308 472.72 248.178 472.62 250.028C472.55 251.218 471.74 252.368 471.28 253.548C471 254.268 470.63 254.988 470.55 255.728C470.43 256.978 470.86 258.408 470.4 259.478C469.96 260.518 468.7 261.218 467.79 262.068V262.078ZM34.2098 254.388C34.5598 255.688 34.6798 257.208 34.3598 258.508C33.7298 261.078 35.2298 262.748 36.3598 264.648C36.6598 265.158 36.8098 265.768 37.0398 266.328C36.4098 266.368 35.7798 266.468 35.1498 266.438C32.9298 266.318 29.1298 263.498 28.5598 261.298C27.6798 257.878 27.0198 254.398 26.1298 250.288C27.0398 247.138 27.6398 243.488 29.1898 240.298C30.0798 238.468 32.4098 237.258 34.2398 235.988C35.9698 234.778 37.2498 236.038 37.3498 237.528C37.5798 240.998 38.8998 244.598 36.7498 247.948C36.4198 248.468 36.1498 249.198 35.6598 249.418C33.1598 250.558 33.6598 252.348 34.2198 254.398H34.2098V254.388ZM42.4298 263.988C41.9598 264.498 41.3398 264.858 40.7898 265.288C40.6398 264.688 40.3998 264.098 40.3698 263.488C40.1598 259.998 39.9298 256.508 39.8998 253.008C39.8998 252.278 40.5798 251.388 41.1998 250.848C42.0298 250.128 42.5098 250.628 42.6498 251.628C42.6498 251.708 43.6098 251.578 44.0998 251.678C44.7298 251.808 45.3298 252.088 45.3698 252.098C45.7898 257.018 45.3198 260.868 42.4398 263.978H42.4298V263.988ZM72.7998 275.598C72.7998 275.598 72.7598 275.478 72.7498 275.418C72.8298 275.388 72.8998 275.368 72.9798 275.338C72.9998 275.438 73.0198 275.538 73.0498 275.638C72.9698 275.628 72.8698 275.638 72.8098 275.588H72.7998V275.598ZM454.93 275.988C455.4 275.478 456.03 275.078 456.66 274.778C456.88 274.668 457.29 274.948 457.82 275.108C456.93 275.988 456.28 276.638 455.63 277.278C455.38 276.828 454.82 276.108 454.93 275.988ZM102.42 304.278C97.6898 302.948 92.7198 301.988 89.3598 297.958C87.6798 295.938 86.4198 293.578 84.9498 291.398C84.0598 290.068 83.0198 288.828 82.2498 287.438C81.9598 286.898 82.2498 286.048 82.2898 285.328C83.0898 285.488 84.1198 285.378 84.6598 285.838C87.2098 288.008 89.6798 290.288 92.0898 292.618C93.1798 293.668 93.9698 295.038 95.0798 296.058C97.6598 298.408 100.36 300.638 103.02 302.898C103.26 303.098 103.59 303.208 104.46 303.678C103.4 304.008 102.84 304.398 102.42 304.288V304.278ZM119.59 350.398C116.02 357.258 112.39 364.078 108.79 370.918C108.38 371.708 108.12 372.598 107.6 373.308C107.07 374.028 106.31 374.568 105.65 375.178C105.4 374.388 105.14 373.608 104.93 372.948C105.91 368.588 106.89 364.448 107.74 360.288C108.57 356.208 109.26 352.098 110.02 347.998C110.33 346.318 110.69 345.008 113.04 345.938C114.82 346.648 116.85 346.708 118.75 347.118C121.13 347.638 120.24 349.168 119.6 350.408L119.59 350.398ZM216.98 362.458C214.06 366.378 211.16 370.328 208.06 374.108C206.57 375.928 204.87 375.738 203.64 373.848C200.84 369.528 198.11 365.168 195.38 360.798C195.13 360.388 194.86 359.578 195.04 359.398C195.49 358.958 196.19 358.778 196.79 358.498C196.81 358.698 196.83 358.888 196.85 359.088C203.39 359.798 209.92 360.498 216.45 361.278C216.68 361.308 217.11 362.268 216.97 362.448L216.98 362.458ZM347.7 353.648C344.04 362.628 340.24 371.548 336.57 380.518C331.86 392.038 327.29 403.608 322.46 415.078C322.04 416.078 320.18 416.848 318.91 416.988C317.96 417.098 316.53 416.268 315.92 415.428C313.93 412.648 312.45 409.488 310.35 406.808C304.91 399.878 299.24 393.128 293.68 386.298C292.14 384.408 290.75 382.408 289.26 380.468C288.55 379.538 287.82 378.618 287.04 377.748C286.41 377.028 285.75 376.228 284.98 375.648C284.68 375.418 284.52 375.308 284.36 374.958C284.15 374.498 283.94 374.038 283.63 373.638C283.42 373.368 283.09 373.188 282.81 372.988C282.28 372.588 281.79 372.118 281.4 371.588C280.99 371.028 280.55 370.488 280.16 369.908C279.88 369.488 279.58 369.118 279.26 368.708C278.99 368.368 278.65 368.068 278.4 367.728C278.13 367.368 277.91 366.968 277.66 366.588C277.63 366.548 277.6 366.498 277.58 366.458C277.31 366.018 277.05 365.508 276.71 365.128C276.11 364.478 275.63 363.738 275.12 363.018C275 362.838 274.78 362.658 274.69 362.468C274.64 362.368 274.63 362.248 274.59 362.148C274.55 362.058 274.47 361.948 274.45 361.858C274.41 361.708 274.47 361.548 274.53 361.418C274.65 361.178 274.69 361.288 274.89 361.208C275 361.158 275.02 361.058 275.12 360.978C275.23 360.888 275.5 360.828 275.64 360.798C276.01 360.708 276.4 360.728 276.78 360.748C277.14 360.768 277.43 360.728 277.78 360.678C278.66 360.568 279.55 360.478 280.43 360.388C282.2 360.198 283.97 360.008 285.74 359.818C289.28 359.448 292.82 359.068 296.35 358.658C296.69 358.618 297.02 358.578 297.36 358.538C304.53 357.688 311.73 356.928 318.85 355.748C327.7 354.288 336.49 352.418 345.32 350.778C346.11 350.628 347.54 350.588 347.68 350.918C348.02 351.698 348.04 352.858 347.71 353.668V353.648H347.7ZM386.79 365.608C386.75 368.738 387.17 371.878 387.24 375.008C387.26 375.778 386.69 376.558 386.39 377.328C385.63 376.898 384.59 376.648 384.14 375.998C378.14 367.498 372.18 358.948 366.29 350.368C365.27 348.878 365.09 347.738 367.71 347.518C373.38 347.028 379.02 346.168 384.67 345.448C386.68 345.188 387.46 346.018 387.32 348.058C387.18 350.038 387.29 352.038 387.29 354.028C387.35 354.028 387.4 354.028 387.46 354.038C387.22 357.888 386.84 361.748 386.79 365.608ZM400.46 291.748C397.82 290.888 394.69 291.728 392.39 289.458C392.29 289.358 390.99 290.348 390.37 290.948C389.91 291.378 389.64 292.008 389.29 292.548C388.47 291.868 386.35 292.718 386.81 290.428C386.86 290.178 385.59 289.428 385.57 289.448C383.73 291.658 381.14 290.958 378.81 291.268C378.19 291.348 377.53 291.478 376.99 291.768C376.02 292.298 375.43 292.498 374.34 291.588C372.74 290.258 370.88 290.848 369.31 292.158C368.95 292.458 368.51 292.668 368.11 292.918C368.18 292.508 368.34 292.098 368.31 291.698C368.26 290.928 368.28 289.608 367.95 289.498C366.95 289.168 365.74 289.078 364.71 289.318C363.62 289.568 362.73 290.928 361.48 289.478C361.32 289.288 360.18 289.718 359.66 290.088C357.02 291.988 356.09 291.928 353.75 289.698C353.28 289.248 352.54 289.098 351.92 288.798C351.07 291.078 348.5 290.448 347.2 291.568C346.02 292.578 345.69 292.038 345.21 291.408C343.94 289.768 342.94 289.008 341.11 291.018C339.54 292.748 334.83 292.448 333.27 290.638C332.24 289.448 331.72 289.918 331.36 290.828C330.4 293.288 328.87 293.808 326.32 293.228C325.24 292.988 323.6 293.888 322.65 294.748C320.96 296.268 319.48 296.348 317.79 294.998C317.65 294.888 317.5 294.618 317.4 294.648C314.97 295.188 313.26 293.728 311.37 292.648C311.18 292.538 309.92 293.568 309.85 294.148C309.53 296.778 309.3 296.948 306.9 295.588C306.6 295.418 306.24 295.328 305.9 295.278C304.42 295.088 304.58 294.608 305.46 293.678C305.9 293.218 305.93 292.368 306.15 291.698C305.42 291.928 304.43 291.928 304.03 292.428C303.2 293.448 303.2 293.868 301.9 292.528C300.77 291.358 298.33 291.458 296.47 290.998C296.45 291.598 296.27 292.248 296.44 292.788C296.59 293.258 297.34 293.578 297.42 294.028C297.51 294.568 297.22 295.198 296.98 295.738C296.92 295.868 296.16 295.888 296.13 295.798C295.1 293.038 292.95 294.768 291.29 294.558C288.71 294.218 286.12 293.928 283.59 293.358C281.82 292.958 280.76 293.038 280.68 295.168C280.67 295.558 280.21 295.928 279.95 296.308C279.71 295.998 279.31 295.718 279.26 295.378C278.86 293.018 277.19 293.348 275.63 293.678C274.89 293.838 274.23 294.388 273.54 294.778C273.01 295.078 272.49 295.388 271.97 295.698C272.03 295.138 272.25 294.538 272.12 294.028C271.89 293.168 271.44 292.358 271.08 291.528C270.34 291.978 269.23 292.268 268.93 292.918C268.16 294.608 267.27 293.888 266.94 292.978C265.65 289.428 262.58 290.188 259.96 289.928C259.68 289.898 259.05 290.868 259.03 291.388C258.96 293.298 258.08 294.708 256.22 294.618C254.76 294.548 252.37 295.048 252.49 292.128C252.51 291.748 251.74 291.238 251.24 290.978C250.88 290.788 250.09 291.058 249.94 290.828C247.95 287.848 247.34 289.808 246.58 291.678C245.92 293.288 244.99 292.488 244.39 291.678C237.54 282.428 227.68 279.008 216.93 276.618C207.57 274.538 198.19 274.338 188.78 274.678C180.48 274.978 172.27 276.618 164.6 279.798C161.29 281.168 158.64 284.098 155.65 286.288C154.87 286.858 153.99 287.328 153.12 287.778C151.92 288.398 150.88 288.698 150.8 286.678C150.8 286.298 149.99 285.938 149.55 285.578C148.2 287.428 147.35 285.438 146.3 285.328C144.29 285.108 143.54 284.738 143.54 282.648C143.54 282.328 141.37 281.738 140.21 281.758C139.4 281.778 138.6 282.618 137.79 283.088C138.29 283.758 138.81 284.408 139.29 285.098C139.65 285.618 139.96 286.178 140.3 286.728C139.72 286.808 139.14 286.948 138.56 286.948C138.23 286.948 137.89 286.568 137.57 286.588C135.57 286.748 136.45 281.778 132.75 284.138C131.61 284.868 128.72 282.878 126.64 282.108C124.47 281.308 122.34 280.388 120.15 279.668C118.04 278.978 115.9 278.358 113.73 277.908C111.29 277.408 108.82 276.928 106.35 276.808C100.04 276.508 93.7298 276.408 87.4198 276.208C87.0798 276.198 86.7498 275.998 86.4098 275.878C86.6898 275.688 86.9598 275.378 87.2698 275.318C87.7998 275.218 88.3498 275.268 88.8998 275.268C93.7598 275.268 143.1 274.378 155.39 274.168C163.88 274.028 172.36 273.808 180.85 273.638C190.42 273.448 200 273.278 209.57 273.088C217.78 272.918 226 272.648 234.21 272.568C257.47 272.338 280.73 272.138 303.99 272.038C310.84 272.008 317.7 272.448 324.56 272.518C327.79 272.548 331.02 272.018 334.25 272.038C346.82 272.138 359.38 272.348 371.95 272.558C379.98 272.698 388.02 272.958 396.05 273.078C410.34 273.298 424.62 273.428 438.91 273.648C442.5 273.708 446.13 273.788 449.67 274.318C450.59 274.458 451.29 276.338 451.95 277.498C452 277.598 450.98 278.288 450.47 278.728C450.1 279.048 449.47 279.388 449.45 279.738C449.29 282.228 447.59 282.068 445.79 282.258C444.4 282.408 442.97 282.998 441.73 283.698C440.66 284.298 440 285.118 439.27 283.308C439.04 282.728 437.78 282.218 437.06 282.288C436.41 282.358 435.46 283.178 435.32 283.818C434.65 286.958 433.46 287.138 431.16 285.058C430.16 284.158 428.62 283.808 427.27 283.378C426.78 283.218 425.64 283.518 425.62 283.688C425.43 285.458 423.97 286.178 423.08 287.368C421.75 289.138 420.77 288.698 419.03 288.628C415.44 288.478 411.81 289.018 408.22 289.508C407.05 289.668 406.32 290.168 405.77 288.568C405.59 288.038 403.93 287.758 403 287.858C402.63 287.898 401.98 289.448 402.2 290.028C402.98 292.108 402.21 292.268 400.53 291.728L400.46 291.748Z" fill="black"/>
<path d="M228.6 219.99C219.04 214.31 208.3 212.95 197.54 212.14C189.56 211.54 181.63 212.84 173.9 214.82C164.06 217.34 154.68 220.729 147.99 229.119C144.61 233.349 143.73 238.04 145.24 242.92C147.77 251.13 154.46 255.319 161.89 258.399C171.37 262.329 181.37 263.439 191.54 263.369C191.59 263.619 191.63 263.859 191.68 264.109C197.93 263.129 204.2 262.299 210.41 261.119C220.11 259.27 228.7 254.97 235.5 247.8C239.08 244.02 241.5 239.48 240.1 233.71C238.51 227.15 234.03 223.2 228.61 219.99H228.6ZM166.94 224.78C167.3 225.08 167.66 225.38 168.02 225.69C168.36 225.88 168.7 226.07 169.03 226.25C168.54 226.58 168.09 227.009 167.56 227.199C167.34 227.279 166.69 226.84 166.68 226.61C166.64 226.01 166.84 225.39 166.95 224.78H166.94ZM169.93 257.149C167.4 256.289 164.99 255.48 162.61 254.63C162.24 254.5 161.94 254.149 161.6 253.899C162.05 253.779 162.55 253.45 162.93 253.56C165.37 254.29 167.79 255.09 170.2 255.92C170.51 256.03 170.72 256.419 170.97 256.679C170.62 256.829 170.27 256.99 169.93 257.14V257.149ZM192.21 226.71C191.72 226.4 190.68 226.77 189.98 227.05C189.16 227.37 188.49 228.09 187.66 228.32C187.11 228.47 186.41 228.069 185.77 227.92C186.31 227.75 186.97 227.72 187.37 227.39C187.96 226.9 188.6 226.239 188.77 225.539C188.86 225.169 188.01 224.57 187.59 224.07C187.06 224.56 186.33 224.95 186.04 225.559C185.27 227.129 182.97 227.759 181.74 226.589C179.97 224.909 178.86 225.18 176.77 227.61C176.28 228.18 175.47 228.46 174.8 228.88C174.74 228.3 174.74 227.7 174.59 227.14C174.5 226.8 174.17 226.54 173.98 226.22C173.91 226.1 173.87 225.86 173.93 225.8C174.15 225.57 174.67 225.359 174.65 225.199C174.04 220.639 177.94 221.459 180.14 221.039C183.73 220.349 187.47 220.47 192.59 220.17C195.34 220.62 199.45 221.29 203.56 221.99C203.95 222.06 204.3 222.37 204.67 222.57C204.3 222.53 203.92 222.46 203.55 222.44C203.1 222.42 202.52 222.28 202.22 222.49C200.6 223.65 198.9 224.75 197.51 226.16C195.73 227.96 194.45 228.14 192.2 226.72H192.21V226.71ZM215.71 255.119C209.96 257.68 203.82 258.53 197.66 259.25C197.39 259.28 197.08 258.959 196.78 258.799C197.02 258.499 197.2 258.02 197.5 257.92C200.84 256.79 204.15 255.49 207.58 254.7C210.08 254.13 212.73 254.23 215.32 254.1C215.78 254.08 216.26 254.37 217.16 254.66C216.37 254.91 216.03 254.979 215.71 255.119ZM227.83 229.259C227.08 228.819 226.59 228.54 226.11 228.25C226.56 227.97 227 227.5 227.47 227.47C227.95 227.44 228.45 227.84 228.95 228.05C228.62 228.41 228.28 228.779 227.84 229.259H227.83Z" fill="black"/>
<path d="M277.15 256.009C287.56 261.179 298.85 262.869 310.43 263.019C313.47 262.759 316.51 262.489 319.55 262.249C328.62 261.549 337.21 259.369 345.21 254.809C350.97 251.519 354.84 246.929 356.79 240.689C357.2 239.389 357.41 237.869 357.16 236.549C355.52 227.889 349.41 222.899 342.14 219.159C331.45 213.659 319.78 211.859 307.97 211.659C301.78 211.559 295.51 212.639 289.38 213.769C280.31 215.439 271.73 218.419 265.53 225.879C262.4 229.649 260.51 233.959 261.45 238.889C263.13 247.729 269.87 252.389 277.14 256.009H277.15ZM292.78 257.149C292.23 257.149 291.68 256.749 291.13 256.529C291.65 256.179 292.18 255.829 292.92 255.339C293.45 255.809 293.84 256.149 294.22 256.489C293.74 256.729 293.26 257.149 292.78 257.149ZM312.48 224.389L312.58 224.239L312.64 224.399L312.49 224.379H312.48V224.389ZM342.15 251.949C340.16 252.999 338.13 253.989 336.1 254.979C333.61 254.809 333.6 253.849 333.73 251.849C333.93 248.479 335.09 248.229 337.75 249.609C338.98 250.249 340.47 250.369 341.8 250.849C342.03 250.929 342.22 251.919 342.16 251.949H342.15ZM274.17 224.969C277.92 222.419 281.97 220.869 286.48 220.259C288.99 219.919 291.37 218.669 293.88 218.219C296.69 217.709 299.59 217.639 302.45 217.389C302.49 217.269 302.54 217.139 302.58 217.019C308.53 218.049 314.45 219.449 320.45 219.999C325.26 220.439 329.72 221.609 334.03 223.609C335.14 224.129 336.19 224.799 337.19 225.509C337.77 225.919 338.19 226.549 338.69 227.079C337.9 227.139 337.09 227.339 336.32 227.219C334.69 226.969 333.07 226.599 331.48 226.159C331.03 226.029 330.51 225.529 330.35 225.079C329.71 223.289 328.67 223.009 327.12 224.139C326.42 224.649 325.23 225.299 324.67 225.029C322.21 223.849 319.72 224.889 317.28 224.569C316.75 224.499 315.83 224.569 315.75 224.339C314.8 221.529 312.1 222.109 310.11 221.409C309.51 221.199 308.35 221.429 308.01 221.889C307.44 222.639 307.38 223.709 308.87 223.829C308.75 224.419 308.77 225.429 308.48 225.529C306.99 226.059 305.43 226.439 303.86 226.679C303.29 226.769 302.64 226.329 302.03 226.119C301.81 226.049 301.44 225.819 301.4 225.869C299.62 228.159 295.78 229.379 293.16 228.319C292.06 227.879 291.32 227.329 290.77 229.079C290.6 229.619 288.92 229.839 287.9 229.949C286.46 230.099 284.93 229.759 283.55 230.069C281.08 230.629 275.52 229.089 273.88 227.229C273.04 226.279 272.95 225.779 274.15 224.959H274.17V224.969Z" fill="black"/>
<path d="M401.79 215.9C394.75 216.24 388.33 218.49 382.41 222.54C376.9 226.31 374.97 231.85 374.36 237.81C373.78 243.51 376.6 248.45 380.55 252.4C388.83 260.69 399.6 263.05 410.81 264.58C412.24 264.35 413.73 264.14 415.22 263.87C423.36 262.44 431.01 260.07 436.15 252.9C441.68 245.2 443.05 236.09 435.66 228.51C426.35 218.96 414.82 215.27 401.78 215.9H401.79ZM425.84 230.71C427.12 231.97 428.39 233.23 429.67 234.49C429.27 234.9 428.87 235.3 428.13 236.04C426.66 235.1 425.3 234.42 424.27 233.4C424.08 233.22 425.28 231.64 425.83 230.71H425.84ZM418.74 227.5C419.76 227.73 420.78 228.08 421.7 228.58C422.42 228.97 422.98 229.64 423.61 230.19C422.81 230.46 422.01 230.72 420.83 231.12C419.86 230.26 418.71 229.25 417.57 228.24C417.96 227.98 418.42 227.44 418.74 227.51V227.5ZM413.89 258.48C415.58 256.66 417.28 254.85 418.96 253.02C419.2 252.76 419.28 252.29 419.55 252.15C424.15 249.83 428.75 247.53 433.4 245.33C433.68 245.2 434.41 246.04 434.75 246.29C434.42 250.26 431.69 251.95 429.48 253.74C425.12 257.26 420 259.27 414.39 259.89C413.91 259.94 413.41 259.74 412.91 259.66C413.24 259.27 413.54 258.86 413.89 258.48Z" fill="black"/>
<path d="M60.2498 246.738C60.8398 252.108 63.5898 256.158 67.2298 259.238C74.0598 265.018 82.4998 266.988 91.4598 267.598C95.0298 266.908 98.6298 266.318 102.18 265.488C112.21 263.158 120.2 257.948 124.97 248.558C128.62 241.368 126.79 232.398 120.84 226.988C114.59 221.318 107 218.968 98.8298 218.648C89.6598 218.278 80.8998 220.308 72.8598 224.888C64.8398 229.448 59.0998 236.218 60.2498 246.738ZM79.0498 256.068C80.7498 254.408 83.0598 253.098 85.3298 252.358C94.0798 249.528 102.57 250.208 110.49 255.188C112.64 256.538 112.55 257.148 110.26 258.328C104.02 261.548 98.9098 262.638 90.0398 262.878C87.0898 262.618 84.1398 262.448 81.2098 262.068C77.7398 261.618 76.5098 258.538 79.0498 256.068Z" fill="black"/>
<path d="M27.94 229.76C28.43 229.43 29 229.17 29.39 228.75C32.04 225.81 34.65 222.85 37.26 219.88C37.61 219.49 37.95 219.06 38.16 218.58C39.55 215.52 40.47 212.37 43.24 209.91C46.85 206.7 49.81 202.76 53.11 199.18C53.58 198.67 54.33 198.41 54.96 198.05C55.63 197.66 56.76 197.41 56.91 196.88C57.54 194.66 59.59 194.37 61.13 193.37C64.62 191.11 68.14 188.88 71.54 186.49C72.09 186.1 72.11 184.97 72.38 184.19C71.64 184.16 70.73 183.83 70.19 184.15C68.03 185.38 66 186.83 63.9 188.17C61.99 189.39 59.95 190.43 58.18 191.82C56.27 193.31 54.86 195.71 52.75 196.66C47.84 198.86 45.06 203.26 41.42 206.72C38.46 209.54 36.12 213.06 33.77 216.45C31.35 219.93 29.19 223.6 27.05 227.27C26.7 227.86 27 228.84 27 229.63C27.31 229.68 27.63 229.73 27.94 229.77V229.76Z" fill="black"/>
<path d="M308.25 133.901C309.84 133.851 311.44 134.211 313.04 134.251C313.79 134.271 314.89 134.251 315.22 133.801C316.06 132.641 316.56 131.231 317.2 129.921C316.06 129.371 314.84 128.251 313.78 128.381C309.75 128.881 305.71 129.611 301.79 130.661C300.76 130.941 300.06 133.971 300.43 134.061C300.46 134.391 300.49 134.711 300.52 135.041C299.03 135.141 297.74 135.751 296.72 137.451C295.92 138.781 295.2 138.681 294.77 137.181C293.9 134.201 291.92 131.941 288.88 132.301C286.1 132.631 283.73 131.971 281.43 131.001C282.11 130.361 282.39 129.301 282.53 127.731C282.19 127.381 281.65 126.411 280.87 126.131C276.44 124.551 272.3 126.541 268.19 127.701C267.4 127.921 266.72 130.101 266.74 131.371C266.78 134.201 267.29 137.021 267.63 139.841C267.72 140.621 267.68 141.561 268.11 142.131C268.66 142.881 269.82 143.941 270.35 143.771C270.45 143.741 270.56 143.691 270.67 143.641C271.76 144.671 273.18 145.121 275.37 145.271C278.09 145.461 280.79 146.081 283.51 146.181C285.47 146.261 287.52 146.661 289.43 146.221C290.91 146.411 292.43 146.281 293.94 146.281V146.331C294.75 146.331 295.57 146.371 296.38 146.381C299.8 151.091 305.16 151.001 309 145.881C310.25 144.441 311.11 142.681 310.18 140.421C309.21 138.081 307.6 136.701 305.45 135.901C305.8 134.631 306.78 133.941 308.26 133.891H308.25V133.901Z" fill="black"/>
<path d="M335.12 138.71C337.1 138.87 339.11 138.79 341.07 139.07C342.62 139.29 345.59 137.88 345.93 136.22C346.41 133.87 344.2 133.95 342.88 133.29C342.51 133.1 341.99 133.2 341.24 133.15C336.83 134.05 332.13 134.94 327.47 136.03C326.81 136.18 326.05 137.23 325.92 137.96C325.87 138.23 325.92 138.51 326.03 138.81C325.18 139.52 324.26 140.5 323.22 141.77C322.36 142.83 321.84 144.03 321.63 145.27C321.23 145.5 320.95 145.92 320.95 146.41C320.95 146.9 321.21 147.28 321.58 147.52C321.85 149.72 323.04 151.8 325 153.16C327.89 155.16 333.83 153.77 336.12 150.56C338.89 146.68 338.02 142.33 333.97 139.33C333.75 139.17 333.54 139.02 333.34 138.88C333.8 138.72 334.38 138.66 335.12 138.72V138.71Z" fill="black"/>
<path d="M89.1501 173.98C84.4501 176.38 79.7001 178.68 75.0501 181.17C74.4801 181.48 74.4301 182.75 74.1401 183.57C75.0601 183.53 76.1201 183.78 76.8701 183.41C79.4501 182.14 81.9001 180.6 84.4501 179.27C86.3401 178.29 88.3401 177.53 90.2601 176.6C90.8101 176.33 91.2401 175.81 91.5501 175.55C91.3501 173.4 90.5201 173.26 89.1401 173.97H89.1501V173.98Z" fill="black"/>
<path d="M95.7599 174.3C97.2699 173.8 98.7499 173.16 100.14 172.4C100.5 172.2 100.77 171.3 100.63 170.86C100.5 170.46 99.7699 170.25 99.3599 169.98C97.5699 170.68 95.9699 171.21 94.4799 171.96C94.1799 172.11 94.0599 173.2 94.2799 173.64C94.4699 174.03 95.3599 174.43 95.7699 174.3H95.7599Z" fill="black"/>
<path d="M326.39 223.55C326.39 223.4 326.25 223.25 326.17 223.09C326.08 223.25 325.93 223.39 325.93 223.53C325.93 223.68 326.07 223.83 326.15 223.97C326.24 223.83 326.39 223.69 326.39 223.54V223.55Z" fill="black"/>
<path d="M441.48 281.629C442.5 281.629 443.32 280.799 443.32 279.789C443.32 278.779 442.49 277.949 441.48 277.949C440.47 277.949 439.64 278.779 439.64 279.789C439.64 280.799 440.47 281.629 441.48 281.629Z" fill="black"/>
<path d="M448.39 199.301C449.406 199.301 450.23 198.477 450.23 197.461C450.23 196.445 449.406 195.621 448.39 195.621C447.374 195.621 446.55 196.445 446.55 197.461C446.55 198.477 447.374 199.301 448.39 199.301Z" fill="black"/>
<path d="M434.81 186.559C434.81 185.539 433.98 184.719 432.97 184.719C431.96 184.719 431.13 185.549 431.13 186.559C431.13 187.569 431.96 188.399 432.97 188.399C433.98 188.399 434.81 187.569 434.81 186.559Z" fill="black"/>
<path d="M109.9 167.852C109.9 167.112 109.3 166.512 108.56 166.512C107.82 166.512 107.22 167.112 107.22 167.852C107.22 168.592 107.82 169.192 108.56 169.192C109.3 169.192 109.9 168.592 109.9 167.852Z" fill="black"/>
<path d="M135.79 159.25C136.53 159.25 137.13 158.65 137.13 157.91C137.13 157.17 136.53 156.57 135.79 156.57C135.05 156.57 134.45 157.17 134.45 157.91C134.45 158.65 135.05 159.25 135.79 159.25Z" fill="black"/>
<path d="M54.0298 264.781C53.7498 265.471 54.0798 266.251 54.7698 266.521C55.4598 266.801 56.2398 266.471 56.5098 265.781C56.7798 265.091 56.4598 264.311 55.7698 264.041C55.0798 263.761 54.2998 264.091 54.0298 264.781Z" fill="black"/>
<path d="M442.49 109.791C436.54 108.961 430.57 108.361 424.6 107.741C419.1 107.171 417.77 105.731 417.65 100.201C417.57 96.7607 417.55 93.3007 417.1 89.9007C416.74 87.1907 415.76 84.5507 415.08 81.8707C413.41 75.3407 411.88 68.7707 410.02 62.2907C409.13 59.1907 406.24 57.6007 402.75 57.5707C399.74 57.5507 398.86 58.3107 397.39 62.1407C397.2 62.6207 396.92 63.0907 396.84 63.6007C396.31 67.1907 394.66 70.0407 391.64 72.1707C390.69 72.8307 390.04 73.9507 389.35 74.9307C386.96 78.2807 384.62 81.6707 382.27 85.0407C382.3 85.0807 382.33 85.1107 382.36 85.1407C380.3 88.2907 378.3 91.4807 376.16 94.5707C375.07 96.1307 373.78 97.6307 371.55 97.4407C368.13 97.1607 364.76 97.1607 361.49 95.4807C354.93 92.1007 347.43 92.3007 340.41 90.6207C339.92 90.5007 339.37 90.5807 338.86 90.6507C332.66 91.5907 330.3 95.3007 331.99 101.401C332.22 102.231 332.62 103.081 332.57 103.901C332.3 108.421 333.86 112.471 335.94 116.271C339.91 123.531 344.02 130.711 348.34 137.771C349.43 139.541 349.52 140.881 348.63 142.501C348.05 143.561 347.34 144.551 346.77 145.621C344.16 150.491 341.21 155.221 339.12 160.301C337.09 165.211 335.75 170.441 334.5 175.621C333.82 178.441 333.58 181.481 333.79 184.381C334.25 190.601 340.6 196.041 347.2 191.261C351.37 188.241 356.08 185.971 360.54 183.341C364.09 181.231 367.62 179.091 371.17 176.981C374.57 174.951 378.01 173.001 381.38 170.921C383.9 169.361 385.78 169.481 387.72 171.741C389.97 174.351 392.12 177.051 394.33 179.701C398.42 184.611 402.31 189.721 406.69 194.371C410.26 198.171 414.86 200.731 419.94 202.051C423.95 203.081 426.88 201.371 427.65 197.301C428.25 194.141 428.28 190.791 428.04 187.561C427.31 177.951 426.37 168.361 425.42 158.771C425 154.491 426.11 151.081 429.49 148.171C434.19 144.121 438.51 139.631 443.13 135.491C446.87 132.141 449.18 128.081 450.63 123.301C452.78 116.211 449.74 110.801 442.49 109.791ZM428.92 127.621C425.01 131.021 421.15 134.491 417.02 137.601C413.5 140.251 411.34 143.631 410.26 147.751C409.79 149.541 409.53 151.511 409.72 153.341C410.27 158.491 411.1 163.601 411.8 168.731C411.94 169.761 412.11 170.811 412.02 171.821C411.98 172.211 411.77 172.631 411.49 172.981C411.14 173.041 410.83 173.191 410.57 173.411C410.27 173.321 409.91 173.131 409.75 172.941C406.23 168.911 402.72 164.871 399.3 160.761C398.2 159.431 397.43 157.851 396.43 156.441C393.07 151.641 388.69 150.331 383.45 153.021C379.97 154.801 375.71 155.171 373.05 158.501C372.95 158.631 372.76 158.721 372.6 158.751C366.67 159.901 362.08 163.871 356.79 166.351C356.48 166.501 356.23 166.801 355.91 166.891C355.44 167.021 354.93 167.031 354.44 167.081C354.44 166.621 354.28 166.081 354.45 165.691C356.1 161.901 357.81 158.131 359.19 155.051C360.42 153.681 361.01 152.771 361.82 152.151C364.9 149.811 366.08 146.471 367.22 142.951C368.57 138.781 367.88 135.531 365.21 131.901C361.02 126.231 357.58 120.001 353.91 113.961C353.52 113.331 353.31 112.081 353.67 111.661C354.06 111.191 355.37 110.971 355.98 111.261C362.27 114.301 369.25 113.191 375.79 114.661C379.67 115.541 382.27 114.221 384.4 110.731C387.64 105.441 391.62 100.671 394.33 94.9807C395.67 92.1707 398.53 90.0907 400.71 87.6807C403.31 90.0707 402.5 93.4807 402.9 96.3507C403.67 101.771 403.66 107.311 403.63 112.801C403.61 117.231 405.19 120.141 409.46 121.371C412.93 122.381 416.5 123.041 420.05 123.761C422.76 124.311 425.51 124.681 428.22 125.221C429.91 125.561 430.21 126.491 428.92 127.621Z" fill="black"/>
<path d="M428.92 127.62C425.01 131.02 421.15 134.49 417.02 137.6C413.5 140.25 411.34 143.63 410.26 147.75C409.79 149.54 409.53 151.51 409.72 153.34C410.27 158.49 411.1 163.6 411.8 168.73C411.94 169.76 412.11 170.81 412.02 171.82C411.98 172.21 411.77 172.63 411.49 172.98C411.14 173.04 410.83 173.19 410.57 173.41C410.27 173.32 409.91 173.13 409.75 172.94C406.23 168.91 402.72 164.87 399.3 160.76C398.2 159.43 397.43 157.85 396.43 156.44C393.07 151.64 388.69 150.33 383.45 153.02C379.97 154.8 375.71 155.17 373.05 158.5C372.95 158.63 372.76 158.72 372.6 158.75C366.67 159.9 362.08 163.87 356.79 166.35C356.48 166.5 356.23 166.8 355.91 166.89C355.44 167.02 354.93 167.03 354.44 167.08C354.44 166.62 354.28 166.08 354.45 165.69C356.1 161.9 357.81 158.13 359.19 155.05C360.42 153.68 361.01 152.77 361.82 152.15C364.9 149.81 366.08 146.47 367.22 142.95C368.57 138.78 367.88 135.53 365.21 131.9C361.02 126.23 357.58 120 353.91 113.96C353.52 113.33 353.31 112.08 353.67 111.66C354.06 111.19 355.37 110.97 355.98 111.26C362.27 114.3 369.25 113.19 375.79 114.66C379.67 115.54 382.27 114.22 384.4 110.73C387.64 105.44 391.62 100.67 394.33 94.9797C395.67 92.1697 398.53 90.0897 400.71 87.6797C403.31 90.0697 402.5 93.4797 402.9 96.3497C403.67 101.77 403.66 107.31 403.63 112.8C403.61 117.23 405.19 120.14 409.46 121.37C412.93 122.38 416.5 123.04 420.05 123.76C422.76 124.31 425.51 124.68 428.22 125.22C429.91 125.56 430.21 126.49 428.92 127.62Z" fill="#ffffb4"/>
<path d="M139.95 74.9306C144.03 74.3506 148.18 74.2906 152.29 73.9906C153.15 73.9306 154.01 73.8206 154.87 73.7706C158.99 73.5306 163.12 73.1206 167.25 73.1006C172.59 73.0706 177.94 73.3506 183.28 73.4806C184.14 73.5006 185.04 73.2006 185.86 73.3706C192.18 74.7006 198.53 74.4806 204.92 74.1406C209.91 73.8706 214.9 73.7606 219.9 73.7806C223.5 73.7806 227.24 74.8606 230.67 74.1806C238.72 72.6006 246.46 74.6606 254.34 75.1206C263.29 75.6506 271.89 78.9906 280.98 78.3106C281.78 78.2506 282.63 78.7406 283.43 79.0506C291.8 82.3006 300.16 85.5806 308.53 88.8306C312.22 90.2606 318.14 89.0506 320.79 85.4006C321.74 84.2406 322.28 81.8006 320.43 79.3606C318.89 77.3206 317.31 75.2306 315.41 73.5506C308.03 67.0206 298.7 64.9206 289.52 62.5506C286.52 61.7806 283.51 60.3106 280.51 60.3506C275.37 60.4206 270.61 59.1106 265.77 57.8806C254.76 55.0806 243.53 55.7206 232.33 55.6306C223.78 55.5606 215.16 57.7806 206.68 54.9306C206.37 54.8306 205.99 54.8706 205.65 54.9106C199.13 55.8006 192.51 53.9106 186.02 55.6606C185.22 55.8806 184.24 55.9306 183.46 55.6906C177.94 53.9406 172.33 53.4406 166.59 54.2206C164.21 54.5406 161.76 54.9806 159.4 54.7806C150.47 54.0006 141.9 56.1906 133.21 57.4806C130.85 57.8306 129.47 59.0206 128.69 61.1606C126.13 68.1406 132.64 75.9706 139.96 74.9206H139.95V74.9306Z" fill="black"/>
<path d="M218.53 36.6505C219.78 35.7705 220.99 34.0605 222.18 34.0905C223.36 34.1205 224.38 36.0805 225.68 36.8105C227.75 37.9705 229.94 39.4805 232.18 39.6505C237.49 40.0605 242.86 39.9905 248.18 39.6905C251.21 39.5205 254.03 39.6305 256.77 40.9505C261.26 43.1105 265.48 42.8605 269.29 39.4405C270.42 38.4305 271.21 38.6905 271.46 40.0305C272.41 45.0005 276.25 46.1805 280.34 46.4805C288.84 47.1005 297.13 48.5405 305.22 51.2305C309.14 52.5405 313.05 53.8905 316.98 55.1705C326.63 58.3105 336.81 59.8605 345.52 65.7405C350.08 68.8205 355.2 71.0705 360.07 73.6905C359.99 73.8705 359.9 74.0405 359.82 74.2205C364.63 76.4405 369.39 78.7905 374.28 80.8305C377.81 82.3005 380.29 81.5905 382.21 79.1205C385.63 74.7305 384.67 68.8805 379.81 66.2005C371.5 61.6205 363.07 57.2605 354.69 52.8105C349.06 49.8205 343.67 46.3005 337.25 45.0805C336.6 44.9605 336.05 44.3805 335.42 44.1205C333.04 43.1305 330.69 42.0505 328.26 41.2405C322.37 39.2705 316.37 37.6205 310.54 35.4905C304.53 33.3005 298.27 32.2505 292.07 30.9605C290.23 30.5705 288.34 30.3105 286.46 30.1905C281.96 29.9105 277.39 29.7405 273.68 32.9205C272.14 34.2405 271.44 34.1105 270.78 32.2605C268.97 27.1705 265.09 24.5105 259.95 23.8205C253.1 22.9005 246.22 22.2505 239.34 21.5905C234.01 21.0705 228.92 21.5505 225.02 25.9005C224.08 26.9505 223.59 26.2205 223.15 25.4005C222.82 24.7905 222.61 24.0905 222.19 23.5605C218.86 19.3905 212.88 18.8405 208.83 22.2905C205.09 25.4705 204.79 31.4905 208.19 35.3905C210.84 38.4305 215.21 38.9805 218.53 36.6605V36.6505Z" fill="black"/>
<path d="M260.01 144.29C260.87 144.32 261.74 144.35 262.6 144.37C263.37 144.39 264.15 144.23 264.92 144.15C264.46 143.23 264.13 142.19 263.47 141.44C263.27 141.22 262.94 141.08 262.56 140.99C263.45 138.5 263.35 136.23 262.28 133.97C261.98 133.34 261.62 132.79 261.23 132.28C261.49 131.06 260.9 129.95 259.9 128.95C256.95 126.02 253.34 124.41 248.94 123.9C246 124.79 242.93 125.38 240.16 126.66C238.66 127.35 237.71 128.3 237.22 129.4C234.86 129.27 232.53 129.29 230.25 130.76C229.09 131.51 227.07 131.62 225.7 131.19C222.35 130.14 219.27 130.8 216.06 131.61C214.25 132.07 212.29 132.04 210.4 132.04C204.83 132.04 199.41 132.63 194.16 134.75C191.95 135.64 189.44 135.74 187.12 136.41C181.83 137.94 176.57 139.57 171.32 141.22C168.88 141.99 166.52 143.09 164.05 143.7C158.35 145.12 152.75 146.54 147.99 150.38C146.62 151.49 145.7 152.72 145.03 154.11C144.41 154.22 143.79 154.33 143.17 154.36C141.84 154.42 140.61 154.64 140.99 156.25C141.14 156.88 142.28 157.28 142.87 157.7C143.27 157.58 143.63 157.49 143.99 157.39C143.71 160.25 145.96 161.98 147.68 163.84C149.54 165.86 151.94 165.96 154.36 164.81C155.91 164.07 157.35 163.04 158.95 162.47C163.65 160.79 168.33 158.31 173.16 157.95C178.44 157.55 182.54 153.42 187.93 154.28C194.75 151.71 201.96 150.82 209.02 149.26C214.68 148.01 220.28 147.87 225.94 147.83C236.64 147.75 247.31 147.29 257.82 145.16C258.61 145 259.36 144.64 260.01 144.29Z" fill="black"/>
<path d="M62.6702 151.73C65.1802 153.29 67.3102 151.95 69.3702 150.6C70.5302 149.85 71.7302 149.13 72.7802 148.25C79.4002 142.68 87.5802 140.22 95.3402 137C100.58 134.82 106.08 133.21 111.57 131.68C121.18 129 130.74 126.1 140.74 125.02C146.33 124.42 151.54 122.42 155.61 118.42C157.35 116.71 158.37 116.74 159.67 118.42C163.57 121.4 168.43 121.44 171.63 118.54C174.1 116.31 173.92 112.33 171.15 108.06C170.77 107.48 170.43 106.85 169.93 106.39C169.44 105.94 168.82 105.51 168.18 105.35C164.96 104.55 160.07 106.96 158.32 110.14C157.19 112.2 156.7 112.37 155.64 110.56C152.89 105.89 148.89 105.05 144.06 106.32C134.07 108.95 124.1 111.62 114.1 114.22C110.28 115.21 106.44 116.25 102.56 116.91C96.3502 117.96 90.5302 119.87 85.0302 122.97C79.9302 125.84 74.4602 128.08 69.4602 131.11C64.3402 134.21 60.3702 138.51 59.8002 144.93C59.5502 147.65 60.1702 150.16 62.6802 151.71V151.73H62.6702Z" fill="black"/>
<path d="M328.93 109.281C325.87 107.221 322.76 105.631 319 105.241C316.45 104.981 313.93 104.251 311.44 103.591C303.27 101.411 295.16 98.9606 286.93 97.0206C283.1 96.1106 279.05 95.7806 275.1 95.7706C265.46 95.7506 255.82 96.0106 246.19 96.2906C244.32 96.3406 242.47 97.0006 240.6 97.3006C236.87 97.9106 235.74 100.721 234.93 103.851C234.05 107.231 235.62 109.981 238.18 111.401C240.94 112.931 244.51 114.451 247.42 113.991C255.91 112.661 264.34 113.231 272.77 113.571C281.41 113.921 289.8 115.941 298.11 118.441C305.53 120.671 313.13 122.331 320.7 124.071C324.62 124.971 327.86 123.621 330.39 119.611C330.56 119.251 331.01 118.321 331.43 117.371C333.31 113.081 332.84 111.911 328.94 109.291H328.93V109.281Z" fill="black"/>
<path d="M90.14 79.9693C95.36 81.4593 100.88 81.4193 104.8 77.5993C108.1 74.3693 110.68 74.4093 114.14 76.4293C115.01 76.9393 116.06 77.2493 117.07 77.3693C119.67 77.6893 121.13 76.7093 122.19 74.1593C124.7 68.1393 122.68 62.3393 116.98 59.0993C115.45 58.2293 113.93 58.1993 112.68 59.3893C111.21 60.7993 109.88 62.3693 108.6 63.9593C107.79 64.9693 107.14 65.8593 105.67 64.9993C100.72 62.0993 95.4 62.8093 90.12 63.5693C88.86 63.7493 87.7 64.5893 86.73 65.0193C85.93 67.2793 85.09 69.0193 84.72 70.8493C84.09 74.0093 87.06 79.0893 90.14 79.9693Z" fill="black"/>
<path d="M192.36 119.02C195.88 118.24 199.41 117.46 202.88 116.49C205.88 115.65 208.88 114.69 210.91 112.03C212.94 109.31 212.77 106.85 210.29 102.94C208.54 100.19 204.13 97.8 201.47 98.67C195.69 100.56 189.91 101.96 183.76 102.19C179.1 102.36 176.74 106.83 178.35 111.26C180.59 117.4 186 120.43 192.36 119.02Z" fill="black"/>
<path d="M189.99 38.0307C190.65 38.1807 191.25 38.5907 191.91 38.7707C194.63 39.5207 197.47 38.4507 199.66 35.3207C199.73 34.8407 200.3 33.4507 200.03 32.2407C199.43 29.5707 198.66 26.8807 197.51 24.4107C195.89 20.9407 191.56 19.9407 188.28 21.9607C184.91 24.0307 182.97 27.1307 183.39 30.9707C183.79 34.6407 186.18 37.1607 189.99 38.0307Z" fill="black"/>
<path d="M230.27 111.55C230.58 110.77 231.3 109.37 231.71 107.89C232.61 104.62 231.43 101.89 228.64 100.41C224.74 98.3497 219.33 98.5397 217.4 100.85C217.07 101.24 216.87 101.73 216.62 102.19C214.61 105.93 215.72 109.13 218.15 112.24C221.46 116.47 226.79 116.48 230.26 111.56H230.27V111.55Z" fill="black"/>
<path d="M88.1801 188.898C87.0101 192.368 88.4001 195.428 90.7001 197.888C92.6201 199.948 98.4901 199.418 100.3 197.358C103.35 193.878 102.39 185.428 98.1001 182.438C97.5401 182.358 96.3301 181.888 95.2401 182.088C91.4501 182.778 89.3401 185.488 88.1901 188.898H88.1801Z" fill="black"/>
<path d="M130.03 172.27C133.09 174.41 136.03 174.12 137.7 171.51C140.34 167.39 139.88 162.71 136.63 160.49C133.73 158.51 131.09 158.07 129.1 159.13C128.98 159.09 128.85 159.05 128.72 159.05C127.98 159.05 127.38 159.65 127.38 160.39C127.38 160.46 127.41 160.51 127.42 160.58C127.31 160.72 127.2 160.86 127.1 161.02C124.7 164.71 125.92 169.39 130.04 172.27H130.03Z" fill="black"/>
<path d="M42.4899 166.191C42.7399 165.141 43.4899 163.331 43.4999 161.511C43.5199 159.511 42.1699 158.061 40.2399 157.291C38.6899 156.671 37.1999 156.581 35.9399 157.861C34.0699 159.741 33.6599 164.361 35.1099 166.601C36.8499 169.271 40.0899 169.401 42.4899 166.191Z" fill="black"/>
<path d="M51.6601 158.931C52.6501 159.211 54.0101 158.191 54.5501 157.991C56.8201 154.401 56.8501 150.541 54.7601 148.081C53.9701 147.151 52.3701 146.051 51.4401 146.281C50.1901 146.591 48.5501 147.951 48.3001 149.121C47.8201 151.391 47.8201 153.921 48.3601 156.171C48.6401 157.331 50.3601 158.561 51.6601 158.931Z" fill="black"/>
</g>
</svg>
