<svg width="472" height="482" viewBox="0 0 472 482" fill="none" xmlns="http://www.w3.org/2000/svg">
<g>
<path d="M471.17 56.07V129.55C471.17 132.99 470.21 136.36 468.4 139.29L262.48 471.2C258.6 477.47 251.86 481.23 244.47 481.23H21.2201C12.3501 481.23 4.57014 475.87 1.41014 467.58C-1.74986 459.29 0.490143 450.12 7.11014 444.21L144.23 321.9C148.37 314.35 152.24 306.7 155.82 299.3C149.94 306.46 141.46 315.66 129.54 315.95H128.78C119.95 315.95 112.44 312 108.15 305.11C100.35 292.53 107.37 278.34 110.75 271.52C115.42 262.1 120.82 253.41 126.05 245C128.25 241.46 130.33 238.12 132.37 234.71C138.21 224.94 140.91 215.64 143.38 203.81C147.44 184.35 157.35 167.62 165.51 155.22C166.31 153.99 167.12 152.77 167.91 151.55C172.54 144.42 177.32 137.05 183.86 130.13C185.2 128.71 186.5 127.43 187.77 126.2C189.71 124.3 191.56 122.49 192.61 121.03C193.44 118.34 194.56 116.27 195.24 114.99C195.29 114.91 195.33 114.82 195.38 114.74C195.4 114.54 195.4 114.12 195.29 113.47C193.1 100.55 194.63 89.25 199.95 78.92C205.38 68.39 213.88 61.1 225.24 57.28C228.5 56.17 231.92 55.62 235.4 55.62C250.19 55.62 263.85 65.94 267.9 80.17C270.63 89.74 269.22 98.94 268.08 106.33C268.06 106.46 268.04 106.58 268.02 106.71C268.65 106.71 269.28 106.73 269.89 106.73C292.29 106.73 314.85 98.37 343.06 79.6C353.48 72.67 362.97 66.2 371.91 59.96V56.06C371.91 25.15 394.17 0 421.54 0C448.91 0 471.17 25.15 471.17 56.06V56.07Z" fill="#FFFFB4"/>
<path d="M421.54 18.4805C404.36 18.4805 390.38 35.3405 390.38 56.0705V68.0505C390.38 68.8805 390 69.6605 389.36 70.1805C388.87 70.5805 388.38 70.9605 387.89 71.3105C376.5 79.3605 364.91 87.2505 353.29 94.9805C325.17 113.68 294.3 128.09 259.74 124.7C254.39 124.17 248.71 120.7 248.69 114.55C248.67 105.19 252.74 94.3805 250.14 85.2305C247.87 77.2705 238.9 72.1705 231.14 74.7805C224.3 77.0905 219.52 81.2605 216.36 87.3905C212.51 94.8705 212.18 102.64 213.49 110.4C214.12 114.12 213.99 117.99 212.59 121.53C211.88 123.34 210.73 124.84 210.21 126.64C209.65 128.59 208.87 130.05 207.68 131.72C204.76 135.81 200.73 139.19 197.29 142.82C190.86 149.62 186.05 157.63 180.94 165.39C172.37 178.4 164.67 192.23 161.46 207.6C158.66 220.97 155.31 232.33 148.22 244.2C141.18 255.99 133.42 267.4 127.3 279.73C124.8 284.77 118.39 297.75 129.09 297.49C134.3 297.36 141.35 287.72 144.5 283.95C151.72 275.31 156.01 262.56 166.28 256.84C174.06 252.49 192.04 259.27 183.21 244.73C176.97 234.45 176.77 220.96 178.06 209.36C178.52 205.26 181.53 189.34 188.29 195.91C194.01 201.47 201.01 206.52 204.54 213.89C207.95 221.01 206.41 228.94 203.65 235.99C198.31 249.63 192.28 263.1 186.43 276.57C178.12 295.73 169.33 314.79 159.09 333.18C158.94 333.45 158.74 333.69 158.51 333.9L19.4 457.99C17.52 459.66 18.7 462.76 21.21 462.76H244.46C245.41 462.76 246.29 462.27 246.78 461.47L452.71 129.56V56.0705C452.71 35.3405 438.73 18.4805 421.54 18.4805ZM280.45 156.09C290.1 143.47 307.42 137.75 321.09 130.65C339.56 121.05 357.78 110.97 375.99 100.88C379.24 99.0805 382.76 97.2305 386.33 95.2605C388.15 94.2605 390.38 95.5705 390.38 97.6505V125.85C390.38 126.63 390.05 127.37 389.47 127.89L302.29 205.65C300.76 207.02 298.28 206.26 297.82 204.26C296.6 198.91 294.64 194.22 291.43 191.53C287.37 188.13 285.09 190.84 280.04 188.95C279.91 188.9 279.78 188.84 279.66 188.78C269.64 183.57 275.09 163.09 280.45 156.09ZM216.9 274.83C221.9 263.63 226.81 252.39 231.72 241.16C235.68 232.08 238.91 220.89 246.28 213.47C258.07 201.63 270.28 210.39 273.17 223.52C273.57 225.37 273.9 227.23 274.18 229.09C274.32 230 273.98 230.91 273.29 231.52L221.21 277.97C219.02 279.93 215.7 277.51 216.9 274.83ZM445.34 133.72L244.87 458.04C244.38 458.84 243.5 459.33 242.55 459.33H30.2C27.69 459.33 26.51 456.24 28.38 454.57L138.83 356.05C141.23 353.91 144.72 356.94 142.92 359.6C142.89 359.66 142.85 359.71 142.81 359.77C136.13 369.64 130.17 379.77 125.28 390.45C124.24 392.71 123.16 394.95 122.21 397.24C118.31 406.7 114.29 416.12 110.66 425.66C108.95 430.16 110.15 434.78 113.4 438.3C118.41 443.71 130.75 444.6 136.88 440.1C170.06 415.69 206.37 392.81 235.31 364.06C242.15 357.27 245.53 349.73 242.25 340.47C240.78 336.32 238.34 333.12 233.88 331.29C228.06 328.92 222.26 329.98 216.55 331.49C211.06 332.95 205.76 335.1 200.2 336.27C194.5 337.47 191.52 334.3 192.98 329.12C194 325.54 194.93 321.88 196.58 318.52C200.44 310.65 204.18 302.73 207.85 294.79C208 294.45 208.23 294.15 208.5 293.9L270.68 238.44C272.4 236.9 275.13 238.06 275.23 240.36C275.6 248.34 275.3 256.38 275.08 264.33C274.88 271.73 271.32 286.26 277.96 291.64C283.78 296.36 290.29 291.01 294.74 287.23C302.2 280.9 309.65 274.54 316.56 267.62C321.47 262.69 330.24 255.46 331.26 248.07C331.44 246.81 331.57 244.46 330.88 243.32C322.4 229.14 301.88 255.68 300.29 230.24C300.03 226.21 299.93 220.37 299.36 214.36C299.28 213.49 299.61 212.63 300.26 212.05L391.97 130.25C392.47 129.8 393.12 129.56 393.79 129.56H443.02C445.16 129.56 446.47 131.9 445.34 133.72Z" fill="#1D1D1B"/>
<path d="M445.34 133.718L244.87 458.038C244.38 458.838 243.5 459.328 242.55 459.328H30.2002C27.6902 459.328 26.5102 456.238 28.3802 454.568L138.83 356.048C141.23 353.908 144.72 356.938 142.92 359.598C142.89 359.658 142.85 359.708 142.81 359.768C136.13 369.638 130.17 379.768 125.28 390.448C124.24 392.708 123.16 394.948 122.21 397.238C118.31 406.698 114.29 416.118 110.66 425.658C108.95 430.158 110.15 434.778 113.4 438.298C118.41 443.708 130.75 444.598 136.88 440.098C170.06 415.688 206.37 392.808 235.31 364.058C242.15 357.268 245.53 349.728 242.25 340.468C240.78 336.318 238.34 333.118 233.88 331.288C228.06 328.918 222.26 329.978 216.55 331.488C211.06 332.948 205.76 335.098 200.2 336.268C194.5 337.468 191.52 334.298 192.98 329.118C194 325.538 194.93 321.878 196.58 318.518C200.44 310.648 204.18 302.728 207.85 294.788C208 294.448 208.23 294.148 208.5 293.898L270.68 238.438C272.4 236.898 275.13 238.058 275.23 240.358C275.6 248.338 275.3 256.378 275.08 264.328C274.88 271.728 271.32 286.258 277.96 291.638C283.78 296.358 290.29 291.008 294.74 287.228C302.2 280.898 309.65 274.538 316.56 267.618C321.47 262.688 330.24 255.458 331.26 248.068C331.44 246.808 331.57 244.458 330.88 243.318C322.4 229.138 301.88 255.678 300.29 230.238C300.03 226.208 299.93 220.368 299.36 214.358C299.28 213.488 299.61 212.628 300.26 212.048L391.97 130.248C392.47 129.798 393.12 129.558 393.79 129.558H443.02C446.68 129.558 449.92 128.408 445.34 133.718Z" fill="#ffffb4"/>
</g>
</svg>
