<svg width="211" height="210" viewBox="0 0 211 210" fill="none" xmlns="http://www.w3.org/2000/svg">
<path d="M84.7075 85.7603L104.971 136.466L97.3463 139.513L77.0829 88.8074L84.7075 85.7603ZM134.439 102.929L101.667 116.025L99.0112 109.379L124.792 99.0764L124.602 98.6021L105.854 99.364L105.429 99.3811L103.108 93.5719L103.427 93.2918L117.536 80.9217L117.338 80.4265L98.5498 87.935L100.837 93.6581L93.8452 96.4521L91.1128 89.6146L96.9899 87.2659L94.7797 81.7352L121.674 70.9872L126.096 82.0505L125.766 82.3293L114.255 92.1111L114.504 92.735L129.587 91.8891L130.018 91.8652L134.439 102.929Z" stroke="black" stroke-width="1.2"/>
<path d="M94.0145 25.6454C93.8708 25.0538 93.2633 24.7518 92.6316 24.8535C91.0506 25.1028 91.2017 27.6272 91.3892 28.7925C91.5807 29.9678 92.2055 32.4884 93.8165 32.2271C94.4381 32.1293 94.922 31.5998 94.8642 30.9622L96.3573 30.7249C96.5967 32.194 95.4891 33.3669 94.0939 33.5883C91.4355 34.0132 90.2551 31.2626 89.9041 29.1079C89.543 26.8412 89.8118 23.9172 92.4662 23.4823C93.8613 23.2609 95.2682 23.9969 95.4976 25.4121L94.0045 25.6494L94.0145 25.6454Z" fill="black"/>
<path d="M102.092 28.1664L102.167 32.6455L100.658 32.669L100.501 22.7055L102.01 22.682L102.073 26.7833L105.39 26.7324L105.328 22.6311L106.837 22.6076L106.994 32.5711L105.485 32.5946L105.41 28.1155L102.092 28.1664Z" fill="black"/>
<path d="M118.172 28.695C117.893 30.8695 116.535 33.6493 114.017 33.3227C111.499 32.9961 110.898 29.9559 111.177 27.7814C111.435 25.7888 112.825 22.8571 115.329 23.1777C117.834 23.4983 118.426 26.6924 118.168 28.685L118.172 28.695ZM112.669 28.0657C112.503 29.3028 112.472 31.7492 114.193 31.9656C115.894 32.19 116.502 29.8258 116.665 28.5786C116.829 27.3075 116.89 24.7912 115.151 24.5588C113.402 24.3303 112.834 26.7946 112.665 28.0557L112.669 28.0657Z" fill="black"/>
<path d="M128.82 31.3828C128.238 33.4933 126.492 36.0571 124.042 35.3787C121.592 34.7004 121.431 31.6003 122.027 29.4959C122.561 27.5553 124.357 24.8557 126.793 25.528C129.233 26.2103 129.358 29.4523 128.82 31.3828ZM123.466 29.9641C123.134 31.1632 122.743 33.5795 124.424 34.0437C126.081 34.5059 127.013 32.2557 127.351 31.0426C127.695 29.8155 128.112 27.3193 126.431 26.855C124.736 26.3848 123.82 28.733 123.476 29.9601L123.466 29.9641Z" fill="black"/>
<path d="M131.807 35.1732L131.927 34.8934L133.306 35.5015C132.944 36.3648 133.317 37.1544 134.179 37.5404C134.956 37.8905 135.845 37.8248 136.243 36.9355C136.679 35.9383 135.822 35.0985 134.993 34.1549C134.184 33.2033 133.383 32.1557 133.979 30.8048C134.671 29.23 136.398 28.8528 137.903 29.5148C139.156 30.0689 140.153 31.5482 139.544 32.9271L139.462 33.099L138.084 32.491C138.47 31.7456 138.046 31.0919 137.315 30.7698C136.583 30.4478 135.792 30.4396 135.416 31.2969C135.124 31.9584 135.495 32.5401 135.915 33.0099L136.554 33.7397C137.531 34.8792 138.312 35.9928 137.618 37.5335C136.914 39.1363 135.109 39.4635 133.604 38.8014C132.24 38.1994 131.121 36.676 131.783 35.1712L131.807 35.1732Z" fill="black"/>
<path d="M144.751 37.7776L148.039 39.8253L147.313 40.9963L144.026 38.9486L142.374 41.6024L146.298 44.056L145.573 45.227L140.367 41.9755L145.638 33.5287L150.702 36.6862L149.976 37.8572L146.197 35.5075L144.779 37.7896L144.751 37.7776Z" fill="black"/>
<path d="M167.077 51.4699L168.176 52.7114L162.329 54.1206L158.848 57.2155L157.841 56.0879L161.322 52.993L163.412 47.3474L164.511 48.5889L162.985 52.5139L167.063 51.4639L167.077 51.4699Z" fill="black"/>
<path d="M170.666 64.9762C168.837 66.1709 165.838 66.9634 164.446 64.8423C163.054 62.7213 164.967 60.2875 166.802 59.0788C168.484 57.9781 171.618 57.1196 173.006 59.2307C174.395 61.3418 172.357 63.8715 170.676 64.9722L170.666 64.9762ZM167.567 60.3842C166.52 61.0695 164.651 62.6278 165.601 64.0792C166.548 65.5206 168.735 64.438 169.779 63.7428C170.842 63.0395 172.802 61.4452 171.847 59.9839C170.874 58.5065 168.641 59.677 167.577 60.3802L167.567 60.3842Z" fill="black"/>
<path d="M177.776 67.8026L171.869 70.5689C170.608 71.1541 170.032 71.8015 170.671 73.1689C171.31 74.5362 172.168 74.5065 173.439 73.9172L179.346 71.1509L179.985 72.5182L173.978 75.3245C172.023 76.2333 170.399 75.851 169.416 73.7401C168.429 71.6191 169.171 70.1403 171.136 69.2276L177.143 66.4213L177.782 67.7886L177.776 67.8026Z" fill="black"/>
<path d="M172.785 81.8519L172.346 80.4047L181.883 77.4977L182.723 80.2681C183.258 82.0132 182.766 83.624 180.873 84.195C179.674 84.5584 178.397 84.2342 177.79 83.0627L174.305 86.8432L173.792 85.1821L177.074 81.7953L176.717 80.64L172.771 81.8459L172.785 81.8519ZM178.386 81.3061C178.737 82.4754 179.245 83.1072 180.494 82.7238C181.743 82.3405 181.632 81.423 181.326 80.3976L181.009 79.3422L178.074 80.2367L178.396 81.3021L178.386 81.3061Z" fill="black"/>
<path d="M182.192 102.781L182.207 105.777L180.83 105.783L180.805 102.791L176.296 102.819L176.283 101.306L186.244 101.232L186.28 106.456L184.903 106.462L184.877 102.74L182.184 102.761L182.192 102.781Z" fill="black"/>
<path d="M185.769 113.152L179.307 112.268C177.922 112.08 177.097 112.306 176.884 113.804C176.682 115.299 177.417 115.747 178.802 115.936L185.264 116.819L185.061 118.314L178.5 117.413C176.355 117.122 175.211 115.911 175.519 113.608C175.834 111.292 177.271 110.451 179.416 110.741L185.977 111.643L185.775 113.138L185.769 113.152Z" fill="black"/>
<path d="M173.323 124.384L173.74 122.931L181.989 125.303L182.732 122.722L184.057 123.109L182.15 129.736L180.825 129.35L181.567 126.769L173.317 124.398L173.323 124.384Z" fill="black"/>
<path d="M179.87 135.631L173.92 132.955C172.649 132.385 171.786 132.371 171.164 133.744C170.546 135.126 171.135 135.76 172.406 136.33L178.355 139.006L177.737 140.389L171.694 137.681C169.72 136.801 168.961 135.308 169.901 133.194C170.857 131.061 172.47 130.66 174.444 131.54L180.488 134.248L179.87 135.631Z" fill="black"/>
<path d="M165.951 141.031L166.763 139.756L175.175 145.088L173.628 147.538C172.654 149.074 171.115 149.747 169.444 148.699C168.389 148.032 167.798 146.842 168.296 145.623L163.157 145.44L164.091 143.977L168.796 144.264L169.442 143.241L165.951 141.031ZM170.007 144.916C169.351 145.943 169.203 146.733 170.308 147.439C171.409 148.134 172.041 147.453 172.609 146.554L173.198 145.623L170.607 143.981L170.011 144.926L170.007 144.916Z" fill="black"/>
<path d="M164.41 153.331L161.889 156.274L160.834 155.374L163.355 152.431L160.975 150.392L157.962 153.902L156.907 153.003L160.906 148.333L168.469 154.815L164.588 159.345L163.533 158.445L166.434 155.06L164.392 153.315L164.41 153.331Z" fill="black"/>
<path d="M145.14 168.948L143.775 166.839L146.384 165.159L147.748 167.268L145.14 168.948Z" fill="black"/>
<path d="M125.812 180.277C126.026 180.841 126.673 181.069 127.283 180.883C128.818 180.432 128.345 177.943 128.014 176.824C127.675 175.684 126.732 173.268 125.167 173.731C124.567 173.913 124.151 174.496 124.297 175.122L122.846 175.551C122.428 174.13 123.368 172.827 124.725 172.424C127.306 171.659 128.834 174.236 129.451 176.331C130.098 178.529 130.209 181.475 127.628 182.24C126.271 182.643 124.776 182.093 124.369 180.726L125.82 180.297L125.812 180.277Z" fill="black"/>
<path d="M117.452 178.819L116.804 174.384L118.305 174.167L119.741 184.025L118.24 184.242L117.652 180.188L114.366 180.667L114.954 184.721L113.453 184.938L112.017 175.08L113.518 174.863L114.166 179.298L117.452 178.819Z" fill="black"/>
<path d="M101.426 180.367C101.421 178.178 102.411 175.233 104.952 175.237C107.492 175.242 108.478 178.175 108.474 180.367C108.479 182.382 107.477 185.472 104.946 185.463C102.42 185.464 101.418 182.376 101.412 180.361L101.426 180.367ZM106.963 180.299C106.961 179.048 106.686 176.619 104.951 176.628C103.236 176.63 102.942 179.054 102.943 180.305C102.943 181.581 103.206 184.095 104.959 184.102C106.722 184.104 106.97 181.594 106.967 180.309L106.963 180.299Z" fill="black"/>
<path d="M90.5456 179.07C90.8621 176.904 92.2581 174.132 94.7683 174.497C97.2786 174.861 97.8392 177.917 97.5228 180.084C97.2303 182.079 95.7983 184.992 93.2981 184.624C90.7978 184.255 90.2532 181.065 90.5356 179.074L90.5456 179.07ZM96.0398 179.796C96.2201 178.564 96.2848 176.116 94.576 175.872C92.8772 175.623 92.2309 177.98 92.0546 179.221C91.8763 180.486 91.7716 183.008 93.5084 183.265C95.2551 183.517 95.8615 181.061 96.0438 179.806L96.0398 179.796Z" fill="black"/>
<path d="M87.0989 175.696L87.0108 175.997L85.5639 175.567C85.818 174.666 85.3486 173.926 84.4432 173.662C83.6279 173.42 82.7444 173.588 82.4683 174.521C82.1541 175.562 83.1313 176.296 84.0624 177.118C84.9915 177.963 85.9186 178.891 85.4904 180.314C85.0002 181.959 83.3411 182.564 81.7623 182.094C80.4473 181.704 79.2745 180.364 79.6947 178.921L79.7487 178.737L81.1956 179.167C80.9075 179.955 81.413 180.553 82.1765 180.781C82.9399 181.009 83.7254 180.915 83.9935 180.02C84.1916 179.326 83.7621 178.803 83.2805 178.381L82.5472 177.735C81.4282 176.733 80.5171 175.729 81.0013 174.099C81.4996 172.416 83.2366 171.861 84.8154 172.331C86.2484 172.755 87.5491 174.125 87.0889 175.7L87.0989 175.696Z" fill="black"/>
<path d="M73.9318 174.768L70.4006 173.154L70.9786 171.903L74.5098 173.517L75.8159 170.665L71.6052 168.743L72.1832 167.492L77.7708 170.046L73.6226 179.099L68.2029 176.617L68.7809 175.366L72.8277 177.226L73.9498 174.784L73.9318 174.768Z" fill="black"/>
<path d="M50.0348 164.045L48.7779 162.96L54.387 160.811L57.4441 157.294L58.5831 158.288L55.5259 161.805L54.1849 167.672L52.9281 166.587L53.9367 162.498L50.0188 164.063L50.0348 164.045Z" fill="black"/>
<path d="M44.7344 151.13C46.3898 149.703 49.2603 148.533 50.9206 150.454C52.5809 152.376 50.9911 155.039 49.3357 156.466C47.8103 157.783 44.8218 159.035 43.1755 157.12C41.5292 155.204 43.215 152.433 44.7444 151.126L44.7344 151.13ZM48.3967 155.276C49.3443 154.457 50.9958 152.673 49.869 151.362C48.7461 150.06 46.715 151.416 45.7774 152.232C44.8137 153.069 43.0763 154.899 44.2211 156.227C45.3699 157.564 47.433 156.114 48.4107 155.282L48.3967 155.276Z" fill="black"/>
<path d="M37.3238 149.235L42.8333 145.735C44.0068 144.988 44.5007 144.28 43.6896 143.005C42.8786 141.73 42.0311 141.871 40.8476 142.622L35.3381 146.122L34.527 144.847L40.1185 141.291C41.9397 140.134 43.6005 140.317 44.8471 142.276C46.0977 144.245 45.5455 145.822 43.7243 146.978L38.1328 150.534L37.3218 149.259L37.3238 149.235Z" fill="black"/>
<path d="M40.4845 134.665L41.1077 136.051L32.0183 140.135L30.8339 137.49C30.0889 135.829 30.3773 134.172 32.1644 133.365C33.3038 132.852 34.6229 133.021 35.368 134.102L38.3514 129.908L39.0645 131.489L36.2371 135.262L36.7344 136.361L40.4985 134.671L40.4845 134.665ZM34.9997 135.907C34.4984 134.797 33.9229 134.227 32.7375 134.771C31.5481 135.304 31.7677 136.202 32.2071 137.185L32.6545 138.189L35.4551 136.93L34.9997 135.907Z" fill="black"/>
<path d="M28.4643 115.116L28.0555 112.15L29.4287 111.961L29.8375 114.927L34.3088 114.311L34.5122 115.806L24.6502 117.174L23.9343 111.989L25.3074 111.8L25.8159 115.479L28.4743 115.112L28.4643 115.116Z" fill="black"/>
<path d="M23.5789 105.269L30.1006 105.317C31.4957 105.328 32.2913 104.998 32.3018 103.487C32.3123 101.976 31.5249 101.63 30.1298 101.62L23.6081 101.572L23.6185 100.061L30.2462 100.113C32.4088 100.129 33.7076 101.175 33.6869 103.502C33.6701 105.838 32.3487 106.853 30.2001 106.842L23.5724 106.79L23.5829 105.279L23.5789 105.269Z" fill="black"/>
<path d="M34.4778 92.5449L34.2515 94.0379L25.7674 92.734L25.3568 95.3901L23.9878 95.1838L25.0313 88.3686L26.4003 88.5749L25.9897 91.231L34.4738 92.5349L34.4778 92.5449Z" fill="black"/>
<path d="M26.5522 82.1971L32.8035 84.0919C34.1365 84.498 35.004 84.4064 35.4342 82.9594C35.8744 81.5085 35.215 80.9607 33.882 80.5545L27.6306 78.6597L28.0708 77.2088L34.4161 79.1356C36.4845 79.7579 37.4315 81.1413 36.7572 83.3696C36.0769 85.6119 34.5297 86.207 32.4613 85.5848L26.116 83.658L26.5562 82.2071L26.5522 82.1971Z" fill="black"/>
<path d="M39.672 75.0879L39.0259 76.4588L29.9992 72.2307L31.2232 69.6088C31.9992 67.9541 33.4386 67.0892 35.2231 67.9292C36.3522 68.4632 37.0814 69.5627 36.7532 70.8298L41.874 70.3597L41.134 71.9305L36.427 72.2467L35.915 73.3439L39.652 75.0959L39.672 75.0879ZM35.146 71.7387C35.664 70.6276 35.7162 69.8301 34.5312 69.2721C33.3461 68.7141 32.8142 69.4714 32.3562 70.4426L31.8862 71.4418L34.666 72.7419L35.142 71.7287L35.146 71.7387Z" fill="black"/>
<path d="M39.6161 62.7078L41.7378 59.4606L42.8968 60.2145L40.7751 63.4617L43.3949 65.1734L45.9264 61.2987L47.0855 62.0526L43.714 67.1902L35.3792 61.7351L38.6466 56.7434L39.8056 57.4972L37.364 61.22L39.6121 62.6978L39.6161 62.7078Z" fill="black"/>
<path d="M65.6965 38.434L67.025 40.5691L64.3902 42.2132L63.0617 40.0781L65.6965 38.434Z" fill="black"/>
</svg>
