<svg width="205" height="210" viewBox="0 0 205 210" fill="currentColor" stroke="currentColor"  xmlns="http://www.w3.org/2000/svg">
<path d="M91.9903 138.733L98.5011 136.131L78.6826 86.5387L72.1719 89.1406L91.9903 138.733Z" />
<path d="M94.1008 109.713L119.882 99.4101L119.312 97.9847L100.139 98.7633L98.1321 93.7424L112.561 81.0924L111.983 79.6457L92.0794 87.5998L94.3665 93.3228L88.4894 95.6715L86.2023 89.9485L92.0794 87.5998L89.8689 82.0684L115.65 71.7656L119.688 81.8711L107.848 91.9323L108.417 93.3577L123.931 92.4873L127.969 102.593L96.3113 115.244L94.1008 109.713Z" />
<path d="M84.8409 25.7642C85.149 24.834 85.752 24.1558 86.8589 23.9745L86.8586 23.9736C87.8675 23.8145 88.7854 24.2399 89.1597 25.008L88.6316 25.0918C88.2674 24.4926 87.5306 24.2512 86.8632 24.3587L86.8623 24.3591C85.738 24.5381 85.3109 25.5339 85.1655 26.3949C85.0158 27.2814 85.1101 28.2664 85.2073 28.8706L85.2068 28.8718C85.3052 29.4758 85.5197 30.4611 85.937 31.2754C86.3417 32.0651 87.06 32.9036 88.2052 32.7195L88.2055 32.7204C88.8979 32.6115 89.5007 32.0949 89.6454 31.3919L90.1864 31.3062C90.0915 32.2124 89.3357 32.9333 88.3273 33.0934L88.3264 33.0938C87.2218 33.2702 86.4339 32.8062 85.847 32.016C85.2426 31.2021 84.8789 30.0647 84.7099 29.0284C84.5354 27.9331 84.5226 26.7255 84.8409 25.7642Z"  />
<path d="M95.8304 23.1878L95.8858 26.7897L95.8931 27.2895L96.3929 27.2822L99.7113 27.2307L100.211 27.2234L100.204 26.7236L100.147 23.1221L100.657 23.1139L100.799 32.0776L100.289 32.0858L100.223 28.1062L100.215 27.6067L99.7152 27.614L96.3977 27.6652L95.897 27.6728L95.9055 28.1732L95.9706 32.1518L95.4616 32.1597L95.3214 23.1956L95.8304 23.1878Z"  />
<path d="M107.125 24.907C107.753 24.0529 108.568 23.5434 109.577 23.6725C110.586 23.8016 111.243 24.5007 111.632 25.4869C112.024 26.4813 112.104 27.6907 111.984 28.6201L111.967 28.7488L111.968 28.7525C111.823 29.7461 111.446 30.8404 110.845 31.6474C110.229 32.4754 109.421 32.9591 108.393 32.8259C107.366 32.6927 106.709 32.0177 106.324 31.0575C105.933 30.0837 105.852 28.8702 105.983 27.8442L105.984 27.8448C106.105 26.9156 106.491 25.7682 107.125 24.907ZM109.31 24.0441C108.249 24.0065 107.576 24.7514 107.182 25.5192C106.761 26.3412 106.568 27.3411 106.481 27.9889L106.465 28.1186L106.47 28.1313C106.394 28.773 106.355 29.6912 106.549 30.5123C106.755 31.3909 107.276 32.3115 108.439 32.4595L108.44 32.4604C109.596 32.6128 110.333 31.8537 110.758 31.0595C111.185 30.2631 111.388 29.2907 111.473 28.6422L111.473 28.6413C111.557 27.9857 111.622 26.9707 111.422 26.0693C111.222 25.1715 110.709 24.2197 109.529 24.062L109.528 24.0614L109.31 24.0441Z"  />
<path d="M118.361 26.8813C119.104 26.1265 119.984 25.7374 120.966 26.0076L120.966 26.0085C121.951 26.2838 122.501 27.071 122.745 28.1014C122.991 29.1407 122.898 30.3466 122.647 31.2473L122.646 31.2485C122.372 32.243 121.825 33.3282 121.085 34.0727C120.355 34.8064 119.484 35.1724 118.484 34.8955C117.484 34.6188 116.929 33.8576 116.686 32.8532C116.439 31.834 116.535 30.6223 116.816 29.6306L116.817 29.6271C117.066 28.723 117.611 27.6431 118.361 26.8813ZM120.873 26.3718C119.722 26.0526 118.879 26.7306 118.347 27.4801C117.877 28.1415 117.567 28.9648 117.377 29.5829L117.358 29.5905L117.292 29.8295C117.12 30.45 116.921 31.4218 117 32.3219C117.074 33.1666 117.416 34.0873 118.395 34.4577L118.599 34.5243C119.722 34.8369 120.559 34.1928 121.093 33.4668C121.561 32.8303 121.877 32.036 122.067 31.4254L122.141 31.176C122.319 30.5416 122.526 29.5449 122.456 28.6237C122.387 27.7083 122.018 26.6887 120.872 26.3722L120.873 26.3718Z"  />
<path d="M128.749 31.0046C129.3 29.7527 130.686 29.387 132.014 29.9703L132.014 29.9713C132.542 30.2048 133.02 30.6376 133.295 31.1482C133.516 31.5573 133.595 31.9973 133.495 32.428L133.014 32.2146C133.076 31.8765 133.028 31.5461 132.878 31.2466C132.663 30.8183 132.269 30.505 131.829 30.3112C131.416 30.1294 130.926 30.0069 130.451 30.0986C129.94 30.197 129.52 30.5277 129.272 31.0934C128.846 32.0586 129.43 32.8656 129.855 33.3414L130.491 34.0682L130.491 34.0673C130.978 34.6353 131.362 35.1392 131.558 35.6611C131.743 36.1542 131.767 36.6804 131.476 37.3271L131.473 37.3313C130.918 38.5963 129.465 38.9347 128.119 38.3426C127.525 38.0806 126.99 37.6182 126.681 37.0758C126.425 36.6281 126.331 36.1403 126.458 35.6504L126.5 35.554L127.017 35.7817C126.946 36.1685 126.985 36.5505 127.139 36.9003C127.353 37.3871 127.765 37.7604 128.286 37.9941L128.286 37.995C128.742 38.2005 129.273 38.3034 129.777 38.189C130.238 38.0843 130.638 37.8057 130.906 37.3465L131.013 37.1385L131.015 37.1347C131.319 36.4404 131.15 35.8083 130.838 35.2726C130.543 34.7658 130.073 34.2693 129.681 33.8239C129.276 33.3472 128.926 32.9034 128.734 32.4377C128.552 31.9969 128.514 31.5401 128.75 31.0055L128.749 31.0046Z"  />
<path d="M144.323 36.8462L144.124 37.1675L140.771 35.0822L140.347 34.8175L140.083 35.2429L138.665 37.5246L139.03 37.752L138.797 38.2005L141.66 39.9853L141.461 40.3057L138.6 38.5233L138.176 38.2585L137.911 38.683L136.26 41.337L135.996 41.761L136.419 42.0252L139.92 44.2153L139.721 44.5357L135.365 41.8152L140.107 34.2163L144.323 36.8462Z"  />
<path d="M158.244 48.691L156.829 52.3316L156.476 53.2404L157.42 52.9968L161.208 52.0204L161.559 52.4192L156.521 53.6334L156.4 53.6631L156.306 53.7455L153.198 56.5086L152.857 56.1273L155.964 53.3659L156.057 53.2825L156.101 53.1652L157.9 48.3025L158.244 48.691Z"  />
<path d="M161.385 59.4964C162.169 58.9829 163.293 58.5288 164.361 58.4481C165.42 58.368 166.337 58.6534 166.897 59.5043C167.456 60.3549 167.354 61.3082 166.859 62.2454C166.367 63.1765 165.52 64.0131 164.746 64.5286L164.743 64.5297L164.701 64.5569C163.838 65.1206 162.712 65.5784 161.666 65.6532C160.634 65.7269 159.74 65.4318 159.172 64.5673C158.605 63.7022 158.688 62.7652 159.166 61.8482C159.65 60.9184 160.518 60.0664 161.384 59.4958L161.385 59.4964ZM163.937 58.8772C163.065 59.0875 162.208 59.5728 161.657 59.9324L161.645 59.9375L161.603 59.9647C161.06 60.3199 160.272 60.9199 159.74 61.6482C159.208 62.3772 158.849 63.3706 159.492 64.3521L159.493 64.353C160.135 65.3296 161.191 65.3959 162.072 65.1995C162.954 65.0028 163.82 64.5198 164.364 64.1575C164.911 63.7954 165.723 63.1843 166.278 62.4471C166.829 61.7137 167.224 60.7046 166.574 59.7091L166.574 59.7082L166.445 59.5313C165.78 58.7026 164.777 58.6748 163.937 58.8772Z"  />
<path d="M171.43 67.5553L165.966 70.1152C165.324 70.4133 164.731 70.7776 164.427 71.3349C164.099 71.9357 164.172 72.6204 164.527 73.3794C164.881 74.1376 165.357 74.6323 166.029 74.7656C166.651 74.8889 167.312 74.6685 167.957 74.3694L167.958 74.3703L167.959 74.3687L173.413 71.8146L173.628 72.2756L168.075 74.8701C167.163 75.2939 166.404 75.3812 165.793 75.1871C165.191 74.996 164.63 74.4988 164.178 73.5282C163.723 72.5502 163.701 71.8002 163.94 71.2193C164.183 70.6293 164.737 70.1063 165.655 69.6798L165.656 69.6795L171.21 67.0846L171.43 67.5553Z"  />
<path d="M175.858 78.1201L176.554 80.4122L176.554 80.4134C176.798 81.2097 176.791 81.9219 176.557 82.4753C176.33 83.0128 175.861 83.4662 175.038 83.7147L175.037 83.715C174.001 84.0286 173.01 83.7326 172.542 82.8315L172.214 82.1983L171.731 82.7224L168.834 85.8647L168.665 85.315L171.742 82.1417L171.949 81.9298L171.861 81.6463L171.503 80.4914L171.356 80.015L170.88 80.1601L167.423 81.2164L167.278 80.7362L175.858 78.1201ZM171.904 80.3795L172.094 81.0063L172.084 81.0103L172.216 81.4486C172.396 82.048 172.646 82.6318 173.103 82.9901C173.603 83.3815 174.231 83.4214 174.949 83.2011C175.315 83.0888 175.62 82.9258 175.851 82.7007C176.087 82.4711 176.226 82.1985 176.29 81.9091C176.411 81.3635 176.266 80.7627 176.114 80.2535L176.114 80.2526L175.796 79.1966L175.652 78.7169L175.171 78.8625L172.237 79.7574L171.76 79.9029L171.904 80.3795Z"  />
<path d="M180.06 101.734L180.09 105.957L179.713 105.958L179.69 102.736L179.687 102.235L179.185 102.239L176.493 102.26L175.761 102.266L176.006 102.879L176.017 105.278L175.639 105.28L175.618 102.786L175.614 102.287L175.115 102.29L171.104 102.315L171.1 101.801L180.06 101.734Z"  />
<path d="M171.38 111.607C171.84 111.286 172.475 111.139 173.297 111.198L173.661 111.235L179.726 112.069L179.656 112.588L173.688 111.772C172.984 111.676 172.288 111.66 171.73 111.963C171.129 112.289 170.819 112.904 170.702 113.734L170.702 113.737C170.59 114.566 170.722 115.241 171.213 115.718C171.668 116.161 172.342 116.334 173.047 116.43L179.013 117.246L178.945 117.749L172.881 116.916L172.88 116.916C171.88 116.781 171.196 116.441 170.789 115.946C170.437 115.519 170.239 114.911 170.29 114.056L170.327 113.674C170.472 112.608 170.862 111.966 171.38 111.607Z"  />
<path d="M176.161 125.782L176.642 125.92L176.78 125.44L177.382 123.342L177.748 123.448L176.117 129.114L175.752 129.008L176.357 126.907L176.496 126.426L176.016 126.288L168.247 124.056L168.392 123.548L176.161 125.782Z"  />
<path d="M166.262 131.71C166.869 131.507 167.63 131.584 168.553 131.995L174.139 134.498L173.929 134.968L168.438 132.498L168.437 132.498C167.79 132.208 167.127 131.998 166.507 132.13C165.838 132.274 165.366 132.774 165.021 133.536L165.02 133.539C164.677 134.306 164.615 134.992 164.954 135.588C165.229 136.072 165.723 136.404 166.275 136.674L166.514 136.785L172.008 139.256L171.797 139.727L166.212 137.224L166.21 137.223L165.882 137.065C165.155 136.683 164.698 136.22 164.477 135.703C164.229 135.12 164.238 134.368 164.67 133.397C165.11 132.415 165.664 131.909 166.262 131.71Z"  />
<path d="M168.798 145.241L167.518 147.269C167.074 147.97 166.53 148.426 165.957 148.61C165.47 148.766 164.911 148.741 164.291 148.427L164.022 148.275C163.113 147.698 162.69 146.746 163.071 145.811L163.342 145.148L162.626 145.123L158.36 144.97L158.666 144.492L163.078 144.762L163.373 144.78L163.531 144.529L164.177 143.507L164.444 143.085L164.021 142.817L160.953 140.876L161.228 140.444L168.798 145.241ZM164.496 143.713L164.423 143.828L164.422 143.825L163.898 144.646C163.562 145.171 163.284 145.74 163.31 146.319C163.34 146.952 163.718 147.454 164.351 147.858L164.353 147.86C164.676 148.064 164.998 148.188 165.32 148.217C165.648 148.246 165.945 148.174 166.206 148.034C166.577 147.836 166.871 147.505 167.115 147.162L167.344 146.82L167.934 145.889L168.202 145.467L167.779 145.199L165.187 143.557L164.763 143.289L164.496 143.713Z"  />
<path d="M162.071 154.868L158.84 158.639L158.546 158.39L161.122 155.384L161.448 155.005L161.067 154.679L159.025 152.934L158.695 153.31L158.338 153.004L156.141 155.568L155.846 155.318L158.042 152.755L158.367 152.376L157.988 152.05L155.608 150.011L155.229 149.686L154.904 150.065L152.214 153.197L151.919 152.946L155.267 149.037L162.071 154.868Z"  />
<path d="M141.367 167.117L139.599 168.257L138.779 166.988L140.547 165.849L141.367 167.117Z"  />
<path d="M119.176 172.902C120.248 172.584 121.09 172.942 121.773 173.651C122.477 174.381 122.983 175.464 123.28 176.471C123.592 177.533 123.76 178.731 123.567 179.727C123.381 180.691 122.87 181.441 121.795 181.76C120.812 182.052 119.842 181.749 119.372 181.04L119.902 180.883C120.341 181.413 121.097 181.555 121.737 181.36L121.737 181.359C122.827 181.036 123.122 179.994 123.157 179.123C123.192 178.225 122.973 177.262 122.801 176.681L122.802 176.68C122.627 176.094 122.288 175.146 121.77 174.392C121.298 173.707 120.548 173.013 119.538 173.201L119.333 173.25L119.33 173.251C118.669 173.452 118.129 174.036 118.079 174.755L117.558 174.908C117.543 174.068 118.103 173.313 118.964 172.975L119.176 172.902Z"  />
<path d="M107.408 175.427L107.986 179.369L108.057 179.864L108.552 179.791L111.839 179.313L112.333 179.24L112.261 178.746L111.684 174.806L112.195 174.732L113.488 183.601L112.976 183.674L112.46 180.115L112.388 179.62L111.894 179.693L108.607 180.171L108.113 180.243L108.184 180.737L108.7 184.296L108.189 184.37L106.897 175.501L107.408 175.427Z"  />
<path d="M96.9787 177.222C97.4839 176.319 98.2232 175.734 99.2588 175.736C100.296 175.738 101.034 176.323 101.539 177.225C102.05 178.139 102.283 179.331 102.281 180.365L102.281 180.368C102.284 181.307 102.049 182.495 101.531 183.43C101.018 184.357 100.276 184.965 99.2566 184.962L99.2544 184.962L99.0666 184.955C98.144 184.885 97.4618 184.295 96.9796 183.424C96.5323 182.617 96.2936 181.621 96.235 180.759L96.2342 180.364C96.2317 179.333 96.4662 178.139 96.9787 177.222ZM99.2554 176.127C98.0919 176.13 97.461 176.979 97.1433 177.821C96.8645 178.56 96.7728 179.409 96.7547 180.046L96.751 180.305C96.7509 180.963 96.817 181.978 97.1309 182.848C97.4433 183.713 98.0739 184.596 99.2649 184.601L99.2658 184.601C100.462 184.602 101.093 183.723 101.404 182.855C101.715 181.986 101.776 180.968 101.774 180.306L101.774 180.211L101.769 180.198C101.761 179.552 101.684 178.618 101.383 177.815C101.066 176.969 100.432 176.121 99.2554 176.127Z"  />
<path d="M86.54 176.137C87.1688 175.315 87.9815 174.842 89.0043 174.99C90.0277 175.139 90.6754 175.825 91.0465 176.793C91.4229 177.774 91.4857 178.989 91.3366 180.011C91.2 180.942 90.7946 182.085 90.1482 182.937C89.5073 183.781 88.6867 184.276 87.6794 184.128C86.6702 183.979 86.024 183.269 85.6493 182.279C85.306 181.372 85.2223 180.292 85.3085 179.406L85.3482 179.142C85.4975 178.119 85.9021 176.971 86.54 176.137ZM88.9545 175.376C87.8015 175.209 87.0528 175.956 86.6154 176.744C86.2316 177.436 86.0171 178.263 85.908 178.893L85.8677 179.149C85.776 179.801 85.6954 180.815 85.8814 181.721C86.0665 182.622 86.5638 183.584 87.7431 183.758L87.7453 183.758C88.9303 183.929 89.6805 183.147 90.1123 182.334C90.5456 181.518 90.7526 180.522 90.8464 179.876L90.8659 179.743L90.8604 179.73C90.9436 179.091 90.9932 178.177 90.8128 177.355C90.6193 176.474 90.1148 175.542 88.9554 175.376L88.9545 175.376Z"  />
<path d="M75.7969 174.239C76.1912 172.908 77.5792 172.39 78.9882 172.809L78.9891 172.809C79.6128 172.994 80.2022 173.385 80.5786 173.884C80.9097 174.323 81.066 174.829 80.9677 175.368L80.4413 175.211C80.464 174.819 80.3797 174.444 80.1827 174.117C79.9077 173.659 79.4482 173.341 78.898 173.181C78.4227 173.04 77.8856 173.005 77.4006 173.179C76.9549 173.339 76.5898 173.664 76.3832 174.156L76.3053 174.375C76.0851 175.105 76.3395 175.715 76.7184 176.206C77.0776 176.671 77.6088 177.104 78.047 177.491C78.5136 177.916 78.9178 178.31 79.167 178.746C79.4019 179.157 79.4974 179.604 79.3275 180.169L79.327 180.17C78.9361 181.482 77.6092 182.027 76.2209 181.613L76.22 181.614C75.6656 181.449 75.1378 181.08 74.7995 180.609C74.5287 180.232 74.3915 179.806 74.4335 179.367L74.9334 179.516C74.9148 179.86 75.0054 180.183 75.1926 180.462C75.4599 180.859 75.8892 181.121 76.3492 181.258C76.7818 181.387 77.2826 181.447 77.7428 181.295C78.2358 181.133 78.6103 180.753 78.7873 180.162L78.7886 180.162L78.79 180.155C79.0771 179.15 78.4156 178.434 77.9248 178.004L77.1939 177.359C76.637 176.86 76.1915 176.411 75.9304 175.918C75.6834 175.452 75.5918 174.927 75.796 174.24L75.7969 174.239Z"  />
<path d="M71.4222 170.291L67.6907 178.435L63.1821 176.369L63.3399 176.027L66.934 177.679L67.3889 177.888L67.5974 177.434L68.7195 174.991L68.8742 174.655L68.5972 174.409L68.5793 174.393L68.5234 174.343L68.4551 174.311L65.38 172.906L65.5384 172.563L68.6173 173.97L69.0719 174.179L69.2795 173.724L70.5857 170.872L70.7942 170.417L70.3387 170.209L66.5848 168.494L66.7435 168.152L71.4222 170.291Z"  />
<path d="M52.1868 158.334L49.4575 161.476L49.3751 161.57L49.3474 161.692L48.1911 166.749L47.7955 166.407L48.731 162.616L48.9644 161.671L44.4502 163.475L44.0459 163.126L48.8751 161.276L48.9919 161.232L49.0733 161.138L51.8012 157.998L52.1868 158.334Z"  />
<path d="M39.3765 151.502C40.1565 150.832 41.2096 150.234 42.2347 150.026C43.248 149.819 44.1736 149.997 44.8511 150.78C45.5278 151.563 45.5661 152.502 45.2109 153.473C44.8957 154.334 44.2813 155.174 43.6095 155.821L43.3181 156.087C42.6067 156.701 41.5529 157.297 40.5078 157.515C39.4717 157.73 38.5274 157.565 37.8637 156.793C37.1998 156.021 37.1777 155.061 37.5464 154.068C37.9183 153.066 38.6661 152.114 39.3788 151.505L39.3765 151.502ZM41.8922 150.532C41.1497 150.802 40.4469 151.286 39.9553 151.687L39.7586 151.853C39.2633 152.284 38.5363 152.995 38.0822 153.798C37.6302 154.597 37.3727 155.649 38.1512 156.552C38.9308 157.459 40.0083 157.363 40.8679 157.034C41.73 156.704 42.542 156.088 43.0434 155.662L43.6581 155.14L43.6022 155.116C43.9794 154.73 44.3768 154.257 44.6585 153.743C45.0915 152.953 45.3205 151.923 44.5572 151.035L44.5569 151.034L44.4102 150.88C43.6632 150.161 42.6856 150.243 41.8922 150.532Z"  />
<path d="M34.6959 141.712C35.5447 141.173 36.2862 140.99 36.9174 141.105C37.4616 141.205 38.0057 141.541 38.5174 142.227L38.7341 142.544C39.3092 143.449 39.4263 144.192 39.2635 144.802C39.1187 145.345 38.7305 145.867 38.0669 146.35L37.7652 146.556L32.5953 149.843L32.3102 149.395L37.4099 146.156L37.4108 146.156C38.0068 145.776 38.548 145.339 38.7797 144.75C39.03 144.112 38.8708 143.443 38.4205 142.735C37.9709 142.028 37.4337 141.599 36.7497 141.554C36.1954 141.518 35.646 141.747 35.1147 142.06L34.8883 142.199L29.8006 145.431L29.5251 145L34.6959 141.712Z"  />
<path d="M32.7968 131.424L30.1475 134.96L29.9699 135.197L30.0921 135.466L30.5895 136.566L30.7952 137.02L31.2497 136.816L34.5479 135.334L34.7563 135.798L26.58 139.473L25.6007 137.285L25.6003 137.284C25.2606 136.527 25.1793 135.82 25.3413 135.241C25.4988 134.679 25.9044 134.17 26.6808 133.82L26.6795 133.819C27.6603 133.377 28.6936 133.553 29.2666 134.385L29.6719 134.973L30.086 134.391L32.5636 130.906L32.7968 131.424ZM26.8433 134.313C26.4945 134.469 26.2135 134.669 26.0115 134.921C25.8055 135.178 25.702 135.466 25.6743 135.761C25.622 136.319 25.8423 136.897 26.0611 137.387L26.5083 138.391L26.7124 138.849L27.17 138.644L29.9705 137.386L30.425 137.181L30.222 136.726L29.7668 135.702L29.7657 135.7C29.5098 135.133 29.1884 134.587 28.693 134.289C28.217 134.003 27.6786 133.998 27.0938 134.211L26.8433 134.313Z"  />
<path d="M19.1926 112.362L19.6335 115.547L19.7021 116.042L20.1974 115.974L22.3491 115.676L22.3694 115.816L22.9733 115.575L22.8483 115.105L23.2734 115.047L22.9315 112.576L23.3141 112.523L23.6552 114.995L23.7237 115.49L24.219 115.421L28.193 114.873L28.2621 115.378L19.3897 116.608L18.81 112.415L19.1926 112.362Z"  />
<path d="M24.5531 100.611C25.5625 100.619 26.2859 100.867 26.7538 101.305C27.2142 101.736 27.5074 102.426 27.4979 103.496L27.4974 103.497C27.4896 104.572 27.1848 105.258 26.7178 105.681C26.2427 106.111 25.5155 106.346 24.5125 106.341L18.3862 106.293L18.389 105.771L24.4078 105.816C25.1165 105.821 25.8084 105.748 26.3229 105.377C26.8786 104.976 27.1066 104.327 27.1124 103.489C27.1181 102.652 26.901 101.999 26.3531 101.589C25.8448 101.209 25.1541 101.124 24.4445 101.118L18.4208 101.074L18.4246 100.563L24.5531 100.611Z"  />
<path d="M20.1399 88.9929L19.8066 91.1537L19.7298 91.6482L20.2248 91.7238L28.2206 92.9528L28.1417 93.466L20.1541 92.239L19.66 92.163L19.5837 92.6562L19.2497 94.8205L18.8679 94.7627L19.7595 88.9357L20.1399 88.9929Z"  />
<path d="M28.5845 79.6129L28.5858 79.6134C29.5494 79.9033 30.1727 80.3474 30.4975 80.9023C30.8175 81.4493 30.9022 82.1983 30.5921 83.2234C30.2788 84.2562 29.7935 84.8267 29.2269 85.0993C28.6504 85.3766 27.886 85.3957 26.9186 85.1047L21.0525 83.3233L21.2054 82.8216L26.9717 84.5692C27.65 84.7759 28.3369 84.9014 28.9367 84.6915C29.5847 84.4646 29.9871 83.9051 30.2264 83.1003C30.4692 82.2981 30.4463 81.6117 30.0365 81.0645C29.6563 80.557 29.0179 80.2813 28.3412 80.0751L22.5673 78.3242L22.7172 77.831L28.5845 79.6129Z"  />
<path d="M27.3696 68.2851C27.8316 68.069 28.387 68.0245 29.0387 68.2617L29.3238 68.3802C30.2976 68.8412 30.8343 69.7297 30.5823 70.703L30.4041 71.3915L31.1121 71.3263L35.3617 70.9363L35.1192 71.4507L30.7071 71.7469L30.4122 71.7669L30.2877 72.0344L29.7752 73.131L29.5638 73.5835L30.0155 73.7953L33.3125 75.3403L33.0993 75.7936L24.976 71.9875L25.9891 69.8201C26.3437 69.064 26.826 68.5395 27.3696 68.2851ZM28.0521 68.5823C27.7222 68.5937 27.4365 68.7033 27.1944 68.8757C26.7385 69.2004 26.445 69.7459 26.2175 70.2283L26.2166 70.2287L25.7473 71.2281L25.5341 71.6814L25.9879 71.8934L28.7677 73.1939L29.2193 73.4057L29.4182 72.9823L29.424 72.9968L29.9127 71.9487C30.1769 71.382 30.3812 70.7821 30.2828 70.2117C30.175 69.5869 29.7369 69.1389 29.0574 68.8189C28.7104 68.6555 28.3755 68.5713 28.0521 68.5823Z"  />
<path d="M33.4252 57.6415L31.2591 60.9448L30.9854 61.3624L31.402 61.6365L33.5189 63.0285L33.8215 63.7857L34.3473 62.9803L36.1955 60.15L36.5168 60.3591L34.6697 63.187L34.3962 63.6054L34.8147 63.8788L37.4338 65.5906L37.8523 65.8641L38.1257 65.4456L40.384 61.9887L40.7049 62.1969L37.8822 66.4968L30.383 61.5894L33.1043 57.4332L33.4252 57.6415Z"  />
<path d="M60.6501 40.4079L58.8639 41.5224L58.063 40.2366L59.8492 39.1221L60.6501 40.4079Z"  />
</svg>
