<svg width="149" height="115" viewBox="0 0 149 115" fill="none" xmlns="http://www.w3.org/2000/svg">
<path d="M148.053 63.8723C145.285 57.8993 141.104 53.0228 135.574 49.3056C134.989 48.9124 134.312 48.5749 133.624 48.368C127.676 46.6291 121.738 44.9606 115.385 46.3453C112.557 46.9614 109.644 47.1732 106.363 47.6218C106.933 46.4399 107.419 45.585 107.766 44.6629C108.158 43.6487 108.388 42.5993 108.722 41.5788C109.551 39.0423 109.494 36.5268 107.865 34.3695C105.165 30.7816 105.66 27.0579 106.814 23.1151C107.927 19.2926 110.104 16.4287 113.44 14.1803C116.028 12.4358 118.86 11.2171 121.694 10.0124C123.877 9.08316 125.975 9.52752 127.681 11.3015C128.432 12.0734 129.221 12.8113 130.072 13.4693C130.858 14.0786 132.432 13.5194 132.835 12.5897C133.92 10.1331 132.905 6.70179 130.705 5.51151C129.604 4.90229 128.305 4.53499 127.353 3.76192C123.42 0.600616 118.67 0.275142 113.943 0.0181141C112.599 -0.0561476 111.257 0.0986279 109.942 0.450442C109.648 0.605396 109.337 0.748202 109.009 0.864786C108.832 0.93204 108.638 0.987146 108.461 1.0544C108.022 1.20046 107.579 1.31837 107.116 1.39599C106.469 1.59908 105.441 2.47091 104.781 2.89089C103.816 3.4959 102.86 4.05676 101.866 4.5511C95.8901 8.37893 90.7045 13.1597 86.1638 18.6695C83.1603 22.306 80.2689 26.0275 78.8361 30.5533C77.6177 30.2467 77.2545 29.4792 76.9201 28.6073C75.3685 24.6043 73.8413 20.5693 71.0415 17.1957C67.162 12.536 62.3976 9.58876 55.9747 9.93642C54.8909 9.98424 53.8006 9.77488 52.7071 9.75233C52.4478 9.74476 52.1745 9.73913 51.903 9.74756C51.9011 9.73349 51.8973 9.70534 51.9075 9.67527C49.9319 9.91669 47.9704 9.84078 45.9486 9.74442C44.9161 9.95728 43.8733 10.2002 42.8465 10.4553C42.8183 10.4591 42.8042 10.4611 42.776 10.4649C42.7799 10.4931 42.7978 10.5193 42.8157 10.5455C40.7404 11.0013 38.7118 11.6944 36.7275 12.7113C30.8609 15.7643 25.6572 19.5726 20.9747 24.2559C16.3691 28.8713 13.0505 34.085 10.981 40.1458C10.2012 42.4173 10.1371 44.6771 10.3016 47.0345C10.533 50.3005 12.1288 52.3189 15.2449 53.2836C16.5657 51.2965 16.8396 50.8863 16.1601 49.9039C13.4979 46.0671 14.7651 42.3239 16.46 38.6655C17.9105 35.5281 23.9812 29.6657 27.2291 28.1321C33.3076 25.2651 39.4867 25.0225 45.8027 27.3562C47.6921 28.0584 48.8947 29.2991 49.2793 31.1677C49.8101 33.7905 50.2 36.4326 49.9299 39.1793C49.4223 44.281 49.7539 49.225 53.9097 53.0727C53.9757 53.1354 53.8919 53.3619 53.8619 53.6671C53.3971 53.7306 52.7499 54.0342 52.4074 53.8373C49.0862 51.897 45.3348 52.2665 41.7805 52.2937C36.9938 52.3316 32.4847 53.9804 28.0871 55.8146C21.4362 58.5878 15.5686 62.4725 10.5919 67.6261C6.64486 71.7071 3.34842 76.2439 1.00537 81.3528C-0.673541 85.0233 -0.185405 88.6986 1.99085 92.1287C2.70174 93.2359 3.64429 93.9386 4.87743 94.4582C12.2622 97.5776 19.6871 97.7382 27.2464 94.9985C30.1577 93.941 33.1877 93.5411 36.557 93.5249C36.2173 94.5032 35.9691 95.3114 35.6991 96.0651C35.6684 96.1554 35.6236 96.2475 35.5929 96.3377C35.2436 97.2457 34.103 100.341 33.5417 103.686C33.444 104.546 33.3642 105.431 33.3248 106.297C33.2097 109.338 33.3679 112.384 35.1324 115.111C36.4069 117.087 38.2804 118.408 40.5165 118.289C42.0126 118.213 43.1072 117.404 43.9161 116.29C44.2278 111.33 43.1696 106.528 43.0634 101.553C42.8455 100.694 42.7704 99.8297 42.8879 99.0107C43.0458 97.8565 43.4578 96.8826 44.0318 96.0442L43.7642 96.0808C43.7911 95.9624 43.818 95.844 43.8448 95.7257C44.3021 93.9284 44.9498 93.209 46.7102 92.9683C48.3439 92.7449 49.9988 92.6764 51.6287 92.4249C54.9588 91.9122 57.9155 90.6621 60.0191 87.8941C60.5663 87.1742 61.1615 86.4906 61.7906 85.8455C63.8784 83.6962 65.0281 81.0873 65.6144 78.2401C66.0332 76.1613 66.3035 74.0454 66.609 72.0825C65.8916 70.7181 65.0526 69.5138 64.5824 68.1731C61.9569 60.6179 61.9851 60.614 57.5441 55.73C58.8538 55.2355 60.097 55.0942 61.341 55.4833C62.8117 55.9561 64.3238 55.8927 65.6539 55.3381C70.241 53.4206 74.5829 51.1782 76.6533 46.2786C76.9796 45.5171 77.6567 44.9084 78.362 43.9804C80.8084 49.9113 85.2533 52.5151 91.1623 53.0263C91.8877 53.0848 92.6206 52.8842 93.3582 52.9268C93.9369 52.9624 94.7607 52.3766 95.0516 53.4551C92.638 55.6346 90.2385 57.8122 87.823 59.9776C83.0624 64.2988 80.448 69.7316 79.4611 75.9455C78.5836 81.3846 80.8637 85.5748 85.9012 87.5814C89.6493 89.0762 93.5297 89.9651 97.653 89.2723C98.3271 89.1658 98.9909 89.0894 99.667 88.997C99.6388 89.0008 99.6145 89.0328 99.5742 89.0526C99.9403 89.0026 100.312 88.9947 100.672 89.0029C100.827 88.9817 100.962 88.9202 101.117 88.8991C105.145 88.3484 108.87 85.6885 112.69 84.349C115.536 83.3433 118.463 82.7138 121.375 82.8174C123.446 82.5344 125.563 82.4887 127.762 82.8332C130.971 83.3263 134.266 83.392 137.556 82.8992C141.998 82.2345 144.795 79.8162 146.526 75.8949C147.633 73.3923 148.132 70.7434 148.502 68.0978C148.687 66.7247 148.582 65.1189 148.013 63.8921L148.053 63.8723ZM21.3622 64.4475C27.4686 60.3151 34.3154 58.0313 41.5422 56.7421C43.1804 56.4465 44.6996 56.5399 46.2823 57.4131C47.819 58.264 49.691 58.5242 51.3249 59.247C52.8046 59.8906 54.1742 60.7787 55.5643 61.6066C58.0159 63.0635 58.7617 65.3702 58.7656 68.0221C58.7645 68.8538 58.2359 69.4995 57.4721 69.4749C54.2545 69.3414 50.9417 69.9807 47.8454 68.7409C46.0847 68.0353 44.3562 67.9849 42.5112 68.2372C38.1594 68.8321 33.9337 69.8256 29.8965 71.5676C29.5579 71.7143 29.2769 71.9677 28.9344 72.0862C28.0683 72.3624 27.1914 72.769 26.3066 72.8039C21.004 73.0558 16.1366 75.4417 10.8673 75.8324C10.7406 75.8497 10.601 75.6681 10.2527 75.429C13.3007 71.0695 16.9758 67.4128 21.3622 64.4475ZM60.3542 74.1849C61.2011 76.3918 60.3035 78.5361 59.4142 80.6362C59.0655 81.4437 58.3198 82.0762 57.8367 82.8447C56.5011 84.9342 54.6851 85.713 52.2222 85.1178C50.0121 84.5884 47.9265 85.0742 45.823 85.8493C44.1286 86.468 42.3464 86.9698 40.5616 87.2425C35.8673 87.956 31.1947 88.4084 26.6241 89.9222C23.2058 91.0491 19.4448 91.3482 15.8003 91.6601C12.8939 91.9141 9.97891 91.266 7.34739 89.9627C4.23887 88.4235 3.98754 84.4864 6.78462 82.3835C7.49958 81.8413 8.30157 81.2012 9.14082 81.0434C13.2385 80.2682 16.958 77.8815 21.819 78.1774C22.1373 78.7218 22.4403 79.1535 22.6484 79.6268C23.4677 81.4217 24.909 82.4146 26.8476 82.637C28.4648 82.8174 30.1216 83.0783 31.7246 82.9452C35.0011 82.6693 38.2685 82.2225 41.5263 81.7054C42.7618 81.5079 43.9255 80.89 45.1437 80.5657C47.5135 79.955 48.9055 78.4886 49.4926 76.1717C49.6576 75.4897 50.0614 74.8753 50.3877 74.1138C53.6313 72.9679 56.8137 73.264 60.3401 74.1869L60.3542 74.1849ZM72.6289 40.6638C71.7939 45.0504 67.7509 49.0585 62.8932 49.5219C58.2769 49.9666 55.9232 48.5966 55.511 44.0077C55.321 41.8831 55.2232 39.8033 55.4415 37.6228C55.8783 33.2619 55.0315 29.0622 51.8803 25.6363C50.2787 23.8911 48.5319 22.5528 45.9979 22.0677C43.1566 21.5386 40.4227 20.536 37.4357 20.8297C36.6131 20.8991 35.7256 20.3896 34.5316 20.0511C35.308 19.3284 35.738 18.6961 36.3589 18.4105C38.6511 17.3373 40.9575 16.2621 43.3368 15.4063C44.6766 14.922 46.1983 14.6136 47.6093 14.6501C51.2232 14.7438 54.832 15.0103 58.4261 15.3792C61.4677 15.6945 64.0027 17.3408 65.8751 19.4935C69.3409 23.4355 71.7312 28.012 72.8011 33.2135C73.3183 35.7379 73.0821 38.2075 72.6148 40.6657L72.6289 40.6638ZM94.075 47.1512C91.3025 47.86 88.7402 47.0634 86.6394 45.7592C84.0981 44.1711 82.5725 41.5122 82.7702 38.4457C83.1406 32.7605 85.0259 27.5564 88.9383 23.2222C91.4785 20.3945 94.1506 17.6922 96.8527 15.0002C99.9594 11.9087 103.676 9.60835 107.541 7.54594C108.959 6.79294 110.577 6.35654 112.114 5.84533C112.402 5.7486 113.061 5.94536 113.082 6.10017C113.168 6.51855 113.186 7.17559 112.915 7.39899C111.557 8.58828 110.115 9.68868 108.673 10.7891C104.385 14.0564 102.403 18.5568 101.257 23.6025C100.391 27.4486 101.173 31.0693 102.188 34.7156C102.328 35.2126 102.83 35.6315 102.969 36.1285C104.067 40.165 104.243 42.1911 100.049 44.8864C98.1905 46.0868 96.3201 47.2027 94.089 47.1493L94.075 47.1512ZM94.3027 61.1993C97.5887 58.6854 101.056 56.4479 104.971 54.9664C105.817 54.65 106.772 54.29 107.606 54.4054C109.359 54.6388 110.803 54.2837 112.143 53.1687C112.684 52.7219 113.363 52.2277 114.028 52.1653C117.806 51.7779 121.499 50.7712 125.418 51.5256C127.113 51.8531 128.478 52.5985 129.917 53.2619C133.012 54.7026 136.115 56.1996 138.095 59.1404C137.516 60.1515 136.538 60.0272 135.696 59.9559C133.707 59.7834 131.741 59.4644 129.758 59.2336C128.87 59.14 127.93 58.9817 127.075 59.1273C123.615 59.7437 120.166 59.3837 116.775 58.9297C113.778 58.5222 111.007 59.1306 108.172 59.8049C105.7 60.4009 103.274 61.2343 100.773 61.6193C98.6081 61.944 96.4623 62.094 94.6125 63.4652C94.2873 63.7104 93.5971 63.4893 92.6343 63.4776C93.3216 62.5234 93.6664 61.6877 94.3027 61.1993ZM142.42 70.7357C142.147 74.085 139.643 75.603 137.053 77.018C136.613 77.2645 135.99 77.3211 135.455 77.2938C132.559 77.1019 129.668 76.6227 126.778 76.6879C122.028 76.7783 117.274 77.3709 112.733 78.8949C109.291 80.0538 105.963 81.5268 102.534 82.6837C98.6663 83.9867 94.68 84.3166 90.6625 83.4752C89.9538 83.3284 89.27 83.0491 88.5798 82.828C83.8242 81.4137 83.3955 75.2356 86.2073 72.7149C87.1532 71.8687 88.0242 70.789 89.1368 70.3215C91.6339 69.2776 94.2521 68.4895 96.8619 67.7456C98.2574 67.3541 99.2658 67.804 99.829 69.4045C101.09 72.9598 104.171 73.4562 107.252 73.8521C109.222 74.0988 111.24 73.9521 113.242 73.9077C116.288 73.8353 118.743 72.1664 121.395 71.0008C123.06 70.2714 124.08 69.2287 124.539 67.5459C124.682 67.0245 124.917 66.5337 125.137 66.0448C125.279 65.7242 125.498 65.4362 125.813 64.9057C131.327 63.0479 136.141 65.4149 141.103 66.2418C141.734 66.342 142.254 67.002 142.857 67.4214C142.693 68.6339 142.491 69.6794 142.408 70.7517L142.42 70.7357Z" fill="black"/>
</svg>
