<svg width="136" height="59" viewBox="0 0 136 59" fill="currentColor" xmlns="http://www.w3.org/2000/svg">
<path d="M112.8 21C113.6 19.9 114.3 18.8 115.1 17.7C115.3 17.4 115.5 17 115.8 16.8C116.8 16.1 117.3 15.2 117.5 14C117.5 13.8 117.6 13.7 117.7 13.5C118.2 12.3 118.5 12 119.4 12C120.3 12 121.5 12.5 121.8 13.5C122.4 15.6 122.9 17.7 123.4 19.8C123.6 20.7 123.9 21.5 124.1 22.4C124.2 23.5 124.3 24.6 124.3 25.7C124.3 27.5 124.8 28 126.6 28.1C128.5 28.3 130.5 28.5 132.4 28.8C134.8 29.1 135.7 30.9 135 33.2C134.5 34.8 133.8 36.1 132.6 37.2C131.1 38.5 129.7 40 128.2 41.3C127.1 42.2 126.7 43.4 126.9 44.7C127.2 47.8 127.5 50.9 127.7 54C127.7 55 127.7 56.1 127.6 57.2C127.3 58.5 126.4 59.1 125.1 58.7C123.5 58.3 122 57.4 120.8 56.2C119.4 54.7 118.1 53 116.8 51.4C116.1 50.5 115.4 49.7 114.7 48.8C114.1 48.1 113.5 48 112.6 48.5C111.5 49.2 110.4 49.8 109.3 50.5C108.2 51.2 107 51.9 105.9 52.6C104.5 53.5 102.9 54.2 101.6 55.2C99.4999 56.7 97.3999 55 97.2999 53C97.2999 52.1 97.2999 51.1 97.4999 50.2C97.8999 48.5 98.2999 46.8 98.9999 45.2C99.6999 43.6 100.6 42 101.5 40.4C101.7 40.1 101.9 39.7 102.1 39.4C102.4 38.9 102.4 38.4 102.1 37.9C100.7 35.6 99.3999 33.3 98.0999 30.9C97.3999 29.7 96.8999 28.4 96.9999 26.9C96.9999 26.6 96.9999 26.4 96.7999 26.1C96.2999 24.1 96.9999 22.9 98.9999 22.6H99.4999C101.8 23.1 104.2 23.1 106.3 24.2C107.4 24.7 108.5 24.7 109.6 24.8C110.3 24.8 110.7 24.4 111.1 23.9C111.8 22.9 112.4 21.9 113.1 20.8L112.8 21ZM105.3 43.7C104.9 44.7 104.3 45.9 103.8 47.1V47.6H104.3C104.3 47.6 104.5 47.6 104.6 47.4C106.3 46.6 107.8 45.3 109.7 44.9C110.6 43.8 111.9 43.7 113.1 43.1C114.8 42.2 116.2 42.7 117.3 44.2C117.6 44.7 117.9 45.2 118.2 45.6C119.3 46.9 120.4 48.2 121.6 49.5L122 49.7C122.1 49.7 122.3 49.4 122.3 49.2V48.2C122.1 46.5 121.8 44.9 121.6 43.2C121.6 42.6 121.6 42 121.8 41.4C122.1 40.1 122.8 39 124 38.1C125.3 37.1 126.6 36 127.9 34.9C128.3 34.5 128.2 34.2 127.7 34.1C126.8 33.9 125.9 33.8 125.1 33.6C124 33.4 122.8 33.2 121.7 32.8C120.3 32.4 119.8 31.5 119.8 30C119.8 28.5 119.8 26.4 119.6 24.7C119.5 23.8 119.7 22.7 118.9 21.9C118.2 22.7 117.3 23.4 116.8 24.3C115.9 26.1 114.6 27.7 113.6 29.4C112.9 30.5 112.1 31 110.8 30.7C108.7 30.2 106.4 30.7 104.4 29.6C104.2 29.6 103.8 29.6 103.7 29.6C103.6 29.6 103.7 30.1 103.7 30.3C104.9 32.3 106 34.3 107.4 36.1C108.3 37.3 108.5 38.3 108.1 39.7C107.7 40.8 107.3 41.9 106.4 42.7C106.1 42.9 105.9 43.2 105.5 43.6H105.2L105.3 43.7Z" />
<path d="M92.8998 21.1009C91.9998 22.3009 90.0998 22.7009 88.8998 22.2009C86.1998 21.1009 83.4998 20.1009 80.7998 19.0009C80.4998 18.9009 80.2998 18.7009 79.9998 18.8009C77.0998 19.0009 74.2998 17.9009 71.3998 17.8009C68.7998 17.6009 66.2998 17.0009 63.6998 17.5009C62.5998 17.7009 61.3998 17.4009 60.1998 17.4009C58.9998 17.4009 56.9998 17.4009 55.2998 17.5009C53.1998 17.6009 51.1998 17.7009 49.0998 17.3009H48.2998C46.5998 17.3009 44.7998 17.2009 43.0998 17.2009C41.3998 17.2009 40.3998 17.3009 39.0998 17.4009H38.2998C36.9998 17.4009 35.5998 17.5009 34.2998 17.7009C31.8998 18.0009 29.7998 15.5009 30.5998 13.2009C30.8998 12.5009 31.2998 12.1009 32.0998 12.0009C34.8998 11.6009 37.6998 10.9009 40.5998 11.1009C41.3998 11.1009 42.1998 11.1009 42.8998 10.9009C44.7998 10.6009 46.5998 10.9009 48.3998 11.4009H49.1998C51.2998 10.8009 53.4998 11.4009 55.5998 11.2009H55.8998C58.5998 12.1009 61.3998 11.4009 64.1998 11.4009C66.9998 11.4009 71.4998 11.2009 74.9998 12.1009C76.5998 12.5009 78.0998 12.9009 79.7998 12.9009C81.4998 12.9009 81.6998 13.4009 82.6998 13.6009C85.6998 14.4009 88.6998 15.0009 91.0998 17.2009C91.6998 17.7009 92.1998 18.4009 92.6998 19.1009C93.2998 19.9009 93.0998 20.7009 92.6998 21.1009H92.8998Z" />
<path d="M105.6 17.3003C104 16.5003 102.4 15.7003 100.9 14.7003C98.1 12.8003 94.8 12.3003 91.7 11.3003C90.4 10.9003 89.2 10.4003 87.9 10.0003C85.3 9.10034 82.6 8.70034 79.8 8.50034C78.5 8.50034 77.2 8.00034 76.9 6.40034C76.9 6.00034 76.6 5.90034 76.2 6.20034C75 7.30034 73.6 7.40034 72.1 6.70034C71.2 6.30034 70.3 6.20034 69.3 6.30034C67.6 6.30034 65.8 6.40034 64.1 6.30034C63.4 6.30034 62.7 5.80034 62 5.40034C61.6 5.20034 61.2 4.50034 60.9 4.50034C60.6 4.50034 60.1 5.00034 59.7 5.30034C58.6 6.10034 57.2 5.90034 56.4 4.90034C55.3 3.60034 55.4 1.70034 56.6 0.700342C57.9 -0.399658 59.9 -0.199658 60.9 1.10034C60.9 1.30034 61.1 1.50034 61.2 1.70034C61.2 2.00034 61.5 2.20034 61.8 1.90034C63.1 0.500342 64.7 0.300342 66.4 0.500342C68.6 0.700342 70.9 0.900342 73.1 1.20034C74.8 1.40034 76 2.30034 76.6 3.90034C76.8 4.50034 77 4.50034 77.5 4.10034C78.7 3.10034 80.2 3.10034 81.6 3.20034C82.2 3.20034 82.8 3.30034 83.4 3.40034C85.4 3.80034 87.4 4.20034 89.4 4.90034C91.3 5.60034 93.2 6.10034 95.1 6.80034C95.9 7.10034 96.7 7.40034 97.4 7.70034C97.6 7.70034 97.8 8.00034 98 8.00034C100.1 8.40034 101.8 9.50034 103.7 10.5003C106.4 11.9003 109.1 13.4003 111.8 14.8003C113.4 15.7003 113.7 17.6003 112.6 19.0003C112 19.8003 111.2 20.0003 110 19.6003C108.4 18.9003 106.9 18.2003 105.3 17.5003V17.3003H105.6Z" />
<path d="M73.5997 39.8998C73.2997 39.8998 72.8997 40.2998 72.4997 40.3998C69.0997 41.0998 65.5998 41.1998 62.1998 41.2998C60.3998 41.2998 58.4998 41.2998 56.6998 41.7998C54.3998 42.2998 52.0998 42.5998 49.8998 43.3998C48.1998 43.0998 46.7997 44.4998 45.0997 44.5998C43.4997 44.5998 41.9997 45.4998 40.4997 46.0998C39.9997 46.2998 39.4997 46.5998 38.9997 46.8998C38.1997 47.2998 37.3997 47.1998 36.7997 46.5998C36.1997 45.8998 35.2997 45.2998 35.6997 44.1998C35.8997 43.3998 36.2998 42.7998 36.8998 42.2998C38.3998 41.0998 40.2997 40.5998 42.0997 40.0998C42.8997 39.8998 43.6997 39.4998 44.4997 39.2998C46.1997 38.7998 47.8997 38.1998 49.5997 37.6998C50.3997 37.4998 51.1998 37.4998 51.8998 37.1998C53.5998 36.4998 55.3998 36.2998 57.1998 36.2998C58.9998 36.2998 58.3998 36.2998 58.9998 36.2998C59.9998 35.9998 60.9997 35.7998 62.0997 36.2998C62.4997 36.2998 63.1997 36.2998 63.5997 36.2998C64.6997 35.5998 65.7998 35.8998 66.8998 35.8998H71.5997C72.6997 35.8998 73.5997 36.3998 73.9997 37.3998C74.4997 38.3998 74.3997 39.3998 73.6997 40.4998V40.1998L73.5997 39.8998Z" />
<path d="M40.7001 31.7992C40.3001 31.2992 39.9001 31.1992 39.4001 31.7992C38.1001 33.0992 36.4001 33.6992 34.6001 33.8992C31.4001 34.1992 28.3001 35.1992 25.1001 36.0992C23.3001 36.5992 21.5001 37.0992 19.8001 37.7992C17.3001 38.7992 14.6001 39.5992 12.5001 41.3992C12.2001 41.6992 11.8001 41.8992 11.4001 42.1992C10.7001 42.5992 10.0001 43.0992 9.20013 42.5992C8.40013 42.0992 8.20013 41.2992 8.30013 40.3992C8.50013 38.2992 9.80013 36.8992 11.4001 35.8992C13.0001 34.8992 14.8001 34.1992 16.4001 33.2992C18.2001 32.2992 20.1001 31.6992 22.1001 31.2992C23.4001 31.0992 24.6001 30.6992 25.8001 30.3992C29.0001 29.5992 32.3001 28.6992 35.5001 27.7992C37.1001 27.3992 38.4001 27.7992 39.3001 29.1992C39.6001 29.7992 39.8001 29.6992 40.2001 29.1992C40.8001 28.1992 42.4001 27.3992 43.4001 27.5992C43.6001 27.5992 43.8001 27.7992 44.0001 27.8992C44.2001 27.8992 44.3001 28.2992 44.4001 28.3992C45.3001 29.7992 45.4001 31.0992 44.6001 31.7992C43.6001 32.6992 42.0001 32.6992 40.7001 31.7992Z" />
<path d="M95.9998 32.2004C95.1998 33.5004 94.0998 33.9004 92.8998 33.6004C90.3998 33.0004 87.9998 32.5004 85.5998 31.8004C82.8998 31.0004 80.1998 30.3004 77.3998 30.2004C74.6998 30.2004 71.8998 29.9004 69.1998 30.2004C68.2998 30.2004 67.0998 29.9004 66.1998 29.4004C65.3998 28.9004 64.8998 28.0004 65.0998 27.0004C65.3998 26.0004 65.6998 25.1004 66.8998 24.9004C67.4998 24.9004 68.0998 24.6004 68.6998 24.6004C71.7998 24.6004 74.8998 24.4004 78.0998 24.4004C81.2998 24.4004 80.6998 24.4004 81.8998 24.8004C84.5998 25.4004 87.1998 26.2004 89.7998 26.9004C90.5998 27.1004 91.3998 27.3004 92.2998 27.4004C93.4998 27.4004 94.4998 28.0004 95.4998 28.7004C96.7998 29.5004 96.8998 29.9004 96.2998 31.3004C96.2998 31.6004 95.9998 31.9004 95.9998 32.0004V32.2004Z" />
<path d="M16.9996 14.5004C17.2996 14.4004 17.6996 14.1004 18.0996 14.0004C19.7996 13.8004 21.4996 13.5004 23.0996 14.5004C23.5996 14.8004 23.7996 14.5004 23.9996 14.2004C24.3996 13.7004 24.7996 13.2004 25.2996 12.7004C25.6996 12.3004 26.1996 12.3004 26.6996 12.7004C28.4996 13.7004 29.1996 15.6004 28.3996 17.6004C28.0996 18.4004 27.5996 18.7004 26.6996 18.6004C26.3996 18.6004 25.9996 18.5004 25.7996 18.3004C24.6996 17.6004 23.7996 17.6004 22.7996 18.7004C21.4996 19.9004 19.6996 20.0004 17.9996 19.5004C16.9996 19.2004 15.9996 17.6004 16.1996 16.5004C16.1996 15.9004 16.5996 15.3004 16.8996 14.6004L16.9996 14.5004Z" />
<path d="M89.0998 40.7C87.7998 42.4 85.8998 42.4 84.7998 40.7C84.4998 40.2 84.1998 39.9 83.6998 40.4C82.8998 41.2 81.7998 40.9 80.7998 40.9C79.7998 40.9 78.9998 40.7 78.1998 40.6C76.9998 40.6 76.4998 40.2 76.0998 39.1C75.5998 37.9 76.0998 36.9 76.7998 36C77.4998 35.3 78.2998 35.1 79.2998 35.6C80.3998 36.1 81.3998 36.6 82.5998 36.4C83.5998 36.4 84.1998 37 84.4998 38C84.4998 38.5 84.8998 38.5 85.0998 38C85.5998 37.1 86.3998 37.1 87.2998 37.3C88.2998 37.5 89.0998 38 89.4998 38.9C89.7998 39.6 89.4998 40.2 89.0998 40.7Z" />
<path d="M57.2997 29.7001C56.5997 30.6001 55.6997 30.9001 54.6997 31.1001C53.5997 31.4001 52.3997 31.7001 51.2997 31.9001C49.1997 32.4001 47.4997 31.4001 46.7997 29.4001C46.2997 28.0001 46.9997 26.5001 48.5997 26.5001C50.1997 26.5001 52.4997 26.0001 54.2997 25.4001C55.1997 25.1001 56.5997 25.9001 57.1997 26.8001C57.9997 28.1001 58.0997 28.9001 57.3997 29.7001H57.2997Z" />
<path d="M53.6004 4.9002C52.9004 5.9002 52.0004 6.3002 51.1004 6.0002C50.9004 6.0002 50.7004 5.8002 50.5004 5.8002C49.3004 5.5002 48.5004 4.7002 48.4004 3.5002C48.4004 2.3002 48.9004 1.3002 50.0004 0.600197C51.1004 -0.0998029 52.5004 0.300197 53.0004 1.4002C53.4004 2.2002 53.6004 3.1002 53.8004 3.9002C53.8004 4.3002 53.8004 4.7002 53.8004 4.9002H53.7004H53.6004Z" />
<path d="M63.5996 29.6002C62.4996 31.2002 60.6996 31.2002 59.6996 29.8002C58.8996 28.8002 58.5996 27.8002 59.1996 26.5002C59.1996 26.5002 59.1996 26.2002 59.4996 26.1002C60.0996 25.4002 61.8996 25.3002 63.0996 26.1002C63.9996 26.6002 64.3996 27.5002 64.0996 28.5002C64.0996 29.0002 63.6996 29.4002 63.5996 29.7002V29.6002Z" />
<path d="M97.9001 42.2003C97.2001 43.2003 95.2001 43.7003 94.3001 43.0003C93.1001 42.2003 92.8001 40.5003 93.7001 39.3003C95.1001 37.6003 95.8001 37.5003 97.2001 38.5003C98.5001 39.5003 98.8001 40.9003 97.9001 42.1003V42.2003Z" />
<path d="M20.6997 52.5004C22.0997 53.5004 22.3996 56.2004 21.3996 57.3004C20.7996 58.0004 18.8996 58.1004 18.2996 57.5004C17.5996 56.7004 17.0996 55.7004 17.4996 54.6004C17.8996 53.5004 18.5996 52.6004 19.7996 52.4004C20.1996 52.4004 20.4997 52.4004 20.6997 52.4004V52.5004Z" />
<path d="M33.2 45.4001C34.3 46.1001 34.4 47.6001 33.5 49.0001C33 49.8001 32 49.9001 31 49.2001C29.7 48.3001 29.3 46.7001 30 45.6001C30.6 44.6001 31.8 44.5001 33.1 45.4001H33.2Z" />
<path d="M2.69999 47.2993C1.89999 48.2993 0.899987 48.2993 0.299987 47.2993C-0.200013 46.5993 -1.25766e-05 45.0993 0.599987 44.4993C0.999987 44.0993 1.49999 44.0993 1.99999 44.2993C2.59999 44.4993 3.09999 44.9993 3.09999 45.6993C3.09999 46.3993 2.89999 46.8993 2.79999 47.1993H2.69999V47.2993Z" />
<path d="M6.6002 44.6008C6.4002 44.6008 6.0002 45.0008 5.7002 44.9008C5.3002 44.9008 4.7002 44.4008 4.6002 44.0008C4.4002 43.3008 4.4002 42.4008 4.6002 41.7008C4.6002 41.3008 5.2002 40.9008 5.6002 40.8008C5.9002 40.8008 6.4002 41.1008 6.7002 41.4008C7.4002 42.2008 7.4002 43.4008 6.7002 44.6008H6.6002Z" />
</svg>
