<svg width="186" height="118" viewBox="0 0 186 118" fill="none" xmlns="http://www.w3.org/2000/svg">
<path d="M28.3237 24.1186C28.4919 23.124 28.9079 22.8358 30.2127 22.7461C35.2855 22.4018 40.6181 22.4862 46.0226 22.998C54.3377 23.7748 63.2165 25.3552 73.1702 27.8169C74.2234 28.0781 74.7543 28.3515 75.1984 29.3447C76.0455 31.3154 77.7293 32.7587 79.7789 33.3065C81.7875 33.8386 83.8839 33.463 85.5508 32.241C86.3055 31.6823 86.8924 31.6242 87.9963 31.9989C112.705 40.1213 132.09 49.2452 148.989 60.6896C155.586 65.163 160.781 69.548 164.864 74.0727C166.551 75.9406 167.985 77.8532 169.177 79.7205C171.442 83.3388 172.119 86.6797 171.145 89.4135C170.171 92.1474 167.51 94.3074 163.466 95.6562C160.501 96.6413 157.114 97.2533 153.061 97.5164C147.988 97.8607 142.458 97.6773 136.108 96.9924C134.861 96.869 134.294 96.6288 133.685 95.5728C132.356 93.3239 130.068 91.8614 127.579 91.6633C125.429 91.5009 123.453 92.2991 122.139 93.8911C121.53 94.6231 120.972 94.6686 119.669 94.3827C103.192 90.8877 86.9373 85.6421 69.9927 78.3213C56.6608 72.569 45.3353 66.4302 35.3339 59.5973C31.3399 56.8714 26.1664 53.1066 21.4751 48.326C19.0966 46.0525 16.1545 42.9755 14.4356 39.2835C13.8441 37.9987 13.0429 36.0925 12.7737 34.272C12.3036 30.8218 13.7685 28.1578 17.321 26.1268C17.6488 25.9462 17.9012 25.9014 18.1887 26.0112C18.2913 26.0505 18.4145 26.0975 18.522 26.1857C18.9883 26.505 19.4086 26.7597 19.832 26.9449C21.9457 27.9407 24.3224 28.0017 26.0516 27.1094C27.2826 26.4738 28.0945 25.3957 28.311 24.0902M174.023 82.372C173.563 81.1137 172.897 79.7769 172.067 78.3774C168.66 72.6992 163.51 68.0727 159.378 64.659C151.707 58.3164 142.71 52.5497 131.06 46.5221C118.171 39.8566 104.186 34.09 89.4738 29.3633C87.9436 28.8728 87.054 28.3682 86.4117 26.9699C85.5411 25.0607 83.7104 23.6319 81.5238 23.1965C79.4682 22.7876 77.5204 23.267 76.1361 24.5499C75.5203 25.1147 75.1133 25.1945 74.0729 24.9617L72.5982 24.6336C68.8578 23.7692 64.9863 22.8784 61.1704 22.1499C48.3918 19.6914 38.0363 18.9586 28.5635 19.8572C27.5853 19.954 26.9409 19.7314 26.2403 19.0402C24.4247 17.2641 22.0973 16.7044 19.4792 17.3983C17.093 18.0396 15.8453 19.7041 16.0729 22.0029C16.1631 22.8138 15.9241 23.1931 15.0541 23.6842C11.2335 25.8011 9.27428 28.9585 9.22341 33.0332C9.18713 35.1606 9.78552 37.4128 11.0283 39.8876C12.8148 43.4643 15.5227 46.9695 19.0446 50.3151C24.9994 56.2843 32.0543 61.5915 41.1973 67.0376C53.4675 74.3373 66.4644 80.5969 80.0366 85.7822C92.541 90.5596 105.578 94.4347 119.026 97.3604C120.48 97.6807 121.219 97.9631 121.862 99.1736C123.086 101.453 125.461 102.996 128.102 103.228C130.292 103.406 132.219 102.613 133.407 101.043C134.123 100.093 134.877 100.028 136.279 100.117C137.451 100.188 138.624 100.26 139.789 100.352C142.882 100.569 146.074 100.777 149.197 100.793C156.451 100.835 162.375 99.8043 167.309 97.666C174.004 94.7411 176.498 89.0118 174.003 82.3641" fill="black"/>
<path d="M39.3769 36.8344C41.8492 35.1672 45.0373 34.644 48.1187 34.3389C52.3044 33.9145 56.8622 34.0558 62.515 34.7802C77.3423 36.6802 92.486 41.0777 108.796 48.2737C119.236 52.8505 127.873 57.7738 135.217 63.3091C139.178 66.305 143.603 69.9957 146.24 74.6736C148.209 78.2025 148.002 80.9 145.584 82.9174C144.545 83.7909 142.995 84.3987 141.505 84.9118C137.875 86.1603 133.745 86.2531 129.833 86.1467C122.057 85.9289 113.668 84.6062 104.162 82.0804C85.1919 77.0445 68.9014 70.0442 54.3258 60.7107C50.2643 58.1002 46.3469 55.0506 42.6608 51.6422C40.1487 48.9178 38.0032 46.4039 37.0544 43.4061C36.166 40.6196 36.9202 38.4606 39.3563 36.8266M34.8457 46.5388C36.2038 49.0812 38.1156 51.5293 40.5763 53.8341C45.9392 59.0125 52.4558 63.5728 61.7068 68.6131C68.5783 72.3678 75.8434 75.7082 83.42 78.6029C89.8057 81.0425 96.4274 83.1724 103.244 84.9767C112.454 87.4132 120.57 88.7728 128.047 89.1585C133.905 89.4673 138.549 89.0766 142.618 87.9724C146.687 86.8681 149.403 84.8705 150.472 82.1964C151.517 79.5839 150.994 76.3957 148.923 72.9459C147.93 71.2959 146.647 69.6054 144.952 67.7581C141.323 63.8304 136.756 60.2032 130.103 56.0613C118.709 48.9317 106.034 43.1242 91.3863 38.3516C77.7401 33.9145 66.2701 31.603 55.2238 31.0769C49.0796 30.7766 44.3118 31.308 40.2357 32.739C36.9227 33.8968 34.6702 35.7892 33.7319 38.1837C32.8219 40.5655 33.1771 43.4542 34.8252 46.5309" fill="black"/>
<path d="M70.4252 60.3693C68.5699 59.1898 66.79 57.8745 65.0923 56.5906C64.3446 56.0226 63.6096 55.4829 62.8746 54.9433C62.5405 54.4627 62.2113 54.0311 61.8899 53.5789C61.1729 52.6226 60.5097 51.7103 60.0215 50.7709C59.4494 49.6817 59.3163 48.7367 59.6349 47.9643C59.9487 47.143 60.7631 46.4894 62.0498 46.0163C65.0331 44.9207 68.3977 44.9827 71.2624 45.183C78.3366 45.6974 85.879 47.4496 95.0124 50.7038C95.8748 51.0333 96.0633 51.3406 96.1165 51.8786C96.2927 53.7577 97.8403 55.6195 100.072 56.6135C102.345 57.6231 104.744 57.5041 106.354 56.3075C106.794 55.9578 107.231 55.9836 108.046 56.4363C111.854 58.4793 116.768 61.3215 120.786 65.0921C121.983 66.2083 123.107 67.5787 124.062 69.1436C124.699 70.1869 124.933 71.0527 124.74 71.8028C124.548 72.5528 123.954 73.2437 122.898 73.8521C121.463 74.7153 119.637 74.9356 118.047 75.0339C113.875 75.2988 109.35 74.8876 104.193 73.7881C91.6193 71.1019 80.2453 66.5682 70.392 60.333M57.2654 52.565C57.8895 53.5799 58.6681 54.5597 59.4799 55.5758C59.8834 56.0594 60.2791 56.5635 60.6795 57.1165L60.7997 57.233C61.5348 57.7726 62.2825 58.3407 63.0507 58.9165C64.7484 60.2005 66.5078 61.5079 68.3963 62.7236C73.9133 66.2667 79.8583 69.2439 86.3262 71.715C91.0281 73.5114 96.0404 75.0499 101.343 76.3226C107.575 77.8094 112.703 78.4276 117.484 78.2308C120.042 78.1256 122.301 77.6945 124.444 76.8896C126.063 76.2847 127.334 75.0526 127.922 73.5126C128.33 72.4449 128.585 70.7305 127.479 68.6373C126.655 67.0989 125.566 65.5769 124.288 64.2416C120.988 60.7456 116.79 57.7534 110.641 54.51C109.266 53.7966 108.488 53.1229 108.168 51.6828C107.755 49.8074 106.432 48.2196 104.529 47.3512C102.53 46.423 100.274 46.4785 98.4722 47.4373C97.3105 48.0759 96.4332 48.0936 94.9059 47.5336C86.7816 44.5944 79.4602 42.8796 72.5231 42.2528C68.6071 41.9097 64.4532 41.758 60.6294 43.1442C58.3888 43.9587 56.8783 45.264 56.2839 46.9429C55.6974 48.6012 56.0506 50.5714 57.2781 52.5934" fill="black"/>
</svg>
