<svg width="143" height="99" viewBox="0 0 143 99" fill="currentColor" xmlns="http://www.w3.org/2000/svg">
<g clip-path="url(#clip0_254_39700)">
<path d="M141.534 75.6377C138.336 73.6013 135.104 71.6151 131.867 69.6444C123.192 64.3621 114.513 59.0913 105.822 53.8361C104.144 52.8237 103.951 52.8739 102.855 54.4312C101.451 56.4289 100.066 58.446 98.7239 60.4863C98.369 61.0234 98.126 61.4949 97.4047 61.0505C95.1056 59.6362 92.8066 58.2296 90.5075 56.8192C89.6936 56.3207 89.5277 55.7334 90.1488 54.918C90.928 53.8979 91.6377 52.8237 92.3745 51.7649C94.3534 48.9209 95.4451 45.8063 94.878 42.317C94.635 40.8061 94.23 39.2759 93.5973 37.8925C93.0033 36.5864 92.8181 35.5547 93.7632 34.3452C94.203 33.7849 94.2531 32.9232 94.4807 32.1967C94.7584 31.3002 94.8703 30.2994 95.3525 29.5305C97.1655 26.6439 99.1058 23.8385 100.981 20.9906C102.466 18.7378 103.966 16.4927 105.378 14.1936C106.223 12.8141 106.038 12.0528 104.888 10.9747C103.496 9.66863 101.717 9.80001 100.629 11.4036C97.9216 15.3953 95.3178 19.4604 92.5674 23.4212C91.0167 25.6508 89.9868 28.3326 87.4061 29.7391C87.1477 29.8821 86.9201 30.199 86.8198 30.4849C86.4302 31.5707 85.7358 31.5978 84.6943 31.4587C79.7953 30.8056 75.3477 31.7253 71.849 35.5547C70.5066 37.0231 69.1487 38.476 67.7871 39.9289C66.599 41.2002 66.2672 41.2737 64.8515 40.3153C62.6142 38.8045 60.4 37.2549 58.2051 35.6861C56.9283 34.7741 56.9244 34.7046 57.8387 33.4139C58.8802 31.9456 60.0066 30.5313 61.0249 29.0474C61.8157 27.892 61.6961 27.3279 60.6083 26.6748C55.3236 23.4985 50.0504 20.299 44.731 17.1844C41.348 15.2021 37.8724 13.386 34.474 11.4307C28.2905 7.87565 22.1456 4.25106 15.9582 0.696028C13.8752 -0.498 13.0034 -0.185002 11.7073 1.8746C10.9203 3.12659 10.0524 4.32448 9.21534 5.5417C6.38011 9.68022 3.51401 13.7994 0.713496 17.9611C-0.358878 19.557 -0.254727 19.955 1.24583 20.9172C5.57004 23.6956 9.88654 26.4894 14.257 29.1943C22.404 34.2293 30.5857 39.2025 38.7481 44.2027C40.8851 45.5127 43.0029 46.8612 45.1553 48.1441C47.0146 49.2532 47.1689 49.1604 48.3223 47.379C49.7226 45.2228 51.1691 43.0937 52.6118 40.9684C53.0284 40.3501 53.4489 39.8903 54.3207 40.4931C56.8049 42.2088 59.3315 43.8665 61.8774 45.4933C62.6991 46.0189 62.6836 46.4826 62.1359 47.1858C61.4222 48.0978 60.7279 49.0329 60.1223 50.0183C58.6179 52.472 56.8164 54.8098 56.936 57.9398C56.9707 58.8865 56.4423 59.3812 55.4432 59.613C52.4189 60.3201 49.4873 61.3905 47.0725 63.3844C43.6085 66.2516 43.5236 68.8522 45.5951 71.9436C47.4968 74.7721 49.873 77.0868 52.6504 78.9841C53.6186 79.6448 53.5723 80.124 52.9667 80.9703C52.2222 82.0097 51.5047 83.0994 50.9839 84.2625C50.3398 85.7155 50.8759 87.0641 52.2106 87.9219C53.4257 88.7063 54.6177 88.4861 55.7595 87.1761C56.5156 86.3028 57.2793 85.4141 57.8849 84.4364C58.4867 83.4588 59.0422 83.5129 59.914 84.0577C62.7299 85.8198 65.8159 86.7704 69.1217 87.2379C74.1712 87.9528 75.9379 85.758 76.3776 80.9162C76.4123 80.5336 76.4085 80.1433 76.3776 79.7569C76.2658 78.0258 76.1385 76.2946 76.0189 74.5635C75.7913 73.5974 75.961 72.8285 76.9678 72.33C77.7663 71.9358 78.4491 71.3176 79.2129 70.8423C80.4935 70.0501 81.5196 69.0763 82.2757 67.7239C83.2439 65.9889 84.4359 64.3775 85.4967 62.6889C86.056 61.8078 86.6655 61.6765 87.5797 62.2059C89.6357 63.3999 91.7458 64.4973 93.8134 65.672C95.013 66.3482 95.0477 66.5569 94.3187 67.778C93.4623 69.2116 92.6214 70.6529 91.6956 72.044C89.5547 75.2706 89.8749 75.9546 93.0766 77.9137C99.8117 82.0445 106.443 86.3492 113.178 90.48C117.78 93.3008 122.486 95.9516 127.138 98.6836C128.102 99.2516 128.731 99.0546 129.356 98.0769C131.358 94.9354 133.449 91.8479 135.513 88.7411C137.758 85.3715 140.049 82.029 142.244 78.6247C143.362 76.882 143.324 76.7815 141.53 75.6377H141.534ZM40.4531 20.5617C40.6961 20.6738 40.9353 20.7588 41.1513 20.8824C43.3616 22.1692 45.5642 23.4598 47.7707 24.7505C48.4072 25.1176 48.4535 25.5658 48.0716 26.1802C47.3271 27.3742 46.6289 28.5953 45.9152 29.8087C45.4755 30.5467 44.9277 30.7283 44.164 30.2453C42.1118 28.947 40.0288 27.695 38.0036 26.358C37.6834 26.1454 37.3324 25.4306 37.4558 25.1871C38.2196 23.7149 39.1107 22.3083 39.9786 20.894C40.0635 20.7511 40.2718 20.6854 40.4531 20.5617ZM23.9779 24.793C25.5157 22.0572 27.6219 21.4518 30.2964 22.9768C31.5732 23.7071 32.8307 24.4723 34.0613 25.276C34.447 25.5272 34.7209 25.9484 35.1645 26.4198C34.0998 27.8998 33.1548 29.2561 32.1402 30.5545C32.0438 30.6742 31.4189 30.4926 31.118 30.3187C28.846 29.0127 26.6048 27.6563 24.3327 26.3464C23.6075 25.9252 23.5844 25.5001 23.9779 24.793ZM23.1022 24.3795C22.7358 24.9707 22.3423 25.1562 21.6865 24.7427C19.5148 23.3787 17.3314 22.034 15.1327 20.7163C14.4075 20.2796 14.3111 19.87 14.8472 19.1899C15.4799 18.3823 16.0238 17.5052 16.5792 16.6434C16.8223 16.2686 16.992 15.8513 17.1964 15.4533C17.3392 15.5731 17.478 15.6929 17.6169 15.8127C17.9062 15.9479 18.2109 16.06 18.4848 16.2184C20.5949 17.4395 22.6895 18.6876 24.8111 19.8894C25.3974 20.2178 25.5093 20.5617 25.1505 21.1182C24.46 22.1963 23.7734 23.2821 23.1022 24.3795ZM33.9995 30.3806C34.6322 29.4957 35.1452 28.5258 35.7547 27.6254C35.9476 27.3356 36.2832 27.1424 36.5416 26.9144C36.8734 27.0999 37.1009 27.2197 37.317 27.3511C39.3846 28.6262 41.4367 29.9401 43.5352 31.1689C44.3877 31.6712 44.2874 32.1079 43.8438 32.8575C41.6798 36.5207 41.699 36.5401 38.1 34.4109C36.8888 33.6922 35.7007 32.9348 34.4817 32.2238C33.6794 31.7562 33.3823 31.2461 33.9995 30.3806ZM32.094 15.6272C34.0844 16.7942 36.098 17.9186 38.1116 19.0431C38.9641 19.5223 39.1107 20.0748 38.5321 20.9056C37.7991 21.9567 37.1742 23.0812 36.4722 24.1477C36.2793 24.4375 35.9668 24.6423 35.7007 24.8973C35.3188 24.6771 35.0488 24.5148 34.7749 24.3602C32.661 23.1507 30.5587 21.9219 28.4255 20.7511C27.5769 20.2874 27.2683 19.8507 27.9665 18.9813C28.7302 18.0384 29.3899 17.0105 30.1074 16.0252C30.6435 15.2833 31.2685 15.1442 32.094 15.6272ZM22.5699 9.99708C24.6645 11.2491 26.7745 12.4779 28.8961 13.6874C29.6792 14.1356 29.8566 14.5413 29.2086 15.318C28.3908 16.3034 27.7427 17.4279 26.979 18.4596C26.7282 18.7997 26.3502 19.0431 26.0339 19.329C25.652 19.132 25.355 19.0006 25.0811 18.8383C23.0984 17.6481 21.1388 16.4232 19.129 15.2755C18.265 14.7809 18.0489 14.2902 18.6854 13.4632C19.4685 12.4431 20.213 11.392 20.9459 10.3371C21.3972 9.68408 21.8794 9.58748 22.5699 9.99708ZM9.30792 8.43982C10.1334 7.29216 10.9396 6.13291 11.7844 5.00071C11.958 4.76886 12.2666 4.63748 12.5212 4.45586C12.8221 4.61043 13.0497 4.71863 13.2695 4.84228C15.2368 5.92811 17.1849 7.04099 19.1676 8.09205C20.0972 8.5828 20.3866 9.06582 19.6575 10.0125C18.913 10.9747 18.3112 12.0451 17.6786 13.0884C17.3044 13.7105 16.8493 13.8303 16.2359 13.4594C14.0372 12.1378 11.8384 10.8124 9.63581 9.50247C9.18063 9.23198 8.94532 8.94603 9.30792 8.43982ZM5.69734 13.7878C6.38782 12.8604 7.01273 11.8867 7.68779 10.9477C8.11983 10.341 8.65215 10.171 9.34264 10.5922C11.4257 11.8596 13.5241 13.1 15.6033 14.3752C15.8425 14.522 16.0083 14.8002 16.3092 15.1287C15.3217 16.4889 14.4113 17.7988 13.42 19.0431C13.3004 19.1899 12.6909 19.0972 12.4093 18.9388C10.2877 17.7409 8.20469 16.4696 6.07537 15.2794C5.33859 14.8698 5.17272 14.4872 5.69734 13.7878ZM7.08603 22.5904C5.85549 21.7789 4.61339 20.9906 3.39829 20.1637C2.21791 19.36 2.1369 18.9658 2.88911 17.7988C3.23242 17.2617 3.62974 16.7555 4.04249 16.2648C4.22764 16.0406 4.50152 15.8938 4.7214 15.7276C5.04928 15.8938 5.28459 15.9943 5.50447 16.1257C7.4872 17.3042 9.46222 18.5021 11.4527 19.6652C12.2705 20.1444 12.4749 20.639 11.9233 21.52C10.0524 24.5109 10.0331 24.5379 7.08603 22.5904ZM17.7018 29.2909C15.827 28.1819 13.987 27.0187 12.1123 25.9097C11.1904 25.3649 11.0554 24.6964 11.6301 23.8385C13.7363 20.697 13.0034 20.6429 16.0932 22.6252C17.6053 23.5951 19.1599 24.4916 20.6759 25.4538C21.023 25.674 21.2931 26.0141 21.7675 26.4584C20.7646 27.61 19.8928 28.6919 18.913 29.6657C18.7664 29.8087 18.0682 29.5073 17.7018 29.2909ZM27.789 35.2456C25.5054 33.9317 23.2488 32.5754 20.9729 31.2461C20.2631 30.8288 20.1783 30.3071 20.6334 29.6541C20.78 29.4416 20.9189 29.2252 21.0616 29.0127C22.152 27.4103 23.5381 27.1166 25.22 28.1316C26.925 29.1595 28.6415 30.1758 30.335 31.2268C30.6821 31.4394 30.9521 31.7794 31.3803 32.1774C30.4854 33.356 29.71 34.4457 28.8421 35.4542C28.7225 35.5933 28.0976 35.4233 27.789 35.2456ZM38.0614 41.1539C37.9534 41.2891 37.3247 41.15 37.0276 40.9761C34.9138 39.7589 32.823 38.4953 30.7246 37.2511C29.9685 36.8028 29.791 36.3198 30.4005 35.5547C33.2126 32.0035 32.0168 32.019 35.7431 34.3104C37.0045 35.0833 38.2543 35.8677 39.5196 36.6328C39.8976 36.8608 40.3026 37.0424 40.8118 37.3013C39.697 38.8933 38.9217 40.0564 38.0614 41.1539ZM48.4843 43.8433C46.0078 46.9617 46.9066 46.9656 43.4889 44.933C42.3355 44.2491 41.1744 43.569 40.0056 42.9043C39.2225 42.46 39.0837 41.9576 39.6777 41.2157C40.2795 40.466 40.7771 39.6391 41.3519 38.8701C41.5254 38.6422 41.7993 38.4953 42.0038 38.3253C42.3471 38.5108 42.5785 38.619 42.7907 38.7581C44.5728 39.898 46.3357 41.0611 48.1333 42.174C48.8932 42.6416 49.0899 43.0782 48.4843 43.8433ZM52.4729 38.105C51.8673 38.8508 51.3504 39.6662 50.7834 40.4467C49.7264 41.9035 49.7148 41.9112 48.2799 40.9993C46.6559 39.9676 45.0512 38.8972 43.4195 37.8809C42.6981 37.4327 42.405 37.0192 43.0144 36.2116C43.7126 35.2958 44.2604 34.2641 44.92 33.3173C45.1167 33.0353 45.4755 32.8652 45.7532 32.6488C46.0811 32.8073 46.3203 32.8961 46.5363 33.0275C48.3994 34.1636 50.2433 35.3306 52.1219 36.4396C52.905 36.8994 53.0863 37.3515 52.4729 38.105ZM54.5752 35.1374C54.1664 35.7363 53.7343 36.0377 52.9898 35.5701C51.0881 34.3761 49.1555 33.2323 47.2345 32.0731C46.6713 31.733 46.3511 31.2809 46.7407 30.6472C47.5778 29.2793 48.4496 27.9346 49.3291 26.5937C49.4564 26.4005 49.7071 26.2923 49.9077 26.1416C50.197 26.2846 50.4323 26.3812 50.6522 26.5087C52.5308 27.6177 54.4248 28.6997 56.2725 29.8512C57.5185 30.6279 57.5185 30.767 56.7393 31.9533C56.0334 33.0237 55.2927 34.0747 54.5752 35.1374ZM62.0201 75.1624C59.7751 78.5358 57.5301 81.9054 55.2619 85.2595C55.0189 85.6227 54.6948 86.0091 54.3129 86.1792C53.9658 86.3376 53.337 86.384 53.1133 86.1753C52.8047 85.8893 52.6812 85.3252 52.6427 84.8653C52.6157 84.5987 52.8857 84.2819 53.067 84.023C55.393 80.7075 57.7229 77.392 60.0683 74.092C60.5659 73.3926 61.1214 72.6739 62.0819 73.497C62.267 73.6554 62.3943 73.8795 62.5679 74.0998C62.3712 74.49 62.2285 74.8494 62.0201 75.1624ZM65.4841 73.5626C65.4649 73.5395 65.4494 73.5201 65.4301 73.497C65.4571 73.5085 65.4803 73.524 65.5073 73.5395C65.5382 73.5704 65.569 73.6013 65.5999 73.6283C65.5613 73.6052 65.5227 73.5858 65.4841 73.5626ZM115.114 73.3424C115.859 73.7906 116.028 74.3162 115.504 75.0735C114.74 76.1826 114.023 77.3225 113.297 78.4624C113.124 78.7329 113.012 79.042 112.885 79.3048C112.252 78.9609 111.97 78.8295 111.708 78.6634C109.54 77.2916 107.392 75.8927 105.204 74.548C104.441 74.0766 104.279 73.582 104.772 72.8246C105.471 71.7504 106.177 70.6723 106.798 69.5516C107.172 68.8677 107.604 68.8059 108.198 69.1614C110.505 70.5525 112.808 71.9513 115.114 73.3424ZM108.618 66.526C109.197 65.6797 109.779 64.8374 110.354 63.995C111.511 62.2986 111.504 62.3063 113.159 63.3303C115.226 64.6094 117.305 65.8652 119.357 67.1597C119.697 67.3723 119.94 67.7355 120.233 68.033C119.99 68.4388 119.84 68.7247 119.658 68.9836C118.929 70.0308 118.169 71.0625 117.456 72.1252C117.031 72.7589 116.638 72.9598 115.893 72.4923C113.618 71.0703 111.322 69.6753 108.981 68.3615C108.013 67.8205 108.113 67.2602 108.618 66.526ZM114.138 79.0614C114.987 77.8557 115.762 76.6038 116.599 75.3904C116.761 75.1586 117.062 75.0272 117.251 74.8842C117.602 75.0542 117.841 75.1508 118.058 75.2861C120.067 76.5419 122.058 77.8326 124.091 79.0498C124.951 79.5637 125.07 80.0854 124.515 80.9084C123.797 81.9672 123.153 83.0762 122.486 84.1698C122.019 84.931 121.475 85.0006 120.731 84.5098C118.694 83.1767 116.638 81.8783 114.57 80.5916C113.93 80.1897 113.621 79.8033 114.138 79.0614ZM118.991 74.5828C118.1 74.0418 117.834 73.4622 118.486 72.5618C119.238 71.5185 119.967 70.4597 120.669 69.3855C121.12 68.6899 121.583 68.6667 122.262 69.0957C124.326 70.3902 126.428 71.6267 128.5 72.9135C128.851 73.1337 129.121 73.4776 129.414 73.752C129.24 74.1152 129.155 74.3587 129.017 74.5712C128.233 75.7459 127.435 76.9129 126.648 78.0837C126.201 78.7522 125.691 78.7986 125.02 78.3658C123.026 77.0829 121.02 75.8116 118.991 74.5828ZM100.41 61.5412C101.127 60.4786 101.771 59.358 102.558 58.3533C102.782 58.0712 103.519 57.878 103.827 58.0326C105.768 59.0141 107.669 60.0806 109.54 61.1973C109.818 61.3635 110.107 62.059 109.984 62.2754C109.154 63.7168 108.221 65.104 107.295 66.4912C107.172 66.6767 106.89 66.754 106.682 66.8776C106.335 66.7115 106.034 66.5956 105.764 66.4333C104.121 65.4324 102.5 64.3968 100.838 63.4269C99.9699 62.9169 99.8696 62.3411 100.41 61.5412ZM96.448 67.8669C97.1153 66.8467 97.7094 65.7802 98.3845 64.7639C98.6082 64.4316 98.9901 64.2036 99.2832 63.9409C99.6497 64.1302 99.885 64.2345 100.101 64.3621C101.818 65.3706 103.511 66.4139 105.247 67.3761C106.223 67.9171 106.273 68.5276 105.687 69.3855C105.073 70.2858 104.495 71.2132 103.951 72.1561C103.519 72.898 103.056 73.1492 102.253 72.6314C100.475 71.4837 98.6622 70.3902 96.8646 69.2773C96.3091 68.9334 96.0044 68.5431 96.448 67.8669ZM98.2842 78.8411C96.5946 77.79 94.851 76.8163 93.2077 75.6995C91.9926 74.8765 91.9656 74.5557 92.6793 73.3037C93.2193 72.3532 93.8288 71.4412 94.4653 70.5563C94.7006 70.224 95.094 70.0038 95.4103 69.7371C95.7575 69.9303 95.989 70.0385 96.2011 70.1738C97.8791 71.248 99.5726 72.2991 101.224 73.4119C102.408 74.2118 102.439 74.4862 101.605 75.7575C101.008 76.6694 100.329 77.5311 99.7153 78.4354C99.3373 78.9957 98.9284 79.2391 98.2842 78.8411ZM107.627 85.2054C105.49 83.7911 103.349 82.3845 101.197 80.9934C100.413 80.4872 100.174 79.954 100.784 79.1039C101.605 77.9601 102.334 76.7506 103.098 75.5643C103.438 75.0349 103.823 74.9306 104.375 75.2938C106.678 76.8086 109 78.2963 111.299 79.811C111.535 79.9656 111.681 80.2477 111.87 80.4679C111.646 80.8621 111.504 81.1441 111.334 81.4108C110.609 82.5468 109.826 83.6481 109.162 84.819C108.738 85.5686 108.298 85.6459 107.627 85.2054ZM117.649 91.133C117.301 90.9321 117.024 90.7775 116.754 90.6152C114.825 89.4676 112.923 88.2774 110.96 87.1916C109.995 86.6583 109.864 86.0594 110.416 85.1822C111.13 84.0384 111.862 82.9062 112.537 81.7431C112.954 81.0282 113.386 81.1635 113.953 81.5306C115.994 82.856 118.05 84.1582 120.098 85.472C120.6 85.7927 121.17 86.1521 120.765 86.8361C120.017 88.1035 119.195 89.3285 118.374 90.5495C118.212 90.7891 117.907 90.9321 117.649 91.133ZM128.118 96.8945C127.99 97.0529 127.261 96.8674 126.907 96.6704C124.561 95.3604 122.247 93.9925 119.909 92.6671C119.153 92.2382 118.914 91.7667 119.442 90.9746C120.183 89.854 120.893 88.7063 121.568 87.5432C121.965 86.8593 122.428 86.8979 122.995 87.2573C125.375 88.7643 127.759 90.2636 130.124 91.7938C130.467 92.0141 130.702 92.4005 131.123 92.8526C130.097 94.263 129.159 95.6193 128.118 96.8945ZM134.182 87.7016C133.592 88.6213 132.97 89.5217 132.4 90.4568C131.983 91.1407 131.516 91.2837 130.818 90.8432C128.426 89.3323 126.004 87.8717 123.632 86.3376C123.354 86.1598 123.061 85.4991 123.176 85.302C124.029 83.8684 124.982 82.4889 125.919 81.1094C126.012 80.9703 126.239 80.9239 126.471 80.8002C126.787 80.9703 127.134 81.1287 127.45 81.3335C129.56 82.6821 131.678 84.023 133.773 85.4025C135.007 86.2178 135.015 86.3917 134.182 87.7016ZM138.946 80.495C138.078 81.7701 137.245 83.0646 136.396 84.3475C135.968 85.0045 135.459 85.1204 134.776 84.676C132.461 83.1728 130.135 81.6929 127.801 80.2206C127.3 79.9038 126.98 79.5637 127.389 78.9841C128.345 77.62 129.31 76.256 130.297 74.9112C130.428 74.7296 130.687 74.6408 130.853 74.5326C131.115 74.6562 131.3 74.7258 131.462 74.8262C133.869 76.3023 136.265 77.7978 138.68 79.2546C139.266 79.6101 139.312 79.9578 138.946 80.495Z" />
</g>
<defs>
<clipPath id="clip0_254_39700">
<rect width="143" height="99" fill="white"/>
</clipPath>
</defs>
</svg>
