<svg width="670" height="190" viewBox="0 0 670 190" fill="none" xmlns="http://www.w3.org/2000/svg">
<g clip-path="url(#clip0_177_20)">
<path d="M478.78 41.5195H474.88V45.4195H478.78V41.5195Z" fill="black"/>
<path d="M46.7198 64.8789H42.8198V68.7789H46.7198V64.8789Z" fill="black"/>
<path d="M147.93 64.8789H144.03V68.7789H147.93V64.8789Z" fill="black"/>
<path d="M412.61 64.8789H408.71V68.7789H412.61V64.8789Z" fill="black"/>
<path d="M587.78 64.8789H583.88V68.7789H587.78V64.8789Z" fill="black"/>
<path d="M354.23 84.3281H350.33V88.2281H354.23V84.3281Z" fill="black"/>
<path d="M665.61 88.23V49.3H669.51V45.4H665.61V0H3.9V11.68H0V15.58H3.9V25.96H0V29.86H3.9V41.54H0V45.44H3.9V57.12H0V61.02H3.9V72.7H0V76.6H3.9V88.28H0V92.18H3.9V103.86H0V107.76H3.9V119.44H0V123.34H3.9V135.02H0V138.92H3.9V150.6H0V154.5H3.9V166.18H0V170.08H3.9V189.54H15.58V185.64H19.48V189.54H42.83V185.64H46.73V189.54H81.76V185.64H85.66V189.54H101.23V185.64H105.13V189.54H128.48V185.64H132.38V189.54H140.16V185.64H144.06V189.54H159.63V185.64H163.53V189.54H182.99V185.64H186.89V189.54H194.67V185.64H198.57V189.54H233.6V185.64H237.5V189.54H253.07V185.64H256.97V189.54H260.87V185.64H264.77V189.54H284.23V185.64H288.13V189.54H315.38V185.64H319.28V189.54H338.74V185.64H342.64V189.54H358.21V185.64H362.11V189.54H381.57V185.64H385.47V189.54H439.97V185.64H443.87V189.54H451.65V185.64H455.55V189.54H486.7V185.64H490.6V189.54H506.17V185.64H510.07V189.54H537.32V185.64H541.22V189.54H556.79V185.64H560.69V189.54H572.37V185.64H576.27V189.54H603.52V185.64H607.42V189.54H622.99V185.64H626.89V189.54H634.67V185.64H638.57V189.54H646.35V185.64H650.25V189.54H654.15V185.64H658.05V189.54H665.83V173.97H669.73V170.07H665.83V100H669.73V96.1H665.83V88.32H665.74L665.61 88.23ZM657.83 166.08H653.93V162.18H657.83V166.08ZM657.83 45.41H653.93V41.51H657.83V45.41ZM653.94 127.15H650.04V123.25H653.94V127.15ZM548.84 177.75H544.94V173.85H548.84V177.75ZM225.76 177.75H221.86V173.85H225.76V177.75ZM15.57 60.98H19.47V64.88H15.57V60.98ZM653.94 29.85H650.04V25.95H653.94V29.85ZM650.05 111.58H646.15V107.68H650.05V111.58ZM650.05 142.73H646.15V138.83H650.05V142.73ZM151.8 169.98H147.9V166.08H151.8V169.98ZM19.46 96.02H23.36V99.92H19.46V96.02ZM70.07 19.46V22.06H66.17V19.46H70.07ZM214.08 19.46V22.06H210.18V19.46H214.08ZM280.26 15.57H284.16V19.47H280.26V15.57ZM404.83 19.46V22.06H400.93V19.46H404.83ZM490.46 22.05H502.14V19.45H506.04V22.05H502.14V25.95H506.04V33.73H502.14V49.3H498.24V60.98H494.34V76.55H490.44V88.23H486.54V103.8H482.64V115.48H478.74V119.38H482.64V123.28H478.74V127.18H474.84V131.08H478.74V134.98H474.84V142.76H470.94V150.54H474.84V154.44H470.94V150.54H467.04V154.44H463.14V150.54H443.68V146.64H447.58V134.96H443.68V131.06H447.58V134.96H451.48V123.28H455.38V119.38H451.48V115.48H455.38V111.58H459.28V107.68H455.38V103.78H459.28V96H455.38V92.1H459.28V96H463.18V80.43H467.08V64.86H470.98V53.18H474.88V45.4H470.98V41.5H474.88V37.6H478.78V29.82H482.68V25.92H478.78V22.02H490.46V22.05ZM533.28 22.05V19.45H537.18V22.05H548.86V19.45H552.76V25.93H556.66V29.83H552.76V37.61H548.86V53.18H544.96V68.75H541.06V80.43H537.16V96H533.26V107.68H529.36V123.25H525.46V134.93H521.56V150.5H498.21V154.4H494.31V138.83H498.21V123.26H502.11V111.58H506.01V99.9H509.91V84.33H513.81V76.55H517.71V72.65H513.81V68.75H517.71V57.07H521.61V45.39H525.51V29.82H529.41V22.04H525.51V19.44H529.41V22.04H533.31H533.3L533.28 22.05ZM650.05 72.66H646.15V68.76H650.05V72.66ZM642.26 154.4H638.36V150.5H630.58V154.4H622.8V150.5H618.9V154.4H615V150.5H607.22V146.6H603.32V142.7H599.42V146.6H595.52V150.5H587.74V154.4H579.96V150.5H576.06V154.4H568.28V150.5H560.5V154.4H556.6V150.5H560.5V146.6H556.6V142.7H552.7V131.02H548.8V127.12H552.7V123.22H548.8V119.32H552.7V111.54H560.48V107.64H556.58V103.74H560.48V107.64H564.38V103.74H576.06V99.84H579.96V103.74H591.64V99.84H595.54V103.74H603.32V92.06H599.42V84.28H579.96V88.18H576.06V95.96H568.28V92.06H564.38V95.96H560.48V92.06H552.7V88.16H556.6V68.7H560.5V72.6H564.4V68.7H576.08V64.8H572.18V60.9H576.08V64.8H583.86V60.9H587.76V64.8H611.11V68.7H618.89V72.6H622.79V76.5H626.69V72.6H630.59V76.5H626.69V88.18H630.59V95.96H626.69V99.86H630.59V107.64H626.69V111.54H630.59V119.32H626.69V123.22H630.59V134.9H638.37V150.47H642.27V154.37H642.26V154.4ZM319.18 166.08H315.28V162.18H319.18V166.08ZM23.35 158.3H27.25V162.2H23.35V158.3ZM23.35 142.73H27.25V146.63H23.35V142.73ZM23.35 123.26H27.25V127.16H23.35V123.26ZM23.35 80.45H27.25V84.35H23.35V80.45ZM23.35 41.52H27.25V45.42H23.35V41.52ZM23.35 25.95H27.25V29.85H23.35V25.95ZM467.1 49.3H463.2V45.4H467.1V49.3ZM463.21 76.55H459.31V72.65H463.21V76.55ZM447.63 115.48H443.73V111.58H447.63V115.48ZM521.59 25.95H517.69V22.05H521.59V25.95ZM521.59 41.52H517.69V37.62H521.59V41.52ZM509.91 76.55H506.01V72.65H509.91V76.55ZM506.03 96.02H502.13V92.12H506.03V96.02ZM525.49 142.73H529.39V146.63H525.49V142.73ZM533.28 111.58H537.18V115.48H533.28V111.58ZM541.06 88.23H544.96V92.13H541.06V88.23ZM642.26 76.55H638.36V72.65H642.26V76.55ZM541.06 154.4H544.96V158.3H541.06V154.4ZM548.84 142.73H544.94V138.83H548.84V142.73ZM638.36 29.85H634.46V25.95H638.36V29.85ZM564.41 45.41H568.31V49.31H564.41V45.41ZM630.58 41.52H626.68V37.62H630.58V41.52ZM634.48 60.98H630.58V57.08H634.48V60.98ZM615.01 41.52H611.11V37.62H615.01V41.52ZM595.56 37.63V41.53H591.66V37.63H595.56ZM583.88 49.3H587.78V53.2H583.88V49.3ZM611.13 53.2H615.03V57.1H611.13V53.2ZM560.51 60.98H564.41V64.88H560.51V60.98ZM599.44 57.1H603.34V61H599.44V57.1ZM603.34 25.95H599.44V22.05H603.34V25.95ZM568.31 25.95H564.41V22.05H568.31V25.95ZM513.81 158.3H509.91V154.4H513.81V158.3ZM490.46 158.3H486.56V154.4H490.46V158.3ZM494.35 99.9H498.25V103.8H494.35V99.9ZM509.91 45.41H513.81V49.31H509.91V45.41ZM291.93 162.18H288.03V158.28H291.93V162.18ZM124.56 162.18H120.66V158.28H124.56V162.18ZM27.25 111.58H31.15V115.48H27.25V111.58ZM373.68 25.95H377.58V29.85H373.68V25.95ZM412.61 150.51V154.41H408.71V150.51H404.81V119.36H412.59V115.46H416.49V119.36H432.06V150.51H412.6H412.61ZM373.68 150.51H365.9V154.41H362V150.51H307.5V138.83H303.6V134.93H311.38V127.15H319.16V119.37H323.06V115.47H319.16V111.57H323.06V115.47H330.84V111.57H326.94V107.67H334.72V99.89H338.62V95.99H346.4V84.31H342.5V88.21H338.6V84.31H334.7V88.21H330.8V84.31H326.9V99.88H319.12V95.98H315.22V99.88H311.32V95.98H303.54V92.08H307.44V64.83H334.69V68.73H338.59V64.83H354.16V68.73H358.06V64.83H385.31V68.73H381.41V72.63H385.31V84.31H381.41V88.21H377.51V92.11H373.61V96.01H369.71V99.91H365.81V107.69H361.91V111.59H358.01V115.49H354.11V119.39H350.21V123.29H346.31V127.19H342.41V131.09H361.87V127.19H365.77V119.41H389.12V131.09H385.22V134.99H389.12V138.89H385.22V150.57H381.32V154.47H377.42V150.57H373.52L373.61 150.53L373.68 150.51ZM253.01 150.51V154.41H245.23V150.51H241.33V154.41H237.43V150.51H225.75V146.61H217.97V138.83H214.07V142.73H210.17V138.83H214.07V134.93H210.17V131.03H206.27V111.57H202.37V107.67H206.27V88.21H210.17V80.43H214.07V76.53H217.97V68.75H221.87V72.65H225.77V68.75H233.55V64.85H253.01V60.95H256.91V64.85H268.59V68.75H276.37V72.65H280.27V68.75H284.17V72.65H280.27V76.55H288.05V84.33H291.95V92.11H295.85V123.26H291.95V131.04H295.85V134.94H291.95V131.04H288.05V138.82H284.15V142.72H280.25V146.62H272.47V150.52H260.79V154.42H256.89V150.52H252.99H253L253.01 150.51ZM182.95 150.51H171.27V154.41H167.37V150.51H159.59V154.41H155.69V150.51H159.59V92.13H155.69V88.23H151.79V84.33H140.11V88.23H136.21V92.13H132.31V103.81H128.41V107.71H132.31V119.39H128.41V123.29H132.31V131.07H140.09V127.17H143.99V131.07H140.09V134.97H143.99V138.87H140.09V142.77H143.99V146.67H140.09V150.57H143.99V154.47H140.09V150.57H105.06V92.19H101.16V84.41H97.26V88.31H93.36V84.41H85.58V88.31H81.68V92.21H77.78V115.56H73.88V119.46H77.78V131.14H93.35V150.6H38.88V131.14H46.66V127.24H50.56V88.31H46.66V84.41H38.88V64.95H42.78V61.05H46.68V64.95H50.58V68.85H54.48V64.95H70.05V68.85H73.95V61.07H77.85V72.75H81.75V68.85H89.53V64.95H85.63V61.05H89.53V64.95H112.88V68.85H124.56V76.63H128.46V80.53H132.36V68.85H140.14V64.95H144.04V61.05H147.94V64.95H167.4V68.85H175.18V72.75H182.96V76.65H179.06V80.55H182.96V84.45H186.86V92.23H182.96V96.13H186.86V103.91H182.96V107.81H186.86V115.59H182.96V119.49H186.86V131.17H190.76V127.27H194.66V131.17H198.56V135.07H194.66V138.97H198.56V142.87H194.66V146.77H198.56V150.67H190.78V154.57H186.88V150.67H182.98L182.95 150.59V150.51ZM155.7 99.9H151.8V96H155.7V99.9ZM147.92 119.37H151.82V123.27H147.92V119.37ZM101.2 107.7H97.3V103.8H101.2V107.7ZM89.53 123.26H93.43V127.16H89.53V123.26ZM42.82 127.15H38.92V123.25H42.82V127.15ZM35.03 96.02H38.93V99.92H35.03V96.02ZM256.9 29.85H260.8V33.75H256.9V29.85ZM389.25 72.66H393.15V76.56H389.25V72.66ZM315.3 123.26H311.4V119.36H315.3V123.26ZM202.41 103.8H198.51V99.9H202.41V103.8ZM373.68 107.7H377.58V111.6H373.68V107.7ZM299.73 76.55H295.83V72.65H299.73V76.55ZM206.3 72.66H202.4V68.76H206.3V72.66ZM334.76 41.52V45.42H330.86V41.52H334.76ZM400.93 64.88H397.03V60.98H400.93V64.88ZM385.36 103.8H389.26V107.7H385.36V103.8ZM397.03 99.9V103.8H393.13V99.9H397.03ZM190.73 53.2H194.63V57.1H190.73V53.2ZM280.26 53.2H276.36V49.3H280.26V53.2ZM315.3 49.3H311.4V45.4H315.3V49.3ZM303.61 49.3H307.51V53.2H303.61V49.3ZM346.43 45.41H350.33V49.31H346.43V45.41ZM424.28 45.41H428.18V49.31H424.28V45.41ZM435.96 45.41H432.06V41.51H435.96V45.41ZM393.14 45.41H389.24V41.51H393.14V45.41ZM186.83 45.41H182.93V41.51H186.83V45.41ZM120.67 49.3H124.57V53.2H120.67V49.3ZM62.28 45.41H66.18V49.31H62.28V45.41ZM50.6 53.2H54.5V57.1H50.6V53.2ZM89.53 49.3H93.43V53.2H89.53V49.3ZM112.88 53.2H116.78V57.1H112.88V53.2ZM179.05 57.1H182.95V61H179.05V57.1ZM194.63 80.45V76.55H198.53V80.45H194.63ZM210.2 57.1H214.1V61H210.2V57.1ZM233.55 53.2H237.45V57.1H233.55V53.2ZM264.68 53.2H268.58V57.1H264.68V53.2ZM295.83 57.1V53.2H299.73V57.1H295.83ZM377.58 53.2H381.48V57.1H377.58V53.2ZM420.39 107.7H424.29V111.6H420.39V107.7ZM428.18 99.9V96H424.28V99.9H420.38V96H416.48V99.9H412.58V96H408.68V99.9H404.78V64.87H408.68V60.97H412.58V64.87H428.15V60.97H432.05V64.87H428.15V68.77H432.05V99.92H428.15H428.16L428.18 99.9ZM404.83 41.52H400.93V37.62H404.83V41.52ZM365.9 41.52H362V37.62H365.9V41.52ZM291.93 41.52H288.03V37.62H291.93V41.52ZM249.12 41.52H245.22V37.62H249.12V41.52ZM237.45 41.52H233.55V37.62H237.45V41.52ZM217.98 41.52H214.08V37.62H217.98V41.52ZM202.41 41.52H198.51V37.62H202.41V41.52ZM155.7 41.52H151.8V37.62H155.7V41.52ZM140.13 41.52H136.23V37.62H140.13V41.52ZM105.1 41.52H101.2V37.62H105.1V41.52ZM81.75 41.52H77.85V37.62H81.75V41.52ZM46.71 41.52H42.81V37.62H46.71V41.52ZM105.1 57.1H109V61H105.1V57.1ZM136.23 57.1V53.2H140.13V57.1H136.23ZM159.6 57.1H163.5V61H159.6V57.1ZM171.27 60.98H175.17V64.88H171.27V60.98ZM225.76 60.98V57.08H229.66V60.98H225.76ZM334.76 57.1H338.66V61H334.76V57.1ZM354.21 57.1H358.11V61H354.21V57.1ZM393.14 146.62H397.04V150.52H393.14V146.62ZM443.75 76.55H447.65V80.45H443.75V76.55ZM447.63 64.88V60.98H451.53V64.88H447.63ZM447.63 33.73V37.63H443.73V33.73H447.63ZM412.61 37.63H408.71V33.73H412.61V37.63ZM323.08 33.73H319.18V29.83H323.08V33.73ZM307.51 33.73H303.61V29.83H307.51V33.73ZM272.48 37.63H268.58V33.73H272.48V37.63ZM163.48 33.73V37.63H159.58V33.73H163.48ZM459.31 53.2H455.41V49.3H459.31V53.2ZM354.21 29.85H350.31V25.95H354.21V29.85ZM171.27 29.85H167.37V25.95H171.27V29.85ZM116.78 29.85H112.88V25.95H116.78V29.85ZM89.53 29.85H85.63V25.95H89.53V29.85ZM62.28 29.85H58.38V25.95H62.28V29.85ZM35.03 53.2H38.93V57.1H35.03V53.2ZM58.38 158.3H62.28V162.2H58.38V158.3ZM210.2 158.3H214.1V162.2H210.2V158.3ZM299.73 154.4H303.63V158.3H299.73V154.4ZM346.43 154.4H350.33V158.3H346.43V154.4ZM459.31 158.3H455.41V154.4H459.31V158.3ZM459.31 25.95H455.41V22.05H459.31V25.95ZM420.39 25.95H416.49V22.05H420.39V25.95ZM389.25 25.95H385.35V22.05H389.25V25.95ZM338.65 25.95H334.75V22.05H338.65V25.95ZM249.12 25.95H245.22V22.05H249.12V25.95ZM151.8 25.95H147.9V22.05H151.8V25.95ZM124.56 25.95H120.66V22.05H124.56V25.95ZM46.71 25.95H42.81V22.05H46.71V25.95ZM27.25 57.1H31.15V61H27.25V57.1ZM46.71 162.18H50.61V166.08H46.71V162.18ZM70.07 158.3H73.97V162.2H70.07V158.3ZM85.63 158.3H89.53V162.2H85.63V158.3ZM105.1 162.18H109V166.08H105.1V162.18ZM330.86 158.3H334.76V162.2H330.86V158.3ZM424.28 158.3H428.18V162.2H424.28V158.3ZM447.63 162.18H451.53V166.08H447.63V162.18ZM607.23 162.18H611.13V166.08H607.23V162.18ZM587.76 99.9H583.86V96H587.76V99.9ZM646.16 49.3H642.26V45.4H646.16V49.3ZM622.81 19.46V22.06H618.91V19.46H622.81ZM576.09 22.05H572.19V19.45H576.09V22.05ZM470.99 22.05H467.09V19.45H470.99V22.05ZM432.06 22.05H428.16V19.45H432.06V22.05ZM276.37 22.05H272.47V19.45H276.37V22.05ZM229.66 22.05H225.76V19.45H229.66V22.05ZM182.95 22.05H179.05V19.45H182.95V22.05ZM38.93 166.08H42.83V169.98H38.93V166.08ZM97.31 166.08H101.21V169.98H97.31V166.08ZM175.16 166.08H179.06V169.98H175.16V166.08ZM194.63 166.08H198.53V169.98H194.63V166.08ZM229.66 166.08H233.56V169.98H229.66V166.08ZM264.68 166.08H268.58V169.98H264.68V166.08ZM385.36 166.08H389.26V169.98H385.36V166.08ZM408.71 166.08H412.61V169.98H408.71V166.08ZM439.85 166.08H443.75V169.98H439.85V166.08ZM529.38 166.08H533.28V169.98H529.38V166.08ZM599.44 166.08H603.34V169.98H599.44V166.08ZM482.68 19.46H478.78V15.56H482.68V19.46ZM439.85 15.57H435.95V11.67H439.85V15.57ZM362 15.57V19.47H358.1V15.57H362ZM307.51 15.57H303.61V11.67H307.51V15.57ZM194.63 19.46H190.73V15.56H194.63V19.46ZM136.23 19.46H132.33V15.56H136.23V19.46ZM97.31 15.57V19.47H93.41V15.57H97.31ZM27.25 15.57H23.35V11.67H27.25V15.57ZM136.23 169.98H140.13V173.88H136.23V169.98ZM186.83 169.98H190.73V173.88H186.83V169.98ZM253.01 169.98H256.91V173.88H253.01V169.98ZM280.26 169.98H284.16V173.88H280.26V169.98ZM350.33 169.98H354.23V173.88H350.33V169.98ZM362 169.98H365.9V173.88H362V169.98ZM377.58 169.98H381.48V173.88H377.58V169.98ZM506.03 169.98H509.93V173.88H506.03V169.98ZM552.73 169.98H556.63V173.88H552.73V169.98ZM576.09 169.98H579.99V173.88H576.09V169.98ZM622.81 169.98H626.71V173.88H622.81V169.98ZM650.05 169.98H646.15V166.08H650.05V169.98ZM646.16 11.68H642.26V7.78H646.16V11.68ZM630.58 11.68H626.68V7.78H630.58V11.68ZM611.13 11.68H607.23V7.78H611.13V11.68ZM583.88 11.68H579.98V7.78H583.88V11.68ZM552.73 11.68H548.83V7.78H552.73V11.68ZM521.59 11.68H517.69V7.78H521.59V11.68ZM494.35 11.68H490.45V7.78H494.35V11.68ZM463.21 11.68H459.31V7.78H463.21V11.68ZM334.76 11.68H330.86V7.78H334.76V11.68ZM319.18 11.68H315.28V7.78H319.18V11.68ZM291.93 11.68H288.03V7.78H291.93V11.68ZM120.67 11.68H116.77V7.78H120.67V11.68ZM73.95 11.68H70.05V7.78H73.95V11.68ZM42.82 11.68H38.92V7.78H42.82V11.68ZM19.46 173.86H23.36V177.76H19.46V173.86ZM81.75 173.86H85.65V177.76H81.75V173.86ZM214.08 177.75H217.98V181.65H214.08V177.75ZM299.73 177.75H303.63V181.65H299.73V177.75ZM307.51 177.75V173.85H311.41V177.75H307.51ZM424.28 177.75H428.18V181.65H424.28V177.75ZM432.06 177.75V173.85H435.96V177.75H432.06ZM470.99 177.75H474.89V181.65H470.99V177.75ZM482.68 173.86H486.58V177.76H482.68V173.86ZM498.24 177.75V173.85H502.14V177.75H498.24ZM525.49 177.75H529.39V181.65H525.49V177.75ZM653.94 3.9V7.8H650.04V3.9H653.94ZM591.66 3.9V7.8H587.76V3.9H591.66ZM564.41 3.9V7.8H560.51V3.9H564.41ZM537.16 3.9V7.8H533.26V3.9H537.16ZM502.13 3.9V7.8H498.23V3.9H502.13ZM478.78 3.9V7.8H474.88V3.9H478.78ZM447.63 3.9V7.8H443.73V3.9H447.63ZM424.28 3.9V7.8H420.38V3.9H424.28ZM408.71 3.9V7.8H404.81V3.9H408.71ZM389.25 3.9V7.8H385.35V3.9H389.25ZM369.78 3.9V7.8H365.88V3.9H369.78ZM350.33 3.9V7.8H346.43V3.9H350.33ZM268.58 3.9V7.8H264.68V3.9H268.58ZM253.01 3.9V7.8H249.11V3.9H253.01ZM237.45 3.9V7.8H233.55V3.9H237.45ZM217.98 3.9V7.8H214.08V3.9H217.98ZM198.52 3.9V7.8H194.62V3.9H198.52ZM175.16 3.9V7.8H171.26V3.9H175.16ZM159.6 3.9V7.8H155.7V3.9H159.6ZM140.13 3.9V7.8H136.23V3.9H140.13ZM105.1 3.9V7.8H101.2V3.9H105.1ZM85.63 3.9V7.8H81.73V3.9H85.63ZM54.5 3.9V7.8H50.6V3.9H54.5ZM31.15 185.55V181.65H35.05V185.55H31.15ZM58.38 185.55V181.65H62.28V185.55H58.38ZM70.07 185.55V181.65H73.97V185.55H70.07ZM89.53 185.55V181.65H93.43V185.55H89.53ZM109 185.55V181.65H112.9V185.55H109ZM120.67 185.55V181.65H124.57V185.55H120.67ZM147.92 185.55V181.65H151.82V185.55H147.92ZM163.48 177.75H167.38V181.65H163.48V177.75ZM175.16 185.55V181.65H179.06V185.55H175.16ZM206.3 185.55V181.65H210.2V185.55H206.3ZM241.33 185.55V181.65H245.23V185.55H241.33ZM272.48 185.55V181.65H276.38V185.55H272.48ZM291.93 185.55V181.65H295.83V185.55H291.93ZM323.08 185.55V181.65H326.98V185.55H323.08ZM334.76 181.65V177.75H338.66V181.65H334.76ZM346.43 185.55V181.65H350.33V185.55H346.43ZM369.78 185.55V181.65H373.68V185.55H369.78ZM393.14 185.55V181.65H397.04V185.55H393.14ZM404.83 185.55V181.65H408.73V185.55H404.83ZM416.5 185.55V181.65H420.4V185.55H416.5ZM459.31 185.55V181.65H463.21V185.55H459.31ZM517.71 185.55V181.65H521.61V185.55H517.71ZM564.41 185.55V181.65H568.31V185.55H564.41ZM583.88 185.55V181.65H587.78V185.55H583.88ZM595.56 185.55V181.65H599.46V185.55H595.56ZM611.13 185.55V181.65H615.03V185.55H611.13ZM638.36 177.75H642.26V181.65H638.36V177.75ZM661.73 99.9H657.83V96H661.73V99.9Z" fill="black"/>
<path d="M595.56 115.48H591.66H587.76H583.88V119.37H579.98H576.09V123.26H579.98V127.15H576.09V131.05H579.98H583.88V134.95H587.76H591.66V131.05V127.15H595.56V131.05H599.44V127.15V123.26V119.37H603.34V115.48H599.44H595.56Z" fill="black"/>
<path d="M54.5001 127.148H50.6001V131.048H54.5001V127.148Z" fill="black"/>
<path d="M256.9 131.051H260.8V127.151H264.7V123.251H268.6V92.1008H264.7V96.0008H260.8V92.1008H264.7V88.2008H256.92V84.3008H249.14V88.2008H245.24V84.3008H241.34V88.2008H237.44V92.1008H233.54V99.8808H229.64V103.781H233.54V107.681H229.64V111.581H233.54V123.261H237.44V127.161H241.34V131.061H249.12V134.961H253.02V127.181H256.92V131.081H256.91L256.9 131.051ZM241.33 99.9008H245.23V103.801H241.33V99.9008ZM260.8 111.581H256.9V107.681H260.8V111.581ZM256.9 119.371H260.8V123.271H256.9V119.371Z" fill="black"/>
<path d="M194.63 131.051H190.73V134.951H194.63V131.051Z" fill="black"/>
<path d="M365.9 131.051H362V134.951H365.9V131.051Z" fill="black"/>
<path d="M607.24 138.828H603.34V142.728H607.24V138.828Z" fill="black"/>
</g>
<defs>
<clipPath id="clip0_177_20">
<rect width="669.6" height="189.46" fill="white"/>
</clipPath>
</defs>
</svg>
