<svg width="430" height="499" viewBox="0 0 430 499" fill="none" xmlns="http://www.w3.org/2000/svg">
<g clip-path="url(#clip0_176_5597)">
<path d="M56.09 0H0V4.67H4.67V9.34H0V18.69H4.67V23.36H0V32.71H4.67V37.38H0V46.73H4.67V51.4H0V60.75H4.67V65.42H0V74.77H4.67V79.44H0V88.79H4.67V93.46H0V102.81H4.67V107.48H0V116.83H4.67V121.5H0V130.85H4.67V135.52H0V144.87H4.67V149.54H0V158.89H4.67V163.56H0V172.91H4.67V177.58H0V186.93H4.67V191.6H0V200.95H4.67V205.62H0V214.97H4.67V219.64H0V228.99H4.67V233.66H0V243.01H4.67V247.68H0V257.03H4.67V261.7H0V271.05H4.67V275.72H0V285.07H4.67V289.74H0V299.09H4.67V303.76H0V313.11H4.67V317.78H0V327.13H4.67V331.8H0V339.59H4.67V344.26H0V353.61H4.67V358.28H0V367.63H4.67V372.3H0V381.65H4.67V386.32H0V395.67H4.67V400.34H0V409.69H4.67V414.36H0V423.71H4.67V428.38H0V437.73H4.67V442.4H0V451.75H4.67V456.42H0V465.77H4.67V470.44H0V479.79H4.67V484.46H0V493.81H4.67V498.48H65.43V0H56.08H56.09ZM56.09 32.72H51.42V28.05H56.09V32.72ZM56.09 74.78H51.42V70.11H56.09V74.78ZM56.09 229.02H51.42V224.35H56.09V229.02ZM56.09 285.11H51.42V280.44H56.09V285.11ZM56.09 339.64H51.42V336.52H56.09V339.64ZM56.09 400.4H51.42V395.73H56.09V400.4ZM56.09 447.14H51.42V442.47H56.09V447.14ZM51.41 126.2H46.74V121.53H51.41V126.2ZM51.41 367.68H46.74V363.01H51.41V367.68ZM18.7 191.63H23.37V196.3H18.7V191.63ZM23.37 358.33H28.04V363H23.37V358.33ZM23.37 88.8H28.04V93.47H23.37V88.8ZM42.07 243.04H37.4V238.37H42.07V243.04ZM42.07 313.15H37.4V308.48H42.07V313.15ZM37.39 336.52H32.72V331.85H37.39V336.52ZM42.07 465.83H37.4V461.16H42.07V465.83ZM28.04 465.83H32.71V470.5H28.04V465.83ZM28.04 433.12H32.71V437.79H28.04V433.12ZM28.04 386.38H32.71V391.05H28.04V386.38ZM28.04 280.43H32.71V285.1H28.04V280.43ZM28.04 243.04H32.71V247.71H28.04V243.04ZM37.39 419.09H32.72V414.42H37.39V419.09ZM28.04 126.2H32.71V130.87H28.04V126.2ZM28.04 56.09H32.71V60.76H28.04V56.09ZM32.72 84.13H37.39V88.8H32.72V84.13ZM37.39 158.91H32.72V154.24H37.39V158.91ZM28.04 186.96H32.71V191.63H28.04V186.96ZM42.07 37.39H37.4V32.72H42.07V37.39ZM60.76 196.3H56.09V191.63H60.76V196.3ZM60.76 158.91H56.09V154.24H60.76V158.91Z" fill="black"/>
<path d="M430 9.35V4.68H425.33V0H177.61V9.35H172.94V14.02H177.61V23.37H172.94V28.04H177.61V37.39H172.94V42.06H177.61V51.41H172.94V56.08H308.48V51.41H313.15V56.08H350.54V51.41H355.21V56.08H369.23V60.75H373.9V65.42H369.23V70.09H364.56V74.76H350.54V79.43H341.19V84.1H327.17V88.77H313.15V93.44H299.13V98.11H289.78V102.78H275.76V107.45H261.74V112.12H247.72V116.79H233.7V121.46H224.35V126.13H210.33V130.8H205.66V182.21H219.68V186.88H229.03V191.55H243.05V196.22H257.07V200.89H271.09V205.56H285.11V210.23H294.46V214.9H308.48V219.57H322.5V224.24H336.52V228.91H345.87V233.58H359.89V238.25H369.24V242.92H373.91V247.59H369.24V256.94H364.57V252.27H355.22V256.94H350.55V252.27H341.2V256.94H336.53V252.27H327.18V256.94H322.51V252.27H313.16V256.94H308.49V252.27H303.82V256.94H299.15V252.27H289.8V256.94H285.13V252.27H275.78V256.94H271.11V252.27H266.44V256.94H261.77V252.27H257.1V256.94H252.43V252.27H243.08V256.94H238.41V252.27H229.06V256.94H224.39V252.27H215.04V256.94H210.37V252.27H201.02V256.94H196.35V252.27H187V256.94H182.33V252.27H172.98V256.94H168.31V252.27H158.96V256.94H154.29V252.27H144.94V256.94H140.27V252.27H130.92V256.94H126.25V252.27H121.58V256.94H116.91V308.35H201.04V303.68H205.71V308.35H224.41V303.68H229.08V308.35H359.95V313.02H364.62V308.35H373.97V313.02H378.64V308.35H430.05V303.68H425.38V299.01H430.05V294.34H425.38V289.67H430.05V285H425.38V280.33H430.05V275.66H425.38V270.99H430.05V266.32H425.38V261.65H430.05V256.98H425.38V252.31H430.05V242.96H425.38V238.29H430.05V233.62H425.38V228.95H430.05V224.28H425.38V219.61H430.05V210.26H425.38V205.59H411.36V200.92H402.01V196.25H383.31V191.58H373.96V186.91H359.94V182.24H345.92V177.57H331.9V172.9H317.88V168.23H303.86V163.56H294.51V149.54H289.84V144.87H294.51V149.54H299.18V144.87H303.85V140.2H322.55V130.85H327.22V135.52H336.57V126.17H341.24V130.84H345.91V126.17H359.93V121.5H378.63V116.83H387.98V112.16H402V107.49H411.35V102.82H416.02V107.49H420.69V102.82H430.04V98.15H425.37V93.48H430.04V88.81H425.37V84.14H430.04V79.47H425.37V74.8H430.04V70.13H425.37V65.46H430.04V60.79H425.37V56.12H430.04V51.45H425.37V46.78H430.04V42.11H425.37V37.44H430.04V32.77H425.37V28.1H430.04V23.43H425.37V18.76H430.04V14.09H425.37V9.42H430.04L430 9.35ZM415.98 28.04H411.31V23.37H415.98V28.04ZM392.61 98.15H387.94V93.48H392.61V98.15ZM411.3 275.76H406.63V271.09H411.3V275.76ZM406.63 46.74H401.96V42.07H406.63V46.74ZM401.96 74.78H397.29V70.11H401.96V74.78ZM224.35 28.04H229.02V32.71H224.35V28.04ZM266.41 28.04H271.08V32.71H266.41V28.04ZM383.26 28.04H378.59V23.37H383.26V28.04ZM369.24 28.04H373.91V32.71H369.24V28.04ZM294.46 23.37H289.79V18.7H294.46V23.37ZM215 32.72H219.67V37.39H215V32.72ZM252.39 32.72H257.06V37.39H252.39V32.72ZM313.15 28.04H317.82V32.71H313.15V28.04ZM341.2 28.04H345.87V32.71H341.2V28.04ZM243.04 158.91H247.71V163.58H243.04V158.91ZM233.7 163.59H238.37V168.26H233.7V163.59ZM261.74 154.24H257.07V149.57H261.74V154.24ZM285.11 182.28H289.78V186.95H285.11V182.28ZM350.54 205.65H355.21V210.32H350.54V205.65ZM163.59 280.43H168.26V285.1H163.59V280.43ZM154.24 285.11H158.91V289.78H154.24V285.11ZM191.63 280.43H196.3V285.1H191.63V280.43ZM252.39 285.11H257.06V289.78H252.39V285.11ZM392.61 285.11H397.28V289.78H392.61V285.11ZM271.09 149.57H266.42V144.9H271.09V149.57ZM317.83 200.98H322.5V205.65H317.83V200.98ZM387.93 229.02H392.6V233.69H387.93V229.02ZM144.89 289.78H149.56V294.45H144.89V289.78ZM224.35 285.11H229.02V289.78H224.35V285.11ZM331.85 289.78H336.52V294.45H331.85V289.78ZM378.59 289.78H383.26V294.45H378.59V289.78ZM341.2 215H345.87V219.67H341.2V215ZM303.8 294.46H308.47V299.13H303.8V294.46ZM369.24 294.46H373.91V299.13H369.24V294.46ZM364.57 107.5H369.24V112.17H364.57V107.5ZM373.91 102.83H378.58V107.5H373.91V102.83ZM359.89 51.41V46.74H364.56V51.41H359.89ZM378.59 238.37H383.26V243.04H378.59V238.37ZM289.78 303.8V299.13H294.45V303.8H289.78ZM355.22 303.8V299.13H359.89V303.8H355.22ZM420.65 247.72H415.98V243.05H420.65V247.72Z" fill="black"/>
<path d="M163.59 56.0898H116.85V112.18H177.61V107.51H172.94V102.84H177.61V98.1698H172.94V93.4998H177.61V88.8298H172.94V84.1598H177.61V79.4898H172.94V74.8198H177.61V70.1498H172.94V65.4798H177.61V60.8098H172.94V56.1398H163.59V56.0898ZM135.54 93.4798H140.21V98.1498H135.54V93.4798Z" fill="black"/>
<path d="M205.65 308.48H200.98V313.15H205.65V308.48Z" fill="black"/>
<path d="M229.02 308.48H224.35V313.15H229.02V308.48Z" fill="black"/>
</g>
<defs>
<clipPath id="clip0_176_5597">
<rect width="430" height="498.55" fill="white"/>
</clipPath>
</defs>
</svg>
