<svg width="664" height="106" viewBox="0 0 664 106" fill="none" xmlns="http://www.w3.org/2000/svg">
<g clip-path="url(#clip0_177_2)">
<path d="M102.99 0H68.66V15.26H64.84V19.08H68.66V21.62H64.84V33.06H61.02V36.88H64.84V40.7H61.02V52.14H57.2V55.96H61.02V59.78H53.39V63.6H57.21V67.42H53.39V63.6H49.57V44.53H45.75V29.27H41.93V25.45H45.75V21.63H41.93V11.46H38.11V7.64H41.93V3.82H38.11V0H0V7.63H3.82V11.45H0V19.08H3.82V21.62H0V29.25H3.82V33.07H0V40.7H3.82V44.52H0V52.15H3.82V55.97H0V63.6H3.82V67.42H0V78.86H3.82V82.68H0V90.31H3.82V94.13H0V101.76H3.82V97.94H7.64V101.76H11.46V97.94H15.28V101.76H22.91V97.94H19.09V94.12H22.91V90.3H19.09V86.48H22.91V78.85H19.09V75.03H22.91V71.21H19.09V67.39H22.91V59.76H19.09V55.94H22.91V52.12H19.09V48.3H22.91V40.67H19.09V36.85H22.91V33.03H19.09V29.21H22.91V25.39H19.09V21.57H22.91V19.03H19.09V15.21H22.91V19.03H26.73V15.21H30.55V19.03H26.73V25.39H30.55V40.65H34.37V59.72H38.19V74.98H42.01V78.8H38.19V82.62H42.01V90.25H45.83V94.07H42.01V97.89H45.83V101.71H49.65V97.89H53.47V101.71H64.91V94.08H68.73V90.26H64.91V86.44H68.73V78.81H64.91V74.99H72.54V71.17H68.72V67.35H72.54V55.91H76.36V52.09H72.54V48.27H76.36V40.64H80.18V36.82H76.36V33H80.18V19.01H84V15.19H87.82V101.64H91.64V97.82H95.46V101.64H99.28V97.82H103.1V101.64H106.92V97.82H110.74V94H106.92V86.37H110.74V82.55H106.92V74.92H110.74V71.1H106.92V67.28H110.74V63.46H106.92V59.64H110.74V55.82H106.92V52H110.74V48.18H106.92V40.55H110.74V36.73H106.92V32.91H110.74V29.09H106.92V21.46H110.74V18.92H106.92V15.1H110.74V11.28H106.92V3.82H110.74V0H103.04H102.99ZM99.17 19.07H95.35V15.25H99.17V19.07ZM99.17 52.12H95.35V48.3H99.17V52.12ZM99.17 82.65H95.35V78.83H99.17V82.65ZM57.22 82.65H53.4V78.83H57.22V82.65ZM15.26 82.65H11.44V78.83H15.26V82.65ZM15.26 63.58H11.44V59.76H15.26V63.58ZM15.26 40.69H11.44V36.87H15.26V40.69ZM15.26 19.07H11.44V15.25H15.26V19.07ZM61.04 94.09H57.22V90.27H61.04V94.09ZM76.29 15.26V11.44H80.11V15.26H76.29ZM102.99 67.38H99.17V63.56H102.99V67.38ZM102.99 36.87H99.17V33.05H102.99V36.87Z" fill="black"/>
<path d="M305.15 0H301.34H297.52H293.7V3.82H289.88V7.63H293.7V11.44V15.26H297.52V11.44H301.34V15.26H305.15V11.44H308.96V15.26H312.77V11.44V7.63V3.82V0H308.96H305.15Z" fill="black"/>
<path d="M354.74 0H328.05V7.63H324.23V11.45H328.05V15.27H331.87V11.45H335.69V101.72H343.32V97.9H347.14V101.72H354.77V90.28H358.59V86.46H354.77V82.64H358.59V78.82H354.77V75H358.59V71.18H354.77V63.55H358.59V59.73H354.77V55.91H358.59V52.09H354.77V44.46H358.59V40.64H354.77V36.82H358.59V33H354.77V25.37H358.59V21.55H354.77V19.01H358.59V15.19H354.77V7.56H358.59V3.74H354.77V0H354.74ZM350.92 82.65H347.1V78.83H350.92V82.65ZM350.92 59.76H347.1V55.94H350.92V59.76ZM350.92 40.69H347.1V36.87H350.92V40.69ZM350.92 21.61H347.1V19.07H350.92V21.61Z" fill="black"/>
<path d="M392.88 0H369.99V11.44H373.81V15.26H377.63V11.44H381.45V15.26H377.63V19.08H381.45V21.62H377.63V29.25H381.45V33.07H377.63V36.89H381.45V40.71H377.63V44.53H381.45V48.35H377.63V52.17H381.45V55.99H377.63V63.62H381.45V67.44H377.63V71.26H381.45V75.08H377.63V78.9H381.45V82.72H377.63V86.54H381.45V90.36H377.63V94.18H381.45V98H377.63V101.82H385.26V98H389.08V101.82H400.52V86.56H396.7V82.74H400.52V75.11H396.7V71.29H400.52V59.85H396.7V56.03H400.52V48.4H396.7V44.58H400.52V29.32H396.7V25.5H400.52V11.51H396.7V7.69H400.52V0H392.89H392.88ZM392.88 36.87H389.06V33.05H392.88V36.87ZM392.88 67.38H389.06V63.56H392.88V67.38ZM396.69 97.9H392.87V94.08H396.69V97.9ZM396.69 21.61H392.87V19.07H396.69V21.61Z" fill="black"/>
<path d="M659.88 0H656.06H652.25H648.44H644.62V3.82V7.63H640.8V11.44H644.62V15.26H648.44V11.44H652.25V15.26H656.06V11.44H659.88V15.26H663.69V11.44V7.63V3.82V0H659.88Z" fill="black"/>
<path d="M308.96 21.6094H286.07V25.4294H282.25V33.0594H286.07V36.8794H293.7V40.6994H289.88V44.5194H293.7V48.3394H289.88V52.1594H293.7V55.9794H289.88V59.7994H293.7V67.4294H289.88V71.2494H293.7V75.0694H289.88V78.8894H293.7V82.7094H289.88V86.5294H293.7V94.1594H289.88V97.9794H293.7V101.799H297.52V97.9794H301.34V101.799H308.97V97.9794H312.79V56.0194H308.97V52.1994H312.79V25.5094H308.97V21.6394L308.96 21.6094ZM301.34 25.4294V29.2494H297.52V25.4294H301.34ZM305.15 90.2694H301.33V86.4494H305.15V90.2694ZM308.96 78.8294H305.14V75.0094H308.96V78.8294ZM305.15 59.7594H301.33V55.9394H305.15V59.7594ZM308.96 44.4994H305.14V40.6794H308.96V44.4994Z" fill="black"/>
<path d="M492.05 21.6094H484.42V25.4294H480.6V21.6094H472.97V29.2394H469.15V33.0594H472.97V36.8794H465.34V33.0594H461.52V25.4294H457.7V21.6094H434.81V25.4294H427.18V29.2494H423.36V33.0694H419.54V40.6994H415.72V55.9594H411.9V59.7794H415.72V63.5994H411.9V67.4194H415.72V82.6794H419.54V90.3094H423.36V94.1294H427.18V90.3094H431V94.1294H427.18V97.9494H431V101.769H434.82V97.9494H438.64V101.769H446.27V97.9494H450.09V101.769H457.72V94.1394H465.35V86.5094H469.17V90.3294H472.99V97.9594H476.81V101.779H480.63V97.9594H484.45V101.779H488.27V97.9594H492.09V101.779H495.91V86.5194H488.28V82.6994H484.46V78.8794H488.28V59.8094H484.46V55.9894H488.28V40.7294H484.46V36.9094H495.9V25.4694H492.08V21.6294L492.05 21.6094ZM469.16 75.0094H472.98V78.8294H469.16V75.0094ZM434.83 44.4994H431.01V40.6794H434.83V44.4994ZM431.01 55.9394H427.19V52.1194H431.01V55.9394ZM431.01 75.0094H427.19V71.1894H431.01V75.0094ZM461.54 82.6494H457.72V86.4694H442.46V82.6494H438.64V78.8294H434.82V75.0094H438.64V71.1894H434.82V48.2994H438.64V36.8594H442.46V40.6794H446.28V33.0494H450.1V36.8694H461.54V44.4994H465.36V48.3194H469.18V52.1394H465.36V55.9594H469.18V59.7794H465.36V63.5994H469.18V67.4194H465.36V82.6794H461.54V82.6494ZM476.79 94.0894V90.2694H480.61V94.0894H476.79ZM484.42 71.1994H480.6V67.3794H484.42V71.1994ZM484.42 52.1194H480.6V48.2994H484.42V52.1194Z" fill="black"/>
<path d="M614.11 21.6103H595.04V25.4303H598.86V29.2503H595.04V36.8803H591.22V33.0603H587.4V25.4303H583.58V21.6103H575.95V19.0703H572.13V21.6103H568.31V19.0703H564.49V21.6103H556.86V25.4303H549.23V33.0603H545.41V36.8803H541.59V48.3203H537.77V52.1403H541.59V55.9603H537.77V67.4003H541.59V71.2203H537.77V75.0403H541.59V82.6703H545.41V90.3003H549.23V94.1203H553.05V97.9403H560.68V101.76H564.5V97.9403H568.32V101.76H579.76V97.9403H575.94V94.1203H579.76V97.9403H583.58V94.1203H587.4V86.4903H598.84V90.3103H595.02V94.1303H598.84V97.9503H606.47V94.1303H610.29V97.9503H614.11V101.77H621.74V97.9503H617.92V94.1303H621.74V86.5003H614.11V82.6803H610.29V78.8603H614.11V75.0403H610.29V71.2203H614.11V67.4003H610.29V63.5803H614.11V59.7603H610.29V55.9403H614.11V52.1203H610.29V48.3003H614.11V44.4803H610.29V36.8503H621.73V33.0303H617.91V29.2103H621.73V21.5803H614.1L614.13 21.6103H614.11ZM602.66 63.5803H598.84V59.7603H602.66V63.5803ZM602.66 78.8303H598.84V75.0103H602.66V78.8303ZM556.89 55.9403H553.07V52.1203H556.89V55.9403ZM545.45 63.5803H549.27V67.4003H545.45V63.5803ZM553.07 86.4503H556.89V90.2703H553.07V86.4503ZM583.6 82.6503H579.78V86.4703H575.96V82.6503H572.14V86.4703H568.32V82.6503H564.5V78.8303H560.68V67.3903H556.86V63.5703H560.68V44.5003H556.86V40.6803H560.68V44.5003H564.5V33.0603H568.32V36.8803H572.14V33.0603H575.96V36.8803H579.78V33.0603H583.6V40.6903H591.23V78.8403H587.41V82.6603H583.59L583.6 82.6503ZM606.47 48.3203H602.65V44.5003H606.47V48.3203Z" fill="black"/>
<path d="M656.06 21.6094H648.43V25.4294H644.61V21.6094H636.98V25.4294H633.16V29.2494H636.98V33.0694H633.16V36.8894H644.6V48.3294H640.78V52.1494H644.6V63.5894H640.78V67.4094H644.6V78.8494H640.78V82.6694H644.6V94.1094H640.78V97.9294H644.6V101.749H648.42V97.9294H652.24V101.749H663.68V21.6094H656.05H656.08H656.06ZM659.88 94.0894H656.06V90.2694H659.88V94.0894ZM659.88 78.8294H656.06V75.0094H659.88V78.8294ZM659.88 63.5794H656.06V59.7594H659.88V63.5794ZM659.88 48.3194H656.06V44.4994H659.88V48.3194ZM659.88 33.0494H656.06V29.2294H659.88V33.0494Z" fill="black"/>
<path d="M225.05 36.8691H221.23V40.6891H225.05V36.8691Z" fill="black"/>
<path d="M244.12 36.8691H240.3V40.6891H244.12V36.8691Z" fill="black"/>
<path d="M194.53 40.6896H190.71V33.0596H186.89V29.2396H183.07V25.4196H175.44V21.5996H144.93V25.4196H137.3V29.2396H133.48V33.0596H129.66V36.8796H125.84V44.5096H122.02V75.0196H125.84V78.8396H122.02V82.6596H125.84V86.4796H129.66V90.2996H133.48V97.9296H144.92V101.75H152.55V97.9296H156.37V101.75H167.81V97.9296H171.63V101.75H175.45V97.9296H183.08V94.1096H190.71V82.6696H194.53V71.2296H198.35V63.5996H194.53V59.7796H198.35V52.1496H194.53V48.3296H198.35V44.5096H194.53V40.6896ZM186.9 44.4996H183.08V40.6796H186.9V44.4996ZM186.9 59.7596H183.08V55.9396H186.9V59.7596ZM183.09 75.0096H179.27V71.1896H183.09V75.0096ZM171.64 78.8296V82.6496H167.82V86.4696H148.75V78.8396H141.12V75.0196H144.94V67.3896H141.12V63.5696H144.94V59.7496H141.12V55.9296H144.94V52.1096H141.12V48.2896H144.94V40.6596H148.76V36.8396H156.39V33.0196H160.21V36.8396H167.84V40.6596H171.66V44.4796H175.48V78.8096H171.66V78.8396L171.64 78.8296ZM133.5 67.3796H137.32V71.1996H133.5V67.3796ZM133.5 52.1196H137.32V55.9396H133.5V52.1196ZM175.46 36.8696H171.64V33.0496H175.46V36.8696ZM137.31 86.4496H141.13V90.2696H137.31V86.4496ZM175.46 94.0896V90.2696H179.28V94.0896H175.46ZM186.9 90.2696H183.08V86.4496H186.9V90.2696Z" fill="black"/>
<path d="M526.38 82.6501H522.56V78.8301H518.74V82.6501H514.92V78.8301H511.1V86.4601H507.28V90.2801H511.1V94.1001H507.28V97.9201H511.1V101.74H514.92V97.9201H518.74V101.74H530.18V78.8501H526.36V82.6701H526.37L526.38 82.6501ZM526.38 97.9001H522.56V94.0801H526.38V97.9001Z" fill="black"/>
<path d="M267.01 86.4505H247.94V82.6305H244.12V86.4505H228.86V82.6305H236.49V75.0005H240.31V71.1805H244.13V67.3605H247.95V63.5406H251.77V59.7206H247.95V55.9006H251.77V59.7206H255.59V52.0905H259.41V48.2705H263.23V44.4505H267.05V40.6305H270.87V21.5605H267.05V25.3805H263.23V21.5605H255.6V25.3805H251.78V21.5605H244.15V25.3805H240.33V21.5605H232.7V25.3805H228.88V21.5605H221.25V25.3805H217.43V21.5605H209.8V25.3805H205.98V29.2005H209.8V33.0205H205.98V36.8405H221.24V33.0205H225.06V36.8405H240.32V33.0205H244.14V36.8405H247.96V40.6605H244.14V44.4805H240.32V48.3005H236.5V52.1205H232.68V55.9405H228.86V63.5705H225.04V67.3905H221.22V71.2105H217.4V75.0305H213.58V78.8505H209.76V82.6705H213.58V86.4905H209.76V82.6705H205.94V97.9305H209.76V101.751H213.58V97.9305H217.4V101.751H225.03V97.9305H228.85V101.751H236.48V97.9305H240.3V101.751H244.12V97.9305H247.94V101.751H251.76V97.9305H255.58V101.751H259.4V97.9305H263.22V101.751H270.85V90.3105H274.67V86.4905H267.04L267.01 86.4505ZM236.48 59.7605H240.3V63.5806H236.48V59.7605ZM259.37 40.6905V36.8705H263.19V40.6905H259.37ZM221.23 94.0905V90.2705H225.05V94.0905H221.23Z" fill="black"/>
<path d="M610.29 97.9004H606.47V101.72H610.29V97.9004Z" fill="black"/>
<path d="M156.39 101.721H152.57V105.541H156.39V101.721Z" fill="black"/>
<path d="M450.09 101.721H446.27V105.541H450.09V101.721Z" fill="black"/>
</g>
<defs>
<clipPath id="clip0_177_2">
<rect width="663.69" height="105.54" fill="white"/>
</clipPath>
</defs>
</svg>
