<svg width="241" height="155" viewBox="0 0 241 155" fill="none" xmlns="http://www.w3.org/2000/svg">
<g clip-path="url(#clip0_677_25075)">
<path d="M196.839 0V31.4965H203.658V23.7036H218.595V16.073C218.879 15.613 219.244 15.6265 219.718 15.5724C223.966 15.0718 229.175 15.9783 233.531 15.5859L233.856 23.3789L240.999 23.7036V39.9389H233.531V47.7319C230.135 48.0836 226.712 48.1648 223.289 48.0701C221.855 48.0295 220.069 47.1366 218.919 48.2189V55.8495H204.795L204.308 56.3366V63.3178H211.776V71.1108L219.244 71.4355V78.9037L226.063 79.2284V95.4638L156.9 95.7885C156.752 95.9238 157.022 98.2779 156.9 98.8867C156.752 99.6714 156.089 99.5091 155.926 99.9285C155.263 101.701 155.75 104.718 155.615 106.639L154.682 106.856L154.289 112.01H152.99V116.231H151.692L151.651 118.626L150.366 119.343V124.349H151.692V125.648H158.51V124.349L162.204 124.038L162.596 123.023L165.018 123.05V121.751L167.927 121.413V120.128L170.349 120.155C170.768 118.423 171.607 118.816 173.149 118.843V117.544H176.072V116.245H177.37V114.946H179.968V113.661L182.89 113.323V112.024L184.162 111.983L184.392 111.036L186.773 110.711V109.426H188.086V108.127C189.804 108.723 190.048 107.113 190.426 106.896C190.819 106.666 191.59 106.977 192.009 106.68C192.496 106.328 191.82 105.083 193.606 105.53V104.244C194.12 104.123 195.892 104.068 196.136 103.838C196.312 103.676 196.203 102.973 196.501 102.756C197.029 102.377 198.436 102.716 199.126 102.607V101.308H205.62V102.607H207.243V103.906H208.542V105.205H209.841V113.323H208.542V114.946H207.243V116.245H205.945L205.918 117.53L205.025 117.584L204.943 118.802L203.076 119.249L203.009 120.114L201.737 120.155V121.454H200.438V122.739C199.924 122.861 198.152 122.915 197.908 123.145C197.583 123.456 197.989 124.741 196.231 124.39V125.689H193.619V126.987H192.321V128.286C191.685 128.327 190.48 128.3 189.953 128.597C189.561 128.814 189.75 129.531 189.412 129.761C189.06 130.004 188.343 129.774 188.14 129.977C187.991 130.113 188.248 130.694 187.883 130.897C187.396 131.182 186.111 131.168 185.502 131.209V132.507H182.904V133.806H181.281V135.105H178.683V136.404H176.085V137.689L173.203 138.082C173.379 139.543 171.688 139.137 170.606 139.38C171.106 141.112 166.885 140.395 166.669 140.625V141.924H163.746V143.223L160.066 143.534L159.674 144.549L157.225 144.67L156.725 145.847C155.818 145.847 154.019 145.793 153.234 146.145C152.815 146.334 153.234 146.957 152.815 147.146C151.583 147.701 149.067 147.363 147.687 147.444L147.295 148.459L142.952 148.77V150.069H136.782V151.367L129.842 151.679L129.463 152.693L117.976 153.032L117.773 153.992C109.317 154.154 100.956 154.195 92.4732 153.992L92.1215 152.977L81.4332 152.693L81.2032 151.76C80.7702 151.8 80.0126 151.367 79.7826 151.367H73.4508V150.069H67.9308V148.77L62.6137 148.459L62.2214 147.444L58.3925 147.16L58.1625 146.213C58.0273 146.077 55.2402 146.186 54.4961 145.861C54.0767 145.672 54.4961 145.049 54.0767 144.86C53.1972 144.467 51.2625 144.576 50.2614 144.562L49.5443 143.277L46.1755 143.236V141.937H43.5778V140.639L41.1831 140.598L40.466 139.313L38.0578 139.34V138.054L35.176 137.662C35.6766 135.93 31.4554 136.647 31.239 136.417V135.119H29.9401V133.82H27.0178V132.521C26.3954 132.44 25.5025 132.683 24.9478 132.48C24.3389 132.264 24.5554 131.479 24.3525 131.29C24.0548 131.019 22.1878 131.1 21.8901 130.83C21.7413 130.681 21.8225 130.153 21.6466 129.937C21.3489 129.572 20.7807 129.707 20.5913 129.504C20.4425 129.341 20.5913 128.841 20.4695 128.692C20.2666 128.476 18.1154 128.3 17.6013 128.286V126.987H16.3024V125.689H13.7048V124.39H12.406V123.091C9.80832 123.632 10.566 121.156 8.19831 121.454V120.169H6.88596V118.87H5.58713V117.571H4.2883V116.272C2.16418 116.651 3.34124 114.459 1.36594 114.96V112.037H0.0671154V107.004C0.0671154 105.313 1.35241 105.516 1.393 105.367L1.36594 103.92L2.62418 103.879C2.69183 102.661 3.1383 102.553 4.2883 102.607V101.322H11.1207V102.621H13.7183V103.906C13.8401 104.014 15.7207 104.055 16.0995 104.231C16.4783 104.407 16.1942 105.002 16.3566 105.151C16.5324 105.327 17.236 105.151 17.6419 105.367C17.926 105.516 17.6148 106.111 17.926 106.341C18.5348 106.801 19.7795 106.828 20.5372 106.842V108.141H21.836V109.44H23.1348V110.739H25.7325V112.037H27.356V113.323L29.9401 113.674V114.96H32.5513V116.259H34.4995V117.557H36.7725V118.856H39.3701V120.155H41.9678V121.454C42.6713 121.535 44.1055 121.521 44.6737 121.765C45.066 121.941 44.7143 122.536 45.0931 122.766C45.6072 123.064 47.2849 122.969 47.4472 123.131C46.9466 124.863 51.1543 124.146 51.3843 124.376V125.675H59.8267C59.3937 124.024 61.139 123.537 60.8143 121.941L59.7996 121.603C59.7996 120.601 59.9078 118.64 59.502 117.774C59.3125 117.354 58.6902 117.774 58.5008 117.354C58.1761 116.624 58.2708 113.85 58.1355 113.701L56.9178 113.133L56.8773 110.739H55.5784V103.92H54.2796V85.0867H55.5784V79.5667H56.8773L57.1884 75.8731L58.2031 75.4808C58.2437 74.0061 57.689 72.139 59.502 71.909L59.4749 66.2537C57.8108 66.8219 57.1614 65.0902 56.4037 64.9413C55.6461 64.7925 54.6314 65.0496 53.8196 64.9278C53.4814 67.106 50.4643 65.9966 48.7596 66.2402V67.539H46.1619V68.8378H43.5643V70.1366L41.1696 70.1772C40.5066 72.1661 39.4784 71.2055 38.2607 71.7466C37.8413 71.9361 38.2607 72.5584 37.8413 72.7478C37.3948 72.9508 35.7984 72.8696 35.5143 73.1266C35.3384 73.289 35.4737 73.979 35.1354 74.209C34.5537 74.6014 33.6201 73.8302 33.769 75.2643L31.239 75.6702V76.9555H28.6278V78.2543C26.8554 77.889 27.2613 79.2014 26.9366 79.499C26.4766 79.932 24.3525 79.2825 24.4336 81.0414L23.1078 81.2037V82.489L21.173 82.5296C21.3354 83.842 20.253 83.7067 19.2113 83.8014V85.0867H17.5742V86.372L15.0307 86.7779C15.1389 88.1443 14.4083 87.4814 13.6913 87.8467C13.1771 88.1037 13.2177 88.8614 12.7983 88.9832C11.6754 89.3349 4.91066 89.5514 4.31536 88.9155C4.16654 88.7532 4.43713 88.1714 4.0583 87.9955C3.61183 87.7926 2.02888 87.8737 1.73124 87.6167L1.33888 85.0867H0.0671154C0.215939 82.8137 -0.122297 80.3378 0.0671154 78.092C0.148292 77.0502 0.121233 75.3319 1.33888 75.6431L1.37947 74.3714H2.6783C2.35359 72.6261 3.50359 73.059 3.89595 72.6666C4.09889 72.4637 3.97712 71.8143 4.2883 71.5978C5.00536 71.0972 5.93889 72.1796 5.60066 70.1502H6.89948V68.8513H8.19831V67.5525C9.47008 67.4578 10.823 67.7284 10.9718 66.2266L12.4195 66.2537C12.0948 64.4949 12.8524 65.1984 13.3801 64.7925C13.7589 64.5084 13.6101 63.886 13.786 63.7237C14.0295 63.4937 15.7883 63.426 16.3024 63.3178V62.0325H17.9395V60.7337H20.5372V59.4484L23.0807 59.0425C22.9319 57.6219 23.8519 58.3931 24.4472 57.9872C24.7854 57.7572 24.596 57.0537 24.9883 56.8237C25.5295 56.5125 27.1531 56.6207 27.3289 56.4584C27.4642 56.3231 27.2072 55.7413 27.5725 55.5248C28.0595 55.2407 29.3448 55.2543 29.9672 55.2137V53.9148H32.5648V52.616H35.4872V51.3172C37.016 51.3442 37.8684 51.7366 38.2743 50.0048L40.6825 50.0319V48.7331L44.9037 48.4084V47.1095L47.3255 47.1366L47.7178 46.1219L51.7361 45.8107V44.5119H55.6325V43.213L59.6373 42.9019L59.8673 41.9548L63.5337 41.603L63.9261 40.5883L69.0943 40.3042L69.3108 39.3707L75.9132 39.0054L76.1296 38.0719L84.2067 37.6795V36.3807H126.094V37.6795L134.009 37.9907L134.387 39.0054C135.659 39.046 137.012 38.8701 138.284 38.9648C139.461 39.0595 140.827 38.9919 140.882 40.3042L144.927 40.6019V39.303H152.395V31.5101H159.863V23.7171H166.845C167.643 23.1895 167.007 22.4453 166.993 21.6201C166.953 19.78 166.682 17.1012 167.494 15.5995H174.475V7.80649H181.943L181.619 0.0135294H196.88L196.839 0ZM118.098 91.892H165.018V93.1908H186.773V91.892H214.861C215.226 91.892 215.253 90.8096 215.415 90.6608C215.618 90.4849 217.837 90.1602 217.959 89.7408V83.7743H216.633V82.4755H215.334V80.852H214.049L213.697 78.2814H212.412V76.969H211.113V75.6702H209.814V74.3714C207.582 74.899 209.354 72.7478 207.257 72.7072L207.216 71.449H205.918V70.1502H204.632L204.281 67.566H202.995V66.2537H201.696V64.6302H200.398C200.141 61.6807 200.005 58.8125 200.398 55.8631H201.696L201.71 54.2531L204.281 53.9013V52.616H207.216V51.3172H209.814V50.0184H212.412V48.7195C214.089 49.166 213.846 47.5966 214.265 47.4072C214.685 47.2178 216.525 47.1772 216.619 47.0689V45.7836H219.88V44.4848H223.452V43.186H226.049V41.8872H227.348V40.5883H228.647V38.9648C230.392 39.2895 229.702 38.5319 230.108 38.0042C230.392 37.6254 231.015 37.7742 231.177 37.5983C231.448 37.3142 231.366 35.7313 231.556 35.2713C231.745 34.8518 232.368 35.2713 232.557 34.8518C232.963 33.9589 233.085 28.8312 232.462 28.3036C232.3 28.1683 231.854 28.3036 231.61 28.2224L231.569 26.9507H230.271C230.609 24.9212 229.662 26.0171 228.958 25.503C228.634 25.273 228.755 24.583 228.579 24.4206C227.957 23.8389 223.019 24.0012 222.045 24.3395C221.612 24.4883 221.95 25.3812 221.301 25.6112C220.746 25.8142 219.853 25.5707 219.231 25.6518V26.9507H215.334V28.2495H211.438V29.5483H209.814V30.8471H207.216V32.1324L204.294 32.4707V33.7695H196.176V32.4707L194.905 32.4436L194.864 31.5371L193.579 31.4965V28.2495H192.28V12.0141H190.981V9.41649L184.622 9.38943C183.892 9.25414 184.298 10.1877 183.824 10.553C183.296 10.9589 182.539 10.2553 182.863 12.0141H180.59L180.55 13.2724C179.008 13.57 178.899 13.6918 178.588 15.2342L177.33 15.2747V17.2095C175.679 16.9795 176.058 17.7506 175.503 18.4948C175.138 18.9953 174.394 18.833 174.732 20.1453H173.109V21.4442H171.81V22.743H170.511V24.0418H169.212V25.6654H167.913V26.9642H166.615V28.263H164.991V29.5618H163.692V30.8607H162.393V32.1595H161.095V33.783H159.796V35.0819H158.497V36.3807H157.198V37.666L155.886 37.8283C155.859 39.6007 155.169 38.9242 154.695 39.3842C154.303 39.763 154.736 40.9401 152.99 40.6019V41.9007H151.678V43.1995H150.393L150.041 45.7701H148.756V47.0825H147.457C147.971 49.0578 145.779 47.8672 146.158 49.9913H144.859V51.3037H143.56V52.6025C141.68 52.386 142.546 52.8054 142.194 53.6578C141.964 54.226 141.287 54.2801 140.99 54.7401C140.625 55.2948 140.746 56.2284 140.57 56.4313C140.286 56.7425 138.96 56.3501 139.326 58.109H138.027V59.4213H136.728V60.7201H135.429C135.862 62.506 134.644 61.8972 134.212 62.4113C133.86 62.8307 133.995 64.2784 133.738 64.5355C133.603 64.6843 133.075 64.6031 132.845 64.779C132.683 64.9143 132.115 65.5908 131.546 66.0778C131.154 66.416 131.33 67.0113 130.978 67.2143C130.464 67.5119 129.246 67.4849 128.61 67.5255V68.8243H127.312C127.312 69.379 127.244 71.0296 126.906 71.3408C126.73 71.5031 126.243 71.4219 126.026 71.5978C125.661 71.8955 125.783 72.4366 125.593 72.6396C125.201 73.0319 124.037 72.599 124.376 74.3443H123.077V75.6567H121.778V76.9555H120.479V78.2543C118.436 77.9161 119.532 78.8631 119.032 79.5667C118.802 79.8914 118.112 79.7696 117.949 79.9455C117.719 80.189 117.814 81.4743 117.57 81.9343C117.327 82.3943 115.825 82.0831 116.258 83.7743H114.959V90.6067C116.934 89.7543 117.692 91.7838 118.044 91.9055L118.098 91.892ZM94.8815 125.661H100.726V126.96H110.143V125.661H115.013V124.363C116.082 124.309 118.084 124.471 119.018 124.051C119.437 123.862 119.018 123.24 119.437 123.05C119.884 122.847 121.48 122.929 121.751 122.671C121.9 122.523 121.819 122.009 121.994 121.779C122.279 121.413 122.847 121.549 123.036 121.346C123.239 121.143 123.117 120.493 123.429 120.29C123.78 120.047 124.497 120.277 124.7 120.074C124.849 119.925 124.565 119.33 124.944 119.154C125.323 118.978 126.608 119.113 126.933 118.761C127.325 118.342 126.865 117.219 128.624 117.53V116.231H129.923L130.329 113.688L131.262 113.471L131.235 112.024H132.52L132.872 109.44H134.157L134.13 107.031L135.416 106.314L135.456 102.621H136.755V95.802L101.037 95.4773V87.0349H108.181V79.242H115.649V71.1243H122.793V67.5525H120.52V66.2537H117.922V64.9549L113.877 64.6572C113.742 63.4396 113.065 63.5072 111.874 63.3719C110.21 63.1825 108.411 63.399 106.733 63.3584L106.53 62.3978L104.785 62.3437L104.433 63.3584L97.6821 63.6425L97.2897 64.6572C96.3832 64.6572 94.5568 64.6031 93.7856 64.9413C93.3662 65.1307 93.7856 65.7531 93.3662 65.9425C92.7979 66.1996 91.3638 66.0643 90.8497 66.2402C90.4438 66.389 90.8632 67.0519 90.4438 67.2413C90.0514 67.4172 88.1709 67.4578 88.0626 67.566V68.8513H86.1008V70.1366C85.6003 70.2178 84.7208 70.1637 84.342 70.4478C83.9632 70.7319 84.5585 71.7466 82.8402 71.5978L82.5155 73.0725H81.2167V74.3849H79.9179V76.9825H78.6191V78.2814H77.3202C77.2797 78.9037 77.2932 80.1755 77.0091 80.6626C76.7791 81.0549 76.1432 80.6626 76.0079 81.0684C75.8185 81.5961 75.9673 83.0031 75.7102 83.5849C75.5208 84.0043 74.8985 83.5849 74.7091 84.0043C74.2355 85.0732 74.452 87.292 74.4114 88.4826L73.4508 88.6855C72.9773 92.4332 72.842 96.2755 73.4508 99.9961L74.3979 100.199V105.016C76.4002 105.678 75.4532 106.707 75.9943 107.924C76.1838 108.344 76.8061 107.924 76.9955 108.344C77.1985 108.817 77.0902 110.062 77.2932 110.522C77.4826 110.941 78.1049 110.522 78.2944 110.941C78.4702 111.334 78.5108 113.214 78.6191 113.323H79.9044V114.96H81.2032V116.259H82.502V117.557H83.8008V118.856H85.4244V120.155H86.7232V121.44C87.2373 121.562 88.9826 121.616 89.2397 121.846C89.4426 122.036 89.2397 122.834 89.835 123.037C90.3897 123.226 91.6209 122.888 91.8644 123.118L92.4326 124.336L94.8273 124.376V125.675L94.8815 125.661Z" fill="black"/>
<path d="M118.093 91.8921C117.741 91.7704 116.983 89.7409 115.008 90.5933V83.7745H116.293C115.874 82.0833 117.375 82.3809 117.605 81.9345C117.835 81.488 117.754 80.2027 117.984 79.9456C118.147 79.7697 118.837 79.8915 119.067 79.5668C119.567 78.8633 118.471 77.9162 120.514 78.2544V76.9556H121.813V75.6568H123.112V74.358H124.397C124.059 72.6127 125.236 73.0456 125.615 72.6533C125.804 72.4638 125.683 71.9091 126.048 71.6115C126.264 71.4356 126.751 71.5168 126.927 71.3544C127.265 71.0568 127.32 69.3927 127.333 68.838H128.632V67.5391C129.268 67.4985 130.485 67.5256 131 67.2279C131.351 67.025 131.175 66.4297 131.568 66.0915C132.136 65.6044 132.691 64.9144 132.867 64.7926C133.097 64.6168 133.611 64.6979 133.76 64.5491C134.003 64.2785 133.868 62.8444 134.233 62.425C134.666 61.9109 135.897 62.5197 135.451 60.7203H136.75V59.4215H138.048V58.1226H139.347C138.982 56.3503 140.308 56.7562 140.592 56.445C140.768 56.242 140.646 55.3085 141.011 54.7538C141.309 54.2938 141.986 54.2397 142.216 53.6714C142.554 52.8191 141.701 52.3997 143.582 52.6161V51.3173H144.881V50.0185H146.166C145.787 47.8944 147.979 49.085 147.465 47.0961H148.764V45.7973H150.049L150.401 43.2132H151.686V41.9008H152.985V40.6155C154.73 40.9538 154.297 39.7767 154.69 39.3979C155.163 38.9244 155.853 39.6144 155.88 37.842L157.193 37.6796V36.3943H158.505V35.0955H159.804V33.7967H161.103V32.1732H162.401V30.8743H163.7V29.5755H164.999V28.2767H166.623V26.9779H167.921V25.679H169.22V24.0555H170.519V22.7567H171.818V21.4578H173.117V20.159H174.74C174.402 18.8467 175.133 19.009 175.511 18.5084C176.066 17.7643 175.687 16.9931 177.324 17.2231V15.2884L178.583 15.2478C178.88 13.7055 179.002 13.5972 180.544 13.2861L180.585 12.0278H182.858C182.533 10.269 183.291 10.9725 183.819 10.5666C184.292 10.2013 183.886 9.28134 184.617 9.40311L190.976 9.43017V12.0278H192.274V28.2631H193.573V31.5102L194.859 31.5508L194.899 32.4573L196.184 32.4843V33.7832H204.302V32.4843L207.211 32.1461V30.8608H209.822V29.562H211.446V28.2631H215.342V26.9643H219.239V25.6655C219.861 25.5843 220.754 25.8279 221.309 25.6249C221.958 25.3949 221.62 24.502 222.053 24.3531C223.027 24.0149 227.965 23.8526 228.588 24.4343C228.763 24.5967 228.642 25.2867 228.966 25.5167C229.67 26.0173 230.617 24.9214 230.279 26.9643H231.577L231.618 28.2361C231.862 28.3173 232.308 28.182 232.47 28.3173C233.093 28.8449 232.971 33.9726 232.565 34.8655C232.376 35.2849 231.753 34.8655 231.564 35.2849C231.361 35.7314 231.442 37.3279 231.185 37.612C231.023 37.7744 230.414 37.6391 230.116 38.0179C229.71 38.5455 230.4 39.3032 228.655 38.9785V40.602H227.356V41.9008H226.057V43.1997H223.46V44.4985H219.888V45.7973H216.641V47.0826C216.533 47.1908 214.679 47.2314 214.273 47.4208C213.867 47.6103 214.097 49.1797 212.433 48.7332V50.032H209.822V51.3309H207.224V52.6297H204.302V53.915L201.718 54.2667V55.8767H200.406C200.013 58.8262 200.149 61.6944 200.406 64.6438H201.704V66.2674H203.003V67.5662H204.289L204.64 70.1503H205.926V71.4627H207.224L207.265 72.7209C209.362 72.7615 207.59 74.9127 209.822 74.385V75.6839H211.121V76.9827H212.42V78.2815H213.705L214.057 80.8521H215.342V82.4892H216.641V83.788H217.94L217.953 89.7545C217.832 90.1874 215.613 90.4986 215.41 90.6745C215.247 90.8233 215.22 91.9057 214.855 91.9057H186.768V93.2045H165.013V91.9057H118.093V91.8921Z" fill="#FFFFB4"/>
<path d="M94.8831 125.662V124.363L92.4884 124.322L91.9202 123.104C91.6766 122.874 90.4319 123.213 89.8907 123.023C89.2954 122.807 89.4984 122.022 89.2954 121.833C89.0384 121.603 87.2931 121.549 86.779 121.427V120.142H85.4666V118.843H83.8431V117.544H82.5442V116.245H81.2454V114.946H79.9466V113.323H78.6613C78.5531 113.214 78.5125 111.334 78.3366 110.942C78.1472 110.522 77.5248 110.942 77.3354 110.522C77.1325 110.062 77.2407 108.804 77.0378 108.344C76.8484 107.924 76.226 108.344 76.0366 107.924C75.4954 106.707 76.4425 105.679 74.4672 105.016V100.199L73.5066 99.9962C72.8842 96.2621 73.0331 92.4197 73.5066 88.6856L74.4672 88.4826C74.5078 87.2785 74.2778 85.0597 74.7648 84.0044C74.9542 83.585 75.5766 84.0044 75.766 83.585C76.0231 83.0167 75.8878 81.5961 76.0636 81.0685C76.1989 80.6761 76.8348 81.055 77.0648 80.6626C77.3489 80.162 77.3354 78.9038 77.376 78.2679H78.6748V76.9691H79.9737V74.3714H81.2725V73.0726H82.5713L82.896 71.5979C84.6143 71.7467 84.019 70.732 84.3978 70.4479C84.7766 70.1638 85.656 70.2179 86.1431 70.1367V68.8514H88.1049V67.5661C88.2266 67.4579 90.1072 67.4173 90.4996 67.2414C90.919 67.052 90.4996 66.3891 90.9055 66.2402C91.4196 66.0508 92.8402 66.1996 93.4219 65.9426C93.8413 65.7532 93.4219 65.1308 93.8413 64.9414C94.626 64.5896 96.439 64.6438 97.3455 64.6573L97.7378 63.6426L104.489 63.3585L104.841 62.3438L106.586 62.3979L106.789 63.3585C108.467 63.4126 110.266 63.1961 111.93 63.372C113.121 63.5073 113.797 63.4396 113.933 64.6573L117.978 64.9549V66.2538H120.576V67.5526H122.848V71.1244H115.705V79.242H108.237V87.035H101.093V95.4774L136.811 95.8021V102.621H135.512L135.471 106.314L134.186 107.032L134.213 109.44H132.928L132.576 112.024H131.291L131.318 113.485L130.384 113.702L129.978 116.245H128.693V117.544C126.934 117.233 127.394 118.342 127.002 118.775C126.677 119.127 125.419 118.992 125.013 119.167C124.607 119.343 124.918 119.939 124.77 120.087C124.567 120.277 123.85 120.06 123.498 120.304C123.187 120.52 123.308 121.156 123.106 121.359C122.916 121.549 122.348 121.413 122.064 121.792C121.888 122.022 121.969 122.536 121.82 122.685C121.536 122.956 119.953 122.874 119.507 123.064C119.087 123.253 119.507 123.876 119.087 124.065C118.154 124.484 116.138 124.322 115.069 124.376V125.675H110.198V126.974H100.782V125.675H94.9372L94.8831 125.662Z" fill="#FFFFB4"/>
</g>
<defs>
<clipPath id="clip0_677_25075">
<rect width="241" height="154.073" fill="white"/>
</clipPath>
</defs>
</svg>
