<svg width="179" height="115" viewBox="0 0 179 115" fill="none" xmlns="http://www.w3.org/2000/svg">
<path d="M92.64 88.7498L92.67 87.4898L92.48 86.2398L92.54 84.9898L92.66 83.7298L92.67 82.4798L92.8 81.2198L92.75 79.9698L92.57 78.7098L92.44 77.4498L92.53 76.1898L92.71 74.9398L92.47 73.6798L92.71 72.4099L92.55 71.1498L92.53 69.8998L92.65 68.6498L92.43 67.3898L92.44 66.1398L92.64 64.8798L92.73 63.6298L92.8 62.3698L92.79 61.1098L92.4 59.8498L92.77 58.5998L92.53 57.3398L92.65 56.0798L92.71 54.9598L94.13 55.0098L95.7 54.8298L95.81 53.2698L95.63 51.7698L94.13 51.7198L92.57 51.7398L92.77 50.1798L92.72 48.4998L91.04 48.4698L89.44 48.5698L89.71 49.8898L89.53 51.1498L89.67 52.4098L89.57 53.6698L89.31 54.9298L89.43 56.1898L89.35 57.4498L89.58 58.7098L89.31 59.9698L89.61 61.2198L89.66 62.4898L89.38 63.7498L89.54 65.0098L89.34 66.2698L89.53 67.5298L89.72 68.7998L89.35 70.0598L89.69 71.3898L88.27 71.2998L87.04 71.2398L85.82 71.0798L84.62 70.7998L83.44 70.4298L82.26 70.1098L81.05 69.8098L80.03 69.0898L78.87 68.6698L77.86 67.9598L76.83 67.2998L75.88 66.5398L74.92 65.7798L73.86 65.1298L73.17 64.0798L72.24 63.2698L71.43 62.3498L70.72 61.3498L70.2 60.2398L69.5 59.2298L68.69 58.2498L68.34 57.0598L68.03 55.8598L67.48 54.7498L67.46 53.4798L66.96 52.3298L67.05 51.0798L66.74 49.8698L66.99 48.6298L66.86 47.3998L66.81 46.1498L67.07 44.9398L67.32 43.7198L67.68 42.5398L68.2 41.4098L68.39 40.1698L68.81 38.9998L69.55 37.9898L69.93 36.7798L70.59 35.7198L71.4 34.7698L72.41 33.9998L73 32.8698L74.08 32.2098L75 31.3898L75.8 30.4098L76.98 29.9398L77.82 28.9498L79 28.5198L80.18 28.1298L81.28 27.5698L82.39 27.0098L83.58 26.6398L84.85 26.6498L86.04 26.3598L87.24 26.0198L88.47 25.7998L89.72 26.1098L90.95 25.8398L92.15 26.2798L93.36 26.4198L94.64 26.2798L95.81 26.6998L97.02 26.9598L98.06 27.6998L99.19 28.1798L100.27 28.7398L101.45 29.1398L102.52 29.7598L103.39 30.6498L104.4 31.3598L105.39 32.0898L106.34 32.8898L106.94 34.0098L107.73 34.9498L108.53 35.8798L109.07 36.9998L109.75 38.0198L110.4 39.0698L110.73 40.2598L111.04 41.4498L111.52 42.5798L111.92 43.7498L112.29 44.9298L112.1 46.1998L112.55 47.3998L112.5 48.6298L112.19 49.8298L112.15 51.0398L111.95 52.2198L111.82 53.4198L111.72 54.6398L111.15 55.7298L110.7 56.8498L110.55 58.0898L109.84 59.0998L109.15 60.0898L108.72 61.2398L107.96 62.1898L107.38 63.2698L106.41 63.8798L105.06 64.1898L105.04 65.6098L104.96 67.1298L106.48 67.0798L108.05 67.1298L107.88 68.6998L107.98 70.2998L109.57 70.2798L110.99 70.3698L111.13 71.7898L111.05 73.3898L112.57 73.3498L114.02 73.1599V73.4898L114.06 73.1898L114.11 73.0898L115.18 72.3598L115.93 71.3698L116.72 70.4098L117.33 69.3198L118.26 68.4598L118.87 67.3798L119.63 66.3898L120.34 65.3598L120.75 64.1798L121.13 62.9898L121.7 61.8898L122.13 60.7298L122.79 59.6398L122.99 58.4098L123.36 57.2198L123.6 56.0098L123.78 54.7798L124.06 53.5698L124.43 52.3698L124.49 51.1198L124.45 49.8798L124.34 48.6298L124.46 47.3598L124.51 46.0898L124.19 44.8398L123.88 43.5998L123.9 42.3098L123.77 41.0398L123.28 39.8498L122.92 38.6398L122.39 37.4798L122 36.2798L121.49 35.1198L121.21 33.8598L120.64 32.7198L119.95 31.6498L119.19 30.6298L118.68 29.4498L117.77 28.5398L117.13 27.4398L116.25 26.5198L115.47 25.5198L114.54 24.6598L113.87 23.7198L114.95 23.9598L116.16 24.1898L117.25 24.8498L118.46 25.1198L119.62 25.5098L120.88 25.6298L122 26.1598L123.08 26.7898L124.28 27.1098L125.36 27.7098L126.52 28.1098L127.72 28.4498L128.8 29.0398L129.91 29.5598L130.99 30.1698L132.22 30.4598L133.23 31.2098L134.3 31.8098L135.43 32.3198L136.49 32.9298L137.54 33.5698L138.71 33.9998L139.73 34.6898L140.74 35.3898L141.79 36.0398L142.85 36.6498L143.94 37.2398L144.99 37.8798L146.02 38.5598L146.96 39.3598L147.86 40.2098L148.86 40.9198L149.85 41.6398L150.89 42.2998L151.82 43.0898L152.81 43.8198L153.91 44.7598L155.32 45.0998L156.72 45.3298H157.91L159.05 44.9698L160 44.2398L160.92 43.5198L161.55 42.5298L162.21 41.5598L162.71 40.4598L162.6 39.2498L162.63 37.9098L161.91 36.7598L161.47 35.4998L160.36 34.7698L159.48 33.8698L158.63 32.9498L157.59 32.2598L156.66 31.4198L155.43 30.9998L154.47 30.1998L153.59 29.2998L152.58 28.5898L151.41 28.0998L150.54 27.1598L149.49 26.4998L148.47 25.7898L147.43 25.0998L146.37 24.4498L145.13 24.0998L144.06 23.4698L143.03 22.7598L142.04 21.9798L140.87 21.5398L139.68 21.1298L138.63 20.4398L137.52 19.8798L136.47 19.1898L135.35 18.6398L134.23 18.0998L133.06 17.6598L131.92 17.1598L130.7 16.8598L129.65 16.1498L128.49 15.7098L127.24 15.4998L126.11 14.9798L124.89 14.6798L123.74 14.2298L122.61 13.6798L121.41 13.3398L120.27 12.8098L118.96 12.8598L117.83 12.3098L116.63 11.9498L115.45 11.5298L114.19 11.4598L112.95 11.2798L111.77 10.8798L110.54 10.6898L109.35 10.2998L108.09 10.2598L106.9 9.82984L105.64 9.84984L104.43 9.53984L103.17 9.50984L101.97 9.07984L100.7 9.25984L99.46 9.12984L98.22 8.97984L97 8.64984L95.74 8.73984L94.49 8.74984L93.25 8.75984L92.01 8.38984L90.76 8.64984L89.5 8.33984L88.26 8.66984L87.01 8.53984L85.77 8.72984L84.52 8.50984L83.28 8.61984L82.03 8.65984L80.8 8.89984L79.54 8.77984L78.31 9.02984L77.07 9.15984L75.83 9.21984L74.59 9.36984L73.35 9.54984L72.16 9.99984L70.87 9.90984L69.67 10.2498L68.47 10.6198H67.19L65.98 10.9298L64.78 11.2698L63.6 11.6998L62.37 11.9198L61.21 12.4198L59.95 12.5398L58.77 12.9498L57.62 13.4298L56.42 13.7698L55.29 14.2998L54.04 14.4998L52.93 15.0798L51.75 15.4898L50.48 15.6398L49.43 16.3698L48.3 16.8798L47.11 17.2598L45.88 17.5498L44.82 18.2398L43.73 18.8298L42.6 19.3598L41.53 20.0098L40.32 20.3698L39.21 20.9498L38.15 21.5998L37.01 22.1098L36.02 22.8798L34.95 23.5198L33.72 23.8798L32.65 24.5098L31.78 25.4598L30.63 25.9598L29.48 26.4798L28.64 27.4498L27.55 28.0698L26.43 28.6298L25.37 29.2798L24.57 30.2898L23.46 30.8698L22.51 31.6798L21.58 32.4898L20.42 33.0198L19.43 33.7698L18.54 34.6398L17.88 35.7598L17.04 36.7598L16.74 38.0198L16.48 39.2498V40.4498L16.67 41.6598L17.55 42.5598L18.21 43.5298L19.07 44.3698L20.17 44.8598L21.31 45.1798L22.49 45.4298L23.93 45.2398L25.26 44.6798L26.46 43.8798L27.3 42.9598L28.4 42.3598L29.4 41.6498L30.19 40.6498L31.28 40.0498L32.14 39.1298L33.3 38.6298L34.4 38.0698L35.27 37.1498L36.22 36.3498L37.44 35.9598L38.52 35.3798L39.39 34.4398L40.61 34.0698L41.55 33.2298L42.73 32.7998L43.79 32.1698L44.94 31.6998L45.94 30.9498L47.13 30.5698L48.14 29.8098L49.25 29.2598L50.39 28.7898L51.58 28.4198L52.65 27.7998L53.93 27.6398L54.93 26.8098L56.19 26.6498L57.26 25.9598L58.42 25.5198L59.63 25.2598L60.83 24.9498L62.04 24.6698L63.16 24.0998L64.38 23.8598L65.73 23.4898L64.86 24.5598L63.94 25.3598L63.01 26.1598L62.26 27.1298L61.68 28.2198L60.89 29.1498L60.19 30.1498L59.54 31.1798L58.81 32.1798L58.54 33.4098L57.83 34.4198L57.33 35.5298L56.92 36.6798L56.33 37.7698L56.19 39.0098L55.84 40.1798L55.43 41.3398L55.5 42.5898L55.06 43.7598L54.94 44.9698L55.09 46.2098L54.75 47.4098L54.74 48.6298V49.8998L54.93 51.1598L54.8 52.4398L55.15 53.6798L55.33 54.9298L55.73 56.1398L55.79 57.4198L56.35 58.5798L56.72 59.7798L56.92 61.0498L57.58 62.1498L58.08 63.3098L58.52 64.5098L59.4 65.4698L59.74 66.7298L60.71 67.6098L61.21 68.7998L62.03 69.7598L62.92 70.6698L63.52 71.8198L64.43 72.7098L65.38 73.5499L66.36 74.3398L67.28 75.2098L66.12 74.7898L64.86 74.7198L63.66 74.4498L62.58 73.7498L61.39 73.4698L60.23 73.0598L58.99 72.8898L57.84 72.4598L56.67 72.0598L55.52 71.6298L54.38 71.1698L53.23 70.7298L52.1 70.2498L50.98 69.7498L49.91 69.1398L48.84 68.5298L47.58 68.2998L46.48 67.7398L45.53 66.8998L44.28 66.6398L43.3 65.8498L42.27 65.1698L41.16 64.6498L40.14 63.9598L38.9 63.6398L37.94 62.8698L36.87 62.2698L35.81 61.6398L34.94 60.7298L33.85 60.1498L32.76 59.5598L31.86 58.7198L30.72 58.1998L29.85 57.3098L28.86 56.5898L27.91 55.8098L27.04 54.9498L25.89 54.4198L24.99 53.4598L23.78 52.9598L22.5 52.6698L21.25 52.7898L20.09 53.2298L19.05 53.9098L18.18 54.7998L17.71 55.9398L17.35 57.0698L17.21 58.2398L17.33 59.4198L17.65 60.5898L18.29 61.6198L18.92 62.7098L20.07 63.2498L21 64.0698L21.88 64.9398L22.76 65.8198L23.86 66.4298L24.88 67.1098L25.85 67.8698L26.83 68.6398L27.92 69.2298L28.98 69.8598L29.96 70.6098L30.94 71.3698L32.09 71.8598L33.06 72.6498L34.06 73.3798L35.22 73.8598L36.22 74.5998L37.34 75.1198L38.44 75.6898L39.59 76.1698L40.66 76.7798L41.62 77.6298L42.82 77.9998L43.9 78.6198L45.1 78.9798L46.16 79.6398L47.27 80.1898L48.53 80.4099L49.69 80.8198L50.7 81.6198L51.93 81.8698L53.07 82.3398L54.27 82.6599L55.47 82.9598L56.63 83.3798L57.8 83.7798L58.94 84.2698L60.1 84.7398L61.35 84.8798L62.48 85.4298L63.69 85.7198L64.94 85.8298L66.16 86.0499L67.37 86.2999L68.56 86.6498L69.76 86.9598L70.95 87.3298L72.18 87.4598L73.44 87.4498L74.63 87.8598L75.86 88.0198L77.09 88.1998L78.36 88.0598L79.58 88.2398L80.83 88.2298L82.05 88.4898L83.28 88.6098L84.52 88.7198L85.77 88.5598L87.01 88.5798L88.25 88.8298L89.36 88.8398L89.34 90.0198L89.49 91.2498L89.51 92.4798L89.47 93.7098L89.72 94.9398L89.38 96.1798L89.63 97.4099L89.33 98.6398L89.42 99.8798L89.63 100.98L90.73 100.91L91.97 101.08L93.2 101.06L94.44 100.94L95.81 101.22L95.82 99.5698L95.53 98.1698L94.13 98.1098L92.56 98.0598L92.75 96.6998L92.73 95.3798L92.76 94.0499L92.79 92.7298L92.52 91.4099L92.48 90.0698L92.64 88.7498Z" fill="black"/>
<path d="M120.38 104.211V102.971V101.741V100.501V99.2712V98.0312H118.84H117.29V99.2613V100.491L117.28 101.731L117.29 102.971V104.201H118.84L120.38 104.211Z" fill="black"/>
<path d="M98.77 57.8984V59.4384L98.76 60.9784H100.31H101.85V59.4384V57.8984H100.31H98.77Z" fill="black"/>
<path d="M95.6799 54.8086V56.3486L95.6699 57.8986H97.2199L98.7599 57.8886V56.3486L98.7699 54.8086H97.2199H95.6799Z" fill="black"/>
<path d="M111.12 107.289H112.35L113.58 107.279L114.82 107.289H116.05H117.29L117.3 105.749L117.29 104.199L116.06 104.209H114.83L113.59 104.199H112.35H111.11L111.12 105.749V107.289Z" fill="black"/>
<path d="M101.85 60.9805V62.5305V64.0705H103.4H104.94V62.5305V60.9905L103.4 60.9805H101.85Z" fill="black"/>
<path d="M108.03 98.0312V99.2613L108.04 100.491L108.02 101.731L108.03 102.971V104.211L109.57 104.201L111.12 104.211L111.11 102.971V101.741V100.501L111.12 99.2712L111.11 98.0312L109.57 98.0413L108.03 98.0312Z" fill="black"/>
<path d="M95.6699 98.0314H97.2199H98.7599V96.4914V94.9414H97.2199H95.6799L95.6699 96.4914V98.0314Z" fill="black"/>
<path d="M156.72 52.9414L155.41 53.2114L154.12 53.5614L153.05 54.3514L152.07 55.1014L151.06 55.8214L150.15 56.6614L149.1 57.3214L148.11 58.0714L147.15 58.8414L146.15 59.5714L145.13 60.2714L144.04 60.8714L143.01 61.5514L141.96 62.2114L140.92 62.8714L139.85 63.5114L138.85 64.2414L137.78 64.8714L136.66 65.4014L135.55 65.9714L134.48 66.6014L133.4 67.1914L132.25 67.6614L131.16 68.2414L130.02 68.7514L128.92 69.3114L127.78 69.7914L126.65 70.3114L125.49 70.7714L124.36 71.2714L123.19 71.6814L122.02 72.1114L120.82 72.4314L119.67 72.9114L118.47 73.2514L117.29 73.6614L117.28 73.4014L115.75 73.2714L114.16 73.2814L114.21 74.5514H114.25L114.26 75.4814L114.21 76.4214L115.75 76.3514L117.25 76.4614L117.29 77.9614L117.28 79.5214L118.84 79.4914L120.34 79.5514L120.43 81.0514L120.41 82.5714L121.92 82.5514L123.45 82.6114L123.49 84.1414L123.53 85.6814L123.47 85.6214L122.25 85.6914L121.04 85.7214L119.82 85.7114L118.6 85.6614L117.38 85.6714L116.16 85.6614L114.94 85.7014L113.67 85.6914L112.39 85.7114L111.11 85.6714L111.09 86.5514H111.15L111.13 87.8714L111.09 89.2014V90.5314L111.07 91.9114H112.66L114.2 91.8514L114.15 90.3114L114.19 88.7514L115.44 88.8114L116.67 88.7314L117.9 88.8114L119.14 88.7514H120.37L121.61 88.7914L122.84 88.7114L124.08 88.7214L125.32 88.7914L126.59 88.8014L126.63 87.5314V86.3014L126.49 85.0714L126.62 83.8314L126.54 82.6114L125.12 82.5714L126.29 82.2414L127.44 81.8114L128.56 81.3114L129.71 80.8914L130.82 80.3614L131.95 79.9014L133.07 79.3914L134.22 78.9614L135.33 78.4414L136.43 77.9114L137.52 77.3414L138.57 76.6914L139.69 76.1814L140.75 75.5614L141.85 75.0014L142.96 74.4914L144.01 73.8414L145.08 73.2414L146.08 72.5414L147.17 71.9814L148.15 71.2414L149.17 70.5614L150.25 69.9714L151.23 69.2414L152.28 68.6014L153.24 67.8314L154.19 67.0714L155.25 66.4414L156.15 65.6114L157.16 64.9114L158.1 64.1414L159.05 63.3614L159.99 62.6014L160.89 61.7914L161.54 60.7714L161.95 59.6314L162.23 58.4614L162.04 57.2514L161.66 56.0814L161 55.0514L160.14 54.1714L159.1 53.5114L157.93 53.1614L156.72 52.9414Z" fill="black"/>
<path d="M117.29 98.0216V96.8016V95.5616V94.3316L117.3 93.0916L117.29 91.8616L115.75 91.8516L114.21 91.8616V93.0916L114.2 94.3216L114.21 95.5516L114.2 96.7916V98.0316H115.75L117.29 98.0216Z" fill="black"/>
<path d="M98.77 94.9394H100.31H101.85V93.3994V91.8594H100.31H98.77L98.76 93.3994L98.77 94.9394Z" fill="black"/>
<path d="M104.94 91.8616L104.95 93.0916V94.3216L104.94 95.5516L104.95 96.7916V98.0216H106.48L108.03 98.0316L108.02 96.8016V95.5616V94.3316L108.03 93.0916V91.8516L106.48 91.8616H104.94Z" fill="black"/>
<path d="M101.85 88.7695V90.3095V91.8595H103.4L104.94 91.8495V90.3095V88.7695H103.4H101.85Z" fill="black"/>
</svg>
