<svg width="266" height="127" viewBox="0 0 266 127" fill="none" xmlns="http://www.w3.org/2000/svg">
<g clip-path="url(#clip0_677_25065)">
<path d="M126.27 56.4991C128.699 58.5367 131.022 60.6966 133.23 62.9788L136.743 59.58C134.771 57.5424 132.692 55.6026 130.557 53.7442L160.355 34.5498L157.739 30.4175L154.683 32.3166L154.715 32.3655L126.596 50.4759C123.05 47.721 119.318 45.2025 115.422 42.953L112.976 47.1912C116.18 49.0414 119.26 51.0872 122.211 53.3041L93.9531 71.5042L96.602 75.612L126.262 56.5073L126.27 56.4991Z" fill="black"/>
<path d="M265.066 73.0448C264.495 70.9664 263.607 69.0999 262.254 67.6165C260.111 65.261 257.25 63.688 254.389 62.278C243.801 57.0616 232.407 53.5162 220.735 51.7556C215.323 50.9406 209.83 50.8183 204.459 49.9951C200.098 49.3268 193.39 51.0384 189.429 49.0823C187.302 48.0309 184.091 36.3349 182.868 33.8082C182.534 33.1236 181.54 33.0421 181.311 32.5938C179.755 29.5455 178.899 25.8941 176.014 23.3837C174.677 22.2264 173.071 21.9003 171.523 21.1586C169.827 20.3436 168.026 19.7486 166.192 19.3329C162.557 18.5016 158.808 18.3386 155.091 18.3386C153.127 18.3386 151.163 18.3875 149.198 18.5097C138.766 19.1781 129.336 23.3104 119.987 27.7116C111.722 31.5994 104.419 36.9788 96.1304 40.5243C93.995 40.1004 94.916 31.249 94.5411 29.0728C94.1172 26.6195 92.7235 22.9518 91.2564 20.9304C87.5561 15.8282 69.6494 6.61813 63.3654 3.56984C62.9986 3.39053 62.7785 2.11905 61.7271 1.58927C45.7603 -6.34933 32.3282 17.6947 25.1232 28.1925C20.5589 34.8352 15.7827 42.0239 11.6341 49.1719C9.66167 55.4723 6.89865 61.4792 4.89362 67.7796C2.62778 74.895 1.40521 82.5483 0.736864 89.9652C0.34564 94.285 -0.110789 99.0612 0.0359204 103.65C0.296737 104.636 0.630908 105.614 1.05473 106.568C2.73374 110.399 5.74128 113.325 9.17264 114.759C10.004 115.387 11.1532 115.965 11.6015 116.218C15.9539 118.688 20.5181 120.782 25.2373 122.469C27.927 123.431 30.6574 124.263 33.4286 124.955C33.7383 125.037 34.0806 125.094 34.4148 125.118C34.8549 125.224 35.295 125.338 35.7352 125.428C40.544 126.398 45.6217 126.61 50.292 125.11C54.3672 123.798 57.3584 121.182 59.8688 118.044C60.0074 118.003 60.1378 117.954 60.2763 117.913C60.4964 117.359 60.8876 116.854 61.4419 116.414L61.2707 116.161C63.8381 112.534 65.9735 108.459 68.4676 104.946C70.2118 102.493 73.5943 96.991 75.9661 100.602C78.6802 104.726 81.9404 113.056 85.8771 115.957C95.5843 123.105 116.417 120.717 127.396 117.424C135.082 115.118 143.257 110.35 150.788 107.31C152.124 107.187 156.656 110.773 158.425 111.906C178.85 125.086 208.73 126.993 232.871 124.271C241.104 123.342 253.59 121.279 261.089 117.441C262.613 116.658 264.756 115.264 265.457 113.659C265.498 106.853 265.539 100.047 265.579 93.2417C265.612 87.6097 266.802 79.3451 265.074 73.0529L265.066 73.0448ZM194.686 68.7984C195.876 67.2009 197.074 65.6034 198.493 64.2096C204.361 58.4635 214.011 57.0779 221.885 57.2328C231.323 57.4121 240.704 60.0855 248.798 64.9513C250.909 66.2228 252.979 67.6899 254.397 69.7112C255.815 71.7325 256.484 74.4141 255.595 76.7207C254.487 79.5978 251.422 81.0893 248.472 82.1081C246.947 82.9558 245.073 83.4285 243.182 83.6893C241.617 84.1132 240.044 84.5044 238.455 84.8467C226.286 87.732 213.579 88.3351 201.19 86.648C198.688 86.3057 192.575 86.1019 189.014 84.3984C188.011 84.0806 187.196 83.6241 186.707 82.9395L187.082 83.0129C186.405 82.2304 186.128 81.2605 186.463 80.0379C187.677 75.5959 192.029 72.3601 194.686 68.7984ZM90.5881 63.2723C90.694 61.6993 91.1912 60.0936 91.9492 58.5858C92.0796 57.9663 92.2589 57.3632 92.4871 56.7764C92.479 56.7845 92.4708 56.8008 92.4545 56.809C92.4056 54.7713 93.5549 52.155 94.8834 50.6879C96.2934 49.1312 104.224 43.2465 106.376 41.8039C108.886 40.133 126.638 30.6458 131.83 29.2032C132.164 29.032 132.547 28.9016 132.987 28.8283C134.715 28.5185 136.418 28.1599 138.114 27.785C140.926 26.8884 143.884 26.269 146.859 25.8126C149.647 25.2257 152.459 24.7123 155.344 24.4107C161.334 23.7913 168.572 23.0985 173.055 27.8991C174.009 28.9179 174.4 30.4421 174.114 31.7869C174.082 34.0853 173.593 37.1255 173.079 38.234C166.893 51.6089 133.884 70.4366 119.971 76.5821C115.887 78.3915 100.312 85.3276 96.9292 85.3276H82.2583C80.3347 84.8386 82.3968 80.584 82.8532 79.4022C84.9805 73.925 88.257 68.725 90.5799 63.256L90.5881 63.2723ZM14.3075 108.997C11.2836 109.274 8.39834 106.56 7.21652 103.862C5.69237 100.39 5.77388 96.1759 6.09175 92.1496C6.96385 81.0404 9.42531 70.2003 13.4191 59.8491C17.0623 52.9619 21.2028 46.3519 24.626 39.3424C26.0768 36.3675 27.7966 33.148 30.1031 30.7029C31.8881 27.6627 33.7953 24.6226 35.8656 21.827C39.1339 17.4176 47.3822 7.05826 52.517 5.81938C59.1923 4.21373 60.7002 10.7341 62.2651 15.763C59.9177 36.449 51.3271 55.4723 41.7502 73.6479L41.5057 73.4849C39.8919 77.0385 37.5935 80.0542 35.2461 83.2737C32.0185 87.6994 29.1658 92.4593 26.1665 97.048C23.542 101.058 19.9965 108.94 14.9758 108.891C14.7557 108.94 14.5357 108.972 14.3156 108.997H14.3075ZM68.2964 93.7715C64.7836 100.031 61.3522 107 57.7252 112.958C57.2117 113.805 55.9403 115.9 54.5628 118.093C53.9189 118.549 53.275 118.989 52.5904 119.38C48.0017 122.054 42.4104 122.551 37.1533 121.801C32.043 121.068 27.1608 119.242 22.3357 117.4C20.942 116.544 19.5482 115.688 18.0974 114.938C20.0291 114.205 21.7081 113.039 23.1589 111.703C23.273 109.861 24.5282 108.002 26.5169 107.636C29.5408 101.726 33.6486 96.6161 36.9659 90.8129C39.9979 85.5069 42.4023 79.4918 46.8932 75.2047C57.1139 56.0591 66.2425 36.1637 68.003 14.4182C69.8695 12.5843 86.0971 22.2916 87.605 24.5737C89.6426 27.6627 90.5718 34.8922 90.0501 38.5111C86.7492 61.4059 79.1529 74.4304 68.3046 93.7715H68.2964ZM151.684 100.536C137.25 109.331 116.336 117.547 98.6571 115.403C96.4972 115.142 93.131 114.156 91.3379 112.933C87.0997 110.056 83.1956 103.267 81.2639 98.564C76.7078 87.4875 83.1304 91.9295 91.1994 91.0004C120.566 87.6179 148.4 69.5727 170.414 50.8183L178.434 42.1462C182.819 47.7619 189.266 60.2485 187.18 67.1764C186.707 68.7576 182.477 75.3025 181.295 76.7777C175.549 83.9583 159.607 95.7113 151.684 100.536ZM261.17 110.195C261.17 110.716 257.127 113.83 256.215 114.205C253.337 115.37 245.277 117.212 241.919 117.84C219.293 122.078 190.693 121.614 169.322 112.387C166.249 111.059 158.498 107.513 158.466 103.666C158.449 101.172 175.851 89.2643 179.315 87.789C180.341 87.569 181.311 87.7646 182.314 87.9602C186.634 88.7916 193.659 92.174 197.979 92.6957C210.89 94.2443 237.672 93.2254 249.947 89.1991C253.427 88.058 256.647 84.6185 261.17 85.3439V110.203V110.195Z" fill="black"/>
<path d="M48.9383 54.1846L47.9114 49.4002C42.7602 50.5006 37.658 51.878 32.6373 53.5C37.4054 43.6949 42.6787 34.1425 48.4575 24.8917L44.3088 22.2998C37.5847 33.0748 31.5207 44.2573 26.1414 55.7576C22.6529 57.0536 19.2053 58.4718 15.8228 60.0122L17.8523 64.4624C19.6291 63.6473 21.4304 62.8893 23.2398 62.1476C18.7651 72.3113 14.8121 82.7032 11.4297 93.2826L16.0836 94.7741C19.9144 82.801 24.4787 71.0643 29.7276 59.6536C36.0035 57.4122 42.4261 55.5783 48.9302 54.1846H48.9383Z" fill="black"/>
</g>
<defs>
<clipPath id="clip0_677_25065">
<rect width="266" height="126.202" fill="white"/>
</clipPath>
</defs>
</svg>
