<svg width="289" height="155" viewBox="0 0 289 155" fill="none" xmlns="http://www.w3.org/2000/svg">
<g clip-path="url(#clip0_178_16)">
<mask id="mask0_178_16" style="mask-type:luminance" maskUnits="userSpaceOnUse" x="-1" y="-1" width="290" height="157">
<path d="M-0.249932 -0.249687L1.24007 -0.319687L2.48007 -0.0796875L3.72007 -0.359688L4.97007 0.0603125L6.21007 0.420313L7.45007 -0.329688L8.69007 0.180313L9.94007 0.0703125L11.1801 0.160313L12.4201 0.0403125L13.6601 0.380313L14.9101 0.250313L16.1501 -0.139687L17.3901 0.120313L18.6301 -0.239687L19.8701 -0.259687L21.1101 -0.0696875L22.3501 0.330312L23.6001 -0.389687L24.8401 0.300313L26.0801 -0.159687L27.3201 0.0503125L28.5601 -0.379687L29.8001 -0.119687L31.0401 0.360313L32.2801 0.310313L33.5201 -0.359688L34.7601 -0.249687L36.0001 0.130313L37.2401 0.0403125L38.4801 0.120313L39.7201 -0.299688L40.9601 -0.249687L42.2001 -0.0996875L43.4501 0.0703125L44.6901 0.390312L45.9301 0.000312507L47.1701 0.430313L48.4101 0.000312507L49.6501 0.110313L50.8901 0.300313L52.1401 0.000312507L53.3801 -0.0996875L54.6201 -0.0196875L55.8601 -0.269688L57.1101 0.0703125L58.3501 -0.349687L59.5901 -0.399687L60.8301 -0.229687L62.0801 -0.419687L63.3201 0.0503125L64.5601 -0.229687L65.8001 -0.219687L67.0501 0.270313L68.2901 0.230313L69.5301 0.390312L70.7701 -0.00968748L72.0101 0.250313L73.2501 0.150313L74.4901 -0.259687L75.7301 0.410313L76.9801 -0.0896875L78.2201 -0.229687L79.4601 -0.279687L80.7001 0.0803125L81.9401 -0.259687L83.1801 -0.0896875L84.4201 -0.169688L85.6701 -0.229687L86.9101 -0.0396875L88.1501 -0.0496875L89.3901 0.130313L90.6401 0.390312L91.8801 -0.229687L93.1201 0.0303125L94.3601 0.180313L95.6101 0.210312L96.8501 0.140312L98.0901 0.210312L99.3401 -0.359688L100.58 -0.209687L101.82 0.0603125L103.06 -0.0596875L104.3 0.360313L105.55 0.100313L106.79 -0.209687L108.03 -0.0496875L109.27 0.100313L110.5 0.310313L111.74 0.0303125L112.98 0.160313L114.22 0.310313L115.45 -0.119687L116.69 0.330312L117.93 0.250313L119.17 -0.209687L120.4 -0.109688L121.64 0.300313L122.88 -0.149687L124.12 0.240313L125.35 -0.189687L126.59 -0.119687L127.83 -0.179688L129.07 -0.239687L130.31 0.200312L131.54 -0.0996875L132.78 -0.159687L134.02 0.410313L135.26 -0.319687L136.5 -0.169688L137.74 -0.109688L138.98 -0.299688L140.23 0.120313L141.47 0.150313L142.71 -0.0696875L143.96 0.000312507L145.2 -0.169688L146.44 0.0803125L147.69 0.0303125L148.93 -0.269688L150.17 -0.139687L151.42 -0.119687L152.66 -0.0196875L153.9 0.140312L155.14 -0.229687L156.38 0.240313L157.62 0.180313L158.86 0.390312L160.1 0.210312L161.34 0.0203125L162.58 -0.379687L163.82 -0.0596875L165.06 -0.169688H166.3L167.54 -0.299688L168.79 -0.0696875L170.03 -0.379687L171.27 0.290313L172.51 -0.0296875L173.75 0.200312L175 -0.389687L176.24 0.120313L177.49 0.0703125L178.73 0.0303125L179.98 0.120313L181.22 0.0903125L182.47 -0.349687L183.71 0.0503125L184.95 0.250313L186.19 -0.199687L187.44 0.290313L188.68 0.380313L189.92 -0.169688L191.16 0.240313L192.4 -0.249687L193.65 -0.399687L194.89 0.0703125L196.13 0.0603125L197.38 0.210312L198.62 -0.179688L199.87 -0.429688L201.11 0.150313L202.36 -0.339687L203.6 -0.139687L204.85 0.0703125L206.09 0.0503125L207.34 -0.00968748L208.58 0.200312L209.82 0.310313L211.07 0.180313L212.31 0.0803125L213.55 -0.0896875L214.8 0.250313L216.04 0.000312507L217.29 -0.189687L218.54 -0.419687L219.78 0.0603125L221.03 0.370313L222.27 0.340312L223.52 0.110313L224.76 -0.319687L226.01 -0.0596875L227.25 -0.0196875L228.5 0.110313L229.74 -0.219687L230.99 0.000312507L232.24 0.340312L233.48 -0.0796875L234.73 0.420313L235.97 -0.0196875L237.22 0.420313L238.46 0.240313L239.71 0.0303125L240.95 0.370313L242.2 0.260312L243.44 0.000312507L244.68 0.410313L245.92 -0.289687L247.17 -0.339687L248.41 -0.279687L249.65 -0.289687L250.9 -0.159687L252.15 -0.329688L253.39 -0.109688L254.64 -0.229687L255.88 0.000312507L257.13 0.200312L258.37 0.270313L259.62 0.330312L260.87 -0.0996875L262.12 -0.359688L263.36 -0.249687L264.61 -0.419687L265.86 0.400313L267.11 0.370313L268.35 0.000312507L269.6 0.230313L270.85 -0.0496875L272.1 -0.0896875L273.35 -0.309687L274.59 0.130313L275.84 -0.0696875L277.09 0.310313L278.34 -0.119687L279.59 0.280313L280.84 -0.309687L282.09 -0.139687L283.34 0.390312H284.59L285.84 0.290313L287.1 -0.309687L288.54 -0.189687L288.7 1.23031L288.61 2.47031L288.5 3.71031L288.78 4.94031L288.03 6.18031V7.42031L288.33 8.65031L288.26 9.89031L288.7 11.1303L287.96 12.3703L288.1 13.6103L288.09 14.8503L288.21 16.0903L288.4 17.3303L287.93 18.5603L288.6 19.8003L288.35 21.0403L288.12 22.2803L288.43 23.5103L288.29 24.7503L288.48 25.9803L288.74 27.2203L288.66 28.4503L288.36 29.6903L288.42 30.9303L288.43 32.1603L288.12 33.4003L288.25 34.6303L288.3 35.8703L288.76 37.1103L288.71 38.3403L288.17 39.5803L288 40.8203L288.67 42.0603L288.47 43.3003L288.24 44.5403L288.11 45.7803L288.21 47.0203L288.23 48.2603L288.26 49.5003L288.07 50.7403L288.08 51.9803L287.93 53.2103L288.05 54.4503L287.96 55.6903L288.61 56.9303L288.05 58.1603L287.96 59.4003L288.57 60.6403L288.04 61.8803L288.35 63.1203L288.75 64.3603L288.39 65.6003L288.14 66.8403L287.95 68.0803L288.72 69.3203L288.76 70.5603V71.8003L287.94 73.0403L288.4 74.2803L288.39 75.5203L287.99 76.7603L288.1 77.9903L288.66 79.2303L288.03 80.4703L288.71 81.7103L288.63 82.9503L288.3 84.2003L288.23 85.4403L288.28 86.6803L288.48 87.9203L288.41 89.1603L288.09 90.4003L288.45 91.6403L288.39 92.8803L288.13 94.1203L288.5 95.3603L288.55 96.6003L287.93 97.8403L288.48 99.0903L288.03 100.33L288.53 101.57L288.73 102.81L288.08 104.05L287.97 105.29L288.29 106.53L288.1 107.77L288.37 109.01L288.45 110.25L288.33 111.49L288.18 112.72L288.49 113.96L288.03 115.2L288.44 116.44L288.43 117.68L288.49 118.92L288.41 120.17L288.56 121.41L288.28 122.65L288.74 123.89L288.18 125.13L288.71 126.37L288.52 127.61L288.63 128.86L288.08 130.1L288.53 131.34L288.03 132.58L288 133.83L288.09 135.07L288.45 136.31L288.54 137.56L288.35 138.8L288.52 140.05L288.02 141.29L288.52 142.53L288.66 143.78L288.48 145.02V146.26L288.42 147.51L288.32 148.76L288.49 150L288.24 151.25L288.37 152.5L288.64 153.75L288.27 154.91L287.12 155.36L285.87 155.02L284.63 154.87L283.39 155.36L282.15 155.35L280.91 155.21L279.66 155.13L278.42 154.71L277.18 155.14L275.94 155.01L274.69 155.04L273.45 154.76L272.21 155.09L270.97 154.82L269.73 154.85L268.48 155.39L267.24 155.41L266 154.65L264.76 154.59L263.52 154.89L262.28 154.86L261.04 155.14L259.8 155.21L258.56 154.68L257.32 154.91L256.08 155.41L254.84 154.93L253.6 154.68L252.36 155.17L251.12 154.78H249.87L248.63 155.25L247.39 155.18L246.15 154.7L244.91 154.69L243.67 155.08L242.43 155.27L241.19 154.84L239.95 154.88L238.71 155.02L237.46 155.25L236.22 155.26L234.98 155.2L233.74 154.84L232.49 154.79L231.25 155.17L230.01 155.13L228.77 155.22L227.52 155.11L226.28 155.1L225.04 154.75L223.8 154.61L222.55 154.69L221.31 155.39L220.07 155.14L218.83 155.24L217.59 154.94L216.35 155.35L215.1 155.11L213.86 154.58L212.62 154.82L211.38 154.76L210.14 154.64L208.9 154.94L207.66 155.37L206.42 154.8L205.17 155.23L203.93 155.34L202.69 155.08L201.45 155.26L200.21 155.34L198.96 154.84L197.72 155.17L196.48 155.32L195.24 155.3L193.99 154.91L192.75 154.89L191.51 154.71L190.26 155.22H189.02L187.78 155.14L186.54 154.9L185.29 155.02L184.05 154.98L182.81 154.61L181.57 155.23L180.33 154.97L179.09 154.78L177.85 155.26L176.61 155.04L175.38 155.3L174.14 154.71L172.9 155.22L171.66 154.87L170.43 155.06L169.19 155.12L167.95 155.28L166.72 154.84L165.48 154.97L164.24 154.6L163 154.7L161.77 155.43L160.53 154.66L159.29 155.35L158.05 154.61L156.81 155.18L155.57 155.36L154.33 154.79L153.09 154.96L151.85 155.14L150.61 154.89L149.37 155.05L148.13 154.97L146.89 154.72L145.64 155.43L144.4 154.84L143.16 154.9L141.91 155.01L140.67 154.57L139.43 155.08L138.18 155.28L136.94 155.17L135.7 154.86L134.46 154.88L133.22 154.96L131.98 155.16L130.73 155.41L129.49 154.75L128.25 155.33L127.01 154.92L125.77 154.61L124.53 154.7L123.29 154.76L122.05 155.32L120.81 155.34L119.57 154.62L118.33 155.27L117.09 155.41L115.85 154.98L114.6 155.11L113.36 155.23L112.12 154.85L110.87 154.83L109.62 154.69L108.38 155.16L107.14 154.95L105.89 154.74L104.65 154.69L103.41 154.78L102.16 155.2L100.92 154.74L99.6801 154.81L98.4401 154.65L97.1901 155.29L95.9501 155.38L94.7101 154.8L93.4701 155.07L92.2201 154.95L90.9801 155.06L89.7401 154.87L88.4901 155.37L87.2401 154.83L86.0001 155.28L84.7501 154.79L83.5101 154.81L82.2601 155.04L81.0201 154.71L79.7801 155.4L78.5301 154.78L77.2901 155.39L76.0501 155.11L74.8001 154.7L73.5601 154.9L72.3101 154.95L71.0701 154.85L69.8201 155.36L68.5701 154.79H67.3301L66.0801 154.74L64.8401 154.96L63.6001 155.01L62.3501 154.67L61.1101 155.41L59.8601 154.75L58.6101 155L57.3701 154.64L56.1201 155.41L54.8801 154.98L53.6301 154.64L52.3901 155.41L51.1401 155.15L49.8901 155.13L48.6501 154.59L47.4001 154.92L46.1601 155.13L44.9201 154.83L43.6701 155.09L42.4301 154.83L41.1901 155.33L39.9501 154.72L38.7001 155.3L37.4601 155.1L36.2101 155.41L34.9601 154.87L33.7201 154.69L32.4701 154.97L31.2301 154.82L29.9801 155.17L28.7401 154.92L27.4901 154.88L26.2401 155.12L25.0001 155.1L23.7501 155.29L22.5001 155.05L21.2501 154.84L20.0001 155.12L18.7601 154.74L17.5101 154.77L16.2601 154.86L15.0101 154.97L13.7601 155.16L12.5101 155.27L11.2701 155.13L10.0201 154.68L8.77007 155.03L7.52007 155.27L6.27007 155.36L5.02007 154.66L3.76007 154.77L2.51007 155.08L1.26007 154.59L-0.109932 155.12L0.0500684 153.77L-0.0399316 152.53L-0.129932 151.29L-0.149932 150.06L-0.129932 148.82L-0.409932 147.58L0.380068 146.35L-0.149932 145.11L-0.109932 143.87L0.280068 142.63L-0.129932 141.39L-0.379932 140.15L-0.149932 138.91L0.410068 137.67L0.260068 136.44L0.190068 135.2L-0.119932 133.96L-0.189932 132.72L0.0600684 131.49L-0.129932 130.25L-0.339932 129.02L-0.109932 127.78L-0.309932 126.55L0.260068 125.31L0.340068 124.07L0.230068 122.84L-0.0299316 121.6L0.0600684 120.37L0.420068 119.13L-0.419932 117.89L-0.0899316 116.66L-0.349932 115.42L0.340068 114.18L0.390068 112.94L0.150068 111.7L0.0200684 110.46L0.160068 109.22L-0.219932 107.98L-0.00993162 106.74L0.0200684 105.5L-0.179932 104.26L-0.209932 103.02L-0.369932 101.79L-0.109932 100.55L0.240068 99.3103L-0.199932 98.0703L-0.149932 96.8403L0.260068 95.6003L-0.0499316 94.3603L-0.119932 93.1203L0.270068 91.8803L0.170068 90.6403L0.430068 89.4003L0.200068 88.1603L-0.199932 86.9203L-0.159932 85.6803L-0.129932 84.4403L0.380068 83.2003L-0.389932 81.9603L-0.379932 80.7203L-0.0299316 79.4803L0.210068 78.2403L-0.139932 77.0103L-0.0899316 75.7703L0.250068 74.5303L0.410068 73.2903L0.240068 72.0503L-0.429932 70.8003L0.150068 69.5603L-0.169932 68.3203L-0.0899316 67.0803L0.320068 65.8403L-0.179932 64.6003L-0.239932 63.3603L-0.149932 62.1203L-0.229932 60.8803L-0.0199316 59.6403L-0.409932 58.4003L-0.249932 57.1603L-0.369932 55.9103L-0.389932 54.6703L-0.219932 53.4303L0.350068 52.1903L-0.139932 50.9503L0.350068 49.7103L-0.189932 48.4703L-0.179932 47.2303L-0.259932 45.9903L0.110068 44.7503L0.140068 43.5103L0.300068 42.2803L0.290068 41.0403L0.240068 39.8003L0.180068 38.5603V37.3203L0.430068 36.0803L0.0800683 34.8303L0.370068 33.5903V32.3503L0.0800683 31.1103L-0.129932 29.8703L-0.319932 28.6303L0.200068 27.3903L0.380068 26.1403L-0.399932 24.9003L-0.129932 23.6603L-0.119932 22.4203L0.0900683 21.1703L0.150068 19.9303L0.220068 18.6903L-0.119932 17.4403L0.130068 16.2003L0.340068 14.9503L0.0300684 13.7103L0.310068 12.4703L-0.289932 11.2203L0.410068 9.98031L0.320068 8.74031L0.210068 7.49031L0.260068 6.24031L-0.229932 5.00031L-0.219932 3.75031L-0.119932 2.50031L-0.0799316 1.26031L-0.249932 -0.249687Z" fill="white"/>
</mask>
<g mask="url(#mask0_178_16)">
<path d="M147.35 0.0895312L148.28 0.359531L149.3 0.549531L150.23 1.66953L151.34 2.11953L152.62 2.38953L153.54 3.22953L154.61 3.88953L155.36 4.89953L156.27 5.72953L156.91 6.83953L157.91 7.58953L158.82 8.43953L159.54 9.46953L160.4 10.3595L161.24 11.2695L162.44 11.8095L163 13.0095L164.07 13.8995L164.89 14.0695L164.08 12.9395L165.06 13.7895L166.05 14.6295L166.9 15.6095L167.73 16.6095L168.4 17.7495V19.0895L168.82 20.1995L169.64 21.1995L170.16 22.3295L170.1 23.5895L169.98 24.8195L170.5 26.0195L169.87 27.1895L169.7 28.3495L170.03 27.8695L169.01 29.1795L168.75 30.5795L168.62 31.7795L168.22 32.8995L168.45 34.1595L167.92 35.2495L167.74 36.4195L167.29 37.5295L166.96 38.6595L166.89 39.7395L166.48 39.5695L166.83 39.9495L167.47 40.8995L167.94 41.6995L168.15 42.7995L169.3 43.1495L170.29 43.6695L170.44 44.5495L171.76 44.7095L173.02 44.1095L174.26 44.3095L175.51 44.4095L176.76 44.7495L178 44.2595H179.25L180.47 44.0795L181.22 43.3095L182.51 43.9295L183.71 43.7395L184.92 43.5595L186.14 43.5995L187.36 43.6295L188.58 42.9495L189.79 43.6695L191.03 42.9895L192.25 43.1295L193.47 43.2195L194.7 43.1295L195.91 43.4195L197.12 43.6695L198.36 43.4495L199.56 43.9395L200.78 44.1395L202.03 43.6495L203.26 43.5095L204.47 43.9095L205.7 43.5895L206.92 43.6995L208.14 43.9995L209.35 43.7495L210.57 43.7295L211.77 43.4895L213.05 43.4695L214.22 44.1895L215.56 44.2795L216.9 44.1595L218.24 44.0595L219.61 43.8795L220.36 44.4695L221.6 44.8995L222.89 44.6895L224.17 44.8795L225.45 44.8595H226.74L228.01 45.0895L229.24 45.5795L230.54 45.0295L229.89 45.5195L231 46.1095H232.21L233.42 45.9995L234.59 46.4395L235.74 46.6495L237.06 46.2195L238.28 46.4095L239.41 47.1095L240.71 46.8795L241.91 47.1895L243.12 47.4295L244.22 48.1695L245.51 48.0795L246.77 48.1195L247.94 48.5295L249.04 49.1795L250.24 49.4595L251.49 49.5995L252.61 50.1695L253.68 50.8695L254.92 51.0195L256.15 51.2195L257.34 51.5395L258.45 52.0895L259.7 52.2395L260.67 53.1895L262.06 52.9095L263.19 53.3495L264.25 53.9895L265.49 54.1495L266.48 54.9695L267.48 55.7495L268.89 55.5095L269.82 56.4495L270.98 56.8395L272.05 57.4395L273.2 57.8595L274.12 58.7195L275.25 59.1895L276.5 59.4695L277.4 60.3395L278.62 60.7295L279.63 61.4395L280.47 62.3595L281.12 63.4595L282.5 63.7895L282.83 65.1595L283.96 65.7995L284.51 66.9095L285.53 67.7195L285.89 68.9295L285.97 70.2295L286.44 71.3295L287.43 72.3095L287.33 73.8795L287.45 74.3395L287.7 75.4995L287.66 76.6895L288.05 77.8995L287.94 79.0895L287.72 80.2695L287.48 81.4495L287.12 82.6395L287.5 83.8395L287.17 85.0795L287.78 86.1495L288.04 85.7995L287.96 87.0795L288.28 88.3395L288.33 89.6295L288.1 90.8995V92.2095L287.44 93.3695L287.41 94.7295L286.94 95.9495L286.19 97.0295L285.67 98.2395L284.53 99.0195L283.93 100.19L283.03 101.12L281.75 101.62L280.79 102.44L279.64 103.06L278.77 104.12L277.52 104.59L276.45 105.33L275.51 106.32L274.04 106.39L273.2 107.52L272.39 108.48L271.9 109.56L271.36 110.8L271.87 112.03L272.28 113.23L273.19 114.16L274.21 114.99L275.08 116L275.99 116.96L276.55 117.97L276.82 119L277.98 119.87L278.2 121.21L278.36 122.52L278.46 123.82L278.51 125.12L278.25 126.4L278.41 127.84L277.71 128.9L276.81 129.77L276.16 130.8L275.06 131.44L274.42 132.5L273.77 133.58L272.76 134.29L271.74 134.97L270.66 135.56L269.85 136.49L268.72 137.04L267.58 137.55L266.7 138.54L265.39 138.73L264.32 139.36L263.39 140.31L262.21 140.75L260.9 140.87L259.92 141.76L258.62 141.87L257.61 142.72L256.41 143.08L255.25 143.56L254.08 144.02L252.75 144L251.65 144.67L250.47 145.09L249.1 144.91L248.1 145.96L246.85 146.16L245.62 146.43L244.46 146.95L243.14 146.85L241.93 147.14L240.78 147.66L239.6 147.89L238.48 148.36L237.25 148.43L236.1 148.79L235.02 149.4L233.82 149.57L232.65 149.83L231.45 149.99L230.24 150.07L229.06 150.65L227.73 150.39L226.49 150.65H225.21L223.99 151.01L222.77 151.37L221.57 151.94L220.27 151.8L219.03 152.08L217.77 152.24L216.53 152.53L215.24 152.46L214.01 152.93L212.56 152.4L211.2 152.82L209.8 152.71L208.49 153.44L207.66 153.48L206.42 153.58L205.16 153.56L203.9 153.42L202.63 153.51L201.92 154.5L200.56 154.2L199.25 153.98L197.9 154.36L196.6 153.79L195.26 153.69L193.97 154.33L192.97 154.09L193.22 154.96L191.96 155.23L190.66 154.85L189.39 154.92L188.12 154.81L186.86 155.24L185.59 155.52L184.31 154.96L183.05 155.46L181.78 155.26L180.51 155.05H179.24L177.97 155.1L176.7 154.86L175.43 154.72L174.15 154.8L172.88 154.84L171.6 154.93L170.38 154.47L169.24 154.55L168.53 154.07L169.52 154.58L168.4 154L167.21 153.68L166.02 153.76L164.85 154.06L163.69 154.55L162.49 154.34L161.31 154.29L160.15 154.06L159.35 153.84L158.19 153.59L156.98 153.31L155.81 153.78L154.68 153.21L153.4 153.51L152.23 152.93L150.99 152.96L149.74 153.01L148.57 152.51L147.34 152.45L146.09 152.53L144.93 151.96L143.61 152.48L142.39 152.35L141.18 152.11L139.96 151.94L138.76 151.63L137.52 151.61L136.37 151.24H135.17L134 150.89L132.83 150.56L131.65 150.35L130.49 150.1L129.24 150.27L127.97 150.23L126.79 149.83L125.54 149.71L124.53 148.62L123.32 148.36L122.03 148.42L120.88 147.9L119.61 147.86L118.39 147.59L117.13 147.49L116.04 146.73L114.79 146.59L113.7 145.88L112.38 145.93L111.3 145.19L109.93 145.37L108.8 144.81L107.79 143.9L106.62 143.48L105.42 143.14L104.04 143.24L102.89 142.73L101.7 142.31L100.59 141.73L99.48 141.1L98.2 140.84L97.35 139.63L96.2 139.1L94.94 138.81L94.17 138.03L92.92 137.77L92.36 136.48L91.33 135.88L90.4 135.15L89.39 134.51L88.34 133.92L87.68 132.82L86.32 132.65L85.49 131.76L84.62 130.91L83.42 130.54L82.4 129.85L81.19 130.1L80.77 129.86L79.44 129.68L78.01 129.61L76.63 129.98L75.46 130.25H74.22L73.09 130.68L71.95 131.07L70.94 131.86L69.78 132.16L68.47 132.01L67.28 132.22L66.33 133.22L65.12 133.38L63.9 133.49L62.71 133.68L61.57 134.07L60.4 134.34L59.04 134.65L57.63 134.75L56.27 135.07L54.91 135.14L53.79 135.37L52.64 135.35L51.53 136.06L50.34 135.59L49.15 135.66L48.71 136.81L47.48 136.3L46.24 136.53L45.11 136.98L43.65 136.85L42.25 136.68L40.85 136.54L39.59 137.48L39.01 138.08L37.79 138.17L36.55 137.39L35.36 137.88L34.16 137.9L32.95 137.51L31.75 137.63L30.55 138.19L29.34 137.56L28.13 138.24L26.92 138.16L25.71 137.81L24.5 137.73L23.29 137.75L22.08 137.9L20.88 137.73L20.55 136.92L19.34 137.08L18.17 136.87L17.04 136.45L15.81 136.56L14.65 136.22L13.55 135L12.03 134.56L11.4 133.41L10.2 132.83L9.24003 131.99L8.99003 130.6L8.34003 129.53L7.36003 128.69L6.81003 127.55L5.90003 126.66L5.16003 125.65L4.60003 124.52L4.08003 123.37L3.19003 122.44L2.98003 121.12L2.03003 120.2L1.47003 119.08L0.900029 117.96L0.540029 116.76L-0.00997069 115.4L0.610029 115.26L-0.389971 114.77L0.0600293 113.56L-0.469971 112.4L-0.189971 111.24L-0.119971 110.07L0.660029 109.05L0.500029 107.82L1.28003 106.84L1.68003 105.69L2.01003 104.52L2.14003 103.25L2.56003 102.09L3.27003 101.07L3.69003 99.8995L4.73003 99.0695L4.92003 97.7595L5.44003 96.6295L6.26003 95.6895L6.94003 94.6595L7.69003 93.6795L8.48003 92.7395L9.07003 91.6495L10 90.8095L10.65 89.7595L11.2 88.6195L12.3 87.9195L12.71 86.6595L13.76 85.9295L14.67 85.0895L15.11 83.8395L15.93 82.9095L16.86 82.0895L17.75 81.2295L18.89 80.5995L19.42 79.4095L20.36 78.5995L21.19 77.6895L22.25 76.9995L22.87 75.8895L23.92 75.1995L24.76 74.3095L25.25 73.0495L26.11 72.1695L27.51 71.8495L28.43 71.0295L29.1 69.9595L30 69.1395L30.7 68.0695L31.55 67.1595L32.82 66.6895L33.57 65.6695L34.14 64.4495L35.38 63.9495L36.46 63.2895L37.04 62.0795L38.23 61.5295L39.15 60.6895L39.76 59.4995L40.74 58.7195L41.99 58.2495L42.92 57.4295L43.6 56.3195L44.41 55.3495L45.63 54.8595L46.55 54.0195L47.4 53.0995L48.2 52.1195L49.14 51.3095L50.13 50.5495L51.31 50.0295L52.3 49.2795L53.02 48.1895L54.01 47.4395L54.92 46.5795L55.96 45.8795L56.94 45.1095L58.13 44.6095L59.19 43.9395L60.12 43.1095L60.67 41.7895L61.8 41.2195L62.73 40.3895L63.9 39.8695L64.65 38.7895L65.79 38.2395L67.1 37.9195L67.96 36.9895L69 36.3095L70.08 35.6795L70.92 34.7095L71.68 33.6295L73.03 33.3795L73.8 32.3095L74.76 31.5095L75.93 31.0195L76.85 30.1695L77.83 29.3995L79.14 29.1195L79.99 28.1595L80.94 27.3395L81.99 26.6695L83.25 26.3195L84.3 25.6595L85.45 25.1395L86.23 24.0495L87.28 23.3795L88.38 22.7895L89.57 22.3495L90.57 21.5995L91.66 20.9895L92.91 20.6695L93.67 19.5095L94.88 19.1095L96.05 18.6495L96.89 17.6095L98.08 17.1895L99.04 16.3495L100.41 16.2495L101.26 15.2095L102.52 14.9195L103.52 14.1595L104.59 13.5295L105.63 12.7895L106.95 12.5795L108.01 11.8795L109.3 11.6195L110.37 10.9395L111.15 9.70953L112.63 9.79953L113.43 8.58953L114.9 8.65953L115.76 7.55953L116.8 6.81953L118.19 6.74953L119.24 6.01953L120.29 5.28953L121.53 4.95953L122.61 4.28953L123.8 3.86953L125.04 3.76953L126.24 3.02953L127.53 3.46953L128.75 3.12953L129.94 2.68953L131.27 2.75953L132.34 1.92953L133.5 1.39953L134.74 1.17953H136.04L137.26 0.859531L138.47 0.509531L139.67 0.0795313L140.88 -0.360469L142.2 0.159531L143.43 -0.480469L144.68 -0.0204688L145.83 0.489531L147.18 0.819531L147.43 0.179531L147.35 0.0895312ZM140.3 10.2395L139.09 9.89953L137.87 9.66953L136.65 8.79953L135.34 8.87953L134.09 9.42953L133.53 9.84953L132.43 10.2595L131.25 10.2395L130.13 10.4995L128.93 10.4295L127.86 10.9095L126.78 11.3295L125.55 11.5895L124.39 12.0495L123.22 12.4895L122.25 13.3995L120.91 13.4295L119.78 13.9495L118.72 14.6295L117.62 15.2195L116.52 15.8095L115.47 16.4895L114.35 17.0395L113.24 17.5995L112.08 18.0695L110.7 18.1195L109.58 18.6695L108.7 19.6695L107.71 20.4495L106.47 20.7895L105.25 21.1595L104.4 22.1895L103.04 22.3295L101.97 22.9695L101.23 24.1895L99.75 24.1295L98.69 24.7995L97.71 25.5895L96.57 26.1295L95.77 27.2195L94.56 27.6295L93.54 28.3495L92.37 28.8395L91.27 29.4395L90.34 30.2995L89.2 30.8295L88.05 31.3295L87.29 32.4395L86.39 33.3295L85.06 33.5395L84.27 34.5895L83.1 35.0595L81.82 35.3595L80.76 36.0095L80.09 37.2295L78.96 37.7595L77.88 38.3695L76.66 38.7795L75.9 39.8595L74.86 40.5295L73.89 41.2995L73 42.1895L71.55 42.2795L70.59 43.0695L69.64 43.8695L68.58 44.5195L67.54 45.1995L66.93 46.4695L65.51 46.6295L64.93 47.9295L63.87 48.5795L62.85 49.2795L61.95 50.1395L60.82 50.6995L59.72 51.2995L58.91 52.2795L57.66 52.6995L56.6 53.3495L55.96 54.5495L55.1 55.4595L53.9 55.9495L53.15 56.9995L52.12 57.6995L50.97 58.2495L50.16 59.2095L49.19 59.9795L48.35 60.9095L47.36 61.6495L46.28 62.2895L45.36 63.1195L44.47 63.9795L43.55 64.8095L42.78 65.8095L41.83 66.5995L40.7 67.1995L39.97 68.2295L38.96 68.9595L38.09 69.8395L37.21 70.7095L36.21 71.4595L35.07 72.0595L34.72 73.4795L33.73 74.2295L32.55 74.7995L31.73 75.7295L31 76.7395L29.88 77.3795L28.96 78.2295L28.56 79.5595L27.72 80.4695L26.52 81.0495L26.03 82.2895L25.15 83.1695L24.34 84.1095L23.16 84.7295L22.64 85.9295L22.04 87.0495L21.17 87.9395L20.12 88.6895L19.39 89.6995L18.79 90.8095L17.85 91.6595L16.82 92.4495L16.28 93.5895L15.73 94.7195L15.1 95.7895L14.29 96.7395L13.82 97.9895L12.64 98.7895L12.56 100.29L11.88 101.36L11.71 102.43V103.46L11.03 102.95L10.6 104.1L11.36 105.25L10.91 106.42L11.33 107.52L11.8 108.59L12.6 109.43L13.2 110.5L14.27 111.07H15.48L16.72 111.43L17.99 111.08L19.25 111.02L20.53 111.13L21.84 111.42L23.02 110.55L24.39 111.01L25.48 110.23L26.52 109.73L27.59 109.03L28.82 108.95L30.12 109.03L31.26 108.59L32.17 107.55L33.34 107.21L34.61 107.11L35.7 106.57L36.85 106.16L37.8 105.3L38.93 104.86L40.1 104.5L41.28 104.17L42.52 103.97L43.51 103.11L44.83 102.96L45.78 102.04L46.95 101.58L48.15 101.18L49.12 100.34L50.17 99.6495L51.3 99.1095L52.27 98.2795L53.52 97.9495L54.39 96.9595L55.43 96.2695L56.58 95.7595L57.54 94.9395L58.85 94.6695L59.75 93.7495L60.81 93.0795L62.13 92.7995L63.15 92.0595L64.28 91.4895L65.09 90.4495L66.27 89.9495L67.24 89.1495L68.04 88.0995L69.45 87.9195L70.19 86.7895L71.13 85.9395L72.13 85.1695L73.36 84.7295L74.17 83.7195L75.28 83.1195L76.24 82.3295L77.23 81.5395L78.36 80.9395L79.37 80.1795L80.49 79.5595L81.66 78.9995L82.29 77.7395L83.45 77.1795L84.54 76.5195L85.56 75.7695L86.51 74.9295L87.55 74.1995L88.19 72.9595L89.28 72.2895L90.44 71.7095L91.35 70.8195L92.6 70.3495L93.42 69.3495L94.21 68.3095L95.29 67.6295L96.37 66.9495L97.48 66.3095L98.28 65.2895L99.32 64.6195L100.36 63.9595L101.04 62.8495L102.28 62.4195L103.18 61.5795L103.84 60.4495L104.85 59.7395L106.06 59.2695L106.72 58.1395L107.91 57.6395L108.58 56.5195L109.57 55.7795L110.46 54.9295L111.36 54.0895L112.58 53.6195L113.31 52.5795L114.2 51.7295L115.5 51.3395L115.94 49.9795L116.95 49.2595L117.9 48.4795L118.67 47.4995L119.86 46.9695L120.77 46.1395L121.51 45.1295L122.44 44.3195L123.2 43.3395L124.25 42.6495L125.08 41.7395L125.72 40.6495L126.67 39.8495L127.54 38.9695L128.45 38.1395L129.4 37.3395L129.95 36.1795L131.12 35.5695L131.89 34.5995L132.85 33.7995L133.5 32.7295L134.14 31.6595L134.6 30.4595L135.61 29.7095L136.29 28.6895L137.06 27.7395L137.72 26.6995L138.66 25.8795L139.16 24.7295L140.44 24.1595L140.9 22.9795L141.74 22.0495L141.63 20.7395L142.35 19.6595L142.56 18.4695L142.85 17.2895L143.31 16.1195L143.7 14.9395L143.92 15.7695L143.36 16.9095L143.72 15.7495L143.21 14.5995L143.45 13.3495L143.08 12.1795L142 11.4495L141.5 10.3095L140.48 10.0795L140.26 10.2495L140.3 10.2395ZM145.99 37.7395L145.08 38.1595L144.34 38.8495L143.14 39.5295L143.01 40.7795L143.62 41.8695L144.13 42.8195L145.18 43.0295H146.29L147.17 42.2795L148.11 41.4695L148.36 40.2695L148.41 39.0795L148.21 37.8595L147.12 37.1795L145.98 37.7195L145.99 37.7395ZM140.06 51.9895L140.56 50.9895L140.89 49.9295L141.71 48.7695L141.33 47.5295L140.3 46.7595L139.4 46.0695L138.26 46.1195H137.07L135.96 46.5795L134.73 46.9395L134.09 48.0695L134.01 49.2895V50.5095L134.26 51.6695L134.83 52.8295L136.08 53.0095L137.16 53.6795L138.39 53.5395L139.46 52.9595L140.06 51.9895ZM210.27 50.0895L208.98 50.1395L207.76 50.1095L206.55 49.3395L205.33 49.4395L204.11 49.8995L202.89 49.7695L201.67 49.9395L200.45 49.6895L199.23 49.7195L198.01 49.3895L196.79 49.5795L195.57 49.6495L194.35 49.4695H193.13L191.91 49.4595L190.69 49.9295L189.47 49.4395L188.25 49.4695L187.03 49.6495L185.81 49.7295L184.58 49.7995L183.38 49.9595L182.26 50.2795L181.05 50.5195L179.82 50.5795L178.56 50.1095L177.35 50.1695L176.17 50.7295L174.98 51.0395L173.75 50.8595L172.51 50.7595L171.41 51.4695L170.25 51.1995L169.94 52.0495L171.04 52.1295L169.76 51.4895L168.55 51.6995L167.41 52.2195L166.32 52.6795L165.84 53.8195L165.35 54.7595L166.13 55.5695L167.09 56.2395L168.22 56.6495H169.44L170.6 56.9695L171.77 57.2595L172.99 56.8295L174.23 56.7495L174.51 57.7795L176.08 57.3295L176.42 58.0595L177.57 58.9695L178.66 59.6795L180.03 60.3195L180.3 61.5195L180.19 62.6795L179.48 63.5895L179.23 64.7895L178.4 65.6195L177.55 66.4395L176.69 67.2895H175.24L174.21 67.9495L173.16 68.5895L172 69.0295L170.84 69.4595L169.93 70.5395L168.52 70.2895L167.57 71.3495L166.35 71.6295L165.14 71.9395L163.98 72.4095L162.72 72.5095L161.47 72.6295L160.33 73.1995L159.02 73.0595L157.78 73.1995L156.68 73.9995L155.51 74.4395L154.22 74.3495L153.08 74.9495L151.85 75.1095L150.58 75.0895L149.36 75.6095L148.08 75.8895L146.89 76.4095L147.34 76.1795L148.63 76.1995L147.58 76.4795L146.59 76.8795L145.69 77.7595L145.56 78.9495L145.77 80.0895L146.22 81.2995L147.38 81.8895L148.36 82.5395L149.48 82.9095L150.62 83.2195L151.74 83.6595L152.84 84.2595L154.15 83.7195L155.29 84.0495L155.76 85.0195L156.96 85.1795H158.17L159.32 85.6595L160.51 85.8495L161.77 85.3395L162.97 85.4595L164.09 86.1095L165.46 85.8795L166.73 86.2295L168 86.5195L169.16 87.2895L170.52 87.1895L171.84 87.1595L173.1 87.4195L174.31 87.8595H175.56L176.81 87.6995L178.05 87.9695L179.28 88.3695L180.53 88.1995L181.78 88.0895L183.03 88.1495L184.17 88.5095L183.8 88.5995L185.02 89.2495L186.27 88.4995L187.52 88.4695L188.79 88.6395L190.05 88.3295L191.3 88.7995L192.45 89.3495L193.8 89.0295L194.96 89.5495L196.21 89.4595L197.46 89.5695L198.71 89.4595L199.95 89.8095L201.2 89.6795L202.45 89.2895L203.7 89.5495L204.94 89.1795L206.18 89.1495L207.43 89.3295L208.68 89.7095L209.91 88.9595L211.17 89.6195L212.4 89.1195L213.65 89.2895L214.88 88.8195L216.13 89.0295L217.39 89.4495L218.63 89.3395L219.83 88.6095L221.07 88.6395L222.33 88.9395L223.56 88.7695L224.8 88.7495L226 88.2395L227.24 88.1895L228.49 88.2195L229.74 88.2795L231.01 88.4695L232.2 87.9595L233.48 88.2395L234.66 87.6795L235.95 87.6295L237.25 87.6495L238.48 87.1795L239.73 86.8695L241.01 86.7395L242.23 86.2795L243.55 86.3895L244.73 85.7395L245.98 85.4395L247.27 85.3495L248.49 84.9095L249.84 85.1095L251.03 84.5695L252.28 84.3195L253.62 84.5395L254.87 84.2295L256.16 84.1095L257.32 83.4195L258.63 83.3495L259.84 82.9095L260.95 82.1595L262.37 82.3995L263.42 81.5195L264.57 80.9395L265.76 80.4395L267.09 80.2895L268.13 79.4495L269.35 79.0195L270.42 78.2995L271.42 77.4995L272.49 76.7695L273.3 75.7695L274.1 74.7295L274.81 73.5595L274.7 73.0195L275.1 71.8595L275.14 70.6095L274.88 69.3795L274.37 68.2295L273.85 67.0895L272.68 66.4295L271.99 65.4295L271.3 64.3895L270.29 63.6895L269.56 62.6195L268.39 62.1395L267.19 61.7595L266.21 61.0195L265.2 60.3195L264.18 59.5895L262.94 59.3395L261.86 58.7295L260.77 58.1395L259.47 58.1095L258.46 57.2795L257.26 56.9695L255.95 57.0395L254.8 56.5995L253.73 55.8695L252.43 55.9795L251.34 55.2995L250.04 55.4195L248.86 55.0595L247.65 54.8495L246.44 54.6395L245.34 53.9595L244.08 54.0195L242.76 53.8095L241.56 52.9895L240.09 53.4295L238.81 53.0095L237.52 52.7195H236.24L235.04 52.1395L233.78 51.9695L232.49 52.0495L231.23 51.8395H229.95L228.73 51.4195L227.47 51.2595L226.16 51.2995L225.05 50.9395L223.92 50.8295L222.83 51.0495L222.09 50.3495L220.82 50.6595L219.54 50.2495L218.29 50.3695L217.1 50.0995L216.3 49.7395L215.01 49.8595L213.77 50.3095L212.49 50.0395H211.21L210.2 49.5695L210.28 50.0795L210.27 50.0895ZM132.46 59.7595L132.6 58.7295L132.48 57.6995L132.75 56.3595L131.88 55.4595L130.66 55.3995L129.47 55.2095L128.31 55.5095L127.11 55.6595L126.15 56.3795L125.15 57.1995L124.89 58.5395L124.86 59.8595L124.92 61.1995L125.6 62.3895L126.69 63.2295L128.06 63.0695L129.36 63.5695L130.68 63.2795L131.64 62.3495L132.17 61.1795L132.28 60.0395L132.73 60.1495L132.45 59.7595H132.46ZM120.2 71.6995L121.49 71.3595L122.41 70.4495L123.88 69.6795L123.95 67.9395V66.8195L123.77 65.7095L123.04 64.8195L122.33 63.9295L121.07 63.5795L119.81 62.9695L118.41 63.4695L117.06 63.8995L115.97 64.5195L115.31 65.5895L114.82 66.7195L114.88 68.0195L114.01 68.9895L113.43 69.8895L112.23 70.3795L110.87 70.4895L109.51 70.5095L108.16 70.6395L106.89 70.7495L105.5 71.6695L104.72 71.6195L103.64 72.2095L103.03 73.2195L102.86 74.4795L102.38 75.6195L101.16 76.2895L99.88 76.4795L98.62 77.0495L97.27 76.5995L96.71 77.1795L95.45 78.0995L93.93 77.5795L92.64 78.1795L91.59 78.8895L90.42 79.3595L89.57 80.4095L88.35 80.7895L87.32 81.4995L86.15 81.9895L85.05 82.5995L84.13 83.4795L82.99 84.0295L81.83 84.5595L81.08 85.6895L80.18 86.6095L78.83 86.8495L78.03 87.9195L76.84 88.3895L75.54 88.6595L74.46 89.2595L73.73 90.4395L72.57 90.9095L71.45 91.4495L70.21 91.7695L69.36 92.7895L68.27 93.3695L67.23 94.0495L66.26 94.8495L64.81 94.7895L63.77 95.4795L62.74 96.1895L61.62 96.7295L60.52 97.2995L59.79 98.5095L58.36 98.5295L57.66 99.7695L56.55 100.33L55.47 100.95L54.5 101.74L53.34 102.23L52.2 102.77L51.34 103.71L50.08 104.08L49 104.72L48.36 105.91L47.52 106.83L46.33 107.36L45.61 108.45L44.62 109.21L43.51 109.87L42.83 110.94L42.08 111.92L41.49 113.1L40.33 113.67L38.98 114.06L37.69 114.52L36.4 114.92L35.37 115.7L34.54 116.75L33.45 117.56L32.24 117.82L31.23 118.49L30.06 118.7L28.95 119.09L27.85 119.49L26.71 119.8L25.49 120.07L25.06 121.4L24.24 122.15L23.31 123.02L23.51 124.27L24.65 124.66L25.77 125.21L26.9 125.45L27.9 125.27L29.05 125.31L30.31 125.62L31.33 124.81L32.47 124.42L33.59 123.93L34.89 123.96L35.98 123.32L37.23 122.94L38.51 123.03L39.76 123.39L41 123.23L42.15 122.73L43.33 122.54L44.56 122.38L45.53 121.69L46.57 121.12L47.71 120.78L48.97 120.7L50.14 120.18L51.49 120.45L52.51 119.42L53.71 119.1L54.97 118.93L56.16 118.21L57.58 118.15L58.98 118.07L60.05 116.96L61.49 117.11L62.64 116.71L63.84 116.47L64.96 115.98L66.22 115.88L67.3 115.3L68.25 114.46L69.46 114.18L70.38 113.31L71.44 112.72L72.59 112.3L73.84 112.04L74.51 110.8L75.9 110.76L76.69 109.73L77.83 109.27L78.63 108.27L79.8 107.85L81.08 107.62L82.09 106.95L82.79 105.76L83.89 105.25L85.14 104.91L86.14 104.15L87.21 103.5L87.99 102.44L89.03 101.74L90.11 101.1L91.2 100.47L92.38 99.9395L93.11 98.8595L94.34 98.3895L95.03 97.2595L96.05 96.5295L97.13 95.8595L97.89 94.8195L98.76 93.9095L99.75 93.1395L100.52 92.1195L101.68 91.5495L102.34 90.4095L103.24 89.5395L104.26 88.8695L104.53 87.7895L105.4 86.8795L105.59 85.6895L106.16 84.6395L107.42 83.9095L108.62 83.2695L109.68 83.0395L110.59 82.3195L111.71 82.1295L112.6 81.4395L113.12 80.4095L114.34 80.0395L114.68 78.9195L114.78 77.7895L114.92 76.6395L115.47 75.5595L115.44 74.3395L116.29 73.2495L117.49 72.5995L118.83 72.4595L120.11 72.5295L120.36 72.0995L120.45 72.0795L120.19 71.7495L120.2 71.6995ZM159.4 94.3695L158.38 94.0595L157.28 93.7895L156.24 92.8595L155.05 92.8295L153.84 93.1895L152.68 92.9695L151.49 93.0395L150.36 92.6395L149.18 92.4195L148.12 91.7895L146.91 91.6495L145.73 91.4295L144.58 91.0095L143.37 90.8695L142.15 90.8295L141.02 91.4395L139.61 91.3495L138.48 92.1995L138.28 93.5595L138.83 94.7395L139.71 95.6995L140.69 96.4095L141.62 97.1395L142.62 97.7695L143.63 98.3995L144.55 99.3895L145.72 99.7795L147.02 99.6295L148.25 99.6995L149.36 100.28L150.46 100.85L151.86 100.75L152.97 101.64L154.26 101.93L155.67 101.49L156.85 102.47L158.04 102.64L159.25 102.77L160.35 103.28L161.67 103.26L162.67 104.01L163.81 104.43L164.87 105.06L166.02 105.51L167.26 105.6L168.38 106.08L169.49 106.6L170.8 106.44L172.05 106.56L173.02 107.47H174.32L175.37 108.15L176.32 109.05L177.5 109.59L178.93 109.42L180.11 109.89L181.37 110.07L182.61 110.48L183.92 110.17L185.05 110.38L186.2 110.48L187.36 110.44L188.43 111.32L189.61 111.23L190.76 111.01L191.75 110.92L191.54 110.6L192.73 109.81L194.03 110.46L195.28 109.74L196.55 109.85L197.81 109.93L199.08 109.84L200.33 110.13L201.59 110.38L202.86 110.15L204.11 110.62L205.38 110.77L206.64 110.21L207.89 109.97L209.18 110.23L210.38 109.72L211.62 109.58L212.77 109.62L213.79 109.14L214.86 108.88L214.83 108.48L216.13 108.38L217.39 108.6L218.64 108.62L219.89 108.54L221.12 108.36L222.22 107.79L223.24 107.33L224.38 106.94L225.15 106.01L226.18 105.43L227.15 104.75L228.23 104.24L229.42 104.18L230.5 104.65L232.14 104.31L231.02 104.55L232.15 104.97L232.7 105.44L233.64 105.25L234.43 105.05L235.61 105.13L236.48 103.64L237.42 102.56L238.27 101.66L237.58 100.69L236.87 99.9195L235.86 99.4495L234.86 98.6895L233.65 98.9395L232.57 99.2695L231.48 99.4595L230.3 99.6195L229.32 100.26L228.2 100.82L227.08 100.13L226.17 99.2195L224.99 98.7895L223.82 98.3195L222.71 97.7795L221.71 97.1095L220.51 96.9295L219.48 96.0795L218.21 96.6795L217.04 96.6395L215.84 96.4095L214.63 96.6395L213.47 96.0995L212.39 95.5795L211.6 95.3795L212.72 95.4395H211.5L210.29 95.2995L209.08 95.4295L207.86 95.1195L206.66 95.3095L205.47 95.7695L204.25 95.5795L203.05 95.9995L201.84 96.0495L200.62 95.8595L199.44 95.4095L198.16 96.0095L197.11 95.1495L196.36 94.9795L197.46 95.0295L196.19 95.3595L194.96 95.0695L193.72 94.5995L192.5 94.6195L191.2 95.1595L189.97 94.8295L188.78 94.2395L187.49 94.1995L186.22 94.0495L184.93 94.4195L183.65 94.3395L182.37 94.1795L181.09 93.9995L179.82 93.6795L178.54 94.0295L177.3 93.5595L176.02 93.8995L174.77 93.6995L173.53 93.4095L172.25 93.6095L170.98 93.6495L169.72 93.5395L168.47 93.8095L167.19 93.5495L166 94.1195L164.8 94.4095L163.55 94.5595L162.97 94.2595L164.15 94.5195L162.97 94.8995L161.76 94.8495L160.65 94.1995L159.57 93.9495L159.19 94.0195L159.37 94.3895L159.4 94.3695ZM130.58 107.5L129.26 107.46L128.09 107.1L127.14 106.03L125.95 105.78L124.66 105.89L123.53 105.46L122.32 105.35L121.19 104.87L119.99 104.72L118.81 104.28L117.58 104.43L116.37 104.55L115.14 104.5L114.04 104.67L112.94 104.85L113.54 104.96L114.57 105.03L113.32 105.31L112.08 105.74L110.86 106.16L109.73 106.73L108.74 107.53L107.87 108.24L107.17 109.1L106.59 110.05L105.79 111.11L105.87 112.38L106.73 113.36L107.54 114.18L108.15 115.2L109.05 116.15L110.39 116.32L111.32 117.34L112.52 117.78L113.95 117.56L114.9 118.72L116.12 119.07L117.39 119.29L118.56 119.8L119.93 119.72L121.03 120.41L122.23 120.8L123.21 121.44L124.23 121.98L125.16 122.36L125.83 123.32L125.46 124.14L124.81 125.24L123.75 125.98L122.4 125.82L121.28 126.51L120 126.33L118.83 125.76L117.66 125.47L116.3 125.76L115.17 125.22L114.02 124.77L112.91 124.11L111.54 124.29L110.26 124.08L108.96 123.96L107.74 123.78L106.94 122.61L105.8 122.22L104.63 121.9L103.45 121.54L102.19 121.46L101.19 122.39L99.67 122.65L100.04 124.12L100.37 125.34L101.07 126.47L102.06 127.38L102.82 128.3L103.7 129.14L104.87 129.55L105.67 130.55L106.65 131.29L107.97 131.42L109.11 131.85L109.99 132.75L111.21 133L112.35 133.6L113.48 134.32L114.8 134.51L116.04 134.95L117.34 135.23L118.54 135.79L119.53 136.45L120.62 136.88L121.73 137.25L122.83 137.63L124.01 137.77L125.11 138.14L126.16 138.74L127.53 138.9L128.69 139.62L129.86 140.28L130.98 141.02L132 141.89L133.03 142.84L134.45 142.58L135.54 143.13L136.59 143.9L137.8 144.15L139.04 144.25L140.17 144.86L141.37 145.17L142.69 144.77L143.9 144.95L145.04 145.62L146.32 145.33L147.55 145.57L148.8 145.72L149.98 146.35L151.27 146.12L152.55 146L153.78 146.24L155 146.71L156.26 146.77L157.53 146.66L158.78 146.98L160.03 147.41L161.3 147.23L162.56 147.06L163.81 146.98L165.07 147.09L166.22 146.74L167.44 147.2L168.5 146.33L169.57 146.1H170.81L171.98 145.87L173.08 146.39L174.18 146.87L175.38 146.21L176.51 146.74L177.65 146.54L178.97 146.32L180.15 145.7L181.48 145.41L182.58 144.69L183.62 143.8L184.95 143.67L186.23 143.17L187.59 143.32L188.58 143.77L189.04 143.85L188.13 143.74L189.27 144.52L190.47 144.03L191.68 144.06L192.68 143.31L193.84 143.05L195.12 142.78L196.03 141.95L196.4 140.63L197.25 139.8L198.31 138.99L197.24 138.18L196.33 137.31L195.09 136.86L194.11 136.13L193.08 135.45L191.94 134.92L190.68 134.48L189.43 134.97L187.84 134.86L187.02 136.01L185.78 135.96L184.64 135.54L183.4 135.33L182.27 134.78L181.28 134.01L180.11 133.51L179.22 132.58L177.93 132.46L176.68 132.14L175.43 131.73L174.11 131.77L172.84 131.16L171.48 131.2L170.08 130.63L170.45 129.49L171.46 129.52L172.75 129.6L174.02 129.14L175.33 129.35L176.62 129.2L177.9 128.75L179.23 129.35L180.28 128.37L181.45 128.06L182.65 127.88L183.88 128.13L185.06 127.71L186.27 127.81L187.46 127.69L188.66 127.59L189.87 127.74L191.07 127.69L192.28 127.82L193.5 128.03L194.67 127.35L195.88 127.54L197.09 127.59L198.33 127.51L199.56 127.31L200.81 127.24L201.98 126.53H203.23L204.5 126.64L205.72 126.35L207.01 126.58L208.2 126.13L209.37 125.62L210.62 125.56L211.87 125.48L213.13 125.45L214.29 124.92L215.53 124.79L216.77 124.66L217.89 123.97L219.2 124.15L220.4 123.82L221.48 123.08L222.68 122.77L224.04 122.72L225.08 121.82L226.42 121.6L227.28 120.55L228.16 119.7L228.13 118.62L227.24 118L226.13 117.37L224.88 117.59L224.34 117.1L223.15 116.42L221.89 117.11L220.66 116.98H219.42L218.2 117.23L216.94 116.87L215.71 116.9L214.48 117.14L213.25 117.04L212 117.1L210.6 116.62L211.26 116.36L209.99 116.55L208.75 116.37L207.5 116.34L206.25 116.27L204.99 116.17L203.76 116.6L202.48 116.2L201.23 116.32L199.97 116.16L198.73 116.37L197.48 116.54L196.2 116.88L194.97 116.44L193.64 116.36L192.96 115.71L194.18 116.14L192.99 115.79L191.75 116.03L190.54 115.32L189.31 115.62L188.08 115.39L186.84 115.96L185.62 115.42L184.39 115.39L183.17 115.31L181.91 115.02L182.41 114.71L181.16 115.05L179.95 114.63L178.71 114.46L177.51 114.97L176.25 114.54L175.02 114.52L173.81 115.1L172.59 114.67L171.32 115.06L169.97 114.98L170.59 114.19L169.34 114.16L168.09 114.08L166.84 114.43L165.55 114.51L164.37 113.76L163.04 114.07L161.81 113.7L160.58 113.32L159.32 113.15L158.05 113.03L156.82 112.62L155.58 112.31L154.3 112.22L153.03 112.09L151.74 112.01L150.57 111.42L149.28 111.37L148.13 111.41L146.98 111.57L145.86 111.03L144.75 110.64L143.67 110.5L142.43 110.45L141.15 110.59L140.02 110.07L138.85 109.75L137.71 109.33L136.45 109.35L135.33 108.82L134.27 108.15L132.99 108.18L132.03 107.29L130.6 107.55L130.58 107.5ZM202.85 135.85L202.04 136.31L201.1 136.89L199.73 136.97L198.93 137.85L198.73 138.91L199.52 139.78L200.64 140.27L201.68 140.94L202.9 141.11L204.2 141.33L205.34 140.67L206.22 139.84L206.94 138.83L206.88 137.56L206.28 136.45L205.07 136.1L204.09 135.29L202.76 135.42L202.86 135.86L202.85 135.85ZM215.75 136.46L214.96 136.56L214.35 137.02L214.88 138.06L216.09 137.45L215.75 136.45V136.46Z" fill="black"/>
</g>
</g>
<defs>
<clipPath id="clip0_178_16">
<rect width="289" height="155" fill="white"/>
</clipPath>
</defs>
</svg>
