<svg width="289" height="155" viewBox="0 0 289 155" fill="none" xmlns="http://www.w3.org/2000/svg">
<g clip-path="url(#clip0_171_2)">
<path d="M147.239 0.436968C148.223 0.874204 148.168 0.71024 149.207 0.928858C154.016 2.13126 159.372 9.45495 163.144 12.8435C166.915 16.2321 163.854 12.8435 164.018 13.0075C164.892 13.718 167.625 16.888 168.172 17.8717C169.538 20.3858 170.522 24.2663 170.139 27.2176C169.757 30.169 169.647 27.5456 169.593 27.7642C169.374 28.8026 169.374 29.5678 169.046 30.6609C168.336 33.3389 167.789 36.017 167.188 38.6951C166.587 41.3731 166.477 38.7497 166.641 39.5149C166.805 40.2801 167.133 39.6242 167.188 39.8428C167.461 41.0999 167.024 41.5371 168.226 42.6849C169.429 43.8326 169.374 43.3954 170.249 43.7233C171.123 44.0512 170.358 44.1059 170.522 44.1605C171.56 44.3791 179.157 44.3791 180.469 44.1605C181.781 43.9419 180.742 43.6686 181.234 43.614C190.853 42.4116 203.096 44.5978 212.988 43.614C214.628 44.8164 217.525 43.8873 219.547 44.1605C221.569 44.4338 219.82 44.6524 220.312 44.7071C223.099 45.035 226.433 44.8164 229.275 45.199C232.117 45.5815 229.603 45.6908 229.822 45.7455C231.188 46.0734 234.194 46.0188 235.779 46.292C244.633 47.6584 252.995 50.0085 260.811 52.7959C270.813 56.3485 284.039 60.9394 287.1 72.3622C287.209 72.7994 286.991 73.4006 287.1 73.8925C287.209 74.3844 287.592 74.0565 287.592 74.2751C288.193 76.8439 287.209 82.0361 287.592 84.9874C287.974 87.9387 288.084 85.2607 288.138 85.7525C288.958 92.3657 286.225 98.651 280.924 102.586C275.622 106.521 272.288 106.904 271.633 109.473C270.594 113.572 274.092 114.61 275.95 116.96C277.809 119.31 276.989 118.491 277.153 118.764C278.738 121.278 279.175 124.83 278.082 127.673C276.989 130.515 272.452 134.778 269.884 136.472C261.576 141.937 249.935 145.271 240.753 147.567C237.036 148.496 233.866 149.534 230.259 150.19C225.067 151.119 219.656 151.83 213.972 152.54C212.059 152.759 210.201 152.814 208.452 153.032C206.703 153.251 208.179 153.524 207.687 153.579C206.157 153.797 204.189 153.36 202.659 153.579C201.128 153.797 202.385 154.071 201.894 154.125C199.489 154.453 196.373 153.797 193.969 154.125C191.564 154.453 193.695 154.617 193.203 154.672C188.995 155.218 174.566 155.218 170.358 154.672C166.15 154.125 170.085 154.18 169.593 154.125C166.751 153.743 162.98 154.508 160.138 154.125C159.646 154.071 159.864 153.633 159.372 153.579C157.951 153.415 156.093 153.797 154.617 153.579C148.933 152.923 143.249 152.103 137.565 151.229C135.051 150.846 131.608 150.737 129.258 150.135C120.24 147.949 110.129 145.708 100.674 141.445C91.2183 137.182 96.3012 139.314 94.115 138.057C90.8904 136.144 87.939 133.193 84.4958 131.061C81.0526 128.93 82.9655 130.296 81.2165 129.913C79.4676 129.531 81.0526 129.421 80.834 129.421C79.3583 129.039 77.8826 129.64 76.6256 129.859C71.2694 130.952 65.8586 133.302 60.4479 134.395C55.0371 135.488 56.6767 135.269 54.9824 135.488C53.2881 135.707 50.5008 135.707 49.2437 135.98C47.9866 136.253 49.189 136.472 48.6972 136.527C47.6587 136.69 46.0191 136.308 45.0353 136.527C42.9584 137.018 41.1548 136.69 39.5152 137.073C37.8756 137.456 39.4606 137.565 38.9687 137.62C36.9465 137.893 22.463 137.948 20.878 137.62C19.2931 137.292 20.7141 137.128 20.4955 137.128C18.7465 136.745 16.6697 136.8 14.7021 135.98C12.7345 135.16 12.188 134.504 12.0787 134.395C8.90872 132.1 1.69434 120.458 0.546596 116.687C-0.601147 112.916 0.546596 115.649 0.491941 115.211C0.437287 114.774 5.1512e-05 115.157 -0.0546029 114.665C-0.437184 111.768 0.164015 109.418 0.929177 106.685C4.53637 94.1147 20.2222 78.2649 29.8414 68.9736C52.4137 47.2212 77.1721 28.0921 104.554 13.554C131.936 -0.984048 120.95 5.24656 129.859 2.62315C138.768 -0.000267325 143.905 -1.0387 147.02 0.436968H147.239ZM140.407 9.89219C138.877 9.18168 135.762 9.01772 134.067 9.23633C132.373 9.45495 133.739 9.72822 133.521 9.78288C131.28 10.2748 129.039 10.6027 126.798 11.3679C113.463 16.1774 100.182 24.0477 88.267 31.6447C68.0995 44.4338 47.8227 59.5731 30.9891 76.6799C24.9771 82.8012 18.8558 89.7423 14.4288 96.7928C10.0018 103.843 12.2426 100.072 11.6961 102.422C11.1496 104.772 11.2042 102.477 11.1496 102.969C11.0402 103.679 11.0949 105.647 11.1496 106.412C11.3682 108.325 13.609 110.948 15.5219 111.222C17.4348 111.495 22.0804 111.222 24.3759 110.73C26.6714 110.238 26.4528 109.691 26.5621 109.691C31.317 108.653 37.657 105.701 42.4119 103.625C54.1626 98.487 65.968 90.0703 76.407 82.4733C83.9493 77.0078 91.1636 71.1052 98.3234 65.2571C110.949 54.9821 124.066 44.1605 134.177 31.6447C144.288 19.1288 141.118 22.8999 142.867 17.2705C144.616 11.6411 143.304 17.0519 143.359 16.888C143.96 14.3739 142.812 10.9853 140.407 9.83753V9.89219ZM145.927 37.3834C142.921 37.9299 142.211 43.0128 145.162 43.286C148.114 43.5593 150.3 36.6182 145.927 37.3834ZM140.353 52.1947C142.43 49.298 141.227 44.7617 137.073 46.1281C132.92 47.4944 134.122 49.298 134.45 51.6482C134.778 53.9983 139.15 53.9437 140.353 52.1947ZM210.201 49.7353L183.366 49.626C179.868 50.7737 175.058 50.3365 171.342 51.2109C167.625 52.0854 171.178 51.7028 170.959 51.7028C169.866 51.9215 168.773 51.8121 167.461 52.3587C165.166 53.3971 164.291 55.0914 167.133 56.0752C169.975 57.059 172.107 56.731 174.129 57.1683C176.151 57.6055 174.293 57.6602 174.512 57.6602C175.004 57.7695 175.495 57.5509 175.987 57.6602C176.479 57.7695 176.151 58.0974 176.37 58.1521C177.736 58.5893 178.993 59.0812 179.813 60.4475C181.398 63.071 178.611 65.6944 176.479 67.0061C169.265 71.5971 158.662 73.346 150.573 75.2042C142.484 77.0625 148.769 76.188 148.605 76.2427C148.114 76.4066 146.966 76.5706 146.529 76.8439C144.288 78.2649 145.217 80.8883 147.239 82.0907C149.261 83.2931 153.142 84.0583 155.219 84.3315C157.296 84.6048 155.547 84.8234 155.765 84.8781C158.389 85.4793 161.34 85.5339 164.073 85.9712C166.805 86.4084 170.03 87.5015 173.036 87.7748C176.042 88.048 179.922 87.8841 182.983 88.2667C186.044 88.6492 183.256 88.7585 183.748 88.8132C186.809 89.1958 191.017 88.048 193.695 89.3597C207.796 89.633 221.296 89.3051 234.632 87.7201C241.299 86.955 247.53 85.5886 253.542 84.3315C257.586 83.5117 261.03 82.5826 264.637 81.2162C268.244 79.8499 273.163 78.0463 274.42 73.51C274.475 73.2913 274.857 73.346 274.912 73.1274C275.458 70.9412 274.365 67.9352 272.944 66.2409C266.878 58.9719 252.449 55.638 244.087 53.9437C235.725 52.2494 239.605 52.9599 237.528 52.632C233.866 52.0308 229.767 51.8668 226.215 51.047C222.662 50.2272 223.81 51.2109 222.826 51.047C221.842 50.883 222.553 50.5551 222.061 50.5004C220.531 50.2818 218.563 50.7191 217.033 50.5004C215.503 50.2818 216.76 50.0085 216.268 49.9539C214.027 49.6806 212.059 50.4458 210.037 49.5167L210.201 49.7353ZM132.81 59.8463C133.466 58.316 132.482 55.4193 130.679 55.2007C128.875 54.9821 126.525 55.1461 125.432 57.3322C124.339 59.5184 124.776 63.1256 128.055 63.3442C131.335 63.5628 131.717 62.4151 132.264 61.2127C132.81 60.0103 132.264 60.3929 132.428 60.1196C132.592 59.8463 132.81 59.901 132.865 59.8463H132.81ZM120.349 72.0343C120.841 71.8703 121.224 72.0343 121.715 71.7064C122.207 71.3784 123.41 69.9028 123.519 69.5748C123.738 68.919 123.519 68.4271 123.683 67.8805C123.847 67.334 124.12 67.2247 124.12 66.8421C124.12 65.9676 123.246 64.2734 122.317 63.9454C121.388 63.6175 120.021 63.2896 119.803 63.2896C119.584 63.2896 117.288 63.8908 117.07 63.9454C114.829 64.9292 114.72 69.3016 113.517 70.0667C112.315 70.8319 108.434 70.0667 106.795 70.4493C105.155 70.8319 105.756 71.1598 105.319 71.3784C104.882 71.5971 104.718 71.3238 104.554 71.4331C104.226 71.6517 102.641 74.767 102.095 75.4229C100.51 77.2265 99.1432 76.6253 97.2849 76.8985C95.4267 77.1718 96.957 77.3904 96.7384 77.4451C94.6069 77.937 94.8802 77.4451 92.7486 78.4835C86.7366 81.3255 81.3259 85.5339 75.6964 88.9772C66.7878 94.4426 55.1464 99.9627 47.2761 106.576C39.4059 113.189 43.2317 112.041 40.2257 113.517C37.2197 114.993 37.2744 114.391 36.3453 114.883C35.4161 115.375 34.2137 116.742 33.2846 117.343C30.3333 119.092 26.0702 118.873 23.9933 121.988C21.9165 125.104 25.3597 124.721 26.9447 125.104C28.5297 125.486 27.4366 125.486 27.8192 125.541C30.9345 126.033 33.23 123.847 35.9627 123.464C38.6954 123.082 39.8978 123.683 42.1933 122.918C44.4888 122.152 45.1993 121.333 47.7134 120.841C50.2275 120.349 52.359 119.912 54.9824 118.982C57.6058 118.053 59.3548 117.397 61.4316 116.906C69.9577 114.993 76.5709 109.637 84.0039 105.428C91.109 101.056 97.8862 94.7159 104.445 88.9772C105.046 87.8294 105.647 85.8072 106.358 84.7141C107.068 83.621 107.287 83.5664 108.544 83.0198C109.801 82.4733 110.675 82.364 111.604 81.8721C113.08 81.1069 113.681 80.0685 114.774 78.9207C115.157 77.609 115.266 75.5322 115.703 74.3844C116.523 71.9796 118.655 72.9088 120.131 72.5262C121.606 72.1436 120.294 72.1436 120.404 72.0889L120.349 72.0343ZM159.591 94.06C157.186 92.9669 152.978 93.0762 150.354 92.639C147.731 92.2018 144.288 90.5075 140.954 91.1633C137.62 91.8192 137.62 93.8414 139.587 95.809C143.031 99.3615 146.146 99.3615 150.518 100.619C153.415 101.438 153.743 101.657 156.913 102.094C160.903 102.641 162.925 104.39 166.095 105.264C169.265 106.139 172.216 106.849 176.479 108.707C180.742 110.566 180.25 109.691 183.912 110.238C187.574 110.784 188.285 111.112 190.744 110.784C193.203 110.456 191.017 110.292 191.509 110.238C197.794 109.473 205.61 111.167 211.677 109.746C217.743 108.325 214.3 108.871 214.901 108.707C217.087 108.161 219.547 109.145 222.334 108.052C225.122 106.958 227.144 103.461 230.587 104.28C234.03 105.1 230.751 104.772 230.97 104.772C231.352 104.882 231.79 104.718 232.172 104.772C232.555 104.827 232.227 105.21 232.719 105.319C234.249 105.537 234.194 104.827 234.358 104.772C234.741 104.663 235.178 104.827 235.561 104.772C235.943 104.718 237.638 102.805 237.692 102.695C239.55 99.7441 234.85 98.3777 232.5 98.815C230.15 99.2522 229.166 100.673 228.237 100.564C227.308 100.455 223.81 98.1591 222.772 97.6672C218.672 95.5357 217.798 96.6834 213.48 96.1369C209.163 95.5903 213.207 95.645 212.715 95.5903C208.343 95.0438 202.604 96.1915 198.232 95.5903C193.859 94.9892 197.958 95.0985 197.467 95.0438C194.734 94.7159 192.93 95.2078 190.034 94.5519C187.137 93.8961 181.453 94.1147 178.556 94.0054C173.965 93.8961 169.265 92.9123 164.729 94.0054C160.192 95.0985 164.674 94.4973 164.182 94.5519C162.706 94.7705 160.684 94.6066 159.482 94.1147L159.591 94.06ZM130.733 107.177C130.296 106.958 129.804 107.177 129.367 107.068C124.612 105.756 120.404 104.007 115.157 104.718C109.91 105.428 114.829 105.21 114.61 105.264C112.206 105.811 110.839 105.701 108.544 107.286C105.538 109.309 105.21 112.861 108.107 115.266C111.003 117.671 117.999 119.037 122.207 120.841C126.416 122.644 124.667 122.043 125.159 122.371C128.165 124.503 122.863 125.978 121.224 126.197C118.436 126.579 115.54 125.158 112.807 124.503C110.074 123.847 110.183 124.175 108.981 123.847C106.412 123.136 103.843 121.005 101.056 122.098C98.2687 123.191 100.346 126.142 101.821 127.618C103.297 129.094 109.309 132.427 111.058 133.302C112.807 134.176 116.086 134.942 118.436 135.98C120.786 137.018 123.027 137.948 126.142 138.713C129.258 139.478 131.061 141.664 133.138 142.539C137.019 144.233 142.156 145.053 146.255 145.654C150.354 146.255 159.263 147.403 165.056 147.02C170.85 146.638 168.992 146.255 170.795 146.2C172.599 146.146 175.495 146.802 177.627 146.474C180.961 146.036 183.639 142.648 187.519 143.577C191.4 144.506 187.574 144.069 188.066 144.124C192.876 144.725 195.499 142.593 198.177 138.986C195.444 136.8 193.313 134.286 189.432 134.942C185.552 135.597 187.738 135.816 187.028 135.98C183.366 136.581 181.289 133.247 178.064 132.1C174.84 130.952 172.763 131.608 170.303 130.515L170.194 129.476C170.467 129.148 177.9 129.039 179.212 128.93C180.524 128.82 179.868 128.492 180.305 128.438C185.552 127.618 191.509 127.891 197.084 127.399C203.424 126.798 209.491 125.978 215.502 124.612C221.514 123.246 220.367 123.683 222.717 122.863C225.067 122.043 229.275 120.458 228.292 118.491C227.363 117.234 225.996 117.671 224.903 117.452C223.81 117.234 224.848 116.96 224.357 116.906C220.64 116.414 215.721 117.397 212.005 116.906C208.288 116.414 211.731 116.414 211.239 116.359C206.321 115.758 199.871 117.015 194.952 116.359C190.034 115.703 194.679 115.867 194.187 115.812C190.853 115.375 186.481 115.758 183.147 115.321C179.813 114.883 182.874 114.829 182.382 114.774C179.048 114.337 174.676 115.211 171.342 114.774C168.008 114.337 171.068 114.282 170.577 114.228C169.429 114.064 168.008 114.391 166.86 114.228C161.067 113.408 154.727 112.643 149.261 111.331C147.84 111.003 145.053 111.167 143.577 110.784C139.697 109.855 134.614 108.871 130.733 107.177ZM202.877 135.488C201.948 135.652 198.505 138.057 198.56 138.986C200.145 140.735 203.041 141.883 205.282 140.571C208.507 138.603 206.047 134.887 202.877 135.543V135.488ZM216.049 136.253C215.666 135.707 213.972 136.253 213.972 137.128C214.737 138.439 216.705 137.182 216.049 136.253Z" fill="black"/>
<path d="M140.407 9.89155C142.867 11.0393 144.014 14.4279 143.358 16.942C142.703 19.4561 142.921 17.1059 142.867 17.3246C141.118 22.954 137.893 27.1077 134.177 31.6987C124.065 44.2692 110.948 55.0361 98.3232 65.3112C91.1635 71.1592 83.9491 77.0619 76.4068 82.5273C65.9678 90.1243 54.1625 98.4864 42.4117 103.679C37.6022 105.755 31.2622 108.707 26.562 109.745C21.8617 110.784 24.4851 110.784 24.3758 110.784C22.0803 111.276 17.9266 111.658 15.5218 111.276C13.117 110.893 11.368 108.379 11.1494 106.466C10.9308 104.553 11.0401 103.733 11.1494 103.023C11.2587 102.312 11.6413 102.695 11.696 102.476C12.1878 100.126 13.117 98.869 14.4287 96.8468C18.8557 89.7417 24.977 82.8552 30.989 76.7339C47.8225 59.6271 68.0993 44.4332 88.2668 31.6987C108.434 18.9642 113.463 16.2315 126.798 11.4219C140.134 6.61229 131.28 10.3288 133.521 9.8369C135.762 9.34501 133.575 9.34501 134.067 9.29035C135.762 9.07174 138.877 9.2357 140.407 9.94621V9.89155Z" fill="white"/>
<path d="M210.201 49.7363C212.278 50.6655 214.245 49.9003 216.431 50.1736C218.618 50.4468 216.705 50.6655 217.197 50.7201C218.727 50.9387 220.695 50.5015 222.225 50.7201C223.755 50.9387 222.498 51.212 222.99 51.2667C223.974 51.376 225.449 51.048 226.379 51.2667C229.931 52.0865 234.03 52.2504 237.692 52.8516C241.354 53.4528 242.064 53.7261 244.251 54.1633C252.667 55.8576 267.096 59.1915 273.108 66.4606C274.529 68.1549 275.622 71.1609 275.076 73.347C274.529 75.5332 274.638 73.511 274.584 73.7296C273.381 78.2659 268.954 79.8509 264.801 81.4359C260.647 83.0209 257.75 83.7314 253.706 84.5512C247.694 85.8083 241.409 87.1746 234.795 87.9398C221.514 89.4701 207.96 89.8527 193.859 89.5794C191.181 88.2677 186.973 89.4701 183.912 89.0329C180.851 88.5956 183.639 88.541 183.147 88.4863C180.086 88.1037 176.37 88.2677 173.2 87.9944C170.03 87.7212 167.242 86.6281 164.236 86.1908C161.23 85.7536 158.552 85.7536 155.929 85.0978C153.306 84.4419 155.874 84.6059 155.382 84.5512C153.251 84.2779 149.425 83.5128 147.403 82.3104C145.381 81.108 144.397 78.4299 146.692 77.0635C148.988 75.6972 148.277 76.5717 148.769 76.4623C149.261 76.353 150.573 75.4786 150.737 75.4239C158.826 73.5657 169.374 71.8714 176.643 67.2257C183.912 62.5801 181.562 63.2906 179.977 60.6672C178.392 58.0438 177.845 58.809 176.534 58.3717C175.222 57.9345 176.315 57.9345 176.151 57.8798C175.659 57.7705 175.113 57.9891 174.675 57.8798C174.238 57.7705 174.512 57.388 174.293 57.388C172.271 56.8961 169.483 57.0054 167.297 56.2949C165.111 55.5844 165.33 53.6168 167.625 52.5784C169.921 51.5399 169.975 52.1411 171.123 51.9225C172.271 51.7039 171.287 51.4306 171.506 51.4306C175.222 50.5561 179.977 50.9934 183.529 49.8456L210.365 49.9549L210.201 49.7363Z" fill="white"/>
<path d="M130.733 107.177C134.614 108.872 139.697 109.856 143.577 110.785C147.458 111.714 147.84 111.003 149.261 111.331C154.727 112.643 161.121 113.408 166.86 114.228C172.599 115.048 169.429 114.064 170.577 114.228C171.724 114.392 170.85 114.72 171.342 114.774C174.676 115.212 179.048 114.337 182.382 114.774C185.716 115.212 182.655 115.266 183.147 115.321C186.481 115.758 190.908 115.376 194.187 115.813C197.467 116.25 194.461 116.305 194.952 116.359C199.871 116.961 206.321 115.704 211.239 116.359C216.158 117.015 211.513 116.851 212.005 116.906C215.721 117.398 220.64 116.359 224.357 116.906C228.073 117.453 224.684 117.398 224.903 117.453C225.996 117.671 227.363 117.234 228.292 118.491C229.275 120.459 224.083 122.371 222.717 122.863C220.367 123.683 217.907 124.066 215.503 124.612C209.436 125.979 203.369 126.798 197.084 127.4C191.509 127.946 185.552 127.673 180.305 128.438C175.058 129.203 179.595 128.875 179.212 128.93C177.9 129.094 170.467 129.149 170.194 129.477L170.303 130.515C172.817 131.608 175.495 131.171 178.064 132.1C180.633 133.029 183.366 136.582 187.028 135.98C190.689 135.379 188.722 135.051 189.432 134.942C193.313 134.286 195.444 136.8 198.177 138.986C195.499 142.594 192.876 144.725 188.066 144.124C187.574 144.069 187.738 143.632 187.519 143.577C183.639 142.648 180.961 146.037 177.627 146.474C174.293 146.911 172.981 146.146 170.795 146.201C168.609 146.255 166.805 146.857 165.056 147.021C159.263 147.403 151.994 146.529 146.255 145.654C140.517 144.78 137.019 144.233 133.138 142.539C131.061 141.664 128.602 139.314 126.143 138.713C123.683 138.112 121.552 137.401 118.436 135.98C115.321 134.559 113.353 134.45 111.058 133.302C108.762 132.155 103.024 128.766 101.821 127.618C100.619 126.471 98.2688 123.246 101.056 122.098C103.844 120.95 106.412 123.137 108.981 123.847C111.55 124.558 111.714 124.23 112.807 124.503C115.485 125.213 118.436 126.634 121.224 126.197C124.011 125.76 128.219 124.448 125.159 122.371C122.098 120.295 122.809 121.114 122.207 120.841C117.999 119.038 111.495 118.054 108.107 115.266C104.718 112.479 105.483 109.364 108.544 107.287C110.839 105.756 112.206 105.811 114.61 105.265C117.015 104.718 114.665 104.773 115.157 104.718C120.349 104.062 124.558 105.756 129.367 107.068C134.177 108.38 130.242 106.959 130.733 107.177Z" fill="white"/>
<path d="M120.349 72.0341C120.294 72.0341 120.294 72.4167 120.076 72.4714C118.6 72.7993 116.469 71.9248 115.649 74.3296C114.829 76.7344 115.102 77.5542 114.72 78.8659C113.681 80.0137 113.025 81.0521 111.55 81.8173C110.074 82.5824 109.418 82.5278 108.489 82.965C107.56 83.4022 107.177 83.3476 106.303 84.6593C105.428 85.971 104.991 87.7746 104.39 88.9223C97.8315 94.6611 91.0544 101.001 83.9493 105.373C76.5163 109.582 69.8485 114.938 61.377 116.851C59.3548 117.288 57.114 118.162 54.9278 118.928C52.7416 119.693 50.2822 120.239 47.6587 120.786C45.0353 121.332 44.4888 122.043 42.1387 122.863C39.7885 123.683 38.2582 123.081 35.908 123.409C33.5579 123.737 30.8798 125.978 27.7645 125.486C24.6492 124.994 27.1633 125.104 26.8901 125.049C25.3051 124.721 22.3537 124.393 23.9387 121.934C25.5237 119.474 30.2786 119.037 33.23 117.288C36.1813 115.539 35.5255 115.211 36.2906 114.829C37.0558 114.446 39.1873 113.954 40.1711 113.462C43.1771 111.987 44.7621 108.653 47.2215 106.521C55.0918 99.9079 66.7331 94.3331 75.6418 88.9223C84.5505 83.5115 86.682 81.2707 92.694 78.4287C98.706 75.5867 94.5522 77.8821 96.6838 77.3903C98.8153 76.8984 96.7384 76.8984 97.2303 76.8437C99.1432 76.6251 100.455 77.1716 102.04 75.368C103.625 73.5644 104.171 71.6515 104.499 71.3783C104.827 71.105 105.101 71.3783 105.265 71.3236C105.702 71.0503 106.03 70.5038 106.74 70.3945C108.38 70.0666 112.37 70.7771 113.463 70.0119C114.556 69.2467 114.774 64.8197 117.015 63.8906C119.256 62.9615 119.584 63.2348 119.748 63.2348C119.967 63.2348 121.989 63.836 122.262 63.8906C123.191 64.2185 124.066 65.9675 124.066 66.7873C124.066 67.6071 123.683 67.3885 123.628 67.8257C123.519 68.3723 123.683 68.8642 123.464 69.52C123.246 70.1759 121.934 71.4876 121.661 71.6515C121.114 71.9248 120.786 71.8155 120.294 71.9795L120.349 72.0341Z" fill="white"/>
<path d="M159.591 94.0601C160.793 94.6067 162.761 94.716 164.291 94.4973C165.821 94.2787 164.619 94.0054 164.838 93.9508C169.429 92.8577 174.074 93.8415 178.665 93.9508C183.256 94.0601 187.574 93.8415 190.143 94.4973C192.711 95.1532 194.788 94.6613 197.576 94.9892C200.363 95.3172 197.849 95.4811 198.341 95.5358C202.713 96.0823 208.452 94.9346 212.824 95.5358C217.197 96.137 213.098 96.0277 213.589 96.0823C217.852 96.6289 218.782 95.4811 222.881 97.6126C226.98 99.7442 227.69 100.509 228.346 100.509C229.275 100.564 231.407 98.979 232.609 98.7604C234.959 98.3232 239.66 99.6349 237.801 102.641C235.943 105.647 235.779 104.718 235.67 104.718C235.287 104.827 234.85 104.663 234.467 104.718C234.085 104.772 234.358 105.483 232.828 105.264C231.297 105.046 232.5 104.772 232.281 104.718C231.899 104.608 231.461 104.772 231.079 104.718C230.696 104.663 230.915 104.226 230.696 104.226C227.253 103.406 225.176 106.904 222.443 107.997C219.711 109.09 217.197 108.161 215.01 108.653C212.824 109.145 212.387 109.527 211.786 109.691C205.719 111.167 197.904 109.418 191.618 110.183C185.333 110.948 191.345 110.675 190.853 110.73C188.394 111.058 186.262 110.511 184.021 110.183C180.36 109.691 180.25 110.292 176.588 108.653C172.927 107.013 170.522 106.303 166.204 105.21C161.886 104.117 161.012 102.586 157.022 102.04C153.852 101.602 153.524 101.384 150.628 100.564C146.201 99.3069 143.14 99.3069 139.697 95.7544C136.253 92.2019 138.33 91.6007 141.063 91.1088C143.796 90.6169 147.348 92.0925 150.464 92.5844C153.579 93.0763 157.295 92.9124 159.7 94.0055L159.591 94.0601Z" fill="white"/>
<path d="M132.81 59.8471C132.81 59.9017 132.482 59.8471 132.373 60.1203C132.264 60.3936 132.373 60.8308 132.209 61.2134C131.663 62.4158 129.313 63.3996 128.001 63.3449C124.722 63.1263 124.175 59.9017 125.377 57.333C126.58 54.7642 128.274 54.8735 130.624 55.2014C132.974 55.5294 133.412 58.3714 132.756 59.8471H132.81Z" fill="white"/>
<path d="M140.353 52.1943C139.15 53.9433 134.832 54.0526 134.45 51.6478C134.067 49.243 134.614 46.9475 137.073 46.1277C141.227 44.7067 142.429 49.2976 140.353 52.1943Z" fill="white"/>
<path d="M202.877 135.488C206.047 134.832 208.561 138.603 205.282 140.516C203.041 141.882 200.144 140.735 198.559 138.931C198.505 138.002 201.948 135.652 202.877 135.433V135.488Z" fill="white"/>
<path d="M145.927 37.3843C150.3 36.6191 148.824 43.6695 145.162 43.287C141.5 42.9044 142.921 37.9308 145.927 37.3843Z" fill="white"/>
<path d="M216.049 136.254C216.705 137.183 214.737 138.495 213.972 137.128C213.972 136.254 215.666 135.707 216.049 136.254Z" fill="white"/>
</g>
<defs>
<clipPath id="clip0_171_2">
<rect width="288.357" height="155" fill="white"/>
</clipPath>
</defs>
</svg>
