<svg width="143" height="40" viewBox="0 0 143 40" fill="none" xmlns="http://www.w3.org/2000/svg">
<path d="M118.254 26.0661C118.254 27.1362 118.769 27.9907 120.209 27.9907C121.91 27.9907 123.719 26.7743 123.827 23.9953C123.05 23.8875 122.195 23.772 121.425 23.772C119.724 23.772 118.246 24.2493 118.246 26.0584L118.254 26.0661Z" fill="black"/>
<path d="M52.9413 17.6826C50.5009 17.6826 48.9844 19.484 48.9844 22.6325C48.9844 25.5117 50.3162 27.7288 52.9028 27.7288C55.4894 27.7288 57.0059 25.7349 57.0059 22.5556C57.0059 19.1914 55.1968 17.6826 52.9413 17.6826Z" fill="black"/>
<path d="M0 0V40H142.048V0H0ZM42.0015 31.0239H35.0193V21.6397C35.0193 18.7606 34.057 17.652 32.1786 17.652C29.8845 17.652 28.9607 19.2764 28.9607 21.6089V27.398H31.1778V31.0162H24.2032V21.632C24.2032 18.7529 23.241 17.6443 21.3626 17.6443C19.0762 17.6443 18.1447 19.2687 18.1447 21.6012V27.3903H21.3241V31.0085H11.1701V27.3903H13.3872V17.9677H11.1701V14.3495H18.1447V16.8591C19.1455 15.0885 20.8776 14.0185 23.2025 14.0185C25.5273 14.0185 27.8137 15.1655 28.6374 17.5982C29.5612 15.3811 31.4473 14.0185 34.0724 14.0185C37.0593 14.0185 39.7998 15.8276 39.7998 19.7768V27.3903H42.0092V31.0085L42.0015 31.0239ZM52.756 31.3934C47.6213 31.3934 44.0724 28.2602 44.0724 22.9407C44.0724 18.0677 47.0285 14.0416 53.01 14.0416C58.9915 14.0416 61.9092 18.06 61.9092 22.7175C61.9092 28.037 58.0678 31.4011 52.7483 31.4011L52.756 31.3934ZM79.6228 31.0239H65.0654L64.5882 28.5142L73.749 17.9908H68.5451L67.806 20.5774L64.3726 20.2079L64.9654 14.3726H79.592L79.9615 16.8822L70.7236 27.4134H76.1201L76.8899 24.8268L80.6621 25.1963L79.6305 31.0316L79.6228 31.0239ZM89.1301 31.0239H84.1417V25.0423H89.1301V31.0239ZM89.1301 20.3464H84.1417V14.3649H89.1301V20.3464ZM92.2556 31.0239L99.4611 5.61201H104.149L96.9438 31.0239H92.2556ZM101.925 31.0239L109.13 5.61201H113.826L106.62 31.0239H101.925ZM127.483 31.3934C125.266 31.3934 124.049 30.1001 123.826 28.0677C122.864 29.7691 121.17 31.3934 118.476 31.3934C116.074 31.3934 113.341 30.0924 113.341 26.6282C113.341 22.525 117.298 21.5704 121.101 21.5704C122.025 21.5704 122.987 21.6012 123.834 21.7167V21.1624C123.834 19.4611 123.795 17.4365 121.101 17.4365C120.1 17.4365 119.33 17.5135 118.553 17.9138L118.014 19.7921L114.211 19.3841L114.865 15.5504C117.791 14.3726 119.261 14.0416 121.994 14.0416C125.574 14.0416 128.607 15.8891 128.607 19.6921V26.9284C128.607 27.8907 128.976 28.2217 129.754 28.2217C129.977 28.2217 130.192 28.1832 130.454 28.1062L130.477 30.6159C129.592 31.1008 128.522 31.3934 127.49 31.3934H127.483Z" fill="black"/>
</svg>
