<svg width="973" height="571" viewBox="0 0 973 571" fill="none" xmlns="http://www.w3.org/2000/svg">
<mask id="path-1-inside-1_114_11579" fill="white">
<path d="M971.655 440.439C959.111 399.744 936.515 364.836 904.234 336.175C900.822 333.144 896.763 330.388 892.521 328.459C855.813 312.107 819.105 296.215 777.048 299.522C758.325 300.992 739.418 299.798 717.928 299.798C722.632 292.724 726.506 287.672 729.549 282.068C732.962 275.914 735.36 269.392 738.403 263.145C745.966 247.62 747.811 231.452 739.233 216.203C725.03 190.849 731.486 167.425 742.369 143.173C752.884 119.656 769.393 103.213 792.819 91.7302C810.989 82.8196 830.265 77.4915 849.541 72.2554C864.39 68.2135 877.487 72.8985 886.895 85.7591C891.045 91.3627 895.472 96.7826 900.36 101.743C904.88 106.336 915.486 104.132 918.899 98.528C928.03 83.7382 924.525 60.8645 911.428 51.3108C904.88 46.4422 896.856 42.9514 891.414 37.1641C868.91 13.4637 838.658 7.21703 808.499 1.42971C799.921 -0.223807 791.159 -0.407531 782.397 0.694815C780.368 1.42971 778.247 2.07275 776.033 2.53206C774.834 2.80764 773.543 2.99137 772.344 3.26695C769.393 3.81813 766.441 4.18558 763.398 4.27744C759.063 5.01233 751.685 9.6973 747.073 11.8101C740.34 14.8416 733.7 17.5974 726.875 19.894C685.094 39.185 647.556 65.2739 613.523 96.5989C591.019 117.268 569.16 138.58 555.971 166.322C548.408 163.291 546.748 158.055 545.365 152.175C538.908 125.168 532.637 97.9768 517.603 73.9089C496.759 40.6548 468.721 17.5974 427.125 14.1985C420.115 13.5555 413.29 11.259 406.281 10.1566C404.621 9.88103 402.868 9.60544 401.116 9.42172C401.116 9.32985 401.116 9.14613 401.208 8.96241C388.296 8.77868 375.752 6.57399 362.84 4.18558C356.015 4.64489 349.098 5.28792 342.273 6.02282C342.088 6.02282 341.996 6.02282 341.811 6.02282C341.811 6.20654 341.904 6.39027 341.996 6.57399C328.254 7.67634 314.603 10.3403 300.953 15.1172C260.556 29.5395 223.756 49.3817 189.539 75.2869C155.874 100.825 129.958 131.323 111.327 168.343C104.317 182.214 101.919 196.637 100.905 211.886C99.5215 233.014 108.007 247.345 127.191 256.255C137.428 244.681 139.55 242.292 136.045 235.403C122.302 208.487 133.739 185.613 147.85 163.658C159.933 144.826 204.111 112.583 226.339 105.601C267.935 92.5569 307.871 96.4151 346.423 116.9C357.952 123.055 364.592 132.058 365.423 144.367C366.529 161.637 366.714 178.907 362.563 196.269C354.816 228.513 352.602 260.481 375.937 288.774C376.306 289.234 375.568 290.612 375.107 292.541C372.063 292.541 367.636 293.919 365.607 292.357C345.962 277.016 321.521 276.097 298.648 273.158C267.842 269.208 237.406 275.822 207.524 283.722C162.331 295.664 121.196 315.414 84.6724 344.075C55.7119 366.765 30.5329 392.946 10.98 423.628C-3.03902 445.675 -3.13125 469.651 7.8442 493.535C11.4412 501.252 16.8828 506.58 24.3535 510.989C69.0854 537.445 116.676 544.978 167.68 534.046C187.325 529.821 207.155 529.913 228.829 532.76C225.785 538.731 223.48 543.692 221.082 548.285C220.805 548.836 220.436 549.387 220.159 549.938C217.116 555.45 207.062 574.282 200.514 595.227C199.131 600.646 197.839 606.25 196.825 611.762C193.412 631.145 191.752 650.803 200.699 669.819C207.155 683.598 218.038 693.703 232.518 694.897C242.202 695.724 249.95 691.498 256.129 685.068C262.493 653.559 259.911 621.867 263.6 589.898C262.954 584.203 263.231 578.599 264.707 573.455C266.736 566.198 270.24 560.319 274.668 555.45H272.915C273.192 554.715 273.469 553.98 273.745 553.245C278.265 542.13 283.061 538.088 294.589 538.088C305.288 538.088 315.987 539.099 326.686 538.915C348.544 538.548 368.651 533.128 384.607 517.236C388.757 513.102 393.184 509.244 397.796 505.661C413.106 493.719 422.79 478.01 429.062 460.281C433.581 447.328 437.178 434.008 440.867 421.699C437.455 412.329 433.12 403.878 431.275 394.875C421.038 344.167 421.222 344.167 396.965 308.984C405.82 306.963 413.936 307.147 421.591 310.729C430.63 315.047 440.406 315.966 449.445 313.577C480.619 305.31 510.501 294.745 528.117 265.166C530.884 260.573 535.773 257.266 541.122 251.938C551.636 292.081 577.922 312.659 615.46 321.11C620.071 322.12 624.96 321.477 629.663 322.396C633.353 323.131 639.163 320.099 640.085 327.265C622.654 339.115 605.315 350.965 587.883 362.723C553.481 386.24 531.899 418.759 520.093 457.709C509.671 491.79 520.647 520.634 551.267 537.905C574.048 550.765 598.213 559.86 625.329 559.033C629.756 558.941 634.09 559.033 638.518 559.033C638.333 559.033 638.149 559.217 637.872 559.308C640.27 559.308 642.668 559.584 644.974 559.951C645.988 559.951 646.911 559.676 647.925 559.676C674.303 559.676 700.589 545.897 726.321 540.66C745.505 536.71 764.874 535.24 783.504 538.456C797.062 538.456 810.712 540.017 824.547 544.151C844.745 550.122 865.866 553.429 887.448 553.154C916.593 552.786 936.699 539.742 951.272 516.133C960.587 501.068 966.121 484.533 970.825 467.906C973.223 459.271 973.96 448.89 971.378 440.531L971.655 440.439ZM156.704 333.144C199.592 312.016 245.615 303.381 293.206 301.451C303.997 300.992 313.681 302.921 323.089 309.903C332.219 316.701 344.025 320.008 353.894 326.07C362.84 331.49 370.864 338.38 379.073 344.902C393.553 356.385 396.32 371.818 394.014 388.812C393.276 394.14 389.31 397.815 384.422 396.988C363.855 393.314 341.996 394.508 323.181 383.852C312.482 377.789 301.414 375.952 289.332 375.952C260.833 375.952 232.795 378.616 205.31 386.24C203.004 386.883 200.975 388.261 198.669 388.72C192.859 389.731 186.864 391.568 181.146 391.017C146.836 387.986 113.448 399.009 79.2307 396.896C78.4007 396.896 77.6628 395.61 75.6337 393.773C99.0603 368.511 125.899 348.301 156.704 333.144ZM398.81 429.691C402.315 444.573 394.66 457.525 387.097 470.202C384.145 475.071 378.796 478.47 375.015 482.971C364.592 495.189 352.234 498.588 336.923 492.616C323.181 487.288 309.346 488.575 295.143 491.698C283.706 494.178 271.808 495.832 260.095 496.015C229.29 496.475 198.854 495.28 168.141 500.976C145.176 505.202 120.735 503.824 97.0313 502.629C78.124 501.711 59.9545 495.005 44.1831 484.349C25.5525 471.764 27.3971 446.318 47.2267 435.295C52.2994 432.447 58.0177 429.048 63.5515 428.772C90.5751 427.394 116.584 415.36 147.574 421.515C149.142 425.282 150.71 428.313 151.632 431.528C155.321 443.746 163.714 451.37 175.981 454.494C186.218 457.066 196.64 460.189 207.062 460.74C228.368 461.843 249.765 461.843 271.163 461.383C279.279 461.2 287.303 458.26 295.419 457.25C311.191 455.412 321.428 447.237 327.239 432.906C328.899 428.68 332.035 425.098 334.802 420.505C356.661 416.003 376.859 420.688 398.718 429.691H398.81ZM507.181 225.665C497.958 253.04 468.444 275.179 436.809 273.893C406.742 272.699 392.815 261.859 394.199 232.096C394.844 218.316 396.043 204.904 399.363 191.125C406.004 163.566 404.252 135.916 387.005 111.205C378.243 98.6198 368.189 88.515 352.326 83.187C334.525 77.3078 317.831 68.4891 298.371 67.7542C293.021 67.4786 287.764 63.4366 280.386 60.2215C286.012 56.2714 289.332 52.5969 293.575 51.3108C309.254 46.4422 325.025 41.5735 341.074 38.1746C350.112 36.2455 360.165 35.6024 369.204 37.0722C392.354 40.8386 415.319 45.7073 438.1 51.219C457.377 55.9039 472.226 68.6728 482.371 84.1056C501.186 112.399 512.53 143.816 514.836 178.081C515.943 194.708 512.254 210.324 507.089 225.665H507.181ZM639.348 286.019C620.901 288.131 605.13 280.782 592.771 270.586C577.83 258.184 570.359 239.812 574.325 220.337C581.703 184.235 598.397 152.543 627.358 128.199C646.173 112.307 665.726 97.3338 685.463 82.4521C708.152 65.3657 734.069 53.883 760.723 44.0537C770.5 40.4711 781.291 39.0932 791.62 37.1641C793.557 36.7966 797.615 38.6339 797.615 39.6444C797.8 42.4002 797.339 46.6259 795.402 47.8201C785.625 54.2504 775.388 60.0377 765.15 65.8251C734.714 83.0033 718.02 110.103 706.215 141.428C697.268 165.312 699.113 189.196 702.433 213.447C702.895 216.755 705.754 219.878 706.215 223.185C709.72 250.009 709.074 263.145 679.745 276.74C666.74 282.803 653.736 288.315 639.44 286.019H639.348ZM628.464 376.227C651.799 362.999 676.055 351.7 702.526 345.637C708.244 344.351 714.7 342.881 719.957 344.351C731.025 347.382 740.617 346.372 750.209 340.401C754.083 338.013 758.879 335.44 763.213 335.624C787.839 336.451 812.465 333.236 836.998 341.503C847.604 345.086 855.721 351.057 864.39 356.569C883.021 368.511 901.652 380.82 911.797 401.397C907.185 407.368 901.006 405.715 895.657 404.521C883.021 401.673 870.662 397.907 858.119 394.691C852.493 393.314 846.59 391.476 840.964 391.66C818.183 392.579 796.324 387.251 774.927 381.371C756.019 376.135 737.666 377.605 718.85 379.442C702.433 381.096 686.109 384.311 669.691 384.587C655.488 384.77 641.561 383.852 628.464 391.017C626.159 392.303 621.916 390.282 615.737 389.363C620.994 383.852 623.945 378.799 628.464 376.227ZM929.413 479.48C924.709 500.7 907.278 508.233 889.385 515.031C886.341 516.225 882.283 516.041 878.871 515.398C860.424 511.632 842.255 506.028 823.625 503.916C793.004 500.333 761.922 499.965 731.394 505.753C708.244 510.162 685.555 516.684 662.497 521.094C636.488 526.054 610.572 524.676 585.485 515.766C581.058 514.204 576.907 511.816 572.665 509.795C543.336 496.567 546.01 456.607 566.301 442.919C573.126 438.326 579.674 432.171 587.237 430.15C604.208 425.649 621.732 422.893 639.163 420.413C648.478 419.127 654.566 422.893 656.779 433.641C661.76 457.525 681.128 463.404 700.589 468.64C713.04 471.948 726.137 472.774 739.049 474.244C758.694 476.449 775.941 467.906 794.018 462.761C805.363 459.546 812.833 453.759 817.261 443.378C818.644 440.163 820.581 437.224 822.425 434.284C823.624 432.355 825.285 430.701 827.775 427.578C864.852 420.505 893.72 439.888 924.894 449.533C928.86 450.727 931.627 455.412 935.131 458.628C933.01 466.252 930.797 472.774 929.321 479.572L929.413 479.48Z"/>
</mask>
<path d="M971.655 440.439C959.111 399.744 936.515 364.836 904.234 336.175C900.822 333.144 896.763 330.388 892.521 328.459C855.813 312.107 819.105 296.215 777.048 299.522C758.325 300.992 739.418 299.798 717.928 299.798C722.632 292.724 726.506 287.672 729.549 282.068C732.962 275.914 735.36 269.392 738.403 263.145C745.966 247.62 747.811 231.452 739.233 216.203C725.03 190.849 731.486 167.425 742.369 143.173C752.884 119.656 769.393 103.213 792.819 91.7302C810.989 82.8196 830.265 77.4915 849.541 72.2554C864.39 68.2135 877.487 72.8985 886.895 85.7591C891.045 91.3627 895.472 96.7826 900.36 101.743C904.88 106.336 915.486 104.132 918.899 98.528C928.03 83.7382 924.525 60.8645 911.428 51.3108C904.88 46.4422 896.856 42.9514 891.414 37.1641C868.91 13.4637 838.658 7.21703 808.499 1.42971C799.921 -0.223807 791.159 -0.407531 782.397 0.694815C780.368 1.42971 778.247 2.07275 776.033 2.53206C774.834 2.80764 773.543 2.99137 772.344 3.26695C769.393 3.81813 766.441 4.18558 763.398 4.27744C759.063 5.01233 751.685 9.6973 747.073 11.8101C740.34 14.8416 733.7 17.5974 726.875 19.894C685.094 39.185 647.556 65.2739 613.523 96.5989C591.019 117.268 569.16 138.58 555.971 166.322C548.408 163.291 546.748 158.055 545.365 152.175C538.908 125.168 532.637 97.9768 517.603 73.9089C496.759 40.6548 468.721 17.5974 427.125 14.1985C420.115 13.5555 413.29 11.259 406.281 10.1566C404.621 9.88103 402.868 9.60544 401.116 9.42172C401.116 9.32985 401.116 9.14613 401.208 8.96241C388.296 8.77868 375.752 6.57399 362.84 4.18558C356.015 4.64489 349.098 5.28792 342.273 6.02282C342.088 6.02282 341.996 6.02282 341.811 6.02282C341.811 6.20654 341.904 6.39027 341.996 6.57399C328.254 7.67634 314.603 10.3403 300.953 15.1172C260.556 29.5395 223.756 49.3817 189.539 75.2869C155.874 100.825 129.958 131.323 111.327 168.343C104.317 182.214 101.919 196.637 100.905 211.886C99.5215 233.014 108.007 247.345 127.191 256.255C137.428 244.681 139.55 242.292 136.045 235.403C122.302 208.487 133.739 185.613 147.85 163.658C159.933 144.826 204.111 112.583 226.339 105.601C267.935 92.5569 307.871 96.4151 346.423 116.9C357.952 123.055 364.592 132.058 365.423 144.367C366.529 161.637 366.714 178.907 362.563 196.269C354.816 228.513 352.602 260.481 375.937 288.774C376.306 289.234 375.568 290.612 375.107 292.541C372.063 292.541 367.636 293.919 365.607 292.357C345.962 277.016 321.521 276.097 298.648 273.158C267.842 269.208 237.406 275.822 207.524 283.722C162.331 295.664 121.196 315.414 84.6724 344.075C55.7119 366.765 30.5329 392.946 10.98 423.628C-3.03902 445.675 -3.13125 469.651 7.8442 493.535C11.4412 501.252 16.8828 506.58 24.3535 510.989C69.0854 537.445 116.676 544.978 167.68 534.046C187.325 529.821 207.155 529.913 228.829 532.76C225.785 538.731 223.48 543.692 221.082 548.285C220.805 548.836 220.436 549.387 220.159 549.938C217.116 555.45 207.062 574.282 200.514 595.227C199.131 600.646 197.839 606.25 196.825 611.762C193.412 631.145 191.752 650.803 200.699 669.819C207.155 683.598 218.038 693.703 232.518 694.897C242.202 695.724 249.95 691.498 256.129 685.068C262.493 653.559 259.911 621.867 263.6 589.898C262.954 584.203 263.231 578.599 264.707 573.455C266.736 566.198 270.24 560.319 274.668 555.45H272.915C273.192 554.715 273.469 553.98 273.745 553.245C278.265 542.13 283.061 538.088 294.589 538.088C305.288 538.088 315.987 539.099 326.686 538.915C348.544 538.548 368.651 533.128 384.607 517.236C388.757 513.102 393.184 509.244 397.796 505.661C413.106 493.719 422.79 478.01 429.062 460.281C433.581 447.328 437.178 434.008 440.867 421.699C437.455 412.329 433.12 403.878 431.275 394.875C421.038 344.167 421.222 344.167 396.965 308.984C405.82 306.963 413.936 307.147 421.591 310.729C430.63 315.047 440.406 315.966 449.445 313.577C480.619 305.31 510.501 294.745 528.117 265.166C530.884 260.573 535.773 257.266 541.122 251.938C551.636 292.081 577.922 312.659 615.46 321.11C620.071 322.12 624.96 321.477 629.663 322.396C633.353 323.131 639.163 320.099 640.085 327.265C622.654 339.115 605.315 350.965 587.883 362.723C553.481 386.24 531.899 418.759 520.093 457.709C509.671 491.79 520.647 520.634 551.267 537.905C574.048 550.765 598.213 559.86 625.329 559.033C629.756 558.941 634.09 559.033 638.518 559.033C638.333 559.033 638.149 559.217 637.872 559.308C640.27 559.308 642.668 559.584 644.974 559.951C645.988 559.951 646.911 559.676 647.925 559.676C674.303 559.676 700.589 545.897 726.321 540.66C745.505 536.71 764.874 535.24 783.504 538.456C797.062 538.456 810.712 540.017 824.547 544.151C844.745 550.122 865.866 553.429 887.448 553.154C916.593 552.786 936.699 539.742 951.272 516.133C960.587 501.068 966.121 484.533 970.825 467.906C973.223 459.271 973.96 448.89 971.378 440.531L971.655 440.439ZM156.704 333.144C199.592 312.016 245.615 303.381 293.206 301.451C303.997 300.992 313.681 302.921 323.089 309.903C332.219 316.701 344.025 320.008 353.894 326.07C362.84 331.49 370.864 338.38 379.073 344.902C393.553 356.385 396.32 371.818 394.014 388.812C393.276 394.14 389.31 397.815 384.422 396.988C363.855 393.314 341.996 394.508 323.181 383.852C312.482 377.789 301.414 375.952 289.332 375.952C260.833 375.952 232.795 378.616 205.31 386.24C203.004 386.883 200.975 388.261 198.669 388.72C192.859 389.731 186.864 391.568 181.146 391.017C146.836 387.986 113.448 399.009 79.2307 396.896C78.4007 396.896 77.6628 395.61 75.6337 393.773C99.0603 368.511 125.899 348.301 156.704 333.144ZM398.81 429.691C402.315 444.573 394.66 457.525 387.097 470.202C384.145 475.071 378.796 478.47 375.015 482.971C364.592 495.189 352.234 498.588 336.923 492.616C323.181 487.288 309.346 488.575 295.143 491.698C283.706 494.178 271.808 495.832 260.095 496.015C229.29 496.475 198.854 495.28 168.141 500.976C145.176 505.202 120.735 503.824 97.0313 502.629C78.124 501.711 59.9545 495.005 44.1831 484.349C25.5525 471.764 27.3971 446.318 47.2267 435.295C52.2994 432.447 58.0177 429.048 63.5515 428.772C90.5751 427.394 116.584 415.36 147.574 421.515C149.142 425.282 150.71 428.313 151.632 431.528C155.321 443.746 163.714 451.37 175.981 454.494C186.218 457.066 196.64 460.189 207.062 460.74C228.368 461.843 249.765 461.843 271.163 461.383C279.279 461.2 287.303 458.26 295.419 457.25C311.191 455.412 321.428 447.237 327.239 432.906C328.899 428.68 332.035 425.098 334.802 420.505C356.661 416.003 376.859 420.688 398.718 429.691H398.81ZM507.181 225.665C497.958 253.04 468.444 275.179 436.809 273.893C406.742 272.699 392.815 261.859 394.199 232.096C394.844 218.316 396.043 204.904 399.363 191.125C406.004 163.566 404.252 135.916 387.005 111.205C378.243 98.6198 368.189 88.515 352.326 83.187C334.525 77.3078 317.831 68.4891 298.371 67.7542C293.021 67.4786 287.764 63.4366 280.386 60.2215C286.012 56.2714 289.332 52.5969 293.575 51.3108C309.254 46.4422 325.025 41.5735 341.074 38.1746C350.112 36.2455 360.165 35.6024 369.204 37.0722C392.354 40.8386 415.319 45.7073 438.1 51.219C457.377 55.9039 472.226 68.6728 482.371 84.1056C501.186 112.399 512.53 143.816 514.836 178.081C515.943 194.708 512.254 210.324 507.089 225.665H507.181ZM639.348 286.019C620.901 288.131 605.13 280.782 592.771 270.586C577.83 258.184 570.359 239.812 574.325 220.337C581.703 184.235 598.397 152.543 627.358 128.199C646.173 112.307 665.726 97.3338 685.463 82.4521C708.152 65.3657 734.069 53.883 760.723 44.0537C770.5 40.4711 781.291 39.0932 791.62 37.1641C793.557 36.7966 797.615 38.6339 797.615 39.6444C797.8 42.4002 797.339 46.6259 795.402 47.8201C785.625 54.2504 775.388 60.0377 765.15 65.8251C734.714 83.0033 718.02 110.103 706.215 141.428C697.268 165.312 699.113 189.196 702.433 213.447C702.895 216.755 705.754 219.878 706.215 223.185C709.72 250.009 709.074 263.145 679.745 276.74C666.74 282.803 653.736 288.315 639.44 286.019H639.348ZM628.464 376.227C651.799 362.999 676.055 351.7 702.526 345.637C708.244 344.351 714.7 342.881 719.957 344.351C731.025 347.382 740.617 346.372 750.209 340.401C754.083 338.013 758.879 335.44 763.213 335.624C787.839 336.451 812.465 333.236 836.998 341.503C847.604 345.086 855.721 351.057 864.39 356.569C883.021 368.511 901.652 380.82 911.797 401.397C907.185 407.368 901.006 405.715 895.657 404.521C883.021 401.673 870.662 397.907 858.119 394.691C852.493 393.314 846.59 391.476 840.964 391.66C818.183 392.579 796.324 387.251 774.927 381.371C756.019 376.135 737.666 377.605 718.85 379.442C702.433 381.096 686.109 384.311 669.691 384.587C655.488 384.77 641.561 383.852 628.464 391.017C626.159 392.303 621.916 390.282 615.737 389.363C620.994 383.852 623.945 378.799 628.464 376.227ZM929.413 479.48C924.709 500.7 907.278 508.233 889.385 515.031C886.341 516.225 882.283 516.041 878.871 515.398C860.424 511.632 842.255 506.028 823.625 503.916C793.004 500.333 761.922 499.965 731.394 505.753C708.244 510.162 685.555 516.684 662.497 521.094C636.488 526.054 610.572 524.676 585.485 515.766C581.058 514.204 576.907 511.816 572.665 509.795C543.336 496.567 546.01 456.607 566.301 442.919C573.126 438.326 579.674 432.171 587.237 430.15C604.208 425.649 621.732 422.893 639.163 420.413C648.478 419.127 654.566 422.893 656.779 433.641C661.76 457.525 681.128 463.404 700.589 468.64C713.04 471.948 726.137 472.774 739.049 474.244C758.694 476.449 775.941 467.906 794.018 462.761C805.363 459.546 812.833 453.759 817.261 443.378C818.644 440.163 820.581 437.224 822.425 434.284C823.624 432.355 825.285 430.701 827.775 427.578C864.852 420.505 893.72 439.888 924.894 449.533C928.86 450.727 931.627 455.412 935.131 458.628C933.01 466.252 930.797 472.774 929.321 479.572L929.413 479.48Z" fill="#FFFFB4" stroke="black" stroke-width="2" mask="url(#path-1-inside-1_114_11579)"/>
</svg>
