<svg width="588" height="398" viewBox="0 0 588 398" fill="none" xmlns="http://www.w3.org/2000/svg">
<g clip-path="url(#clip0_254_39649)">
<path d="M581.972 310.189C568.823 301.838 555.531 293.693 542.223 285.611C506.551 263.948 470.863 242.332 435.127 220.781C428.227 216.629 427.434 216.835 422.929 223.221C417.156 231.414 411.461 239.686 405.942 248.053C404.482 250.256 403.483 252.189 400.517 250.367C391.064 244.567 381.61 238.799 372.157 233.014C368.81 230.97 368.128 228.561 370.682 225.218C373.886 221.034 376.804 216.629 379.834 212.287C387.971 200.623 392.459 187.85 390.128 173.541C389.129 167.344 387.463 161.069 384.862 155.396C382.419 150.04 381.658 145.808 385.544 140.848C387.352 138.55 387.558 135.017 388.494 132.037C389.636 128.361 390.096 124.256 392.079 121.103C399.534 109.265 407.512 97.7603 415.221 86.081C421.327 76.8422 427.497 67.6351 433.303 58.2062C436.776 52.5488 436.015 49.4269 431.288 45.0056C425.562 39.6494 418.25 40.1882 413.777 46.7647C402.643 63.1346 391.936 79.8056 380.627 96.0488C374.251 105.193 370.016 116.19 359.404 121.959C358.341 122.545 357.406 123.844 356.993 125.017C355.391 129.47 352.536 129.581 348.254 129.011C328.11 126.332 309.821 130.104 295.435 145.808C289.915 151.83 284.332 157.789 278.733 163.747C273.847 168.961 272.483 169.262 266.662 165.332C257.463 159.136 248.358 152.781 239.333 146.347C234.083 142.607 234.067 142.322 237.826 137.029C242.109 131.007 246.74 125.207 250.928 119.122C254.179 114.384 253.688 112.07 249.215 109.392C227.484 96.3657 205.802 83.2444 183.929 70.4718C170.018 62.3423 155.727 54.8942 141.753 46.8756C116.327 32.2963 91.0601 17.4319 65.6183 2.85263C57.0531 -2.04409 53.4684 -0.76048 48.139 7.68597C44.9032 12.8204 41.3344 17.733 37.8925 22.7248C26.2343 39.6969 14.4492 56.5898 2.93382 73.657C-1.47567 80.2018 -1.04741 81.8341 5.1227 85.78C22.9034 97.1739 40.6524 108.631 58.6234 119.724C92.1228 140.373 125.765 160.768 159.328 181.274C168.115 186.646 176.823 192.177 185.674 197.438C193.319 201.986 193.953 201.606 198.696 194.3C204.454 185.458 210.402 176.726 216.334 168.01C218.047 165.474 219.776 163.589 223.36 166.061C233.575 173.097 243.965 179.895 254.433 186.567C257.812 188.722 257.748 190.624 255.496 193.508C252.561 197.248 249.706 201.083 247.216 205.124C241.03 215.187 233.623 224.774 234.115 237.61C234.257 241.493 232.084 243.521 227.976 244.472C215.541 247.372 203.486 251.761 193.557 259.938C179.313 271.697 178.964 282.362 187.482 295.039C195.302 306.639 205.072 316.132 216.492 323.913C220.474 326.623 220.283 328.588 217.793 332.058C214.732 336.321 211.782 340.79 209.64 345.56C206.991 351.518 209.196 357.049 214.684 360.567C219.681 363.784 224.582 362.88 229.277 357.508C232.386 353.927 235.526 350.282 238.016 346.273C240.491 342.264 242.775 342.485 246.36 344.72C257.938 351.946 270.628 355.844 284.221 357.762C304.984 360.694 312.248 351.693 314.056 331.836C314.199 330.267 314.183 328.667 314.056 327.082C313.596 319.983 313.073 312.883 312.581 305.784C311.645 301.822 312.343 298.668 316.483 296.624C319.766 295.008 322.574 292.472 325.714 290.523C330.98 287.274 335.2 283.281 338.308 277.735C342.29 270.619 347.191 264.011 351.553 257.086C353.853 253.473 356.359 252.934 360.118 255.105C368.572 260.002 377.248 264.502 385.75 269.32C390.683 272.093 390.826 272.949 387.828 277.956C384.307 283.836 380.849 289.747 377.042 295.452C368.239 308.684 369.556 311.489 382.721 319.523C410.415 336.464 437.68 354.117 465.375 371.058C484.297 382.626 503.648 393.497 522.777 404.701C526.743 407.03 529.328 406.222 531.898 402.213C540.13 389.329 548.727 376.667 557.212 363.926C566.444 350.108 575.865 336.4 584.891 322.439C589.49 315.292 589.332 314.88 581.956 310.189H581.972ZM166.339 84.322C167.338 84.7816 168.321 85.1302 169.209 85.6373C178.298 90.9144 187.355 96.2073 196.428 101.5C199.045 103.006 199.235 104.844 197.665 107.364C194.604 112.26 191.733 117.268 188.798 122.244C186.99 125.271 184.738 126.015 181.597 124.035C173.159 118.71 164.594 113.576 156.267 108.093C154.95 107.221 153.507 104.289 154.014 103.291C157.155 97.2532 160.819 91.4849 164.388 85.6849C164.737 85.0985 165.593 84.8291 166.339 84.322ZM98.5943 101.674C104.918 90.4548 113.578 87.9721 124.575 94.2264C129.825 97.2215 134.996 100.359 140.056 103.655C141.642 104.685 142.768 106.413 144.592 108.346C140.215 114.415 136.329 119.978 132.157 125.302C131.761 125.794 129.191 125.049 127.954 124.336C118.611 118.979 109.396 113.417 100.054 108.045C97.0716 106.318 96.9764 104.575 98.5943 101.674ZM94.9937 99.9789C93.4869 102.403 91.869 103.164 89.1726 101.468C80.2426 95.8745 71.265 90.3597 62.2239 84.9559C59.242 83.1652 58.8455 81.4854 61.0502 78.6964C63.6515 75.3843 65.8879 71.7871 68.172 68.2532C69.1713 66.716 69.8692 65.0045 70.7098 63.3723C71.2967 63.8636 71.8677 64.3548 72.4387 64.8461C73.6283 65.4007 74.8814 65.8603 76.0075 66.51C84.6838 71.5177 93.2965 76.6362 102.02 81.5647C104.431 82.9117 104.891 84.322 103.416 86.604C100.577 91.0253 97.7536 95.4783 94.9937 99.9789ZM139.802 124.589C142.404 120.96 144.513 116.983 147.019 113.29C147.812 112.102 149.192 111.309 150.255 110.374C151.619 111.135 152.555 111.626 153.443 112.165C161.945 117.395 170.383 122.783 179.012 127.822C182.517 129.882 182.105 131.673 180.281 134.747C171.382 149.77 171.462 149.849 156.663 141.118C151.683 138.17 146.797 135.064 141.785 132.148C138.486 130.231 137.264 128.139 139.802 124.589ZM131.967 64.0854C140.151 68.8712 148.431 73.4827 156.711 78.0942C160.216 80.0592 160.819 82.3253 158.44 85.7324C155.426 90.0428 152.856 94.6543 149.97 99.028C149.176 100.217 147.892 101.056 146.797 102.102C145.227 101.199 144.117 100.534 142.99 99.8996C134.298 94.9395 125.654 89.9002 116.883 85.0985C113.393 83.1969 112.124 81.4062 114.995 77.8406C118.136 73.9739 120.848 69.7586 123.798 65.7177C126.003 62.675 128.572 62.1045 131.967 64.0854ZM92.8048 40.9963C101.418 46.1308 110.094 51.1701 118.818 56.1302C122.037 57.9685 122.767 59.6324 120.102 62.8177C116.74 66.8586 114.075 71.4701 110.934 75.7013C109.903 77.0958 108.349 78.0942 107.048 79.2668C105.478 78.4586 104.257 77.9198 103.131 77.2543C94.9778 72.3734 86.9202 67.3499 78.6564 62.6433C75.1034 60.6149 74.2152 58.6024 76.8323 55.2111C80.0522 51.0275 83.1135 46.7171 86.1272 42.3909C87.9829 39.7127 89.9656 39.3166 92.8048 40.9963ZM38.2731 34.61C41.6675 29.9035 44.9825 25.1494 48.4562 20.5062C49.17 19.5554 50.4389 19.0166 51.4857 18.2718C52.7229 18.9056 53.6588 19.3494 54.5629 19.8565C62.6522 24.3095 70.6622 28.8734 78.815 33.1838C82.6376 35.1964 83.8272 37.1772 80.8294 41.0597C77.7682 45.0056 75.2938 49.3953 72.6925 53.6739C71.1539 56.2253 69.2823 56.7166 66.7603 55.1953C57.7193 49.7756 48.6783 44.3401 39.6214 38.9679C37.7497 37.8586 36.7822 36.686 38.2731 34.61ZM23.4268 56.5423C26.266 52.739 28.8356 48.7455 31.6113 44.8947C33.3878 42.4067 35.5767 41.7095 38.4159 43.4368C46.9811 48.6346 55.6097 53.7215 64.159 58.951C65.1424 59.5532 65.8245 60.6942 67.0617 62.0412C63.0012 67.6193 59.2579 72.9914 55.1815 78.0942C54.6898 78.6963 52.1836 78.316 51.0258 77.6663C42.302 72.7537 33.7368 67.5401 24.9812 62.6592C21.9517 60.9794 21.2697 59.4106 23.4268 56.5423ZM29.1369 92.6417C24.0771 89.3138 18.9698 86.081 13.9734 82.6898C9.11979 79.3936 8.78669 77.7772 11.8797 72.9914C13.2913 70.7887 14.9251 68.7127 16.6223 66.7002C17.3836 65.781 18.5098 65.1789 19.4139 64.4974C20.7621 65.1789 21.7296 65.5909 22.6337 66.1297C30.7865 70.963 38.9076 75.8756 47.0921 80.6455C50.4547 82.6105 51.2954 84.639 49.0272 88.2521C41.3344 100.518 41.2551 100.629 29.1369 92.6417ZM72.7877 120.12C65.079 115.572 57.5131 110.802 49.8044 106.254C46.0135 104.02 45.4584 101.278 47.8217 97.7603C56.4821 84.8767 53.4684 84.6548 66.1734 92.7843C72.3911 96.7619 78.7833 100.438 85.0169 104.384C86.4444 105.288 87.5547 106.682 89.5056 108.505C85.3817 113.227 81.797 117.664 77.7682 121.658C77.1654 122.244 74.2945 121.008 72.7877 120.12ZM114.265 144.541C104.875 139.153 95.5964 133.59 86.2382 128.139C83.3197 126.427 82.9707 124.288 84.8424 121.61C85.4451 120.738 86.0161 119.851 86.603 118.979C91.0865 112.408 96.786 111.204 103.702 115.366C110.712 119.582 117.771 123.749 124.734 128.06C126.161 128.931 127.272 130.326 129.032 131.958C125.353 136.791 122.164 141.26 118.596 145.396C118.104 145.967 115.534 145.27 114.265 144.541ZM156.504 168.771C156.06 169.325 153.475 168.755 152.254 168.042C143.561 163.05 134.965 157.868 126.336 152.765C123.227 150.927 122.497 148.946 125.004 145.808C136.567 131.245 131.65 131.308 146.972 140.706C152.158 143.875 157.298 147.092 162.5 150.23C164.054 151.165 165.72 151.909 167.814 152.971C163.23 159.5 160.042 164.27 156.504 168.771ZM199.362 179.8C189.179 192.589 192.875 192.605 178.822 184.269C174.079 181.464 169.305 178.675 164.499 175.949C161.279 174.127 160.708 172.067 163.15 169.024C165.625 165.95 167.671 162.559 170.034 159.405C170.748 158.47 171.874 157.868 172.715 157.171C174.127 157.931 175.078 158.375 175.951 158.946C183.279 163.62 190.527 168.39 197.919 172.954C201.043 174.872 201.852 176.662 199.362 179.8ZM215.763 156.267C213.273 159.326 211.147 162.67 208.816 165.871C204.469 171.845 204.422 171.877 198.521 168.137C191.844 163.906 185.245 159.516 178.536 155.348C175.57 153.51 174.364 151.814 176.871 148.502C179.741 144.747 181.994 140.515 184.706 136.633C185.515 135.476 186.99 134.779 188.132 133.891C189.48 134.541 190.464 134.906 191.352 135.444C199.013 140.103 206.595 144.889 214.319 149.437C217.539 151.323 218.285 153.177 215.763 156.267ZM224.407 144.097C222.726 146.553 220.95 147.789 217.888 145.872C210.069 140.975 202.122 136.284 194.223 131.53C191.907 130.136 190.591 128.282 192.193 125.683C195.635 120.073 199.219 114.558 202.836 109.059C203.359 108.267 204.39 107.823 205.215 107.205C206.405 107.791 207.372 108.188 208.276 108.711C216.001 113.259 223.789 117.696 231.386 122.418C236.51 125.603 236.51 126.174 233.306 131.039C230.403 135.429 227.358 139.739 224.407 144.097ZM255.02 308.24C245.789 322.074 236.557 335.893 227.231 349.648C226.231 351.138 224.899 352.723 223.329 353.42C221.901 354.07 219.316 354.26 218.396 353.404C217.127 352.231 216.619 349.918 216.461 348.032C216.35 346.938 217.46 345.639 218.206 344.577C227.77 330.98 237.35 317.384 246.994 303.85C249.04 300.982 251.324 298.035 255.274 301.41C256.035 302.06 256.559 302.979 257.272 303.882C256.463 305.483 255.876 306.956 255.02 308.24ZM269.264 301.679C269.184 301.584 269.121 301.505 269.041 301.41C269.152 301.458 269.248 301.521 269.359 301.584C269.486 301.711 269.612 301.838 269.739 301.949C269.581 301.854 269.422 301.774 269.264 301.679ZM473.337 300.776C476.398 302.614 477.096 304.77 474.939 307.876C471.798 312.424 468.848 317.099 465.866 321.773C465.153 322.883 464.693 324.15 464.169 325.228C461.568 323.818 460.41 323.279 459.331 322.597C450.417 316.972 441.582 311.235 432.589 305.72C429.448 303.787 428.782 301.759 430.812 298.653C433.683 294.247 436.586 289.826 439.14 285.23C440.678 282.425 442.455 282.172 444.897 283.63C454.383 289.335 463.852 295.071 473.337 300.776ZM446.626 272.822C449.006 269.352 451.401 265.897 453.764 262.442C458.522 255.485 458.491 255.517 465.295 259.717C473.797 264.962 482.346 270.112 490.785 275.421C492.18 276.293 493.18 277.782 494.385 279.002C493.386 280.666 492.767 281.839 492.022 282.901C489.024 287.195 485.899 291.426 482.965 295.784C481.22 298.383 479.602 299.207 476.541 297.29C467.183 291.458 457.745 285.737 448.117 280.349C444.136 278.131 444.548 275.833 446.626 272.822ZM469.324 324.23C472.814 319.285 476.002 314.151 479.444 309.175C480.11 308.224 481.347 307.685 482.124 307.099C483.568 307.796 484.551 308.193 485.439 308.747C493.703 313.897 501.888 319.19 510.247 324.182C513.784 326.29 514.275 328.429 511.991 331.805C509.041 336.147 506.392 340.695 503.648 345.179C501.729 348.301 499.493 348.586 496.431 346.574C488.056 341.107 479.602 335.782 471.101 330.505C468.468 328.857 467.199 327.272 469.324 324.23ZM489.278 305.863C485.614 303.644 484.519 301.267 487.2 297.575C490.293 293.296 493.291 288.954 496.178 284.549C498.033 281.696 499.937 281.601 502.728 283.36C511.214 288.669 519.859 293.74 528.376 299.017C529.82 299.92 530.93 301.331 532.135 302.456C531.422 303.946 531.073 304.944 530.502 305.815C527.282 310.633 523.999 315.419 520.763 320.22C518.923 322.962 516.829 323.152 514.069 321.377C505.869 316.116 497.621 310.902 489.278 305.863ZM412.873 252.379C415.823 248.021 418.472 243.426 421.708 239.306C422.628 238.149 425.658 237.356 426.926 237.99C434.905 242.015 442.724 246.389 450.417 250.969C451.559 251.65 452.749 254.503 452.241 255.39C448.831 261.301 444.993 266.99 441.186 272.679C440.678 273.44 439.52 273.757 438.664 274.264C437.236 273.583 435.999 273.107 434.889 272.442C428.132 268.337 421.47 264.09 414.634 260.113C411.065 258.021 410.653 255.66 412.873 252.379ZM396.583 278.321C399.327 274.137 401.77 269.764 404.546 265.596C405.466 264.233 407.036 263.298 408.242 262.22C409.748 262.997 410.716 263.425 411.604 263.948C418.663 268.084 425.626 272.362 432.763 276.308C436.776 278.527 436.983 281.031 434.572 284.549C432.05 288.241 429.67 292.044 427.434 295.911C425.658 298.954 423.754 299.984 420.455 297.86C413.143 293.154 405.688 288.669 398.296 284.105C396.012 282.695 394.759 281.094 396.583 278.321ZM404.133 323.326C397.186 319.016 390.017 315.023 383.26 310.443C378.263 307.067 378.152 305.752 381.087 300.618C383.307 296.719 385.814 292.979 388.431 289.35C389.398 287.988 391.016 287.084 392.317 285.991C393.744 286.783 394.696 287.227 395.568 287.782C402.468 292.187 409.431 296.497 416.22 301.061C421.089 304.342 421.216 305.467 417.79 310.681C415.332 314.42 412.54 317.954 410.018 321.662C408.464 323.96 406.782 324.959 404.133 323.326ZM442.55 349.426C433.763 343.626 424.96 337.858 416.109 332.153C412.889 330.077 411.906 327.89 414.412 324.404C417.79 319.713 420.788 314.753 423.929 309.888C425.324 307.717 426.911 307.289 429.179 308.779C438.648 314.991 448.197 321.092 457.65 327.304C458.618 327.938 459.22 329.095 459.998 329.998C459.078 331.614 458.491 332.771 457.793 333.865C454.811 338.524 451.591 343.04 448.863 347.842C447.118 350.916 445.31 351.233 442.55 349.426ZM483.758 373.736C482.33 372.912 481.188 372.278 480.078 371.612C472.147 366.906 464.328 362.025 456.254 357.572C452.289 355.385 451.75 352.929 454.018 349.331C456.952 344.641 459.966 339.997 462.742 335.227C464.455 332.296 466.231 332.85 468.563 334.356C476.953 339.791 485.408 345.132 493.83 350.52C495.892 351.835 498.24 353.309 496.574 356.114C493.497 361.312 490.118 366.335 486.74 371.343C486.074 372.325 484.821 372.912 483.758 373.736ZM526.806 397.364C526.283 398.013 523.285 397.253 521.826 396.444C512.182 391.072 502.665 385.462 493.053 380.027C489.944 378.268 488.961 376.335 491.134 373.086C494.179 368.49 497.098 363.784 499.873 359.014C501.507 356.209 503.41 356.367 505.742 357.841C515.529 364.021 525.331 370.17 535.054 376.446C536.466 377.349 537.433 378.934 539.162 380.788C534.943 386.572 531.089 392.134 526.806 397.364ZM551.74 359.664C549.313 363.435 546.76 367.127 544.412 370.962C542.699 373.767 540.78 374.354 537.909 372.547C528.075 366.351 518.114 360.361 508.359 354.07C507.217 353.341 506.012 350.631 506.488 349.823C509.993 343.943 513.911 338.286 517.765 332.629C518.146 332.058 519.081 331.868 520.033 331.361C521.334 332.058 522.761 332.708 524.062 333.548C532.738 339.078 541.446 344.577 550.059 350.235C555.135 353.578 555.166 354.291 551.74 359.664ZM571.329 330.109C567.76 335.338 564.334 340.647 560.845 345.908C559.084 348.602 556.99 349.078 554.183 347.255C544.666 341.091 535.102 335.021 525.505 328.984C523.443 327.684 522.127 326.29 523.808 323.913C527.742 318.319 531.707 312.725 535.768 307.21C536.307 306.465 537.37 306.101 538.052 305.657C539.13 306.164 539.892 306.449 540.558 306.861C550.455 312.915 560.305 319.048 570.235 325.022C572.646 326.48 572.836 327.906 571.329 330.109Z" fill="black"/>
</g>
<defs>
<clipPath id="clip0_254_39649">
<rect width="588" height="406" fill="white"/>
</clipPath>
</defs>
</svg>
