<svg width="924" height="828" viewBox="0 0 924 828" fill="none" xmlns="http://www.w3.org/2000/svg">
<g clip-path="url(#clip0_167_199)">
<path d="M876.9 631.7C876.4 630.6 875.3 629.6 874.8 629.1C869 621.7 861.6 615.4 853.1 610.1C853.1 610.1 853.1 609.6 852.6 609C851.5 607.4 850.5 606.4 849.4 605.3C852.6 602.1 855.7 599.5 858.9 596.8L860.5 595.7C881.6 576.2 898 553.4 910.2 528.1C920.8 505.4 925 481.6 923.4 457.3C922.9 450.4 921.3 444.1 919.2 438.3C917.1 420.3 909.2 399.2 891.2 378.1C885.9 372.3 880.6 367.5 874.3 362.8C871.7 341.7 860.6 323.7 844.2 312.1C857.4 298.9 866.9 283 872.7 264C880.6 238.1 877.5 212.2 863.7 191.1C852.1 172.6 834.1 159.9 812.5 154.7C812 152.1 810.9 149.4 810.4 146.2C808.3 137.7 806.2 129.3 803.5 120.3C793.5 86.0004 762.3 62.7004 725.3 62.7004H724.8C716.9 62.7004 703.7 63.8004 689.9 70.6004C688.8 70.1004 687.3 69.5004 686.2 68.5004L674.6 62.7004C673 62.2004 671.4 61.1004 670.4 60.1004C662.5 55.9004 650.9 49.5004 636.6 45.3004L633.4 44.2004C629.7 42.6004 624.9 40.5004 619.1 38.4004C614.9 36.8004 610.1 35.8004 605.9 34.2004C600.6 32.6004 595.3 31.0004 590.6 29.4004C577.4 24.6004 564.7 22.0004 554.7 19.9004L549.4 18.8004C543.1 17.2004 536.2 16.7004 529.9 16.2004H521.4C511.9 10.9004 501.3 7.70039 489.7 6.20039C477.6 4.60039 465.4 3.60039 453.8 2.50039H451.7C447.5 2.00039 443.8 2.00039 439.6 2.00039C435.4 2.00039 430.6 2.00039 426.4 3.10039C419 1.00039 411.1 -0.0996094 403.2 -0.0996094C395.3 -0.0996094 387.4 1.00039 380 3.10039C374.7 2.00039 369.4 1.50039 363.6 1.50039C348.8 1.50039 334 5.70039 321.3 13.6004C303.3 24.7004 290.1 41.6004 284.3 60.1004C275.8 61.2004 268.5 62.2004 261.6 63.3004C259 63.3004 255.8 64.4004 252.6 64.9004C249.4 64.9004 246.3 66.0004 243.1 67.0004C238.9 66.5004 235.2 65.9004 231 65.9004C219.4 65.9004 208.3 68.5004 198.3 73.3004C190.4 73.3004 183.5 74.4004 178.8 74.9004C166.7 76.5004 157.7 81.2004 152.9 83.4004L127.5 94.5004L117.5 122.5V124.1C115.4 127.8 113.3 134.1 111.7 142.1C108 161.1 111.7 181.2 121.2 197.6C120.1 198.1 118.6 199.2 117.5 199.7C106.4 206.6 96.8999 214.5 89.4999 224C80.9999 228.2 73.0999 234.6 66.7999 241.4C59.3999 245.1 53.0999 249.9 46.6999 255.7C20.7999 282.1 16.0999 325.4 36.6999 356.6C37.1999 357.7 38.2999 358.7 39.2999 360.3C39.2999 360.3 39.2999 360.8 38.7999 361.4L38.2999 362.5C38.2999 362.5 37.1999 363.6 37.1999 364.1L36.0999 365.7C30.2999 373.6 26.0999 381.5 21.7999 388.4C19.6999 392.1 17.5999 396.3 15.9999 400.5C11.7999 408.4 9.09994 416.3 8.09994 423.7C6.49994 427.9 4.89994 432.2 3.89994 436.9C-1.90006 462.3 -0.900064 486.6 5.99994 508.7C9.69994 519.8 13.8999 533 21.2999 546.2C26.5999 555.7 31.8999 563.1 36.0999 568.4C37.1999 570 38.6999 572.1 39.2999 572.6C51.3999 591.6 67.2999 604.8 79.9999 614.3C95.7999 626.4 114.9 639.7 137 650.7C136.5 653.3 132.2 671.3 132.2 671.3L53.4999 698.8L133.3 777C134.9 778.6 137 780.7 138.6 782.3C151.8 794.4 169.2 801.3 186.7 801.3H193C200.9 800.8 208.8 799.7 216.8 798.7H219.4C228.9 797.6 237.4 795 245.3 790.2C267 779.1 281.2 758 283.9 734.7C283.9 730.5 284.4 726.8 283.9 722.6C286.5 716.8 289.7 711 292.4 705.7C293.5 705.7 295 705.7 296.1 706.2C299.8 706.7 303 707.3 306.7 707.8C313 723.1 325.2 735.8 341 743.7C353.7 750 367.4 753.2 382.2 753.2C397 753.2 393.3 753.2 396.5 752.1H398.1C420.3 752.1 440.9 741.5 454.6 725.2C456.7 727.8 458.8 730.5 460.9 732.6C465.7 738.4 470.4 744.2 475.2 750L478.4 753.7C486.9 763.7 494.2 773.2 501.6 782.8C510.1 800.8 525.9 815.5 546 821.9C557.1 825.6 568.7 827.2 580.9 827.2C593.1 827.2 602.6 825.6 610.5 824.6H612.1C623.7 822.5 640.1 817.2 654.4 801.4L689.8 767.6H697.7C708.3 767.6 718.3 766 728.3 763.4C735.7 761.3 742.6 758.6 748.9 754.4C787.5 789.3 802.2 799.3 828.7 799.3H857.8L877.9 779.2C885.8 771.3 892.7 761.2 898 751.2C903.8 739.1 907 726.4 907 714.2C910.7 699.4 910.2 683.6 904.4 668.8C898.6 654 888.6 641.3 875.3 632.9L877.4 631.8L876.9 631.7Z" fill="#FFFFB4"/>
<path d="M723.2 601.601C730.1 598.401 736.9 596.301 743.3 592.601C754.4 587.301 765 581.501 775.5 575.201C789.8 567.301 801.4 555.701 813.5 544.601C827.8 531.401 839.4 515.501 847.3 498.101C852.6 487.001 855.2 474.301 854.2 462.201C854.2 461.101 853.7 460.101 853.1 460.101C849.4 460.101 849.9 456.901 850.5 454.801C852.1 442.101 846.8 431.601 838.4 422.601C834.2 417.801 827.8 414.101 821.5 415.201C814.6 416.301 810.4 421.501 808.3 428.401C802 446.401 804.1 463.801 813.1 480.201C817.3 487.601 827.4 492.301 833.7 489.701C837.6 487.901 839.3 489.201 839 493.401C839 493.901 838.5 495.001 837.9 495.501C837.4 495.001 836.8 494.401 836.3 493.901C835.2 493.401 834.2 491.801 833.7 492.301C832.6 492.301 831.6 493.901 831.6 494.901C831.6 498.601 829 498.101 827.4 497.501C815.8 496.401 804.2 493.801 792.5 494.901C785.1 494.901 778.2 494.401 770.8 494.401C753.4 494.401 735.9 493.901 719 493.301C699.5 493.301 680.4 492.801 660.9 492.201C618.1 492.201 575.3 491.101 532.5 491.101C489.7 491.101 464.4 491.101 430.6 492.201C419 492.201 407.4 492.701 395.2 493.301C383.1 493.301 371.4 493.801 359.3 494.401C341.9 494.401 324.4 494.901 307 495.501C286.4 495.501 266.3 496.001 245.7 496.601H225.1C217.7 496.601 210.3 498.201 202.4 498.201H181.8C179.2 498.201 176 499.801 173.3 499.301C164.3 496.701 154.8 498.201 145.8 498.201C136.8 498.201 143.2 497.101 142.6 496.101C141.5 494.501 141.5 492.901 140.5 491.301C140 490.201 137.9 489.701 136.8 489.701C135.7 489.701 135.2 491.801 134.7 492.901C134.7 494.001 134.7 495.001 135.8 496.601C135.8 497.101 135.8 498.201 136.3 498.701C135.8 498.701 135.2 497.601 134.7 497.101C133.1 495.501 131.5 493.901 129.9 492.301C127.3 494.901 125.1 492.301 122.5 491.801C120.9 491.801 119.3 491.301 121.4 489.201C122.5 487.601 123 485.001 120.3 485.001C115.5 485.001 115.5 483.401 117.1 480.201C117.1 479.701 117.1 478.601 117.6 478.101C118.1 470.701 118.7 462.801 119.7 455.401C121.3 444.801 118.6 435.301 112.3 426.901C108.6 422.101 103.3 418.401 96.5002 421.101C92.8002 422.701 89.1002 425.301 85.4002 427.401C84.3002 427.901 83.3002 428.501 82.2002 428.501C81.1002 428.501 78.5002 428.001 78.5002 428.501C77.4002 430.601 75.3002 433.801 75.9002 434.801C78.5002 440.101 75.9002 443.301 72.7002 446.901C71.6002 448.001 71.1002 449.001 71.1002 450.601C68.5002 462.701 67.9002 474.901 71.1002 486.501C73.7002 495.501 76.9002 503.901 81.1002 512.401C85.3002 520.301 91.7002 526.701 96.4002 534.101C102.7 544.101 111.7 551.501 120.7 558.401C137.6 571.101 154.5 583.201 174 591.701C185.1 597.001 196.2 601.701 207.3 607.501C211 609.101 217.3 609.601 213.1 616.501C212 621.801 211.5 626.501 210.5 631.801C206.3 651.301 201.5 671.401 197.3 691.001C195.2 700.501 193.1 710.501 190.4 720.101C190.4 721.701 190.4 724.901 186.7 723.301C184.6 722.801 181.9 724.901 179.8 725.401C181.4 727.001 183 728.601 185.1 730.201C185.1 730.201 186.2 730.701 186.7 730.701C195.2 729.601 204.1 729.101 212.6 728.101H214.2C216.8 726.501 217.4 724.401 214.7 722.301C211 719.101 209.9 714.901 213.1 710.201C213.6 709.101 214.7 708.101 215.2 706.501C225.2 687.001 235.3 667.401 244.8 647.901C247.4 642.601 249.6 637.301 252.2 632.101C254.8 626.901 254.3 629.501 255.9 629.501C266.5 630.001 277 630.601 287.1 631.601C294.5 632.701 301.9 635.301 309.3 636.401C323 639.001 336.8 641.201 350.5 643.301C354.2 643.801 356.8 645.401 358.4 649.101C362.6 656.501 367.4 663.901 371.6 671.301C372.7 672.901 374.2 675.001 371.6 677.101C370 678.201 370.5 679.701 373.2 681.301C381.7 685.501 390.6 682.401 399.6 682.401C408.6 682.401 404.4 680.801 402.8 678.201C400.7 675.601 402.8 674.501 403.9 672.901C408.7 666.601 413.4 660.201 418.7 653.901C419.8 652.301 421.9 651.301 424 651.301C429.3 651.301 434.6 651.801 439.8 651.801H483.6C486.8 651.801 488.9 652.901 490.5 655.501C494.2 660.801 497.9 665.501 502.1 670.301C511.6 681.901 521.6 693.501 531.2 704.601C540.7 716.201 550.7 727.801 559.7 740.001C562.3 743.701 567.6 746.301 567.1 752.101C567.1 753.201 568.7 754.201 570.3 754.701C581.9 758.401 593.5 756.301 604.6 754.701C605.7 754.701 606.7 752.601 608.3 751.501C607.2 750.401 606.2 748.901 605.1 748.301C602.5 747.201 602.5 746.201 603.5 744.101C606.7 737.201 609.3 729.801 612 723.001C616.2 711.901 621 700.801 625.2 689.201C627.3 683.401 629.4 678.101 631.5 672.301C632.6 669.701 633.6 667.001 634.7 664.401V663.901C634.7 663.401 634.7 662.801 635.2 661.801V661.301C635.2 660.801 635.2 660.201 635.7 659.201C635.7 658.101 636.8 657.101 636.8 656.601C636.8 656.101 636.8 655.501 637.3 655.001V653.401C637.3 652.301 637.3 651.801 637.8 651.301C637.8 650.801 638.3 650.201 638.3 649.701V647.601C639.4 643.901 640.9 640.201 643.1 636.501C643.1 635.401 644.7 633.901 645.7 633.901C646.7 633.901 648.9 635.001 649.4 635.501C660.5 651.901 671.6 668.801 682.7 685.201C684.3 687.801 685.9 690.501 681.1 691.001C680 691.001 679 693.101 678.5 694.201C678.5 694.201 680.1 696.301 680.6 696.301C690.6 700.001 701.2 700.001 711.2 697.401C712.3 697.401 713.3 695.301 714.4 694.801C713.3 693.701 712.3 692.201 711.2 691.601C707.5 690.501 707 689.001 707 685.301V628.301C707 626.701 708.1 625.101 708.6 623.501C710.2 624.601 711.8 625.101 713.4 626.101C713.9 626.101 713.9 627.701 714.5 628.201C720.3 635.601 825.4 734.901 828.6 731.701C831.8 728.501 834.4 725.401 836 721.101C837.1 718.501 838.6 714.201 837.6 712.101C835.5 707.301 835 704.201 838.7 700.001C842.4 695.801 840.3 690.001 834.5 689.401C829.2 688.901 823.9 688.901 818.7 688.301C817.6 688.301 815 687.801 815 687.201C815 685.601 815 683.501 816.1 681.901C816.1 681.401 817.2 680.801 817.7 680.301C819.8 677.701 821.4 674.501 819.3 671.801C817.7 670.201 814.5 669.201 812.4 669.201H800.8C795.134 668.868 793.734 666.034 796.6 660.701C796.6 660.201 797.7 659.601 797.7 659.101C797.7 657.001 798.8 653.801 797.7 652.801C796.6 651.201 793.5 650.701 791.4 650.701C787.7 650.701 784 651.801 780.8 652.301C779.2 652.301 776 652.301 775.5 651.201C774.4 649.601 775 647.001 775.5 644.901C776 642.801 778.1 641.201 778.7 639.601C779.2 637.501 780.3 633.801 779.2 632.701C778.1 631.101 774.4 630.101 772.3 630.601C767.5 631.101 763.3 632.701 758.6 633.801H753.3C753.3 631.701 752.8 629.601 753.3 628.001C754.4 624.801 756.5 622.201 758.1 619.501C760.7 613.701 759.2 611.001 752.8 611.001H732.2C729 609.901 725.9 608.901 723.2 607.801C722.1 607.801 721.1 606.201 720 605.701C720.5 605.201 721.1 604.101 722.1 603.601L723.2 602.001V601.601ZM835.2 481.201C834.1 479.601 832 478.601 832 477.001C831.5 472.801 830.9 468.001 830.9 463.301H831.4C831.4 459.101 830.3 454.801 830.3 450.601C830.3 446.401 832.4 443.701 836.6 443.701C840.8 443.701 842.9 445.801 842.9 450.601C842.9 455.401 844 456.901 843.4 460.101C843.4 462.201 841.8 464.301 841.3 465.901C841.3 467.001 840.2 468.501 840.2 469.601C840.2 471.701 840.7 474.401 840.2 475.901C839.7 477.501 837 479.101 836 480.101L834.9 481.201H835.2ZM93.0002 468.001C93.5002 470.101 94.1002 472.801 93.0002 474.901C91.9002 479.101 94.6002 482.301 96.2002 485.501C96.2002 486.601 96.7002 487.601 97.3002 488.101H94.1002C90.4002 488.101 83.5002 482.801 83.0002 479.101C81.4002 473.301 80.4002 467.501 78.8002 460.101C80.4002 454.801 81.4002 448.501 84.1002 443.201C85.7002 440.001 89.4002 437.901 92.6002 435.801C95.8002 433.701 97.9002 435.801 97.9002 438.401C97.9002 444.201 100.5 450.501 96.8002 456.401C96.3002 457.501 95.7002 458.501 94.7002 459.001C90.5002 461.101 91.5002 463.801 92.1002 467.501L93.2002 468.001H93.0002ZM107.3 484.901C106.2 486.001 105.2 486.501 104.7 487.001C104.7 485.901 104.2 484.901 104.2 483.801C104.2 478.001 103.7 471.701 103.1 465.801C103.1 464.701 104.2 463.201 105.2 462.101C106.8 461.001 107.3 462.101 107.8 463.701H110.4C111.5 463.701 112.5 464.201 112.5 464.201C113 472.701 112.5 479.001 107.7 484.801H107.2L107.3 484.901ZM813.5 505.001C814.6 503.901 815.6 503.401 816.7 502.901C816.7 502.901 817.8 502.901 818.8 503.401L815.1 507.101C815.1 506.601 813.5 505.001 814 505.001H813.5ZM209.8 553.601C201.9 551.501 193.4 549.901 187.6 543.001C185 539.301 182.3 535.601 180.2 531.901C178.6 529.801 177 527.701 175.4 525.001V521.301C177 521.301 178.6 521.301 179.6 522.401C183.8 526.101 188.1 529.801 192.3 534.001C194.4 535.601 195.5 538.201 197.6 539.801C201.8 544.001 206.6 547.701 211.3 551.401C211.3 551.401 212.4 551.901 213.9 553.001C212.3 553.501 211.3 554.101 210.2 554.101L209.7 553.601H209.8ZM239.4 632.801C233.1 644.401 227.3 656.001 220.9 667.701C220.4 669.301 219.8 670.301 218.8 671.901C217.7 673.001 216.7 674.001 215.6 675.101C215.6 673.501 214.5 672.501 214.5 671.401C216.1 664.001 217.7 656.601 219.3 649.701C220.9 642.801 221.9 635.401 223 628.601C223.5 626.001 224.1 623.301 228.3 624.901C231.5 626.001 234.6 626.001 237.8 627.001C242 628.101 240.4 630.701 239.4 632.801ZM405.7 653.401C400.9 660.301 395.7 666.601 390.4 673.501C387.8 676.701 385.1 676.101 383 673.501C378.2 666.101 373.5 658.701 368.7 651.301C368.7 650.801 367.6 649.201 368.2 648.701C368.8 648.201 370.3 647.601 371.4 647.101V648.201C382.5 649.301 393.6 650.801 405.2 651.901C405.2 651.901 406.3 653.501 406.3 654.001L405.8 653.501L405.7 653.401ZM629.7 638.101C623.4 653.401 617 668.701 610.7 684.101C602.8 703.601 594.9 723.701 586.4 743.301C585.9 744.901 582.7 746.501 580.1 746.501C577.5 746.501 575.9 745.401 574.8 743.901C571.6 739.101 569 733.901 565.3 729.101C555.8 717.501 546.3 705.901 536.8 694.201C534.2 691.001 531.5 687.301 529.4 684.201C528.3 682.601 526.8 681.001 525.7 679.401C524.6 678.301 523.6 676.801 522 675.701C522 675.701 520.9 675.201 520.9 674.601C520.9 674.001 520.4 673.001 519.8 672.501C519.8 672.501 518.7 672.001 518.2 671.401C517.1 670.901 516.6 669.801 515.6 668.801C515.1 667.701 514 666.701 513.5 666.201C513.5 665.701 512.4 664.601 511.9 664.101C511.9 663.601 510.8 663.001 510.3 662.501C510.3 662.001 509.2 661.401 509.2 660.401C509.2 659.901 508.1 658.801 507.6 658.301C506.5 657.201 505.5 656.201 505 654.601C505 654.601 504.5 654.101 504.5 653.501V653.001V652.501H514.5C517.7 652.501 520.3 652.001 523.5 651.401C529.3 650.901 535.6 650.301 541.5 649.301H543.1C555.2 647.701 567.9 646.701 580.1 644.501C595.4 641.901 610.2 638.701 625.5 636.001H629.7C630.2 637.601 630.2 639.201 629.7 640.801V638.201V638.101ZM697.3 674.501C697.3 675.601 696.2 677.101 695.7 678.701C694.6 678.201 692.5 677.601 692 676.601C682 661.801 671.4 647.501 661.4 632.801C659.8 630.201 659.3 628.001 664 628.001C673.5 626.901 683.5 625.901 693.1 624.301C696.8 624.301 697.9 625.401 697.9 628.501V638.501C697.9 644.801 696.8 651.701 696.8 658.001C696.8 664.301 697.3 668.601 697.3 673.801V674.301V674.501ZM720 532.401C715.2 530.801 710 532.401 706.3 528.701C706.3 528.701 703.7 530.301 702.6 531.301C702.1 531.801 701.5 532.901 700.5 533.901C698.9 532.801 695.2 533.901 696.3 530.201L694.2 528.601C691 532.301 686.8 531.201 682.6 531.801C681.5 531.801 680.5 531.801 679.4 532.901C677.8 534.001 676.8 534.001 674.6 532.901C672 530.801 668.8 531.801 666.1 534.001C665.6 534.001 664.5 535.101 664 535.101V533.001C664 531.901 664 529.301 663.5 529.301C661.9 528.801 659.8 528.801 657.7 529.301C655.6 529.301 654.5 531.901 652.4 529.301C652.4 529.301 650.3 529.301 649.2 530.401C644.4 533.601 642.9 533.601 639.2 529.901C638.1 529.401 637.1 528.801 636 528.301C634.4 532.001 630.2 530.901 628.1 533.101C626 534.701 625.5 534.201 624.9 533.101C622.8 530.501 621.2 528.901 618 532.601C615.4 535.801 607.4 535.201 604.8 532.101C603.2 530.001 602.2 531.001 601.6 532.101C600 536.301 597.4 537.401 593.1 536.301C591.5 536.301 588.3 537.401 586.8 538.901C584.2 541.501 581.5 541.501 578.3 538.901C578.3 538.901 578.3 538.401 577.8 538.401C573.6 539.501 570.9 536.801 567.2 535.201C567.2 535.201 564.6 536.801 564.6 537.801C564.1 542.601 563.5 542.601 559.3 540.401H557.7C555.1 540.401 555.6 539.301 557.2 537.801C557.7 536.701 558.3 535.701 558.3 534.601C557.2 534.601 555.1 534.601 554.6 535.701C553 537.301 553 538.301 550.9 535.701C548.8 533.601 544.6 534.101 541.4 533.101V536.301C541.4 537.401 543 537.901 543 538.401C543 539.501 543 540.501 542.5 541.601H540.9C539.3 536.801 535.6 540.001 532.4 539.501C528.2 539.001 523.4 538.401 519.2 537.401C516 536.901 514.4 536.901 514.4 540.601C514.4 544.301 513.3 541.701 513.3 542.701C513.3 542.201 512.2 541.601 512.2 541.101C511.7 536.901 508.5 537.401 505.9 538.501C504.8 538.501 503.3 539.601 502.2 540.601C501.1 540.601 500.6 541.701 499.6 542.201V539.601C499.6 538.001 498.5 537.001 498 535.401C496.9 535.901 494.8 536.501 494.3 538.001C493.2 540.601 491.7 539.601 491.1 538.001C489 532.201 483.7 533.201 479 532.701C479 532.701 477.4 534.301 477.4 535.301C477.4 538.501 475.8 541.101 472.6 540.601C470 540.601 466.3 541.101 466.3 536.401C466.3 531.701 465.2 534.801 464.2 534.301H462.1C458.9 529.001 457.9 532.701 456.3 535.901C455.2 538.501 453.7 537.501 452.6 535.901C441 520.101 424.1 514.201 405.6 510.001C389.8 506.301 373.4 506.301 357.5 506.801C343.2 506.801 329.5 510.001 316.3 515.801C310.5 517.901 306.3 523.201 301 526.901C299.4 528.001 298.4 528.501 296.8 529.501C294.7 530.601 293.1 531.101 292.6 527.401C292.6 526.901 291 526.301 290.5 525.301C288.4 528.501 286.8 525.301 284.7 525.301C281 525.301 279.9 524.201 279.9 520.501C279.9 516.801 276.2 518.901 274.1 518.901C272 518.901 271.5 520.501 269.9 521.001C271 522.101 271.5 523.101 272.5 524.701C273 525.801 273.6 526.801 274.1 527.301H270.9C270.4 527.301 269.8 526.801 269.3 526.801C266.1 526.801 267.2 518.301 260.8 522.601C258.7 523.701 253.9 520.501 250.2 518.901C246.5 517.301 242.8 515.701 239.1 514.701C235.4 513.601 231.7 512.601 228 511.501C223.8 510.401 219.5 509.901 215.3 509.401C204.7 509.401 193.6 508.901 183.1 508.301C182.6 508.301 182 508.301 181.5 507.801C181.5 507.801 182.6 506.701 183.1 506.701H185.7C194.2 506.701 278.7 505.101 299.3 504.601C314.1 504.601 328.4 504.101 343.1 503.501C359.5 503.501 375.8 503.001 392.2 502.401C406.5 502.401 420.2 501.901 434.5 501.301C474.1 501.301 514.3 500.801 553.9 500.201C565.5 500.201 577.1 500.701 589.3 501.301C594.6 501.301 600.4 500.201 605.7 500.201C627.4 500.201 648.5 500.701 670.1 501.301C683.8 501.301 697.6 501.801 711.3 502.401C735.6 502.401 760.4 502.901 784.7 503.501C791 503.501 796.8 503.501 803.2 504.601C804.8 504.601 805.8 508.301 806.9 509.901C806.9 509.901 805.3 511.501 804.3 512.001C803.8 512.501 802.7 513.101 802.7 513.601C802.7 517.801 799.5 517.801 796.4 517.801C793.3 517.801 791.6 518.901 789.5 520.401C787.9 521.501 786.3 523.001 785.3 519.901C785.3 518.801 782.7 517.801 781.6 518.301C780.5 518.301 779 519.901 778.4 520.901C777.3 526.201 775.2 526.701 771.5 523.001C767.8 519.301 767.3 520.901 764.6 520.401C763.5 520.401 762 520.401 762 520.901C762 524.101 759.4 525.101 757.8 527.201C755.7 530.401 754.1 529.301 750.9 529.301C744.6 529.301 738.8 529.801 732.4 530.901C730.3 530.901 729.2 532.001 728.2 529.301C728.2 528.201 725 527.701 723.4 528.201C722.9 528.201 721.8 530.801 721.8 531.901C723.4 535.601 721.8 535.601 719.2 534.501L719.7 532.401H720Z" fill="black"/>
<path d="M283.2 448.4C287.4 462.7 299 469.5 311.7 474.8C328.1 481.7 345 483.3 362.4 483.3V484.4C373 482.8 384.1 481.2 394.6 479.1C411 475.9 425.8 468.5 437.4 456.4C443.7 450.1 447.4 442.1 445.3 432.1C442.7 421 434.7 414.1 425.8 408.9C409.4 399.4 390.9 396.8 372.5 395.7C358.8 394.6 345 396.8 331.8 400.5C314.9 404.7 299.1 410.5 287.4 424.8C281.6 432.2 280 440.1 282.6 448.6H283.1L283.2 448.4ZM423.7 422C424.8 422 425.3 422.5 426.3 423.1L424.2 425.2C423.1 424.7 422.1 424.1 421 423.6C421.5 423.6 422.6 422.5 423.1 422H423.6H423.7ZM403.1 468C403.6 468 404.7 468 406.3 469.1C404.7 469.1 404.2 469.6 403.7 469.6C393.7 473.8 383.1 475.4 373.1 476.5C373.1 476.5 372 476.5 371.5 476C371.5 476 372 474.4 372.6 474.4C378.4 472.3 384.2 470.2 390 469.1C394.2 468 399 468 403.2 468H403.1ZM332.3 419.4C332.3 419.4 333.4 418.9 333.4 418.3C332.3 410.4 339.2 412 342.9 411.4C349.2 410.3 355.6 410.3 364 409.8C368.8 410.3 375.6 411.9 383 413C383.5 413 384.1 413.5 385.1 414.1H380.9C378.3 416.2 375.1 417.8 373 420.4C369.8 423.6 367.7 423.6 364 421.5C362.9 421 361.4 421.5 360.3 422C358.7 422.5 357.7 423.6 356.1 424.1C355 424.1 354 424.1 352.9 423.6C354 423.6 355 423.6 355.5 422.5C356.6 421.4 357.6 420.4 358.1 419.3C358.1 418.8 357 417.7 356 416.7C354.9 417.8 353.9 418.3 353.4 419.3C352.3 421.9 348.1 423 346 420.9C342.8 418.3 341.2 418.3 337.5 422.5C336.4 423.6 335.4 424.1 334.3 424.6V421.4C334.3 420.9 333.8 420.3 333.2 419.8V419.3H332.1L332.3 419.4ZM320.2 417.8C320.7 417.8 321.3 418.9 321.8 419.4C322.3 419.4 322.9 419.9 323.4 420.5C322.3 421 321.8 421.6 320.8 422.1C320.8 422.1 319.2 421.6 319.2 421V417.8H320.3H320.2ZM313.3 466.9C317.5 468 321.8 469.5 326 471.1L327.1 472.2C326.6 472.2 326 472.7 325.5 472.7C321.3 471.1 317 470.1 312.8 468.5C312.3 468.5 311.7 467.4 311.2 467.4C311.7 467.4 312.8 466.9 313.3 466.9Z" fill="black"/>
<path d="M482.3 441.6C484.9 456.9 496.6 464.8 509.2 470.7C527.2 479.7 546.2 482.3 566.2 482.8C571.5 482.8 576.8 481.7 582 481.7C597.3 480.6 612.1 476.9 625.8 469C635.8 463.2 642.2 455.3 645.9 444.7C646.4 442.6 647 439.9 646.4 437.8C643.8 423 633.2 414.6 620.5 408.2C602 398.7 582.5 395.5 561.9 395.5C541.3 395.5 540.8 397.1 530.2 399.2C514.9 401.8 500.1 407.1 489.5 419.8C484.2 426.1 481 433.5 482.6 442L482.1 441.5L482.3 441.6ZM535.7 472.7C534.6 472.7 533.6 472.2 533.1 471.6C534.2 471.1 534.7 470.5 536.3 469.5L538.4 471.6C537.3 471.6 536.8 472.7 535.8 472.7H535.7ZM620.2 464.3C617 465.9 613.3 468 609.6 469.6C605.4 469.6 605.4 467.5 605.4 464.3C605.4 458.5 607.5 458 612.3 460.6C614.4 461.7 617.1 461.7 619.2 462.7C619.2 462.7 619.7 464.3 619.7 464.8L620.2 464.3ZM504 417.8C510.3 413.6 517.2 410.9 525.1 409.9C529.3 409.4 533.6 407.3 537.8 406.2C542.6 405.1 547.3 405.1 552.6 404.6V404.1C562.6 405.7 572.7 408.3 583.2 409.4C591.7 409.9 599 412 606.4 415.7C608.5 416.8 610.1 417.8 611.7 418.9C612.8 419.4 613.3 420.5 614.3 421.5H610.1C607.5 421.5 604.3 420.4 601.6 419.9C601.1 419.9 600 418.8 599.5 418.3C598.4 415.1 596.9 414.6 594.2 416.7C593.1 417.8 591 418.8 590 418.3C585.8 416.2 581.5 418.3 577.3 417.8H574.7C573.1 413 568.4 414.1 565.2 413C564.1 413 562 413 561.5 414.1C560.4 415.2 560.4 417.3 563.1 417.3C563.1 418.4 563.1 419.9 562.6 420.5C560 421.6 557.3 422.1 554.7 422.6C553.6 422.6 552.6 422.1 551.5 421.5H550.4C547.2 425.2 540.9 427.3 536.1 425.7C534 425.2 532.9 424.1 531.9 426.8C531.9 427.9 528.7 427.9 527.1 428.4H519.7C515.5 429.5 506 426.8 503.3 423.6C501.7 422 501.7 421 503.3 419.9L503.8 417.8H504Z" fill="black"/>
<path d="M738 485.401C740.6 485.401 742.8 484.901 745.4 484.301C759.1 481.701 772.3 478.001 781.3 465.301C790.8 452.101 792.9 436.801 780.2 423.601C764.4 407.201 744.3 400.901 722.1 401.901C710 402.401 698.9 406.101 688.8 413.501C679.3 419.801 676.1 429.301 675.1 439.401C674 448.901 678.8 457.401 685.7 464.201C700 478.501 718.4 482.701 737.5 484.801L738 485.301V485.401ZM763.3 427.801C765.4 429.901 767.5 432.001 769.6 434.101C769.1 434.601 768 435.701 767 436.701C764.4 435.101 762.2 434.101 760.1 431.901C760.1 431.901 761.7 428.701 762.7 427.101L763.2 427.601L763.3 427.801ZM751.2 422.001C752.8 422.001 754.9 423.101 756.5 423.601C757.6 424.101 758.6 425.201 759.7 426.201C758.1 426.201 757.1 427.301 754.9 427.801C753.3 426.201 751.2 424.601 749.1 423.001C749.6 423.001 750.7 421.401 751.2 421.901V422.001ZM743.3 475.401C745.9 472.201 749.1 469.101 751.8 465.901C751.8 465.901 752.3 464.801 752.9 464.301C760.8 460.101 768.7 456.401 776.7 452.701C776.7 452.701 778.3 453.801 778.8 454.301C778.3 461.201 773.5 463.801 769.8 467.001C762.4 472.801 753.4 476.501 743.9 477.601H741.3C741.8 477.101 742.4 476.001 742.9 475.501H743.4L743.3 475.401Z" fill="black"/>
<path d="M137.9 455.3C139 464.3 143.7 471.7 150 476.4C161.6 486.4 175.9 489.6 191.7 490.7C198 489.6 203.8 488.6 210.2 487C227.6 482.8 240.8 474.3 249.3 457.9C255.6 445.8 252.5 430.4 242.4 420.9C231.8 411.4 218.6 407.2 204.9 406.6C189.1 406.1 174.3 409.2 160.5 417.2C146.8 425.1 136.7 436.7 138.8 454.7L137.7 455.2L137.9 455.3ZM169.6 471.2C172.8 468.6 176.5 465.9 180.2 464.9C195 460.1 209.8 461.2 223.5 469.7C227.2 471.8 227.2 472.9 223.5 475C212.9 480.3 204 482.4 188.6 482.9C183.3 482.9 178.6 482.4 173.3 481.3C167.5 480.8 165.4 475.5 169.6 471.3V471.2Z" fill="black"/>
<path d="M443.8 273.6C442.2 278.4 442.2 278.9 447.5 278.9C459.6 278.9 472.3 279.4 484.5 280H488.7C487.6 278.4 487.1 276.8 486.1 275.2C485.6 274.7 484 274.1 482.9 274.1C477.6 274.1 477.1 273.6 478.1 268.8C478.1 266.7 479.2 264 480.7 262.5C483.9 259.3 482.8 256.2 480.7 253.5C475.4 248.7 469.6 245.6 461.7 245C456.4 246.6 451.7 247.6 446.9 249.8C440.6 253 439.5 258.8 443.2 264.6C444.8 267.2 445.3 270.9 444.8 274.1L443.7 273.6H443.8Z" fill="black"/>
<path d="M82.5002 426.301C83.6002 425.801 84.1002 425.201 85.1002 424.701C89.9002 419.401 94.1002 414.701 98.8002 409.401C99.3002 408.901 99.9002 407.801 100.4 407.301C103 402.001 104.1 396.701 108.9 392.501C115.2 387.201 120 380.401 125.8 374.001C126.9 372.901 127.9 372.901 129 371.901C130.1 371.401 132.2 370.801 132.2 369.801C133.3 366.101 137 365.601 139.6 364.001C145.4 360.301 151.7 356.101 157.6 352.401C158.7 351.901 158.7 349.801 159.2 348.701C158.1 348.701 156.6 348.201 155.5 348.701C151.8 350.801 148.1 353.501 144.9 355.601C141.7 357.701 138 359.301 134.9 361.901C131.8 364.501 129.1 368.801 125.4 370.401C116.9 374.101 112.2 381.501 105.9 387.801C100.6 392.601 96.9002 398.901 92.7002 404.701C88.5002 410.501 84.8002 416.801 81.1002 423.201C80.6002 424.301 81.1002 425.801 81.1002 427.401H82.7002V426.301H82.5002Z" fill="black"/>
<path d="M389.9 284.699C395.2 284.699 399.9 284.199 405.2 283.599C408.4 283.599 411.5 283.099 414.2 282.499C417.9 282.499 421.6 281.999 425.8 281.399C428.4 281.399 431.6 281.399 434.3 280.299C434.8 280.299 435.9 278.199 435.9 277.099C435.9 275.999 434.8 275.499 433.8 275.499C432.2 275.499 430.6 274.399 429 274.999C424.2 275.499 414.7 277.099 414.2 276.599C404.7 277.099 395.2 277.699 385.7 278.699C378.8 279.199 371.4 280.799 364.6 282.399C363.5 282.399 362.5 283.999 361.4 284.999C363 286.099 364 287.599 365.6 287.599C374.1 287.099 382 285.999 390.4 284.999L389.9 284.499V284.699Z" fill="black"/>
<path d="M493.4 276.3C494.5 277.4 496.6 279.5 497.1 278.9C498.7 278.9 500.8 276.8 500.8 275.2C501.3 272 500.8 268.9 500.8 265.7C500.8 262.5 500.8 262 502.4 262C505.6 260.4 508.7 259.4 512.4 258.8C516.6 258.8 517.7 256.7 518.2 251.9C517.7 251.4 516.6 249.8 515.6 249.3C508.2 246.7 500.8 249.8 493.9 251.9C492.3 251.9 491.3 256.1 491.3 258.2C491.3 263 492.4 267.7 492.9 272.5C492.9 274.1 492.9 275.7 494 276.2H493.5L493.4 276.3Z" fill="black"/>
<path d="M548.9 262.5C549.4 267.8 550 273.6 550.5 278.9C550.5 280 553.1 281.5 553.7 281.5C555.3 281 556.9 279.4 556.9 277.8V267.8C556.9 264.6 559 262.5 562.2 262.5C565.4 262.5 567.5 262.5 570.7 263C571.8 263 573.9 263 574.4 262.5C576 260.4 576.5 258.3 577.6 255.6C575.5 254.5 573.4 253 571.8 253C564.9 254.1 558.1 255.1 551.2 256.7C549.6 256.7 548 262.5 549.1 262.5H548.9Z" fill="black"/>
<path d="M595.9 276.8V283.1C595.9 284.7 597.5 285.7 598.5 287.3C599.6 285.7 601.7 284.7 602.2 283.1C602.7 281.5 602.2 278.9 602.2 277.3C602.2 273.1 602.2 270.4 607.5 271C610.7 271 614.4 271 617.5 271.5C620.1 271.5 625.4 269.4 626 266.7C627.1 262.5 622.8 263 620.7 261.4H618.1C610.7 263 602.3 264.6 594.3 266.2C593.2 266.2 591.7 268.3 591.7 269.4C591.7 270.5 592.2 272 593.3 273.6C593.8 274.7 594.9 276.2 595.4 277.3L595.9 276.8Z" fill="black"/>
<path d="M311.2 294.2C313.8 294.2 316 294.2 318.6 293.7C321.8 293.7 324.4 292.1 327.6 291.6C332.9 291.1 338.7 290.5 344 290C346.6 290 349.8 288.9 352.5 288.4C352.5 288.4 357.3 287.3 358.8 286.3C356.7 285.2 354.6 284.2 351.9 282.6H350.3C343.4 284.7 337.1 285.8 329.7 285.8C322.3 285.8 317 287.9 310.7 289.5C310.2 289.5 309.1 291.1 309.1 291.6C309.1 292.7 310.2 293.7 310.7 293.7L311.2 294.2Z" fill="black"/>
<path d="M165.9 346.5C170.1 344.4 174.4 341.7 179.1 339.6C182.3 338 186 336.4 189.1 334.8C190.2 334.8 190.7 333.2 191.2 333.2C191.2 329.5 189.6 329.5 187 330.6C179.1 334.8 170.6 338.5 162.7 342.7C161.6 342.7 161.6 345.3 161.1 346.9H165.9V346.4V346.5Z" fill="black"/>
<path d="M710 321.7C715.8 324.9 722.1 327.5 728 330.2C729.6 330.7 731.2 331.3 732.8 331.8C732.8 331.8 734.4 329.7 733.9 329.2C732.8 327.6 731.8 326 730.7 325.5C727 323.4 722.8 322.3 718.6 320.2C715.4 319.1 712.8 317.6 708.6 316C708.6 316.5 707 317.6 707 318.6C707 319.6 708.6 321.2 709.6 321.8H710.1L710 321.7Z" fill="black"/>
<path d="M529.9 283.1H545.7C546.8 283.1 547.8 281.5 548.9 280.5C547.8 279.4 547.3 278.4 546.3 278.4C541 278.4 535.2 277.9 529.9 277.9C524.6 277.9 527.8 279.5 527.3 281.1C527.3 281.6 528.9 283.2 529.9 283.7V283.2V283.1Z" fill="black"/>
<path d="M279 302.7C282.2 301.6 284.8 301.1 287.5 300.1C288.6 300.1 288.6 298 289.1 296.9C288 296.9 287 295.8 286.5 296.4C284.4 296.4 282.3 296.9 280.2 297.5C278.1 297.5 276 297.5 276.5 300.7C276.5 301.8 278.6 302.3 279.7 303.3L279.2 302.8L279 302.7Z" fill="black"/>
<path d="M626.5 295.799C629.1 297.399 632.3 297.899 635.5 298.999C636.6 298.999 637.6 298.499 638.1 297.899V295.299C634.9 294.199 631.2 293.199 627.5 293.199C623.8 293.199 624.9 295.799 627.5 296.899L626.4 295.799H626.5Z" fill="black"/>
<path d="M198.7 331.201C201.3 330.101 204 329.101 206.1 328.001C206.6 328.001 207.2 325.901 207.2 325.401C207.2 324.901 205.6 324.301 205.1 323.801C201.9 324.901 199.3 325.901 196.6 327.001C196.6 327.001 196.1 329.101 196.6 329.601C196.6 330.101 198.7 331.201 199.2 330.701L198.7 331.201Z" fill="black"/>
<path d="M790.3 515C791.9 515 793.5 513.4 793.5 511.8C793.5 510.2 791.9 508.6 790.3 508.6C788.7 508.6 787.1 510.2 787.1 511.8C787.1 513.4 788.7 515 790.3 515Z" fill="black"/>
<path d="M801.9 374C803.5 374 805.1 372.4 805.1 370.8C805.1 369.2 803.5 367.6 801.9 367.6C800.3 367.6 798.7 369.2 798.7 370.8C798.7 372.4 800.3 374 801.9 374Z" fill="black"/>
<path d="M775.5 355.5C777.268 355.5 778.7 354.067 778.7 352.3C778.7 350.532 777.268 349.1 775.5 349.1C773.733 349.1 772.3 350.532 772.3 352.3C772.3 354.067 773.733 355.5 775.5 355.5Z" fill="black"/>
<path d="M739.6 335.4C741.2 335.4 742.8 333.8 742.8 332.2C742.8 330.6 741.2 329 739.6 329C738 329 736.4 330.6 736.4 332.2C736.4 333.8 738 335.4 739.6 335.4Z" fill="black"/>
<path d="M701.5 319C703.1 319 704.7 317.4 704.7 315.8C704.7 314.2 703.1 312.6 701.5 312.6C699.9 312.6 698.3 314.2 698.3 315.8C698.3 317.4 699.9 319 701.5 319Z" fill="black"/>
<path d="M220.3 322.2C221.46 322.2 222.4 321.26 222.4 320.1C222.4 318.94 221.46 318 220.3 318C219.14 318 218.2 318.94 218.2 320.1C218.2 321.26 219.14 322.2 220.3 322.2Z" fill="black"/>
<path d="M254.7 309.501C255.8 309.501 256.8 308.401 256.8 307.401C256.8 306.401 255.7 305.301 254.7 305.301C253.7 305.301 252.6 306.401 252.6 307.401C252.6 308.401 253.7 309.501 254.7 309.501Z" fill="black"/>
<path d="M266.8 305.3C267.9 305.3 268.9 304.2 268.9 303.2C268.9 302.2 267.8 301.1 266.8 301.1C265.8 301.1 264.7 302.2 264.7 303.2C264.7 304.2 265.8 305.3 266.8 305.3Z" fill="black"/>
<path d="M300.6 297.401C301.7 296.901 302.2 295.301 301.7 294.201C301.2 293.101 299.6 292.601 298.5 293.101C297.4 293.601 296.9 295.201 297.4 296.301C297.9 297.401 299.5 297.901 300.6 297.401Z" fill="black"/>
<path d="M519.3 282.6C520.46 282.6 521.4 281.66 521.4 280.5C521.4 279.341 520.46 278.4 519.3 278.4C518.14 278.4 517.2 279.341 517.2 280.5C517.2 281.66 518.14 282.6 519.3 282.6Z" fill="black"/>
<path d="M586.4 285.7C587.56 285.7 588.5 284.76 588.5 283.6C588.5 282.44 587.56 281.5 586.4 281.5C585.241 281.5 584.3 282.44 584.3 283.6C584.3 284.76 585.241 285.7 586.4 285.7Z" fill="black"/>
<path d="M126.8 485.901C126.8 487.001 126.8 488.501 127.9 489.101C129 489.101 130.5 489.101 131.1 488.001C131.1 486.901 131.1 485.401 130 484.801C128.9 484.801 127.4 484.801 126.8 485.901Z" fill="black"/>
<path d="M688.9 178.5C693.1 172.7 696.8 166.9 701 161.1C702.1 159.5 703.1 157.4 704.7 156.3C710 152.6 712.6 147.8 713.7 141.5C713.7 140.4 714.2 139.9 714.8 138.9C717.4 132.6 719 131 723.8 131C728.6 131 734.9 133.6 736.5 138.9C739.7 150 742.3 161.1 745 172.2C746.1 177 747.6 181.2 748.7 185.9C749.2 191.7 749.8 197.5 749.8 203.3C749.8 212.8 752.4 215.4 761.9 216C771.9 217.1 782.5 218.1 792.5 219.7C805.2 221.3 809.9 230.8 806.2 242.9C803.6 251.4 799.9 258.2 793.5 264C785.6 270.9 778.2 278.8 770.3 285.7C764.5 290.5 762.4 296.8 763.4 303.7C765 320.1 766.6 336.4 767.6 352.8C767.6 358.1 767.6 363.9 767.1 369.7C765.5 376.6 760.8 379.7 753.9 377.6C745.4 375.5 737.5 370.7 731.2 364.4C723.8 356.5 716.9 347.5 710.1 339C706.4 334.2 702.7 330 699 325.3C695.8 321.6 692.7 321.1 687.9 323.7C682.1 327.4 676.3 330.6 670.5 334.3C664.7 338 658.4 341.7 652.5 345.4C645.1 350.2 636.7 353.9 629.8 359.1C618.7 367 607.6 358 607.1 347.5C607.1 342.7 607.1 337.5 608.2 332.7C610.3 323.7 612.4 314.7 616.1 306.3C619.8 297.9 624.6 289.4 629.3 280.9C630.4 279.3 631.4 277.2 632.5 275.6C634.1 273 634.1 270.3 632.5 267.7C625.1 255.6 618.2 243.4 611.4 230.7C607.7 224.4 605.1 217.5 605.6 209.6C605.6 208 605.1 207 604.5 205.4C601.9 194.8 605.6 188.5 616.1 186.9H618.7C630.8 189.5 643.5 189.5 654.6 195.4C660.4 198 666.2 198 672 198.6C675.7 198.6 677.8 196.5 679.9 193.8C683.6 188.5 686.8 183.2 690.5 177.4L688.9 178.5ZM649.2 298.4C647.1 303.7 643.9 310 641.3 316.4V319H643.9C644.4 319 645 318.5 645.5 317.9C654.5 313.7 662.4 306.8 672.4 304.7H672.9C677.7 298.9 684.5 298.4 690.9 295.2C699.9 290.4 707.3 293.1 713.1 301C714.7 303.6 716.3 306.3 717.9 308.4C723.7 315.3 729.5 322.1 735.9 329C735.9 329.5 738 330.1 738 330.1C738.5 329.6 739.6 328.5 739.6 327.5V322.2C738.5 313.2 737 304.8 735.9 295.8C735.9 292.6 735.9 289.5 737 286.3C738.6 279.4 742.3 273.6 748.6 268.9C755.5 263.6 762.3 257.8 769.2 252C771.3 249.9 770.8 248.3 768.1 247.8C763.3 246.7 758.6 246.2 754.4 245.2C748.6 244.1 742.3 243.1 736.4 241C729 238.9 726.4 234.1 726.4 226.2C726.4 218.3 726.4 207.2 725.3 198.2C724.8 193.4 725.8 187.6 721.6 183.4C717.9 187.6 713.1 191.3 710.5 196.1C705.7 205.6 698.9 214.1 693.6 223C689.9 228.8 685.7 231.5 678.8 229.9C667.7 227.3 655.6 229.4 645 224.1C643.9 224.1 641.8 224.1 641.3 224.6C640.8 225.1 641.3 227.2 641.3 228.3C647.6 238.9 653.4 249.4 660.8 258.9C665.6 265.2 666.6 270.5 664.5 277.9C662.4 283.7 660.3 289.5 655.5 293.7C653.9 294.8 652.9 296.3 650.7 298.5H649.1L649.2 298.4Z" fill="black"/>
<path d="M583.7 179.099C578.9 185.399 568.9 187.599 562.6 184.899C548.3 179.099 534.1 173.799 519.8 167.999C518.2 167.499 517.2 166.399 515.6 166.899C500.3 167.999 485.5 162.099 470.2 161.599C456.5 160.499 443.3 157.399 429.5 159.999C423.7 161.099 417.4 159.499 411 159.499C404.6 159.499 394.1 159.499 385.1 159.999C374 160.499 363.4 161.099 352.4 158.899H348.2C339.2 158.899 329.7 158.399 320.7 158.399C311.7 158.399 306.4 158.899 299.6 159.499H295.4C288.5 159.499 281.1 159.999 274.3 161.099C261.6 162.699 250.5 149.499 254.8 137.299C256.4 133.599 258.5 131.499 262.7 130.999C277.5 128.899 292.3 125.199 307.6 126.199C311.8 126.199 316.1 126.199 319.7 125.099C329.7 123.499 339.2 125.099 348.8 127.699H353C364.1 124.499 375.7 127.699 386.8 126.599H388.4C402.7 131.399 417.5 127.699 432.2 127.699C446.9 127.699 470.8 126.599 489.2 131.399C497.7 133.499 505.6 135.599 514.6 135.599C523.6 135.599 524.6 138.199 529.9 139.299C545.7 143.499 561.6 146.699 574.3 158.299C577.5 160.899 580.1 164.599 582.8 168.299C586 172.499 584.9 176.799 583.3 178.899H583.8L583.7 179.099Z" fill="black"/>
<path d="M650.8 159C642.3 154.8 633.9 150.5 626 145.3C611.2 135.3 593.8 132.6 577.4 127.3C570.5 125.2 564.2 122.5 557.3 120.4C543.6 115.6 529.3 113.5 514.5 112.5C507.6 112.5 500.8 109.9 499.2 101.4C499.2 99.2996 497.6 98.7996 495.5 100.3C489.2 106.1 481.8 106.6 473.8 102.9C469 100.8 464.3 100.3 459 100.8C450 100.8 440.5 101.3 431.5 100.8C427.8 100.8 424.1 98.1996 420.4 95.9996C418.3 94.8996 416.2 91.1996 414.6 91.1996C413 91.1996 410.4 93.7996 408.3 95.3996C402.5 99.5996 395.1 98.5996 390.9 93.2996C385.1 86.3996 385.6 76.3996 392 71.0996C398.9 65.2996 409.4 66.2996 414.7 73.1996C415.2 74.2996 415.8 75.2996 416.3 76.3996C416.8 77.9996 417.9 78.9996 419.5 77.4996C426.4 70.0996 434.8 68.9996 443.8 70.0996C455.4 71.1996 467.6 72.1996 479.2 73.7996C488.2 74.8996 494.5 79.5996 497.7 88.0996C498.8 91.2996 499.8 91.2996 502.5 89.1996C508.8 83.8996 516.8 83.8996 524.2 84.3996C527.4 84.3996 530.5 84.8996 533.7 85.4996C544.3 87.5996 554.8 89.6996 565.4 93.3996C575.4 97.0996 585.5 99.6996 595.5 103.4C599.7 105 604 106.6 607.6 108.2C608.7 108.2 609.7 109.8 610.8 109.8C621.9 111.9 630.9 117.7 640.9 123C655.2 130.4 669.4 138.3 683.7 145.7C692.2 150.5 693.7 160.5 687.9 167.9C684.7 172.1 680.5 173.2 674.2 171.1C665.7 167.4 657.8 163.7 649.4 160V158.9H651L650.8 159Z" fill="black"/>
<path d="M481.8 278.4C480.2 278.9 478.1 280.5 476 281C458 284.7 439.6 285.2 421.6 285.8C412.1 285.8 402.1 285.8 392.5 288.4C380.4 291 368.2 292.6 356.6 296.9C347.6 295.3 340.2 302.7 331.2 303.2C322.7 303.7 314.8 308 306.9 311.1C304.3 312.2 301.6 313.7 299 315.3C294.8 317.4 290.5 316.9 287.4 313.7C284.2 310 279.5 306.8 281.6 301C282.7 296.8 284.8 293.6 287.9 291C295.8 284.7 305.9 282 315.4 279.4C319.6 278.3 323.9 276.2 328.1 275.2C337.1 272.6 346.1 269.4 355 266.7C359.2 265.6 363.5 265.6 367.1 264.1C376.1 260.4 385.6 259.3 395.1 259.3C404.6 259.3 401.4 259.3 404.6 258.8C409.9 257.2 415.2 256.2 421 258.3C423.1 258.8 426.8 258.8 428.9 257.8C434.7 254.1 440.5 255.7 446.3 255.7H471.1C476.9 255.7 481.7 258.3 483.8 263.6C486.4 268.9 485.9 274.2 482.2 280L481.7 278.4H481.8Z" fill="black"/>
<path d="M308 235.6C305.9 233 303.8 232.4 301.1 235.6C294.2 242.5 285.3 245.6 275.7 246.7C258.8 248.3 242.4 253.6 225.5 258.3C216 260.9 206.5 263.6 197.5 267.3C184.3 272.6 170 276.8 158.9 286.3C157.3 287.9 155.2 288.9 153.1 290.5C149.4 292.6 145.7 295.3 141.5 292.6C137.3 290 136.2 285.7 136.7 281C137.8 269.9 144.6 262.5 153.1 257.2C161.6 251.9 171.1 248.2 179.5 243.5C189 238.2 199 235 209.6 232.9C216.5 231.8 222.8 229.7 229.1 228.1C246 223.9 263.4 219.1 280.3 214.4C288.8 212.3 295.6 213.9 300.4 221.8C302 225 303 224.4 305.2 221.3C308.4 216 316.8 211.8 322.1 212.8C323.2 212.8 324.2 213.9 325.3 214.4C326.4 214.9 326.9 216.5 327.4 217C332.2 224.4 332.7 231.3 328.5 235C323.2 239.8 314.8 239.8 307.9 235V235.5L308 235.6Z" fill="black"/>
<path d="M600.1 237.7C595.9 244.6 590.1 246.7 583.7 245.1C570.5 241.9 557.8 239.3 545.1 235.6C530.8 231.4 516.6 227.7 501.8 227.1C487.5 226.6 472.7 225.5 458.5 227.6C453.7 228.1 447.4 226 442.7 223.4C438.5 220.8 435.8 216 436.9 210.7C438.5 205.4 440.1 200.7 446.4 199.6C449.6 199.6 452.7 198 455.9 198C472.3 198 488.6 196.9 505.6 196.9C522.6 196.9 519.3 197.4 525.7 199C540 202.2 553.7 206.4 567.4 210.1C571.6 211.2 575.9 212.2 580.6 212.7C586.9 213.2 592.2 215.9 597.5 219.6C604.4 223.8 604.9 225.9 601.7 233.3C601.2 234.9 600.1 236.5 600.1 237V237.5V237.7Z" fill="black"/>
<path d="M182.8 144.2C184.4 143.7 186.5 142.1 188.6 141.6C197.6 140.5 206.6 139 215 144.2C217.6 145.8 218.7 144.2 219.8 142.6C221.9 140 224 137.3 226.7 134.7C228.8 132.6 231.5 132.6 234.1 134.7C243.6 140 247.3 150 243.1 160.6C241.5 164.8 238.9 166.4 234.1 165.9C232.5 165.9 230.4 165.4 229.3 164.3C223.5 160.6 218.7 160.6 213.5 166.4C206.6 172.7 197.1 173.3 188.1 170.6C182.8 169 177.5 160.6 178.6 154.8C179.1 151.6 180.7 148.5 182.3 144.8L182.8 144.3V144.2Z" fill="black"/>
<path d="M563.7 282.599C556.8 291.599 546.8 291.599 541 282.599C539.4 279.999 537.8 278.399 535.2 280.999C531 285.199 525.2 283.599 519.9 283.599C514.6 283.599 510.4 282.499 506.2 281.999C499.9 281.999 497.2 279.899 495.1 274.099C492.5 267.799 495.1 262.499 498.8 257.699C502.5 253.999 506.7 252.899 512 255.599C517.8 258.199 523.1 260.899 529.4 259.799C534.7 259.299 537.9 262.999 539.4 268.299C539.9 270.899 541.5 270.899 542.6 268.299C545.2 263.499 549.5 263.499 554.2 264.599C559.5 265.699 563.7 268.299 565.8 273.099C567.4 276.799 565.8 279.999 563.7 282.599Z" fill="black"/>
<path d="M395.7 224.499C392 229.299 387.2 230.799 382 231.899C376.2 233.499 369.9 235.099 364 236.099C352.9 238.699 343.9 233.499 340.2 222.899C337.6 215.499 341.3 207.599 349.7 207.599C358.1 207.599 370.3 204.999 379.8 201.799C384.6 200.199 391.9 204.399 395.1 209.199C399.3 216.099 399.9 220.299 396.2 224.499H395.7Z" fill="black"/>
<path d="M376.2 93.5002C372.5 98.8002 367.7 100.9 363 99.3002C361.9 99.3002 360.9 98.2002 359.8 98.2002C353.5 96.6002 349.2 92.4002 348.7 86.1002C348.2 79.8002 351.3 74.5002 357.2 70.8002C363.1 67.1002 370.4 69.2002 373 75.0002C375.1 79.2002 376.2 84.0002 377.2 88.2002C377.2 90.3002 377.2 92.4002 376.7 93.5002H376.2Z" fill="black"/>
<path d="M429 224C423.2 232.5 413.7 232.5 408.4 225.1C404.2 219.8 402.6 214.5 405.8 207.7C405.8 207.2 406.3 206.1 407.4 205.6C410.6 201.9 420.1 201.4 426.4 205.1C431.2 207.7 433.3 212.5 431.7 217.8C431.2 220.4 429.6 222.6 429.1 224.1L429 224Z" fill="black"/>
<path d="M610.2 290.499C606.5 295.799 595.9 298.399 591.2 294.699C584.9 290.499 583.3 281.499 588 275.199C595.4 266.199 599.1 265.699 606.5 270.999C613.4 276.299 615 283.699 610.2 289.999V290.499Z" fill="black"/>
<path d="M202.4 344.9C209.8 350.2 211.4 364.4 206.1 370.3C202.9 374 192.9 374.5 189.7 371.4C186 367.2 183.4 361.9 185.5 356.1C187.6 350.3 191.3 345.5 197.6 344.5C199.7 344.5 201.3 344.5 202.4 345V344.9Z" fill="black"/>
<path d="M268.4 307.4C274.2 311.1 274.7 319 270 326.4C267.4 330.6 262.1 331.2 256.8 327.5C249.9 322.7 247.8 314.3 251.5 308.5C254.7 303.2 261 302.7 267.9 307.4H268.4Z" fill="black"/>
<path d="M107.3 317.499C103.1 322.799 97.8 322.799 94.6 317.999C92 314.299 93 306.399 96.2 303.199C98.3 301.099 101 301.099 103.6 302.099C106.8 303.199 109.4 305.799 109.4 309.499C109.4 313.199 108.3 315.799 107.8 317.399H107.3V317.499Z" fill="black"/>
<path d="M127.9 303.2C126.8 303.2 124.7 305.3 123.1 304.8C121 304.3 117.8 302.2 117.3 300C116.2 296.3 116.2 291.5 117.3 287.9C117.3 285.8 120.5 283.7 122.6 283.1C124.2 283.1 126.8 284.7 128.4 286.3C132.1 290.5 132.1 296.9 128.4 303.2H127.9Z" fill="black"/>
</g>
<defs>
<clipPath id="clip0_167_199">
<rect width="923.7" height="827.2" fill="white"/>
</clipPath>
</defs>
</svg>
