<?xml version="1.0" encoding="UTF-8"?>
<svg id="Livello_1" xmlns="http://www.w3.org/2000/svg" version="1.1" viewBox="0 0 370.14 277.56">
  <!-- Generator: Adobe Illustrator 30.1.0, SVG Export Plug-In . SVG Version: 2.1.1 Build 136)  -->
  <defs>
    <style>
      .st0 {
        fill: none;
      }

      .st1 {
        fill: #ffffb4;
      }
    </style>
  </defs>
  <rect class="st0" x="1.14" y="43.31" width="137.47" height="137.47" rx="68.74" ry="68.74"/>
  <rect class="st1" x="232.67" y="43.31" width="137.47" height="137.47" rx="68.74" ry="68.74"/>
  <rect class="st1" x="0" y="43.31" width="137.47" height="137.47" rx="68.74" ry="68.74"/>
  <rect class="st1" x=".39" y="43.31" width="137.47" height="137.47" rx="68.74" ry="68.74"/>
  <path d="M340.13,70.62c-1.21-.11-1.85-.8-1.85-2.03-.01-1.18,1.11-2.31,2.23-2.28,1.04.03,2.25,1.37,2.17,2.4-.09,1.12-1.28,2.03-2.55,1.91Z"/>
  <path d="M318.66,82.37c-.02-1.09,1.31-2.02,2.58-1.91,1.16.09,1.84.89,1.81,2.11-.05,1.33-1.13,2.53-2.2,2.28-1.24-.3-2.15-1.08-2.19-2.47Z"/>
  <path d="M280,102.67c.02-1.38.98-2.32,2.35-1.93.84.24,1.54,1.05,2.82,1.97-1.37,1.06-2.15,1.97-3.14,2.34-1.01.38-2.03-.99-2.03-2.38Z"/>
  <path d="M297.65,155.99c.3-.85,1.18-1.73,2-2.06,1.12-.44,2.32.79,2.38,2.08.06,1.34-.93,2.35-2.22,2.31-1.27-.05-2.56-1.23-2.17-2.32Z"/>
  <path d="M253.73,127.35c1.24.2,1.82,1.02,1.82,2.21.01,1.29-1.1,2.32-2.32,2.23-1.24-.11-2.23-1.3-2.08-2.5.15-1.26,1.31-2.14,2.58-1.94Z"/>
  <path d="M273.83,121.12c.35-.82,1.28-1.65,2.12-1.91,1.07-.33,2.28,1.08,2.23,2.26-.05,1.23-1.19,2.25-2.41,2.14-1.27-.11-2.41-1.37-1.95-2.49Z"/>
  <path d="M347.76,114.87c.2-1.32,1.37-2.29,2.5-2.09,1.25.23,2.02,1.32,1.85,2.67-.17,1.29-.96,1.82-2.19,1.76-1.34-.06-2.35-1.18-2.17-2.34Z"/>
  <rect x="15.14" y="180.31" width="341" height="5"/>
  <path d="M182.72,186.1c1.74-3.02,6.1-3.02,7.84,0l48.88,84.67c1.74,3.02-.44,6.79-3.92,6.79h-97.76c-3.49,0-5.67-3.77-3.92-6.79l48.88-84.67Z"/>
  <path d="M51.22,7.31V.32h1.9l1.8,5.28h.15l1.79-5.28h1.9v6.99h-1.08V1.15h-.16l-2.07,6.16h-.95l-2.07-6.19h-.17v6.19h-1.05ZM62.59,7.41c-.82,0-1.45-.24-1.91-.73-.46-.49-.69-1.18-.69-2.08s.23-1.59.69-2.08c.46-.49,1.1-.73,1.91-.73s1.45.24,1.9.73c.46.49.69,1.18.69,2.08s-.23,1.59-.69,2.08c-.45.49-1.09.73-1.9.73ZM62.59,6.57c.51,0,.88-.14,1.11-.42.24-.28.36-.72.36-1.32v-.47c0-.59-.12-1.03-.36-1.31-.24-.28-.61-.43-1.11-.43s-.87.14-1.12.43c-.24.28-.36.71-.36,1.31v.47c0,.59.12,1.03.36,1.32.25.28.62.42,1.12.42ZM65.84,7.31v-.78l3.03-3.85h-3v-.78h4.3v.78l-3.03,3.85h3.06v.78h-4.36ZM71.62,7.31V2.68h-.81v-.78h1.87v5.41h-1.06ZM71.52,1.03V.06h1.21v.97h-1.21ZM74.85,7.31c-.46,0-.69-.23-.69-.69V0h1.04v6.53h1.27v.78h-1.62ZM78.06,7.31c-.46,0-.69-.23-.69-.69V0h1.04v6.53h1.27v.78h-1.62ZM82.01,7.41c-.55,0-.99-.13-1.31-.4-.31-.27-.47-.64-.47-1.11s.17-.86.5-1.13c.34-.28.83-.45,1.47-.51l1.55-.15v.71l-1.25.11c-.41.04-.71.13-.9.26-.19.13-.28.32-.28.57v.05c0,.26.09.45.28.59.2.14.48.2.84.2.87,0,1.31-.37,1.31-1.11v-1.59c0-.43-.09-.75-.27-.94-.18-.2-.46-.3-.86-.3-.27,0-.49.04-.66.12-.16.08-.28.18-.36.29-.07.11-.11.21-.11.3v.03h-1.08c.25-1.06,1-1.59,2.24-1.59.72,0,1.26.18,1.62.53.36.34.55.85.55,1.52v3.46h-.95v-.85h-.16c-.15.31-.36.55-.64.71-.27.16-.62.24-1.04.24ZM26.04,17.41c-.55,0-.99-.14-1.31-.41-.31-.27-.47-.64-.47-1.11s.17-.86.5-1.13c.34-.28.83-.45,1.47-.51l1.55-.15v.71l-1.25.11c-.41.04-.71.13-.9.26-.19.13-.28.32-.28.57v.05c0,.26.09.45.28.59.2.14.48.2.84.2.87,0,1.31-.37,1.31-1.11v-1.59c0-.43-.09-.75-.27-.94-.18-.2-.46-.3-.86-.3-.27,0-.49.04-.66.12-.16.08-.28.18-.36.29-.07.11-.11.21-.11.3v.03h-1.08c.25-1.06,1-1.59,2.24-1.59.72,0,1.26.18,1.62.53.36.34.55.85.55,1.52v3.46h-.95v-.85h-.16c-.15.31-.36.55-.64.71-.27.16-.62.24-1.04.24ZM30.29,17.31v-5.41h.96v.87h.16c.15-.32.35-.56.62-.72.27-.17.6-.25,1-.25.58,0,1.02.17,1.32.52.3.34.46.85.46,1.52v3.47h-1.06v-3.27c0-.49-.09-.84-.28-1.06-.19-.22-.49-.33-.91-.33s-.72.11-.91.33c-.2.22-.29.58-.29,1.06v3.27h-1.05ZM38.1,17.41c-.45,0-.83-.11-1.16-.33-.32-.22-.58-.54-.76-.96-.18-.42-.26-.92-.26-1.51,0-.88.2-1.57.59-2.07.39-.49.92-.74,1.6-.74.39,0,.73.08,1,.25.28.16.49.4.65.72h.15c-.01-.27-.02-.5-.03-.68,0-.18-.01-.35-.01-.51v-1.59h1.06v7.31h-.96v-.94h-.16c-.16.33-.39.59-.68.77-.28.18-.62.27-1.02.27ZM38.45,16.57c.49,0,.84-.14,1.07-.42.23-.28.34-.72.34-1.31v-.49c0-.59-.11-1.02-.34-1.3-.23-.28-.59-.43-1.07-.43s-.84.14-1.07.43c-.22.28-.33.71-.33,1.3v.49c0,.59.11,1.02.33,1.31.23.28.59.42,1.07.42ZM45.92,17.31c-.46,0-.69-.23-.69-.69v-6.26h1.05v6.17h1.63v.78h-1.99ZM44.07,12.68v-.78h3.85v.78h-3.85ZM48.93,17.31v-7.31h1.05v1.53c0,.16,0,.32-.01.51,0,.18,0,.4-.02.67h.15c.14-.29.34-.51.6-.67.26-.16.58-.23.97-.23.58,0,1.02.17,1.32.52.3.34.46.85.46,1.52v3.47h-1.06v-3.27c0-.49-.09-.84-.28-1.06-.19-.22-.49-.33-.91-.33s-.72.11-.91.33c-.2.22-.29.58-.29,1.06v3.27h-1.05ZM57.11,17.41c-.8,0-1.43-.24-1.88-.73-.45-.49-.68-1.18-.68-2.08s.23-1.59.68-2.08c.45-.49,1.08-.73,1.88-.73s1.4.23,1.83.68c.43.45.65,1.09.65,1.92v.38h-4.35v-.71h3.96l-.64.47v-.2c0-.59-.12-1.03-.35-1.31-.23-.28-.59-.42-1.09-.42s-.86.14-1.09.42c-.24.28-.35.71-.35,1.31v.5c0,.59.12,1.03.35,1.32.24.28.6.42,1.09.42.32,0,.58-.05.76-.14.18-.09.31-.2.38-.31.08-.11.12-.2.12-.26v-.03h1.08c-.16.52-.43.91-.83,1.18-.4.27-.9.41-1.52.41ZM65.14,17.41c-.67,0-1.19-.12-1.58-.37-.38-.26-.63-.66-.76-1.22h1.07v.03c0,.09.03.19.1.31.07.11.2.22.38.3.19.08.45.12.78.12.4,0,.71-.06.93-.19.22-.14.33-.32.33-.57,0-.18-.07-.32-.2-.43-.14-.1-.36-.19-.69-.25l-1.16-.23c-.53-.11-.91-.28-1.16-.51-.25-.24-.37-.55-.37-.94,0-.53.2-.94.6-1.24.4-.29.97-.44,1.7-.44.66,0,1.18.13,1.55.38.38.25.63.65.76,1.2h-1.06v-.03c0-.09-.04-.19-.11-.3-.07-.12-.19-.22-.37-.3-.18-.09-.43-.13-.76-.13-.38,0-.69.07-.9.2-.22.13-.32.31-.32.56,0,.18.06.32.19.43.14.1.36.19.67.25l1.16.22c.54.11.93.28,1.17.52.25.23.37.54.37.94,0,.53-.2.94-.61,1.24-.4.29-.97.44-1.71.44ZM71.86,13.97c0-.88-.36-1.33-1.09-1.33s-1.09.44-1.09,1.33v3.34h-1.05v-5.41h.96v.87h.16c.14-.32.33-.56.58-.72.25-.17.56-.25.93-.25s.69.08.93.25c.24.17.43.41.55.72h.21c.14-.32.34-.56.59-.72.25-.17.57-.25.96-.25.54,0,.95.17,1.24.52.28.34.43.85.43,1.52v3.47h-1.06v-3.34c0-.88-.36-1.33-1.08-1.33s-1.09.44-1.09,1.33v3.34h-1.05v-3.34ZM79,17.41c-.55,0-.99-.14-1.31-.41-.31-.27-.47-.64-.47-1.11s.17-.86.5-1.13c.34-.28.83-.45,1.47-.51l1.55-.15v.71l-1.25.11c-.41.04-.71.13-.9.26-.19.13-.28.32-.28.57v.05c0,.26.09.45.28.59.2.14.48.2.84.2.87,0,1.31-.37,1.31-1.11v-1.59c0-.43-.09-.75-.27-.94-.18-.2-.46-.3-.86-.3-.27,0-.49.04-.66.12-.16.08-.28.18-.36.29-.07.11-.11.21-.11.3v.03h-1.08c.25-1.06,1-1.59,2.24-1.59.72,0,1.26.18,1.62.53.36.34.55.85.55,1.52v3.46h-.95v-.85h-.16c-.15.31-.36.55-.64.71-.27.16-.62.24-1.04.24ZM83.92,17.31c-.46,0-.69-.23-.69-.69v-6.62h1.04v6.53h1.27v.78h-1.62ZM87.13,17.31c-.46,0-.69-.23-.69-.69v-6.62h1.04v6.53h1.27v.78h-1.62ZM94.75,17.41c-1,0-1.77-.3-2.32-.91-.55-.61-.82-1.5-.82-2.68s.27-2.08.82-2.68c.55-.61,1.32-.91,2.32-.91s1.77.3,2.32.91c.55.61.82,1.5.82,2.68s-.27,2.08-.82,2.68c-.55.61-1.32.91-2.32.91ZM94.75,16.54c.67,0,1.17-.19,1.5-.56.33-.38.5-.97.5-1.76v-.81c0-.8-.17-1.38-.5-1.75-.32-.38-.82-.57-1.5-.57s-1.18.19-1.51.57c-.32.37-.49.96-.49,1.75v.81c0,.8.16,1.38.49,1.76.32.37.83.56,1.51.56ZM99.1,17.31v-5.41h.96v.9h.16c.15-.32.35-.56.6-.72.25-.16.57-.24.96-.24h.94v.9h-1.37c-.41,0-.72.11-.91.32-.2.22-.29.56-.29,1.04v3.2h-1.05ZM105.73,19.07c-.64,0-1.16-.12-1.56-.35-.39-.24-.65-.59-.77-1.07h1.08c0,.17.11.3.32.43.22.12.52.18.9.18.46,0,.81-.1,1.05-.3.24-.2.36-.49.36-.88,0-.16,0-.31.01-.44,0-.13.01-.27.02-.42h-.16c-.14.28-.35.51-.64.67-.28.16-.61.23-1,.23-.67,0-1.21-.23-1.6-.7-.39-.47-.59-1.11-.59-1.93,0-.55.09-1.02.26-1.42.18-.4.44-.71.76-.93.33-.22.72-.33,1.16-.33.41,0,.75.09,1.03.27.28.18.51.43.67.77h.16v-.94h.96v5.17c0,.64-.21,1.13-.64,1.48-.42.34-1.02.52-1.81.52ZM105.7,16.33c.49,0,.84-.14,1.07-.41.23-.28.34-.68.34-1.22v-.45c0-.53-.11-.93-.34-1.2-.23-.28-.59-.42-1.07-.42s-.84.14-1.07.42c-.23.27-.34.67-.34,1.2v.45c0,.53.12.94.34,1.22.24.27.59.41,1.07.41ZM111.66,17.41c-.67,0-1.19-.12-1.58-.37-.38-.26-.63-.66-.76-1.22h1.07v.03c0,.09.03.19.1.31.07.11.2.22.38.3.19.08.45.12.78.12.4,0,.71-.06.93-.19.22-.14.33-.32.33-.57,0-.18-.07-.32-.2-.43-.13-.1-.36-.19-.69-.25l-1.17-.23c-.53-.11-.91-.28-1.16-.51-.25-.24-.38-.55-.38-.94,0-.53.2-.94.6-1.24.4-.29.97-.44,1.7-.44.66,0,1.18.13,1.55.38.38.25.63.65.76,1.2h-1.06v-.03c0-.09-.04-.19-.11-.3-.07-.12-.19-.22-.38-.3-.18-.09-.43-.13-.76-.13-.39,0-.69.07-.9.2-.22.13-.32.31-.32.56,0,.18.07.32.19.43.14.1.36.19.67.25l1.16.22c.54.11.93.28,1.18.52.25.23.38.54.38.94,0,.53-.2.94-.61,1.24-.4.29-.97.44-1.71.44Z"/>
  <path d="M279.1,17.31v-6.99h3.07c.63,0,1.13.16,1.48.49.36.32.54.78.54,1.38,0,.88-.4,1.37-1.2,1.48v.16c.84.11,1.27.62,1.27,1.55,0,.61-.18,1.09-.55,1.43-.36.34-.86.51-1.51.51h-3.1ZM282.12,16.45c.68,0,1.02-.34,1.02-1.02v-.24c0-.68-.34-1.02-1.02-1.02h-1.93v2.29h1.93ZM282.1,13.33c.65,0,.97-.32.97-.97v-.2c0-.65-.32-.97-.97-.97h-1.91v2.15h1.91ZM285.79,17.31v-4.63h-.81v-.78h1.87v5.41h-1.06ZM285.69,11.03v-.97h1.21v.97h-1.21ZM290.56,19.07c-.64,0-1.16-.12-1.56-.35-.39-.24-.65-.59-.77-1.07h1.08c0,.17.11.3.32.43.22.12.52.18.9.18.46,0,.81-.1,1.05-.3.24-.2.36-.49.36-.88,0-.16,0-.31.01-.44,0-.13.01-.27.02-.42h-.16c-.14.28-.35.51-.64.67-.28.16-.61.23-1,.23-.67,0-1.21-.23-1.6-.7-.39-.47-.59-1.11-.59-1.93,0-.55.09-1.02.26-1.42.18-.4.44-.71.76-.93.33-.22.72-.33,1.17-.33.4,0,.75.09,1.03.27.28.18.51.43.67.77h.16v-.94h.96v5.17c0,.64-.21,1.13-.64,1.48-.42.34-1.02.52-1.81.52ZM290.53,16.33c.49,0,.84-.14,1.07-.41.23-.28.35-.68.35-1.22v-.45c0-.53-.11-.93-.35-1.2-.23-.28-.59-.42-1.07-.42s-.84.14-1.07.42c-.23.27-.34.67-.34,1.2v.45c0,.53.11.94.34,1.22.24.27.59.41,1.07.41ZM298.27,17.31v-6.1h-2.16v-.89h5.41v.89h-2.17v6.1h-1.08ZM303.87,17.41c-.8,0-1.43-.24-1.88-.73-.45-.49-.68-1.18-.68-2.08s.23-1.59.68-2.08c.45-.49,1.08-.73,1.88-.73s1.4.23,1.83.68c.43.45.65,1.09.65,1.92v.38h-4.35v-.71h3.96l-.64.47v-.2c0-.59-.12-1.03-.35-1.31-.23-.28-.59-.42-1.09-.42s-.86.14-1.09.42c-.24.28-.35.71-.35,1.31v.5c0,.59.12,1.03.35,1.32.24.28.6.42,1.09.42.32,0,.58-.05.76-.14.18-.09.31-.2.38-.31.08-.11.12-.2.12-.26v-.03h1.08c-.16.52-.43.91-.83,1.18-.4.27-.9.41-1.52.41ZM309.73,17.41c-.8,0-1.43-.24-1.87-.73-.45-.49-.67-1.18-.67-2.08s.22-1.6.67-2.08c.44-.49,1.07-.73,1.87-.73.66,0,1.2.17,1.62.5.42.33.68.81.79,1.44h-1.06v-.06c0-.14-.05-.29-.14-.45-.09-.16-.23-.3-.43-.42-.2-.11-.46-.17-.78-.17-.48,0-.84.14-1.07.42-.24.28-.36.71-.36,1.31v.49c0,.59.12,1.03.36,1.31.24.28.59.42,1.07.42.32,0,.58-.06.78-.17.2-.11.34-.26.43-.43.09-.18.14-.34.14-.51v-.07h1.07c-.1.65-.35,1.15-.78,1.5-.42.34-.96.52-1.64.52ZM313.33,17.31v-7.31h1.05v1.53c0,.16,0,.32-.01.51,0,.18,0,.4-.02.67h.15c.14-.29.34-.51.6-.67.26-.16.58-.23.97-.23.58,0,1.02.17,1.32.52.3.34.46.85.46,1.52v3.47h-1.06v-3.27c0-.49-.1-.84-.28-1.06-.19-.22-.49-.33-.91-.33s-.72.11-.91.33c-.2.22-.29.58-.29,1.06v3.27h-1.05ZM321.28,17.41c-.67,0-1.2-.12-1.58-.37-.38-.26-.63-.66-.76-1.22h1.07v.03c0,.09.03.19.1.31.07.11.2.22.38.3.19.08.45.12.78.12.4,0,.71-.06.93-.19.22-.14.33-.32.33-.57,0-.18-.07-.32-.2-.43-.13-.1-.36-.19-.69-.25l-1.17-.23c-.53-.11-.91-.28-1.16-.51-.25-.24-.38-.55-.38-.94,0-.53.2-.94.6-1.24.4-.29.97-.44,1.7-.44.66,0,1.18.13,1.55.38.38.25.63.65.76,1.2h-1.06v-.03c0-.09-.04-.19-.11-.3-.07-.12-.19-.22-.38-.3-.18-.09-.43-.13-.76-.13-.39,0-.68.07-.9.2-.22.13-.32.31-.32.56,0,.18.06.32.19.43.14.1.36.19.67.25l1.17.22c.54.11.93.28,1.17.52.25.23.38.54.38.94,0,.53-.2.94-.61,1.24-.4.29-.97.44-1.71.44Z"/>
  <path d="M.18,116.87v-.48l2.48-2.3c.51-.48,1.67-.04,1.91.6.49,1.3-1.02,1.29-2,2.93-.38.64-1.57,1.12-1.94.28l-.45-1.02Z"/>
  <path d="M.18,110.39v-1.92c1.19-.83,1.81-.03,2.95.86l-1.64,1.19c-.28.2-1.09,0-1.31-.13Z"/>
  <path d="M71.7,43.19c.52.75-1.09,2.54-1.27,2.38l-.6-.53c-.54-.48-.81-1.24-.53-1.85h2.4Z"/>
  <path d="M.18,113.75v-2.4c.41.23.88.82.86,1.28s-.46.98-.86,1.12Z"/>
  <path d="M51.18,174.75c-.27.27-1.32.16-1.51-.15l-.78-1.27c-.64.2-1.47.41-1.91.11-1.52-1.05.5-2.47-.77-2.76-1.91-.43-.31-2.37-.75-3.25l-2.18-.62c-.36-.1-.79-.91-.73-1.29.3-1.91,3.87-.63,4.84.04s-.41,1.79-.21,2.33c.25.69.98,1.21.58,2.15-.49,1.15,1.27.88,1.47,2.84.43-.3,1.46-.83,1.93-.53.79.49.65,1.75,0,2.39Z"/>
  <path d="M28.25,163.61c-.53-.07-1.34-.07-1.63-.36-.32-.33-.45-1.09-.3-1.47.2-.52,1.05-1.06,1.65-.65.36.25.72,1.03.94,1.55.13.3,1.06-.06,1.06-.37.01-1.14,1.14-1.34,1.59-2.02.52-.78.71-2.29,2.19-1.92.65.16,1.12,1.84.35,2.15-1,.41-1.48.91-1.41,2.09l-1.38,1.25c-.22.45-.53,1.43-.99,1.59-1.13.38-1.92-.78-2.06-1.84Z"/>
  <path d="M32.52,139.94c-.6,1.65-2.59.03-2.87.84s-.78,1.32-1.69.96c-.5-.2-1.08-.84-.83-1.53.3-.81.97-.93,1.88-.85.52.05,1.24-.75,1.68-1.06.4-.28.99-.57.97-.89-.07-1.48-1.77-.77-2.31-1.62-.25-.39-.12-1.19.13-1.51,1.03-1.31,2.05.41,3.71,1.2.74.35,1.33,1.51.67,2.15-.38.37-1.4.34-2.07.37.46.67.95,1.29.72,1.93Z"/>
  <path d="M60.99,138.31c2.56,1.24,2.3-.42,3.18.62.37.44.58,1.12.42,1.51-.18.41-1.07.76-1.52.68-1.94-.33-3.6-.5-5.56-.52-.75,0-1.06-1.04-.78-1.6.37-.75.89-.72,1.76-.66.7.05,1.9-.32,2.5-.02Z"/>
  <path d="M82.8,146.32l.09,1.81c.02.38-.85.74-1.24.73-1.4-.03-.58-.98-2.37-2.87-.27-.29-.37-1.3-.14-1.62s1.04-.58,1.46-.46c.48.14.8.92.92,1.47l.12.54c.03.13.35.22.42.11.41-.63.18-2.43,1.71-2.21.69.1,1.38.78,1.23,1.59-.17.93-.99,1.35-2.19.91Z"/>
  <path d="M77.22,152.19c-.21-.35-1.42-.54-1.93-.56.15.88.39,1.54.06,2.08-.25.41-1.2.66-1.66.44-.53-.26-.86-.97-.78-1.63.06-.54.76-.95,1.4-1.03l.6-.08c.16-.02.23-.5.23-.7-.01-.93.7-1.47,1.48-1.4.97.07,1.23.89,1.02,1.86l-.14.65c-.08.36,1.56-.25,2.21.89.26.45-.03,1.19-.34,1.49-.45.44-1.45.59-1.81-.01-.22-.38-.25-1.28-.35-2Z"/>
  <path d="M98.97,163.71c-.14.49-.66.98-.99.98-1.45-.01-.87-1.13-2.17-3.04-.37-.54-.42-1.36.2-1.68,2.17-1.12,2.31-2.8,3.65-1.88.34.24.58.96.48,1.49-.08.4-.72.78-1.2,1.03l-.76.39c-.66.34,1.25,1.1.79,2.7Z"/>
  <path d="M70.75,180.64l-2.72.07c.05-1.55,1.25-1.3,2.12-1.56-.23-.53-.66-1.88-.2-2.21,2.19-.38,2.38-2.94,4.08-2,.55.31.92,1.57.29,1.88l-1.64.81c-.57.86-1.11,1.4-2.18,1.74l.23,1.26Z"/>
  <path d="M94.51,114.65c.38,1.48-2.83,2.02-4.28,1.92-.37-.02-.8-.62-.89-.91-.11-.33.02-1.24.35-1.39,1.3-.56,4.33-1.53,4.82.37Z"/>
  <path d="M66.3,151.21c-.27,1.45-2.23.26-3.75.03-.56-.08-1.15-.29-1.31-.73-.18-.5-.08-1.26.36-1.64.98-.84,2.43.88,4.23.31-.06-.62-.12-1.36.06-1.75s1.2-.74,1.6-.48c.6.4.96,1.7.42,2.1-.33.24-1.28.39-1.67.45.07.62.15,1.28.07,1.7Z"/>
  <path d="M122.49,74.66c-.11-.63-.13-1.42-.17-1.96-.44-.07-1.44-.11-1.79-.35-.51-.37-.45-1.57-.06-2.02s1.26-.45,1.64-.16c.45.35.68,1.09.59,1.61l-.1.55c-.09.5,1.91-.07,2.24,1.06.18.63-.02,1.37-.48,1.71-.42.31-1.73.33-1.87-.44Z"/>
  <path d="M116.84,152.92c.17.36-.39,1.12-.74,1.27-.42.18-1.53.1-1.63-.33-.27-1.19-.55-2.21-1.11-3.28-.37-.7.35-1.39.97-1.54.78-.18,1.35.38,1.51,1.19.18.93.46,1.52,1,2.68Z"/>
  <path d="M67.1,174.02c-.45,1.54-3.96.65-4.84-.35-.59-.67.53-2.26,1.16-2.07l3.26,1c.38.12.55.99.43,1.41Z"/>
  <path d="M77.56,175.67c1.42.83,2.77.3,2.98,1.41.09.48-.05,1.26-.35,1.5-1.07.85-1.41-.44-3.7-.57-.92-.05-1.13-1.01-.93-1.72.24-.85,1.12-1.14,2-.62Z"/>
  <path d="M20.99,128.87c-.68.88-1.77-.39-2.68.34-.57.46-1.16.66-1.67.36-.45-.27-.84-.98-.74-1.45.09-.44.91-1.08,1.41-1.08s1.3.26,1.62,0c.41-.32,1.07-.7,1.49-.6.71.17,1.23,1.58.57,2.43Z"/>
  <path d="M93.67,79.09c-1.21-.43.09-2.39-.68-2.74-.67-.3-1.41-1.1-.97-1.91s1.22-.95,2.09-.56c1.01.46.23,1.37.38,2.15.13.67,1.6,1.29,1.04,2.4-.23.45-1.11.93-1.86.66Z"/>
  <path d="M48.13,144.48c.28.34,1.66-1.12,2.66-.14.37.36.44,1.17.21,1.63-.28.58-1.15.88-1.69.46-1.79-1.36-3.25.71-3.72-.81-.25-.79.04-1.55.88-2.08.24-.15.95.05,1.13.27l.54.66Z"/>
  <path d="M111.78,157.42c-2.15.67-.94,2.29-2.54,2.44-.68.06-1.58-.95-1.39-1.96.06-.3.67-.61,1.03-.64,1.77-.1.53-1.89,1.92-2.36,1.09-.37,2.06,1.1,1.93,1.61-.08.31-.63.8-.95.9Z"/>
  <path d="M74.5,160.36c.04,1.9,2.61.54,2.29,2.48-.13.78-.71,1.37-1.55,1.25-1-.14-1.34-.96-1.01-1.98l.16-.5c.03-.11-.41-.09-.52-.05-.76.28-1.67.21-1.94-.68-.21-.71,0-1.55.67-1.76.93-.28,1.88.18,1.9,1.23Z"/>
  <path d="M38.18,148.47c-1.77-.37-3.56-.68-3.47-2.42.02-.42.76-1.08,1.17-.96l2.93.91c.51.16.98.87.86,1.36-.15.62-.84,1.25-1.5,1.11Z"/>
  <path d="M65.17,156.48c.56,1.04.16,1.83-.61,2.07-.85.26-1.67-.17-1.77-1.01-.22-1.73,1.95-1.48,1.95-1.76v-.55c0-.54.17-1.39.64-1.73.55-.4,1.4-.02,1.76.45.34.44.23,1.23-.12,1.79-.62.98-2.46-.43-1.83.74Z"/>
  <path d="M103.81,153.49c-1.61,1,.37,2.12-.76,3-.34.26-1.2.28-1.6.02s-.77-.78-.85-1.17c-.08-.42.5-.98.94-1.17.97-.42-.1-1.18.37-2.31.16-.37.87-1.02,1.2-.79.48.32.98.75,1.15,1.06s-.13,1.16-.45,1.36Z"/>
  <path d="M57.38,154.19c-1.74,1.06.41,3.05-1.56,3.33-.39.06-1.16-.17-1.38-.5-.31-.46-.15-1.29.24-1.71,1.13-1.26-.15-1.88.47-2.79.36-.53,1.72-.66,2.5.37.19.26.05,1.11-.27,1.3Z"/>
  <path d="M81.89,137.42c.91.48.84,1.58.2,2.15-.52.46-1.23.54-2,.15l-1.74.36c-.44.09-.97-.82-.99-1.25s.37-1.47.83-1.45l1.89.25c.41-.01,1.41-.42,1.8-.21Z"/>
  <path d="M107.77,153.84c-.12.95-.52,1.66-1.38,1.61s-1.41-.74-1.33-1.51c.1-.91,1.05-1.22,1.85-1.06.21.04.75.29.81.13l.28-.76c.33-.88,1.01-1.24,1.79-.88s1.03,1.23.5,2.07c-.84,1.33-2.44-.3-2.47-.06l-.06.46Z"/>
  <path d="M130.45,115.5l-.38-.38c-.76.09-1.62-.08-1.89-.71s.08-1.48.6-1.79c.41-.24,1.45-.09,1.81.34.3.36.2,1.26.19,1.8.47,0,1.33.04,1.66.3.42.33.54,1.3.23,1.77-.28.42-1.04.54-1.52.43-.7-.17-1.07-.72-.7-1.77Z"/>
  <path d="M104.78,145.88c.22,2.15,2.4,3.02.68,3.91-.43.23-1.5.28-1.68-.13l-1.47-3.38c-.27-.63.45-1.32.97-1.37.66-.06,1.43.29,1.5.97Z"/>
  <path d="M84.88,131.78c-.85.37-1.55-.43-1.66-.93-.14-.69.16-1.52.89-1.71.56-.15,1.32.39,1.87.9.22-.45.68-1.36,1.13-1.48.6-.16,1.49.16,1.65.66.21.62-.04,1.42-.45,1.75-.66.53-1.41.15-2.07-.53l-1.36,1.36Z"/>
  <path d="M46.99,161.71c.8.12.87,1.23.62,1.72-.26.51-.89,1.24-1.46.93-2.29-1.25-3.87-.74-3.62-1.94.09-.43.32-1.13.66-1.28.41-.18,1.14.1,1.67.4.47.27,1.44.08,2.13.18Z"/>
  <path d="M70.04,162.75c-.85.51.01,2.15-.9,2.63-.54.28-1.32.21-1.65-.07-.34-.3-.5-1.35-.17-1.63,1.79-1.56-.12-2.61,1.87-3.39.51-.2,1.15.17,1.37.59.38.71.14,1.48-.52,1.88Z"/>
  <path d="M61.96,122.95c-.4.32-1.18-.04-1.51-.5-.32-.43-.21-1.28.24-1.65,1.99-1.59,2.39-2.61,3.58-1.65.47.38.71,1.41.25,1.77l-2.56,2.02Z"/>
  <path d="M42.41,169.62c-.23.25-1.15.39-1.48.27-.36-.13-.57-.84-.54-1.33.15-2.04-1.28-1.76-.98-2.99.21-.87,1.86-1.25,2.36-.72.22.24.3.88.2,1.24-.49,1.72.49.83,1.01,2.36.09.27-.22.79-.58,1.17Z"/>
  <path d="M29.9,150.72c-.58.58-1.51.14-1.78-.46-.21-.46-.41-1.41.26-1.81.57-.34,1.54-.02,2.11.25l.93-1.1c.58-.68,1.61-.16,1.91.51s.05,1.51-.69,1.81c-.66.27-1.43-.25-2.03-.88-.12.4-.38,1.36-.71,1.68Z"/>
  <path d="M57.2,160.12c.23,2.43,1.42.1,2.4,1.87.28.51-.05,1.25-.52,1.67-.35.31-1.54.32-1.68-.28l-.39-1.79c-.69.32-1.6.38-1.95-.12-.53-.74-.38-1.67.24-2.09.68-.46,1.81-.23,1.9.73Z"/>
  <path d="M70.51,156.05c-.64,2.12.49,3.78-1.33,3.75-.56-.01-1.55-.44-1.43-1.07.52-2.69.08-4.08,1.66-4.12.55-.02,1.29.81,1.09,1.45Z"/>
  <path d="M58.06,169l-2.51.27c-.37.04-.96-.41-1.07-.76-.12-.42-.04-1.56.36-1.68,1.28-.36,4.46-.92,4.48,1.07,0,.51-.68,1.04-1.26,1.1Z"/>
  <path d="M66.15,129.7c.07,1.1-1.03,1.26-1.67.97-.79-.36-.95-1.24-.41-2.05,1.28-1.93.09-3,1.69-3.19.43-.05,1.02.16,1.23.46.9,1.32-.99,1.65-.84,3.82Z"/>
  <path d="M49.58,137.51c-.25.29-1.03.47-1.45.43-.36-.03-.93-.51-1.01-1.01-.08-.47.42-1.22.74-1.67-.61-.12-1.44-.29-1.71-.81s-.38-1.49.17-1.85c.67-.43,1.46,0,1.84.51s.19,1.31-.01,2.02l1.34.74c.36.2.38,1.32.1,1.64Z"/>
  <path d="M53.39,155.98c.15,1.53-2.55.84-4.11,2.26-.34-.26-.85-.76-1.06-1.08-.26-.42.22-1.5.69-1.59,2.56-.45,2.6-1.03,3.57-.7.35.12.87.7.91,1.12Z"/>
  <path d="M105.18,163.67c.27.47-.27,1.74-.76,1.68-2.61-.31-3.4.92-4.27-.18-.29-.36-.07-1.36.31-1.84.3-.37,1.11-.09,1.73-.09.93,0,2.25-.85,2.99.42Z"/>
  <path d="M101.19,138.69c-.72,1.51,1.99,1.66.73,3.18-.29.35-1.23.71-1.61.43-.88-.65-.63-1.74-.49-2.53-.3-.46-.86-1.28-.93-1.76-.14-1.08.89-1.38,1.66-1.19s1.05.99.64,1.87Z"/>
  <path d="M111.69,165.5c.03.44-1.36,1.49-1.94,1.51-1.13.03.07-1.8-1.54-2.67-.71-.39-.79-1.32-.41-1.87.44-.65,1.63-.77,2.03-.31.85.97-.38,1.97,1.19,2.54.24.09.66.56.68.81Z"/>
  <path d="M75.16,126.58c-.26.23-1.1-.19-1.34-.44-1.16-1.21,1.11-3.04,2.15-3.79.27-.2,1.04-.06,1.29.15.29.24.66,1.18.38,1.47l-2.49,2.61Z"/>
  <path d="M71.8,79.36c-.26-.3-.43-1.23-.55-1.7-.77.59-1.81,1.27-2.47.41-.24-.31-.29-1.31-.13-1.71.15-.36.85-.55,1.41-.51,1.01.07.85,1.82,1.77,1.4.62-.28,1.37-.21,1.81.35.36.47.36,1.08.02,1.52-.39.52-1.31.88-1.86.23Z"/>
  <path d="M15.63,135.05c-.47.12-1.32.05-1.56-.17-.63-1.26-3.28-2.3-2.03-3.48.31-.29,1.27-.52,1.62-.43,1.06,1.48,2.31,2.03,2.65,3.04.09.27-.36.95-.68,1.03Z"/>
  <path d="M43.69,148.83c-.89,1.54,1.42,1.73.47,3.24-.22.35-1.06.59-1.48.42-1.65-.69.37-2.26-1.2-3.27-.2-.13-.49-.58-.51-.8-.02-.27.34-.8.6-.94.52-.26,1.29-.36,1.61-.1.36.29.72,1.09.51,1.46Z"/>
  <path d="M127.11,148.62l-.54.66c-.56.68-2.55-5.24-.05-5.23.98,0,1.27.71,1.36,1.62.11,1.09,0,2.04-.76,2.96Z"/>
  <path d="M14.55,119.6c-.6.21-1.73-.64-1.78-1.27-.11-1.42,2.43-.85,2.44-1.2l.03-1.03c.01-.37.24-1.09.52-1.27.61-.4,1.71.15,2.09,1.22.1.28-.34.95-.64.98l-1.81.24c.09.79.23,1.95-.86,2.33Z"/>
  <path d="M13.95,153.22l-1.69-2.29,1.84-.65c-.01-.7.17-1.94,1.09-2.29.31-.12.94.19,1.18.41.29.26.57,1.16.28,1.53-.47.62-1.49.55-2.26.54.33.96.81,1.85-.45,2.76Z"/>
  <path d="M123.38,153.93c-1.01-1.6.81-1.54-.67-3.17-.27-.3-.44-1.17-.22-1.49.39-.59,1.64-.52,2.34-.17s-.77,1.66-.11,2.96l-1.35,1.87Z"/>
  <path d="M32.72,170.02c-.53.18-1.35-.41-1.88-.85.32-.59.64-1.23.98-1.62.61-.7,1.64-.05,1.95.54.41.76-.03,1.58-1.06,1.93Z"/>
  <path d="M118.73,155.43c.8-.25,1.48.45,1.58.97.17.82-.13,1.58-.98,1.69-.59.08-1.36-.25-1.62-.91-.19-.52.22-1.5,1.01-1.75Z"/>
  <path d="M120.05,100.42c.16.85-.96,1.13-1.42,1.13s-1.48-.45-1.39-1.04c.11-.74.8-1.41,1.38-2.03.53.44,1.29,1.17,1.44,1.95Z"/>
  <path d="M104.11,94.47c.78-.29,1.49.2,1.72.87.21.63-.21,1.43-.86,1.68-.57.22-1.4-.15-1.65-.59-.43-.72-.09-1.63.79-1.96Z"/>
  <path d="M113.46,104.3c.77-.33,1.55.17,1.76.78.24.69-.03,1.48-.85,1.77-.49.18-1.32-.07-1.62-.64s-.08-1.57.71-1.91Z"/>
  <path d="M82.37,92.76c.62-.08,1.36.53,1.46,1.07.14.77-.39,1.49-1.02,1.6-.85.15-1.51-.31-1.65-1.05s.31-1.5,1.21-1.62Z"/>
  <path d="M125.25,133.05c.7-.27,1.63-.06,1.96.6.24.48-.05,1.37-.57,1.75-.57.41-1.4.23-1.82-.45-.32-.52-.34-1.6.43-1.9Z"/>
  <path d="M6.49,96.6c.71-.22,1.5.18,1.7.78.23.69-.04,1.51-.84,1.79-.59.21-1.41-.09-1.7-.84-.22-.57.1-1.5.84-1.74Z"/>
  <path d="M63.09,159.95c.75-.23,1.55.42,1.66.99.14.72-.29,1.44-.96,1.68-.62.22-1.4-.25-1.59-.81-.25-.71,0-1.57.9-1.85Z"/>
  <path d="M115.43,74.29c.63-.09,1.37.6,1.48,1.14.15.72-.51,1.4-1.07,1.51-.81.15-1.47-.22-1.56-.8-.13-.84.05-1.69,1.15-1.85Z"/>
  <path d="M95.03,127.08c.71-.2,1.5.19,1.72.79.25.68-.07,1.48-.86,1.78-.57.22-1.42-.1-1.7-.83-.22-.57.1-1.53.83-1.74Z"/>
  <path d="M46.59,62.99c.72-.31,1.51.05,1.83.74.23.5-.07,1.39-.53,1.63-.63.32-1.62.16-1.92-.39-.36-.66-.16-1.65.62-1.99Z"/>
  <path d="M71.47,64.43c.84-.2,1.54.22,1.6.95.06.64-.24,1.52-1.02,1.67-.53.1-1.25-.37-1.53-.95-.33-.66-.04-1.44.95-1.68Z"/>
  <path d="M119.77,114.6c.7-.11,1.42.42,1.53.98.15.79-.26,1.5-1.04,1.66-.7.15-1.44-.26-1.61-1.06-.13-.6.35-1.47,1.12-1.59Z"/>
  <path d="M34.95,152.79c.83-.45,1.66-.1,1.97.6.22.5.02,1.42-.51,1.7-.64.34-1.51.18-1.88-.42-.32-.51-.27-1.51.42-1.88Z"/>
  <path d="M82.35,158.79c.69-.36,1.57-.09,1.89.56.26.53.08,1.42-.52,1.78-.55.33-1.43.23-1.88-.46-.3-.47-.2-1.51.5-1.88Z"/>
  <path d="M97.71,71.63c.73-.32,1.52.08,1.78.76.23.61-.04,1.46-.75,1.77-.47.21-1.4-.05-1.66-.51-.41-.72-.14-1.7.63-2.03Z"/>
  <path d="M92.37,159.71c.71-.22,1.48.31,1.69.92s-.23,1.45-.85,1.65c-.64.21-1.46-.11-1.65-.59-.3-.76-.15-1.68.8-1.98Z"/>
  <path d="M55.62,91.39c.79-.52,1.67-.23,2,.48.25.53.13,1.38-.54,1.8-.48.3-1.41.12-1.83-.45-.32-.42-.25-1.43.37-1.83Z"/>
  <path d="M131.01,134.73c.72-.25,1.47.3,1.7.93s-.21,1.43-.85,1.65-1.45-.12-1.65-.58c-.33-.77-.15-1.67.8-2Z"/>
  <path d="M92.89,135.72c.72-.05,1.38.6,1.37,1.2,0,.76-.48,1.43-1.12,1.5-.74.08-1.43-.46-1.54-1.03-.18-.87.37-1.6,1.29-1.66Z"/>
  <path d="M25.72,130.9c.7-.17,1.47.37,1.59.99.13.73-.23,1.46-.96,1.66-.59.16-1.42-.23-1.6-.76-.27-.83.06-1.67.97-1.89Z"/>
  <path d="M91.95,90.61c.71-.14,1.47.38,1.58.97.15.76-.25,1.47-.95,1.68-.6.18-1.44-.24-1.61-.78-.26-.83.04-1.68.97-1.86Z"/>
  <path d="M116.9,88.43c.69-.19,1.43.28,1.65.91s-.19,1.47-.84,1.69c-.69.24-1.55-.15-1.73-.78-.21-.73.1-1.59.92-1.82Z"/>
  <path d="M57.1,57.93c.68-.11,1.45.51,1.54,1.11.11.67-.55,1.45-1.12,1.55-.68.13-1.45-.33-1.59-.83-.22-.73.16-1.67,1.18-1.83Z"/>
  <path d="M107.8,100.41c.69-.15,1.47.41,1.57,1,.13.75-.24,1.47-.95,1.65-.63.16-1.46-.23-1.61-.75-.26-.86.06-1.7.99-1.9Z"/>
  <path d="M24.66,150.39c.87-.2,1.45.32,1.58.98.15.78-.2,1.49-1.04,1.67-.54.12-1.26-.34-1.52-.92-.31-.67.06-1.51.99-1.73Z"/>
  <path d="M96.44,116.75c.76-.19,1.47.44,1.57,1.01.13.76-.29,1.49-1.04,1.65-.6.13-1.33-.29-1.56-.9s.15-1.53,1.04-1.75Z"/>
  <path d="M6.43,122.75c.72-.23,1.51.26,1.74.85.25.65-.19,1.44-.88,1.72-.52.21-1.38-.15-1.61-.6-.35-.7-.17-1.67.75-1.97Z"/>
  <path d="M126.65,136.95c.79-.29,1.52.2,1.75.86.21.61-.15,1.45-.85,1.69-.53.18-1.4-.14-1.63-.59-.35-.69-.13-1.65.73-1.96Z"/>
  <path d="M68.09,101.42c.83-.17,1.52.33,1.61.98.1.73-.29,1.48-1.06,1.65-.55.12-1.3-.33-1.55-.91-.28-.63.1-1.53,1-1.72Z"/>
  <path d="M42.73,86.97c.72-.34,1.58-.06,1.92.66.22.47,0,1.37-.55,1.7-.58.35-1.45.17-1.87-.43-.38-.55-.25-1.58.5-1.93Z"/>
  <path d="M9.63,118.44c.74-.32,1.52.01,1.85.75.21.47-.08,1.39-.53,1.63-.68.36-1.61.17-1.9-.37-.37-.69-.2-1.66.58-2Z"/>
  <path d="M43.95,118.42c.71-.34,1.55,0,1.85.71.2.47-.07,1.41-.52,1.66-.67.37-1.54.13-1.9-.41-.43-.63-.21-1.59.57-1.97Z"/>
  <path d="M31.61,121.12c.84-.24,1.56.33,1.66.94.12.75-.21,1.49-.93,1.67-.6.15-1.44-.27-1.62-.78-.27-.74,0-1.57.89-1.83Z"/>
  <path d="M119.93,151.59c.81-.36,1.65.06,1.88.72s-.05,1.43-.77,1.77c-.47.22-1.4-.07-1.66-.51-.38-.66-.21-1.64.55-1.98Z"/>
  <path d="M58.03,157.1c.77-.37,1.53.11,1.79.77.24.61-.06,1.49-.85,1.78-.48.18-1.26-.08-1.62-.69-.32-.54-.13-1.48.68-1.87Z"/>
  <path d="M32.68,104.76c.69-.16,1.47.4,1.58.97.16.76-.21,1.48-.95,1.68-.58.16-1.43-.22-1.61-.77-.25-.8.06-1.66.97-1.88Z"/>
  <path d="M98.13,143.41c.72-.13,1.42.52,1.51,1.12.11.72-.42,1.46-1.01,1.54-.77.1-1.46-.32-1.63-.87-.24-.77.17-1.62,1.13-1.79Z"/>
  <path d="M22.49,113.42c.79-.1,1.47.57,1.51,1.18.04.76-.46,1.42-1.16,1.51s-1.4-.43-1.51-1.05c-.14-.76.21-1.52,1.17-1.64Z"/>
  <path d="M19.19,130.9c.68-.29,1.61-.02,1.93.6.26.5-.02,1.41-.54,1.75-.59.38-1.46.26-1.86-.43-.3-.52-.29-1.6.47-1.92Z"/>
  <path d="M19.15,149.44c.71-.19,1.48.45,1.58.97.15.77-.27,1.55-1,1.69-.64.12-1.35-.23-1.6-.92-.2-.55.14-1.5,1.02-1.74Z"/>
  <path d="M68.55,82.94c.94-.27,1.66.11,1.74.93.06.61-.21,1.37-.97,1.67-.48.19-1.29-.31-1.54-.83-.34-.68-.07-1.53.77-1.77Z"/>
  <path d="M61.94,143.39c.68-.19,1.44.26,1.67.9.22.6-.21,1.44-.87,1.69-.62.24-1.52-.18-1.7-.76-.23-.76.06-1.61.89-1.84Z"/>
  <path d="M21.53,142.54c-.38-.63-.6-1.24-.85-1.84-.65.39-1.8.58-2.39-.2-.23-.3-.06-1.22.18-1.54.22-.3.89-.69,1.25-.59.93.26,1.07,1.16,1.12,2.12l1.36-.43c.38-.12,1.14.36,1.26.75.15.47.06,1.2-.17,1.52-.28.38-1.49.69-1.77.22Z"/>
  <path d="M94.75,54.14c.77-.18,1.51.45,1.59.99.12.8-.28,1.51-.9,1.63-.77.16-1.52-.24-1.67-.79-.21-.79.06-1.62.97-1.84Z"/>
  <path d="M91.67,84.1c.67-.21,1.49.1,1.72.62.31.69.01,1.57-.57,1.84-.7.32-1.6.06-1.84-.57-.26-.69-.12-1.63.69-1.89Z"/>
  <path d="M71.7,136.44c.75-.21,1.58.45,1.68.97.14.75-.29,1.44-.95,1.62s-1.49-.15-1.64-.72c-.17-.68.1-1.63.91-1.87Z"/>
  <path d="M50.42,121.81c.68-.23,1.52.2,1.76.75.29.68.01,1.47-.73,1.77-.47.19-1.4-.07-1.64-.51-.39-.71-.19-1.74.61-2.01Z"/>
  <path d="M45.62,109.05c.67-.11,1.46.29,1.67.93.18.56-.34,1.46-.87,1.66-.75.29-1.55-.17-1.71-.76-.21-.83,0-1.68.9-1.83Z"/>
  <path d="M89.52,109.77c.73-.34,1.56-.09,1.89.66.21.49.03,1.38-.56,1.71s-1.42.13-1.84-.44-.25-1.58.51-1.93Z"/>
  <path d="M96.45,81.55c.71-.37,1.53.08,1.86.66s.04,1.42-.63,1.75c-.54.26-1.42.12-1.73-.36-.37-.59-.23-1.67.5-2.05Z"/>
  <path d="M83.54,171.17c.74-.29,1.56,0,1.87.75.19.47-.1,1.37-.56,1.63-.67.38-1.53.12-1.85-.39-.43-.68-.26-1.68.54-1.99Z"/>
  <path d="M119.06,80.29c.74-.23,1.57.07,1.74.75s-.06,1.46-.73,1.76c-.53.24-1.4-.08-1.66-.51-.44-.73-.17-1.73.66-1.99Z"/>
  <path d="M39.35,97.3c.75-.34,1.56-.08,1.92.65.24.47.01,1.36-.57,1.7s-1.45.21-1.83-.41c-.33-.54-.23-1.61.48-1.93Z"/>
  <path d="M67.4,87.96c.73-.21,1.53.48,1.65.98.2.81-.21,1.46-.95,1.63-.64.15-1.48-.16-1.62-.74-.17-.7.06-1.63.91-1.87Z"/>
  <path d="M125.94,79.8c.69-.3,1.55.09,1.77.6.29.66,0,1.6-.54,1.83-.64.26-1.51.06-1.79-.4-.38-.64-.31-1.65.56-2.03Z"/>
  <path d="M41.33,133.55c.59-.07,1.36.55,1.47,1.09.15.71-.54,1.42-1.12,1.56-.76.19-1.48-.43-1.61-1.03-.18-.81.38-1.52,1.27-1.63Z"/>
  <path d="M86.84,90.12c.67-.31,1.55.08,1.78.59.31.68.06,1.6-.56,1.85s-1.49.07-1.78-.41c-.38-.63-.31-1.63.56-2.03Z"/>
  <path d="M86.09,116.35c.82-.45,1.62-.04,1.95.59.28.54,0,1.43-.51,1.71-.69.37-1.53.24-1.92-.45-.27-.47-.18-1.49.48-1.85Z"/>
  <path d="M23.28,95.4c.72.01,1.31.63,1.33,1.21.03.78-.53,1.48-1.29,1.52-.68.04-1.38-.62-1.42-1.33s.56-1.42,1.38-1.41Z"/>
  <path d="M94.51,131.9c.71-.05,1.36.69,1.38,1.2.02.84-.55,1.47-1.29,1.52-.68.04-1.29-.47-1.41-1.16-.11-.66.37-1.49,1.33-1.55Z"/>
  <path d="M103.21,77.6c.72-.29,1.54.14,1.76.79s-.06,1.46-.77,1.74c-.57.22-1.42-.02-1.79-.75-.26-.51.02-1.47.8-1.78Z"/>
  <path d="M113.54,125.4c.69-.22,1.55.15,1.75.76.22.68-.08,1.44-.77,1.77-.51.25-1.35-.1-1.63-.55-.44-.7-.24-1.71.65-1.99Z"/>
  <path d="M20.2,91.54c.71-.09,1.48.39,1.59.99.14.75-.33,1.38-1.02,1.61-.62.21-1.38-.21-1.53-.73-.26-.92-.03-1.74.96-1.87Z"/>
  <path d="M103.43,110.76c.67-.3,1.61-.04,1.93.59.25.49-.02,1.4-.55,1.76-.57.39-1.41.25-1.85-.46-.29-.48-.28-1.56.46-1.89Z"/>
  <path d="M87.38,66.79c.74-.33,1.53-.02,1.85.75.2.47-.06,1.36-.57,1.64-.61.33-1.53.11-1.85-.38-.43-.68-.21-1.66.56-2Z"/>
  <path d="M74.91,91.79c.63-.27,1.51.02,1.73.53.3.7.12,1.61-.55,1.92-.63.28-1.52.06-1.87-.61-.3-.58-.07-1.52.68-1.84Z"/>
  <path d="M132.17,110.75c.78-.16,1.51.44,1.64,1.01.16.73-.32,1.46-1.08,1.65-.57.15-1.3-.27-1.55-.91-.23-.56.15-1.57,1-1.75Z"/>
  <path d="M104.11,68.31c.7-.14,1.39.52,1.5,1.09.17.81-.28,1.55-.95,1.61-.78.07-1.47-.32-1.67-.93-.24-.73.16-1.58,1.12-1.77Z"/>
  <path d="M116.61,68.76c.78-.08,1.43.63,1.44,1.22.02.76-.54,1.39-1.18,1.47-.7.08-1.4-.49-1.49-1.03-.13-.84.21-1.55,1.23-1.66Z"/>
  <path d="M120.74,129.25c.7-.15,1.48.37,1.6.95.16.75-.21,1.44-.95,1.64-.59.16-1.41-.18-1.6-.74-.26-.79.05-1.67.95-1.86Z"/>
  <path d="M54.68,113.91c.71-.06,1.43.7,1.43,1.21,0,.79-.58,1.43-1.12,1.48-.86.08-1.49-.44-1.56-1.07-.1-.78.28-1.54,1.26-1.62Z"/>
  <path d="M46.83,70.42c.73-.17,1.51.32,1.62.98s-.21,1.45-.98,1.68c-.51.15-1.39-.29-1.59-.82-.3-.77.07-1.64.95-1.85Z"/>
  <path d="M34.56,93.42c.74-.31,1.55,0,1.88.74.21.47-.06,1.35-.56,1.62-.66.36-1.52.18-1.86-.39-.38-.64-.25-1.64.54-1.97Z"/>
  <path d="M4.81,129.9c.65-.22,1.47.13,1.7.66.3.68.01,1.56-.58,1.81-.7.3-1.62.03-1.85-.54-.29-.73-.08-1.64.72-1.92Z"/>
  <path d="M27.26,72.83c-.53-.54-1.19-1.29-1.26-2.03s.93-1.09,1.42-1.05c.54.04,1.54.45,1.3,1.25-.2.66-.91,1.31-1.46,1.83Z"/>
  <path d="M67.39,168.46c-.36.32-1.18.2-1.5-.16-.53-.61-.69-1.46-.13-2.02.47-.47,1.44-.52,1.95.02.56.58.51,1.43-.32,2.17Z"/>
  <path d="M5.67,112.01c.83-.53,1.69-.16,2.01.57.2.47.04,1.37-.53,1.72-.54.33-1.45.15-1.87-.45-.31-.44-.23-1.45.39-1.84Z"/>
  <path d="M41.97,75.05c.71-.45,1.53-.1,1.84.44.35.61.24,1.52-.31,1.8-.59.31-1.55.26-1.84-.12-.42-.57-.35-1.7.31-2.12Z"/>
  <path d="M58.6,133.24c-.67.6-1.34,1.21-2.27,1.27-.43.03-.86-.84-.89-1.24-.04-.45.34-1.45.94-1.38.87.1,1.58.76,2.22,1.34Z"/>
  <path d="M135.87,114.08c.6-.24,1.51.13,1.65.63.21.72,0,1.64-.49,1.83-.82.31-1.66.04-1.91-.57-.28-.7-.04-1.58.75-1.89Z"/>
  <path d="M118.83,125.59c.69-.36,1.57-.09,1.9.67.2.47.01,1.35-.59,1.7-.51.3-1.42.12-1.8-.41-.42-.6-.26-1.57.5-1.97Z"/>
  <path d="M99.81,147.7c.78-.16,1.48.37,1.53,1.01.05.71-.35,1.51-1.09,1.67-.52.11-1.27-.47-1.48-.92-.37-.78.01-1.54,1.04-1.75Z"/>
  <path d="M59.72,125.41c.69-.03,1.34.7,1.36,1.24.03.8-.56,1.46-1.29,1.48-.67.02-1.29-.52-1.4-1.16-.12-.71.33-1.52,1.33-1.56Z"/>
  <path d="M44.01,126.8c-.71.23-1.33-.34-1.45-.8-.19-.77-.07-1.57.7-1.77s1.59.19,1.85.87c.21.54-.28,1.44-1.1,1.7Z"/>
  <path d="M99.6,66.12c.62-.27,1.51-.04,1.87.44.41.54.13,1.44-.38,1.81-.64.46-1.55.34-1.86-.25-.33-.63-.33-1.7.37-2Z"/>
  <path d="M85.96,123.94c.73-.33,1.49.2,1.69.84s0,1.49-.69,1.71c-.6.18-1.53-.15-1.83-.72-.27-.52.14-1.51.84-1.83Z"/>
  <path d="M75.81,63.78c.76-.44,1.5-.04,1.89.66.27.49,0,1.33-.63,1.74-.46.3-1.35.04-1.68-.39-.44-.57-.3-1.59.42-2.01Z"/>
  <path d="M56.82,110.27c.73-.37,1.61-.05,1.85.52.27.64.12,1.53-.61,1.89-.45.22-1.33.05-1.69-.45s-.31-1.57.45-1.96Z"/>
  <path d="M13.61,123.25c.82-.26,1.58.18,1.75.89.14.55-.25,1.44-.73,1.59-.69.21-1.52-.16-1.81-.69-.35-.63-.06-1.51.79-1.78Z"/>
  <path d="M27.27,136.73c0,.47-.93.77-1.29.76-.41-.01-1.32-.38-1.29-.94.06-.89.7-1.59,1.21-2.21.72.67,1.38,1.28,1.37,2.39Z"/>
  <path d="M106.25,134.33c.84-.44,1.6-.05,1.95.68.22.47-.04,1.38-.52,1.62-.69.35-1.55.17-1.9-.4s-.21-1.54.48-1.9Z"/>
  <path d="M58.83,150.06c.75-.28,1.49.21,1.67.87s-.08,1.49-.71,1.67c-.68.19-1.48-.07-1.83-.73-.3-.56.11-1.52.87-1.81Z"/>
  <path d="M124.96,110.91c-.61.53-1.15,1.02-1.75,1.32-.87.43-1.62-.53-1.57-1.21s.66-1.65,1.59-1.25c.53.23,1.04.62,1.73,1.15Z"/>
  <path d="M77.32,98.43c.32.32-.02,1.89-.62,2.21-.28.15-1.04,0-1.31-.2-.52-.38-.73-1.25-.46-1.78.35-.71,1.83-.79,2.39-.23Z"/>
  <path d="M20.19,134.7c.73-.19,1.49.28,1.66.94.15.6-.25,1.44-.74,1.59-.72.22-1.62-.07-1.82-.65-.26-.75.05-1.66.91-1.88Z"/>
  <path d="M91.22,117.25c.7-.32,1.61-.07,1.88.65.18.47-.03,1.35-.53,1.71-.55.39-1.41.07-1.83-.47-.44-.58-.33-1.52.48-1.88Z"/>
  <path d="M131.71,99c.67-.41,1.58-.15,1.93.4s.22,1.5-.4,1.86c-.46.27-1.41.21-1.74-.15-.48-.51-.49-1.69.22-2.12Z"/>
  <path d="M32.11,153.27c.59-.11,1.4.56,1.54,1.06.19.68-.38,1.46-1.02,1.57-.73.13-1.43-.18-1.58-.85s.15-1.61,1.06-1.78Z"/>
  <path d="M84.5,135.95c.63-.36,1.5-.13,1.86.42s.24,1.51-.33,1.88-1.54.25-1.92-.34-.28-1.58.39-1.96Z"/>
  <path d="M26.17,117.45c.75-.31,1.5.17,1.7.84.19.62-.03,1.47-.71,1.66-.6.17-1.48-.05-1.82-.7-.26-.5.15-1.52.83-1.8Z"/>
  <path d="M121.87,118.94c.77-.18,1.51.44,1.59.99.12.79-.28,1.48-.89,1.62-.76.17-1.5-.23-1.65-.78-.22-.78.05-1.61.95-1.82Z"/>
  <path d="M79.41,106.71c.77-.34,1.5.16,1.72.84.21.64-.04,1.43-.85,1.72-.51.18-1.25-.13-1.61-.68s-.09-1.5.74-1.87Z"/>
  <path d="M132.01,106.43c.69-.33,1.66-.17,1.9.57.16.48.01,1.34-.53,1.76-.48.36-1.39.11-1.8-.48s-.4-1.45.43-1.85Z"/>
  <path d="M74.42,105.89c.65-.24,1.54.03,1.75.58.26.67.07,1.56-.62,1.92-.56.29-1.46-.03-1.77-.63-.33-.63-.14-1.58.64-1.87Z"/>
  <path d="M50.87,58.8c-.86.39-1.64.06-2-.54-.34-.56.04-1.46.79-1.88.43-.24,1.29.16,1.52.58.24.45.18,1.62-.31,1.84Z"/>
  <path d="M115.96,118.37c.69-.21,1.48.29,1.65.95.16.6-.27,1.41-.79,1.59-.64.21-1.59-.07-1.8-.64-.28-.77.06-1.63.94-1.89Z"/>
  <path d="M86.81,85.79c.7-.3,1.57.08,1.78.6.28.67.04,1.59-.58,1.85-.56.23-1.49.03-1.74-.4-.38-.66-.35-1.66.54-2.04Z"/>
  <path d="M73.69,139.1c.6-.3,1.57-.24,1.9.31.31.51.15,1.47-.38,1.94-.48.43-1.42.2-1.83-.34s-.42-1.56.3-1.91Z"/>
  <path d="M113.32,84.59c.7-.1,1.46.44,1.55,1.03.11.72-.37,1.45-.93,1.6-.73.2-1.51-.27-1.66-.77-.28-.89.11-1.73,1.05-1.86Z"/>
  <path d="M50.34,140.32c.78-.17,1.41.63,1.45,1.17.06.83-.34,1.45-1.12,1.55-.66.09-1.36-.44-1.51-1.12-.14-.61.37-1.43,1.18-1.61Z"/>
  <path d="M95.54,102.1c.66-.28,1.49.03,1.74.59.29.64.08,1.55-.57,1.84s-1.54.09-1.85-.57c-.29-.61-.07-1.55.67-1.86Z"/>
  <path d="M93.18,157.52c.03-.43.55-1.25.92-1.42.67-.3,1.53.3,1.68.82.25.88-.11,1.61-.92,1.74-.74.12-1.74-.31-1.68-1.14Z"/>
  <path d="M91.79,140.75c.96-.38,1.73-.14,1.9.75.09.5-.13,1.39-.78,1.67-.55.24-1.36-.08-1.78-.74-.29-.46-.06-1.41.65-1.69Z"/>
  <path d="M127.47,118.41c.78-.17,1.47.32,1.56,1s-.23,1.42-.98,1.62c-.53.14-1.38-.28-1.56-.75-.29-.74.17-1.69.98-1.87Z"/>
  <path d="M76.24,142.48c.81-.48,1.66-.14,2.02.59.23.46,0,1.33-.6,1.7-.51.32-1.4.16-1.81-.41-.34-.48-.26-1.5.39-1.88Z"/>
  <path d="M114.13,155.42c.89-.35,1.7-.07,1.86.73.11.54-.13,1.42-.75,1.7s-1.36-.05-1.76-.76c-.28-.49-.17-1.36.64-1.68Z"/>
  <path d="M102.34,105.77c-.97.26-1.76-.12-1.97-.82-.18-.6.34-1.52,1.14-1.72.73-.18,1.24.32,1.46.96.16.47-.04,1.42-.63,1.57Z"/>
  <path d="M84.85,107.1c-.58-.54-1.14-1.14-1.35-2.06-.09-.4.76-.94,1.15-1.01.48-.08,1.38.21,1.46.82.12.92-.47,1.49-1.26,2.24Z"/>
  <path d="M123.76,141.73c.99-.16,1.51.4,1.52,1.18,0,.65-.37,1.36-1.17,1.47-.52.07-1.24-.52-1.43-1.09-.24-.71.19-1.43,1.08-1.57Z"/>
  <path d="M67.39,175.76c.73-.21,1.56.23,1.74.88.16.57-.32,1.4-.8,1.56-.7.23-1.5-.09-1.74-.61-.34-.74-.17-1.55.8-1.82Z"/>
  <path d="M60.65,44.99c.7-.31,1.55.09,1.78.61.3.67.03,1.54-.58,1.82-.57.25-1.48.06-1.74-.38-.38-.65-.33-1.65.54-2.04Z"/>
  <path d="M104.68,139.75c.71-.18,1.33.35,1.46.88.22.86-.06,1.59-.75,1.69-.8.13-1.64-.19-1.78-.84-.16-.74.25-1.52,1.07-1.73Z"/>
  <path d="M74.91,55.24c.61-.23,1.54.07,1.73.59.25.68.02,1.57-.6,1.87s-1.53.02-1.81-.57c-.32-.67-.11-1.59.68-1.89Z"/>
  <path d="M67.65,68.14c-.99.44-1.9,0-2.11-.64-.27-.81.31-1.72,1.34-1.85.42-.05,1.03.46,1.16.85.17.5.01,1.47-.39,1.65Z"/>
  <path d="M10.25,145.07c.8-.34,1.61.12,1.82.81.17.57-.1,1.4-.76,1.66s-1.33,0-1.76-.79c-.25-.45-.12-1.34.69-1.69Z"/>
  <path d="M99.51,128.98c.98-.41,1.56.07,1.79.9.14.5-.16,1.4-.72,1.54-.65.16-1.52-.11-1.8-.63-.33-.6.06-1.52.74-1.8Z"/>
  <path d="M125.33,128.27c.72-.22,1.38.4,1.51,1.02.15.72-.19,1.45-.9,1.59-.58.12-1.5-.26-1.65-.74-.27-.8.22-1.62,1.04-1.88Z"/>
  <path d="M115.13,145.6c.77-.11,1.39.6,1.4,1.18.01.76-.46,1.34-1.11,1.45-.71.13-1.32-.48-1.46-1.04-.19-.75.29-1.48,1.18-1.6Z"/>
  <path d="M74.66,146.24c.61-.31,1.49-.07,1.85.46.39.57.2,1.45-.4,1.84s-1.54.24-1.84-.25c-.41-.69-.34-1.68.39-2.05Z"/>
  <path d="M118.75,105.96c.84-.26,1.51.4,1.62,1.01.13.71-.2,1.49-.91,1.61-.59.1-1.48-.31-1.66-.79-.24-.63.2-1.6.95-1.83Z"/>
  <path d="M86.52,156.41c-.39.17-1.36.12-1.69-.12-.57-.43-.45-1.47-.02-1.94.53-.58,1.43-.54,1.89-.02.55.63.64,1.73-.18,2.08Z"/>
  <path d="M110.62,75.26c.75-.08,1.42.5,1.45,1.17s-.39,1.41-1.14,1.54c-.58.1-1.34-.45-1.48-1.08-.16-.74.28-1.54,1.17-1.63Z"/>
  <path d="M85.62,75.97c.71-.32,1.55.07,1.8.58.34.69.07,1.53-.6,1.85-.52.25-1.46.07-1.73-.4-.35-.62-.29-1.65.53-2.02Z"/>
  <path d="M81.46,101.76c-.38.92-1.62,1.08-2.18.57-.66-.6-.54-1.86.37-2.32.32-.16,1.07.04,1.35.26.32.25.63,1.07.45,1.49Z"/>
  <path d="M76.56,79.08c.68-.09,1.56.34,1.65.96s-.34,1.43-.97,1.67-1.39-.23-1.57-.81c-.23-.79-.05-1.69.89-1.82Z"/>
  <path d="M23.28,125.39c.65-.24,1.54-.08,1.77.5s.06,1.54-.57,1.92c-.51.31-1.43-.06-1.79-.63s-.19-1.51.6-1.8Z"/>
  <path d="M95.04,108.25c-.55.6-1.18,1.25-1.94,1.33-.65.07-1.15-.74-1.17-1.22-.03-.54.42-1.56,1.13-1.43s1.34.74,1.98,1.32Z"/>
  <path d="M56.42,80.51c-.47.64-1.17,1.35-2.01,1.43-.64.06-1.08-.75-1.09-1.23-.01-.43.4-1.44.91-1.4.82.06,1.45.6,2.2,1.2Z"/>
  <path d="M46.97,148.98c.82-.44,1.6-.06,1.94.64.24.49,0,1.35-.55,1.64-.63.33-1.47.16-1.85-.43-.33-.49-.21-1.49.46-1.85Z"/>
  <path d="M87.37,148.9c.7-.37,1.67-.14,1.91.59.17.5-.03,1.32-.59,1.75-.5.38-1.35.16-1.79-.48-.38-.55-.31-1.44.48-1.86Z"/>
  <path d="M14.68,86.93c.64-.29,1.45.1,1.68.64.27.65.11,1.63-.5,1.84-.68.23-1.62,0-1.92-.61s.03-1.54.74-1.87Z"/>
  <path d="M105.12,86.98c.64-.33,1.51-.11,1.86.44s.19,1.48-.36,1.84-1.56.22-1.87-.27c-.4-.62-.29-1.68.37-2.02Z"/>
  <path d="M131.68,87.79c.92-.58,1.59-.12,1.92.65.23.52.08,1.31-.49,1.64-.62.36-1.46.16-1.87-.47-.28-.43-.11-1.47.44-1.82Z"/>
  <path d="M61.07,92.34c-.52.6-1.15.92-1.66.73s-.94-.92-.87-1.49c.06-.49.76-1.1,1.42-1.09.34,0,.96.36,1.17.59s.18,1-.06,1.27Z"/>
  <path d="M6.25,91.74c.72-.36,1.59-.08,1.93.67.21.47.01,1.33-.6,1.71-.52.33-1.4.18-1.8-.44-.36-.56-.28-1.57.47-1.94Z"/>
  <path d="M14.59,93.45c.73-.29,1.53.14,1.74.69.25.65-.04,1.55-.57,1.76-.67.26-1.55.04-1.78-.41-.32-.63-.24-1.7.6-2.04Z"/>
  <path d="M107.79,93.47c.69-.22,1.4.24,1.54.77.23.84.06,1.66-.77,1.79-.69.11-1.5-.1-1.76-.89-.2-.59.19-1.41.99-1.66Z"/>
  <path d="M88.68,96.14c1.02-.43,1.59.02,1.81.9.13.51-.16,1.32-.72,1.53-.71.27-1.45-.04-1.82-.71-.28-.5.03-1.43.73-1.72Z"/>
  <path d="M16.88,98.13c.1-.84.84-1.24,1.59-.97.61.21,1.14.93,1.01,1.49-.15.67-.81,1.16-1.4,1.13-.78-.04-1.32-.73-1.2-1.65Z"/>
  <path d="M33.76,145.51c-.63.32-1.57.11-1.9-.45-.27-.45-.17-1.27.23-1.67.45-.45,1.33-.45,1.78-.01.62.61.81,1.67-.11,2.13Z"/>
  <path d="M70.61,59.39c.63-.33,1.44-.04,1.71.53.3.61.21,1.57-.56,1.86-.48.18-1.44,0-1.79-.57-.32-.53-.02-1.47.64-1.81Z"/>
  <path d="M7.01,134.26c.77-.15,1.31.57,1.38,1.21.09.75-.3,1.41-1.16,1.45-.5.02-1.33-.44-1.49-1-.19-.69.49-1.51,1.27-1.66Z"/>
  <path d="M58.75,63.25c.77-.08,1.34.56,1.31,1.19-.04.75-.53,1.52-1.21,1.48s-1.29-.63-1.43-1.11c-.25-.87.34-1.46,1.33-1.56Z"/>
  <path d="M88.75,135.96c-.5-.4-.91-1.17-.77-1.65.12-.41.95-.86,1.41-.8.92.12,1.45.85,1.23,1.67-.17.62-1.03,1.44-1.88.77Z"/>
  <path d="M33.63,60.17c.24.79-.86,1.26-1.4,1.23s-1.35-.64-1.18-1.39c.16-.69.86-1.26,1.54-1.78.42.63.82,1.21,1.04,1.94Z"/>
  <path d="M82.83,133.18c.75.5.31,1.51-.17,1.95s-1.41.58-1.91-.23l-.28-1.84c-.6.06-1.49.1-1.82-.2-.4-.37-.42-1.29-.22-1.72.27-.58,1.2-.93,1.85-.42.48.38.44,1.48.39,2.18.54,0,1.68-.04,2.16.27Z"/>
  <path d="M65.48,95.9c0-.92.89-1.58,1.66-1.53.64.04,1.03.83,1,1.49-.03.49-.53,1.05-1.18,1.19-.49.1-1.48-.36-1.48-1.15Z"/>
  <path d="M64.09,134.28c-.8.48-1.43.85-2.25.85-.56,0-.91-.86-.88-1.31s.53-1.37,1.12-1.23c.84.2,1.34.87,2.01,1.69Z"/>
  <path d="M37.44,133.91c-.18.5-.99.86-1.44.85-.43,0-.97-.65-1.1-1.09-.16-.53.11-1.31.72-1.53.37-.13,1.13.09,1.4.33s.58,1,.43,1.44Z"/>
  <path d="M8.42,132.39c-.43-.12-1.13-.96-1.13-1.39,0-.8.86-1.24,1.42-1.22.8.02,1.3.66,1.28,1.38-.02.67-.44,1.55-1.57,1.24Z"/>
  <path d="M58.08,129.21c.64-.25,1.57-.06,1.76.52.22.65.01,1.54-.61,1.91-.55.33-1.44-.02-1.78-.61s-.14-1.52.63-1.82Z"/>
  <path d="M87.08,160.52c-.78.05-1.94-.48-1.84-1.42.06-.56.65-1.31,1.05-1.84l1.15,1.22c.54.57.43,1.5-.35,2.04Z"/>
  <path d="M13.87,142.48c.7-.12,1.38.66,1.44,1.17.11.87-.32,1.41-1.12,1.47-.66.04-1.39-.39-1.51-1.02-.13-.68.32-1.47,1.19-1.62Z"/>
  <path d="M89.63,102.64c-.41.42-1.1.8-1.45.72-.45-.11-.97-.67-1.08-1.07-.14-.49.19-1.27.73-1.44.47-.15,1.25-.02,1.57.26s.54,1.2.23,1.52Z"/>
  <path d="M20.84,145.82c.67-.37,1.49.14,1.74.6.39.7.16,1.53-.55,1.8-.55.21-1.46.12-1.75-.41s-.16-1.59.56-1.98Z"/>
  <path d="M28.68,129.45c-.38.53-1.59.54-2.09.14-.55-.43-.41-1.36-.05-1.84.42-.56,1.19-.61,1.73-.24.5.35.91,1.24.41,1.93Z"/>
  <path d="M60.65,113.61c.78-.27,1.52.38,1.75.95.25.62-.24,1.39-.73,1.54-.85.26-1.58.07-1.81-.7-.16-.52.04-1.52.79-1.78Z"/>
  <path d="M65.3,55.99c.75-.33,1.48.12,1.71.85.17.56-.04,1.41-.74,1.63-.55.18-1.4-.07-1.78-.68-.32-.52.1-1.49.81-1.8Z"/>
  <path d="M55.71,108.92c-.48-.14-1.16-.93-1.16-1.38,0-.85.79-1.28,1.44-1.24.69.04,1.25.68,1.24,1.32,0,.69-.44,1.6-1.52,1.29Z"/>
  <path d="M81.93,77.48c.7.65.96,1.42.46,1.98-.6.67-1.54.76-1.99.25-.69-.81-.3-1.65.38-2.22l.46-.39c.13-.11.46.18.68.38Z"/>
  <path d="M84.99,175.41c-.02-.64.74-1.48,1.42-1.55s1.26.71,1.26,1.24c0,.67-.47,1.31-1.03,1.42-.7.14-1.63-.29-1.65-1.11Z"/>
  <path d="M30.5,154.59c.25.85-.93,1.77-1.71,1.56-.92-.24-1.28-1.54-.65-2.22s2.06-.38,2.36.65Z"/>
  <path d="M111.54,136.79c-1,.38-1.92-.17-2.02-.94s.5-1.52,1.46-1.63c.43-.05,1.02.52,1.15.93.17.55-.03,1.42-.58,1.63Z"/>
  <path d="M82.95,85.01c-.57-.16-1.21-.94-1.2-1.46,0-.88.85-1.26,1.53-1.17s1.18.7,1.14,1.46c-.03.58-.58,1.42-1.47,1.18Z"/>
  <path d="M91.48,99.22c.69-.11,1.46.42,1.55,1,.12.74-.37,1.4-1.02,1.6s-1.43-.23-1.57-.73c-.24-.85.12-1.72,1.04-1.87Z"/>
  <path d="M111.36,121.57c.64-.21,1.57.02,1.75.5.27.72-.03,1.57-.61,1.87-.65.34-1.51.08-1.84-.59-.29-.58-.04-1.55.7-1.79Z"/>
  <path d="M50.08,163.38c-.65,0-1.47-.77-1.52-1.45-.05-.62.77-1.23,1.28-1.24.65-.02,1.3.51,1.38,1,.13.79-.25,1.71-1.14,1.7Z"/>
  <path d="M92.91,150.52c.64-.24,1.5.07,1.72.64.25.65.03,1.54-.59,1.82-.67.3-1.53.01-1.83-.58-.34-.68-.1-1.58.7-1.88Z"/>
  <path d="M93.39,122.36c-.67.56-1.26,1.07-2.07,1.29-.55.15-1-.73-1.04-1.18-.04-.48.24-1.39.87-1.45.91-.09,1.49.54,2.24,1.35Z"/>
  <path d="M31.44,115.54c.61-.21,1.53-.01,1.75.52.26.63.03,1.51-.6,1.86-.57.31-1.42.01-1.76-.57-.37-.64-.22-1.52.61-1.81Z"/>
  <path d="M51.83,117.26c.21,1-.69,1.55-1.32,1.46s-1.59-.91-1.16-1.69c.28-.5.73-.95,1.19-1.4.55.49,1.18,1.09,1.29,1.63Z"/>
  <path d="M83.49,120.11c.66-.32,1.47.16,1.71.67.33.66.1,1.57-.5,1.77-.69.24-1.47.05-1.79-.47-.37-.59-.29-1.55.58-1.97Z"/>
  <path d="M97.96,108.81c.75-.32,1.46.15,1.66.84.18.62-.09,1.46-.71,1.64-.66.19-1.46-.03-1.82-.7-.31-.56.12-1.46.88-1.78Z"/>
  <path d="M34.3,139.09c.64-.29,1.53-.08,1.91.41.41.53.14,1.38-.43,1.82s-1.46.35-1.82-.28c-.31-.54-.27-1.67.34-1.95Z"/>
  <path d="M50.84,48.18c.53-.1,1.47.51,1.53.98.08.61-.45,1.59-.99,1.65-.77.08-1.4-.24-1.59-.88s.12-1.57,1.05-1.74Z"/>
  <path d="M38.52,86.92c-.2,1.1-1.53,1.27-2.23.76-.31-.22-.42-1.15-.29-1.55.11-.36.66-.82,1.19-.84.6-.03,1.44,1.02,1.33,1.63Z"/>
  <path d="M97.67,142.49c-.52.38-1.28.2-1.56-.24-.24-.38-.36-1.08-.17-1.47s.92-.8,1.38-.74c.52.06,1.14.59,1.19,1,.05.45-.32,1.08-.84,1.46Z"/>
  <path d="M126.16,86.27c.87-.32,1.65.02,1.81.82.11.51-.17,1.42-.74,1.63-.68.25-1.4-.09-1.78-.76-.3-.54-.14-1.37.71-1.69Z"/>
  <path d="M5.32,117.71c.78-.1,1.44.32,1.48,1.04.03.6-.39,1.46-.87,1.58-.75.2-1.4-.36-1.6-.81-.34-.79.09-1.7.99-1.81Z"/>
  <path d="M22.5,80.72c.9-.17,1.57.25,1.61,1.02.03.59-.36,1.44-.97,1.59s-1.32-.37-1.53-.81c-.35-.73-.08-1.62.89-1.8Z"/>
  <path d="M74.45,86.46c.61-.25,1.41.19,1.64.71.29.66-.05,1.52-.57,1.71-.78.29-1.67.07-1.88-.51-.27-.73.05-1.6.81-1.91Z"/>
  <path d="M60.99,86.46c.66-.29,1.48,0,1.67.61s.12,1.58-.52,1.82c-.6.23-1.52-.05-1.8-.57-.35-.64-.07-1.53.65-1.85Z"/>
  <path d="M11.44,105.05c-.46-.29-.86-.78-.96-1.08-.12-.35.21-1.18.59-1.31.56-.19,1.26-.12,1.6.15.44.36.56,1.09.37,1.6s-.98,1.03-1.59.64Z"/>
  <path d="M54.4,165.37c-.73-.55-.85-1.71-.09-2.28.4-.3,1.41-.17,1.76.21s.37,1.19.06,1.7c-.28.47-1.21.76-1.73.37Z"/>
  <path d="M43.19,142.69c.65-.07,1.33.47,1.48,1.1s-.46,1.39-1.05,1.49c-.74.12-1.53-.37-1.62-.98-.11-.78.36-1.52,1.19-1.61Z"/>
  <path d="M98.85,153.25c.24.81-.59,1.55-1.1,1.58-.86.06-1.44-.28-1.51-1.13-.05-.56.33-1.54,1.12-1.49.44.03,1.36.63,1.49,1.05Z"/>
  <path d="M73.34,164.73c.23.88-.52,1.51-1.04,1.57-.85.08-1.5-.25-1.54-1.06-.04-.68.35-1.65,1.17-1.56.42.05,1.32.65,1.42,1.05Z"/>
  <path d="M56.35,49.29c.72-.28,1.52.32,1.75.9.21.54-.3,1.37-.76,1.56-.71.28-1.49,0-1.76-.69-.21-.55-.04-1.45.77-1.77Z"/>
  <path d="M79.03,89.81c-.62-.32-1.04-.94-1.04-1.38s.48-1.08.9-1.19c.48-.12,1.08.12,1.58.59.29.27.16,1.04-.05,1.44-.19.35-.95.77-1.39.55Z"/>
  <path d="M73.18,119.65c.65-.31,1.46.21,1.68.65.39.75.08,1.52-.54,1.75s-1.54.12-1.76-.35c-.31-.66-.19-1.66.62-2.05Z"/>
  <path d="M75.58,133.35c.66-.43,1.47-.07,1.82.46.37.56.18,1.39-.37,1.72s-1.42.29-1.72-.08c-.46-.57-.4-1.67.26-2.1Z"/>
  <path d="M100.73,83.4c.85-.18,1.6.26,1.66.97.05.61-.3,1.45-.92,1.62-.58.15-1.38-.36-1.6-.82-.32-.66-.03-1.57.87-1.76Z"/>
  <path d="M53.08,170.05c.5-.27,1.59.28,1.74.75.22.69-.19,1.37-.82,1.71-.54.29-1.34,0-1.59-.48-.36-.7-.17-1.53.67-1.99Z"/>
  <path d="M70.08,52.42l-.87.69c-.44-.64-.86-1.26-1.1-2.05-.12-.41.73-1.09,1.13-1.1.46-.01,1.07.34,1.34.76.32.5,0,1.3-.5,1.7Z"/>
  <path d="M63.53,54.32c-.7-.61-1.39-1.26-1.41-2.32,0-.43.88-.8,1.27-.79s1.33.43,1.31.84c-.04.85-.52,1.44-1.17,2.28Z"/>
  <path d="M64.32,83.15c.76-.36,1.52-.05,1.88.71.21.45-.08,1.27-.58,1.6-.61.39-1.49.29-1.83-.38-.28-.56-.15-1.6.53-1.92Z"/>
  <path d="M33.88,100.22c-.03.41-.65,1.01-1.01,1.06-.95.13-1.8-1.36-1.55-1.88.38-.81,1.68-.99,2.29-.51.23.18.31.72.27,1.33Z"/>
  <path d="M97.1,91.57c1.04-.16,1.56.32,1.54,1.19-.01.54-.4,1.37-1.13,1.46-.51.06-1.31-.56-1.48-1.07-.23-.71.22-1.44,1.06-1.58Z"/>
  <path d="M29.45,109.53c.06.88-.78,1.26-1.32,1.24-.68-.01-1.31-.53-1.34-1.21-.03-.6.52-1.42,1.24-1.43.6-.01,1.37.71,1.42,1.4Z"/>
  <path d="M72.24,114.57c.64-.26,1.56-.15,1.82.5.22.56.08,1.48-.63,1.92-.45.28-1.36-.02-1.73-.63s-.28-1.46.54-1.79Z"/>
  <path d="M70.08,94.88c.63-.2,1.55-.04,1.74.54s-.06,1.48-.62,1.83c-.6.37-1.39-.02-1.74-.61-.38-.63-.21-1.5.62-1.77Z"/>
  <path d="M79.91,122.3c.61-.13,1.43.59,1.53,1.08.13.69-.42,1.39-.94,1.5-.81.17-1.5-.2-1.58-.71-.14-.83.02-1.66.99-1.86Z"/>
  <path d="M30.81,145.68c-.19.78-1.11,1.07-1.66.93-.48-.12-1.05-.73-1.07-1.29-.02-.59.68-1.38,1.38-1.31s1.53.99,1.36,1.67Z"/>
  <path d="M25.34,158.79c-.23-.88.66-1.71,1.5-1.7.56,0,1.15.71,1.13,1.2-.03.52-.45,1.27-.87,1.42-.56.2-1.58-.24-1.76-.92Z"/>
  <path d="M90.65,154.9c.91-.29,1.52.3,1.65,1.03.11.62-.24,1.35-.97,1.58-.51.16-1.33-.31-1.52-.8-.25-.66.04-1.57.84-1.82Z"/>
  <path d="M77.53,165.74c.62-.3,1.51-.27,1.9.35.28.46.16,1.4-.42,1.86-.45.36-1.36.16-1.77-.32-.48-.57-.44-1.53.29-1.89Z"/>
  <path d="M31.63,79.61c.66-.42,1.5-.14,1.88.4s.29,1.43-.38,1.78c-.46.24-1.38.21-1.73-.11-.49-.46-.42-1.65.23-2.06Z"/>
  <path d="M62.81,178.14c-.25-.31-.33-1.31-.12-1.67.37-.63,1.38-.63,1.91-.26.55.39.64,1.24.32,1.73-.47.72-1.45,1.01-2.11.21Z"/>
  <path d="M132.02,93.49c-.66.61-1.26,1.17-2.02,1.27-.66.09-1.11-.8-1.1-1.3,0-.52.42-1.34,1.12-1.31.77.03,1.35.63,1.99,1.33Z"/>
  <path d="M37.73,171.79c-.14-.86.66-1.7,1.54-1.74.51-.02,1.11.74,1.12,1.21.01.64-.47,1.3-1.03,1.44-.64.15-1.52-.2-1.63-.91Z"/>
  <path d="M11.72,79.34c.62-.03,1.31.75,1.35,1.23.07.81-.59,1.35-1.31,1.4-.67.05-1.31-.4-1.37-1.05-.07-.69.35-1.53,1.33-1.57Z"/>
  <path d="M96.52,147.89c.66-.21,1.36.3,1.49.83.19.77-.03,1.59-.76,1.75-.66.14-1.47-.25-1.72-.89s.2-1.44.99-1.69Z"/>
  <path d="M55.91,175.87c-.51.22-1.26-.13-1.53-.49-.21-.28-.37-.89-.21-1.38.18-.57,1.01-.8,1.54-.71.42.07.91.58,1.04,1.1.11.43-.21,1.22-.84,1.48Z"/>
  <path d="M72.97,169.52c.75-.21,1.53.09,1.71.85.11.5-.22,1.44-.73,1.66-.66.27-1.42-.12-1.76-.79-.31-.61-.09-1.47.79-1.72Z"/>
  <path d="M112.57,130.94c.57-.3,1.55-.14,1.92.32.41.51.22,1.44-.42,1.91-.51.37-1.36.38-1.79-.33-.29-.48-.37-1.55.28-1.89Z"/>
  <path d="M34.99,166.01c.74-.44,1.54-.22,1.92.42.29.5.18,1.4-.4,1.78-.46.29-1.39.19-1.72-.16-.48-.51-.47-1.64.21-2.05Z"/>
  <path d="M70.27,125.41c.75-.24,1.54.08,1.67.7.14.69-.07,1.58-.83,1.79-.49.13-1.26-.2-1.58-.71-.38-.62-.22-1.46.74-1.77Z"/>
  <path d="M64.62,77.64c.48-.08,1.17.81,1.25,1.28.11.72-.58,1.36-1.3,1.37-.59,0-1.26-.48-1.36-1.08-.12-.69.35-1.4,1.42-1.58Z"/>
  <path d="M127.45,115.13c0,.6-.48,1.3-1,1.41-.39.08-1.08-.3-1.38-.7-.57-.75-.17-1.58.54-1.84.77-.29,1.83-.2,1.84,1.13Z"/>
  <path d="M60.09,79.49c-1.08.53-1.99.15-2.21-.69-.17-.65.32-1.51,1.24-1.73.49-.12,1.07.36,1.3.83.19.4.07,1.4-.33,1.59Z"/>
  <path d="M56.95,137.14c-.63.74-1.27,1.47-2.31,1.32-.43-.06-.75-.89-.74-1.29,0-.42.43-1.38.96-1.3.85.14,1.47.71,2.1,1.26Z"/>
  <path d="M54.03,125.84c.72-.15,1.35.38,1.52,1.04.16.61-.37,1.33-1.11,1.59-.51.18-1.34-.45-1.53-1.09-.17-.57.41-1.4,1.12-1.54Z"/>
  <path d="M48.89,75.96c.7-.32,1.62-.14,1.84.49.2.59.05,1.51-.6,1.9-.46.27-1.3,0-1.67-.49-.43-.56-.49-1.48.43-1.9Z"/>
  <path d="M121.35,136.93c.82-.34,1.56.01,1.72.7.14.6-.05,1.55-.83,1.77-.45.13-1.2-.17-1.61-.71-.37-.48-.07-1.43.72-1.76Z"/>
  <path d="M106.5,127.36c-.61.71-1.25,1.38-2.09,1.4-.61.01-1.02-.74-1.04-1.19s.39-1.5.95-1.43c.84.1,1.53.7,2.18,1.22Z"/>
  <path d="M105.23,60.6c-.77.12-1.65-.57-1.74-1.37-.08-.66.69-1.26,1.26-1.28.62-.02,1.27.5,1.4,1.08s-.26,1.47-.92,1.57Z"/>
  <path d="M30.77,76.81c.1-.46.85-1.28,1.3-1.32.68-.07,1.3.75,1.34,1.26.06.8-.48,1.41-1.22,1.42-.69,0-1.6-.51-1.42-1.35Z"/>
  <path d="M126.52,106.8c-.19.18-.54.59-.69.48l-.68-.51c-.54-.4-.75-1.33-.45-1.85.45-.77,1.39-.73,2-.22.67.56.59,1.36-.18,2.09Z"/>
  <path d="M51.31,136.45c.69-.33,1.53.06,1.76.59.27.61.04,1.57-.53,1.83-.59.28-1.41.03-1.74-.47-.36-.55-.3-1.57.5-1.95Z"/>
  <path d="M125.43,101.21c-.36.54-1.13,1.29-1.91,1.42s-1.18-.7-1.19-1.24c0-.45.42-1.47,1.01-1.39.68.09,1.21.58,2.09,1.21Z"/>
  <path d="M76.93,70.8c-.05.76-.55,1.27-1.28,1.25-.61-.01-1.17-.58-1.2-1.27-.04-.87.51-1.48,1.21-1.48.86,0,1.33.56,1.27,1.51Z"/>
  <path d="M112.23,93.74c1.01-.19,1.55.27,1.55,1.16,0,.52-.42,1.29-1.13,1.43-.49.09-1.26-.51-1.45-1.02-.27-.7.19-1.41,1.03-1.57Z"/>
  <path d="M39.62,130.18c.65-.11,1.46.29,1.68.9.2.58-.27,1.38-.92,1.66-.61.26-1.38-.24-1.62-.82-.3-.72,0-1.61.86-1.75Z"/>
  <path d="M108.89,111.47c.7-.32,1.49.14,1.76.67.31.59-.02,1.46-.58,1.7-.6.26-1.49.1-1.71-.34-.32-.65-.25-1.68.53-2.04Z"/>
  <path d="M27.67,106.61c.09.93-.81,1.43-1.45,1.43s-1.22-.6-1.2-1.31c.01-.66.47-1.5,1.3-1.35.45.08,1.31.8,1.35,1.23Z"/>
  <path d="M44.69,131.69c-.27-.11-.87-.71-.96-.99-.24-.8.57-1.51,1.23-1.53.84-.03,1.41.59,1.41,1.32,0,.83-.54,1.67-1.68,1.2Z"/>
  <path d="M98.61,95.38c.03-.73.81-1.44,1.44-1.46.68-.03,1.18.65,1.23,1.22.06.68-.45,1.33-1.19,1.43-.5.06-1.52-.27-1.48-1.19Z"/>
  <path d="M108.73,129.19c.65-.2,1.51,0,1.73.62s-.09,1.52-.6,1.82c-.66.39-1.48-.06-1.79-.6-.41-.72-.21-1.56.66-1.84Z"/>
  <path d="M53.34,72.1c.55-.27,1.5,0,1.7.53.22.61-.02,1.52-.6,1.87-.54.32-1.42-.04-1.79-.6s-.06-1.43.69-1.8Z"/>
  <path d="M82.29,59.89c-.04.6-.92.87-1.31.85-.43-.02-1.34-.46-1.26-.97.13-.85.73-1.51,1.24-2.09.69.56,1.41,1.14,1.34,2.22Z"/>
  <path d="M84.72,73.95c-.13.64-.99.99-1.54.83-.43-.13-1.09-.72-1.07-1.16.02-.51.53-1.37.98-1.45.99-.17,1.85.72,1.63,1.77Z"/>
  <path d="M62.2,167.14c.64-.37,1.39-.08,1.78.5.35.52.26,1.41-.37,1.73-.56.28-1.56.21-1.84-.22-.41-.62-.18-1.66.44-2.01Z"/>
  <path d="M19.12,143.92c0,.64-.83,1.11-1.31,1.09-.65-.03-1.24-.52-1.33-1.14-.09-.59.28-1.46.94-1.52.83-.07,1.7.57,1.69,1.57Z"/>
  <path d="M65.47,112.35c-.66-.21-.8-1.08-.56-1.65.2-.48.98-1.08,1.55-.84.74.3,1.13,1.16.92,1.79-.19.58-1.06.98-1.91.71Z"/>
  <path d="M47.17,104.48c-.18.91-1.53,1.05-2.12.63-.75-.54-.62-2,.31-2.34.78-.28,2,.77,1.81,1.71Z"/>
  <path d="M25.91,146.53c.6-.13,1.46.2,1.69.66.31.62-.13,1.46-.58,1.71-.73.41-1.58.05-1.79-.54-.27-.73-.19-1.65.68-1.83Z"/>
  <path d="M119.92,92.77c.86-.16,1.48.54,1.53,1.17.06.71-.32,1.38-1.14,1.51-.61.1-1.21-.37-1.42-1.12-.14-.52.26-1.41,1.03-1.56Z"/>
  <path d="M106.31,165.74c.61-.05,1.26.79,1.32,1.29.09.72-.65,1.27-1.18,1.36-.84.14-1.4-.48-1.45-1.03-.07-.81.3-1.54,1.31-1.62Z"/>
  <path d="M21.33,157.45c-.71.36-1.74.17-2.05-.61-.21-.51.2-1.37.61-1.64.59-.4,1.37-.07,1.8.53.32.46.29,1.39-.36,1.72Z"/>
  <path d="M66.67,139.56c-.15-.26-.14-.97.05-1.2.22-.27.92-.56,1.36-.55.59,0,1.16.59,1.16,1.04,0,.61-.41,1.32-.86,1.48-.66.24-1.33-.1-1.71-.77Z"/>
  <path d="M110.37,142.18c.06.93-.71,1.28-1.35,1.27s-1.24-.43-1.29-1.03.31-1.38.91-1.6c.76-.27,1.66.45,1.73,1.35Z"/>
  <path d="M70.03,133.84c-.11.58-1.04.98-1.49.91-.75-.11-1.09-.72-1.07-1.43.02-.67.52-1.33,1.31-1.22.71.09,1.43.77,1.25,1.74Z"/>
  <path d="M101.55,122.77c.74-.17,1.31.43,1.44,1.1.13.64-.23,1.46-.97,1.53-.65.07-1.42-.38-1.6-1.06-.15-.58.42-1.42,1.13-1.58Z"/>
  <path d="M43.84,92.33c.75-.23,1.54.43,1.68.95.19.69-.26,1.38-.92,1.58s-1.42-.09-1.6-.78c-.15-.55.11-1.53.84-1.76Z"/>
  <path d="M88.47,112.77c.03.52-.91,1.16-1.36,1.14-.54-.03-1.16-.6-1.27-1.05-.17-.67.23-1.58,1.02-1.64.71-.05,1.55.56,1.61,1.55Z"/>
  <path d="M56.75,146.25c-.17-.85.6-1.79,1.54-1.75.59.03,1.12.81,1.07,1.3-.06.62-.55,1.2-1.01,1.28-.67.12-1.47-.19-1.6-.83Z"/>
  <path d="M59.97,164.06c.64-.09,1.34.71,1.43,1.22.13.75-.52,1.28-1.16,1.44-.75.19-1.34-.36-1.43-1.06s.19-1.46,1.16-1.6Z"/>
  <path d="M84.72,117.52c-.8.68-2.22.24-2.33-.76-.06-.54.73-1.46,1.35-1.56.44-.07,1.06.45,1.2.79s.11,1.26-.22,1.54Z"/>
  <path d="M37.98,122.26c-.05,1.14-1.71,1.3-2.27.65-.6-.7-.29-2.19.74-2.3.58-.06,1.55.94,1.52,1.65Z"/>
  <path d="M103.84,157.6c.86-.39,1.66-.09,1.85.7.12.53-.1,1.38-.77,1.71-.51.26-1.26-.11-1.75-.78-.31-.42-.09-1.29.67-1.63Z"/>
  <path d="M59.47,170.28c.66-.33,1.5.17,1.76.62.39.68.07,1.48-.57,1.77-.58.26-1.46.15-1.74-.4s-.2-1.61.55-1.99Z"/>
  <path d="M88.79,152.27c.63-.14,1.4.56,1.51,1.07.17.77-.39,1.41-1.13,1.55-.58.1-1.38-.27-1.5-.8-.17-.74.19-1.61,1.12-1.82Z"/>
  <path d="M115.22,134.77c.65-.34,1.53-.23,1.83.43.22.5.08,1.5-.6,1.95-.44.29-1.29-.02-1.75-.67-.3-.43-.14-1.35.52-1.7Z"/>
  <path d="M88.59,143.62c.67-.2,1.38.37,1.62.98s-.25,1.32-.73,1.47c-.76.23-1.63.04-1.82-.61s.13-1.59.93-1.84Z"/>
  <path d="M50.41,108.31c.61-.22,1.38.09,1.67.63.34.64.08,1.39-.6,1.71s-1.38.06-1.71-.53c-.39-.68-.21-1.51.64-1.81Z"/>
  <path d="M16.37,152.5c.75-.05,1.31.58,1.29,1.24s-.5,1.38-1.08,1.41c-.68.03-1.4-.55-1.51-1.05-.17-.74.46-1.54,1.31-1.59Z"/>
  <path d="M89.66,162.92c.08.59-.65,1.2-1.08,1.23-.6.05-1.37-.21-1.48-.63-.17-.67-.02-1.62.54-1.84.87-.34,1.87.12,2.02,1.24Z"/>
  <path d="M63.28,62.91c-.34-.51-.22-1.52.27-1.92.55-.45,1.39-.25,1.79.21.45.52.35,1.37-.09,1.83-.51.52-1.53.53-1.97-.12Z"/>
  <path d="M41.02,172.19c0-.92.84-1.64,1.65-1.57.61.06,1.03.79,1.02,1.32-.02.64-.53,1.25-1.15,1.35-.55.09-1.5-.37-1.51-1.11Z"/>
  <path d="M100.95,136.07c-.73-.03-1.26-.31-1.45-.59-.2-.3-.29-1.16-.09-1.45.36-.54,1.09-.7,1.59-.5.44.18.94.73.93,1.18s-.53,1.38-.98,1.36Z"/>
  <path d="M86.9,59.83c-.1.51-1.03,1.2-1.51,1.16-.99-.09-1.44-1.52-.78-2.29.25-.29,1.1-.37,1.49-.26s.93.79.81,1.4Z"/>
  <path d="M52.08,65.58c.67-.25,1.56-.14,1.84.51.22.52.07,1.5-.63,1.9-.46.26-1.34-.05-1.74-.67-.35-.53-.25-1.45.54-1.75Z"/>
  <path d="M95.12,69.16c.03.96-.85,1.37-1.45,1.35-.7-.02-1.22-.58-1.19-1.28.03-.65.47-1.48,1.3-1.33.44.08,1.33.81,1.34,1.25Z"/>
  <path d="M110.9,70.5c-.17.97-.98,1.39-1.62,1.28-.82-.15-1.29-.94-.94-1.95.16-.45.98-.69,1.53-.59.47.08,1.13.74,1.04,1.26Z"/>
  <path d="M93.01,170.43c-1.2-.14-1.68-1.21-1.2-2.09.23-.41,1.11-.69,1.49-.51.49.23.97.8.96,1.22-.02.63-.57,1.46-1.25,1.38Z"/>
  <path d="M16.36,74.73c-.49-.02-1.28-.69-1.38-1.22-.1-.58.58-1.33,1.05-1.42.72-.15,1.45.44,1.56,1.04.13.71-.18,1.64-1.23,1.6Z"/>
  <path d="M44.89,136.69c.48-.05,1.39.53,1.46.98.09.62-.47,1.49-1.04,1.61-.65.14-1.36-.47-1.52-1.04-.21-.73.24-1.46,1.11-1.55Z"/>
  <path d="M9.29,108.57c-.51.42-1.31.36-1.65-.05-.29-.35-.46-1.07-.31-1.45.2-.51.89-.89,1.49-.8.45.06,1.04.57,1.11.93s-.23,1.03-.64,1.37Z"/>
  <path d="M113.71,161.41c-.67.55-1.48.07-1.79-.42-.48-.76-.01-1.48.8-1.98.56-.34,1.25.04,1.52.65.23.51.05,1.28-.53,1.76Z"/>
  <path d="M61.8,155.59c-.14.67-1.13.99-1.67.83-.43-.12-.99-.76-1.06-1.28-.06-.45.61-1.25,1.12-1.31.88-.1,1.82.77,1.6,1.76Z"/>
  <path d="M26.6,99.99c.6-.14,1.46.54,1.56,1.05.12.66-.45,1.36-.94,1.5-.79.21-1.49-.19-1.59-.69-.16-.84.04-1.64.97-1.85Z"/>
  <path d="M134.34,126.73c-.48.04-1.28-.72-1.42-1.16-.19-.6.31-1.38,1.07-1.6.57-.17,1.33.54,1.46,1.03.16.62-.03,1.63-1.11,1.73Z"/>
  <path d="M108.73,125.16c.11.67-.7,1.44-1.37,1.4-.75-.05-1.32-.44-1.26-1.33.04-.57.47-1.5,1.33-1.29.4.09,1.23.76,1.3,1.23Z"/>
  <path d="M97.52,124.71c-.46-.16-1.14-.91-1.13-1.33.01-.86.75-1.24,1.36-1.23.74,0,1.34.64,1.34,1.31,0,.76-.49,1.62-1.57,1.25Z"/>
  <path d="M114.17,101.99c-1.09-.38-.96-1.33-.56-1.92.37-.55,1.3-.97,1.9-.36.34.35.59,1.21.42,1.57-.21.47-1.22.89-1.75.71Z"/>
  <path d="M55.96,120.61c.74-.13,1.3.55,1.38,1.19.08.71-.32,1.36-1.16,1.46-.49.06-1.21-.45-1.43-1.04-.24-.66.43-1.47,1.21-1.6Z"/>
  <path d="M84.26,49.31c.73-.2,1.45.3,1.62.99.12.48-.36,1.38-.93,1.62-.45.19-1.4-.32-1.58-.78-.26-.66.12-1.61.89-1.82Z"/>
  <path d="M133.64,121.05c.2.88-.84,1.14-1.34,1.15-.46,0-1.26-.35-1.25-1.03.02-.82.68-1.46,1.39-2.04.5.57,1.04,1.2,1.2,1.92Z"/>
  <path d="M119.07,84.62c.63-.31,1.53-.19,1.79.47.21.52.08,1.46-.58,1.9-.46.31-1.31,0-1.78-.66-.32-.46-.14-1.36.57-1.7Z"/>
  <path d="M53.93,86.97c-.17.36-.8.76-1.1.76-.67,0-1.41-1.06-1.44-1.68-.01-.3.52-.81.85-.91.41-.13,1.17-.04,1.44.18.32.25.5,1.12.24,1.64Z"/>
  <path d="M127.21,108.12c.59-.34,1.47-.08,1.85.41s.23,1.38-.37,1.83c-.55.41-1.4.35-1.8-.33-.29-.5-.31-1.54.32-1.9Z"/>
  <path d="M96.71,49.25c.37.69-.26,1.44-.7,1.57-.77.22-1.56.07-1.82-.69-.16-.48.02-1.54.67-1.73.46-.14,1.6.37,1.85.85Z"/>
  <path d="M29.49,87.04c.71-.44,1.47-.08,1.83.49.42.67.24,1.27-.41,1.69-.56.36-1.4.3-1.68-.08-.47-.64-.44-1.66.26-2.1Z"/>
  <path d="M68.35,117.99c.46.97-.6,1.43-1.14,1.48-1.01.09-1.4-.53-1.42-1.3-.03-.91.98-1.58,1.7-1.23.26.13.72.75.87,1.05Z"/>
  <path d="M83.3,141.95c.47-.74,1.04-1.36,1.82-1.3.71.05,1.07.96.98,1.53-.09.62-.69,1.15-1.31,1.14-.73-.01-1.21-.47-1.48-1.38Z"/>
  <path d="M46.15,49.43c-.54.93-1.67,1.33-2.32.52-.33-.41-.26-1.29.04-1.79.22-.38,1.09-.52,1.6-.27.43.21.93,1.12.68,1.54Z"/>
  <path d="M113.81,114.13c.52-.19,1.42.53,1.51,1.01.14.72-.36,1.42-.98,1.57-.65.17-1.38-.28-1.55-.75-.32-.84.01-1.47,1.02-1.84Z"/>
  <path d="M36.43,112c-.3-.31-.25-1.25.04-1.63.24-.33,1.02-.68,1.44-.54.89.28,1.18,1.46.65,2.05-.47.52-1.43.84-2.12.13Z"/>
  <path d="M63.48,94.5c.3.67-.26,1.34-.74,1.52-.38.15-1.23.08-1.51-.26-.65-.8-.19-2.14.71-2.29.43-.07,1.32.55,1.54,1.03Z"/>
  <path d="M38.89,106.5c-.44-.54-.41-1.64.13-2.1.4-.36,1.46-.27,1.73.09.36.49.35,1.45,0,1.94-.34.46-1.42.6-1.85.08Z"/>
  <path d="M27.35,113.94c-.11.44-.61.99-.91.99-.78,0-1.63-1.05-1.66-1.75-.01-.34.68-.86,1.05-.89s1.07.08,1.28.28c.24.23.36.89.24,1.38Z"/>
  <path d="M82.58,151.49c.66-.23,1.38.14,1.67.71.33.66,0,1.36-.62,1.69-.66.36-1.46.02-1.74-.55-.34-.69-.08-1.58.7-1.84Z"/>
  <path d="M126.9,93.99c.69-.1,1.48.63,1.5,1.15.03.77-.42,1.41-1.18,1.48-.62.06-1.33-.38-1.45-1.02s.29-1.48,1.13-1.6Z"/>
  <path d="M59.84,99.05c.13-1.04,1.45-1.7,2.16-1.06.38.34.54,1.17.37,1.54-.22.47-.87.87-1.34.84-.56-.03-1.28-.63-1.19-1.32Z"/>
  <path d="M25.43,142.89c.68-.28,1.55-.19,1.86.47.22.49.02,1.5-.63,1.92-.44.29-1.31-.03-1.75-.63-.37-.5-.21-1.47.52-1.76Z"/>
  <path d="M49.93,127.31c.17.85-.64,1.42-1.2,1.46-.7.05-1.31-.33-1.41-1.03-.08-.56.27-1.44.98-1.63.49-.13,1.52.66,1.63,1.2Z"/>
  <path d="M25.21,121.98c.06-.6.96-1.44,1.52-1.34.62.11,1.12.91,1.11,1.4,0,.66-.53,1.19-1.15,1.24s-1.6-.24-1.49-1.3Z"/>
  <path d="M100.43,115.21c-.25.46-.99.78-1.45.76-.4-.02-.86-.67-1.02-1.21-.12-.4.26-.99.83-1.3.35-.19,1.12-.08,1.45.17s.51,1.02.2,1.59Z"/>
  <path d="M118.92,142.42c-.24-.81.87-1.81,1.66-1.64.51.11.98.95.94,1.39-.05.55-.54,1.18-1.03,1.24-.55.07-1.37-.3-1.58-.98Z"/>
  <path d="M78.48,48.1c.64-.24,1.44.14,1.72.62.38.65.08,1.44-.57,1.79s-1.44.16-1.77-.63c-.21-.51-.1-1.51.62-1.77Z"/>
  <path d="M102.79,99.92c-.42.41-1.21.3-1.54-.03-.35-.35-.55-1.05-.38-1.51.14-.37.82-.85,1.31-.85s1.12.49,1.28.92c.13.35-.19.99-.67,1.47Z"/>
  <path d="M101.68,162.31c-.8-.46-.67-1.74,0-2.27.4-.3,1.26-.16,1.6.21.41.43.52,1.13.27,1.58-.33.59-1.22.85-1.88.48Z"/>
  <path d="M24.13,103.32c0,.63-.85,1-1.25.97-.48-.04-1.48-.49-1.39-1.08.12-.75.73-1.36,1.32-1.99.59.48,1.32,1.13,1.32,2.1Z"/>
  <path d="M75.03,172.18c.85-.33,1.67.04,1.82.81.1.49-.25,1.33-.8,1.59-.6.29-1.35-.1-1.73-.72-.34-.55-.13-1.37.7-1.69Z"/>
  <path d="M80.85,158.57c-.11.47-.97,1.05-1.39,1.06-.44,0-1.04-.54-1.21-.95-.26-.61.06-1.38.75-1.62.84-.3,2.1.44,1.86,1.51Z"/>
  <path d="M52.7,134.35c-.11.46-.95,1.18-1.4,1.2-.75.04-1.18-.82-1.21-1.33-.05-.82.49-1.36,1.34-1.35.66,0,1.45.7,1.26,1.47Z"/>
  <path d="M120.24,144.85c.85-.02,1.29.59,1.2,1.42-.06.56-.58,1.21-1.33,1.21-.51,0-1.21-.68-1.3-1.25-.12-.74.65-1.36,1.43-1.38Z"/>
  <path d="M7.36,103.77c-.33.37-1.23.72-1.6.6-.82-.25-.95-1.2-.67-1.92.19-.49,1.1-.71,1.68-.47s1.18,1.13.59,1.79Z"/>
  <path d="M23.3,86.93c-.04.48-.81,1.02-1.21,1.04-.6.03-1.26-.29-1.42-.85-.13-.47.17-1.44.6-1.6,1-.36,2.12.29,2.03,1.41Z"/>
  <path d="M113.03,64.29c-.29.89-1.58,1.02-2.24.46-.34-.29-.4-1.15-.2-1.49.27-.47,1.01-.96,1.57-.72.46.19,1.04,1.25.87,1.75Z"/>
  <path d="M49.91,87.23c-.58.91-1.72.8-2.35.28-.41-.82.08-1.95.96-2.23.31-.1.96.24,1.16.48.24.27.44,1.12.22,1.48Z"/>
  <path d="M81.22,166.04c-.61-.01-1.18-.33-1.36-.61s-.29-1.07-.13-1.36c.3-.56,1.07-.77,1.61-.58.46.17.94.7.94,1.24,0,.44-.46,1.32-1.06,1.31Z"/>
  <path d="M73.36,157.75c-.42-.14-1.15-.67-1.18-1.02-.06-.81.67-1.54,1.32-1.53.83.01,1.39.47,1.36,1.38-.02.6-.48,1.52-1.5,1.17Z"/>
  <path d="M74.12,129.59c-.28-.12-.65-.81-.58-1.08.07-.32.41-.81.77-1.13.44-.38,1.25-.16,1.57.28.28.38.35,1.11.09,1.55-.29.5-1.11.7-1.85.38Z"/>
  <path d="M25.68,67.54c-.64-.13-1.13-.41-1.31-.69s-.23-1.15-.04-1.42c.32-.44,1.09-.65,1.47-.49.56.23,1.08.78,1.02,1.38-.05.44-.62,1.33-1.14,1.22Z"/>
  <path d="M47.4,80.96c.23.52-.21,1.41-.73,1.67-.43.22-1.26-.09-1.55-.47-.44-.57-.41-1.51.28-1.87s1.67-.07,2,.67Z"/>
  <path d="M65.82,106.54c.55-.06,1.5,1.41,1.11,2.12-.15.27-.79.5-1.24.5s-1.06-.39-1.24-.75.06-1.15.44-1.45c.21-.17.71-.39.94-.41Z"/>
  <path d="M80.88,128.12c-.56.78-1.58.23-1.82-.26-.39-.78-.25-1.68.59-1.95.64-.2,1.75.17,1.76,1.02,0,.27-.31.88-.53,1.19Z"/>
  <path d="M25.46,76.16c.19.36-.4,1.16-.75,1.32-.39.17-1.16.18-1.57-.2-.71-.64-.03-2.42.77-2.34.56.05,1.22.58,1.55,1.22Z"/>
  <path d="M81.4,70.07c-.55-.11-1.26-.88-1.29-1.33-.03-.5.52-1.22,1.13-1.37s1.35.52,1.47,1.01c.16.69-.15,1.92-1.31,1.7Z"/>
  <path d="M82.57,170.13c.07.71-1.17,1.53-1.8,1.22-.31-.16-.72-.87-.83-1.2-.12-.37.29-1.2.7-1.36.84-.32,1.82.35,1.92,1.34Z"/>
  <path d="M90.02,72.56c.79-.14,1.48.27,1.54,1,.05.63-.29,1.36-.98,1.63-.48.19-1.28-.37-1.48-.83-.32-.73.07-1.65.92-1.81Z"/>
  <path d="M2.76,127.77c-.64-.47-1.28-1.37-1.23-2.26.02-.38.82-.75,1.2-.78s1.21.35,1.29.77c.17.99-.48,1.61-1.25,2.27Z"/>
  <path d="M20.68,111.3c-.16.97-.98,1.39-1.64,1.28-.77-.13-1.28-.97-.94-1.93.17-.47.99-.71,1.52-.61.47.09,1.14.74,1.06,1.26Z"/>
  <path d="M129.9,125.04c-.13.72-1,1.1-1.59.9-.42-.15-1.05-.72-1.04-1.19,0-.55.62-1.5,1.25-1.44.87.09,1.54.82,1.37,1.73Z"/>
  <path d="M22.82,71.6c-.16.34-.96.59-1.3.53s-1.11-.49-1.14-.87c-.05-.77.86-1.82,1.57-1.77.85.07,1.28,1.21.86,2.1Z"/>
  <path d="M31.97,114.33c-.68-.52-.53-1.71.17-2.24.47-.35,1.26-.12,1.63.32.4.46.45,1.25.04,1.72-.38.44-1.31.6-1.84.2Z"/>
  <path d="M21.42,119.52c-.97.01-1.3-.67-1.26-1.34s.58-1.13,1.4-1.09c.64.03,1.25.57,1.3,1.12.06.67-.59,1.3-1.44,1.31Z"/>
  <path d="M40.52,118.88c.78-.24,1.49.19,1.58.8.1.69-.23,1.57-.82,1.74s-1.38-.26-1.61-.71c-.38-.72-.08-1.54.85-1.84Z"/>
  <path d="M101.53,168.52c.55.37.45,2.12-.38,2.42-.62.23-1.88-.81-1.92-1.63-.02-.37.67-.93,1.09-.98.38-.05.98.03,1.21.19Z"/>
  <path d="M47.64,98.15c.21.45-.21,1.26-.54,1.47-.35.21-1.29.26-1.59-.02-.6-.58-.53-1.96.39-2.32.43-.17,1.47.29,1.75.88Z"/>
  <path d="M71.18,144.42c.12.47-.57,1.1-.93,1.18-.39.09-1.13,0-1.47-.36-.26-.27-.24-1.27-.05-1.59s.83-.76,1.19-.67c.47.11,1.09.8,1.25,1.44Z"/>
  <path d="M29.89,97.87c-.31.35-1.02.46-1.37.38-.38-.09-1.08-.63-1.05-1.04.05-.57.65-1.33,1.14-1.56.34-.16,1.07.26,1.27.55.24.35.32,1.31,0,1.66Z"/>
  <path d="M39.35,139.51c.71-.22,1.32.29,1.54.89.24.66-.18,1.43-.83,1.6-.58.15-1.32-.23-1.55-.65-.43-.76-.18-1.51.84-1.83Z"/>
  <path d="M114.13,140.19c-.41.7-1.12,1.27-2.01,1.01-.48-.14-.77-1.04-.66-1.49.14-.6.72-1.27,1.47-1.08.54.13.9.85,1.2,1.56Z"/>
  <path d="M81.8,55.6c-.02.37-.5,1.01-.78,1.11s-.83-.06-1.16-.3c-.42-.32-.75-1.09-.59-1.47.21-.51.94-.92,1.38-.86.64.08,1.2.61,1.15,1.53Z"/>
  <path d="M96.42,62c-.06.46-.45,1.09-.73,1.18-.69.23-1.93-.83-1.94-1.61,0-.45.89-1.23,2.1-.89.31.09.64.82.57,1.32Z"/>
  <path d="M66.31,123.17c-.56-.26-.77-1.17-.55-1.72.17-.42.94-.97,1.46-.82.73.21,1.15,1.2.94,1.73-.27.67-1.1,1.14-1.84.8Z"/>
  <path d="M88.06,170.73c-.21.34-.97.55-1.32.52s-1.09-.5-1.14-.86c-.08-.69.57-1.64,1.14-1.73.33-.05.99.29,1.21.54.25.28.36,1.14.11,1.54Z"/>
  <path d="M91.86,173.13c0,.73-1.05.86-1.5.8s-1.23-.69-1.05-1.3c.21-.67.84-1.19,1.45-1.67.5.54,1.1,1.27,1.09,2.17Z"/>
  <path d="M84.08,164.54c-.05-.5.59-1.32,1.13-1.5.72-.24,1.33.45,1.45,1.08s-.36,1.39-1.03,1.56c-.61.15-1.47-.34-1.55-1.14Z"/>
  <path d="M16.8,103.4c.33.6-.29,1.38-.76,1.46-.67.11-1.51-.18-1.67-.63-.25-.7.04-1.48.6-1.81.21-.13.93-.32,1.1-.16.21.19.41.54.74,1.14Z"/>
  <path d="M37.49,103.85c-.12.43-.89,1.11-1.33,1.2-.79.16-1.27-.78-1.3-1.3-.05-.84.52-1.29,1.23-1.34s1.62.66,1.4,1.44Z"/>
  <path d="M34.21,67c-.51-.04-1.31-1.04-1.23-1.55.09-.61.89-1.1,1.4-1.11.74-.01,1.16.56,1.21,1.33.03.55-.53,1.39-1.38,1.33Z"/>
  <path d="M35.52,127.64c-.64-.11-1.11-.71-1.04-1.28.06-.5.62-1.02,1.18-1.08.93-.1,1.45.38,1.5,1.07.06.88-.41,1.5-1.64,1.29Z"/>
  <path d="M115.17,110.43c-.07.47-.93,1.16-1.47,1.19-.71.04-1.14-.83-1.14-1.37,0-.78.56-1.28,1.28-1.29s1.47.59,1.33,1.47Z"/>
  <path d="M97.3,165.99c.05.69-.65,1.47-1.22,1.64-.33.1-.96-.24-1.15-.52-.23-.35-.32-1.27-.06-1.68.2-.31.98-.5,1.32-.45s1.07.55,1.1,1Z"/>
  <path d="M40.09,68.23c-.07-.74.72-1.52,1.37-1.55.76-.04,1.23.67,1.21,1.35-.01.53-.5,1.14-1.09,1.28-.53.12-1.41-.27-1.49-1.08Z"/>
  <path d="M69.83,105.46c.56-.27,1.43.17,1.69.63.37.68.07,1.41-.6,1.74-.61.3-1.27.14-1.6-.42-.36-.6-.43-1.5.51-1.94Z"/>
  <path d="M94.75,148.21c-.07.44-.56,1.04-.87,1.02-.84-.06-1.75-1.01-1.74-1.75,0-.57,1.31-1.27,2.3-.67.27.16.39.85.31,1.4Z"/>
  <path d="M22.11,106.16c.63-.32,1.4.05,1.7.61.34.66.18,1.45-.64,1.79-.48.2-1.45.03-1.74-.54-.31-.6,0-1.53.68-1.87Z"/>
  <path d="M52.61,166.8c.15.37-.28,1.17-.58,1.37-.34.24-1.23.32-1.56.03-.69-.62-.59-1.9.2-2.3.6-.31,1.62.14,1.93.91Z"/>
  <path d="M13.21,106.66c.15-.7,1.11-1.31,1.76-1.15.56.13.96.93.88,1.41-.11.68-.72,1.13-1.38,1.13-.58,0-1.47-.45-1.26-1.39Z"/>
  <path d="M84.99,110.21c-.44.48-1.23.48-1.7.01-.37-.37-.52-1.05-.19-1.57.48-.77,1.19-.88,1.93-.44.61.36.7,1.2-.03,1.99Z"/>
  <path d="M41.62,83.87c-.51-.19-1.14-1.01-1.04-1.5.14-.71.93-1.17,1.47-1.05.59.13,1.16.79,1.12,1.32-.06.74-.49,1.61-1.54,1.23Z"/>
  <path d="M130.37,130.15c-.64-.49-.55-1.72.14-2.24.45-.33,1.35-.15,1.57.24.28.51.38,1.3.18,1.69-.29.58-1.37.7-1.89.3Z"/>
  <path d="M97.74,170.37c-.29.84-1.28.89-1.88.72s-.8-1-.6-1.7c.15-.51,1.02-1.14,1.68-.72.42.27.96,1.24.8,1.7Z"/>
  <path d="M71,110.32c.63-.16,1.35.69,1.44,1.18.13.69-.47,1.3-1.15,1.44-.59.12-1.33-.39-1.44-1.04-.09-.54.36-1.39,1.15-1.59Z"/>
  <path d="M111.31,146.53c.07.78-.85,1.29-1.36,1.27-.62-.03-1.26-.54-1.34-1.07-.09-.64.38-1.45,1.06-1.54s1.57.58,1.64,1.34Z"/>
  <path d="M41.03,110.51c.64-.39,1.4.08,1.71.6.36.59.1,1.47-.58,1.76-.45.19-1.21-.04-1.64-.45-.47-.45-.25-1.45.51-1.91Z"/>
  <path d="M35.96,70.4c.75-.25,1.37.19,1.6.82s-.08,1.41-.84,1.67c-.46.16-1.23-.23-1.51-.69-.4-.67-.24-1.46.75-1.8Z"/>
  <path d="M40.17,154.56c-.22.28-.98.4-1.31.32s-1.04-.64-1.01-1.01c.06-.75,1-1.66,1.69-1.57.93.11,1.22,1.53.64,2.27Z"/>
  <path d="M70.03,114.21c-.09.48-.97,1.23-1.42,1.24-.8.03-1.19-.8-1.19-1.34,0-.83.49-1.36,1.29-1.33.64.02,1.47.68,1.33,1.42Z"/>
  <path d="M120.83,135.39c-.62.47-1.48-.05-1.73-.54-.3-.57-.19-1.44.45-1.81.55-.32,1.38.05,1.78.53.31.38.14,1.34-.49,1.82Z"/>
  <path d="M111.05,120.46c-.07.41-.88.73-1.29.71s-1.28-.47-1.29-.9c-.02-.86.86-1.7,1.63-1.73s1.13.93.95,1.92Z"/>
  <path d="M24.88,90.15c-.37-1.04.8-1.88,1.72-1.62.44.13.92.88.86,1.3s-.61,1.15-1.03,1.27-1.36-.42-1.55-.95Z"/>
  <path d="M48.96,91.31c.54-.29,1.47.17,1.7.63.27.55-.05,1.49-.56,1.76-.58.3-1.38.07-1.67-.46s-.31-1.48.53-1.92Z"/>
  <path d="M69.12,150.87c.62-.05,1.24.86,1.21,1.41-.04.64-.69,1.22-1.36,1.18-.53-.03-1.25-.7-1.32-1.21-.09-.71.56-1.31,1.47-1.38Z"/>
  <path d="M69.23,170.63c-.54-.18-1.04-.59-1.1-.89s.19-1.01.46-1.23c.43-.34,1.18-.49,1.51-.27.5.32.84.98.7,1.41-.18.54-.89,1.22-1.57.98Z"/>
  <path d="M38.01,161.01c-.43.38-1.35.36-1.74.14-.33-.19-.55-.87-.53-1.33.01-.43.69-.91,1.33-1.09.36-.1.91.46,1.05.78.18.38.24,1.2-.11,1.51Z"/>
  <path d="M78.53,118.99c-.76.06-1.45-.35-1.56-.81-.18-.74.18-1.44.95-1.59s1.5.16,1.63.9c.09.56-.11,1.42-1.02,1.49Z"/>
  <path d="M48.33,159.53c-.15.38-.95.97-1.35,1.02-.89.1-1.24-.87-1.2-1.55.05-.73.7-1.13,1.5-1.03.55.07,1.31.85,1.04,1.56Z"/>
  <path d="M131.17,141.15c-.33.7-.73,1.51-1.13,2.15-.22.37-1.35.01-1.52-.36-.19-.41-.16-1.27.21-1.71.57-.67,1.65-.44,2.44-.09Z"/>
  <path d="M54.43,99.86c-1.15-.16-1.64-.98-1.36-1.74.22-.61,1.08-1.14,1.8-.65.42.28.79.87.73,1.25-.07.54-.64,1.22-1.18,1.14Z"/>
  <path d="M55.52,144.17c.28.77.14,1.58-.57,1.86-.46.18-1.29,0-1.74-.66-.3-.43.13-1.24.71-1.66s1.34-.27,1.6.45Z"/>
  <path d="M125.31,126.07c.36.83-.35,1.9-1.34,1.89-.4,0-.98-.62-1.07-.99-.11-.46.06-1.32.53-1.55.57-.26,1.66.15,1.87.65Z"/>
  <path d="M81.07,110.79c.63-.08,1.42.66,1.46,1.18.05.68-.49,1.3-1.17,1.47-.56.14-1.24-.51-1.39-1.07-.17-.64.23-1.46,1.11-1.57Z"/>
  <path d="M39.54,94.42c-.49.6-1.4.73-1.83.4-.51-.39-.84-1.21-.43-1.79.39-.54,1.23-.67,1.71-.42.59.3,1.09,1.15.56,1.81Z"/>
  <path d="M127.7,101.9c-.54-.06-1.17-.83-1.2-1.27-.05-.58.53-1.35,1.17-1.38.69-.03,1.44.64,1.42,1.16-.02.7-.35,1.6-1.38,1.49Z"/>
  <path d="M39.05,54.94c-.68.8-1.7,1.23-2.35.41-.51-.65.08-2.05.94-2.18s1.59.97,1.4,1.77Z"/>
  <path d="M70.77,147.69c.6-.29,1.46.28,1.63.77.24.7-.04,1.43-.85,1.69-.47.15-1.18-.08-1.58-.68-.29-.44.02-1.39.8-1.77Z"/>
  <path d="M81.91,173.8c.35.64-.27,1.75-.95,1.95-.42.12-1.18-.32-1.37-.68-.21-.39-.15-1.35.17-1.59.6-.45,1.75-.42,2.16.33Z"/>
  <path d="M44.74,156.17c-.48.22-.98.11-1.23-.24-.54-.76-.59-1.69.19-2.08.49-.25,1.49-.13,1.83.5.32.6-.06,1.5-.8,1.82Z"/>
  <path d="M51.87,104.26c-.44.11-1.2-.04-1.44-.31s-.32-1.08-.19-1.48.91-.67,1.47-.6c.49.06,1.05.6,1.09.98.07.59-.3,1.26-.93,1.41Z"/>
  <path d="M8.61,128.27c-.33.86-1.63,1.39-2.29.69s-.07-2.14.91-2.33c.69-.13,1.62,1.04,1.39,1.65Z"/>
  <path d="M16.29,140c-.67.59-1.43,1.09-2.1.8-.79-.33-.78-1.65-.22-2.21.25-.25,1.13-.31,1.43-.12.41.27.68.81.89,1.52Z"/>
  <path d="M9.34,140.65c-.54-.21-.86-.88-.81-1.35.04-.42.54-.89,1.11-.98.43-.07,1.18.22,1.34.54.17.34.18,1.08,0,1.4-.23.42-1.03.64-1.64.4Z"/>
  <path d="M69.1,172.23c.63-.31,1.53-.15,1.75.51.19.57.01,1.39-.63,1.76-.5.29-1.16.05-1.58-.43-.5-.58-.48-1.37.46-1.83Z"/>
  <path d="M105.34,130.82c.43.4.78,1.03.7,1.47-.07.38-.72.82-1.17,1-.4.16-.87-.37-1.22-.92-.22-.35-.16-1.08.07-1.37.35-.44,1.12-.65,1.63-.17Z"/>
  <path d="M30.5,128.02c.61-.15,1.44.22,1.58.71.21.73-.14,1.42-.86,1.73-.66.28-1.23-.07-1.6-.93-.22-.5.08-1.32.89-1.52Z"/>
  <path d="M70.54,130.02c.64-.42,1.51-.37,1.85.36.24.52.15,1.19-.47,1.68-.46.36-1.14.29-1.54-.12-.53-.56-.58-1.44.15-1.93Z"/>
  <path d="M5.96,87.24c-.94-.56-.51-1.93.11-2.36.25-.17,1-.16,1.22.01.72.59.7,1.81.23,2.27-.26.25-1.2.29-1.55.08Z"/>
  <path d="M97.99,88.34c-.12.42-.7.92-1.01.96-.78.1-1.7-1.12-1.54-1.78.15-.59,1.42-1.24,2.26-.62.27.2.44.92.29,1.44Z"/>
  <path d="M91.69,128.13c-.95-.17-1.21-1.06-.98-1.72.25-.72,1.14-1.32,1.94-.7.31.24.66,1.12.51,1.49-.17.44-1,1.01-1.47.93Z"/>
  <path d="M14,112.51c-.39.3-1.19.09-1.47-.24-.39-.47-.43-1.13-.1-1.58.57-.77,1.27-.73,1.85-.34.79.53.67,1.43-.28,2.17Z"/>
  <path d="M91.77,176.86c-.61.22-1.17.06-1.55-.43-.35-.45-.05-1.04.46-1.5.34-.31,1.1-.59,1.47-.41.34.17.7.87.72,1.28.02.47-.53.86-1.1,1.06Z"/>
  <path d="M41.82,116.3c-.28,1.1-1.29,1.21-2.03.93-.63-.24-.9-1.42-.21-2.06.28-.26,1.17-.26,1.58-.1.35.14.76.85.66,1.23Z"/>
  <path d="M108.04,106.06c.23.78-.54,1.39-1.01,1.47-.7.11-1.44-.25-1.52-.85-.09-.75.24-1.63,1.03-1.67.46-.02,1.33.53,1.49,1.05Z"/>
  <path d="M39.31,162.94c.07.49-.06,1.23-.32,1.47-.3.27-1.27.25-1.59-.03-.23-.2-.57-.63-.62-.87-.08-.48.71-1.42,1.67-1.5.31-.03.8.56.86.94Z"/>
  <path d="M37.16,81.37c-.47-.12-.98-.7-1-1.11-.02-.38.44-1.06.86-1.18.53-.14,1.31-.07,1.55.24.26.33.3,1.23.13,1.59-.18.38-1.01.59-1.54.46Z"/>
  <path d="M18.26,79.75c.27.56-.32,1.41-.76,1.56-.6.21-1.48.06-1.77-.63-.2-.48.22-1.36.59-1.61.5-.34,1.58-.05,1.94.68Z"/>
  <path d="M90.07,168.23c-.73.55-2.11-.13-2.23-1-.09-.66.92-1.5,1.56-1.37.97.2,1.53,1.73.67,2.37Z"/>
  <path d="M22.19,161.38c-.61-.67-.94-1.5-.41-1.96s1.42-.54,1.91-.19.54,1.22.17,1.78c-.29.44-1.23.84-1.67.37Z"/>
  <path d="M61.86,73.18c-.6.36-1.3.22-1.67-.36-.31-.48-.15-1.18.39-1.63.61-.51,1.4-.31,1.92.31.41.5.07,1.25-.63,1.68Z"/>
  <path d="M51.86,96.5c-.46.56-1.22.53-1.7.05-.44-.44-.55-1.13-.07-1.75s1.26-.59,1.9-.12c.49.36.45,1.13-.13,1.83Z"/>
  <path d="M105.36,119.86c.1.7-.9,1.25-1.6,1.13-.55-.09-1.04-.78-.96-1.5.06-.52.77-1.29,1.46-1.07.44.14,1.04.99,1.1,1.44Z"/>
  <path d="M89.76,107.57c-.19.4-1.12.52-1.5.36-.35-.15-1-.69-1.01-1.12-.02-.67.93-1.44,1.49-1.37.8.1,1.47,1.18,1.02,2.13Z"/>
  <path d="M107.22,83.85c-.58-.05-1.39-.91-1.38-1.5s.75-1.2,1.19-1.13c.62.09,1.34.61,1.35,1.2s-.44,1.49-1.16,1.42Z"/>
  <path d="M108.04,87.15c-.16-.78.66-1.71,1.41-1.87.47-.1,1.07.79,1.14,1.26.07.51-.5,1.11-1.02,1.35-.4.19-1.4-.09-1.54-.74Z"/>
  <path d="M58.59,175.52c.53-.23,1.42.39,1.57.84.21.62-.23,1.46-.86,1.68s-1.29-.03-1.59-.73c-.21-.48.04-1.41.89-1.79Z"/>
  <path d="M51.41,176.14c.73.32.31,2.19-.08,2.15l-.96-.09c-.55-.05-1.19-.51-1.2-.97-.02-.61.53-1.27,1.19-1.28.35,0,.83.08,1.05.18Z"/>
  <path d="M62.26,103.54c.33.55-.16,1.43-.63,1.66-.54.27-1.45.21-1.72-.48-.21-.55.25-1.66.84-1.85.37-.12,1.32.33,1.52.67Z"/>
  <path d="M42.18,59.23c-.45.19-1.17-.37-1.28-.73-.14-.47-.07-1.23.27-1.55.32-.3,1.27-.34,1.65-.04.23.18.41.94.39,1.24-.03.34-.42.82-1.03,1.08Z"/>
  <path d="M41.36,162.29c-.55.26-1.49-.16-1.71-.55-.36-.64.08-1.38.82-1.81.56-.32,1.15.17,1.46.76.24.45.18,1.25-.56,1.6Z"/>
  <path d="M62.37,179.66c-.35.89-2.02.85-2.46.15-.28-.46.32-1.66.82-1.83.88-.29,1.97.82,1.64,1.68Z"/>
  <path d="M39.01,157.67c0-.77.82-1.73,1.55-1.46.49.18,1,.8,1,1.19,0,.54-.55,1.32-1.01,1.3-.66-.02-1.55-.25-1.54-1.04Z"/>
  <path d="M50.69,150.13c-.24-.27-.47-.89-.39-1.16.09-.32.67-.72,1.08-.78.48-.06,1.2.31,1.37.67.23.48.09,1.31-.4,1.54-.54.24-1.22.23-1.65-.26Z"/>
  <path d="M1.03,101.71c-.13-.62.04-1.64.36-2.18.27-.46,1.37.08,1.6.52.26.51.17,1.2-.2,1.61-.31.34-1.66.5-1.75.05Z"/>
  <path d="M137.32,104.58l.15,2.56c-.51.09-1.22-.09-1.52-.42-.38-.4-.53-1.18-.21-1.71.2-.34.94-.43,1.58-.43Z"/>
  <path d="M93.13,47.58c.14.77-1.03,1.25-1.62,1.1-.83-.2-1.28-.94-.73-1.96l2.34.86Z"/>
  <path d="M102.05,172.18c-1.26.71-2.29,1.24-3.64,1.8.96-1.23,1.98-3.41,3.64-1.8Z"/>
  <path d="M55.96,179.46l-2.56-.53c.27-.95,1.05-1.27,1.77-1.03.46.15.82.89.8,1.56Z"/>
  <path d="M107.65,55.1c-.54.65-1.23.77-1.85.46s-1-1.01-.45-1.96l2.3,1.5Z"/>
  <path d="M79.86,44.07c-.44.59-.96,1.14-1.42,1.18-.89.08-1.26-.82-1.21-1.61l2.63.43Z"/>
  <path d="M43.58,175.85l-2.26-.92c.06-.8.9-1.17,1.62-.89.52.2,1.01,1.1.63,1.81Z"/>
  <path d="M135.59,94.96l.54,2.5c-.68.13-1.34-.35-1.56-.92-.27-.7.07-1.44,1.02-1.58Z"/>
  <path d="M19.04,159.26l-1.69-1.86c.52-.57,1.28-.3,1.75.17s.56,1.06-.06,1.69Z"/>
  <path d="M74.42,180.47l-2.59.13c.16-.85.55-1.22,1.21-1.32.58-.09,1.08.37,1.38,1.2Z"/>
  <path d="M35.97,172.28l-2.29-1.27c.41-.4,1.04-.59,1.53-.47.69.16,1.09.69.76,1.75Z"/>
  <path d="M29.24,57.16c-.29.11-.8-.25-1.14-.58l1.87-1.31c.39.66-.04,1.63-.73,1.89Z"/>
  <path d="M135.23,93.73c-.61-.06-1.14-.38-1.27-.8-.18-.59,0-1.18.48-1.63.33.81.51,1.39.79,2.43Z"/>
  <path d="M134.55,132.43l-.79,2.31c-.53-.63-.63-1.11-.48-1.72.09-.39.73-.74,1.27-.59Z"/>
  <path d="M1.23,123.95l-.39-2.34c1.12.27,1.46,1.44.39,2.34Z"/>
  <path d="M29.53,168.27l-2.03-1.4c.47-.1,1.29-.11,1.62.06s.44.77.41,1.35Z"/>
</svg>