<svg width="352" height="335" viewBox="0 0 352 335" fill="none" xmlns="http://www.w3.org/2000/svg">
<mask id="path-1-inside-1_67_14583" fill="white">
<path d="M80.6257 207.088C75.6759 206.045 70.5308 206.627 65.6942 208.769C65.3966 208.902 65.141 209.069 64.8434 209.202C64.6978 208.73 64.5756 208.264 64.4016 207.811L71.4549 202.24C76.5745 198.174 78.9522 191.423 77.4751 185.06C76.705 181.738 74.9583 178.748 72.5275 176.448L75.8779 161.939L270.304 202.897L267.295 217.183C264.105 218.251 261.236 220.243 259.139 222.986C255.122 228.216 254.472 235.135 257.477 241.109L258.915 243.936C257.4 244.964 256.033 246.22 254.847 247.66C249.742 242.934 244.193 239.389 239.594 236.681C229.2 230.546 217.493 225.41 202.77 220.52C192.306 217.042 181.268 214.079 169.938 211.692C165.34 210.724 160.628 209.829 155.986 209.072C152.915 206.318 149.131 204.394 144.932 203.509C143.595 203.228 142.233 203.063 140.898 203.002C136.504 202.812 132.248 203.826 128.541 205.838C125.374 205.637 121.986 205.437 118.654 205.323C105.051 204.883 93.6878 205.675 83.3642 207.812C82.474 207.502 81.5455 207.257 80.6072 207.059L80.6257 207.088ZM302.391 296.557C302.505 296.018 302.618 295.478 302.657 294.947L302.79 294.314C302.951 293.784 303.093 293.226 303.216 292.639C303.34 292.053 303.45 291.415 303.518 290.743C303.542 290.626 303.567 290.508 303.568 290.386C303.953 287.282 303.572 284.09 302.436 281.107C302.205 279.295 301.692 277.545 300.948 275.845C300.86 275.679 300.801 275.495 300.713 275.33C300.894 274.706 301.027 274.073 301.17 273.393C301.442 272.102 301.595 270.91 301.658 269.796C301.79 267.08 301.362 264.343 300.419 261.842C300.424 261.818 300.433 261.771 300.415 261.743C300.28 260.637 300.042 259.558 299.705 258.482L307.989 251.726C313.048 247.597 315.308 240.822 313.774 234.496C312.962 231.14 311.14 228.159 308.634 225.867L316.279 189.577C318.231 180.31 312.17 171.169 302.763 169.187L201.491 147.853L209.136 111.563C209.456 111.557 209.766 111.597 210.086 111.591C210.086 111.591 210.58 111.573 210.608 111.554C212.019 111.484 213.437 111.268 214.818 110.873C214.894 110.865 214.951 110.828 215.026 110.819C215.483 111.209 215.916 111.594 216.411 111.919C217.48 112.659 218.616 113.315 219.651 113.753L220.437 114.09C221.448 114.524 222.503 114.869 223.605 115.101L224.403 115.269C225.717 115.546 227.013 115.672 228.626 115.693C228.847 115.69 229.044 115.683 229.265 115.681C231.02 115.609 232.72 115.33 234.347 114.816C235.876 116.167 237.609 117.242 239.365 117.98L239.861 118.182C240.896 118.621 241.95 118.965 243.053 119.198L243.897 119.375C246.055 119.83 248.194 119.913 250.365 119.611C251.346 120.185 252.361 120.717 253.41 121.085C254.333 121.476 255.303 121.754 256.288 121.961C256.922 122.095 257.56 122.205 258.063 122.262L258.297 122.311C258.803 122.467 259.314 122.599 259.854 122.712C260.534 122.856 261.22 122.976 261.722 123.032L262.168 123.126C262.674 123.282 263.209 123.419 263.725 123.528C264.405 123.671 265.067 123.786 265.593 123.848L266.273 123.991C266.732 124.137 267.22 124.264 267.689 124.363C268.346 124.501 269.003 124.64 269.651 124.703C269.815 124.737 269.98 124.772 270.12 124.802C270.331 124.846 271.153 125.019 271.153 125.019C271.635 125.17 272.146 125.302 272.616 125.401C273.061 125.495 273.484 125.584 273.939 125.631C274.38 125.748 274.844 125.87 275.313 125.969L276.134 126.142C277.823 126.498 279.538 126.614 281.298 126.519C288.128 126.194 294.049 122.395 297.178 116.267C297.259 116.113 297.336 115.982 297.394 115.823C298.855 112.725 299.585 109.375 299.506 106.027C299.445 100.967 297.42 96.2772 293.905 92.8418C293.976 92.7344 294.03 92.5986 294.078 92.4863C294.927 90.7788 295.566 89.0268 295.942 87.2439C296.08 86.5871 296.176 85.8969 296.239 85.2487C296.326 84.6054 296.389 83.9572 296.405 83.2991C298.913 81.2795 300.825 78.7177 301.973 75.8237C303.039 73.2062 303.617 70.4616 303.675 67.6316C303.872 60.2987 299.956 53.7654 293.51 50.521C291.972 49.6824 290.332 49.092 288.62 48.7313L287.728 48.5435C287.259 48.4447 286.767 48.3409 286.283 48.3124L285.86 48.2235C285.284 48.053 284.726 47.9109 284.21 47.8022L283.905 47.738C283.435 47.6391 282.943 47.5354 282.459 47.5069L281.966 47.4031C281.39 47.2327 280.855 47.0955 280.315 46.9819L280.01 46.9176C279.541 46.8188 279.049 46.715 278.565 46.6866L278.072 46.5828C277.495 46.4123 276.937 46.2703 276.421 46.1615L276.116 46.0973C275.647 45.9985 275.154 45.8947 274.67 45.8662L274.389 45.8069C273.883 45.6513 273.348 45.5142 272.832 45.4054L272.41 45.3165C270.252 44.8618 268.061 44.7924 265.872 45.0662C264.789 45.2056 263.762 45.4302 262.738 45.7536C261.662 44.8163 260.49 43.9815 259.237 43.301C258.881 43.1281 258.526 42.9552 258.17 42.7823C257.52 42.4982 256.953 42.2808 256.428 42.0968C255.603 41.8251 254.774 41.5768 253.906 41.3939L251.161 40.8157C250.715 40.7218 250.27 40.6279 249.814 40.581C249.331 40.4303 248.815 40.3216 248.299 40.2128L247.267 39.9954C246.821 39.9015 246.375 39.8076 245.92 39.7606C245.437 39.6099 244.921 39.5012 244.405 39.3925L243.373 39.1751C242.904 39.0762 242.434 38.9774 241.95 38.9489C241.491 38.8032 241.027 38.6809 240.558 38.582L239.854 38.4338C238.235 38.0928 236.596 37.9679 234.93 38.0825C234.384 38.1145 233.857 38.175 233.306 38.2305C232.806 37.9291 232.33 37.6327 231.82 37.3783C231.684 37.3252 231.352 37.1572 231.216 37.1041L230.654 36.8633C229.625 36.4014 228.565 36.0802 227.463 35.848L226.665 35.6799C225.211 35.3735 223.693 35.2499 222.123 35.262C220.232 35.2803 218.405 35.5813 216.679 36.0997C214.899 34.5487 212.828 33.3285 210.491 32.4442C209.718 32.1589 208.912 31.9155 208.114 31.7475L207.27 31.5696C205.909 31.283 204.495 31.1322 202.925 31.1443C202.459 31.1442 202.007 31.196 201.537 31.2194C200.106 30.4525 198.565 29.8584 196.933 29.4656C195.827 29.1345 194.795 28.9171 193.766 28.7984C193.325 28.6811 192.838 28.5538 192.322 28.4451L191.336 28.2376C190.891 28.1437 190.445 28.0498 189.989 28.0028C189.525 27.8805 189.014 27.7483 188.474 27.6347L187.442 27.4172C186.996 27.3233 186.551 27.2294 186.095 27.1824C185.631 27.0602 185.12 26.928 184.58 26.8143L183.548 26.5969C183.102 26.503 182.68 26.414 182.224 26.367C181.737 26.2398 181.249 26.1126 180.733 26.0039L179.701 25.7864C179.232 25.6876 178.739 25.5838 178.255 25.5553C177.796 25.4096 177.308 25.2823 176.839 25.1835L176.135 25.0353C174.376 24.6646 172.562 24.552 170.764 24.7123C170.665 24.716 170.585 24.7481 170.51 24.7567C170.248 24.6036 169.968 24.4221 169.701 24.2924C169.607 24.2726 169.34 24.1429 169.252 24.0997L168.624 23.8206C167.59 23.3821 166.535 23.0375 165.456 22.8102L164.659 22.6422C163.204 22.3358 161.687 22.2121 160.116 22.2242C158.226 22.2425 156.398 22.5436 154.672 23.0619C152.892 21.5109 150.803 20.2623 148.484 19.4064C147.712 19.1211 146.905 18.8777 146.108 18.7097L145.263 18.5318C143.903 18.2452 142.489 18.0944 140.947 18.088C140.58 18.0843 140.203 18.1274 139.832 18.1471C139.761 18.1323 139.701 18.0706 139.635 18.0323C139.126 17.7779 138.7 17.5901 138.339 17.4407C138.222 17.416 138.114 17.3443 138.002 17.2962C137.187 16.9775 136.386 16.7107 135.494 16.5229C134.918 16.3525 134.313 16.2005 133.726 16.077C133.234 15.9732 132.765 15.8744 132.286 15.8224C131.821 15.7002 131.357 15.5779 130.864 15.4741L129.832 15.2566C129.387 15.1627 128.941 15.0688 128.485 15.0219C127.979 14.8662 127.486 14.7625 126.97 14.6537L125.938 14.4363C125.492 14.3424 125.047 14.2485 124.591 14.2015C124.108 14.0508 123.592 13.9421 123.076 13.8334L122.044 13.616C121.575 13.5171 121.106 13.4183 120.622 13.3898C120.162 13.2441 119.698 13.1218 119.229 13.0229L118.502 12.8697C116.484 12.4447 114.468 12.363 112.458 12.601C106.969 13.1843 102.073 16.0729 98.9429 20.5829C98.833 20.7558 98.6997 20.9237 98.5897 21.0965C97.787 22.3484 97.1386 23.6818 96.6211 25.0918C96.2926 25.9535 96.006 26.8487 95.8133 27.7636C95.6947 28.3266 95.5711 28.913 95.5229 29.4909L95.3203 30.4527C95.1301 31.1231 94.9682 31.775 94.8299 32.4319L94.7607 32.7603C94.6618 33.2295 94.563 33.6986 94.5395 34.1592C94.3937 34.6185 94.2714 35.0827 94.1775 35.5284C94.0441 36.1618 93.9107 36.7952 93.8575 37.3965L93.5709 38.7571C93.3807 39.4275 93.2188 40.0794 93.0607 40.8301C92.9767 41.2289 92.8927 41.6277 92.8556 42.0364C92.7234 42.5475 92.5962 43.0352 92.4924 43.5279C92.3589 44.1613 92.2255 44.7946 92.1723 45.3959L91.9253 46.5689C91.7795 47.0282 91.6572 47.4924 91.5584 47.9616L91.3706 48.853C91.2816 49.2753 91.1976 49.6741 91.1556 50.1062C91.0283 50.5939 90.8962 51.1051 90.7825 51.6446C90.6491 52.278 90.5156 52.9114 90.4625 53.5127L90.2302 54.6152C90.0845 55.0745 89.9622 55.5388 89.8633 56.0079C89.725 56.6648 89.6051 57.35 89.5482 57.8525L89.2517 59.2601C89.0813 59.8367 88.9392 60.3947 88.8255 60.9343C88.7119 61.4738 88.5982 62.0134 88.5512 62.469C88.4388 62.8863 88.3264 63.3036 88.2375 63.7259L87.6395 66.5644C87.4418 67.5027 87.3059 68.3806 87.2403 69.2733C87.2033 69.682 87.1748 70.166 87.1834 70.7068C87.1623 71.3883 87.1881 72.0798 87.2609 72.7811C87.7616 77.615 90.044 82.0158 93.665 85.1796C94.1218 85.5698 94.5835 85.9366 95.0736 86.2848C96.0354 86.9529 97.0638 87.5371 98.112 88.0274C98.4021 88.162 98.6923 88.2966 99.0293 88.4411C100.064 88.8796 101.118 89.2242 102.197 89.4515L102.995 89.6195C104.309 89.8963 105.681 90.0138 107.293 90.035C107.538 90.0375 107.805 90.0449 108.055 90.0239C112.383 89.8331 116.354 88.1952 119.475 85.4718C120.897 87.5599 122.717 89.3887 124.899 90.7793C125.843 91.7622 126.883 92.6427 128.022 93.3972C128.237 93.5405 128.452 93.6837 128.671 93.8035C130.368 94.8224 132.189 95.598 134.098 96.0736C134.909 96.2935 135.702 96.485 136.523 96.658C137.25 96.8111 138.001 96.9693 138.743 97.0521C139.001 97.1065 139.282 97.1658 139.545 97.1967C139.874 97.2659 140.197 97.3585 140.502 97.4227L141.909 97.7193L141.863 97.7094C143.855 98.2517 145.912 98.489 147.987 98.4115C148.034 98.4213 148.26 98.3955 148.283 98.4004L148.532 98.3794C149.967 98.3142 151.413 98.0798 152.795 97.6848C153.21 97.5762 153.629 97.4442 154.031 97.2837C154.295 97.1924 154.564 97.0776 154.805 96.9813C155.945 96.8049 157.043 96.4729 158.124 96.1125C159.273 97.7511 160.706 99.2045 162.368 100.388C162.774 100.669 163.181 100.951 163.597 101.185C164.9 101.975 166.296 102.562 167.692 103.028L160.106 139.037L60.1718 117.985C50.8118 116.013 41.8064 121.662 39.6667 130.889L31.3364 167.06C28.0816 168.089 25.1699 170.048 22.9977 172.8C18.9201 177.968 18.1771 184.868 21.0829 190.845L25.0897 199.039C23.8597 200.226 22.7459 201.559 21.8518 203.012C20.7638 204.106 19.8204 205.328 19.0547 206.637C17.9668 207.731 17.0184 208.976 16.2193 210.327C14.9363 211.649 13.8397 213.133 12.9814 214.765C12.7751 215.163 12.5639 215.584 12.4046 215.991C12.0193 216.89 11.7092 217.78 11.456 218.633C11.1497 219.622 10.9088 220.65 10.7568 221.72L10.4355 223.245C10.2008 224.126 10.0131 225.018 9.87218 225.919C9.8277 226.13 9.78323 226.341 9.73875 226.553C9.68439 226.811 9.63003 227.069 9.58061 227.303L7.9251 235.162C7.71016 235.95 7.54214 236.747 7.42104 237.555C7.42104 237.555 7.12947 238.939 7.12453 238.962C6.86636 239.839 6.66869 240.777 6.54633 241.707L6.235 243.185C6.03488 243.902 5.88169 244.629 5.77541 245.367C5.37018 247.29 5.31683 249.288 5.59316 251.233C6.19993 256.726 9.15889 261.637 13.7072 264.702C15.1825 265.723 16.8011 266.53 18.5025 267.059C19.1865 267.302 19.9038 267.502 20.6076 267.65C21.4286 267.823 22.2126 267.939 22.7621 268.006C24.0017 268.169 25.2475 268.186 26.4896 268.105C28.0985 268.027 29.6765 267.747 31.1668 267.302C31.852 267.887 32.5656 268.454 33.3174 268.955C34.8212 269.958 36.4497 270.718 38.156 271.224C38.798 271.433 39.4215 271.613 40.0783 271.752C41.0401 271.954 41.9933 272.082 42.9095 272.152C43.8491 272.227 44.822 272.261 45.8382 272.205C45.9604 272.207 46.0592 272.203 46.1864 272.181C51.3858 271.806 56.0138 269.376 59.2368 265.473C61.8479 268.081 64.7615 270.532 68.0529 272.818C76.5988 279.004 86.1807 284.11 98.2061 288.897C113.486 294.982 129.569 299.816 145.966 303.27C159.737 306.171 173.949 308.136 188.336 309.157C191.252 311.364 194.65 312.913 198.309 313.684C200.632 314.173 203 314.329 205.414 314.152C210.345 313.769 214.896 311.935 218.51 308.972C221.879 308.678 225.357 308.332 228.95 307.791C234.117 306.993 238.792 305.846 243.077 304.348C244.294 308.573 246.951 312.244 250.71 314.751C251.504 315.286 252.364 315.737 253.24 316.117C254.05 316.459 254.799 316.74 255.53 316.992C256.308 317.253 257.091 317.492 257.865 317.655L258.451 317.778C258.897 317.872 259.343 317.966 259.798 318.013C260.192 318.121 260.586 318.228 261.008 318.317C261.688 318.46 262.327 318.57 262.923 318.647L263.416 318.751C263.922 318.906 264.433 319.039 264.996 319.157C265.63 319.291 266.239 319.419 266.841 319.472L267.31 319.571C267.816 319.727 268.351 319.864 268.89 319.978C269.524 320.111 270.134 320.24 270.735 320.293L271.298 320.411C271.828 320.572 272.362 320.709 272.902 320.823L273.418 320.931C274.215 321.099 274.999 321.216 275.822 321.266C277.931 321.49 280.09 321.357 282.155 320.861C284.393 320.352 286.495 319.448 288.299 318.211L288.839 317.859C289.123 317.674 289.411 317.465 289.677 317.252C289.933 317.085 290.183 316.942 290.444 316.752C292.527 315.353 294.289 313.617 295.702 311.563C295.94 311.246 296.16 310.9 296.356 310.549C297.634 309.25 298.698 307.808 299.518 306.242C300.165 305.031 300.71 303.724 301.113 302.388C301.133 302.295 301.148 302.224 301.168 302.13C301.353 301.483 301.505 300.878 301.629 300.292C301.752 299.705 301.842 299.161 301.914 298.588C301.944 298.447 301.978 298.283 302.008 298.142C302.183 297.542 302.33 296.961 302.449 296.398L302.391 296.557Z"/>
</mask>
<path d="M80.6257 207.088C75.6759 206.045 70.5308 206.627 65.6942 208.769C65.3966 208.902 65.141 209.069 64.8434 209.202C64.6978 208.73 64.5756 208.264 64.4016 207.811L71.4549 202.24C76.5745 198.174 78.9522 191.423 77.4751 185.06C76.705 181.738 74.9583 178.748 72.5275 176.448L75.8779 161.939L270.304 202.897L267.295 217.183C264.105 218.251 261.236 220.243 259.139 222.986C255.122 228.216 254.472 235.135 257.477 241.109L258.915 243.936C257.4 244.964 256.033 246.22 254.847 247.66C249.742 242.934 244.193 239.389 239.594 236.681C229.2 230.546 217.493 225.41 202.77 220.52C192.306 217.042 181.268 214.079 169.938 211.692C165.34 210.724 160.628 209.829 155.986 209.072C152.915 206.318 149.131 204.394 144.932 203.509C143.595 203.228 142.233 203.063 140.898 203.002C136.504 202.812 132.248 203.826 128.541 205.838C125.374 205.637 121.986 205.437 118.654 205.323C105.051 204.883 93.6878 205.675 83.3642 207.812C82.474 207.502 81.5455 207.257 80.6072 207.059L80.6257 207.088ZM302.391 296.557C302.505 296.018 302.618 295.478 302.657 294.947L302.79 294.314C302.951 293.784 303.093 293.226 303.216 292.639C303.34 292.053 303.45 291.415 303.518 290.743C303.542 290.626 303.567 290.508 303.568 290.386C303.953 287.282 303.572 284.09 302.436 281.107C302.205 279.295 301.692 277.545 300.948 275.845C300.86 275.679 300.801 275.495 300.713 275.33C300.894 274.706 301.027 274.073 301.17 273.393C301.442 272.102 301.595 270.91 301.658 269.796C301.79 267.08 301.362 264.343 300.419 261.842C300.424 261.818 300.433 261.771 300.415 261.743C300.28 260.637 300.042 259.558 299.705 258.482L307.989 251.726C313.048 247.597 315.308 240.822 313.774 234.496C312.962 231.14 311.14 228.159 308.634 225.867L316.279 189.577C318.231 180.31 312.17 171.169 302.763 169.187L201.491 147.853L209.136 111.563C209.456 111.557 209.766 111.597 210.086 111.591C210.086 111.591 210.58 111.573 210.608 111.554C212.019 111.484 213.437 111.268 214.818 110.873C214.894 110.865 214.951 110.828 215.026 110.819C215.483 111.209 215.916 111.594 216.411 111.919C217.48 112.659 218.616 113.315 219.651 113.753L220.437 114.09C221.448 114.524 222.503 114.869 223.605 115.101L224.403 115.269C225.717 115.546 227.013 115.672 228.626 115.693C228.847 115.69 229.044 115.683 229.265 115.681C231.02 115.609 232.72 115.33 234.347 114.816C235.876 116.167 237.609 117.242 239.365 117.98L239.861 118.182C240.896 118.621 241.95 118.965 243.053 119.198L243.897 119.375C246.055 119.83 248.194 119.913 250.365 119.611C251.346 120.185 252.361 120.717 253.41 121.085C254.333 121.476 255.303 121.754 256.288 121.961C256.922 122.095 257.56 122.205 258.063 122.262L258.297 122.311C258.803 122.467 259.314 122.599 259.854 122.712C260.534 122.856 261.22 122.976 261.722 123.032L262.168 123.126C262.674 123.282 263.209 123.419 263.725 123.528C264.405 123.671 265.067 123.786 265.593 123.848L266.273 123.991C266.732 124.137 267.22 124.264 267.689 124.363C268.346 124.501 269.003 124.64 269.651 124.703C269.815 124.737 269.98 124.772 270.12 124.802C270.331 124.846 271.153 125.019 271.153 125.019C271.635 125.17 272.146 125.302 272.616 125.401C273.061 125.495 273.484 125.584 273.939 125.631C274.38 125.748 274.844 125.87 275.313 125.969L276.134 126.142C277.823 126.498 279.538 126.614 281.298 126.519C288.128 126.194 294.049 122.395 297.178 116.267C297.259 116.113 297.336 115.982 297.394 115.823C298.855 112.725 299.585 109.375 299.506 106.027C299.445 100.967 297.42 96.2772 293.905 92.8418C293.976 92.7344 294.03 92.5986 294.078 92.4863C294.927 90.7788 295.566 89.0268 295.942 87.2439C296.08 86.5871 296.176 85.8969 296.239 85.2487C296.326 84.6054 296.389 83.9572 296.405 83.2991C298.913 81.2795 300.825 78.7177 301.973 75.8237C303.039 73.2062 303.617 70.4616 303.675 67.6316C303.872 60.2987 299.956 53.7654 293.51 50.521C291.972 49.6824 290.332 49.092 288.62 48.7313L287.728 48.5435C287.259 48.4447 286.767 48.3409 286.283 48.3124L285.86 48.2235C285.284 48.053 284.726 47.9109 284.21 47.8022L283.905 47.738C283.435 47.6391 282.943 47.5354 282.459 47.5069L281.966 47.4031C281.39 47.2327 280.855 47.0955 280.315 46.9819L280.01 46.9176C279.541 46.8188 279.049 46.715 278.565 46.6866L278.072 46.5828C277.495 46.4123 276.937 46.2703 276.421 46.1615L276.116 46.0973C275.647 45.9985 275.154 45.8947 274.67 45.8662L274.389 45.8069C273.883 45.6513 273.348 45.5142 272.832 45.4054L272.41 45.3165C270.252 44.8618 268.061 44.7924 265.872 45.0662C264.789 45.2056 263.762 45.4302 262.738 45.7536C261.662 44.8163 260.49 43.9815 259.237 43.301C258.881 43.1281 258.526 42.9552 258.17 42.7823C257.52 42.4982 256.953 42.2808 256.428 42.0968C255.603 41.8251 254.774 41.5768 253.906 41.3939L251.161 40.8157C250.715 40.7218 250.27 40.6279 249.814 40.581C249.331 40.4303 248.815 40.3216 248.299 40.2128L247.267 39.9954C246.821 39.9015 246.375 39.8076 245.92 39.7606C245.437 39.6099 244.921 39.5012 244.405 39.3925L243.373 39.1751C242.904 39.0762 242.434 38.9774 241.95 38.9489C241.491 38.8032 241.027 38.6809 240.558 38.582L239.854 38.4338C238.235 38.0928 236.596 37.9679 234.93 38.0825C234.384 38.1145 233.857 38.175 233.306 38.2305C232.806 37.9291 232.33 37.6327 231.82 37.3783C231.684 37.3252 231.352 37.1572 231.216 37.1041L230.654 36.8633C229.625 36.4014 228.565 36.0802 227.463 35.848L226.665 35.6799C225.211 35.3735 223.693 35.2499 222.123 35.262C220.232 35.2803 218.405 35.5813 216.679 36.0997C214.899 34.5487 212.828 33.3285 210.491 32.4442C209.718 32.1589 208.912 31.9155 208.114 31.7475L207.27 31.5696C205.909 31.283 204.495 31.1322 202.925 31.1443C202.459 31.1442 202.007 31.196 201.537 31.2194C200.106 30.4525 198.565 29.8584 196.933 29.4656C195.827 29.1345 194.795 28.9171 193.766 28.7984C193.325 28.6811 192.838 28.5538 192.322 28.4451L191.336 28.2376C190.891 28.1437 190.445 28.0498 189.989 28.0028C189.525 27.8805 189.014 27.7483 188.474 27.6347L187.442 27.4172C186.996 27.3233 186.551 27.2294 186.095 27.1824C185.631 27.0602 185.12 26.928 184.58 26.8143L183.548 26.5969C183.102 26.503 182.68 26.414 182.224 26.367C181.737 26.2398 181.249 26.1126 180.733 26.0039L179.701 25.7864C179.232 25.6876 178.739 25.5838 178.255 25.5553C177.796 25.4096 177.308 25.2823 176.839 25.1835L176.135 25.0353C174.376 24.6646 172.562 24.552 170.764 24.7123C170.665 24.716 170.585 24.7481 170.51 24.7567C170.248 24.6036 169.968 24.4221 169.701 24.2924C169.607 24.2726 169.34 24.1429 169.252 24.0997L168.624 23.8206C167.59 23.3821 166.535 23.0375 165.456 22.8102L164.659 22.6422C163.204 22.3358 161.687 22.2121 160.116 22.2242C158.226 22.2425 156.398 22.5436 154.672 23.0619C152.892 21.5109 150.803 20.2623 148.484 19.4064C147.712 19.1211 146.905 18.8777 146.108 18.7097L145.263 18.5318C143.903 18.2452 142.489 18.0944 140.947 18.088C140.58 18.0843 140.203 18.1274 139.832 18.1471C139.761 18.1323 139.701 18.0706 139.635 18.0323C139.126 17.7779 138.7 17.5901 138.339 17.4407C138.222 17.416 138.114 17.3443 138.002 17.2962C137.187 16.9775 136.386 16.7107 135.494 16.5229C134.918 16.3525 134.313 16.2005 133.726 16.077C133.234 15.9732 132.765 15.8744 132.286 15.8224C131.821 15.7002 131.357 15.5779 130.864 15.4741L129.832 15.2566C129.387 15.1627 128.941 15.0688 128.485 15.0219C127.979 14.8662 127.486 14.7625 126.97 14.6537L125.938 14.4363C125.492 14.3424 125.047 14.2485 124.591 14.2015C124.108 14.0508 123.592 13.9421 123.076 13.8334L122.044 13.616C121.575 13.5171 121.106 13.4183 120.622 13.3898C120.162 13.2441 119.698 13.1218 119.229 13.0229L118.502 12.8697C116.484 12.4447 114.468 12.363 112.458 12.601C106.969 13.1843 102.073 16.0729 98.9429 20.5829C98.833 20.7558 98.6997 20.9237 98.5897 21.0965C97.787 22.3484 97.1386 23.6818 96.6211 25.0918C96.2926 25.9535 96.006 26.8487 95.8133 27.7636C95.6947 28.3266 95.5711 28.913 95.5229 29.4909L95.3203 30.4527C95.1301 31.1231 94.9682 31.775 94.8299 32.4319L94.7607 32.7603C94.6618 33.2295 94.563 33.6986 94.5395 34.1592C94.3937 34.6185 94.2714 35.0827 94.1775 35.5284C94.0441 36.1618 93.9107 36.7952 93.8575 37.3965L93.5709 38.7571C93.3807 39.4275 93.2188 40.0794 93.0607 40.8301C92.9767 41.2289 92.8927 41.6277 92.8556 42.0364C92.7234 42.5475 92.5962 43.0352 92.4924 43.5279C92.3589 44.1613 92.2255 44.7946 92.1723 45.3959L91.9253 46.5689C91.7795 47.0282 91.6572 47.4924 91.5584 47.9616L91.3706 48.853C91.2816 49.2753 91.1976 49.6741 91.1556 50.1062C91.0283 50.5939 90.8962 51.1051 90.7825 51.6446C90.6491 52.278 90.5156 52.9114 90.4625 53.5127L90.2302 54.6152C90.0845 55.0745 89.9622 55.5388 89.8633 56.0079C89.725 56.6648 89.6051 57.35 89.5482 57.8525L89.2517 59.2601C89.0813 59.8367 88.9392 60.3947 88.8255 60.9343C88.7119 61.4738 88.5982 62.0134 88.5512 62.469C88.4388 62.8863 88.3264 63.3036 88.2375 63.7259L87.6395 66.5644C87.4418 67.5027 87.3059 68.3806 87.2403 69.2733C87.2033 69.682 87.1748 70.166 87.1834 70.7068C87.1623 71.3883 87.1881 72.0798 87.2609 72.7811C87.7616 77.615 90.044 82.0158 93.665 85.1796C94.1218 85.5698 94.5835 85.9366 95.0736 86.2848C96.0354 86.9529 97.0638 87.5371 98.112 88.0274C98.4021 88.162 98.6923 88.2966 99.0293 88.4411C100.064 88.8796 101.118 89.2242 102.197 89.4515L102.995 89.6195C104.309 89.8963 105.681 90.0138 107.293 90.035C107.538 90.0375 107.805 90.0449 108.055 90.0239C112.383 89.8331 116.354 88.1952 119.475 85.4718C120.897 87.5599 122.717 89.3887 124.899 90.7793C125.843 91.7622 126.883 92.6427 128.022 93.3972C128.237 93.5405 128.452 93.6837 128.671 93.8035C130.368 94.8224 132.189 95.598 134.098 96.0736C134.909 96.2935 135.702 96.485 136.523 96.658C137.25 96.8111 138.001 96.9693 138.743 97.0521C139.001 97.1065 139.282 97.1658 139.545 97.1967C139.874 97.2659 140.197 97.3585 140.502 97.4227L141.909 97.7193L141.863 97.7094C143.855 98.2517 145.912 98.489 147.987 98.4115C148.034 98.4213 148.26 98.3955 148.283 98.4004L148.532 98.3794C149.967 98.3142 151.413 98.0798 152.795 97.6848C153.21 97.5762 153.629 97.4442 154.031 97.2837C154.295 97.1924 154.564 97.0776 154.805 96.9813C155.945 96.8049 157.043 96.4729 158.124 96.1125C159.273 97.7511 160.706 99.2045 162.368 100.388C162.774 100.669 163.181 100.951 163.597 101.185C164.9 101.975 166.296 102.562 167.692 103.028L160.106 139.037L60.1718 117.985C50.8118 116.013 41.8064 121.662 39.6667 130.889L31.3364 167.06C28.0816 168.089 25.1699 170.048 22.9977 172.8C18.9201 177.968 18.1771 184.868 21.0829 190.845L25.0897 199.039C23.8597 200.226 22.7459 201.559 21.8518 203.012C20.7638 204.106 19.8204 205.328 19.0547 206.637C17.9668 207.731 17.0184 208.976 16.2193 210.327C14.9363 211.649 13.8397 213.133 12.9814 214.765C12.7751 215.163 12.5639 215.584 12.4046 215.991C12.0193 216.89 11.7092 217.78 11.456 218.633C11.1497 219.622 10.9088 220.65 10.7568 221.72L10.4355 223.245C10.2008 224.126 10.0131 225.018 9.87218 225.919C9.8277 226.13 9.78323 226.341 9.73875 226.553C9.68439 226.811 9.63003 227.069 9.58061 227.303L7.9251 235.162C7.71016 235.95 7.54214 236.747 7.42104 237.555C7.42104 237.555 7.12947 238.939 7.12453 238.962C6.86636 239.839 6.66869 240.777 6.54633 241.707L6.235 243.185C6.03488 243.902 5.88169 244.629 5.77541 245.367C5.37018 247.29 5.31683 249.288 5.59316 251.233C6.19993 256.726 9.15889 261.637 13.7072 264.702C15.1825 265.723 16.8011 266.53 18.5025 267.059C19.1865 267.302 19.9038 267.502 20.6076 267.65C21.4286 267.823 22.2126 267.939 22.7621 268.006C24.0017 268.169 25.2475 268.186 26.4896 268.105C28.0985 268.027 29.6765 267.747 31.1668 267.302C31.852 267.887 32.5656 268.454 33.3174 268.955C34.8212 269.958 36.4497 270.718 38.156 271.224C38.798 271.433 39.4215 271.613 40.0783 271.752C41.0401 271.954 41.9933 272.082 42.9095 272.152C43.8491 272.227 44.822 272.261 45.8382 272.205C45.9604 272.207 46.0592 272.203 46.1864 272.181C51.3858 271.806 56.0138 269.376 59.2368 265.473C61.8479 268.081 64.7615 270.532 68.0529 272.818C76.5988 279.004 86.1807 284.11 98.2061 288.897C113.486 294.982 129.569 299.816 145.966 303.27C159.737 306.171 173.949 308.136 188.336 309.157C191.252 311.364 194.65 312.913 198.309 313.684C200.632 314.173 203 314.329 205.414 314.152C210.345 313.769 214.896 311.935 218.51 308.972C221.879 308.678 225.357 308.332 228.95 307.791C234.117 306.993 238.792 305.846 243.077 304.348C244.294 308.573 246.951 312.244 250.71 314.751C251.504 315.286 252.364 315.737 253.24 316.117C254.05 316.459 254.799 316.74 255.53 316.992C256.308 317.253 257.091 317.492 257.865 317.655L258.451 317.778C258.897 317.872 259.343 317.966 259.798 318.013C260.192 318.121 260.586 318.228 261.008 318.317C261.688 318.46 262.327 318.57 262.923 318.647L263.416 318.751C263.922 318.906 264.433 319.039 264.996 319.157C265.63 319.291 266.239 319.419 266.841 319.472L267.31 319.571C267.816 319.727 268.351 319.864 268.89 319.978C269.524 320.111 270.134 320.24 270.735 320.293L271.298 320.411C271.828 320.572 272.362 320.709 272.902 320.823L273.418 320.931C274.215 321.099 274.999 321.216 275.822 321.266C277.931 321.49 280.09 321.357 282.155 320.861C284.393 320.352 286.495 319.448 288.299 318.211L288.839 317.859C289.123 317.674 289.411 317.465 289.677 317.252C289.933 317.085 290.183 316.942 290.444 316.752C292.527 315.353 294.289 313.617 295.702 311.563C295.94 311.246 296.16 310.9 296.356 310.549C297.634 309.25 298.698 307.808 299.518 306.242C300.165 305.031 300.71 303.724 301.113 302.388C301.133 302.295 301.148 302.224 301.168 302.13C301.353 301.483 301.505 300.878 301.629 300.292C301.752 299.705 301.842 299.161 301.914 298.588C301.944 298.447 301.978 298.283 302.008 298.142C302.183 297.542 302.33 296.961 302.449 296.398L302.391 296.557Z" fill="#FFFFB4" stroke="black" stroke-width="4.79473" mask="url(#path-1-inside-1_67_14583)"/>
<path d="M289.638 235.683L300.06 186.208C300.129 185.88 299.813 185.519 299.344 185.421L182.707 160.85C182.238 160.751 181.917 160.414 181.991 160.062L194.558 100.406C194.627 100.078 194.311 99.7174 193.842 99.6185L186.593 98.0915C186.124 97.9927 185.694 98.1717 185.62 98.5235L173.053 158.179C172.984 158.508 172.549 158.71 172.08 158.611L56.7335 134.312C56.2643 134.213 55.8346 134.392 55.7605 134.744L44.4048 183.998C44.3356 184.326 43.8775 184.524 43.4318 184.43L36.8547 182.971C36.1978 182.832 35.6953 183.241 35.9162 183.704L44.4137 201.052C44.6581 201.519 45.4508 201.711 45.8682 201.358L61.1554 189.266C61.5678 188.936 61.2777 188.336 60.6443 188.203L54.0672 186.744C53.5981 186.645 53.282 186.284 53.3512 185.956L63.2603 142.988C63.3295 142.66 63.7592 142.481 64.2283 142.58L289.081 189.947C289.55 190.046 289.866 190.406 289.797 190.735L280.724 233.805C280.654 234.134 280.22 234.336 279.751 234.237L273.159 232.848C272.502 232.71 271.994 233.142 272.239 233.61L281.042 250.9C281.287 251.368 282.084 251.536 282.497 251.206L297.527 238.937C297.94 238.608 297.65 238.008 296.993 237.869L290.401 236.481C289.932 236.382 289.616 236.021 289.685 235.693" fill="black"/>
<path d="M104.172 68.5765L104.454 67.2394C104.565 66.9443 104.643 66.6912 104.697 66.4332L104.855 65.6825C104.9 65.4714 104.944 65.2602 104.96 65.0676C105 64.8799 105.021 64.6639 105.06 64.4762C105.1 64.2885 105.149 64.0539 105.222 63.8243C105.271 63.5897 105.344 63.3601 105.399 63.102L105.759 61.3895C105.829 61.0611 105.898 60.7327 105.934 60.4462C105.998 60.1413 106.034 59.8548 106.098 59.5499C106.189 59.3486 106.257 59.1424 106.297 58.9548L106.732 56.8904C106.791 56.6089 106.855 56.3039 106.886 56.0409C106.945 55.7594 106.981 55.473 107.041 55.1915C107.095 54.9334 107.144 54.6988 107.217 54.4692C107.267 54.2346 107.34 54.005 107.394 53.7469L107.532 53.0901C107.582 52.8555 107.626 52.6443 107.6 52.4184L107.788 51.527C107.879 51.3257 107.947 51.1195 107.992 50.9084L108.432 48.8206C108.491 48.5391 108.555 48.2341 108.586 47.9711C108.645 47.6896 108.681 47.4032 108.741 47.1216C108.795 46.8636 108.849 46.6056 108.922 46.3759C108.977 46.1179 109.054 45.8648 109.104 45.6302L109.232 45.0202C109.272 44.8326 109.316 44.6214 109.29 44.3955L109.32 44.2547C109.389 43.9263 109.463 43.5744 109.561 43.2275C109.635 42.8756 109.733 42.5287 109.802 42.2002L110.093 40.8162C110.153 40.5347 110.217 40.2297 110.248 39.9667C110.307 39.6852 110.343 39.3988 110.402 39.1173C110.518 38.7987 110.606 38.4987 110.665 38.2172L110.858 37.3023C110.947 36.88 111.011 36.5751 110.985 36.3491L111.055 36.0207C111.114 35.7392 111.178 35.4342 111.266 35.1342C111.325 34.8527 111.418 34.5292 111.487 34.2008L111.793 32.7464C111.838 32.5352 111.887 32.3006 111.918 32.0377C111.973 31.7796 111.998 31.5401 112.043 31.3289C112.134 31.1277 112.202 30.9215 112.265 30.7388C112.305 30.5511 112.42 30.3548 112.558 30.1634C112.983 29.5424 113.616 29.2104 114.411 29.1574C114.642 29.108 114.858 29.1291 115.093 29.1785L115.82 29.3317C116.021 29.4231 116.181 29.4811 116.345 29.5157L118.057 29.8765C118.222 29.9111 118.414 29.9271 118.612 29.9197L119.644 30.1372C119.855 30.1817 120.019 30.2163 120.179 30.2743C120.343 30.3089 120.525 30.3719 120.713 30.4114L121.863 30.6536C122.074 30.6981 122.266 30.7141 122.487 30.7117L123.52 30.9291C123.731 30.9736 123.895 31.0082 124.054 31.0663C124.218 31.1008 124.401 31.1638 124.589 31.2034L125.715 31.4406C125.949 31.49 126.165 31.511 126.363 31.5036L127.395 31.7211C127.606 31.7655 127.771 31.8001 127.906 31.8533C128.047 31.8829 128.206 31.941 128.418 31.9854L129.215 32.1535C129.426 32.1979 129.59 32.2325 129.736 32.2387C129.877 32.2684 130.046 32.2795 130.257 32.324C130.468 32.3685 130.656 32.408 130.862 32.4759C131.073 32.5204 131.256 32.5834 131.467 32.6279C131.631 32.6625 131.772 32.6921 131.884 32.7403C131.997 32.7884 132.133 32.8416 132.287 32.9231C132.96 33.3343 133.315 33.9727 133.349 34.8617C133.367 35.3556 133.282 35.8766 133.088 36.4483C133.033 36.7063 132.917 37.0248 132.758 37.4323C132.38 38.0632 131.812 38.4335 131.059 38.5198C130.828 38.5692 130.518 38.5284 130.119 38.4444C129.711 38.4073 129.288 38.3183 128.853 38.1775L127.21 37.8316C126.929 37.7723 126.671 37.7179 126.408 37.687C126.173 37.6376 125.887 37.6018 125.605 37.5425C125.23 37.4634 124.878 37.3893 124.508 37.2868C124.132 37.2077 123.785 37.1101 123.41 37.031C123.082 36.9618 122.753 36.8927 122.42 36.8469C122.092 36.7777 121.758 36.732 121.453 36.6678C121.148 36.6035 120.82 36.5344 120.52 36.4466C120.215 36.3824 119.915 36.2947 119.586 36.2255C119.375 36.181 119.164 36.1366 118.948 36.1155C118.737 36.0711 118.492 36.0686 118.295 36.076C117.824 36.0994 117.475 36.2462 117.247 36.5166C117.028 36.7401 116.908 36.9598 116.864 37.171C116.782 37.3253 116.724 37.4846 116.695 37.6253C116.665 37.7661 116.63 37.9303 116.525 38.0797L116.313 39.0884C116.224 39.5106 116.155 39.8391 116.186 40.0416L115.958 41.1207C115.933 41.238 115.904 41.3787 115.846 41.538C115.816 41.6787 115.758 41.838 115.723 42.0022L115.343 43.8085C115.294 44.0431 115.296 44.2641 115.322 44.4901C115.277 44.7012 115.303 44.9272 115.376 45.163C115.518 45.5359 115.797 45.8397 116.26 46.0842C116.414 46.1657 116.691 46.2485 117.09 46.3325C117.291 46.4239 117.497 46.4918 117.708 46.5363L118.342 46.6697C118.553 46.7142 118.717 46.7488 118.886 46.7599C119.05 46.7945 119.243 46.8106 119.431 46.8501L120.651 47.1071C120.969 47.2232 121.246 47.306 121.527 47.3653L122.419 47.5531C122.63 47.5975 122.841 47.642 123.057 47.663C123.291 47.7125 123.508 47.7335 123.766 47.7878C124.258 47.8916 124.689 48.0559 125.063 48.2572C125.679 48.7055 126.011 49.3389 126.054 50.181C126.07 50.4539 126.063 50.7218 126.014 50.9564L125.855 51.7071C125.811 51.9182 125.7 52.2133 125.54 52.6207C125.138 53.3689 124.485 53.7948 123.638 53.8613C123.464 53.8737 123.224 53.8477 122.896 53.7785C122.731 53.7439 122.591 53.7143 122.468 53.713C122.346 53.7118 122.205 53.6821 122.041 53.6475C121.84 53.5561 121.54 53.4684 121.141 53.3844L119.264 52.9891C119.053 52.9446 118.866 52.9051 118.673 52.889C118.485 52.8495 118.293 52.8334 118.082 52.7889C117.763 52.6728 117.463 52.5851 117.163 52.4974C116.858 52.4332 116.553 52.3689 116.22 52.3232L115.516 52.1749C115.281 52.1255 115.06 52.128 114.858 52.1588C114.284 52.2093 113.853 52.5106 113.518 53.0526C113.427 53.2538 113.364 53.4365 113.334 53.5773C113.304 53.718 113.265 53.9057 113.15 54.102L112.844 55.5564C112.809 55.7207 112.77 55.9083 112.795 56.1343L112.583 57.143C112.548 57.3072 112.514 57.4714 112.461 57.6072C112.431 57.748 112.373 57.9073 112.338 58.0715L112.007 59.6432C111.973 59.8074 111.938 59.9716 111.969 60.1741L111.756 61.1829C111.722 61.3471 111.687 61.5113 111.634 61.6471C111.604 61.7878 111.546 61.9471 111.512 62.1113L111.191 63.6361C111.156 63.8004 111.121 63.9646 111.152 64.1671L110.925 65.2462C110.89 65.4104 110.856 65.5746 110.803 65.7104C110.773 65.8512 110.715 66.0104 110.68 66.1746L110.379 67.6056C110.339 67.7933 110.295 68.0044 110.326 68.2069L109.728 71.0454C109.649 71.4208 109.489 71.8282 109.273 72.2727C108.871 73.0209 108.222 73.4233 107.357 73.4615C106.938 73.4713 106.628 73.4305 106.488 73.4008L105.69 73.2328C105.489 73.1414 105.311 73.055 105.128 72.992C104.95 72.9055 104.773 72.8191 104.581 72.6808C104.124 72.2905 103.848 71.7423 103.77 71.0644C103.768 70.8434 103.779 70.6743 103.79 70.5051C103.82 70.3644 103.836 70.1717 103.88 69.9606L104.202 68.4358L104.172 68.5765Z" fill="black"/>
<path d="M145.336 81.6834L143.928 81.3869C143.764 81.3523 143.623 81.3226 143.487 81.2695C143.347 81.2399 143.211 81.1868 143.093 81.1621C142.882 81.1176 142.695 81.078 142.502 81.062C142.309 81.0459 142.122 81.0064 141.934 80.9668L141.629 80.9026C140.507 80.7642 139.428 80.5368 138.345 80.2107C137.993 80.1366 137.632 79.9872 137.282 79.7908C137.086 79.6759 136.946 79.5241 136.825 79.4006C136.704 79.2771 136.565 79.1252 136.453 78.9548L136.033 78.2781C135.726 77.8706 135.344 77.594 134.884 77.4483L134.009 77.0679C133.289 76.6467 132.9 76.0503 132.871 75.2601C132.835 75.0811 132.823 74.907 132.862 74.7193C132.902 74.5316 132.913 74.3625 132.91 74.1415C132.907 73.5772 132.748 73.0537 132.475 72.6042L132.054 71.9275C131.811 71.3373 131.698 70.8237 131.75 70.3446L131.869 69.7816C131.904 69.6174 131.943 69.4297 131.917 69.2037L132.184 67.937C132.29 67.6653 132.373 67.3888 132.427 67.1307L133.86 60.3277C133.91 60.0931 133.959 59.8585 133.943 59.5856L134.329 57.7559C134.383 57.4978 134.437 57.2398 134.51 57.0101C134.565 56.7521 134.638 56.5224 134.692 56.2644C134.751 55.9829 134.816 55.6779 134.893 55.4248C134.953 55.1433 135.012 54.8618 135.048 54.5753C135.117 54.2469 135.196 53.8716 135.252 53.4913C135.331 53.116 135.405 52.7641 135.502 52.4171C135.557 52.1591 135.611 51.901 135.694 51.6245C135.753 51.343 135.808 51.0849 135.838 50.8219C135.918 50.4466 135.997 50.0713 136.047 49.7144C136.121 49.3626 136.2 48.9872 136.303 48.6168C136.372 48.2884 136.441 47.96 136.524 47.6834C136.588 47.3784 136.653 47.0735 136.698 46.7401C136.768 46.4117 136.847 46.0364 136.902 45.6561C136.981 45.2807 137.055 44.9288 137.153 44.5819C137.217 44.2769 137.277 43.9954 137.354 43.7423C137.414 43.4608 137.473 43.1793 137.509 42.8929L138.734 37.0751C138.833 36.6059 138.993 36.1985 139.189 35.8479C139.533 35.2589 140.073 34.9071 140.878 34.8072C141.292 34.8208 141.63 34.8431 141.888 34.8975L142.733 35.0754C143.276 35.2878 143.71 35.5509 144.031 35.888C144.315 36.1683 144.462 36.5177 144.514 36.9697C144.54 37.1956 144.571 37.3981 144.536 37.5623C144.502 37.7265 144.509 37.9241 144.511 38.1451L144.205 39.5995C144.114 39.8008 144.051 39.9835 144.016 40.1477L143.897 40.7107C143.843 40.9688 143.789 41.2268 143.753 41.5133C143.694 41.7948 143.663 42.0578 143.608 42.3158L143.396 43.3245C143.28 43.6431 143.182 43.99 143.113 44.3184L142.9 45.3272C142.903 45.5482 142.887 45.7408 142.852 45.905L142.734 46.468C142.689 46.6791 142.645 46.8903 142.572 47.1199C142.522 47.3545 142.454 47.5607 142.41 47.7718L142.133 49.0855C142.099 49.2497 142.064 49.4139 142.048 49.6066C142.013 49.7708 142.002 49.9399 141.963 50.1276L141.844 50.6906C141.8 50.9017 141.76 51.0894 141.707 51.2252C141.677 51.366 141.614 51.5487 141.57 51.7598L141.293 53.0735C141.259 53.2377 141.224 53.4019 141.218 53.5476C141.188 53.6884 141.177 53.8575 141.142 54.0217L141.024 54.5848C140.979 54.7959 140.935 55.007 140.872 55.1897C140.832 55.3774 140.764 55.5836 140.72 55.7947L140.438 57.1319C140.404 57.2961 140.369 57.4603 140.358 57.6295C140.323 57.7937 140.312 57.9628 140.278 58.127L139.744 60.6606C139.699 60.8717 139.655 61.0828 139.592 61.2656C139.552 61.4532 139.484 61.6594 139.445 61.8471L139.178 63.1139C139.134 63.325 139.094 63.5127 139.088 63.6584C139.058 63.7991 139.047 63.9683 139.012 64.1325L138.904 64.6486C138.859 64.8597 138.815 65.0708 138.752 65.2536C138.712 65.4412 138.644 65.6474 138.6 65.8585L138.318 67.1957C138.284 67.3599 138.249 67.5241 138.243 67.6698C138.213 67.8106 138.202 67.9797 138.167 68.1439L137.782 69.9737C137.784 70.1947 137.763 70.4108 137.747 70.6034C137.708 70.7911 137.734 71.017 137.76 71.243C137.795 71.422 137.915 71.6677 138.119 71.9802C138.405 72.4815 138.696 72.9593 139.016 73.4187C139.182 73.7965 139.554 74.1201 140.158 74.3943C140.359 74.4857 140.547 74.5252 140.74 74.5413C140.927 74.5808 141.115 74.6203 141.321 74.6883L142.893 75.0194C143.165 75.1256 143.441 75.2084 143.699 75.2627L144.52 75.4357C144.929 75.4728 145.333 75.5333 145.731 75.6173C146.13 75.7013 146.506 75.7804 146.943 75.799C147.341 75.883 147.623 75.9423 147.802 75.9065C148.16 75.835 148.523 75.7399 148.906 75.5511C149.105 75.4214 149.28 75.2869 149.45 75.1758C149.621 75.0647 149.801 74.9067 150.01 74.7301C150.251 74.6339 150.426 74.4993 150.611 74.3178C150.887 74.0573 151.106 73.7116 151.276 73.2573C151.31 73.0931 151.345 72.9289 151.408 72.7461C151.442 72.5819 151.505 72.3992 151.55 72.1881L151.802 70.9917C151.908 70.72 151.996 70.42 152.05 70.162L152.243 69.2471C152.287 69.036 152.327 68.8483 152.338 68.6791C152.373 68.5149 152.389 68.3223 152.433 68.1112L152.764 66.5394C152.866 66.2913 152.943 66.0382 152.993 65.8036L153.151 65.0529C153.228 64.4566 153.328 63.8651 153.441 63.3256L153.802 61.6131C153.856 61.355 153.911 61.097 153.984 60.8674C154.038 60.6093 154.116 60.3562 154.165 60.1216L154.432 58.8548C154.432 58.8548 154.406 58.6289 154.441 58.4647L154.762 56.9399C154.821 56.6584 154.886 56.3534 154.963 56.1003C155.023 55.8188 155.105 55.5422 155.165 55.2607C155.209 55.0496 155.254 54.8385 155.27 54.6458C155.309 54.4582 155.33 54.2421 155.375 54.031L155.706 52.4592C155.807 52.2111 155.885 51.958 155.934 51.7234L156.093 50.9727C156.152 50.6912 156.216 50.3862 156.247 50.1232C156.306 49.8417 156.342 49.5553 156.401 49.2738C156.446 49.0627 156.49 48.8515 156.553 48.6688C156.593 48.4811 156.661 48.2749 156.705 48.0638L156.972 46.797C156.972 46.797 157.002 46.6563 156.988 46.6044C156.998 46.5575 156.98 46.5291 156.99 46.4822L157.321 44.9104C157.38 44.6289 157.444 44.324 157.532 44.024C157.596 43.719 157.679 43.4424 157.743 43.1375C157.788 42.9263 157.827 42.7387 157.838 42.5695C157.873 42.4053 157.889 42.2127 157.933 42.0016L158.111 41.157C158.171 40.8755 158.277 40.6039 158.407 40.3372C158.82 39.4199 159.483 38.9471 160.409 38.9707C160.753 38.9695 161.044 38.9819 161.279 39.0313L162.076 39.1993C162.277 39.2907 162.455 39.3772 162.638 39.4401C162.816 39.5266 162.989 39.6365 163.185 39.7514C163.632 40.1885 163.898 40.7837 163.966 41.5084C163.959 41.7764 163.933 42.0159 163.907 42.2554C163.857 42.49 163.808 42.7246 163.73 42.9777L163.503 44.0568C163.478 44.1741 163.449 44.3149 163.4 44.4272C163.376 44.5445 163.328 44.6569 163.313 44.7272C163.315 44.9483 163.294 45.1643 163.255 45.352L162.691 48.0263C162.691 48.0263 162.652 48.214 162.599 48.3498C162.574 48.4671 162.521 48.6029 162.496 48.7202C162.498 48.9412 162.477 49.1573 162.438 49.3449L161.884 51.9723C161.86 52.0896 161.83 52.2304 161.782 52.3427C161.734 52.4551 161.704 52.5958 161.679 52.7131C161.682 52.9341 161.661 53.1502 161.616 53.3613L161.068 55.9652C161.023 56.1764 160.984 56.364 160.926 56.5233C160.868 56.6826 160.828 56.8703 160.784 57.0814C160.786 57.3024 160.76 57.5419 160.706 57.8L160.548 58.5507C160.55 58.7717 160.511 58.9593 160.457 59.0952C160.428 59.2359 160.365 59.4186 160.32 59.6298L160.256 59.9347C160.212 60.1458 160.172 60.3335 160.104 60.5397C160.065 60.7274 159.997 60.9336 159.952 61.1447C159.879 61.8398 159.788 62.5066 159.626 63.1585C159.464 63.8104 159.331 64.4438 159.197 65.0771L159.044 65.8044C158.995 66.0389 158.95 66.2501 158.835 66.4464C158.801 66.6106 158.771 66.7513 158.765 66.897C158.735 67.0378 158.729 67.1835 158.694 67.3477L158.057 70.3739C158.003 70.6319 157.948 70.89 157.828 71.1097C157.794 71.2739 157.759 71.4382 157.753 71.5838C157.723 71.7246 157.712 71.8938 157.678 72.058L157.559 72.621C157.48 72.9963 157.401 73.3717 157.34 73.7754C157.261 74.1507 157.182 74.5261 157.08 74.8965L156.927 75.6237C156.877 75.8583 156.786 76.0595 156.671 76.2558C156.533 76.4472 156.423 76.62 156.276 76.7361C156.152 76.8571 156 76.9966 155.848 77.1361C155.758 77.2151 155.65 77.2657 155.56 77.3447C155.469 77.4237 155.361 77.4743 155.271 77.5533C154.773 77.9385 154.439 78.3583 154.307 78.8694C154.216 79.0707 154.153 79.2534 154.1 79.3892C154.07 79.5299 153.989 79.6843 153.907 79.8386C153.514 80.5399 152.895 80.9238 152.076 80.9718C151.845 81.0212 151.647 81.0286 151.502 81.0224C151.338 80.9878 151.163 81.0001 150.989 81.0124C150.534 80.9655 150.062 81.1111 149.551 81.4444C149.352 81.574 149.177 81.7086 149.035 81.8012C148.893 81.8937 148.699 81.9999 148.463 82.0727C148.279 82.132 148.105 82.1443 147.931 82.1566C147.757 82.1689 147.583 82.1813 147.414 82.1701C147.065 82.1948 146.732 82.1491 146.408 82.0564C146.085 81.9638 145.757 81.8946 145.428 81.8254" fill="black"/>
<path d="M175.559 48.1389C175.395 48.1043 175.207 48.0648 175.024 48.0018L173.992 47.7844C173.992 47.7844 173.861 47.7078 173.81 47.7214C173.763 47.7115 173.711 47.7251 173.617 47.7053L173.195 47.6164C172.866 47.5472 172.585 47.4879 172.298 47.452C172.04 47.3977 171.735 47.3334 171.412 47.2408C170.966 47.1469 170.545 46.9357 170.154 46.5837C169.72 46.1985 169.491 45.6601 169.46 44.9921C169.458 44.7711 169.498 44.4612 169.587 44.0389L169.736 43.3352C169.79 43.0771 169.839 42.8426 169.954 42.6462C170.382 41.7808 171.092 41.3178 172.027 41.2945C172.282 41.2501 172.521 41.2761 172.756 41.3255L173.46 41.4737C173.661 41.5651 173.82 41.6232 173.961 41.6528L175.72 42.0235C175.908 42.063 176.096 42.1025 176.322 42.0766L177.354 42.2941C177.565 42.3385 177.753 42.3781 177.935 42.4411C178.123 42.4806 178.306 42.5436 178.517 42.5881L179.549 42.8055C179.76 42.85 179.948 42.8895 180.174 42.8636L181.206 43.0811C181.417 43.1255 181.581 43.1601 181.741 43.2182C181.905 43.2528 182.088 43.3158 182.275 43.3553L183.401 43.5925C183.612 43.637 183.847 43.6864 184.049 43.6556L185.082 43.873C185.293 43.9175 185.457 43.9521 185.616 44.0101C185.781 44.0447 185.94 44.1028 186.104 44.1374L187.23 44.3746C187.465 44.424 187.699 44.4734 187.949 44.4525L188.934 44.66C189.145 44.7045 189.309 44.7391 189.468 44.7971C189.633 44.8317 189.815 44.8947 190.003 44.9343L190.73 45.0874C190.941 45.1319 191.129 45.1715 191.275 45.1776C191.439 45.2122 191.608 45.2234 191.772 45.258C191.984 45.3024 192.195 45.3469 192.401 45.4149C192.612 45.4593 192.842 45.5322 193.029 45.5717C193.405 45.6508 193.695 45.7854 193.975 45.967C194.531 46.3535 194.831 46.9067 194.903 47.608C194.953 47.8389 194.937 48.0315 194.907 48.1723L194.67 49.2983C194.63 49.486 194.586 49.6971 194.471 49.8934C194.379 50.0946 194.316 50.2774 194.24 50.4082C194.163 50.5391 194.082 50.6934 193.953 50.8379C193.563 51.2947 193.03 51.5008 192.348 51.4797C192.174 51.4921 192.028 51.4859 191.859 51.4747C191.718 51.4451 191.549 51.4339 191.338 51.3895C191.184 51.308 191.025 51.2499 190.86 51.2153L187.787 50.5679C187.482 50.5037 187.172 50.4629 186.834 50.4406C186.67 50.406 186.529 50.3764 186.393 50.3233C186.253 50.2936 186.088 50.259 185.919 50.2479C185.567 50.1738 185.243 50.2034 185.006 50.3984C184.689 50.5033 184.438 50.7688 184.278 51.1762C184.244 51.3404 184.209 51.5046 184.156 51.6404C184.126 51.7812 184.068 51.9404 184.034 52.1047C183.942 52.3059 183.855 52.6059 183.775 52.9813C183.711 53.2862 183.652 53.5677 183.611 53.8776C183.547 54.1826 183.511 54.4691 183.447 54.774L183.234 55.7827C183.113 56.1247 183.021 56.4482 182.951 56.7766L182.739 57.7854C182.751 57.9595 182.72 58.2225 182.651 58.5509L182.409 59.7004C182.374 59.8646 182.335 60.0522 182.22 60.2485L181.968 61.4449C181.924 61.6561 181.884 61.8437 181.878 61.9894C181.848 62.1302 181.837 62.2993 181.802 62.4636L181.536 63.7303C181.501 63.8945 181.461 64.0822 181.347 64.2785L181.095 65.4749C181.05 65.686 181.011 65.8737 181.004 66.0194C180.975 66.1602 180.964 66.3293 180.929 66.4935L180.682 67.6665C180.642 67.8541 180.598 68.0653 180.483 68.2616L180.216 69.5283C180.182 69.6926 180.147 69.8568 180.131 70.0494C180.096 70.2136 180.085 70.3827 180.051 70.547L179.808 71.6964C179.764 71.9076 179.719 72.1187 179.605 72.315L179.338 73.5818C179.303 73.746 179.269 73.9102 179.252 74.1028C179.218 74.267 179.207 74.4362 179.167 74.6238L178.92 75.7968C178.881 75.9844 178.836 76.1956 178.721 76.3919L178.469 77.5883C178.435 77.7525 178.4 77.9167 178.394 78.0624C178.364 78.2031 178.353 78.3723 178.318 78.5365L178.061 79.7564C178.012 79.991 177.968 80.2021 177.853 80.3984L177.601 81.5948C177.603 81.8158 177.587 82.0084 177.557 82.1492L176.772 85.8791C176.732 86.0668 176.641 86.268 176.531 86.4409C176.118 87.236 175.447 87.6335 174.558 87.6667C174.04 87.6802 173.496 87.59 172.901 87.3911C172.619 87.3318 172.306 87.1923 171.955 86.9959C171.446 86.6193 171.141 86.0895 171.087 85.4166C171.049 85.0166 171.058 84.6264 171.142 84.2276C171.226 83.8288 171.3 83.4769 171.35 83.1201C171.425 82.7682 171.475 82.4114 171.544 82.083C171.636 81.8817 171.704 81.6755 171.743 81.4879L171.872 80.8779C171.931 80.5964 171.99 80.3149 172.068 80.0618C172.123 79.8038 172.177 79.5457 172.218 79.2358L172.628 77.2887C172.697 76.9603 172.771 76.6084 172.869 76.2615C172.943 75.9096 173.017 75.5577 173.063 75.2244C173.132 74.8959 173.206 74.5441 173.252 74.2107C173.321 73.8823 173.395 73.5304 173.488 73.2069C173.711 72.4945 173.855 71.8142 173.928 71.1191C173.997 70.7907 174.071 70.4388 174.122 70.0819C174.196 69.7301 174.27 69.3782 174.362 69.0547C174.553 68.3843 174.696 67.704 174.787 67.0372L175.173 65.2075C175.242 64.879 175.316 64.5272 175.414 64.1802C175.511 63.8333 175.562 63.4765 175.608 63.1431C175.687 62.7677 175.766 62.3924 175.817 62.0356C175.891 61.6837 175.965 61.3318 176.057 61.0083C176.248 60.3379 176.386 59.6811 176.482 58.9909L177.678 53.3139C177.748 52.9854 177.817 52.657 177.9 52.3804C177.982 52.1039 178.028 51.7705 178.074 51.4372L178.232 50.6865C178.286 50.4284 178.289 50.184 178.273 49.9111C178.205 49.1863 177.904 48.7554 177.351 48.5898C177.149 48.4984 176.962 48.4589 176.816 48.4527C176.652 48.4181 176.488 48.3835 176.328 48.3255L175.976 48.2513C175.765 48.2069 175.578 48.1673 175.432 48.1611" fill="black"/>
<path d="M207.34 94.7447L205.932 94.4482C205.768 94.4136 205.627 94.3839 205.491 94.3308C205.35 94.3011 205.215 94.248 205.097 94.2233C204.886 94.1789 204.699 94.1393 204.506 94.1232C204.313 94.1072 204.126 94.0676 203.915 94.0232L203.61 93.9589C202.487 93.8205 201.408 93.5932 200.325 93.2671C199.973 93.1929 199.613 93.0435 199.262 92.8471C199.066 92.7323 198.927 92.5804 198.806 92.4569C198.685 92.3334 198.545 92.1815 198.411 92.0062L197.99 91.3295C197.683 90.922 197.301 90.6454 196.818 90.4947L195.943 90.1143C195.223 89.6932 194.834 89.0968 194.804 88.3065C194.769 88.1275 194.756 87.9534 194.796 87.7657C194.835 87.5781 194.846 87.4089 194.844 87.1879C194.84 86.6236 194.681 86.1001 194.408 85.6506L193.987 84.974C193.744 84.3837 193.632 83.8701 193.684 83.391L193.803 82.828C193.837 82.6638 193.877 82.4761 193.851 82.2502L194.118 80.9834C194.224 80.7118 194.307 80.4352 194.361 80.1772L195.794 73.3741C195.843 73.1395 195.893 72.905 195.877 72.6321L196.262 70.8023C196.317 70.5443 196.371 70.2862 196.444 70.0566C196.498 69.7985 196.571 69.5689 196.626 69.3108C196.685 69.0293 196.749 68.7244 196.827 68.4713C196.886 68.1897 196.946 67.9082 196.981 67.6218C197.051 67.2934 197.13 66.918 197.185 66.5377C197.264 66.1624 197.338 65.8105 197.436 65.4636C197.49 65.2055 197.545 64.9475 197.627 64.6709C197.687 64.3894 197.741 64.1314 197.772 63.8684C197.851 63.493 197.93 63.1177 197.981 62.7609C198.055 62.409 198.134 62.0337 198.237 61.6633C198.306 61.3348 198.375 61.0064 198.458 60.7299C198.522 60.4249 198.586 60.1199 198.632 59.7866C198.701 59.4581 198.78 59.0828 198.836 58.7025C198.915 58.3272 198.989 57.9753 199.087 57.6284C199.151 57.3234 199.21 57.0419 199.288 56.7888C199.347 56.5073 199.407 56.2258 199.442 55.9393L200.668 50.1215C200.767 49.6524 200.926 49.2449 201.122 48.8943C201.467 48.3054 202.007 47.9536 202.812 47.8537C203.225 47.8673 203.564 47.8896 203.822 47.9439L204.666 48.1218C205.209 48.3343 205.644 48.5973 205.965 48.9344C206.249 49.2147 206.396 49.5642 206.448 50.0161C206.474 50.2421 206.504 50.4445 206.493 50.6137C206.459 50.7779 206.466 50.9755 206.468 51.1965L206.162 52.6509C206.071 52.8522 206.008 53.0349 205.973 53.1991L205.854 53.7621C205.8 54.0202 205.746 54.2782 205.71 54.5647C205.651 54.8462 205.62 55.1092 205.565 55.3672L205.353 56.3759C205.237 56.6945 205.139 57.0414 205.07 57.3698L204.857 58.3786C204.86 58.5996 204.844 58.7922 204.809 58.9564L204.691 59.5194C204.646 59.7305 204.602 59.9417 204.529 60.1713C204.479 60.4059 204.411 60.6121 204.367 60.8232L204.09 62.1369C204.056 62.3011 204.021 62.4653 204.005 62.6579C203.97 62.8222 203.959 62.9913 203.92 63.179L203.801 63.742C203.757 63.9531 203.717 64.1408 203.664 64.2766C203.634 64.4173 203.571 64.6001 203.527 64.8112L203.25 66.1249C203.216 66.2891 203.181 66.4533 203.175 66.599C203.145 66.7398 203.134 66.9089 203.099 67.0731L202.981 67.6361C202.936 67.8473 202.892 68.0584 202.829 68.2411C202.789 68.4288 202.721 68.635 202.677 68.8461L202.395 70.1833C202.361 70.3475 202.326 70.5117 202.315 70.6808C202.28 70.8451 202.269 71.0142 202.235 71.1784L201.701 73.712C201.656 73.9231 201.612 74.1342 201.549 74.317C201.509 74.5046 201.441 74.7108 201.402 74.8985L201.135 76.1653C201.091 76.3764 201.051 76.5641 201.045 76.7097C201.015 76.8505 201.004 77.0197 200.969 77.1839L200.861 77.7C200.816 77.9111 200.772 78.1222 200.709 78.3049C200.669 78.4926 200.601 78.6988 200.557 78.9099L200.275 80.2471C200.241 80.4113 200.206 80.5755 200.2 80.7212C200.17 80.862 200.159 81.0311 200.124 81.1953L199.739 83.0251C199.741 83.2461 199.72 83.4622 199.704 83.6548C199.665 83.8425 199.691 84.0684 199.717 84.2944C199.776 84.4784 199.872 84.7191 200.076 85.0315C200.362 85.5329 200.653 86.0107 200.973 86.4701C201.139 86.8479 201.535 87.1764 202.092 87.4407C202.293 87.5321 202.481 87.5716 202.673 87.5877C202.861 87.6273 203.049 87.6668 203.255 87.7347L204.85 88.0708C205.122 88.177 205.398 88.2597 205.656 88.3141L206.477 88.4871C206.886 88.5242 207.29 88.5847 207.689 88.6687C208.087 88.7527 208.463 88.8318 208.9 88.8504C209.299 88.9344 209.58 88.9937 209.759 88.9579C210.117 88.8863 210.48 88.7913 210.863 88.6025C211.062 88.4728 211.237 88.3383 211.407 88.2272C211.578 88.1161 211.782 87.963 211.967 87.7815C212.208 87.6852 212.406 87.5556 212.568 87.3692C212.844 87.1087 213.063 86.763 213.233 86.3087C213.267 86.1445 213.302 85.9803 213.365 85.7975C213.399 85.6333 213.462 85.4506 213.507 85.2395L213.759 84.0431C213.865 83.7714 213.953 83.4714 214.007 83.2134L214.2 82.2985C214.244 82.0873 214.284 81.8997 214.295 81.7305C214.33 81.5663 214.346 81.3737 214.39 81.1626L214.721 79.5908C214.823 79.3427 214.9 79.0896 214.95 78.855L215.108 78.1043C215.185 77.5079 215.285 76.9165 215.398 76.377L215.759 74.6645C215.813 74.4064 215.868 74.1484 215.941 73.9187C215.995 73.6607 216.073 73.4076 216.122 73.173L216.389 71.9062C216.389 71.9062 216.363 71.6803 216.398 71.5161L216.719 69.9912C216.778 69.7097 216.843 69.4048 216.92 69.1517C216.98 68.8702 217.062 68.5936 217.122 68.3121C217.166 68.101 217.211 67.8898 217.227 67.6972C217.266 67.5096 217.287 67.2935 217.332 67.0824L217.663 65.5106C217.764 65.2625 217.842 65.0094 217.891 64.7748L218.05 64.0241C218.109 63.7426 218.173 63.4376 218.204 63.1746C218.263 62.8931 218.299 62.6067 218.358 62.3252C218.403 62.114 218.447 61.9029 218.51 61.7202C218.55 61.5325 218.618 61.3263 218.662 61.1152L218.929 59.8484C218.929 59.8484 218.959 59.7077 218.945 59.6558C218.955 59.6089 218.937 59.5805 218.947 59.5336L219.278 57.9618C219.337 57.6803 219.401 57.3754 219.489 57.0753C219.553 56.7704 219.636 56.4938 219.7 56.1889C219.745 55.9777 219.784 55.7901 219.795 55.6209C219.83 55.4567 219.846 55.2641 219.89 55.0529L220.068 54.2084C220.128 53.9269 220.234 53.6553 220.364 53.3886C220.777 52.4713 221.44 51.9985 222.366 52.0221C222.71 52.0209 223.001 52.0333 223.236 52.0827L224.033 52.2507C224.235 52.3421 224.412 52.4285 224.595 52.4915C224.773 52.578 224.946 52.6879 225.142 52.8027C225.589 53.2399 225.855 53.8351 225.923 54.5598C225.916 54.8278 225.89 55.0673 225.864 55.3068C225.815 55.5414 225.765 55.776 225.687 56.0291L225.46 57.1082C225.435 57.2255 225.406 57.3663 225.357 57.4786C225.333 57.5959 225.285 57.7083 225.27 57.7786C225.272 57.9996 225.251 58.2157 225.212 58.4034L224.648 61.0777C224.648 61.0777 224.609 61.2654 224.556 61.4012C224.531 61.5185 224.478 61.6543 224.453 61.7716C224.456 61.9926 224.435 62.2086 224.395 62.3963L223.841 65.0237C223.817 65.141 223.787 65.2817 223.739 65.3941C223.714 65.5114 223.661 65.6472 223.636 65.7645C223.639 65.9855 223.618 66.2016 223.573 66.4127L223.025 69.0166C222.98 69.2278 222.941 69.4154 222.883 69.5747C222.848 69.7389 222.785 69.9216 222.741 70.1328C222.743 70.3538 222.717 70.5933 222.663 70.8514L222.505 71.602C222.507 71.8231 222.468 72.0107 222.414 72.1465C222.385 72.2873 222.322 72.47 222.277 72.6811L222.213 72.9861C222.169 73.1972 222.129 73.3849 222.061 73.5911C222.022 73.7788 221.954 73.985 221.909 74.1961C221.836 74.8912 221.745 75.5579 221.583 76.2098C221.421 76.8618 221.288 77.4951 221.154 78.1285L221.001 78.8557C220.952 79.0903 220.907 79.3015 220.792 79.4978C220.758 79.662 220.728 79.8027 220.722 79.9484C220.692 80.0892 220.686 80.2349 220.652 80.3991L220.014 83.4253C219.96 83.6833 219.905 83.9414 219.785 84.1611C219.751 84.3253 219.716 84.4895 219.71 84.6352C219.68 84.776 219.669 84.9451 219.635 85.1094L219.516 85.6724C219.437 86.0477 219.358 86.4231 219.297 86.8268C219.218 87.2021 219.139 87.5775 219.037 87.9479L218.884 88.6751C218.834 88.9097 218.743 89.1109 218.628 89.3072C218.513 89.5035 218.38 89.6714 218.233 89.7875C218.109 89.9085 217.957 90.048 217.806 90.1875C217.715 90.2665 217.607 90.3171 217.517 90.3961C217.426 90.4751 217.318 90.5257 217.228 90.6047C216.73 90.9899 216.397 91.4096 216.241 91.9159C216.15 92.1171 216.087 92.2998 216.033 92.4356C216.004 92.5764 215.922 92.7307 215.841 92.8851C215.425 93.5814 214.828 93.9702 214.01 94.0183C213.779 94.0676 213.581 94.075 213.435 94.0688C213.271 94.0342 213.097 94.0466 212.923 94.0589C212.467 94.0119 211.996 94.1575 211.484 94.4908C211.286 94.6205 211.11 94.755 210.968 94.8476C210.826 94.9402 210.632 95.0464 210.397 95.1192C210.213 95.1784 210.039 95.1907 209.864 95.2031C209.69 95.2154 209.516 95.2277 209.347 95.2166C208.999 95.2412 208.666 95.1955 208.342 95.1029C208.019 95.0102 207.69 94.941 207.362 94.8718" fill="black"/>
<path d="M241.458 61.9974L240.73 61.8442C240.496 61.7948 240.261 61.7454 240.035 61.7713C239.908 61.7935 239.786 61.7922 239.645 61.7626C239.504 61.7329 239.377 61.7551 239.245 61.8008C239.118 61.823 238.957 61.8872 238.758 62.0168C238.46 62.2724 238.278 62.5526 238.209 62.881C238.118 63.0823 238.055 63.265 238.001 63.4008C237.948 63.5366 237.909 63.7243 237.864 63.9354L237.583 65.2726C237.548 65.4368 237.513 65.601 237.502 65.7702C237.468 65.9344 237.452 66.127 237.407 66.3381L237.303 66.8307C237.212 67.032 237.124 67.332 237.045 67.7074L236.63 69.6779C236.63 69.6779 236.596 69.8421 236.599 69.9409C236.579 70.0347 236.588 70.11 236.568 70.2039L236.46 70.72C236.405 70.978 236.351 71.2361 236.278 71.4657C236.2 71.7188 236.146 71.9769 236.096 72.2114L235.844 73.4078C235.857 73.5819 235.846 73.7511 235.816 73.8918C235.786 74.0326 235.799 74.2067 235.834 74.3857C235.859 74.7339 235.903 74.9883 235.991 75.1537C236.228 75.4242 236.527 75.6341 236.882 75.807C237.084 75.8984 237.243 75.9565 237.402 76.0145C237.561 76.0726 237.749 76.1121 237.937 76.1516L239.157 76.4086C239.354 76.4012 239.57 76.4222 239.758 76.4618L240.954 76.7138C241.166 76.7583 241.348 76.8213 241.549 76.9127C241.831 76.972 242.112 77.0313 242.375 77.0622C242.634 77.1165 242.92 77.1524 243.201 77.2117L244.656 77.5181C244.877 77.5156 245.088 77.5601 245.294 77.628C245.505 77.6725 245.74 77.7219 246.018 77.6825C246.483 77.6825 246.87 77.5924 247.154 77.4073C247.433 77.2456 247.74 77.0653 248.029 76.8567C248.318 76.6481 248.626 76.4678 248.915 76.2592C249.113 76.1296 249.242 75.9851 249.328 75.8074C249.49 75.6209 249.61 75.4012 249.688 75.1481C249.742 74.89 249.838 74.6653 249.93 74.4641L250.409 72.1886C250.51 71.9404 250.583 71.7108 250.633 71.4762L250.786 70.749C250.84 70.4909 250.895 70.2329 250.921 69.9933C250.975 69.7353 251.001 69.4958 251.045 69.2846C251.043 69.0636 251.087 68.8525 251.16 68.6228C251.21 68.3883 251.254 68.1771 251.275 67.9611C251.32 67.7499 251.337 67.4351 251.356 66.998C251.306 66.7671 251.233 66.5313 251.109 66.309C250.984 66.0867 250.859 65.8645 250.73 65.6657C250.549 65.3582 250.396 65.1545 250.299 65.0359C250.225 64.9223 250.174 64.8136 250.077 64.6951C250.008 64.558 249.929 64.4679 249.854 64.3543C249.688 64.0987 249.478 63.932 249.23 63.8307C248.982 63.7294 248.733 63.6281 248.504 63.5553L247.049 63.2489C246.848 63.1575 246.642 63.0895 246.407 63.0401L245.68 62.8869C245.352 62.8177 245.047 62.7535 244.76 62.7177C244.479 62.6584 244.169 62.6176 243.84 62.5484C243.559 62.4891 243.301 62.4347 243.048 62.3569C242.818 62.284 242.56 62.2297 242.326 62.1803L241.481 62.0023L241.458 61.9974ZM256.606 71.2646C256.562 71.4757 256.517 71.6868 256.444 71.9165C256.395 72.1511 256.322 72.3807 256.268 72.6388C256.233 72.803 256.199 72.9672 256.192 73.1129C256.163 73.2536 256.147 73.4462 256.102 73.6574L256.023 74.0327C256.001 74.371 255.95 74.7278 255.881 75.0563L255.668 76.065C255.577 76.2662 255.528 76.5008 255.497 76.7638C255.442 77.0219 255.388 77.2799 255.245 77.4947C255.084 78.0244 254.764 78.496 254.267 78.8812C254.031 78.954 253.827 79.1071 253.67 79.27C253.216 79.5663 252.901 80.0145 252.684 80.5812C252.592 80.7824 252.529 80.9651 252.476 81.1009C252.446 81.2417 252.365 81.396 252.283 81.5504C251.891 82.2516 251.271 82.6355 250.452 82.6836C250.221 82.7329 250.029 82.7169 249.888 82.6872C249.747 82.6576 249.526 82.66 249.324 82.6908C248.445 82.6771 247.744 83.0932 247.28 83.9018C247.164 84.2204 247.137 84.5821 247.185 84.9353C247.187 85.1563 247.222 85.4576 247.317 85.8206C247.366 86.0515 247.35 86.2441 247.316 86.4083C247.281 86.5725 247.241 86.7602 247.267 86.9861C247.248 87.5454 247.323 88.0023 247.493 88.3567C247.581 88.5221 247.673 88.6641 247.742 88.8012C247.812 88.9383 247.881 89.0753 247.96 89.1655C248.089 89.3643 248.154 89.5248 248.186 89.6051C248.356 89.9594 248.431 90.4163 248.411 90.9756L248.396 91.977C248.445 92.3301 248.558 92.7215 248.724 93.0993C248.779 93.1845 248.853 93.2981 248.951 93.4167C249.025 93.5303 249.104 93.6204 249.178 93.734C249.427 94.1786 249.53 94.7391 249.537 95.4022C249.549 95.5763 249.538 95.7454 249.527 95.9146C249.492 96.0788 249.505 96.2529 249.517 96.427C249.547 96.7517 249.628 97.0629 249.822 97.4222C249.863 97.5778 249.96 97.6963 250.053 97.8383C250.145 97.9803 250.243 98.0989 250.284 98.2544C250.533 98.699 250.635 99.2595 250.643 99.9226C250.593 100.623 250.446 101.204 250.202 101.667C250.046 102.173 249.793 102.561 249.38 102.891C249.054 103.042 248.738 103.147 248.427 103.229C248.121 103.287 247.754 103.283 247.355 103.199L246.511 103.021C246.31 102.93 246.103 102.862 245.902 102.77C245.678 102.674 245.481 102.559 245.323 102.379C244.876 101.942 244.647 101.403 244.629 100.787C244.617 100.613 244.623 100.468 244.63 100.322C244.659 100.181 244.642 100.03 244.63 99.8564C244.706 99.26 244.58 98.6945 244.224 98.1783C244.178 98.0462 244.09 97.8808 243.998 97.7388C243.905 97.5968 243.817 97.4313 243.772 97.2992C243.592 96.9917 243.511 96.5583 243.531 95.999C243.509 95.8718 243.515 95.7261 243.54 95.6088C243.565 95.4915 243.594 95.3508 243.549 95.2187C243.498 94.6445 243.371 94.2012 243.191 93.8938C242.969 93.553 242.807 93.2739 242.729 93.0615C242.562 92.8059 242.49 92.5701 242.469 92.3207C242.448 92.0713 242.427 91.8219 242.411 91.549L242.421 90.5711C242.418 90.3501 242.387 90.1476 242.323 89.9871C242.259 89.8265 242.176 89.6376 242.094 89.4487L241.673 88.772C241.47 88.3374 241.339 87.7953 241.299 87.1743C241.333 87.0101 241.341 86.7421 241.34 86.3989C241.354 85.863 241.227 85.4197 240.926 84.9888C240.843 84.7999 240.732 84.6295 240.621 84.4591C240.505 84.3121 240.399 84.1183 240.316 83.9293C240.266 83.8207 240.187 83.7305 240.089 83.612C240.015 83.4984 239.936 83.4082 239.862 83.2946C239.672 83.0341 239.355 82.7958 238.939 82.5611C238.737 82.4697 238.578 82.4117 238.414 82.3771L237.874 82.2634C237.663 82.2189 237.499 82.1843 237.363 82.1312C237.222 82.1016 237.063 82.0435 236.852 81.9991C236.608 81.9966 236.345 81.9657 236.082 81.9348C235.824 81.8804 235.551 81.8964 235.273 81.9359C234.849 81.9692 234.48 82.2099 234.17 82.6346C234.065 82.784 233.984 82.9383 233.944 83.126C233.905 83.3136 233.875 83.4544 233.77 83.6038L233.503 84.8705C233.449 85.1286 233.394 85.3866 233.368 85.6262C233.314 85.8842 233.283 86.1472 233.234 86.3818L233.115 86.9448C233.115 86.9448 233.081 87.109 233.037 87.1979C232.994 87.2868 232.979 87.3572 232.96 87.451L232.678 88.7882C232.619 89.0697 232.559 89.3512 232.528 89.6142C232.474 89.8722 232.438 90.1587 232.379 90.4402C232.29 90.8624 232.226 91.1674 232.111 91.3637C232.042 91.6921 231.967 92.044 231.875 92.3675C231.806 92.6959 231.732 93.0478 231.686 93.3811C231.609 93.9775 231.514 94.5454 231.395 95.1085L231.049 96.7506C230.99 97.0321 230.864 97.3975 230.705 97.805C230.278 98.6704 229.591 99.1383 228.702 99.1715C228.283 99.1814 227.974 99.1406 227.833 99.1109L227.035 98.9429C226.834 98.8515 226.651 98.7885 226.45 98.6971C226.249 98.6057 226.071 98.5193 225.88 98.381C225.451 97.9722 225.222 97.4339 225.154 96.7091C225.172 96.272 225.19 95.9571 225.234 95.746L225.713 93.4705C225.758 93.2594 225.798 93.0717 225.856 92.9124C225.89 92.7482 225.953 92.5655 225.998 92.3544L226.319 90.8296C226.415 90.1394 226.563 89.4356 226.773 88.6714L227.174 86.7712C227.257 86.0291 227.405 85.3254 227.628 84.613L228.029 82.7128C228.112 81.9708 228.26 81.267 228.483 80.5546L228.884 78.6545C228.98 77.9643 229.128 77.2605 229.338 76.4962L229.763 74.4788C229.87 73.7417 230.013 73.0614 230.203 72.391L230.574 70.6315C230.67 69.9414 230.818 69.2376 231.028 68.4733L231.429 66.5732C231.512 65.8311 231.66 65.1274 231.883 64.415L232.244 62.7025C232.313 62.3741 232.387 62.0222 232.438 61.6654C232.512 61.3135 232.563 60.9566 232.632 60.6282C232.701 60.2998 232.77 59.9714 232.853 59.6948C232.917 59.3898 233.005 59.0898 233.074 58.7614C233.144 58.433 233.208 58.128 233.244 57.8416C233.303 57.5601 233.344 57.2502 233.413 56.9217C233.522 56.4056 233.704 56.0032 234 55.6488C234.476 55.0143 235.086 54.6773 235.791 54.7033C236.046 54.6589 236.29 54.6614 236.525 54.7108L237.228 54.859C237.406 54.9455 237.589 55.0085 237.753 55.0431L239.512 55.4137C239.677 55.4483 239.841 55.4829 240.02 55.4471L241.052 55.6645C241.263 55.709 241.427 55.7436 241.587 55.8017C241.751 55.8363 241.934 55.8993 242.121 55.9388L243.388 56.2056C243.552 56.2402 243.717 56.2748 243.896 56.239L244.928 56.4565C245.139 56.501 245.303 56.5356 245.462 56.5936C245.627 56.6282 245.786 56.6863 245.95 56.7208L247.193 56.9828C247.381 57.0223 247.569 57.0618 247.795 57.0359L250.539 57.6141C250.751 57.6586 250.938 57.6981 251.074 57.7512C251.238 57.7858 251.416 57.8723 251.594 57.9587C252.015 58.1699 252.359 58.512 252.655 58.9664L253.132 59.7283C253.369 59.9987 253.691 60.2136 254.07 60.3914C254.225 60.4729 254.384 60.531 254.543 60.589C254.702 60.6471 254.885 60.7101 255.063 60.7965C255.554 61.0226 255.917 61.393 256.11 61.8746C256.21 62.2141 256.253 62.5907 256.234 63.0278C256.247 63.2019 256.236 63.3711 256.22 63.5637C256.185 63.7279 256.221 63.9069 256.256 64.086C256.229 64.4477 256.324 64.8107 256.537 65.1985C256.717 65.5059 256.86 65.7566 256.943 65.9455C257.225 66.3481 257.356 66.8901 257.293 67.5383C257.296 67.7593 257.25 68.0927 257.166 68.4915C257.168 68.7125 257.129 68.9002 257.061 69.1064C257.021 69.294 256.953 69.5002 256.914 69.6879L256.607 71.1423L256.606 71.2646Z" fill="black"/>
<path d="M266.944 101.152L267.836 101.34C268.094 101.394 268.352 101.448 268.601 101.427L269.094 101.531C269.329 101.581 269.563 101.63 269.793 101.703C270.022 101.776 270.21 101.815 270.421 101.86L271.641 102.117C271.969 102.186 272.228 102.24 272.453 102.214L272.876 102.303C273.087 102.348 273.275 102.387 273.457 102.45C273.64 102.513 273.828 102.553 274.039 102.597L275.798 102.968C275.962 103.003 276.15 103.042 276.353 103.011L276.704 103.085C276.916 103.13 277.103 103.169 277.286 103.232C277.469 103.295 277.656 103.335 277.868 103.379L279.627 103.75C279.791 103.785 279.979 103.824 280.181 103.793L281.12 103.991C281.331 104.036 281.532 104.127 281.728 104.242C282.565 104.688 282.986 105.364 282.939 106.285C282.992 107.081 282.824 107.878 282.435 108.678C282.013 109.52 281.313 109.936 280.377 109.96C280.076 109.994 279.789 109.958 279.531 109.904L278.71 109.731C278.593 109.706 278.475 109.681 278.387 109.638C278.293 109.618 278.18 109.57 278.063 109.546L276.702 109.259C276.468 109.21 276.28 109.17 276.054 109.196L275.984 109.181C275.665 109.065 275.365 108.977 275.084 108.918L274.169 108.725C273.958 108.681 273.77 108.641 273.587 108.578C273.4 108.539 273.212 108.499 272.996 108.478C272.668 108.409 272.363 108.345 272.053 108.304C271.743 108.263 271.438 108.199 271.109 108.13C270.955 108.048 270.796 107.99 270.632 107.956L268.731 107.555C268.45 107.496 268.192 107.442 267.929 107.411C267.689 107.385 267.408 107.325 267.126 107.266C266.962 107.232 266.798 107.197 266.686 107.149C266.545 107.119 266.409 107.066 266.245 107.031L264.837 106.735C264.579 106.681 264.345 106.631 264.058 106.595C263.795 106.564 263.514 106.505 263.232 106.446C263.068 106.411 262.927 106.382 262.815 106.333C262.698 106.309 262.562 106.256 262.398 106.221L260.99 105.924C260.779 105.88 260.568 105.836 260.352 105.815C260.112 105.789 259.878 105.739 259.643 105.69C259.442 105.598 259.259 105.535 259.076 105.472C258.889 105.433 258.716 105.323 258.524 105.185C257.922 104.788 257.598 104.23 257.541 103.458C257.492 103.105 257.496 102.739 257.565 102.41L258.06 100.064C258.104 99.8531 258.144 99.6654 258.197 99.5296C258.226 99.3888 258.289 99.2061 258.334 98.995L258.655 97.4702C258.677 97.1319 258.751 96.78 258.826 96.4281L259.058 95.3255C259.15 95.002 259.243 94.6786 259.302 94.3971L259.5 93.4587C259.522 93.1204 259.601 92.7451 259.68 92.3697L259.908 91.2906C260 90.9671 260.093 90.6437 260.152 90.3621L260.355 89.4003C260.377 89.062 260.451 88.7102 260.526 88.3583L260.758 87.2557C260.85 86.9322 260.943 86.6087 261.002 86.3272L261.2 85.3889C261.296 84.6987 261.445 83.9949 261.655 83.2307L262.08 81.2132C262.186 80.4761 262.329 79.7958 262.52 79.1254L262.89 77.366C262.973 76.6239 263.121 75.9202 263.345 75.2078L263.77 73.1903C263.839 72.8619 263.908 72.5335 263.944 72.247C264.008 71.9421 264.049 71.6322 264.118 71.3037C264.178 71.0222 264.242 70.7173 264.329 70.4172C264.394 70.1123 264.481 69.8123 264.551 69.4838C264.62 69.1554 264.694 68.8035 264.745 68.4467C264.819 68.0948 264.869 67.738 264.939 67.4096C265.008 67.0812 265.077 66.7527 265.16 66.4762C265.219 66.1947 265.312 65.8712 265.381 65.5428C265.44 65.2613 265.504 64.9563 265.545 64.6464C265.604 64.3649 265.645 64.055 265.71 63.75C265.818 63.2339 265.978 62.8265 266.226 62.4623C266.594 61.8783 267.152 61.5549 267.9 61.492C268.253 61.4439 268.597 61.4427 268.925 61.5119L269.347 61.6008C269.511 61.6354 269.676 61.67 269.835 61.7281C269.994 61.7861 270.182 61.8257 270.37 61.8652L272.082 62.226C272.246 62.2606 272.434 62.3001 272.636 62.2692L272.941 62.3335C273.152 62.378 273.364 62.4224 273.57 62.4904C273.799 62.5633 273.987 62.6028 274.198 62.6473L275.958 63.0179C276.122 63.0525 276.31 63.092 276.512 63.0612L276.817 63.1254C277.028 63.1699 277.239 63.2144 277.445 63.2823C277.652 63.3503 277.863 63.3947 278.074 63.4392L279.833 63.8098C279.998 63.8444 280.185 63.884 280.388 63.8531L280.693 63.9174C280.904 63.9618 281.115 64.0063 281.321 64.0743C281.551 64.1471 281.762 64.1916 281.95 64.2311L283.662 64.5919C283.826 64.6265 284.014 64.666 284.216 64.6352L285.108 64.823C285.319 64.8675 285.544 64.9638 285.717 65.0737C286.62 65.4356 287.041 66.1123 286.998 67.1321C286.994 67.9643 286.826 68.7619 286.494 69.5249C286.378 69.8435 286.111 70.1793 285.657 70.4755C285.401 70.6422 285.033 70.7607 284.576 70.8359C284.459 70.8112 284.342 70.7865 284.196 70.7803C284.079 70.7556 283.956 70.7544 283.816 70.7247C283.688 70.7469 283.472 70.7259 283.191 70.6666C282.99 70.5752 282.807 70.5122 282.596 70.4677L280.531 70.0328C280.297 69.9834 280.039 69.9291 279.799 69.9031C279.56 69.8772 279.302 69.8228 279.067 69.7734C278.903 69.7388 278.762 69.7091 278.626 69.656C278.485 69.6264 278.326 69.5683 278.185 69.5387L276.356 69.1532C276.145 69.1087 275.957 69.0692 275.764 69.0531C275.572 69.037 275.384 68.9975 275.173 68.953C274.854 68.8369 274.554 68.7492 274.254 68.6615C273.949 68.5973 273.644 68.533 273.311 68.4873C273.076 68.4379 272.818 68.3835 272.579 68.3576C272.339 68.3316 272.071 68.3242 271.817 68.3686C271.3 68.3821 270.926 68.6463 270.704 69.1142C270.576 69.2587 270.518 69.4179 270.488 69.5587C270.459 69.6994 270.419 69.8871 270.304 70.0834L269.884 72.0774C269.835 72.312 269.785 72.5466 269.801 72.8194C269.747 73.0775 269.708 73.2652 269.612 73.3676L269.049 76.0419C269 76.2765 268.997 76.521 269.013 76.7939C269.04 76.8976 269.049 76.9729 269.029 77.0667C269.009 77.1606 269.041 77.2408 269.092 77.3495C269.214 77.8162 269.47 78.1151 269.859 78.246C270.167 78.409 270.397 78.4819 270.561 78.5165C270.762 78.6079 270.945 78.6709 271.133 78.7104L271.719 78.8339C271.93 78.8784 272.095 78.913 272.264 78.9241C272.428 78.9587 272.597 78.9699 272.761 79.0045L274.474 79.3652C274.638 79.3998 274.826 79.4393 274.999 79.5493L275.538 79.6629C275.749 79.7074 275.937 79.7469 276.083 79.7531C276.247 79.7877 276.44 79.8038 276.627 79.8433L277.964 80.125C278.343 80.3029 278.634 80.4375 278.825 80.5758C279.343 80.9055 279.653 81.4118 279.707 82.0847C279.761 82.4144 279.762 82.7576 279.683 83.133C279.663 83.2268 279.643 83.3206 279.647 83.4194C279.627 83.5133 279.626 83.6355 279.611 83.7059C279.532 84.0812 279.373 84.4886 279.156 84.9331C278.769 85.6109 278.201 85.9813 277.443 86.091C277.217 86.1169 277.019 86.1243 276.831 86.0848L276.245 85.9612C276.057 85.9217 275.87 85.8822 275.724 85.876C275.583 85.8463 275.419 85.8117 275.213 85.7438C274.941 85.6376 274.66 85.5783 274.373 85.5424C274.087 85.5066 273.805 85.4473 273.524 85.388L269.207 84.4787C268.996 84.4342 268.799 84.4416 268.573 84.4675C268.318 84.5119 268.144 84.5242 268.04 84.5514C267.677 84.6464 267.402 84.9069 267.172 85.2995C267.013 85.7069 266.902 86.002 266.867 86.1662L266.432 88.2306C266.383 88.4652 266.334 88.6998 266.35 88.9727L266.246 89.4653C266.169 89.5962 266.111 89.7554 266.057 90.0135L265.775 91.3506C265.711 91.6556 265.657 91.9136 265.626 92.1766C265.571 92.4347 265.54 92.6977 265.476 93.0026C265.387 93.4249 265.318 93.7533 265.208 93.9262C265.139 94.2546 265.075 94.5595 264.992 94.8361C264.933 95.1176 264.868 95.4226 264.823 95.7559L264.595 96.835C264.617 96.9622 264.596 97.1783 264.547 97.4129C264.503 97.624 264.463 97.8117 264.41 97.9475C264.38 98.0882 264.317 98.271 264.273 98.4821C264.248 98.5994 264.246 98.8439 264.242 99.2106C264.25 99.7514 264.515 100.126 265.029 100.356C265.174 100.485 265.45 100.568 265.849 100.652C266.05 100.743 266.21 100.801 266.374 100.836L266.796 100.925L266.944 101.152Z" fill="black"/>
<path d="M46.1312 230.226L46.3288 229.287C46.3931 228.982 46.4104 228.668 46.4142 228.301C46.434 227.742 46.3822 227.29 46.1884 226.93L45.7674 226.254C45.4946 225.804 45.3305 225.304 45.3219 224.763C45.3096 224.589 45.3207 224.42 45.322 224.298C45.3467 224.181 45.3344 224.006 45.322 223.832C45.3505 223.348 45.2518 222.887 45.0493 222.452C44.9765 222.216 44.8469 222.017 44.6654 221.832C44.4988 221.576 44.384 221.307 44.321 221.024C44.2581 220.742 44.2186 220.464 44.2594 220.154C44.2372 220.027 44.2385 219.905 44.2397 219.782C44.2595 219.689 44.2607 219.566 44.2904 219.426C44.3065 218.767 44.1152 218.164 43.7214 217.591L43.1523 216.687C42.9857 216.431 42.8511 216.256 42.7536 216.137C42.461 215.782 42.082 215.604 41.6585 215.637C41.2584 215.675 40.9843 215.814 40.8225 216L39.421 216.954C39.0234 217.213 38.7616 217.526 38.669 217.849C38.5343 218.139 38.3664 218.472 38.2071 218.879C38.023 219.404 37.718 219.805 37.3154 220.088L36.6573 220.537C36.5054 220.677 36.3535 220.816 36.2201 220.984C36.0917 221.128 35.9818 221.301 35.8904 221.502C35.799 221.704 35.736 221.886 35.6829 222.022C35.6298 222.158 35.5717 222.317 35.4902 222.472C35.2593 222.986 34.9543 223.388 34.6036 223.657C34.2912 223.861 34.0825 224.037 33.9306 224.177C33.533 224.436 33.2378 224.79 32.9983 225.23C32.897 225.478 32.8192 225.731 32.7364 226.007C32.6771 226.289 32.5993 226.542 32.5449 226.8L32.3028 227.95C32.3028 227.95 32.2731 228.09 32.2867 228.142C32.2768 228.189 32.2854 228.264 32.2706 228.335L32.0433 229.414C31.9889 229.672 31.9395 229.907 31.8666 230.136C31.8172 230.371 31.7443 230.6 31.69 230.859C31.6208 231.187 31.6269 231.507 31.6899 231.789C31.775 232.199 31.9417 232.455 32.2367 232.566L32.659 232.655C32.88 232.653 33.0961 232.674 33.3121 232.695C33.5467 232.744 33.7628 232.765 33.9505 232.805C34.1715 232.802 34.3406 232.813 34.5049 232.848L34.9975 232.952C35.1987 233.043 35.3815 233.106 35.5222 233.136L36.0618 233.249C36.3334 233.356 36.5914 233.41 36.8544 233.441C37.089 233.49 37.3804 233.503 37.6718 233.515C37.9533 233.574 38.2348 233.634 38.4879 233.712C38.7459 233.766 39.0225 233.849 39.304 233.908L41.2276 234.313C41.3684 234.343 41.5326 234.377 41.7586 234.352C41.9228 234.386 42.0635 234.416 42.1993 234.469C42.3401 234.499 42.4759 234.552 42.6401 234.586C42.8747 234.636 43.0624 234.675 43.1648 234.77C43.329 234.805 43.4698 234.835 43.5822 234.883C43.6994 234.907 43.8353 234.961 43.9995 234.995C44.4452 235.089 44.823 234.924 45.133 234.499C45.2725 234.185 45.3738 233.937 45.4084 233.773C45.4159 233.505 45.4418 233.265 45.4912 233.031L45.6296 232.374C45.7087 231.999 45.7878 231.623 45.8853 231.276C45.9829 230.929 46.062 230.554 46.1411 230.179M43.315 209.518L45.2621 209.928C45.4732 209.973 45.6374 210.007 45.7967 210.065C45.956 210.123 46.1387 210.186 46.3165 210.273C46.7844 210.494 47.1893 210.898 47.5362 211.461C47.5868 211.57 47.6609 211.683 47.7535 211.825C47.8226 211.962 47.8917 212.099 47.9658 212.213C48.0584 212.355 48.1695 212.525 48.2855 212.672C48.3966 212.843 48.5127 212.99 48.6052 213.132C49.0089 213.658 49.1953 214.285 49.1594 215.037C49.1816 215.164 49.1754 215.31 49.1408 215.474C49.1062 215.638 49.0815 215.755 49.1272 215.887C49.1456 216.381 49.3147 216.858 49.5875 217.307C49.6381 217.416 49.7122 217.53 49.7999 217.695C49.864 217.856 49.9381 217.969 50.0122 218.083C50.1319 218.329 50.2047 218.564 50.2072 218.785C50.2331 219.011 50.254 219.261 50.27 219.534C50.2923 219.661 50.2861 219.807 50.2614 219.924C50.2366 220.041 50.207 220.182 50.2527 220.314C50.2106 220.746 50.3328 221.213 50.6661 221.724C50.7167 221.833 50.7908 221.946 50.8414 222.055C50.8871 222.187 50.9611 222.301 51.0167 222.386C51.1833 222.642 51.2796 222.882 51.3006 223.132C51.3215 223.381 51.3659 223.636 51.382 223.908C51.3276 224.166 51.3152 224.458 51.3115 224.825C51.3299 225.318 51.4805 225.767 51.7163 226.159C51.7718 226.245 51.8409 226.382 51.9286 226.547C51.9977 226.684 52.0668 226.821 52.1459 226.911C52.3125 227.167 52.3853 227.403 52.4063 227.652C52.4272 227.902 52.4247 228.146 52.4173 228.414C52.4395 228.541 52.4185 228.757 52.3691 228.992L52.0874 230.329C52.0528 230.493 52.0182 230.657 51.9651 230.793C51.9354 230.934 51.8774 231.093 51.8428 231.257C51.8205 231.596 51.7797 231.906 51.7204 232.187L51.5425 233.032C51.545 233.253 51.5054 233.44 51.4523 233.576C51.4227 233.717 51.3646 233.876 51.33 234.04C51.2658 234.345 51.2065 234.627 51.1188 234.927C51.0595 235.208 50.9952 235.513 50.9545 235.823L50.7271 236.902C50.7271 236.902 50.6925 237.067 50.6962 237.165C50.6765 237.259 50.6616 237.33 50.6184 237.418L49.9266 240.703C49.9266 240.703 49.887 240.89 49.8808 241.036C49.8561 241.153 49.8314 241.271 49.7882 241.36L48.1772 249.007C48.1772 249.007 48.1376 249.195 48.1413 249.294C48.1215 249.387 48.0968 249.505 48.0586 249.57L47.3667 252.854C47.3667 252.854 47.337 252.995 47.3506 253.047C47.3407 253.094 47.3309 253.141 47.2876 253.23C47.2234 253.535 47.1641 253.816 47.0863 254.069C47.027 254.351 46.9022 254.594 46.754 254.832C46.3712 255.487 45.7797 255.852 45.008 255.91C44.6598 255.935 44.4203 255.909 44.2561 255.874C44.082 255.886 43.8425 255.86 43.514 255.791C43.3128 255.7 43.1301 255.637 42.9893 255.607C42.8486 255.578 42.6473 255.486 42.4745 255.376C41.8251 254.97 41.4831 254.383 41.3882 253.555C41.4067 253.118 41.4339 252.756 41.4982 252.451C41.5525 252.193 41.6069 251.935 41.6897 251.658C41.749 251.377 41.8317 251.1 41.891 250.819L42.1579 249.552C42.1802 249.214 42.2308 248.857 42.3 248.529L42.5125 247.52C42.6286 247.201 42.7213 246.878 42.7806 246.596L42.9782 245.658C43.0474 245.329 43.1166 245.001 43.1524 244.715C43.2118 244.433 43.2575 244.1 43.3267 243.771C43.3711 243.56 43.4156 243.349 43.4885 243.119C43.5379 242.885 43.6058 242.679 43.6503 242.468C43.7146 242.163 43.6986 241.89 43.6356 241.607C43.5505 241.197 43.3369 240.931 42.9714 240.806C42.7369 240.756 42.5442 240.74 42.4171 240.762C42.2059 240.718 41.9948 240.673 41.7787 240.652C41.5392 240.626 41.3231 240.605 41.1256 240.613C40.9145 240.568 40.7268 240.529 40.5206 240.461C40.3095 240.416 40.1267 240.353 39.9156 240.309L38.0858 239.923C37.8512 239.874 37.6167 239.824 37.4142 239.855L36.7104 239.707C36.4758 239.658 36.2696 239.59 36.0215 239.488L34.3793 239.143C33.9805 239.058 33.699 238.999 33.52 239.035C33.1447 238.956 32.8916 238.878 32.7372 238.797C32.5261 238.752 32.3619 238.718 32.2261 238.664C32.0853 238.635 31.9261 238.577 31.7853 238.547C31.631 238.466 31.4013 238.393 31.0729 238.323C30.7148 238.395 30.4642 238.538 30.2592 238.814C30.0875 239.047 29.9578 239.314 29.8837 239.665C29.8294 239.923 29.775 240.182 29.749 240.421C29.6947 240.679 29.6687 240.919 29.6242 241.13L29.3969 242.209C29.3969 242.209 29.3673 242.35 29.3339 242.392C29.324 242.439 29.2907 242.48 29.2858 242.504L29.0189 243.771C28.9497 244.099 28.8855 244.404 28.8496 244.691C28.7903 244.972 28.7545 245.259 28.6952 245.54C28.6507 245.751 28.6013 245.986 28.5235 246.239C28.4691 246.497 28.3913 246.75 28.3419 246.985L28.075 248.251C28.0676 248.519 28.0367 248.782 27.9872 249.017L27.8291 249.768C27.75 250.143 27.5623 250.569 27.2425 251.04C26.8744 251.624 26.3262 251.901 25.5928 251.893C25.315 251.933 25.0705 251.93 24.831 251.904C24.5914 251.878 24.3099 251.819 24.0284 251.76C23.8741 251.678 23.7148 251.62 23.5506 251.586C23.3864 251.551 23.2321 251.47 23.0827 251.365C22.4098 250.953 22.0494 250.338 22.0063 249.496C21.9705 249.317 21.9582 249.143 21.9977 248.956L22.1163 248.393C22.1163 248.393 22.1558 248.205 22.1521 248.106C22.1719 248.012 22.1966 247.895 22.2497 247.759L22.7686 245.296C22.8329 244.991 22.8922 244.71 22.9231 244.447C22.9824 244.165 23.0417 243.884 23.1244 243.607C23.1837 243.325 23.248 243.021 23.3258 242.767C23.3851 242.486 23.4444 242.204 23.4802 241.918L23.6927 240.909C23.7372 240.698 23.7767 240.51 23.7978 240.294C23.8373 240.107 23.8768 239.919 23.9448 239.713L25.7683 231.057C25.8128 230.845 25.8573 230.634 25.9301 230.405C25.9796 230.17 26.029 229.935 26.0599 229.672C26.1291 229.344 26.2032 228.992 26.2489 228.659C26.3181 228.33 26.3922 227.979 26.4849 227.655L27.0038 225.192C27.0482 224.981 27.0977 224.746 27.1286 224.483C27.1829 224.225 27.2323 223.991 27.3003 223.784C27.3546 223.526 27.4707 223.208 27.6301 222.8C27.8363 222.403 28.15 222.077 28.5291 221.789C28.6427 221.715 28.7279 221.66 28.8415 221.586C28.9316 221.507 29.0403 221.456 29.1304 221.377C29.528 221.118 29.8145 220.688 30.0319 220.121C30.1035 220.014 30.1566 219.878 30.1863 219.737C30.2159 219.597 30.2456 219.456 30.3222 219.325C30.5531 218.81 30.9001 218.442 31.3162 218.211C31.4113 218.109 31.6151 217.956 31.9275 217.752C32.2782 217.483 32.5832 217.082 32.8191 216.543C32.8537 216.379 32.8883 216.215 32.9365 216.103C32.9612 215.985 33.0427 215.831 33.1242 215.677C33.307 215.274 33.607 214.896 34.0713 214.553L34.7295 214.104C34.9851 213.937 35.1469 213.751 35.2617 213.555C35.3766 213.358 35.4729 213.134 35.5507 212.88C35.6322 212.726 35.6903 212.567 35.7385 212.455C35.7632 212.337 35.8447 212.183 35.9262 212.029C36.1423 211.584 36.4609 211.235 36.8351 210.971C37.024 210.888 37.1944 210.777 37.3364 210.684C37.4784 210.592 37.6537 210.457 37.8525 210.327L38.3687 209.971C38.5206 209.831 38.6725 209.692 38.8429 209.581C38.9898 209.464 39.1787 209.382 39.4096 209.332C39.5986 209.25 39.7825 209.19 39.985 209.16C40.1875 209.129 40.3851 209.121 40.6061 209.119C40.8506 209.121 41.0901 209.147 41.3247 209.197L43.3656 209.627L43.315 209.518Z" fill="black"/>
<path d="M274.999 298.308L275.491 298.412C276.054 298.53 276.568 298.418 277.032 298.075C277.146 298.001 277.231 297.945 277.321 297.866C277.406 297.811 277.52 297.737 277.61 297.658C277.752 297.565 277.923 297.454 278.088 297.366C278.254 297.279 278.429 297.144 278.581 297.005C279.049 296.76 279.377 296.364 279.543 295.811C279.702 295.403 279.813 295.108 279.858 294.897L280.298 292.809C280.404 292.072 280.547 291.392 280.737 290.722L281.024 289.361C281.054 289.22 281.093 289.033 281.067 288.807L281.151 288.408C281.181 288.267 281.211 288.126 281.165 287.994C281.146 287.5 281.014 287.08 280.797 286.716C280.63 286.461 280.487 286.21 280.344 285.959C280.201 285.709 280.058 285.458 279.891 285.202L279.359 284.355C278.922 283.871 278.552 283.303 278.313 282.69C278.111 282.255 277.805 281.847 277.409 281.519C276.938 281.077 276.432 280.921 275.838 281.066C275.734 281.093 275.636 281.096 275.513 281.095C275.391 281.094 275.269 281.093 275.189 281.125C274.802 281.215 274.337 281.215 273.867 281.116C273.529 281.094 273.248 281.034 272.971 280.952C272.713 280.897 272.413 280.81 272.085 280.74L270.982 280.508C270.781 280.417 270.622 280.359 270.481 280.329C270.34 280.299 270.199 280.27 270.05 280.165C269.956 280.145 269.862 280.125 269.75 280.077C269.633 280.052 269.515 280.028 269.44 280.036C269.149 280.024 268.893 280.19 268.697 280.541C268.568 280.686 268.51 280.845 268.476 281.009C268.441 281.173 268.406 281.337 268.296 281.51L268.069 282.589C267.988 282.744 267.93 282.903 267.9 283.044L267.811 283.466C267.794 283.781 267.758 284.067 267.703 284.325L267.535 285.123C267.476 285.404 267.417 285.686 267.339 285.939C267.285 286.197 267.207 286.45 267.157 286.685C267.113 286.896 267.068 287.107 267.047 287.323C267.003 287.534 266.982 287.75 266.937 287.961L266.537 289.862C266.493 290.073 266.448 290.284 266.38 290.49C266.336 290.701 266.268 290.907 266.223 291.119C266.164 291.4 266.115 291.635 266.145 291.837L265.696 293.972C265.607 294.394 265.538 294.723 265.564 294.948C265.507 295.451 265.686 295.881 266.134 296.196C266.344 296.362 266.587 296.487 266.821 296.536C266.986 296.571 267.126 296.601 267.262 296.654C267.403 296.683 267.539 296.737 267.703 296.771L268.923 297.028C269.134 297.073 269.345 297.117 269.561 297.138C269.772 297.183 269.988 297.204 270.2 297.248C270.317 297.273 270.434 297.298 270.49 297.383L272.812 297.872C273.023 297.916 273.234 297.961 273.45 297.982C273.685 298.031 273.901 298.052 274.089 298.092C274.206 298.117 274.347 298.146 274.483 298.199C274.623 298.229 274.783 298.287 274.923 298.317M274.62 264.517L274.01 264.388C273.799 264.344 273.612 264.304 273.386 264.33C272.681 264.304 272.169 264.637 271.914 265.269C271.766 265.508 271.688 265.761 271.638 265.995C271.589 266.23 271.534 266.488 271.42 266.684L271.301 267.247C271.266 267.412 271.227 267.599 271.253 267.825L270.946 269.28C270.902 269.491 270.853 269.725 270.775 269.978C270.72 270.237 270.647 270.466 270.603 270.677C270.514 271.1 270.45 271.405 270.476 271.63L270.347 272.24C270.308 272.428 270.263 272.639 270.289 272.865C270.235 273.123 270.222 273.415 270.219 273.781C270.267 274.134 270.457 274.395 270.757 274.483C270.991 274.532 271.203 274.577 271.382 274.541C271.593 274.585 271.78 274.625 271.926 274.631C272.095 274.642 272.288 274.658 272.485 274.651L273.893 274.947C274.01 274.972 274.128 274.997 274.226 274.993C274.32 275.013 274.419 275.009 274.513 275.029C275.096 275.054 275.609 274.941 276.069 274.622C276.324 274.455 276.551 274.307 276.774 274.182C276.996 274.058 277.223 273.909 277.479 273.743C277.768 273.534 278.063 273.18 278.341 272.675C278.479 272.483 278.552 272.254 278.606 271.996L278.754 271.292C278.88 270.927 278.96 270.551 279.02 270.147C279.099 269.772 279.126 269.41 279.154 269.049C279.176 268.71 279.151 268.362 279.046 268.046C278.941 267.73 278.808 267.432 278.665 267.182C278.478 267.02 278.354 266.798 278.281 266.562L277.712 265.658C277.592 265.412 277.382 265.245 277.064 265.129C276.75 264.99 276.525 264.893 276.361 264.859C276.127 264.809 275.892 264.76 275.652 264.734C275.436 264.713 275.225 264.669 275.014 264.624L274.662 264.55L274.62 264.517ZM284.705 271.075C284.63 271.427 284.533 271.774 284.464 272.103C284.404 272.384 284.34 272.689 284.299 272.999C284.258 273.309 284.194 273.614 284.125 273.942C283.992 274.576 283.741 275.184 283.373 275.768C283.311 275.829 283.263 275.941 283.215 276.054C283.19 276.171 283.118 276.278 283.052 276.362C282.836 276.807 282.812 277.267 283.033 277.73C283.132 278.192 283.376 278.66 283.743 279.129C283.956 279.395 284.118 279.674 284.298 279.981C284.479 280.289 284.612 280.586 284.774 280.865C284.866 281.007 284.959 281.149 285.075 281.296C285.167 281.438 285.265 281.557 285.376 281.727C285.511 281.903 285.677 282.158 285.838 282.56C286.003 282.937 286.078 283.394 286.078 283.86C286.081 284.081 286.065 284.273 286.054 284.443C286.019 284.607 286.055 284.786 286.109 284.993C286.112 285.214 286.193 285.525 286.358 285.903L286.927 286.807C287.157 287.345 287.246 287.854 287.175 288.305C287.141 288.469 287.106 288.633 287.1 288.779C287.07 288.92 287.064 289.065 287.039 289.183C286.995 289.394 286.955 289.582 286.888 289.788C286.848 289.975 286.78 290.182 286.736 290.393L286.281 292.551C286.303 292.678 286.287 292.871 286.233 293.129C286.188 293.34 286.144 293.551 286.071 293.781C286.021 294.015 285.954 294.221 285.909 294.433C285.845 294.737 285.786 295.019 285.708 295.272C285.648 295.554 285.594 295.812 285.563 296.075L285.469 296.52C285.491 296.648 285.475 296.84 285.431 297.051C285.377 297.309 285.322 297.567 285.239 297.844C285.18 298.125 285.055 298.369 284.931 298.612C284.768 298.921 284.506 299.233 284.108 299.492C283.995 299.566 283.904 299.645 283.758 299.761C283.639 299.859 283.52 299.956 283.412 300.007C283.051 300.323 282.77 300.729 282.591 301.23C282.499 301.432 282.436 301.614 282.378 301.774C282.32 301.933 282.239 302.087 282.105 302.255C281.852 302.643 281.538 302.969 281.136 303.251C280.857 303.413 280.578 303.575 280.322 303.741C280.066 303.908 279.829 304.103 279.564 304.317C279.365 304.446 279.19 304.581 279.019 304.692C278.849 304.803 278.66 304.886 278.429 304.935C278.066 305.03 277.694 305.05 277.343 304.976C277.122 304.978 276.952 304.967 276.812 304.937L276.296 304.829C276.084 304.784 275.92 304.75 275.784 304.697C275.644 304.667 275.484 304.609 275.273 304.564L273.936 304.283C273.655 304.223 273.373 304.164 273.11 304.133C272.852 304.079 272.566 304.043 272.284 303.984C272.12 303.949 271.956 303.915 271.82 303.861C271.679 303.832 271.543 303.779 271.379 303.744L270.042 303.462C269.76 303.403 269.479 303.344 269.216 303.313C268.958 303.259 268.671 303.223 268.39 303.163C268.226 303.129 268.085 303.099 267.926 303.041C267.785 303.011 267.649 302.958 267.532 302.934L266.124 302.637C265.843 302.578 265.561 302.518 265.298 302.488C265.04 302.433 264.73 302.392 264.402 302.323C264.13 302.217 263.854 302.134 263.596 302.08L262.775 301.907C262.61 301.872 262.47 301.843 262.324 301.837C262.183 301.807 262.014 301.796 261.873 301.766L261.287 301.643C261.099 301.603 260.912 301.563 260.715 301.449C260.504 301.404 260.209 301.293 259.83 301.115C259.228 300.719 258.904 300.161 258.87 299.394C258.82 299.163 258.823 298.918 258.844 298.702C258.893 298.468 258.914 298.252 258.959 298.041C259.038 297.665 259.117 297.29 259.167 296.933C259.242 296.581 259.321 296.206 259.423 295.835L259.562 295.179C259.611 294.944 259.655 294.733 259.77 294.537L259.889 293.974C259.924 293.809 259.958 293.645 259.927 293.443L260.382 291.284C260.436 291.026 260.491 290.768 260.564 290.539C260.618 290.281 260.696 290.028 260.76 289.723C260.795 289.558 260.829 289.394 260.845 289.202C260.88 289.037 260.891 288.868 260.93 288.681L261.331 286.78C261.422 286.579 261.49 286.373 261.53 286.185L261.653 285.599C261.688 285.435 261.722 285.27 261.729 285.125C261.758 284.984 261.769 284.815 261.804 284.651L262.204 282.75C262.296 282.549 262.359 282.366 262.393 282.202L262.502 281.686C262.546 281.475 262.586 281.287 262.592 281.142C262.622 281.001 262.638 280.808 262.682 280.597L263.068 278.767C263.159 278.566 263.222 278.383 263.257 278.219L263.365 277.703C263.41 277.492 263.449 277.304 263.461 277.135C263.495 276.971 263.511 276.778 263.556 276.567L263.971 274.597C264.062 274.395 264.125 274.213 264.16 274.048L264.264 273.556C264.298 273.392 264.333 273.227 264.339 273.082C264.369 272.941 264.38 272.772 264.414 272.608L264.815 270.707C264.906 270.506 264.969 270.323 265.004 270.159L265.122 269.596C265.157 269.432 265.191 269.268 265.198 269.122C265.227 268.981 265.243 268.789 265.288 268.578L265.688 266.677C265.78 266.476 265.843 266.293 265.877 266.129L265.996 265.566C266.03 265.402 266.065 265.238 266.071 265.092C266.101 264.951 266.117 264.759 266.161 264.548L266.547 262.718C266.638 262.517 266.701 262.334 266.746 262.123L266.874 261.513C266.909 261.349 266.943 261.184 266.95 261.039C266.979 260.898 266.99 260.729 267.025 260.565L267.232 259.579C267.302 259.251 267.413 258.956 267.557 258.619C267.97 257.824 268.646 257.403 269.545 257.323C269.766 257.32 270.053 257.356 270.405 257.43C270.475 257.445 270.545 257.46 270.597 257.446C270.644 257.456 270.696 257.442 270.79 257.462C271.001 257.507 271.165 257.541 271.324 257.599C271.484 257.657 271.648 257.692 271.812 257.727L274.064 258.201C274.449 258.233 274.83 258.289 275.205 258.368L276.401 258.62C276.613 258.664 276.824 258.709 277.03 258.777C277.236 258.845 277.471 258.894 277.658 258.934L279.981 259.423C280.155 259.411 280.296 259.44 280.431 259.493C280.567 259.546 280.708 259.576 280.872 259.611C281.529 259.749 282.006 260.045 282.349 260.51C282.566 260.874 282.728 261.153 282.81 261.342C282.94 261.541 283.07 261.74 283.194 261.962C283.324 262.161 283.477 262.364 283.64 262.521C283.76 262.767 283.861 262.984 283.967 263.178C284.073 263.372 284.146 263.608 284.162 263.881C284.188 264.107 284.213 264.455 284.194 264.892L284.224 265.682C284.206 265.997 284.33 266.342 284.561 266.758C284.606 266.89 284.699 267.032 284.791 267.174C284.884 267.316 284.982 267.434 285.022 267.59C285.225 268.025 285.314 268.533 285.27 269.088C285.273 269.309 285.227 269.642 285.143 270.041C285.064 270.416 284.985 270.791 284.887 271.138" fill="black"/>
<path d="M83.0704 229.677C83.0817 228.577 83.4805 228.195 84.8708 227.876C90.2765 226.638 96.0353 225.818 101.945 225.446C111.035 224.861 120.869 225.047 132.012 225.998C133.191 226.099 133.81 226.303 134.458 227.297C135.707 229.275 137.768 230.542 140.069 230.782C142.324 231.012 144.518 230.249 146.105 228.648C146.822 227.917 147.445 227.754 148.698 227.969C176.703 232.497 199.144 239.013 219.303 248.453C227.174 252.145 233.52 255.981 238.691 260.157C240.827 261.881 242.699 263.696 244.302 265.504C247.36 269.015 248.66 272.498 248.078 275.609C247.496 278.721 244.999 281.502 240.873 283.646C237.847 285.214 234.304 286.452 229.982 287.428C224.576 288.666 218.588 289.413 211.63 289.761C210.266 289.841 209.614 289.679 208.778 288.645C206.962 286.45 204.247 285.265 201.532 285.477C199.189 285.67 197.197 286.867 196.053 288.807C195.522 289.699 194.928 289.844 193.476 289.758C175.13 288.809 156.723 285.936 137.219 280.945C121.875 277.027 108.626 272.349 96.6845 266.698C91.9163 264.444 85.7 261.272 79.8295 256.924C76.8788 254.881 73.1837 252.07 70.7012 248.386C69.8445 247.103 68.6557 245.187 68.0547 243.272C66.9587 239.635 68.0814 236.515 71.5612 233.72C71.8835 233.47 72.1477 233.378 72.4762 233.448C72.5934 233.472 72.7342 233.502 72.8651 233.579C73.4219 233.843 73.9182 234.045 74.4059 234.173C76.853 234.884 79.4237 234.544 81.1339 233.287C82.3515 232.392 83.0418 231.092 83.0519 229.649M249.976 267.532C249.265 266.255 248.319 264.929 247.186 263.563C242.545 258.029 236.207 253.925 231.173 250.954C221.826 245.432 211.149 240.758 197.569 236.255C182.546 231.278 166.495 227.455 149.839 224.878C148.107 224.611 147.062 224.219 146.131 222.823C144.867 220.915 142.651 219.688 140.221 219.593C137.937 219.504 135.921 220.353 134.649 221.972C134.082 222.685 133.657 222.841 132.497 222.768L130.852 222.666C126.675 222.374 122.352 222.076 118.117 221.944C103.932 221.479 92.6514 222.459 82.6006 225.046C81.5634 225.317 80.8312 225.187 79.9584 224.562C77.6991 222.959 75.0963 222.754 72.3946 223.949C69.9337 225.048 68.8741 227.054 69.5121 229.491C69.7479 230.349 69.5552 230.799 68.7019 231.477C64.9381 234.457 63.3437 238.188 64.0086 242.591C64.333 244.889 65.3625 247.212 67.1241 249.666C69.6597 253.214 73.1758 256.527 77.5413 259.529C84.976 264.942 93.4825 269.453 104.262 273.757C118.727 279.524 133.798 284.046 149.304 287.313C163.59 290.322 178.297 292.269 193.282 293.123C194.903 293.219 195.748 293.397 196.648 294.591C198.355 296.837 201.177 298.094 204.062 297.893C206.452 297.71 208.392 296.526 209.403 294.632C210.012 293.487 210.814 293.288 212.338 293.144C213.614 293.02 214.889 292.897 216.16 292.797C219.529 292.503 223.003 292.181 226.37 291.665C234.192 290.471 240.397 288.348 245.347 285.201C252.058 280.907 253.766 274.309 249.942 267.574" fill="black"/>
<path d="M97.1206 241.481C99.4989 239.263 102.844 238.155 106.111 237.299C110.547 236.127 115.481 235.5 121.694 235.315C137.991 234.828 155.056 236.977 173.855 241.942C185.883 245.088 196.028 248.916 204.885 253.624C209.665 256.174 215.062 259.394 218.702 263.982C221.426 267.447 221.664 270.388 219.404 272.975C218.434 274.093 216.868 275.013 215.35 275.82C211.653 277.785 207.221 278.591 202.988 279.145C194.575 280.239 185.312 280.248 174.64 279.151C153.345 276.968 134.6 272.211 117.304 264.647C112.483 262.529 107.742 259.913 103.188 256.872C100.017 254.366 97.276 252.025 95.7417 248.957C94.3086 246.108 94.7521 243.653 97.0971 241.477M93.8978 252.709C95.7952 255.216 98.273 257.527 101.317 259.589C107.979 264.251 115.779 268.05 126.605 271.898C134.649 274.769 143.046 277.126 151.702 278.949C158.998 280.486 166.495 281.649 174.146 282.428C184.484 283.479 193.459 283.556 201.579 282.694C207.943 282.026 212.878 280.812 217.072 278.927C221.267 277.042 223.851 274.426 224.546 271.363C225.225 268.37 224.117 265.025 221.297 261.663C219.945 260.055 218.274 258.453 216.133 256.753C211.553 253.142 206.013 250.015 198.139 246.69C184.646 240.957 170 236.867 153.406 234.229C137.947 231.781 125.197 231.251 113.207 232.571C106.537 233.298 101.492 234.685 97.3459 236.923C93.9749 238.736 91.8719 241.16 91.2702 243.899C90.697 246.621 91.5732 249.672 93.8743 252.705" fill="black"/>
<path d="M134.598 261.528C132.398 260.575 130.256 259.462 128.208 258.369C127.305 257.885 126.421 257.429 125.537 256.974C125.095 256.513 124.667 256.104 124.243 255.672C123.308 254.764 122.437 253.895 121.751 252.967C120.948 251.891 120.644 250.896 120.855 250.009C121.052 249.071 121.818 248.228 123.123 247.498C126.15 245.808 129.785 245.3 132.905 245.026C140.613 244.372 149.038 244.97 159.432 246.915C160.418 247.123 160.673 247.422 160.822 247.992C161.333 249.986 163.319 251.727 165.893 252.417C168.514 253.116 171.077 252.578 172.607 251.014C173.021 250.562 173.496 250.515 174.452 250.863C178.903 252.413 184.682 254.635 189.655 258.01C191.136 259.008 192.58 260.292 193.876 261.815C194.74 262.83 195.14 263.723 195.061 264.564C194.982 265.404 194.461 266.25 193.427 267.086C192.028 268.261 190.1 268.81 188.403 269.188C183.954 270.186 179.009 270.517 173.267 270.213C159.263 269.468 146.236 266.528 134.556 261.495M119.088 255.37C119.934 256.357 120.94 257.279 121.988 258.235C122.506 258.687 123.018 259.162 123.544 259.69L123.693 259.795C124.577 260.25 125.48 260.735 126.406 261.224C128.454 262.317 130.573 263.424 132.815 264.411C139.363 267.285 146.276 269.476 153.666 271.033C159.038 272.165 164.7 272.966 170.629 273.431C177.596 273.967 183.227 273.757 188.343 272.728C191.081 272.178 193.44 271.327 195.611 270.094C197.252 269.166 198.411 267.621 198.781 265.862C199.038 264.642 199.02 262.752 197.471 260.686C196.32 259.169 194.887 257.716 193.282 256.496C189.13 253.294 184.096 250.788 176.918 248.345C175.315 247.811 174.362 247.218 173.771 245.722C173.006 243.772 171.31 242.288 169.111 241.678C166.799 241.019 164.378 241.465 162.601 242.805C161.459 243.692 160.517 243.861 158.776 243.518C149.522 241.74 141.342 241.144 133.762 241.654C129.485 241.954 124.985 242.5 121.102 244.647C118.828 245.907 117.424 247.572 117.071 249.482C116.722 251.368 117.439 253.43 119.107 255.399" fill="black"/>
</svg>
