<svg width="263" height="293" viewBox="0 0 263 293" fill="currentColor" xmlns="http://www.w3.org/2000/svg">
<g clip-path="url(#clip0_173_419)">
<path d="M262.48 140.1C261.29 128.11 259.94 116 257.07 104.31C254.72 94.6696 251.48 85.0496 244.62 77.1296C235.55 66.6496 226.79 55.8796 218.22 44.9896C209.46 33.8596 198.36 25.5496 186.22 18.8796C175.81 13.1796 164.51 9.13964 153.68 4.18964C144.43 -0.0403624 134.97 -1.26036 125.13 1.41964C119.12 3.06964 114.36 6.36964 111.55 12.1696C107.63 20.2796 109.06 22.4196 117.96 21.9396C123.09 21.6496 128.5 20.5996 133.3 21.7896C148.16 25.4796 162.82 29.5896 176.09 38.1096C187.72 45.5696 198.09 53.9096 206.26 65.0596C209.7 69.7696 213.74 74.0296 217.3 78.6596C222.83 85.8296 229.05 92.6796 233.46 100.51C243.2 117.75 245.82 136.28 240.27 155.6C237.55 165.01 234.82 174.4 232.1 183.82C229 194.53 225.92 205.26 222.77 215.96C222.2 217.91 221.56 219.88 220.61 221.64C213.25 235.2 203.41 246.64 191.19 256.13C173.23 270.08 153.18 272.7 131.81 267.05C118.86 263.63 105.87 260.22 93.1096 256.17L93.1996 255.97C92.9996 255.94 92.7996 255.94 92.5996 255.89C92.3096 255.83 92.0296 255.74 91.7496 255.65C91.5396 255.58 91.3496 255.49 91.1496 255.41C87.7396 254.68 84.2796 253.77 81.2096 252.15C71.5896 248.67 62.8696 242.57 53.9896 237.21C51.7096 235.85 50.1496 233 48.7496 230.55C43.9896 222.15 39.7596 213.45 34.7696 205.2C28.4196 194.7 25.1296 183.32 24.0796 171.28C23.7396 167.32 24.0796 163.07 25.1096 159.23C29.0696 144.71 33.6396 130.56 40.9696 117.07C49.7496 100.93 61.0596 88.2596 77.3696 79.9396C83.2996 76.9196 89.0596 73.5296 94.8896 70.3396C115.66 58.9596 136.74 60.9696 156.49 71.5996C167.14 77.3396 176.02 86.6696 185.01 95.1096C191 100.71 196.6 107.08 200.96 114.01C216.82 139.2 215.71 169.37 199.77 194.18C191.7 206.75 181.2 217.21 169.87 226.87C158.68 236.42 145.79 237.91 131.94 235.25C123.46 233.63 115.66 230.44 108.21 226.52C104.27 224.93 100.32 223.06 97.2496 220.1C96.6196 219.72 95.9796 219.34 95.3496 218.92C87.1096 213.6 78.9896 208.11 74.7896 198.59C70.4296 188.74 66.8896 178.75 69.6796 167.85C72.0096 158.76 74.3696 149.64 77.5796 140.84C81.5196 130.05 87.5496 120.81 100.11 118.34C102.37 117.9 104.61 117.13 106.69 116.16C116.79 111.42 127.16 112.56 137.47 114.8C150.36 117.59 158.97 126.33 166.66 136.38C170.77 141.77 172.82 147.84 171.79 154.32C170.51 162.45 169.02 170.75 166.07 178.38C161.73 189.63 154.42 198.81 140.99 199.15C135.44 199.28 129.68 197.83 124.33 196.13C123.66 195.92 123.02 195.68 122.37 195.44C118.72 194.7 115.72 192.26 112.66 190.21C112.56 190.14 112.49 190.04 112.4 189.96L112.34 190.08C110.03 188.28 107.96 186.14 106.3 183.56V183.54C104.73 181.11 103.7 177.63 104.06 174.84C104.94 168.18 107.41 162.04 112.46 157.13C118.2 151.56 127.04 150.63 133.08 155.81C134.76 157.24 135.95 160.09 136.04 162.33C136.19 165.89 134.09 167.65 130.07 167.76C125.15 167.89 119.82 168.03 115.46 169.94C108.99 172.75 109.43 178.62 115.57 182.28C115.69 182.34 115.81 182.41 115.93 182.47C116.21 182.56 116.48 182.69 116.71 182.89C116.79 182.96 116.88 183.03 116.97 183.1C116.98 183.1 116.97 183.1 117 183.12C117.18 183.25 117.36 183.37 117.55 183.49C117.91 183.72 118.29 183.94 118.68 184.13C118.89 184.24 119.1 184.34 119.31 184.44C119.41 184.48 119.5 184.53 119.6 184.57C119.63 184.58 119.66 184.59 119.68 184.61C120.1 184.77 120.51 184.93 120.94 185.08C122.66 185.67 124.43 186.08 126.22 186.37C126.62 186.43 126.9 186.68 127.13 186.97C131.72 188.14 136.46 188.67 141.34 188.65C142.89 188.65 144.69 188.25 145.91 187.39C154.58 181.31 159.78 164.34 156.32 154.2C151.54 140.16 141.42 132.72 127 131.51C115.39 130.53 104.22 132.28 96.6796 142.62C90.3896 151.27 86.0296 160.93 83.8396 171.43C81.0996 184.59 84.9696 195.69 95.3696 204.2C97.5596 205.99 99.7696 207.8 102.03 209.54C102.3 209.63 102.55 209.77 102.73 209.98C103.05 210.36 103.38 210.71 103.75 211.04C103.92 211.2 104.11 211.34 104.28 211.49C104.38 211.56 104.47 211.63 104.57 211.7C105.35 212.25 106.17 212.73 106.99 213.2C108.73 214.18 110.48 215.11 112.04 216.36C112.07 216.38 112.08 216.42 112.1 216.44C112.32 216.57 112.55 216.7 112.77 216.83C117.34 219.39 122.85 221.15 128.07 221.59C138.59 222.47 149.72 221.88 158.22 215.32C175.46 202.03 186.57 184.31 190.32 162.56C191.16 157.66 191.64 152.48 191.09 147.58C188.16 121.95 172.19 106.4 150.12 95.7596C140.86 91.2996 131.01 90.0396 121.1 91.8596C111.13 93.6996 101.3 96.4496 91.5296 99.2596C79.6496 102.68 69.7996 109.09 63.5096 120.17C61.8296 123.12 59.9896 126 58.0796 128.8C50.9596 139.15 47.6696 150.8 46.1396 163.08C43.9196 181.1 49.7596 197.44 57.0996 213.33C60.4996 220.69 65.7996 226.78 72.5396 231.46C77.2296 234.73 81.7796 238.21 86.7096 241.06H86.7296L86.6996 241.11C88.5696 242.13 90.2196 243.56 91.8796 244.89C91.8996 244.91 91.8996 244.9 91.8996 244.91C91.9196 244.92 91.9096 244.92 91.9396 244.94C92.0496 245.02 92.1596 245.1 92.2596 245.19C92.4396 245.32 92.6196 245.46 92.8096 245.59C94.2996 246.13 95.7696 246.72 97.0396 247.69L97.1496 247.45C105.18 252.42 113.39 257.01 123.26 258.24C143.14 260.67 161.67 256.79 177.78 245.08C192.7 234.25 204.9 220.42 215.54 205.31C224.43 192.67 229.58 178.51 230.42 163.21C230.97 153.22 229.6 143.14 229.25 133.1C228.89 122.39 226.82 112.35 219.02 104.29C218.1 103.33 217.66 101.92 216.86 100.85C212.77 95.4596 209.02 89.7196 204.43 84.7996C189.51 68.7896 172.56 55.2496 153.11 45.0896C150.09 43.4996 146.49 42.6596 143.07 42.2996C138.9 41.8796 134.65 42.4296 130.44 42.4096C113.63 42.2796 97.8996 46.6896 82.9996 54.1696C73.7796 58.7996 64.8796 64.0996 55.6796 68.7696C45.8496 73.7796 37.6796 80.6096 32.1096 90.0996C25.2396 101.79 18.5496 113.61 12.4296 125.7C8.46958 133.52 4.46958 141.65 2.55958 150.13C-0.940419 165.64 -1.86042 181.35 6.45958 196.14C8.42958 199.66 9.72958 203.6 11.0096 207.46C15.9296 222.34 23.4796 235.92 32.6096 248.43C41.9996 261.27 56.8096 266.7 70.4496 273.55L70.4296 273.59C71.3296 273.95 72.1996 274.41 72.9796 274.99C73.0496 275.04 73.0896 275.06 73.1896 275.13C73.2796 275.18 73.3696 275.23 73.4596 275.27C74.4296 275.6 75.4196 275.87 76.3996 276.19C78.6096 276.93 80.6496 277.85 82.4996 279.13L82.5196 279.08C84.7196 280.06 86.9396 281.03 89.0596 282.16C97.0196 286.33 104.8 290.86 114 291.61C119.55 292.05 125.17 291.71 130.68 292.36C145.54 294.12 159.68 291.86 173.99 287.37C194.36 280.94 210.3 268.95 222.52 252.04C233.79 236.49 243.2 219.92 247.77 200.81L247.71 200.87C251.36 185.55 256.53 170.57 260.62 155.34C261.94 150.42 262.97 145.07 262.48 140.09V140.1Z" />
</g>
<defs>
<clipPath id="clip0_173_419">
<rect width="262.61" height="292.97" fill="white"/>
</clipPath>
</defs>
</svg>
