<svg width="292" height="163" viewBox="0 0 292 163" fill="currentColor" xmlns="http://www.w3.org/2000/svg">
<g clip-path="url(#clip0_173_415)">
<path d="M34.9003 13.0708C35.2803 11.3108 36.0403 10.8208 38.3803 10.7708C47.4703 10.5508 56.9903 11.1208 66.6103 12.4608C81.4103 14.5008 97.1503 18.0208 114.74 23.2008C116.6 23.7508 117.53 24.2808 118.24 26.0908C119.6 29.6808 122.5 32.3908 126.11 33.5308C129.66 34.6408 133.43 34.1308 136.51 32.0808C137.9 31.1408 138.96 31.0808 140.9 31.8408C184.42 48.2908 218.34 66.1208 247.64 87.8908C259.08 96.4008 268.02 104.651 274.96 113.051C277.83 116.521 280.24 120.051 282.22 123.481C285.98 130.121 286.93 136.151 284.98 140.961C283.02 145.771 278.1 149.421 270.77 151.511C265.4 153.041 259.29 153.871 252.03 154.021C242.94 154.241 233.07 153.481 221.78 151.751C219.56 151.431 218.57 150.961 217.56 149.021C215.36 144.901 211.39 142.101 206.95 141.561C203.12 141.101 199.53 142.371 197.05 145.111C195.9 146.371 194.9 146.411 192.6 145.791C163.43 138.251 134.79 127.601 105.09 113.191C81.7203 101.861 61.9603 90.0108 44.6203 77.0108C37.7003 71.8308 28.7503 64.6908 20.7403 55.7808C16.6703 51.5308 11.6503 45.8008 8.87029 39.0708C7.91028 36.7308 6.63029 33.2608 6.29029 29.9808C5.72028 23.7808 8.55029 19.1308 15.0503 15.7808C15.6503 15.4808 16.1003 15.4208 16.6103 15.6408C16.7903 15.7208 17.0103 15.8108 17.1903 15.9808C18.0003 16.5908 18.7303 17.0808 19.4703 17.4408C23.1703 19.3908 27.4103 19.6808 30.5703 18.2208C32.8203 17.1808 34.3603 15.3208 34.8403 13.0008M290.69 128.591C289.97 126.311 288.88 123.861 287.51 121.301C281.87 110.891 273.03 102.221 265.91 95.7908C252.7 83.8608 237.07 72.8408 216.73 61.1608C194.22 48.2408 169.68 36.8408 143.76 27.2408C141.06 26.2408 139.51 25.2708 138.48 22.7208C137.07 19.2408 133.92 16.5408 130.04 15.5908C126.4 14.7008 122.88 15.4008 120.31 17.5908C119.17 18.5508 118.43 18.6608 116.59 18.1608L113.98 17.4608C107.36 15.6208 100.52 13.7308 93.7503 12.1308C71.1103 6.7308 52.6603 4.6108 35.6603 5.4808C33.9003 5.5808 32.7703 5.1308 31.5703 3.8408C28.4703 0.510797 24.3503 -0.669203 19.6203 0.360797C15.3103 1.3208 12.9503 4.2008 13.1703 8.3208C13.2703 9.7808 12.8103 10.4408 11.2203 11.2408C4.20029 14.8008 0.410285 20.2808 0.0402853 27.5708C-0.189715 31.3708 0.700285 35.4408 2.73029 39.9608C5.64029 46.4908 10.2103 52.9708 16.2403 59.2208C26.4103 70.3508 38.6003 80.3908 54.5103 90.8408C75.8603 104.851 98.6003 117.051 122.44 127.381C144.41 136.901 167.4 144.841 191.2 151.131C193.77 151.821 195.07 152.381 196.13 154.591C198.14 158.761 202.26 161.701 206.96 162.321C210.86 162.811 214.37 161.541 216.61 158.831C217.96 157.191 219.32 157.131 221.81 157.401C223.9 157.621 225.99 157.841 228.06 158.101C233.57 158.731 239.26 159.351 244.84 159.631C257.8 160.281 268.47 158.901 277.45 155.461C289.64 150.761 294.55 140.721 290.61 128.641" />
<path d="M53.6105 36.6415C58.1605 33.8515 63.9005 33.1715 69.4305 32.8715C76.9405 32.4415 85.0805 33.0515 95.1205 34.7916C121.47 39.3516 148.18 48.3915 176.76 62.5315C195.06 71.5315 210.1 81.0015 222.8 91.4715C229.64 97.1315 237.26 104.082 241.61 112.642C244.85 119.102 244.27 123.902 239.79 127.322C237.86 128.802 235.05 129.762 232.34 130.562C225.76 132.512 218.37 132.352 211.39 131.852C197.51 130.852 182.63 127.832 165.84 122.572C132.34 112.082 103.77 98.3016 78.4605 80.4715C71.4105 75.4916 64.6505 69.7315 58.3305 63.3515C54.0605 58.2815 50.4205 53.6215 48.9605 48.1915C47.5905 43.1415 49.1105 39.3415 53.5905 36.6115M44.7505 53.6215C46.9805 58.2715 50.2005 62.7915 54.4205 67.1115C63.6005 76.7815 74.8805 85.4416 91.0205 95.1815C103.01 102.432 115.73 108.972 129.04 114.732C140.26 119.592 151.93 123.922 163.97 127.682C180.24 132.762 194.63 135.822 207.96 137.102C218.41 138.112 226.73 137.782 234.09 136.122C241.45 134.472 246.46 131.112 248.58 126.412C250.65 121.822 249.97 116.092 246.54 109.762C244.89 106.732 242.73 103.612 239.85 100.182C233.67 92.8815 225.8 86.0415 214.23 78.1115C194.43 64.4815 172.23 53.1015 146.43 43.4315C122.39 34.4315 102.08 29.4015 82.3805 27.5915C71.4205 26.5715 62.8605 27.1515 55.4705 29.3815C49.4605 31.1915 45.2905 34.3915 43.4205 38.6015C41.6105 42.7815 42.0205 47.9715 44.7205 53.6015" />
<path d="M107.25 81.1285C104.03 78.8785 100.95 76.3885 98.0201 73.9585C96.7301 72.8885 95.4601 71.8585 94.1901 70.8385C93.6301 69.9485 93.0801 69.1585 92.5401 68.3185C91.3301 66.5585 90.2201 64.8685 89.4201 63.1585C88.4801 61.1685 88.3201 59.4685 88.9501 58.1185C89.5801 56.6785 91.0801 55.5685 93.4201 54.8285C98.8401 53.0985 104.85 53.4785 109.95 54.0585C122.55 55.5285 135.89 59.2585 151.96 65.7885C153.48 66.4485 153.79 67.0086 153.84 67.9785C154.01 71.3485 156.63 74.7985 160.54 76.7485C164.52 78.7285 168.82 78.7085 171.79 76.6985C172.6 76.1085 173.38 76.1885 174.8 77.0585C181.44 81.0085 190 86.4685 196.89 93.5285C198.94 95.6185 200.84 98.1585 202.43 101.029C203.49 102.939 203.84 104.509 203.43 105.839C203.03 107.159 201.91 108.349 199.98 109.359C197.35 110.789 194.07 111.039 191.22 111.089C183.74 111.239 175.69 110.149 166.56 107.779C144.3 101.989 124.33 92.9985 107.21 81.0885M84.3501 66.1485C85.3901 68.0085 86.7001 69.8185 88.0701 71.6985C88.7501 72.5985 89.4201 73.5285 90.0901 74.5485L90.3001 74.7685C91.5701 75.7885 92.8601 76.8685 94.1901 77.9585C97.1201 80.3885 100.16 82.8585 103.44 85.1785C113.02 91.9385 123.41 97.7285 134.78 102.649C143.04 106.229 151.88 109.369 161.25 112.059C172.27 115.209 181.39 116.709 189.95 116.739C194.53 116.749 198.6 116.159 202.49 114.889C205.43 113.939 207.8 111.829 208.97 109.129C209.78 107.249 210.37 104.209 208.56 100.379C207.21 97.5685 205.38 94.7585 203.2 92.2785C197.58 85.7685 190.31 80.0985 179.58 73.8185C177.18 72.4385 175.84 71.1685 175.38 68.5685C174.79 65.1885 172.55 62.2385 169.22 60.5385C165.72 58.7285 161.69 58.6485 158.39 60.2185C156.27 61.2685 154.69 61.2285 152.01 60.1085C137.72 54.2185 124.77 50.5785 112.43 48.9185C105.46 47.9985 98.0501 47.3985 91.1101 49.5785C87.0401 50.8585 84.2401 53.0685 83.0501 56.0285C81.8701 58.9485 82.3501 62.4985 84.3801 66.2085" />
</g>
<defs>
<clipPath id="clip0_173_415">
<rect width="291.96" height="162.43" fill="white"/>
</clipPath>
</defs>
</svg>
