<svg width="230" height="300" viewBox="0 0 230 300" fill="currentColor" xmlns="http://www.w3.org/2000/svg">
<g clip-path="url(#clip0_173_413)">
<path d="M224.81 0C224.49 0.26 224.16 0.52 223.84 0.75C214.67 7.23 205.34 13.58 195.98 19.81C173.34 34.87 148.48 46.47 120.66 43.74C116.35 43.31 111.78 40.52 111.76 35.57C111.74 28.03 115.02 19.33 112.93 11.96C111.1 5.55 103.88 1.44 97.6302 3.55C92.1202 5.41 88.2702 8.77 85.7302 13.7C82.6302 19.72 82.3602 25.98 83.4202 32.23C83.9302 35.23 83.8202 38.34 82.7002 41.19C82.1302 42.65 81.2002 43.86 80.7802 45.3C80.3302 46.87 79.7002 48.05 78.7402 49.39C76.3902 52.68 73.1402 55.4 70.3702 58.33C65.1902 63.8 61.3202 70.25 57.2102 76.5C50.3102 86.97 44.1102 98.11 41.5302 110.49C39.2802 121.25 36.5802 130.4 30.8702 139.96C25.2002 149.45 18.9502 158.64 14.0302 168.57C12.0202 172.63 6.86022 183.08 15.4702 182.87C19.6602 182.77 25.3402 175 27.8802 171.97C33.6902 165.01 37.1502 154.75 45.4202 150.14C51.6802 146.64 66.1602 152.1 59.0502 140.39C54.0302 132.11 53.8602 121.25 54.9002 111.91C55.2702 108.61 57.6902 95.79 63.1402 101.08C67.7502 105.56 73.3802 109.62 76.2202 115.56C78.9702 121.29 77.7302 127.68 75.5002 133.35C71.2002 144.33 66.3502 155.18 61.6402 166.02C54.9502 181.45 47.8702 196.79 39.6302 211.6C39.5602 211.73 39.4702 211.85 39.3702 211.96C38.1402 214.41 36.3902 216.62 34.7402 218.83C33.2702 220.93 31.8302 223.06 30.7302 225.39C29.7002 227.57 28.6502 230.29 26.9302 232.17C26.8702 232.41 26.7802 232.64 26.6202 232.88C26.6002 232.93 26.5602 232.97 26.5302 233.02C21.1502 240.97 16.3502 249.12 12.4202 257.72C11.5802 259.54 10.7102 261.34 9.95022 263.19C6.81022 270.81 3.57022 278.39 0.65022 286.07C-0.72978 289.69 0.24022 293.41 2.86022 296.25C6.89022 300.61 16.8302 301.32 21.7602 297.7C48.4702 278.05 77.7102 259.62 101.01 236.48C106.52 231.01 109.24 224.94 106.6 217.49C105.42 214.15 103.45 211.57 99.8602 210.1C95.1702 208.19 90.5002 209.05 85.9102 210.26C81.4902 211.44 77.2202 213.17 72.7502 214.11C68.1602 215.08 65.7602 212.52 66.9402 208.35C67.7602 205.47 68.5102 202.52 69.8402 199.82C72.9502 193.48 75.9602 187.11 78.9102 180.71C79.0202 180.47 79.1802 180.26 79.3602 180.07C79.8002 178.97 80.2702 177.92 80.6502 176.98C82.3102 172.87 83.9602 168.55 86.1802 164.69C86.1802 164.67 86.1802 164.66 86.1902 164.64C90.2202 155.62 94.1702 146.57 98.1202 137.53C101.31 130.22 103.91 121.21 109.84 115.24C119.33 105.71 129.16 112.76 131.49 123.33C131.81 124.82 132.08 126.32 132.3 127.81C132.3 127.84 132.3 127.87 132.3 127.9C132.31 127.95 132.33 128 132.34 128.05C132.83 131.09 133.39 134.13 133.16 137.12C133.44 143.47 133.21 149.86 133.03 156.18C132.87 162.14 130 173.84 135.35 178.17C140.04 181.97 145.28 177.66 148.86 174.62C154.87 169.52 160.86 164.4 166.43 158.83C170.38 154.86 177.44 149.04 178.27 143.09C178.41 142.08 178.52 140.18 177.96 139.27C171.13 127.85 154.61 149.22 153.33 128.74C153.13 125.68 153.05 121.33 152.65 116.78C152.32 115.43 152.38 114.02 152.2 112.65C152.01 111.24 151.73 109.86 151.6 108.45C151.48 108.26 151.39 108.05 151.34 107.81C150.36 103.5 148.78 99.73 146.2 97.56C142.93 94.82 141.1 97 137.03 95.48C136.93 95.44 136.82 95.39 136.72 95.34C128.65 91.15 133.04 74.66 137.36 69.02C145.13 58.86 159.07 54.25 170.08 48.54C184.95 40.81 199.62 32.69 214.28 24.57C216.9 23.12 219.73 21.63 222.61 20.05C222.99 19.84 223.39 19.76 223.78 19.78C225.46 18.03 226.99 16.17 228.15 14.02C229.62 11.27 229.39 8.19 229.76 5.19C229.2 1.82 227.77 0.47 224.84 0.02L224.81 0Z" />
</g>
<defs>
<clipPath id="clip0_173_413">
<rect width="229.73" height="300" fill="white"/>
</clipPath>
</defs>
</svg>
