<svg width="300" height="147" viewBox="0 0 300 147" fill="currentColor" xmlns="http://www.w3.org/2000/svg">
<g clip-path="url(#clip0_173_394)">
<path d="M197.1 81.9082C198.24 81.8682 199.39 82.1282 200.55 82.1582C201.09 82.1682 201.88 82.1582 202.12 81.8382C202.72 81.0082 203.08 79.9882 203.54 79.0482C202.72 78.6482 201.84 77.8482 201.08 77.9382C198.18 78.2982 195.28 78.8182 192.46 79.5782C191.72 79.7782 191.22 81.9582 191.48 82.0282C191.5 82.2682 191.52 82.4982 191.54 82.7282C190.47 82.7982 189.54 83.2382 188.81 84.4582C188.23 85.4182 187.72 85.3382 187.41 84.2682C186.78 82.1282 185.36 80.4982 183.17 80.7582C181.17 80.9982 179.47 80.5182 177.81 79.8182C178.3 79.3582 178.5 78.5982 178.6 77.4682C178.36 77.2182 177.97 76.5182 177.41 76.3182C174.22 75.1782 171.25 76.6082 168.29 77.4482C167.72 77.6082 167.23 79.1782 167.25 80.0882C167.28 82.1282 167.65 84.1482 167.89 86.1782C167.95 86.7382 167.93 87.4182 168.24 87.8282C168.64 88.3682 169.47 89.1282 169.85 89.0082C169.92 88.9882 170 88.9482 170.08 88.9182C170.86 89.6582 171.89 89.9782 173.46 90.0882C175.42 90.2282 177.36 90.6682 179.32 90.7382C180.73 90.7982 182.2 91.0882 183.58 90.7682C184.64 90.9082 185.74 90.8082 186.82 90.8082V90.8482C187.4 90.8482 187.99 90.8782 188.58 90.8882C191.04 94.2782 194.9 94.2082 197.66 90.5282C198.56 89.4882 199.18 88.2282 198.51 86.5982C197.81 84.9182 196.65 83.9182 195.11 83.3482C195.36 82.4382 196.07 81.9382 197.13 81.8982L197.1 81.9082Z" />
<path d="M216.43 85.3711C217.85 85.4911 219.3 85.4311 220.71 85.6311C221.82 85.7911 223.96 84.7711 224.21 83.5811C224.56 81.8911 222.97 81.9511 222.02 81.4711C221.75 81.3311 221.38 81.4111 220.84 81.3711C217.67 82.0211 214.29 82.6611 210.94 83.4411C210.47 83.5511 209.92 84.3011 209.83 84.8311C209.79 85.0211 209.83 85.2311 209.91 85.4411C209.3 85.9511 208.64 86.6611 207.89 87.5711C207.27 88.3311 206.9 89.2011 206.75 90.0911C206.46 90.2611 206.26 90.5611 206.26 90.9111C206.26 91.2611 206.45 91.5411 206.71 91.7111C206.9 93.2911 207.76 94.7911 209.17 95.7711C211.25 97.2111 215.52 96.2111 217.17 93.9011C219.16 91.1111 218.54 87.9811 215.62 85.8211C215.46 85.7011 215.31 85.6011 215.17 85.5011C215.5 85.3811 215.92 85.3411 216.45 85.3811L216.43 85.3711Z" />
<path d="M210.15 146.389C210.15 146.279 210.05 146.169 209.99 146.059C209.93 146.179 209.82 146.279 209.82 146.379C209.82 146.489 209.92 146.599 209.98 146.699C210.04 146.599 210.15 146.499 210.15 146.389Z" />
<path d="M73.0499 100.139C73.58 100.139 74.0098 99.7089 74.0098 99.1787C74.0098 98.6486 73.58 98.2188 73.0499 98.2188C72.5197 98.2188 72.0898 98.6486 72.0898 99.1787C72.0898 99.7089 72.5197 100.139 73.0499 100.139Z" />
<path d="M293.66 64.5719C289.38 63.9719 285.09 63.5419 280.79 63.1019C276.83 62.6919 275.88 61.6519 275.79 57.6819C275.73 55.2119 275.72 52.7219 275.39 50.2719C275.13 48.3219 274.43 46.4219 273.94 44.4919C272.74 39.7919 271.64 35.0719 270.3 30.4119C269.66 28.1819 267.58 27.0419 265.07 27.0119C262.9 27.0019 262.27 27.5419 261.21 30.3019C261.07 30.6519 260.87 30.9819 260.81 31.3519C260.43 33.9319 259.24 35.9819 257.07 37.5119C256.39 37.9819 255.92 38.7919 255.42 39.5019C253.7 41.9119 252.02 44.3519 250.33 46.7719C250.35 46.8019 250.37 46.8219 250.39 46.8419C248.91 49.1119 247.47 51.4019 245.93 53.6219C245.15 54.7419 244.22 55.8219 242.61 55.6819C240.15 55.4819 237.73 55.4819 235.37 54.2719C230.65 51.8419 225.26 51.9819 220.21 50.7719C219.86 50.6819 219.46 50.7419 219.1 50.7919C214.64 51.4719 212.94 54.1319 214.16 58.5219C214.33 59.1219 214.61 59.7319 214.58 60.3219C214.39 63.5719 215.51 66.4819 217 69.2219C219.86 74.4419 222.81 79.6119 225.92 84.6919C226.7 85.9619 226.77 86.9319 226.13 88.0919C225.71 88.8518 225.2 89.5619 224.79 90.3319C222.91 93.8319 220.79 97.2419 219.29 100.892C217.83 104.422 216.87 108.182 215.97 111.912C215.48 113.942 215.31 116.132 215.46 118.212C215.79 122.682 220.36 126.602 225.11 123.162C228.11 120.992 231.5 119.352 234.71 117.462C237.26 115.942 239.8 114.402 242.36 112.892C244.81 111.432 247.28 110.032 249.7 108.532C251.51 107.412 252.86 107.492 254.26 109.122C255.88 111.002 257.42 112.942 259.01 114.852C261.95 118.382 264.75 122.062 267.9 125.402C270.47 128.132 273.78 129.972 277.43 130.922C280.31 131.662 282.42 130.432 282.98 127.502C283.41 125.232 283.43 122.822 283.26 120.492C282.73 113.582 282.06 106.682 281.38 99.7819C281.08 96.7019 281.88 94.2519 284.31 92.1619C287.69 89.2519 290.8 86.0219 294.12 83.0419C296.81 80.6319 298.47 77.7118 299.51 74.2719C301.06 69.1719 298.87 65.2819 293.65 64.5519L293.66 64.5719ZM283.9 77.3919C281.09 79.8419 278.31 82.3319 275.34 84.5719C272.81 86.4819 271.25 88.9119 270.48 91.8719C270.14 93.1619 269.95 94.5719 270.09 95.8919C270.49 99.5919 271.08 103.272 271.59 106.962C271.69 107.702 271.81 108.462 271.75 109.182C271.72 109.462 271.57 109.762 271.37 110.012C271.12 110.052 270.9 110.162 270.71 110.322C270.49 110.262 270.24 110.122 270.12 109.982C267.59 107.082 265.06 104.182 262.6 101.222C261.81 100.262 261.25 99.1319 260.54 98.1119C258.12 94.6619 254.97 93.7219 251.2 95.6519C248.7 96.9319 245.63 97.2019 243.72 99.5919C243.65 99.6818 243.51 99.7519 243.4 99.7719C239.13 100.602 235.83 103.452 232.03 105.242C231.81 105.352 231.63 105.562 231.4 105.632C231.06 105.722 230.7 105.732 230.34 105.772C230.34 105.442 230.22 105.052 230.34 104.772C231.53 102.042 232.76 99.3319 233.75 97.1219C234.63 96.1319 235.06 95.4818 235.64 95.0319C237.86 93.3519 238.7 90.9419 239.52 88.4119C240.49 85.4119 239.99 83.0719 238.07 80.4619C235.06 76.3819 232.58 71.9019 229.94 67.5619C229.66 67.1119 229.51 66.2119 229.77 65.9119C230.05 65.5719 230.99 65.4119 231.43 65.6219C235.95 67.8119 240.98 67.0119 245.68 68.0719C248.47 68.7019 250.34 67.7519 251.87 65.2419C254.2 61.4319 257.06 58.0019 259.01 53.9119C259.97 51.8919 262.03 50.3919 263.6 48.6619C265.47 50.3819 264.89 52.8319 265.18 54.9019C265.73 58.8019 265.73 62.7819 265.71 66.7319C265.7 69.9219 266.83 72.0119 269.9 72.8919C272.4 73.6219 274.96 74.0919 277.52 74.6119C279.47 75.0119 281.45 75.2719 283.4 75.6619C284.62 75.9019 284.83 76.5719 283.9 77.3919Z" />
<path d="M76.0405 39.4904C78.9705 39.0704 81.9605 39.0304 84.9205 38.8104C85.5405 38.7704 86.1604 38.6904 86.7805 38.6504C89.7405 38.4804 92.7105 38.1804 95.6805 38.1704C99.5205 38.1504 103.37 38.3504 107.21 38.4404C107.83 38.4504 108.48 38.2404 109.07 38.3604C113.62 39.3204 118.18 39.1604 122.78 38.9104C126.37 38.7204 129.96 38.6404 133.56 38.6504C136.15 38.6504 138.84 39.4304 141.31 38.9404C147.1 37.8004 152.67 39.2904 158.34 39.6204C164.78 40.0004 170.96 42.4004 177.5 41.9104C178.08 41.8704 178.69 42.2204 179.26 42.4404C185.28 44.7804 191.29 47.1404 197.31 49.4704C199.96 50.5004 204.22 49.6304 206.13 47.0004C206.81 46.1704 207.2 44.4104 205.87 42.6604C204.76 41.1904 203.63 39.6904 202.26 38.4804C196.95 33.7804 190.24 32.2704 183.64 30.5704C181.48 30.0204 179.32 28.9604 177.16 28.9904C173.46 29.0404 170.04 28.1004 166.56 27.2104C158.64 25.2004 150.56 25.6604 142.51 25.5904C136.36 25.5404 130.16 27.1404 124.06 25.0904C123.84 25.0204 123.56 25.0504 123.32 25.0804C118.63 25.7204 113.87 24.3604 109.2 25.6204C108.62 25.7804 107.92 25.8104 107.36 25.6404C103.39 24.3804 99.3505 24.0204 95.2305 24.5804C93.5205 24.8104 91.7605 25.1304 90.0604 24.9804C83.6404 24.4204 77.4705 25.9904 71.2205 26.9204C69.5205 27.1704 68.5305 28.0304 67.9705 29.5704C66.1305 34.5904 70.8105 40.2204 76.0805 39.4704L76.0405 39.4904Z" />
<path d="M132.56 11.9608C133.46 11.3308 134.33 10.1008 135.19 10.1208C136.04 10.1408 136.77 11.5508 137.71 12.0808C139.2 12.9108 140.77 14.0008 142.39 14.1208C146.21 14.4108 150.07 14.3608 153.9 14.1508C156.08 14.0308 158.11 14.1108 160.08 15.0608C163.31 16.6108 166.35 16.4308 169.09 13.9708C169.9 13.2408 170.47 13.4308 170.65 14.3908C171.33 17.9608 174.1 18.8108 177.04 19.0308C183.15 19.4808 189.12 20.5108 194.94 22.4508C197.76 23.3908 200.57 24.3608 203.4 25.2808C210.34 27.5408 217.66 28.6508 223.93 32.8808C227.21 35.1008 230.89 36.7108 234.4 38.6008C234.34 38.7308 234.28 38.8508 234.22 38.9808C237.68 40.5808 241.1 42.2708 244.62 43.7308C247.16 44.7908 248.94 44.2808 250.32 42.5008C252.78 39.3408 252.09 35.1308 248.59 33.2108C242.61 29.9208 236.55 26.7808 230.52 23.5808C226.47 21.4308 222.59 18.9008 217.98 18.0208C217.51 17.9308 217.12 17.5208 216.66 17.3308C214.95 16.6208 213.26 15.8408 211.51 15.2608C207.27 13.8408 202.96 12.6608 198.76 11.1208C194.44 9.54081 189.93 8.79081 185.47 7.86081C184.15 7.58081 182.79 7.39081 181.43 7.31081C178.19 7.11081 174.91 6.99081 172.24 9.27081C171.13 10.2208 170.63 10.1308 170.15 8.80081C168.85 5.14081 166.06 3.23081 162.36 2.73081C157.43 2.07081 152.48 1.60081 147.54 1.13081C143.71 0.760806 140.04 1.10081 137.24 4.23081C136.56 4.99081 136.21 4.46081 135.89 3.87081C135.65 3.43081 135.5 2.93081 135.2 2.55081C132.8 -0.449194 128.5 -0.849194 125.59 1.64081C122.9 3.93081 122.68 8.26081 125.13 11.0608C127.04 13.2508 130.18 13.6408 132.57 11.9708L132.56 11.9608Z" />
<path d="M162.4 89.3809C163.02 89.4009 163.64 89.4209 164.26 89.4409C164.81 89.4509 165.37 89.3409 165.93 89.2809C165.6 88.6209 165.36 87.8709 164.89 87.3309C164.75 87.1709 164.51 87.0709 164.24 87.0109C164.88 85.2209 164.81 83.5909 164.04 81.9609C163.82 81.5109 163.57 81.1109 163.28 80.7409C163.47 79.8609 163.04 79.0609 162.32 78.3409C160.2 76.2309 157.6 75.0709 154.44 74.7109C152.33 75.3509 150.12 75.7709 148.12 76.7009C147.04 77.2009 146.36 77.8809 146.01 78.6709C144.31 78.5809 142.64 78.5909 141 79.6509C140.17 80.1909 138.71 80.2709 137.73 79.9609C135.32 79.2009 133.1 79.6809 130.8 80.2609C129.5 80.5909 128.09 80.5709 126.73 80.5709C122.72 80.5709 118.82 80.9909 115.05 82.5209C113.46 83.1609 111.65 83.2309 109.99 83.7109C106.18 84.8109 102.4 85.9809 98.6302 87.1709C96.8702 87.7209 95.1802 88.5209 93.4002 88.9509C89.3002 89.9709 85.2702 90.9909 81.8502 93.7509C80.8602 94.5509 80.2002 95.4309 79.7202 96.4309C79.2702 96.5109 78.8302 96.5909 78.3802 96.6109C77.4202 96.6509 76.5402 96.8109 76.8102 97.9709C76.9202 98.4209 77.7402 98.7109 78.1602 99.0109C78.4502 98.9209 78.7102 98.8609 78.9702 98.7909C78.7702 100.851 80.3902 102.091 81.6202 103.431C82.9602 104.881 84.6802 104.951 86.4202 104.131C87.5302 103.601 88.5702 102.861 89.7202 102.451C93.1002 101.241 96.4702 99.4609 99.9402 99.2009C103.74 98.9109 106.69 95.9409 110.56 96.5609C115.47 94.7109 120.65 94.0709 125.73 92.9509C129.8 92.0509 133.83 91.9509 137.9 91.9209C145.6 91.8609 153.27 91.5309 160.83 90.0009C161.4 89.8809 161.94 89.6309 162.41 89.3709L162.4 89.3809Z" />
<path d="M20.4497 94.7303C22.2597 95.8503 23.7897 94.8903 25.2697 93.9203C26.0997 93.3803 26.9697 92.8603 27.7197 92.2303C32.4797 88.2203 38.3697 86.4503 43.9497 84.1403C47.7197 82.5703 51.6797 81.4103 55.6197 80.3103C62.5297 78.3803 69.4097 76.3003 76.5997 75.5203C80.6197 75.0903 84.3697 73.6503 87.2997 70.7703C88.5497 69.5403 89.2897 69.5603 90.2197 70.7703C93.0297 72.9103 96.5197 72.9403 98.8197 70.8603C100.6 69.2603 100.47 66.3903 98.4697 63.3203C98.1997 62.9003 97.9497 62.4503 97.5897 62.1203C97.2397 61.8003 96.7897 61.4903 96.3297 61.3703C94.0097 60.7903 90.4997 62.5303 89.2397 64.8203C88.4297 66.3003 88.0697 66.4203 87.3097 65.1203C85.3297 61.7603 82.4497 61.1603 78.9797 62.0703C71.7897 63.9603 64.6197 65.8803 57.4297 67.7503C54.6797 68.4603 51.9197 69.2103 49.1297 69.6803C44.6597 70.4403 40.4797 71.8103 36.5197 74.0403C32.8497 76.1003 28.9197 77.7203 25.3197 79.9003C21.6397 82.1303 18.7797 85.2203 18.3697 89.8403C18.1897 91.8003 18.6397 93.6003 20.4397 94.7203L20.4497 94.7303Z" />
<path d="M211.97 64.1991C209.77 62.7191 207.53 61.5691 204.83 61.2891C203 61.0991 201.18 60.5791 199.39 60.0991C193.51 58.5291 187.68 56.7691 181.76 55.3691C179.01 54.7191 176.09 54.4791 173.25 54.4691C166.32 54.4591 159.38 54.6391 152.45 54.8391C151.1 54.8791 149.77 55.3491 148.43 55.5691C145.75 56.0091 144.93 58.0291 144.35 60.2791C143.72 62.7091 144.85 64.6891 146.69 65.7091C148.68 66.8091 151.24 67.8991 153.34 67.5691C159.45 66.6091 165.51 67.0191 171.57 67.2691C177.78 67.5191 183.82 68.9691 189.8 70.7691C195.14 72.3691 200.6 73.5691 206.05 74.8191C208.87 75.4691 211.2 74.4991 213.02 71.6091C213.14 71.3491 213.47 70.6791 213.77 69.9991C215.12 66.9091 214.78 66.0691 211.98 64.1891L211.97 64.1991Z" />
<path d="M40.2099 43.1201C43.9599 44.1901 47.9399 44.1601 50.7499 41.4201C53.1199 39.1001 54.9799 39.1301 57.4699 40.5801C58.0999 40.9501 58.8499 41.1701 59.5799 41.2601C61.4499 41.4901 62.4999 40.7901 63.2599 38.9501C65.0699 34.6201 63.6099 30.4501 59.5099 28.1201C58.4099 27.4901 57.3199 27.4701 56.4199 28.3301C55.3599 29.3401 54.4099 30.4701 53.4899 31.6201C52.9099 32.3501 52.4399 32.9901 51.3799 32.3701C47.8199 30.2801 43.9899 30.7901 40.1899 31.3401C39.2799 31.4701 38.4499 32.0701 37.7499 32.3801C37.1699 34.0101 36.5699 35.2601 36.2999 36.5701C35.8499 38.8401 37.9799 42.5001 40.1999 43.1301L40.2099 43.1201Z" />
<path d="M113.74 71.2097C116.27 70.6497 118.81 70.0897 121.31 69.3897C123.47 68.7897 125.63 68.0997 127.09 66.1797C128.55 64.2197 128.43 62.4497 126.64 59.6397C125.38 57.6597 122.21 55.9397 120.3 56.5697C116.14 57.9297 111.98 58.9397 107.56 59.0997C104.21 59.2197 102.51 62.4397 103.67 65.6197C105.28 70.0397 109.17 72.2197 113.75 71.1997L113.74 71.2097Z" />
<path d="M112.03 12.9497C112.5 13.0597 112.94 13.3497 113.41 13.4797C115.37 14.0197 117.41 13.2497 118.98 10.9997C119.03 10.6497 119.44 9.64973 119.25 8.77973C118.82 6.85973 118.26 4.91973 117.44 3.14973C116.27 0.649731 113.16 -0.0702688 110.8 1.38973C108.38 2.87973 106.98 5.10973 107.28 7.86973C107.57 10.5097 109.29 12.3197 112.03 12.9497Z" />
<path d="M141.01 65.8302C141.23 65.2702 141.75 64.2602 142.05 63.2002C142.7 60.8502 141.85 58.8802 139.84 57.8202C137.03 56.3402 133.14 56.4702 131.76 58.1402C131.52 58.4202 131.38 58.7702 131.2 59.1002C129.75 61.7902 130.55 64.0902 132.3 66.3302C134.68 69.3702 138.51 69.3802 141.01 65.8402V65.8302Z" />
<path d="M38.7997 121.471C37.9597 123.971 38.9597 126.171 40.6097 127.941C41.9897 129.421 46.2097 129.041 47.5197 127.561C49.7097 125.061 49.0197 118.981 45.9397 116.831C45.5397 116.771 44.6697 116.431 43.8797 116.581C41.1497 117.081 39.6397 119.031 38.8097 121.481L38.7997 121.471Z" />
<path d="M68.9003 109.509C71.1003 111.049 73.2203 110.839 74.4203 108.959C76.3203 105.999 75.9903 102.629 73.6503 101.029C71.5603 99.6087 69.6703 99.2887 68.2303 100.049C68.1403 100.019 68.0503 99.9887 67.9603 99.9887C67.4303 99.9887 67.0003 100.419 67.0003 100.949C67.0003 100.999 67.0203 101.039 67.0303 101.089C66.9503 101.189 66.8703 101.289 66.8003 101.409C65.0703 104.059 65.9503 107.429 68.9103 109.499L68.9003 109.509Z" />
<path d="M5.9398 105.141C6.1198 104.381 6.6598 103.081 6.6698 101.771C6.6798 100.331 5.7098 99.2914 4.3298 98.7314C3.2198 98.2814 2.1398 98.2214 1.2398 99.1414C-0.110198 100.491 -0.400198 103.821 0.639802 105.431C1.8898 107.351 4.2198 107.441 5.9498 105.141H5.9398Z" />
<path d="M12.5302 99.9086C13.2402 100.109 14.2202 99.3786 14.6102 99.2286C16.2402 96.6486 16.2602 93.8685 14.7602 92.0985C14.1902 91.4285 13.0402 90.6385 12.3702 90.8085C11.4702 91.0285 10.2902 92.0085 10.1102 92.8485C9.76024 94.4785 9.76024 96.2985 10.1502 97.9185C10.3502 98.7485 11.5902 99.6386 12.5202 99.9086H12.5302Z" />
</g>
<defs>
<clipPath id="clip0_173_394">
<rect width="300" height="146.7" fill="white"/>
</clipPath>
</defs>
</svg>
