<svg width="72" height="84" viewBox="0 0 72 84" fill="currentColor" xmlns="http://www.w3.org/2000/svg">
<path d="M71.8996 47.0007C71.6996 42.6007 71.8996 38.0007 71.8996 33.5007C71.8996 29.0007 71.6996 30.5007 71.1996 29.1007C69.8996 25.9007 68.5996 22.6007 66.7996 19.6007C65.3996 17.1007 63.6996 14.7007 61.1996 13.1007C57.8996 10.9007 54.5996 8.70069 51.2996 6.30069C47.9996 3.90069 44.1996 2.50069 40.3996 1.60069C37.0996 0.900692 33.5996 0.600692 30.1996 0.100692C27.2996 -0.299308 24.5996 0.100692 22.0996 1.60069C20.5996 2.50069 19.4996 3.80069 19.1996 5.70069C18.7996 8.30069 19.1996 8.70069 21.7996 7.90069C23.1996 7.40069 24.5996 6.70069 25.9996 6.60069C30.3996 6.40069 34.7996 6.40069 39.0996 7.70069C42.8996 8.80069 46.3996 10.3007 49.5996 12.7007C50.8996 13.7007 52.3996 14.6007 53.6996 15.6007C55.7996 17.1007 58.0996 18.5007 59.8996 20.3007C63.9996 24.3007 66.1996 29.2007 66.1996 35.0007V53.1007C66.1996 53.7007 66.1996 54.3007 66.1996 54.8007C65.2996 59.1007 63.3996 63.1007 60.7996 66.7007C56.9996 72.0007 51.5996 74.3007 45.2996 74.5007C41.6996 74.5007 37.9996 74.7007 34.3996 74.6007C34.1996 74.6007 34.0996 74.6007 33.8996 74.6007C33.4996 74.6007 33.0996 74.5007 32.6996 74.4007C32.5996 74.4007 32.4996 74.4007 32.3996 74.4007C31.9996 74.4007 31.6996 74.4007 31.3996 74.4007C31.3996 74.4007 31.3996 74.4007 31.2996 74.4007C31.1996 74.4007 30.9996 74.4007 30.8996 74.4007C30.7996 74.4007 30.5996 74.4007 30.4996 74.4007C30.3996 74.4007 30.2996 74.4007 30.1996 74.4007C29.9996 74.4007 29.7996 74.4007 29.6996 74.4007C26.8996 74.2007 24.1996 73.2007 21.3996 72.5007C20.6996 72.3007 19.9996 71.6007 19.3996 71.1007V71.3007C17.4996 69.4007 15.5996 67.3007 13.5996 65.4007C10.9996 63.0007 9.19961 60.1007 7.89961 56.9007C7.49961 55.8007 7.19961 54.6007 7.19961 53.5007C7.19961 49.2007 7.19961 44.9007 8.19961 40.6007C9.29961 35.4007 11.3996 31.0007 15.2996 27.4007C16.6996 26.1007 17.9996 24.7007 19.3996 23.3007C24.1996 18.5007 30.1996 17.4007 36.4996 18.7007C39.8996 19.4007 43.0996 21.3007 46.2996 22.9007C48.3996 24.0007 50.4996 25.3007 52.1996 26.8007C58.5996 32.5007 60.6996 40.9007 58.2996 49.1007C57.0996 53.2007 54.9996 57.0007 52.6996 60.5007C50.3996 64.0007 46.8996 65.5007 42.8996 65.9007C40.4996 66.1007 38.0996 65.9007 35.7996 65.4007C34.8996 65.4007 33.9996 65.1007 33.1996 64.8007C33.1996 64.8007 33.0996 64.8007 32.9996 64.8007C32.6996 64.8007 32.3996 64.7007 32.0996 64.6007C31.9996 64.6007 31.8996 64.6007 31.7996 64.6007H31.5996C28.8996 63.8007 26.1996 62.9007 24.2996 60.6007C22.2996 58.2007 20.4996 55.7007 20.3996 52.5007C20.3996 49.8007 20.1996 47.1007 20.3996 44.4007C20.5996 41.1007 21.4996 38.1007 24.7996 36.4007C25.3996 36.1007 25.8996 35.7007 26.3996 35.3007C28.7996 33.2007 31.7996 32.7007 34.7996 32.5007C38.5996 32.2007 41.6996 34.0007 44.5996 36.1007C46.1996 37.3007 47.1996 38.8007 47.4996 40.6007C47.7996 43.0007 47.9996 45.4007 47.7996 47.7007C47.4996 51.2007 46.1996 54.3007 42.4996 55.5007C40.9996 56.0007 39.2996 56.0007 37.6996 56.0007H37.2996C37.1996 56.0007 37.0996 56.0007 36.8996 56.0007C36.7996 56.0007 36.6996 56.0007 36.4996 56.0007C36.4996 56.0007 36.3996 56.0007 36.2996 56.0007C35.8996 56.0007 35.4996 55.9007 35.0996 55.8007C34.7996 55.8007 34.3996 55.6007 34.0996 55.5007C34.0996 55.5007 33.9996 55.5007 33.8996 55.5007C33.6996 55.5007 33.5996 55.5007 33.4996 55.3007C33.3996 55.3007 33.2996 55.3007 33.1996 55.2007C32.6996 54.9007 32.1996 54.6007 31.7996 54.2007H31.8996C31.2996 53.6007 30.6996 52.7007 30.5996 51.9007C30.2996 50.0007 30.5996 48.1007 31.4996 46.3007C32.5996 44.3007 34.9996 43.3007 37.0996 44.3007C37.6996 44.6007 38.1996 45.3007 38.3996 45.9007C38.6996 46.9007 38.2996 47.5007 37.1996 47.9007C35.7996 48.3007 34.3996 48.8007 33.2996 49.7007C31.9996 50.8007 32.1996 52.0007 33.2996 52.7007C33.2996 52.7007 33.3996 52.7007 33.4996 52.7007C34.1996 52.9007 34.8996 53.2007 35.5996 53.3007C36.2996 53.3007 37.0996 53.3007 37.8996 53.3007C39.2996 53.3007 40.5996 53.0007 41.8996 52.6007C42.2996 52.6007 42.7996 52.2007 43.0996 51.9007C44.9996 49.5007 45.0996 44.4007 43.2996 41.9007C40.8996 38.4007 37.4996 37.2007 33.3996 38.0007C30.0996 38.7007 27.1996 40.0007 25.8996 43.5007C24.8996 46.4007 24.3996 49.4007 24.6996 52.5007C24.9996 56.4007 26.9996 59.1007 30.4996 60.6007C30.9996 60.9007 31.5996 61.1007 32.0996 61.3007C32.6996 61.4007 33.1996 61.7007 33.6996 62.0007C34.3996 62.3007 35.1996 62.5007 35.9996 62.7007C36.1996 62.7007 36.2996 62.7007 36.4996 62.7007C37.8996 63.0007 39.4996 63.0007 40.8996 62.7007C43.8996 62.1007 46.8996 61.0007 48.6996 58.6007C52.3996 53.5007 54.0996 47.8007 53.2996 41.4007C53.0996 40.0007 52.8996 38.5007 52.2996 37.2007C49.3996 30.3007 43.7996 27.3007 36.7996 26.2007C33.8996 25.7007 31.0996 26.2007 28.4996 27.4007C25.8996 28.7007 23.3996 30.3007 20.8996 31.8007C17.8996 33.7007 15.6996 36.3007 14.7996 39.8007C14.5996 40.8007 14.2996 41.7007 13.9996 42.6007C12.8996 46.0007 12.8996 49.5007 13.3996 53.0007C14.1996 58.2007 17.1996 62.2007 20.4996 66.0007C21.9996 67.8007 23.9996 69.0007 26.1996 69.8007C27.5996 70.3007 28.9996 70.8007 30.3996 71.2007C30.9996 71.4007 31.6996 71.5007 32.3996 71.6007C32.2996 71.6007 32.0996 71.6007 31.9996 71.6007C32.7996 71.7007 33.5996 71.9007 34.3996 72.1007C34.3996 72.1007 34.3996 72.1007 34.2996 72.1007C34.5996 72.1007 34.8996 72.3007 35.1996 72.5007C37.5996 73.1007 39.9996 73.6007 42.3996 73.2007C48.0996 72.3007 52.8996 69.7007 56.3996 65.2007C59.6996 61.0007 61.8996 56.2007 63.6996 51.2007C65.0996 47.0007 65.3996 42.7007 64.3996 38.4007C63.7996 35.6007 62.5996 32.9007 61.6996 30.2007C60.6996 27.3007 59.3996 24.7007 56.5996 23.1007C56.2996 22.9007 55.9996 22.6007 55.6996 22.3007C54.0996 21.1007 52.5996 19.9007 50.9996 18.9007C45.5996 15.7007 39.7996 13.3007 33.5996 12.0007C32.5996 11.8007 31.5996 11.9007 30.5996 12.0007C29.3996 12.2007 28.2996 12.7007 27.0996 13.0007C22.3996 14.3007 18.3996 16.8007 14.8996 20.1007C12.6996 22.1007 10.6996 24.3007 8.49961 26.3007C6.19961 28.5007 4.49961 31.0007 3.69961 34.1007C2.69961 37.9007 1.79961 41.7007 1.09961 45.5007C0.599606 48.0007 0.199606 50.6007 0.299606 53.0007C0.599606 57.6007 1.59961 62.0007 5.09961 65.4007C5.89961 66.2007 6.59961 67.2007 7.29961 68.2007C9.89961 71.9007 12.9996 75.1007 16.5996 77.8007C20.1996 80.6007 24.6996 80.9007 28.9996 81.7007C28.9996 81.7007 28.9996 81.7007 28.9996 81.8007C28.9996 81.8007 28.9996 81.8007 29.0996 81.8007C29.2996 81.8007 29.4996 81.8007 29.7996 81.8007C29.8996 81.8007 29.9996 81.8007 30.1996 81.8007C30.3996 81.8007 30.6996 81.8007 30.9996 81.8007C31.4996 81.9007 32.0996 82.0007 32.5996 82.1007C32.7996 82.1007 32.8996 82.1007 33.0996 82.2007C33.6996 82.2007 34.1996 82.4007 34.7996 82.5007C37.2996 83.0007 39.8996 83.6007 42.4996 83.1007C44.0996 82.8007 45.5996 82.2007 47.1996 82.0007C51.4996 81.3007 55.1996 79.5007 58.7996 77.1007C63.8996 73.7007 67.3996 69.1007 69.3996 63.4007C71.2996 58.2007 72.4996 52.9007 72.2996 47.2007L71.8996 47.0007Z" />
</svg>
