<svg width="81" height="79" viewBox="0 0 81 79" fill="currentColor" xmlns="http://www.w3.org/2000/svg">
<path d="M80.0998 37.3C79.9998 35.5 79.6998 33.6 79.3998 31.9C79.2998 30.9 79.0998 30 78.7998 29C78.5998 28.5 78.4998 28 78.2998 27.5C77.9998 26.5 77.6998 25.5 77.2998 24.5L77.0998 24.1C76.6998 23.2 76.3998 22.3 75.7998 21.4C75.3998 20.6 74.8998 19.9 74.3998 19.2C74.1998 18.8 73.8998 18.5 73.6998 18.1C72.4998 16.2 71.0998 14.4 69.1998 12.4C67.7998 10.9 66.0998 9.5 63.7998 7.9C62.9998 7.3 62.2998 6.8 61.4998 6.4L60.9998 6.1C60.6998 5.9 60.4998 5.8 60.1998 5.6C59.1998 5 58.2998 4.4 57.1998 4C55.3998 3.2 53.3998 2.5 51.5998 1.9L50.8998 1.7C49.7998 1.3 48.6998 1.1 47.3998 0.9C46.1998 0.7 45.0998 0.6 43.9998 0.5C41.5998 0.3 38.8998 0.3 36.5998 0.6C34.7998 0.8 32.9998 1 31.1998 1.3C30.5998 1.4 29.9998 1.5 29.4998 1.7C29.3998 1.7 29.2998 1.7 29.2998 1.7V1.6C29.2998 1.6 29.2998 1.4 29.2998 1.3C29.2998 1.1 29.1998 0.8 28.9998 0.6C28.7998 0.2 28.2998 0 28.0998 0C27.5998 0 27.2998 0.6 27.2998 1C27.2998 1.4 27.2998 1.4 27.3998 1.6V1.8V2C27.0998 2.1 26.8998 2.2 26.5998 2.3C26.0998 2.5 25.5998 2.7 25.0998 2.9C23.0998 3.4 21.3998 4.5 19.6998 5.5C18.0998 6.5 15.9998 7.9 14.0998 9.6C12.8998 10.7 11.6998 11.8 10.5998 13H10.4998C9.3998 14.4 8.2998 15.8 7.3998 17.3C6.9998 17.9 6.5998 18.6 6.1998 19.2C5.4998 20.2 4.7998 21.3 4.2998 22.4C3.4998 24 2.7998 25.8 2.1998 27.7C1.5998 29.3 1.2998 30.7 1.0998 32.1C0.899805 33.8 0.699805 35.4 0.599805 36.9C0.599805 37.4 0.599805 37.9 0.499805 38.3C0.299805 38.4 0.299805 38.6 0.299805 38.8C0.299805 39.7 0.399805 40.5 0.499805 41.3C0.499805 42.2 0.599805 43.1 0.699805 43.9C0.699805 44.5 0.899805 45 1.0998 45.6C1.0998 45.9 1.2998 46.1 1.2998 46.4C1.3998 47 1.5998 47.5 1.6998 48.1C1.9998 49.5 2.3998 51 2.8998 52.3C3.4998 53.9 4.1998 55.5 4.9998 57.1C5.6998 58.5 6.4998 59.9 7.2998 61.1C7.5998 61.7 7.9998 62.3 8.3998 62.8C8.4998 63 8.6998 63.2 8.7998 63.4C9.2998 64.1 9.7998 64.8 10.3998 65.4C11.1998 66.3 12.0998 67 12.8998 67.8C13.1998 68 13.3998 68.3 13.6998 68.5C14.4998 69.2 15.2998 69.8 16.0998 70.4C17.3998 71.3 18.6998 72.1 20.0998 72.8C20.7998 73.1 21.4998 73.5 22.0998 73.8C22.7998 74.2 23.4998 74.5 24.1998 74.9L26.5998 75.8C27.5998 76.1 28.5998 76.4 29.4998 76.7C30.4998 77 31.4998 77.4 32.4998 77.7C33.2998 77.9 34.2998 78 35.1998 78.1C35.5998 78.1 35.9998 78.2 36.2998 78.3C36.8998 78.4 37.4998 78.5 38.0998 78.5C41.0998 78.5 44.0998 78.5 47.1998 78C48.6998 77.8 50.1998 77.5 51.6998 77.2C51.8998 77.2 52.0998 77.2 52.0998 77.2C52.0998 77.6 52.2998 78 52.4998 78.1C52.5998 78.1 52.9998 78.3 53.2998 78.1C53.8998 77.9 54.0998 77.4 53.7998 76.8C53.7998 76.6 53.7998 76.6 53.7998 76.6C53.7998 76.6 53.7998 76.6 53.8998 76.6C55.1998 76.2 56.4998 75.8 57.6998 75.3C58.9998 74.8 60.1998 74.1 61.2998 73.5C61.8998 73.2 62.4998 72.7 63.0998 72.3C63.3998 72.1 63.6998 71.9 63.9998 71.7C64.4998 71.4 64.8998 71.1 65.3998 70.7C66.4998 69.9 67.5998 69.1 68.5998 68.1C69.7998 67 70.9998 65.6 72.0998 64.3C72.2998 64.1 72.3998 63.8 72.5998 63.6C72.9998 63.1 73.2998 62.6 73.5998 62.2C74.4998 60.6 75.3998 59 76.3998 57C77.8998 53.9 78.6998 51.3 79.0998 48.9C79.4998 47 79.6998 44.9 79.8998 42.9V37.1L80.0998 37.3ZM45.1998 75.7C45.2998 75.9 45.3998 76 45.5998 76.2C45.6998 76.4 45.8998 76.5 45.9998 76.7C45.6998 76.7 45.4998 76.7 45.0998 76.5C45.0998 76.5 45.0998 76.5 44.9998 76.5C44.9998 76.5 44.9998 76.2 44.9998 76.1C44.9998 75.9 44.9998 75.8 45.0998 75.7H45.1998ZM67.2998 15.4C67.2998 15.3 67.3998 15.2 67.4998 15C67.4998 15 67.4998 15 67.4998 15.1C67.4998 15.1 67.4998 15.1 67.4998 15.2C67.4998 15.2 67.4998 15.2 67.3998 15.3L67.2998 15.4ZM77.8998 37.5C77.9998 37.7 78.0998 37.9 78.1998 38.1C77.9998 38.1 77.8998 38.1 77.7998 38.1C77.7998 38 77.7998 37.9 77.7998 37.7C77.7998 37.5 77.7998 37.3 77.7998 37.2C77.7998 37.2 77.7998 37.3 77.7998 37.4L77.8998 37.5ZM53.1998 73.6C53.3998 73.6 53.5998 73.6 53.7998 73.5C54.9998 73 56.2998 72.5 57.4998 72.1C57.4998 72.5 57.2998 72.9 57.1998 73.3C57.1998 73.5 56.8998 73.7 56.6998 73.8C55.6998 74.2 54.6998 74.6 53.5998 75C53.5998 75 53.4998 75 53.3998 75C53.3998 75 53.3998 75 53.3998 74.8V74.6C53.1998 74.2 52.9998 73.9 52.9998 73.7C52.9998 73.7 53.1998 73.7 53.2998 73.7L53.1998 73.6ZM3.5998 40.2C3.8998 41 4.0998 41.8 4.2998 42.6C4.2998 42.9 4.4998 43.2 4.4998 43.5C4.4998 43.8 4.4998 43.7 4.5998 43.7C4.5998 43.8 4.5998 43.9 4.6998 44C5.1998 44.6 5.2998 45.3 5.2998 46.1C5.2998 46.3 5.2998 46.6 5.2998 46.8C4.5998 45.9 3.7998 45 3.0998 44C2.4998 43.2 2.1998 42.1 2.1998 40.9V38.5C2.1998 37.5 2.1998 36.4 2.3998 35.3V35.1C2.3998 35.1 2.4998 35.3 2.5998 35.4V35.8C2.5998 37.1 2.6998 38.5 3.2998 40L3.5998 40.2ZM28.1998 4.2C28.1998 4.2 28.1998 4.2 28.3998 4.2C28.3998 4.3 28.3998 4.4 28.4998 4.5C28.4998 4.5 28.3998 4.5 28.2998 4.5C27.9998 4.5 27.7998 4.5 27.3998 4.5C27.6998 4.4 27.9998 4.3 28.1998 4.2ZM35.5998 3.7C35.7998 3.5 35.9998 3.4 36.1998 3.2C36.2998 3.2 36.3998 3.2 36.4998 3.3C36.1998 3.5 35.8998 3.6 35.4998 3.7H35.5998ZM70.6998 57.6C70.5998 58.2 70.3998 58.7 70.2998 59.3C70.1998 59.9 70.0998 60.4 69.8998 61.1C69.6998 62.1 69.1998 62.9 68.2998 63.5C67.7998 63.8 67.2998 64.2 66.8998 64.6C66.8998 64.6 66.6998 64.7 66.6998 64.8L67.0998 62.7C67.1998 62.2 67.2998 61.8 67.2998 61.3C67.2998 61 67.2998 60.8 67.2998 60.4C67.2998 60.3 67.3998 60.1 67.4998 60C68.0998 59.5 68.6998 59 69.2998 58.6L70.6998 57.4C70.6998 57.4 70.6998 57.5 70.6998 57.6ZM57.4998 64.3L57.1998 63.9C56.3998 64.2 55.6998 64.5 54.8998 64.9C54.1998 65.2 53.3998 65.5 52.6998 65.8C52.3998 65.9 51.9998 66.1 51.5998 66.2C51.5998 66.2 51.5998 66 51.6998 66C52.2998 64.5 52.6998 62.7 51.6998 60.9C51.6998 60.8 51.6998 60.7 51.6998 60.6C51.6998 60.4 51.5998 60.3 51.4998 60.2C51.5998 60.2 51.7998 60.2 51.9998 60C52.8998 59.7 53.7998 59.3 54.6998 58.9L55.2998 58.6C55.6998 58.5 55.9998 58.3 56.3998 58.1C56.3998 58.1 56.3998 58.1 56.3998 58.2C56.4998 59.1 56.6998 60 56.7998 60.9C56.8998 61.8 57.0998 62.7 57.1998 63.5V63.7L57.3998 64.1L57.4998 64.3ZM72.9998 38.1C72.9998 38.1 72.9998 38.1 72.9998 38.2C72.9998 38.2 72.9998 38.2 72.9998 38.1ZM11.5998 58.2C10.3998 56.2 9.2998 53.9 8.3998 51.1C9.1998 52 10.1998 52.3 11.2998 52.5C11.6998 52.5 12.1998 52.8 12.5998 53C12.6998 53 12.7998 53.2 12.8998 53.4C13.5998 54.9 14.2998 56.5 14.9998 58.1C15.2998 58.8 15.5998 59.4 15.9998 60C15.9998 60 15.9998 60.2 16.0998 60.2C15.4998 60 14.8998 59.8 14.2998 59.6C14.0998 59.5 13.7998 59.4 13.5998 59.3C13.0998 59.1 12.6998 59 12.1998 58.7C11.7998 58.5 11.4998 58.3 11.3998 58L11.5998 58.2ZM19.9998 61.7L19.4998 61.5L19.8998 61.8L19.9998 61.7ZM18.6998 61.3C17.8998 59.8 17.1998 58.4 16.4998 56.9C16.2998 56.6 16.1998 56.3 16.0998 56.1C16.5998 56.1 17.1998 56 17.7998 55.6C18.0998 55.5 18.1998 55.5 18.2998 55.5C18.2998 55.5 18.4998 55.7 18.4998 56C18.4998 56.4 18.6998 56.9 18.8998 57.1C19.0998 57.3 19.0998 57.6 18.8998 58C18.8998 58 18.8998 58 18.8998 58.1C18.8998 58.2 18.6998 58.4 18.5998 58.7C18.2998 59.7 18.3998 60.5 19.1998 61.2C19.4998 61.4 19.5998 61.6 19.6998 61.5C19.5998 61.5 19.3998 61.5 19.2998 61.5C19.0998 61.5 18.8998 61.5 18.7998 61.5L18.6998 61.3ZM48.9998 16C49.1998 16.2 49.3998 16.4 49.5998 16.6C49.7998 16.8 49.9998 17 50.0998 17.2C49.8998 17 49.5998 16.9 49.2998 16.9C48.9998 16.9 48.8998 16.9 48.5998 17C48.3331 17.1333 48.1665 17.1333 48.0998 17C48.0998 16.8 47.8998 16.6 47.6998 16.5C48.0998 16.5 48.5998 16.5 49.0998 16.1L48.9998 16ZM56.4998 30.7C56.5998 30.8 56.6998 31.1 56.6998 31.4C56.6998 31.8 56.4998 32.3 56.1998 32.4L51.9998 35.1C51.4998 33.8 50.7998 32.4 50.1998 31.1L49.5998 29.7C49.3998 29.4 49.1998 29 48.9998 28.6C48.7998 28.2 48.5998 27.8 48.3998 27.6C49.3998 27.3 50.0998 26.8 50.8998 26.2C51.2998 25.9 51.5998 25.7 52.0998 25.4C52.2998 25.3 52.3998 25.2 52.5998 25.5C52.9998 26 53.4998 26.5 54.0998 27.1C54.7998 27.7 55.2998 27.7 55.5998 27.6C55.7998 27.6 56.0998 27.4 56.3998 27C56.3998 27.1 56.3998 27.3 56.2998 27.4C55.4998 28.7 56.0998 29.7 56.7998 30.6L56.4998 30.7ZM18.1998 19.1C18.1998 19.3 18.2998 19.4 18.3998 19.5C18.0998 19.5 17.8998 19.7 17.6998 20C17.6998 20 17.5998 20 17.4998 20C17.6998 19.5 17.9998 19 18.1998 18.5C18.1998 18.7 18.1998 18.9 18.1998 19.1ZM45.4998 50.7C44.9998 48.9 44.3998 47.1 43.7998 45.3C43.4998 44.4 43.1998 43.5 42.8998 42.5C42.7998 42.1 42.6998 41.7 42.4998 41.3C43.3998 41 44.2998 40.6 45.1998 40.3C45.8998 40 46.4998 39.7 47.1998 39.5C48.0998 39.1 48.9998 38.7 49.9998 38.3C50.1998 38.2 50.2998 38.1 50.3998 38C50.4998 38 50.5998 37.8 50.7998 37.7C50.7998 37.7 50.7998 37.7 50.7998 37.8C51.0998 38.5 51.2998 39.2 51.5998 39.9C52.0998 41.3 52.6998 42.7 53.1998 44.1C53.5998 45 53.6998 46 53.8998 47.1V47.3V47.5C52.5998 48.1 51.2998 48.7 49.8998 49.2C49.2998 49.5 48.5998 49.7 47.9998 50C47.5998 50.1 47.1998 50.3 46.8998 50.4C46.6998 50.4 46.3998 50.6 46.1998 50.6C45.9998 50.6 45.6998 50.7 45.4998 50.8V50.7ZM17.0998 52.3C16.5998 52.5 16.1998 52.3 15.5998 52C15.5998 52 15.4998 51.8 15.4998 51.7C15.4998 51.4 15.4998 51 15.4998 50.6C15.4998 49.9 15.3998 49.3 15.4998 48.7C15.4998 48.3 15.6998 47.7 15.3998 47.3C15.0998 46.9 14.5998 46.8 14.0998 46.7H13.1998C12.9998 45.5 12.8998 44.3 12.6998 42.9C12.7998 42.9 12.9998 43 13.0998 43.1C13.3998 43.2 13.8998 43.3 14.2998 43.1C14.4998 42.9 14.5998 42.7 14.6998 42.4C14.8998 42.4 15.1998 42.4 15.4998 42.5C15.6998 42.5 15.8998 42.5 16.1998 42.6V43.1C16.1998 43.1 16.1998 43.1 16.1998 43.2C16.1998 43.6 16.4998 43.9 16.7998 44C16.9998 44 17.2998 44.1 17.5998 44C17.8998 44 18.0998 43.8 18.2998 43.6C18.2998 43.6 18.3998 43.5 18.5998 43.4C18.6998 43.4 18.7998 43.4 18.7998 43.3C18.7998 43.3 18.7998 43.3 18.8998 43.6V43.8C18.9998 43.9 19.0998 44 19.0998 44.1C18.9998 44.1 18.8998 44.1 18.7998 44.1C17.7998 43.7 16.8998 44.2 16.0998 44.7C15.5998 45 15.5998 45.6 15.5998 45.9C15.5998 46.2 15.9998 46.5 16.2998 46.6C16.2998 46.6 16.3998 46.6 16.4998 46.6C16.5998 46.6 16.6998 46.6 16.7998 46.6C17.8998 46.4 18.7998 47 19.5998 47.8C19.6998 47.9 19.7998 48.2 19.8998 48.4C19.8998 48.6 19.9998 48.7 20.0998 48.8C20.3998 49.5 20.5998 50.1 20.7998 51.1C20.7998 51.1 20.7998 51.2 20.7998 51.4C20.4998 51.9 20.1998 52.2 19.7998 52.6C19.7998 52.6 19.5998 52.7 19.5998 52.6C19.3998 52.2 18.8998 51.9 18.1998 51.9C17.4998 51.9 17.6998 51.9 17.2998 52.1L17.0998 52.3ZM39.9998 39.8C39.9998 40.1 39.9998 40.2 40.0998 40.2C40.0998 40.2 39.8998 40.2 39.7998 40.3C39.0998 40.4 38.3998 40.6 37.6998 40.8C36.9998 40.9 36.3998 41.1 35.6998 41.2C34.9998 41.3 34.3998 41.4 33.6998 41.6C32.9998 41.7 32.3998 41.8 31.7998 41.9C31.4998 41.9 31.4998 41.9 31.4998 41.5C31.2998 40.5 31.0998 39.5 30.8998 38.5C30.6998 37.5 30.4998 36.5 30.2998 35.5C30.0998 34.9 30.0998 34.1 30.0998 33.4C30.5998 33.4 31.0998 33.2 31.5998 33.2C32.0998 33.2 32.6998 33 33.1998 33C34.5998 32.8 35.9998 32.5 37.1998 32.1C37.3998 32.1 37.3998 32.1 37.3998 32.1C37.3998 32.1 37.3998 32.1 37.4998 32.3C37.8998 33.5 38.2998 34.7 38.6998 35.9C39.0998 37.1 39.4998 38.3 39.8998 39.5V39.8C39.8998 39.8 39.8998 39.8 39.8998 39.9L39.9998 39.8ZM21.3998 35.2C21.3998 35.2 21.3998 35.2 21.3998 35.1C21.2998 34.8 21.2998 34.6 21.2998 34.2C21.2998 33.6 21.2998 33.6 21.8998 33.6C23.7998 33.7 25.7998 33.7 27.5998 33.7C29.3998 33.7 28.2998 33.7 28.3998 33.7C28.3998 33.7 28.3998 34.1 28.3998 34.4C28.3998 36 28.6998 37.6 29.1998 39.3C29.4998 40.1 29.5998 41.1 29.6998 42C29.0998 42 28.3998 42.1 27.7998 42.2C27.0998 42.2 26.2998 42.4 25.4998 42.4H25.2998H25.1998C23.7998 42.4 22.0998 42.2 20.5998 42C20.5998 42 20.4998 42 20.3998 41.9C20.1998 41.2 20.0998 40.6 19.9998 39.9C19.9998 39.5 20.0998 39.2 20.4998 38.8C21.7998 37.6 21.6998 36.2 21.5998 35.1L21.3998 35.2ZM14.3998 39.7C14.3998 39.7 14.4998 39.7 14.5998 39.8C14.5998 39.8 14.5998 39.7 14.4998 39.6L14.3998 39.7ZM22.3998 49.1C22.5998 49.1 23.0998 49.1 23.4998 48.8C23.6998 48.6 23.6998 48.3 23.5998 48V47.8C23.5998 47.8 23.5998 47.8 23.5998 47.7C23.4998 47.1 22.8998 46.7 22.1998 46.6C21.7998 46.6 21.2998 46.6 20.9998 46.8C20.7998 46.1 20.6998 45.4 20.4998 44.6C20.4998 44.5 20.4998 44.3 20.4998 44.2C20.5998 44.2 20.7998 44.2 20.8998 44.2C23.6998 44.4 26.6998 44.5 29.2998 44.1C29.5998 44.1 29.8998 44.1 29.8998 44.1C29.8998 44.1 29.8998 44.3 29.9998 44.6C30.4998 46.6 30.9998 48.8 31.5998 51C31.7998 51.5 31.9998 52.1 32.1998 52.5C32.1998 52.7 32.2998 52.8 32.3998 53C32.1998 53 32.0998 53 31.8998 53C31.6998 53 31.8998 53 31.7998 53C30.8998 53 30.1998 52.8 29.5998 52.3C28.9998 51.6 28.1998 51.5 27.4998 51.5C26.7998 51.5 27.2998 51.5 27.2998 51.5C27.1998 51.5 26.9998 51.6 26.9998 51.6C26.8998 51.6 26.7998 51.6 26.6998 51.7C26.0998 52.2 25.0998 52.1 24.3998 51.4C23.6998 50.9 23.0998 51 22.6998 51.1C22.4998 51.1 22.1998 51.1 22.0998 51.1C21.8998 50.6 21.7998 50.1 21.6998 49.6C21.6998 49.5 21.6998 49.4 21.5998 49.2C21.7998 49.2 21.9998 49.2 22.1998 49.2L22.3998 49.1ZM20.2998 24.9C20.2998 24.9 20.1998 24.8 20.0998 24.7C20.1998 24.7 20.2998 24.7 20.3998 24.7V24.9H20.2998ZM34.4998 53.3C34.4998 53.3 34.4998 53.3 34.4998 53.1L34.2998 52.4C33.9998 51.5 33.6998 50.6 33.3998 49.6C33.0998 48.6 32.8998 47.6 32.5998 46.6C32.2998 45.6 32.0998 44.7 31.7998 43.7C31.7998 43.7 31.7998 43.7 31.8998 43.7C31.9998 43.7 31.8998 43.7 32.0998 43.7C32.1998 43.7 32.2998 43.7 32.4998 43.7C32.8998 43.7 33.1998 43.6 33.5998 43.5C33.9998 43.5 34.2998 43.4 34.6998 43.3C36.1998 43 37.7998 42.7 39.2998 42.4C39.5998 42.4 39.8998 42.3 40.1998 42.2C40.1998 42.2 40.3998 42.2 40.4998 42.1C40.5998 42.1 40.6998 42.1 40.6998 42.1C40.6998 42.1 40.6998 42.1 40.6998 42.3C41.0998 44 41.6998 45.9 42.2998 47.8C42.4998 48.4 42.6998 49 42.9998 49.7C43.1998 50.3 43.3998 50.9 43.5998 51.5C42.8998 51.7 42.0998 51.9 41.3998 52.1C40.3998 52.4 39.3998 52.6 38.2998 52.9C37.5998 53.1 36.9998 53.2 36.1998 53.2C35.9998 53.2 35.6998 53.2 35.4998 53.2C35.1998 53.2 34.9998 53.2 34.6998 53.3C34.5998 53.3 34.4998 53.3 34.4998 53.3ZM50.1998 35.9C49.4998 36.2 48.8998 36.5 48.1998 36.9C47.5998 37.2 46.8998 37.5 46.1998 37.9C45.3998 38.3 44.4998 38.6 43.5998 38.9C43.1998 39 42.7998 39.2 42.4998 39.3C42.3998 39.3 42.2998 39.3 42.1998 39.4C42.1998 39.4 42.0998 39.4 41.9998 39.4C41.6998 38.6 41.4998 37.8 41.1998 37C40.9998 36.4 40.7998 35.7 40.5998 35L39.3998 31.4C39.4998 31.4 39.5998 31.3 39.7998 31.2C39.9998 31.1 40.0998 31.2 40.1998 31.1C42.4998 30.5 44.5998 29.4 46.4998 28.3C46.5998 28.3 46.6998 28.3 46.6998 28.2C46.6998 28.2 46.7998 28.3 46.8998 28.5C47.0998 29 47.2998 29.4 47.5998 29.9C47.9998 30.8 48.4998 31.7 48.8998 32.6C49.0998 33.1 49.3998 33.6 49.5998 34.1C49.7998 34.6 50.0998 35.2 50.2998 35.7L50.1998 35.9ZM9.8998 38.4C9.8998 38.6 9.7998 38.8 9.8998 39.1C9.6998 39.1 9.5998 38.9 9.4998 38.9C9.4998 38.9 9.4998 38.7 9.4998 38.5C9.6998 38.5 9.7998 38.5 9.9998 38.4H9.8998ZM10.3998 42.7C10.3998 42.7 10.4998 42.7 10.5998 42.7C10.5998 42.7 10.5998 42.9 10.5998 43C10.6998 43.9 10.8998 44.8 10.9998 45.7C11.0998 46.6 11.2998 47.5 11.3998 48.3C10.9998 47.8 10.5998 47.3 10.3998 46.7C10.1998 46.3 10.1998 45.8 10.0998 45.3C10.0998 44.9 9.9998 44.6 9.8998 44.2C9.7998 43.7 9.8998 43.2 10.2998 42.7H10.3998ZM17.1998 21.8C16.8998 22.5 16.4998 23.3 16.8998 24.3C16.8998 24.3 16.8998 24.3 16.8998 24.4C16.8998 24.5 16.6998 24.7 16.6998 24.8C16.4998 24.6 16.2998 24.5 16.1998 24.3C15.9998 24.1 15.7998 24 15.6998 24C15.6998 24 15.7998 23.7 15.8998 23.4V23C16.1998 22.5 16.2998 22 16.5998 21.5H16.6998C16.6998 21.5 16.8998 21.5 16.8998 21.6C17.0998 21.6 17.0998 21.7 17.0998 21.7L17.1998 21.8ZM55.5998 45.1C55.3998 44.6 55.1998 44 55.0998 43.4C54.8998 42.8 54.6998 42.2 54.4998 41.7C54.1998 40.9 53.8998 40.1 53.4998 39.2C53.1998 38.4 52.8998 37.6 52.5998 36.9C52.9998 36.6 53.3998 36.3 53.8998 36.1C54.3998 35.8 54.8998 35.5 55.3998 35.2C55.5998 35 55.8998 34.9 56.0998 34.7C56.0998 34.9 55.9998 35.1 55.9998 35.3C55.7998 36.4 56.2998 37.4 56.6998 38.2C57.0998 39.2 57.3998 40.2 57.6998 41.4C57.8998 42.3 58.2998 43.5 59.3998 44.4C58.7998 44.7 58.2998 45 57.6998 45.4C57.1998 45.7 56.5998 46 56.0998 46.3C56.0998 46.3 56.0998 46.3 55.9998 46.3C55.9998 46.3 55.9998 46.3 55.9998 46.1C55.9998 45.9 55.8998 45.7 55.7998 45.4C55.7998 45.3 55.7998 45.1 55.6998 44.9L55.5998 45.1ZM22.1998 31.8C21.9998 31.8 21.8998 31.8 21.8998 31.5C21.8998 31.2 21.8998 31.2 21.8998 31.1C22.0998 31.3 22.2998 31.4 22.3998 31.4C22.6998 31.4 23.0998 31.4 23.2998 31.1C23.9998 30.6 24.6998 30 25.2998 29.3C25.5998 29 25.6998 28.6 25.5998 28.3C25.5998 27.9 25.1998 27.6 24.5998 27.4C24.1998 27.4 23.8998 27 23.8998 26.7C23.8998 26.4 23.8998 26.7 23.8998 26.6C24.0998 26.5 24.1998 26.4 24.3998 26.3C24.5998 26.2 24.7998 26 25.0998 25.9C24.9998 26.3 24.9998 26.6 24.9998 26.9C24.9998 27.5 25.2998 27.8 25.4998 27.9C25.7998 28.1 26.1998 28.1 26.5998 27.9C26.9998 27.9 27.1998 27.6 27.3998 27.4C27.3998 27.4 27.4998 27.3 27.5998 27.2C27.7998 28.7 27.8998 30.3 27.9998 31.8H22.0998H22.1998ZM21.5998 20.2C21.5998 20.3 21.5998 20.5 21.4998 20.6C21.4998 20.2 21.2998 19.9 21.0998 19.6C21.3998 19.6 21.5998 19.6 21.8998 19.6C21.7998 19.7 21.6998 19.9 21.5998 20V20.2ZM45.0998 59.7C44.7998 59.7 44.3998 59.7 44.0998 59.7C43.5998 59.7 43.0998 59.5 42.5998 59.3C42.3998 59.3 42.1998 59.1 42.0998 59.1C42.0998 58.3 41.4998 57.9 41.0998 57.5C40.9998 57.4 40.7998 57.2 40.6998 57.1C40.5998 56.9 40.3998 56.8 40.2998 56.6C40.0998 56.4 39.9998 56.2 39.8998 56C39.4998 55.2 38.9998 54.7 38.2998 54.3C39.0998 54.2 39.8998 54 40.6998 53.8C40.9998 53.8 41.1998 53.7 41.4998 53.6C41.8998 53.5 42.3998 53.3 42.8998 53.2C43.3998 53.1 43.8998 52.9 44.2998 52.8C44.2998 52.8 44.2998 52.8 44.2998 52.9C44.2998 53.3 44.4998 53.7 44.5998 54.1C44.6998 54.5 44.7998 55 44.8998 55.4L45.0998 56.2C45.3998 57.3 45.7998 58.4 46.1998 59.5C45.7998 59.5 45.4998 59.5 45.0998 59.6V59.7ZM45.0998 18.4C45.1998 18.6 45.3998 18.8 45.4998 19C45.1998 19.4 44.8998 19.9 45.1998 20.7C45.1998 20.7 45.1998 20.8 45.2998 20.9L45.5998 21.2C45.5998 21.2 45.7998 21.3 45.9998 21.3C46.1998 21.3 46.1998 21.3 46.3998 21.6L46.4998 21.8C46.6998 22.3 47.3998 22.3 47.6998 22.3C47.9998 22.3 47.8998 22.3 47.8998 22.3C48.0998 22.3 48.3998 22 48.4998 21.7C48.7998 22.1 49.1998 22.1 49.3998 22.1C49.5998 22.1 49.7998 22.1 50.0998 21.8C50.3998 22.4 51.5998 22.2 52.0998 22C52.0998 22 52.0998 22 52.1998 22C51.7998 23.2 51.1998 23.9 50.2998 24.4C49.7998 24.7 49.2998 25 48.8998 25.2C48.3998 25.5 47.8998 25.8 47.4998 26C47.4998 26 47.2998 26 47.1998 26.1C47.1998 26.1 47.1998 26 46.9998 25.9C45.9998 24.3 44.9998 22.7 44.0998 21.3C43.7998 20.8 43.4998 20.4 43.0998 19.9C42.7998 19.5 42.4998 19 42.0998 18.5C42.7998 18.1 43.4998 17.7 44.0998 17.2C44.0998 17.4 44.0998 17.5 44.2998 17.7C44.4998 18 44.5998 18.2 44.7998 18.5L45.0998 18.4ZM43.9998 24C44.5998 25 45.1998 26 45.7998 26.9C43.6998 28 41.2998 29.2 38.7998 29.9C38.4998 28.7 38.0998 27.5 37.6998 26.4C37.2998 25.2 36.9998 24.1 36.5998 22.8C36.3998 22.4 36.2998 22 36.0998 21.5L36.1998 21.4L40.4998 19.6C40.6998 19.5 40.6998 19.6 40.6998 19.6C40.6998 19.6 40.6998 19.6 40.8998 19.8C41.0998 20.2 41.2998 20.5 41.4998 20.8C41.5998 21 41.7998 21.2 41.8998 21.4C42.1998 21.9 42.5998 22.4 42.8998 22.9C43.1998 23.4 43.5998 23.9 43.8998 24.4L43.9998 24ZM34.9998 24.3C35.1998 25.1 35.4998 25.9 35.6998 26.7C36.0998 27.8 36.4998 29 36.8998 30.2C36.8998 30.2 36.8998 30.2 36.7998 30.2C35.0998 30.8 33.3998 31 31.5998 31.3C30.9998 31.3 30.4998 31.5 29.8998 31.5C29.8998 30.7 29.7998 30 29.6998 29.2C29.6998 28.4 29.5998 27.7 29.4998 26.9C29.4998 26.9 29.4998 26.7 29.5998 26.5C29.5998 26.4 29.6998 26.3 29.6998 26.2C29.6998 26.2 29.6998 26 29.7998 25.9C29.7998 25.7 29.9998 25.4 29.9998 25.2C30.0998 24.6 29.7998 24.1 29.1998 23.8C28.6998 23.6 28.6998 23.3 28.7998 23C28.7998 22.8 28.8998 22.7 29.3998 22.7C29.6998 22.7 29.8998 22.7 30.1998 22.6C31.4998 22.4 32.7998 22.3 33.9998 21.8H34.1998C34.3998 22.6 34.6998 23.4 34.8998 24.1L34.9998 24.3ZM28.9998 21.1V20.9C29.0998 20.9 29.1998 21 29.2998 21.1H28.9998ZM14.8998 20.7C14.8998 20.7 14.8998 20.7 14.8998 20.6V20.7C14.7998 21.1 14.5998 21.5 14.3998 21.9C14.1998 22.3 14.0998 22.6 13.9998 23C13.8998 22.8 13.7998 22.6 13.6998 22.4C13.6998 22.3 13.6998 22.2 13.7998 22.1C13.7998 21.9 13.9998 21.7 14.0998 21.5C14.1998 21.3 14.3998 21.1 14.4998 20.9C14.4998 20.8 14.6998 20.7 14.7998 20.5L14.8998 20.7ZM48.0998 59.4C47.8998 58.7 47.6998 58.1 47.3998 57.4C47.0998 56.7 46.9998 56.1 46.7998 55.4C46.7998 55.2 46.7998 54.9 46.7998 54.7C46.7998 54.5 46.7998 54.6 46.7998 54.5C46.5998 53.9 46.3998 53.3 46.1998 52.8C46.1998 52.8 46.1998 52.6 46.0998 52.5C46.0998 52.5 46.1998 52.5 46.2998 52.4L49.1998 51.4C50.2998 51 51.3998 50.6 52.4998 50.2C52.9998 50 53.4998 49.8 53.8998 49.6C54.1998 49.5 54.3998 49.3 54.6998 49.2C54.7998 49.9 54.9998 50.5 55.0998 51.2C55.1998 51.9 55.3998 52.5 55.5998 53.3C55.5998 53.7 55.7998 54.1 55.8998 54.5C55.9998 54.9 56.0998 55.4 56.1998 55.8C56.1998 55.8 56.1998 55.8 56.1998 55.9C56.1998 56 56.2998 56.3 56.2998 56.5C55.3998 56.9 54.3998 57.3 53.4998 57.7C52.5998 58.1 51.5998 58.5 50.6998 58.9C50.2998 59 49.8998 59.2 49.5998 59.3C49.2998 59.4 48.7998 59.6 48.4998 59.7C48.2998 59.7 48.2998 59.7 48.1998 59.5L48.0998 59.4ZM57.8998 19.7C57.9998 19.9 58.2998 20.1 58.4998 20.2C58.8998 20.4 59.2998 20.4 59.5998 20.4C59.6998 20.4 59.7998 20.4 59.8998 20.4C60.1998 20.4 60.3998 20.3 60.5998 20.2C60.7998 20.4 60.8998 20.5 60.9998 20.7C60.9998 20.7 60.9998 20.9 60.9998 21C60.8998 21.3 60.7998 21.6 60.6998 21.9C60.6998 21.9 60.6998 22.1 60.5998 22.2C60.3998 22.3 60.2998 22.5 60.0998 22.6C59.8998 22.8 59.6998 23 59.4998 23.1C59.1998 23.3 58.5998 23.8 58.3998 24.3C58.1998 24.6 58.1998 24.6 57.9998 24.6C57.9998 24.6 57.9998 24.4 57.9998 24.3C57.9998 24.1 57.9998 23.9 57.9998 23.8C57.9998 23.6 57.9998 23.4 57.9998 23.2C58.0998 22.5 57.6998 21.8 56.9998 21.3C56.9998 21.3 56.7998 21.3 56.7998 21.2C56.7998 21.1 56.9998 20.9 57.0998 20.9C57.3998 20.6 57.5998 20.2 57.8998 19.9V19.7ZM35.5998 17.7C35.8998 17.9 36.0998 17.9 36.2998 18H36.4998C37.1998 18.3 37.7998 18.2 38.0998 18C38.5998 17.8 38.9998 17.3 39.0998 16.7C39.1998 16.9 39.3998 17.2 39.4998 17.4C39.5998 17.6 39.6998 17.8 39.7998 17.9L36.6998 19.3C36.4998 19.3 36.2998 19.5 36.0998 19.5C35.8998 19.5 35.6998 19.6 35.4998 19.8C35.1998 18.9 34.8998 18.1 34.5998 17.3C34.5998 17.3 34.5998 17.2 34.5998 17.1C34.5998 17.5 35.0998 17.7 35.4998 17.9L35.5998 17.7ZM33.6998 20.2C33.3998 20.2 33.0998 20.3 32.7998 20.4C32.7998 20.2 32.7998 20.1 32.7998 19.9C32.7998 19.3 32.8998 19 33.2998 18.7C33.2998 19 33.4998 19.2 33.4998 19.4C33.4998 19.6 33.6998 19.9 33.6998 20.1V20.2ZM57.1998 51.8C56.8998 50.6 56.6998 49.5 56.3998 48.3C57.9998 47.3 59.5998 46.3 61.2998 45.4C61.3998 45.4 61.6998 45.4 61.7998 45.4C62.4998 45.8 63.1998 46.2 64.1998 46C64.3998 46 64.3998 46 64.4998 46C64.4998 46 64.4998 46.1 64.5998 46.4C64.5998 47 64.7998 47.6 64.8998 48.2C64.9998 48.8 65.0998 49.5 65.1998 50V50.5C65.1998 50.5 65.1998 50.7 65.2998 50.8C65.2998 50.8 65.1998 50.9 64.9998 51C64.2998 51.4 63.6998 51.8 63.0998 52.3C62.4998 52.7 61.8998 53.1 61.1998 53.5C59.9998 54.2 59.0998 54.8 57.9998 55.4C57.7998 54.2 57.4998 53.1 57.1998 51.9V51.8ZM66.9998 49.5C66.9998 49.1 66.7998 48.7 66.7998 48.4V48.2C66.6998 47.6 66.5998 46.8 66.3998 46.1C66.6998 46.1 66.9998 46 67.1998 45.9C67.1998 45.9 67.2998 45.9 67.3998 45.9C67.5998 45.9 67.6998 45.7 67.8998 45.6C68.0998 45.6 68.1998 45.4 68.3998 45.4C68.3998 45.4 68.3998 45.4 68.4998 45.4C69.0998 45.1 69.2998 44.8 69.2998 44.2C69.2998 43.6 69.4998 43.4 69.8998 43.2C70.2998 43 70.7998 42.7 70.9998 42.1L71.3998 45.3V45.5C71.0998 45.8 70.7998 46.1 70.4998 46.4C69.3998 47.6 68.2998 48.8 66.9998 49.8V49.5ZM41.2998 8.2C41.2998 8.2 40.9998 8.3 40.6998 8.2C40.4998 8.2 40.3998 8.1 40.1998 8C40.1998 8 40.1998 8 40.0998 8C40.5998 8 40.9998 8.1 41.4998 8.3C41.4998 8.3 41.4998 8.3 41.3998 8.3L41.2998 8.2ZM24.2998 14.5L24.4998 14.6C24.4998 14.6 24.6998 14.8 24.8998 14.8C25.0998 14.8 25.0998 14.9 25.0998 14.9C25.0998 14.9 25.0998 15 25.0998 15.4V16.5C25.0998 16.5 25.0998 16.6 25.0998 16.7C25.1998 17.1 25.4998 17.6 25.8998 17.7C26.1998 17.9 26.3998 18.1 26.4998 18.7V18.9C26.4998 19.1 26.5998 19.4 26.7998 19.6C27.0998 20.1 27.0998 20.5 27.0998 21.2V21.4C26.0998 21.2 24.9998 21 24.1998 20.3C24.0998 20.3 23.9998 20.1 23.8998 20C23.7998 19.9 23.5998 19.7 23.4998 19.6C23.6998 19.4 23.6998 19.1 23.6998 18.8C23.6998 18.5 23.6998 18.7 23.6998 18.6C23.6998 18.6 23.6998 18.4 23.5998 18.3C23.5998 18.1 23.3998 17.9 23.3998 17.7V17.3C23.5998 16.6 23.3998 15.9 22.9998 15.5C23.0998 15.4 23.1998 15.2 23.2998 15.1C23.2998 15 23.3998 14.9 23.4998 14.8C23.7998 14.4 23.7998 14.4 24.1998 14.7L24.2998 14.5ZM21.5998 14.6C21.5998 14.6 21.4998 14.6 21.3998 14.6C21.6998 14.3 21.8998 14.1 22.1998 13.8C22.3998 13.6 22.5998 13.4 22.7998 13.2C22.4998 13.7 22.0998 14.1 21.7998 14.6H21.5998ZM20.2998 13.2C20.2998 13.2 20.1998 13.2 20.0998 13.3C20.0998 13.3 19.8998 13.1 19.8998 13C19.8998 13 19.9998 12.9 20.0998 12.8C20.0998 12.8 20.1998 12.9 20.2998 13V13.2ZM36.7998 70.4V70.7C36.6998 70.7 36.5998 70.7 36.5998 70.7L36.7998 70.4ZM38.0998 9.4C38.5998 9.6 39.2998 9.6 39.7998 9.6C39.9998 9.6 40.1998 9.8 40.3998 9.8C40.9998 10 41.5998 10.5 42.0998 11.1C42.5998 11.6 43.2998 12.2 43.8998 12.6C44.3998 12.9 44.5998 13.4 44.7998 14C44.7998 14 44.7998 14.2 44.8998 14.3C44.8998 14.4 44.8998 14.5 44.6998 14.6C43.9998 15.1 43.2998 15.5 42.5998 16C42.0998 16.3 41.6998 16.6 41.1998 16.9C40.4998 15.9 39.6998 14.8 38.9998 13.9L38.7998 13.6C38.3998 13.1 38.0998 12.7 37.6998 12.3C37.3998 11.9 36.9998 11.5 36.6998 11.1C36.4998 10.8 36.5998 10.8 36.6998 10.7C36.8998 10.6 37.1998 10.5 37.3998 10.2C37.4998 10.1 37.5998 9.9 37.6998 9.8C37.8998 9.6 37.8998 9.5 37.9998 9.5L38.0998 9.4ZM36.6998 13.7C36.4998 14 36.3998 14.3 36.1998 14.5L35.5998 15.1C35.5998 14.9 35.7998 14.7 35.7998 14.6C36.2998 13.7 35.7998 13 35.5998 12.8C35.5998 12.7 35.4998 12.6 35.3998 12.5C35.3998 12.5 35.3998 12.5 35.3998 12.4C35.8998 12.9 36.1998 13.3 36.5998 13.8L36.6998 13.7ZM13.7998 61.4C13.9998 61.4 14.1998 61.6 14.3998 61.7C14.8998 61.9 15.2998 62.1 15.7998 62.2H15.9998C16.1998 62.3 16.3998 62.4 16.5998 62.4C17.4998 62.6 18.0998 63.2 18.5998 64.3C18.8998 64.8 19.1998 65.2 19.4998 65.6C19.4998 65.7 19.6998 65.8 19.7998 65.9C20.0998 66.2 20.2998 66.5 20.5998 66.8C20.8998 67.1 21.0998 67.4 21.3998 67.7C21.4998 67.8 21.5998 67.9 21.6998 68C21.0998 67.8 20.5998 67.7 19.9998 67.5C18.4998 67.2 17.6998 66.1 16.7998 65L14.9998 62.9C14.6998 62.5 14.2998 62 13.9998 61.5C13.9998 61.5 13.8998 61.3 13.7998 61.3V61.4ZM58.3998 57.2L62.5998 54.8C63.4998 54.3 64.2998 53.7 65.0998 53.2C65.1998 53.2 65.2998 53.1 65.3998 53C65.3998 53.1 65.3998 53.2 65.3998 53.3V58.8C65.3998 59.4 65.1998 59.6 64.3998 60C63.4998 60.5 62.4998 61.1 61.4998 61.6C60.5998 62.1 59.7998 62.5 58.8998 63L58.2998 58.2C58.2998 58 58.2998 57.6 58.2998 57.4C58.2998 57.2 58.2998 57.3 58.2998 57.2H58.3998ZM68.7998 56.7C68.2998 57.1 67.8998 57.5 67.3998 57.9V54.2C67.3998 53.8 67.3998 53.5 67.2998 53.1C67.2998 52.8 67.2998 52.5 67.2998 52.2C67.2998 51.6 67.4998 51.4 67.5998 51.3C68.5998 50.6 69.4998 49.8 70.4998 48.9C70.7998 48.6 71.1998 48.2 71.4998 47.8C71.4998 47.8 71.5998 47.6 71.6998 47.6C71.6998 48.3 71.6998 49.1 71.6998 49.8C71.5998 51.1 71.5998 52.3 71.5998 53.6C71.5998 54.9 71.3998 54.6 70.8998 55.1C70.2998 55.6 69.6998 56.2 69.0998 56.7H68.7998ZM72.7998 39C72.7998 38.8 72.8998 38.6 72.9998 38.3C73.4998 38.1 73.9998 37.9 74.3998 37.6C75.0998 39 75.0998 39.9 74.3998 40.9L73.0998 42.8C73.0998 42.7 73.0998 42.6 73.0998 42.5C72.8998 41.6 72.7998 40.8 72.6998 39.9C72.6998 39.6 72.6998 39.3 72.8998 39H72.7998ZM66.6998 18.6C66.6998 18.6 66.1998 19.1 66.1998 19.5C66.1998 19.6 66.1998 19.6 65.7998 19.7C65.6998 19.7 65.5998 19.7 65.3998 19.7C65.1998 19.7 64.8998 19.9 64.6998 19.9C64.4998 19.9 64.1998 20 63.9998 20.1H63.7998C63.4998 19.9 63.2998 19.8 62.9998 19.6H62.8998C63.1998 19.3 63.2998 18.7 63.2998 18.3C63.2998 17.8 62.9998 17.3 62.8998 16.8C62.8998 16.6 62.7998 16.5 62.6998 16.3C62.6998 16.1 62.5998 15.9 62.4998 15.8C63.1998 16.3 63.9998 16.4 64.4998 16.5C64.7998 16.5 64.8998 16.7 64.9998 16.8C65.4998 17.2 65.9998 17.7 66.4998 18.2C66.6998 18.4 66.6998 18.4 66.4998 18.5L66.6998 18.6ZM59.3998 64.7L64.4998 62C64.6998 61.9 64.7998 61.8 64.9998 61.7C64.9998 61.7 65.0998 61.7 65.1998 61.6C64.9998 62.6 64.8998 63.6 64.6998 64.5V64.7C64.4998 65.9 64.0998 66.8 62.9998 67.2C62.0998 67.6 61.1998 68 60.3998 68.5C60.0998 68.7 59.7998 68.9 59.3998 69C59.3998 68.2 59.2998 67.5 59.2998 66.9C59.2998 66.6 59.2998 66.3 59.2998 66C59.2998 65.7 59.2998 65.4 59.1998 65C59.1998 64.9 59.1998 64.8 59.4998 64.6L59.3998 64.7ZM75.4998 49.5C75.4998 49.9 75.2998 50.2 75.1998 50.4C74.7998 50.8 74.3998 51.3 73.9998 51.7C73.7998 51.9 73.5998 52.1 73.3998 52.3V46.2C73.3998 45.8 73.3998 45.5 73.5998 45.2C73.7998 44.9 73.9998 44.6 74.2998 44.2C74.4998 44.6 74.6998 44.9 75.0998 45.2C75.5998 45.6 75.7998 46.2 75.6998 47.1C75.5998 47.6 75.5998 48.2 75.4998 48.7C75.4998 49 75.4998 49.3 75.4998 49.6V49.5ZM59.5998 8.2C59.5998 8.2 59.5998 8.4 59.5998 8.5V8.2ZM43.1998 6.8C42.1998 6.5 41.1998 6.2 40.2998 6.1C40.4998 6.1 40.6998 6.1 40.8998 6.1H41.5998C42.3998 6 42.6998 6.1 42.8998 6.4C42.8998 6.6 43.0998 6.7 43.2998 6.8H43.1998ZM25.6998 5.8C25.4998 6 25.1998 6.1 24.9998 6.3H24.6998C24.1998 6.3 23.7998 6.3 23.2998 6.2C23.8998 5.9 24.4998 5.6 25.1998 5.7C25.4998 5.7 25.6998 5.7 25.9998 5.8C25.9998 5.8 25.8998 5.8 25.7998 5.9L25.6998 5.8ZM20.2998 9.7C19.9998 9.9 19.6998 10.2 19.4998 10.7C19.4998 11 19.2998 11.2 19.0998 11.3L16.6998 13.3C16.7998 13 16.7998 12.6 16.7998 12.4C16.7998 12.2 16.7998 12.2 16.7998 12.2C16.7998 12.2 16.7998 12.2 16.7998 12C16.6998 11.7 16.4998 11.3 16.0998 11.2C16.0998 11.2 16.2998 11.1 16.3998 11C17.2998 10.4 18.4998 10.1 19.6998 9.9C19.8998 9.9 20.1998 9.8 20.3998 9.7H20.2998ZM5.5998 24.5C5.6998 24.9 5.7998 25.2 5.5998 25.6C5.2998 26.4 5.1998 27.2 4.9998 28C4.9998 28.3 4.9998 28.5 4.8998 28.7C4.8998 28.9 4.6998 29.2 4.5998 29.4C4.4998 29.7 4.2998 30.1 4.2998 30.4L3.5998 33.1C3.4998 32.8 3.3998 32.4 3.3998 32.1C3.5998 30.2 4.1998 28.4 4.8998 26.6V26.3C5.1998 25.9 5.2998 25.6 5.3998 25.3C5.3998 25.1 5.4998 24.9 5.5998 24.7V24.5ZM6.3998 51.2C6.8998 52.8 7.3998 54.4 8.0998 55.9L7.0998 54.9C6.8998 54.7 6.6998 54.5 6.5998 54.3C6.3998 54.1 6.1998 53.9 5.9998 53.7C5.7998 53.5 5.6998 53.4 5.5998 53.2C5.3998 52.8 5.1998 52.4 5.0998 51.9C4.6998 51 4.2998 50.1 3.9998 49.2C3.8998 48.7 3.6998 48.2 3.5998 47.7C3.5998 47.5 3.5998 47.3 3.4998 47.1C3.8998 47.6 4.3998 48.1 4.8998 48.7H4.9998C4.9998 48.8 4.9998 48.9 4.9998 48.9C5.7998 49.4 6.0998 50.1 6.3998 51.2ZM8.0998 58.4C8.3998 58.6 8.5998 58.8 8.8998 59C9.0998 59.2 9.3998 59.3 9.5998 59.5C9.7998 59.7 9.9998 59.8 10.0998 60C10.3998 60.2 10.5998 60.4 10.7998 60.7C11.1998 61.2 11.5998 61.8 11.9998 62.4C12.3998 63 12.7998 63.6 13.2998 64.2C13.6998 64.7 14.0998 65.1 14.3998 65.6C14.0998 65.5 13.8998 65.3 13.5998 65.2C12.5998 64.7 11.9998 64.1 11.3998 63.4C9.9998 61.8 8.8998 60.4 8.0998 58.7C7.2998 57 8.0998 58.5 7.9998 58.4H8.0998ZM17.8998 68.9C18.1998 69.1 18.4998 69.4 18.7998 69.7C18.1998 69.3 17.5998 68.9 16.9998 68.5C17.2998 68.6 17.5998 68.7 17.7998 68.9H17.8998ZM22.9998 70.3C23.5998 70.3 23.8998 70.6 24.2998 71C24.7998 71.5 25.2998 71.9 25.7998 72.3C26.0998 72.5 26.3998 72.8 26.5998 73C26.7998 73.2 26.8998 73.3 27.0998 73.5C26.4998 73.3 25.9998 73.2 25.3998 73C24.2998 72.6 23.4998 71.9 22.5998 71.1C22.1998 70.8 21.7998 70.4 21.3998 70.1C21.8998 70.3 22.4998 70.4 22.9998 70.4V70.3ZM29.2998 73C29.0998 72.9 28.8998 72.7 28.7998 72.6C28.2998 72.1 27.8998 71.7 27.3998 71.3C27.1998 71.1 26.9998 70.9 26.6998 70.7C27.2998 70.7 27.8998 70.8 28.4998 71C29.2998 71.2 29.9998 71.2 30.6998 71C31.0998 70.9 31.1998 70.9 31.5998 71.4C31.9998 71.9 32.2998 72.4 32.5998 72.9C32.8998 73.4 33.1998 73.9 33.5998 74.4H31.8998C31.2998 74.4 30.8998 74.3 30.3998 73.8C30.0998 73.5 29.7998 73.2 29.4998 73H29.2998ZM34.8998 76.1C35.1998 76.1 35.2998 76.1 35.4998 76.3C34.9998 76.3 34.5998 76.1 34.0998 76H34.7998L34.8998 76.1ZM51.3998 70C51.2998 69.7 51.1998 69.5 51.0998 69.2C51.0998 69.1 50.9998 68.9 50.8998 68.8C50.8998 68.6 50.6998 68.5 50.6998 68.2C50.6998 68.2 50.7998 68.2 50.8998 68.2C53.0998 67.7 55.2998 66.8 57.3998 65.9C57.3998 66.9 57.5998 67.9 57.5998 68.9C57.5998 69 57.4998 69.1 57.5998 69.3C57.5998 69.8 57.5998 69.9 56.9998 70.2L52.4998 72H52.3998C52.3998 72 52.2998 72.1 52.1998 72.1C52.1998 72.1 52.1998 71.9 52.1998 71.7C52.0998 71.1 51.7998 70.6 51.5998 70H51.3998ZM59.3998 72.3C59.3998 72 59.3998 71.7 59.3998 71.5C59.3998 71.2 59.5998 71 59.6998 71C60.3998 70.7 61.0998 70.3 61.7998 70C62.0998 69.8 62.4998 69.7 62.7998 69.5C61.8998 70.9 60.5998 71.8 59.1998 72.5C59.1998 72.5 59.1998 72.4 59.1998 72.3H59.3998ZM65.4998 68.3C65.6998 68.1 65.8998 67.9 66.0998 67.7C66.1998 67.7 66.2998 67.5 66.3998 67.4C66.3998 67.4 66.5998 67.3 66.6998 67.2C66.8998 67.1 67.0998 67 67.1998 66.8C67.1998 66.8 67.2998 66.7 67.3998 66.6C66.7998 67.2 66.0998 67.8 65.3998 68.3H65.4998ZM33.7998 2.9C33.8998 2.9 33.9998 2.9 34.0998 2.9C33.7998 3.2 33.4998 3.5 33.0998 3.7C33.0998 3.7 32.7998 3.8 32.5998 3.8C32.5998 3.8 32.5998 3.6 32.5998 3.5C32.6998 3.3 33.0998 3.1 33.6998 2.9H33.7998ZM33.7998 5.3C34.8998 5.5 35.8998 5.6 36.5998 6.4C36.8998 6.8 36.9998 7.4 36.6998 7.9C36.1998 9 35.2998 9.6 34.2998 10.3C33.9998 10.5 33.7998 10.7 33.4998 10.9C32.5998 11.5 31.5998 11.8 30.4998 12H29.9998C28.4998 12.5 26.9998 12.4 25.6998 12C25.0998 11.8 24.6998 11.3 24.4998 10.8C24.2998 10.3 24.4998 9.7 24.8998 9.2C25.6998 8 26.8998 7.1 28.5998 6.4C28.6998 6.4 28.7998 6.4 28.7998 6.3C28.7998 6.3 28.7998 6.5 28.8998 6.7L29.4998 8.8C29.4998 9.1 29.7998 9.8 30.6998 9.6C31.0998 9.5 31.4998 9 31.2998 8.1C31.1998 7.8 30.9998 7.4 30.8998 7C30.7998 6.6 30.5998 6.2 30.4998 5.9V5.7C30.4998 5.7 30.4998 5.7 30.5998 5.7C31.4998 5.6 32.3998 5.5 33.2998 5.5C34.1998 5.5 33.3998 5.5 33.4998 5.5L33.7998 5.3ZM7.9998 20.1C7.9998 20.7 7.7998 21.3 7.2998 21.8C7.1998 21.9 7.0998 22 6.9998 22.1C6.9998 21.9 6.9998 21.8 7.1998 21.6C7.3998 21.3 7.4998 21 7.6998 20.8C7.7998 20.6 7.8998 20.3 8.0998 20.1H7.9998ZM47.4998 72.8C47.8998 72.8 48.0998 72.3 48.1998 72.1V72C48.3998 71.7 48.5998 71.4 48.6998 71.3C48.8998 71.1 49.1998 71 49.3998 70.9C49.3998 70.9 49.5998 70.9 49.6998 70.8C49.6998 71 49.6998 71.1 49.7998 71.3C49.8998 71.7 49.9998 72.1 50.1998 72.5C50.1998 72.7 50.1998 72.8 50.1998 72.8C50.1998 72.8 50.1998 72.8 49.9998 72.8C48.7998 73.1 47.6998 73.3 46.5998 73.6C46.7998 73.3 46.9998 73.1 47.2998 73L47.4998 72.8ZM72.6998 57.8C72.6998 57.4 72.7998 57 72.8998 56.6V55.4C72.9998 55.3 73.1998 55 73.2998 54.8C73.7998 54.2 74.3998 53.5 74.9998 52.9C74.9998 53.2 74.8998 53.4 74.7998 53.7L74.5998 54.6C74.3998 55.2 74.1998 55.8 74.0998 56.5C73.8998 57.4 73.4998 58 72.8998 58.7C72.6998 58.9 72.4998 59.1 72.3998 59.3C72.4998 58.8 72.5998 58.3 72.6998 57.7V57.8ZM30.8998 3.3C30.7998 3.7 30.6998 3.8 30.3998 3.9C30.3998 3.9 30.3998 3.9 30.2998 3.9C30.2998 3.9 30.2998 3.7 30.1998 3.5C30.3998 3.5 30.6998 3.4 30.8998 3.3ZM47.7998 75L48.5998 74.8C48.9998 74.8 49.3998 74.6 49.7998 74.5C50.1998 74.4 50.6998 74.3 51.0998 74.2C51.0998 74.3 51.0998 74.5 51.1998 74.7C51.1998 74.9 51.2998 75.1 51.3998 75.2V75.4C51.3998 75.4 51.2998 75.4 51.1998 75.4C50.0998 75.7 49.0998 75.9 47.9998 76C47.7998 76 47.5998 75.8 47.3998 75.7C47.1998 75.5 46.9998 75.3 46.7998 75.1C47.0998 75.1 47.3998 75 47.5998 74.9L47.7998 75Z" />
</svg>
