<svg width="1500" height="1485" viewBox="0 0 1500 1485" fill="none" xmlns="http://www.w3.org/2000/svg">
<g clip-path="url(#clip0_167_251)">
<path d="M1418.4 534.3C1426 521.4 1435.6 508.1 1444.5 494.5L1466 461.8C1473.1 450.9 1483.2 433.3 1487.2 411.7C1492.1 387.6 1496.6 361.7 1499 334.4C1500.7 310.5 1500 278.1 1485.7 245.3C1476.7 224.6 1467.3 202 1457.1 175.8C1445 144.4 1425.7 115.4 1398.2 87.2997C1385.6 74.3997 1372 62.9997 1360.5 53.1997C1354.9 48.6997 1349.6 43.6997 1344 39.1997C1338.2 33.7997 1331.5 28.5997 1325 24.2997C1302.1 9.29967 1276.3 0.99967 1248.8 -0.000330497C1215.7 -0.70033 1185.1 11.2997 1163.6 34.5997C1158.6 39.8997 1147.1 52.5997 1140.9 70.3997C1137.3 71.0997 1133.1 71.4997 1129.8 71.7997C1118.4 73.6997 1107.6 75.9997 1097.6 77.9997C1088.6 79.8997 1080.4 81.5997 1072.6 82.6997C1037.2 89.0997 1006.7 103.4 982.7 125.8C959.3 147.2 940.8 164.6 924.7 182.1C910 197.4 894.6 213.8 882.9 235C865.6 265 843.8 312.4 856.7 370C857.1 371.8 857.1 376.5 857.4 379.8C858 414.5 864.6 450.8 877.4 487.3C882 500.5 888.2 512.4 895.2 523.2C888.9 529.2 881 536.5 874 546C865.1 553.5 859.3 561.3 853.9 567.1C852.5 569.3 849.7 572.1 848.5 572.9C842.9 577.8 833.9 586.8 825.5 598.4C824.1 600.6 821.6 602 820.1 604.2L818 607.5C811.7 613.5 802.9 621 794.5 632.6L782.8 644.4L782.1 645.5C777.6 648.7 770 655.5 763.2 665.9L761.1 669.2C757.2 672.8 752.6 676.1 748.3 680.3C747.2 682 745.1 682.8 744 684.5C740.9 680.9 737.2 676.9 732.7 673.1C727.7 668.9 723.6 665.6 719.8 663.1L718.1 662C713.2 656.4 708.5 651.7 705.3 648.1L702.5 646.3C699.4 642.7 693.9 636.7 686.7 631.2L663.3 615.8C634.4 596.8 597.8 597.8 570.3 619.5L567.8 621C560 626.8 550.7 633.9 541 644C531.3 654 526 664.5 522.5 670.9L520.7 673.7C518.9 676.5 517.5 678.6 516.8 682C508 687.1 500.4 693.8 494.1 702.3L489.8 708.8C484.2 713.7 478.8 719.5 474.5 726L472.4 729.3C471.3 731 470 731.7 468.5 732.9C459.9 741.3 453.9 751.4 449.9 761.2C443.1 766.9 437.1 774.7 432.7 782.7C429.5 787.6 427.6 794.2 426.3 799.6L421.6 806.7C414.8 817.1 398.8 840.1 392 850.5C385.9 855.1 381.2 859.8 378.5 862.7L371.4 869.8L365.4 881.4C364 883.6 361.8 886.8 360.8 890.8C358.7 894.1 358.2 898.4 357.1 902.4C356 904.1 354 905.9 352.9 907.4L344 921C332.5 929 323.3 939.4 316.4 951.2C308.6 957 301.3 964.7 294.5 975.1L288.1 984.9C278.2 991.7 268 1001.4 259 1015C250.1 1028.6 252.5 1026.3 249.9 1032.5C249.2 1033.6 247.7 1033.5 247 1034.5C234 1042.4 224 1052.9 217.6 1065.1C202.1 1074.4 190.8 1088.1 183.6 1103.7C173.2 1112.4 161 1126.3 153.9 1146.6C151.6 1153.7 149.6 1160.2 149.2 1166.9L123.1 1163.8C111 1162.1 99.2001 1162.1 87.3001 1166C68.7001 1171.7 54.1001 1183.2 43.9001 1197.6C37.8001 1202.2 33.5001 1206.3 31.7001 1209.1C17.0001 1224.4 6.0001 1244.5 1.3001 1267.2C-2.5999 1287.3 1.3001 1303.9 3.2001 1313L3.6001 1314.8C6.6001 1329.2 13.6001 1342.4 23.0001 1354.1C26.8001 1359 30.5001 1363 33.6001 1366.6C35.3001 1367.7 36.1001 1369.8 37.8001 1370.9C44.3001 1386 53.3001 1395.9 58.6001 1401C62.6001 1409.1 68.1001 1417.4 74.8001 1424.9C76.5001 1426 77.3001 1428.1 79.1001 1430.1C81.6001 1433.3 84.2001 1436.6 86.7001 1439.8C90.3001 1443.7 97.8001 1452.6 108.8 1459.8C119.8 1467 111 1461.2 112.1 1461.9C128.3 1471.7 145.8 1477 164.9 1477.8C166.4 1477.9 167.8 1478.1 169.8 1478.7C173.3 1479.4 176.5 1479.2 179.9 1479.8C183.8 1479.9 186.6 1480.3 190.4 1480.4C191.9 1480.5 192.8 1480.4 194.3 1480.5C211.4 1485.5 226.4 1485.2 235.2 1484.7H237.6C243.8 1484.8 248.8 1484.3 253 1483.9C255.9 1484.2 260.2 1484.7 265.8 1484.6C270.5 1484.6 274.7 1484.2 279 1484.6L282.3 1484.4C285.2 1484.7 290.8 1484.5 297.7 1483.6C303.1 1482.5 309.1 1481.7 314.2 1481.1C319.3 1480.5 323.8 1479.6 328.9 1479C353.5 1474.8 374.9 1462.5 389.8 1443.3C390.2 1442.7 394.5 1438.6 396.1 1437.3C400 1433.7 403.9 1429.1 407.8 1425.5C410.9 1422 413.9 1418.6 417 1415.1C418.8 1412.3 420.8 1410.6 423.1 1408.2C424.5 1406 426.5 1404.2 428.5 1402.4C432.8 1398.2 438.2 1392.4 443.9 1386C448.4 1382.8 456.5 1376.3 464.2 1365.8L467.8 1360.4C473.4 1355.5 477.5 1350.4 481.1 1347.2C482.2 1345.5 482.9 1344.4 484.5 1343.2L485.6 1341.5C488.5 1339.5 492.8 1335.3 497 1330.2C499.5 1326.4 503.1 1323.3 505.9 1319C508.7 1314.7 510.2 1312.5 511.5 1311.8C512.2 1310.7 513.9 1309.4 515.1 1308.7C521.1 1303.3 529 1295.9 536.9 1286.3C538 1284.6 540.5 1283.2 541.9 1281C543.3 1278.8 546.6 1276.3 548.4 1273.5L549.5 1271.8C558.4 1264.3 564.8 1256.9 569.5 1249.7C574.7 1245.4 579.9 1241 584.4 1235.3C586.9 1231.5 590.5 1228.4 593 1224.6C595.5 1220.8 598.3 1217.9 600.9 1214.9C605.6 1210.2 610.6 1204.9 615.2 1200.2C618.6 1196.2 622.3 1193.1 625.6 1189.1C626.7 1187.4 628.7 1185.6 629.4 1184.6C639.1 1177 645.4 1168.6 649.4 1162.5L653.3 1158.9C656.9 1155.8 660.4 1151.8 665 1147.1C668.8 1142.6 671.8 1139.1 673.6 1136.4C675.4 1133.7 677.5 1132.8 679.9 1130.4C688.2 1122.5 697.9 1112.5 707 1099.9C708.1 1098.2 708.8 1097.1 710.4 1095.9L711.1 1094.8C711.5 1094.2 712.8 1093.5 713.1 1093C714.2 1091.3 716.3 1090.5 718.3 1088.7C721.2 1086.7 726.8 1081.8 732.6 1074C736.2 1070.9 738.9 1068 740.9 1066.1L742 1064.4C743.7 1063.1 745.2 1061.9 746.3 1060.2C752.6 1054.2 758.4 1047.8 763.4 1040.2C773.1 1032.6 781.2 1023.8 787.5 1013C788.6 1011.3 791.8 1008.8 793.8 1007C797.4 1003.9 801.4 1000.2 805.7 996L806.4 994.9C810.3 991.3 815.7 985.5 821.3 978.2C831.4 970 838.5 961.4 844.3 955L846.4 951.7C851.8 945.9 857.2 940 861.3 935L863.1 932.2C879.1 918.6 888.4 899.7 890.3 879C895.4 860.5 892.9 841.7 885.6 824.4L895.3 809.7C896.7 807.5 898.4 806.2 900.3 804.4L903.2 800.1C905 799.7 905.7 798.6 906.8 797L909.7 792.7C912.6 790.7 914.9 788.4 916.8 785.6C918.7 782.8 918.9 782.3 921 780.6L921.7 779.5C924.4 776.6 927.5 773.1 930.7 770.6C935 766.4 938.8 761.9 943.1 757.7C945.2 754.4 948.5 751.9 950.3 749.1C952.1 746.3 953.7 745.1 954.5 744.1L956.6 740.8C964.7 734.4 973.7 725.5 982.1 713.9L998.8 696.8C999.9 695.1 1001.5 693.9 1003.5 692.1L1011.3 683.9L1013.4 680.6C1015.9 679.1 1017.3 677 1019 675.7C1020.1 674 1020.8 672.9 1022.4 671.7C1027.1 667 1032.8 660.6 1039.1 652.3C1040.2 653 1041.9 654.1 1043.3 654.2C1049.4 656.7 1055.5 658.2 1060.5 660C1064.5 661.1 1068.1 662.6 1070.1 663.2C1102.8 677.6 1138.6 684.7 1180.4 684.2C1235.1 684.2 1285.6 666.7 1329.5 633C1371.1 601.8 1400.3 570.3 1421.6 534.3H1419.2L1418 534.6L1418.4 534.3Z" fill="#FFFFB4"/>
<path d="M407 1036C409.7 1040.2 413.4 1044.1 416.4 1047.7C418.8 1050.1 420.2 1052.6 422.6 1054.9C426.1 1058 428 1058.5 432.2 1055.7C432.9 1054.6 433.9 1054.4 435.1 1053.7C436.2 1052 437.2 1050.4 439.4 1049.5C442.1 1046.6 445.4 1044.1 448.6 1041.5L449.7 1039.8C452.9 1034.9 451.9 1030.4 448.7 1025.9C445.5 1021.4 441.4 1018 437.7 1014C433.9 1009.1 429.7 1007.2 423 1009C422 1009.2 421.2 1009.4 420.2 1009.6C417.8 1012 415.9 1013.8 413.5 1016.1C411.1 1018.5 408.6 1019.9 406.3 1022.3C406.3 1022.3 406.2 1023.8 405.8 1024.4C403.3 1028.2 405.1 1032.6 407.2 1035.5L406.8 1036.1L407 1036Z" fill="black"/>
<path d="M380 1007.2C382.2 1008.6 383.6 1011.1 385.4 1013.2C387.9 1016.4 391.4 1019.5 395.4 1020.6C395.4 1020.6 396.1 1019.5 397.1 1019.3C397.1 1019.3 397.5 1018.7 398.9 1018.9C402.5 1015.8 406.7 1013.1 410.3 1010C412.3 1008.2 414.8 1006.8 416.3 1004.6C417.8 1002.4 418.6 999.899 419.5 997.399L420.2 996.299C420.2 993.899 419.3 991.699 417.4 989.799C413.6 984.899 409 981.199 404.2 976.499C401.3 973.799 398.1 973.999 394.6 975.699C392.4 976.699 390.3 977.499 388.1 978.499C373.8 982.399 369.9 997.799 380.2 1008.5L380 1007.5V1007.3V1007.2Z" fill="black"/>
<path d="M442.7 1053.1C440 1056 437.3 1058.9 434.9 1061.3C433.8 1065.3 434.2 1069.5 437.3 1073.1C440.5 1077.6 444.8 1082 449.4 1085.7L455.4 1089.7C459.2 1092.2 463.2 1090.9 466.5 1088.3C473.5 1083.6 477.6 1076.1 481.4 1069.3C482.8 1067.1 482.8 1064.7 480.4 1062.4C479.8 1062 479.1 1060.7 478.9 1059.9C477.8 1059.2 476.1 1058.1 475.8 1056.3C474 1054.3 472.6 1051.8 470.7 1049.8L459.8 1042.7C459.8 1042.7 458.3 1042.6 457.4 1042.7C456.4 1042.9 454.6 1043.3 453.8 1043.4C450.4 1047.4 445.9 1050.7 441.9 1054.4L442.6 1053.3L442.7 1053.1Z" fill="black"/>
<path d="M448.9 960.5C446.7 956.7 445 953.3 442.5 950.1C438.2 944.9 433.1 940.8 425.1 943.3C424.1 943.5 423.3 943.7 421.8 943.5C414.7 943.5 409.9 947.4 406.1 952C404.7 954.2 402.9 956.9 403.8 959.1C405.2 964 407.7 968.7 409.5 973C411.7 976.8 414.8 980.4 417 984.2C419.4 988.9 423.5 990.9 428.1 989.9C429.5 987.7 432 986.3 434.1 984.5C438.4 980.3 443 977 446.7 972.4L447.8 970.7C449.9 967.4 450.7 964 448.1 960.7L449.1 960.5H448.9Z" fill="black"/>
<path d="M467.9 1038.4C469 1039.1 470.7 1040.2 471.4 1041.5C471.4 1041.5 472.5 1042.2 472.1 1042.8C473.2 1043.5 474.5 1045.2 475.2 1046.4C478 1048.2 480.5 1051.4 482.5 1054.3L487.9 1057.9C490 1058.4 491.7 1055.7 493.3 1054.4C494.7 1052.2 497.2 1050.8 499.3 1049C500 1047.9 501.3 1047.2 502.5 1046.5C505 1042.7 509 1039 512 1035.6C512.4 1035 511.6 1033.8 511.8 1032.3C510.3 1025.1 504.7 1020.6 500.3 1015.4C497.1 1010.9 492 1009.1 486.5 1007.9C483 1007.2 480.5 1008.6 478.2 1011.1C477.5 1012.2 476.8 1013.3 475.5 1014C473.4 1017.3 471 1019.6 468.1 1021.6C466.3 1024.4 464.5 1027 461.6 1029.1C462.3 1030.4 462.7 1032.2 463 1034C462.9 1035.5 465.4 1036.4 466.6 1037.9L467.7 1038.6H467.9V1038.4Z" fill="black"/>
<path d="M478.8 990.998C476.4 988.598 473.5 985.998 471.9 982.498C466.9 974.598 459.9 972.198 451.8 976.298C451.4 976.898 450.1 977.598 449.3 977.798C446.8 981.598 443 983.798 439.4 986.898C437.4 988.698 435.5 990.498 433.4 992.298L432.3 993.998C432.2 995.498 432.9 996.798 433.2 998.598C434.9 1002.1 437.1 1005.8 440 1008.5C443.6 1012.4 447.3 1016.4 451.3 1019.9C452.4 1020.6 453.1 1021.9 454.2 1022.6L458.5 1025.5L459.2 1024.4C460.6 1022.2 463.1 1020.8 465.2 1019L466.3 1017.3C468.8 1013.5 472.4 1010.4 476 1007.3L478.5 1003.5C482.5 997.498 483.5 995.898 477.7 990.498L478.8 991.198V990.998Z" fill="black"/>
<path d="M293 1271.7C297 1270.4 300 1267 303.3 1264.4C308.5 1260.1 311.2 1254.7 314.8 1249.3C314.9 1247.8 314.2 1246.5 313.9 1244.7C312.4 1242.2 311 1239.7 309.5 1237.2C306.8 1233 303.7 1229.4 300.6 1225.8C299.5 1225.1 297.7 1223.1 296.3 1222.9C288.9 1221.1 278.1 1228 275.9 1236.1C275.2 1237.2 274.7 1239.2 274 1240.3C270.8 1245.2 271.2 1249.3 274.4 1253.9C277.1 1258.1 279.4 1261.8 282.4 1265.4C285.6 1269.9 289.3 1271.5 294 1271.4L293 1271.6H293.1L293 1271.7Z" fill="black"/>
<path d="M346.5 1034.4C350 1039.8 353.8 1044.7 358.6 1049.4C361 1051.8 364.2 1053.9 366.8 1054.8C367.4 1055.2 367.9 1055.5 369.4 1055.6C371.2 1052.8 374.1 1050.9 376.1 1049.1C380.4 1044.9 384.7 1040.7 387.9 1035.8C389.7 1030.7 388.2 1025.8 385.1 1022.2C383.1 1019.3 380.2 1016.6 377.8 1014.3C372.4 1008.3 365.5 1009.3 358.4 1009.4C352.7 1009.6 351.6 1015.1 348.8 1018L346.7 1021.3C342.9 1025.8 343 1030.6 345.7 1034.6L346.7 1034.4H346.6H346.5Z" fill="black"/>
<path d="M392.3 1041.9C392.3 1041.9 391.6 1043 391 1042.6C389.2 1045.4 386.3 1047.3 383.6 1050.2C382.2 1052.4 380 1053.3 378 1055.1C378 1055.1 377.3 1056.2 376 1056.9C376 1056.9 376.4 1058.7 376 1059.3C375.3 1060.4 375.7 1062.2 375.9 1063.2C375.9 1063.2 375.8 1064.7 375.4 1065.3C376.3 1069.9 378.6 1073.6 381.6 1077.2C384.1 1080.4 386.5 1082.8 389.5 1085.5C392 1088.7 394.9 1091.5 398.2 1091.2C404.7 1086.1 410.4 1079.7 417.4 1075C420.5 1071.5 421 1067.2 419.1 1062.9C415.8 1056.1 411.8 1050.3 405.2 1046L401.4 1043.5C400.8 1043.1 400.3 1042.8 398.8 1042.7L397.1 1041.6C397.1 1041.6 396 1040.9 395.6 1041.5L392 1042.2H392.3V1041.9Z" fill="black"/>
<path d="M432.8 1123.9C438.6 1122.2 441.8 1117.3 443.8 1113.2L447.4 1107.8C451 1102.4 450.9 1097.7 447.4 1092.3C445.4 1089.4 443.1 1087.1 440.6 1084.7C433.3 1076.8 429.4 1075.8 419.4 1080.1C419.4 1080.1 417.6 1080.5 416.6 1080.7C412.7 1084.3 408.7 1088 405.1 1091.1C403.9 1096.5 404.1 1102.1 407.4 1106.6C412.5 1113.1 417.7 1119.6 425 1123.7C426.7 1124.8 429.9 1124.6 432.6 1124H432.7L432.8 1123.9Z" fill="black"/>
<path d="M316.1 1067.6C321.9 1073 325.2 1079.8 330.7 1085.8C332.5 1087.8 333.8 1089.4 336.1 1089.4C344.4 1083.9 351.4 1076.8 356.8 1068.6L357.9 1066.9C357.7 1061.2 356.5 1055.8 352.4 1051.6C349.6 1049.8 347.7 1046.9 345.3 1044.5C342.4 1041.8 339.5 1039.1 334.9 1040.1C326.4 1042.3 320.5 1047.8 315.9 1054.9C311.3 1062 313.1 1063.9 317 1067.4L316 1067.6H316.1Z" fill="black"/>
<path d="M358.6 1076.7L357.9 1077.8C353.4 1083.4 348.7 1088.2 343 1092.2C343 1092.2 343.6 1092.6 343.4 1094C344.7 1100.4 346.7 1105.5 351.5 1110.2C354 1113.4 356.9 1116.2 360.1 1119.8C362.1 1122.7 364.3 1124.1 365.7 1124.3C370.4 1121.9 373.5 1118.5 377.6 1115.7C378.3 1114.6 380.5 1113.7 381.8 1113L382.5 1111.9C382.9 1111.3 383.2 1110.8 384.2 1110.6L386.7 1106.8L388.5 1104C392.1 1098.6 391.9 1097.6 387.1 1092.9C384.2 1090.2 382.2 1087.3 379.2 1084.6C375.4 1082.1 372.1 1077.5 367.6 1076.2L366.5 1075.5C366.5 1075.5 365.9 1075.1 365 1075.4C364 1075.6 362.6 1075.4 361.4 1076.1C361 1076.7 359.6 1076.5 358.9 1077.6L358.7 1076.6H358.5L358.6 1076.7Z" fill="black"/>
<path d="M404.7 1153.7C405.1 1153.1 406.4 1152.4 406.7 1151.9C409.6 1147.6 413.5 1143.9 416.4 1139.5C419.3 1135.1 417.6 1134.1 416.5 1131C414.7 1126.7 412.5 1122.9 410.1 1118.2C407.2 1113.2 401.4 1110.1 395.9 1108.9C392.6 1109.1 390.1 1110.6 387.3 1112.6C386.6 1113.7 386.2 1114.3 384.9 1115C382.9 1116.8 381 1118.6 378.9 1120.4C377.8 1122.1 375.8 1123.9 374.2 1125.1L373.5 1126.2C371.7 1131.3 373.2 1136.2 377.2 1139.5C381.4 1143.8 386.1 1148.5 390.7 1152.3C397.1 1158.1 397.9 1157.9 404.3 1151.9L404.7 1153.7Z" fill="black"/>
<path d="M275.9 1114.5C276.3 1123.4 282.8 1127.7 289.4 1132L290 1132.4C294.9 1133.3 298.9 1129.6 302.4 1126.6C304.9 1125.1 307.4 1123.7 309.8 1121.3C311.8 1119.5 312.7 1117 314.1 1114.8C316.6 1111 316 1108.3 312.9 1104.7C309.3 1100.8 306.1 1097.1 302.9 1092.6C299.1 1087.7 294.2 1086.9 288.8 1090.4C285.9 1092.4 282.5 1094 279.6 1096.1C274.2 1099.6 272.4 1104.7 273.2 1110.7C273.6 1112.5 274.3 1113.8 274.1 1115.3L275.9 1114.9V1114.6V1114.5Z" fill="black"/>
<path d="M314.2 1126.4C311.3 1128.4 308.5 1130.4 306.3 1133.7L300.9 1141.9C301.1 1142.9 300.9 1144.3 301.1 1145.2C301 1146.7 301.7 1148 302.4 1149.2C304.6 1157.7 311 1163.5 317.4 1169.2L318 1169.6C319.7 1170.7 322.2 1169.2 323.8 1167.9C326 1166.9 328 1165.2 329.5 1163.9C332.4 1161.9 334.5 1158.6 338 1157C338.4 1156.4 340.2 1156 341.5 1155.3C343.3 1152.5 344.7 1150.4 343.6 1147.4C342.9 1143.8 340.8 1140.9 338.8 1138.1C335.6 1133.6 331.5 1130.2 328.8 1126C326.8 1123.1 323.9 1122.8 321.2 1123.4C320.2 1123.6 319 1124.4 317.6 1124.1C316.3 1124.8 314.7 1126.1 313.4 1126.8L314.4 1126.6L314.1 1126.4H314.2Z" fill="black"/>
<path d="M358.6 1203.8C364 1200.3 368.3 1196.2 372.6 1191.9C373.1 1189.8 374 1187.3 374.5 1185.4C375.9 1173.9 363.5 1159.4 353.1 1157.3C352 1156.6 350.2 1157 348.7 1156.8L347.6 1158.5C345.9 1159.8 344.4 1161 343.1 1161.7C340.7 1164.1 338.2 1165.5 335.9 1167.9C333.5 1170.3 331.7 1172.9 329.1 1175.9L328.4 1177C327.3 1181 328.4 1184.1 331 1187.3C334.8 1192.2 339.2 1197.4 343.1 1202.3C348 1207.9 352.4 1208.4 358.6 1204.7L358.4 1203.7H358.6V1203.8Z" fill="black"/>
<path d="M219.3 1181.9C222 1186.1 224.8 1190.2 227.9 1193.8C232.2 1199 236.6 1199.5 241.6 1196.6C245.8 1193.9 250.2 1190.5 253.7 1186.6C257.9 1181.6 258.3 1174.8 255.9 1170.1C253.1 1168.3 252.1 1165.2 249.7 1162.9C247.7 1160 245.1 1156.8 242.8 1154.4C240 1152.6 236.7 1151.9 233.8 1154C226.8 1158.7 220.3 1163.9 217.3 1172C215.7 1175.6 216.5 1179.2 218.7 1183.1L219.4 1182L219.3 1181.9Z" fill="black"/>
<path d="M245.1 1147.3C248.9 1149.8 251.1 1153.6 254.2 1157.2C256.7 1160.4 258.9 1164.2 262.8 1166.8C266.1 1168.9 268.1 1169.5 270.2 1168.6C271.6 1166.4 274 1164.1 276 1162.2C277.8 1159.4 279.8 1157.7 282.1 1155.3C288.1 1149.9 289.6 1143.8 284.9 1136.8C282.4 1133.6 280.7 1130.1 278.1 1126.9C273.5 1120.8 267.9 1118.7 260.5 1121.6C260.1 1122.2 258.7 1122 258.3 1122.6C246.9 1126.8 241.8 1135.9 245.4 1146.9L245 1147.5L245.1 1147.3Z" fill="black"/>
<path d="M326.2 1238.8C331.1 1235 335.4 1230.8 339.4 1227.1C345.4 1219.3 344.8 1211.8 339.4 1204.5C337.4 1201.6 335.4 1198.8 333 1196.4C326.5 1189.7 322.6 1189.6 314.3 1192.8C311.6 1195.7 308.7 1197.7 305.4 1200.3L303.3 1203.6C299.7 1209 299.8 1213.7 302.3 1219.3C305.8 1227.1 311.9 1233.4 318.5 1238.5C321.3 1240.3 323.6 1240.3 325.6 1238.5L326.2 1238.9V1238.8Z" fill="black"/>
<path d="M272.3 1178.4C272.2 1182.3 274.9 1186.3 276.9 1189.2L277.5 1189.6C278.6 1190.3 280.3 1191.4 281 1192.7C284.3 1194.8 286.8 1198.1 290.1 1200.2L291.8 1201.3C295.3 1202 298.9 1198.9 301.7 1196.9C304.5 1194.9 307.4 1192.9 310.2 1190L313.1 1185.7C316 1181.4 315.6 1177.2 312.3 1172.7C309.8 1169.5 307.6 1165.7 304.8 1161.5C302.1 1157.3 298.3 1154.8 293.9 1154.4C288.9 1157.3 284.9 1161 280.6 1165.2C277 1168.3 271.7 1172.7 272.4 1177.7L272.6 1178.7V1178.4H272.3Z" fill="black"/>
<path d="M161.3 1299.8C166.2 1303 171.6 1301.9 175.4 1297.3C178.6 1292.4 179 1289.5 174.3 1284.8C173.2 1284.1 171.9 1282.4 171.2 1281.2C168.1 1277.6 164.4 1273.6 161.1 1270.6C157.8 1268.5 154.2 1269.2 150.8 1270.9C148.3 1272.4 146.9 1274.5 147.6 1278.1C148.3 1287.9 154.8 1294.5 161.2 1300.3L161.6 1299.7L161.3 1299.8Z" fill="black"/>
<path d="M515.4 794.899C517.6 796.299 521.9 794.499 525.5 791.399C527.3 788.599 529.8 787.199 532.2 784.899C532.9 783.799 534.2 783.099 534.3 781.599C534.8 777.199 537.2 774.899 540.4 772.299C543.3 770.299 542.7 765.199 540 763.399C537.3 761.599 534.2 762.699 532.4 765.499C530.6 768.299 530.3 768.799 529.4 771.299L527.6 774.099C524.5 777.599 520.9 780.599 517.3 783.699C514.6 786.599 513 792.599 514.9 794.499L515.5 794.899H515.4Z" fill="black"/>
<path d="M605.4 779.1C602.6 777.3 599.4 777.5 597.1 779.9C594.6 783.7 595.7 789.1 598.6 791.8C601.4 793.6 604 793 606.5 789.2C609 785.4 608.6 781.3 605.7 778.5L605.3 779.1H605.4Z" fill="black"/>
<path d="M636.8 816.899C639.3 813.099 638.9 808.999 636 806.199C633.2 804.399 630 804.599 627.7 806.999C625.2 810.799 626.3 816.199 629.2 818.899C632 820.699 634.6 820.099 637.1 816.299L636.7 816.899H636.8Z" fill="black"/>
<path d="M600.2 858.498C603 860.298 606.6 859.598 608 857.398C609.4 855.198 608.1 848.898 605.4 847.098C602.7 845.298 599.6 846.398 597.5 849.698C595.4 852.998 596.7 856.898 600 859.098L600.4 858.498H600.3H600.2Z" fill="black"/>
<path d="M596.7 814.799C594.9 817.599 595.3 821.699 598.4 822.999C601.2 824.799 605.5 822.999 607.3 820.199C609.1 817.399 608 814.399 605.2 812.599C602.4 810.799 598.5 812.099 596.7 814.799Z" fill="black"/>
<path d="M423.3 923.398C423.9 923.798 425.4 923.898 425.7 923.398C428.6 921.398 431.8 918.798 434.7 916.798L436.8 913.498C437.5 912.398 436.6 910.198 436.8 908.798C435.3 908.698 433.9 908.498 432.6 909.198C430.1 910.698 428.7 912.798 427 914.098C425.2 916.898 424.1 918.398 423.3 920.998C422.9 921.598 423.2 922.498 423.3 923.398Z" fill="black"/>
<path d="M566.9 818.698C565.1 821.498 566.1 825.898 568.3 827.398C570.5 828.898 574.8 826.998 576.2 824.798C577.6 822.598 576.2 818.598 574.1 817.198C572 815.798 567.9 817.198 566.5 819.298L566.9 818.698Z" fill="black"/>
<path d="M590.7 833.499C588.5 832.099 584.9 832.799 583.8 834.499C582.7 836.199 583.1 840.299 585.3 841.699C587.5 843.099 590.2 842.599 591.7 840.399C593.2 838.199 592.9 834.999 591.1 832.899L590.7 833.499Z" fill="black"/>
<path d="M623.1 793.8C620.9 792.4 617.3 793.1 616.2 794.8C615.1 796.5 615.5 800.6 617.7 802C619.9 803.4 622.6 802.9 624.1 800.7C625.6 798.5 625.3 795.3 623.5 793.2L623.1 793.8Z" fill="black"/>
<path d="M549.3 753.999C552.1 755.799 553.3 752.699 555.3 750.899L557.1 748.099C557.8 746.999 557.8 744.599 556.9 744.799C555.8 744.099 554 744.499 552.5 744.299C551.5 744.499 550 745.799 549.3 746.799C547.9 748.999 547.4 753.299 549.3 753.899V753.999Z" fill="black"/>
<path d="M590.1 816.699C586.8 814.599 583.7 815.599 582.6 817.299C581.5 818.999 582.1 821.699 584.3 823.099C586.5 824.499 590 822.899 590.4 820.899C591.1 819.799 589.7 817.299 589.5 816.299L590.1 816.699Z" fill="black"/>
<path d="M604.8 799.1C601.5 797 598.4 798 597.3 799.7C596.2 801.4 596.8 804.1 599 805.5C601.2 806.9 604.7 805.3 605.1 803.3C605.8 802.2 604.4 799.7 604.2 798.7L604.8 799.1Z" fill="black"/>
<path d="M606 831.799C602.7 829.699 599.6 830.699 598.5 832.399C597.4 834.099 598 836.799 600.2 838.199C602.4 839.599 605.9 837.999 606.3 835.999C607 834.899 605.6 832.399 605.4 831.399L606 831.799Z" fill="black"/>
<path d="M621 813.5C617.7 811.4 614.6 812.4 613.5 814.1C612.4 815.8 613 818.5 615.2 819.9C617.4 821.3 620.9 819.7 621.3 817.7C622 816.6 620.6 814.1 620.4 813.1L621 813.5Z" fill="black"/>
<path d="M248.3 1314.8L248.7 1316.6C251.5 1318.4 255.4 1317.1 255.9 1315.1C256.3 1314.5 255.9 1312.7 254.9 1312.9C253.2 1311.8 248.4 1313.3 247.8 1315.3L248.2 1314.7L248.3 1314.8Z" fill="black"/>
<path d="M493.5 821.199C494.2 822.499 498.6 820.599 499.6 818.999C500.6 817.399 499.2 817.199 499.6 816.599C497.4 815.199 495.6 815.499 494.2 817.699C492.8 819.899 493.4 820.299 493.5 821.199Z" fill="black"/>
<path d="M1356.7 497.599C1371.7 472.299 1389.3 447.899 1405.4 423.499C1421.5 398.999 1415.1 406.399 1417.3 396.999C1421.7 374.899 1426.4 352.199 1427.3 329.399C1428.6 310.799 1428 291.599 1420.1 273.899C1410 250.099 1399.9 226.299 1390.5 201.299C1381.1 176.299 1365.4 155.199 1347.9 136.599C1332.5 120.999 1314.4 106.799 1297.7 91.8992C1283.3 79.3992 1267.2 71.8992 1248.2 71.0992C1236.8 70.6992 1226.1 73.6992 1217.7 82.9992C1206.2 95.7992 1207.5 99.7992 1224.1 104.299C1233.5 106.499 1243.7 107.799 1251.7 112.199C1276.4 126.899 1300.4 142.599 1319.1 165.099C1335.9 184.699 1349.6 205.399 1358.5 229.899C1362 239.999 1367 250.299 1370.4 260.399C1376.5 276.099 1384 291.999 1387.3 308.199C1395.3 344.699 1389.8 379.299 1369 410.899L1338.6 457.199L1304.2 509.499C1302.1 512.799 1299.9 515.999 1297.5 518.399C1277.2 538.599 1252.5 553.599 1225.5 563.899C1185.8 579.199 1148.1 572.399 1113.1 550.999C1093 537.799 1072 525.599 1052.2 511.799C1054.3 508.499 1057.2 506.499 1059.4 503.199C1061.6 499.899 1061.5 499.899 1063.7 498.999C1074.8 511.799 1086.7 523.399 1102.3 530.599C1136.6 546.099 1172.1 549.099 1207.3 537.099C1240.3 525.999 1269.5 507.699 1297.2 486.899C1319.8 468.999 1336.9 446.699 1346.9 419.599C1353.7 402.199 1356.8 383.199 1361.6 365.199C1366.5 345.799 1368.8 326.999 1359.2 308.199C1358.2 305.999 1357.8 303.299 1357.1 300.599C1352.7 288.399 1348.8 276.399 1343.6 265.199C1325.6 228.399 1302.5 194.599 1273.4 165.299C1268.7 160.599 1262.9 157.599 1257 154.499C1249.8 151.299 1241.9 150.099 1234.4 147.399C1204.1 137.699 1173.4 136.999 1142.4 142.399C1123.3 145.399 1104.5 150.299 1085.4 153.299C1065 156.999 1046.7 164.599 1031.3 178.699C1012.3 195.899 993.7 213.399 976.3 231.599C964.6 243.399 953.1 256.199 945.1 269.599C930.3 295.799 920 323.299 926.9 354.399C928.4 361.599 928.7 369.599 928.8 377.499C929.8 406.999 935.2 435.499 945.2 463.099C954.8 491.299 978.3 508.999 998.9 528.699C995 532.299 991.5 536.299 988.6 540.699C985.7 545.099 986.2 543.099 985 543.799C975.3 551.399 964.1 556.599 954.6 565.199C945.6 574.099 935 581.999 927.8 592.799L926 595.599C915 603.899 907.7 616.399 897.8 625.399C891.8 630.799 885.9 636.399 882.1 643.199C881.4 644.299 881 644.899 879.7 645.599C877.9 648.399 875 650.299 872.6 652.699C871.5 654.399 870.5 655.999 868.8 657.199C862.5 663.199 855.1 668.599 850.6 676.499L848.5 679.799C843.5 685.099 838.8 689.799 833.2 694.699C829.6 697.799 825.6 701.499 823.2 705.199C818.9 711.699 813.5 717.599 807.5 722.999C798.6 730.499 791 738.699 782 745.299C771.9 753.499 760.8 760.999 752.6 771.199C749.2 775.199 743.6 777.799 738.2 771.899C735.1 768.299 731.5 766.599 726.9 765.399C724.8 764.899 723.1 762.899 720.9 761.399C715.8 754.899 710.6 748.399 702.6 745.399C701.5 744.699 700.4 743.999 699.7 742.699C695.4 737.499 691.7 731.199 686.1 726.699C679.2 720.599 670.8 716.699 665.6 709.299C661.8 704.399 657.2 700.699 652.4 695.999C647.6 691.299 647.1 690.999 644.4 689.199C638.4 685.199 631.3 682.999 625.8 676.999C622.3 673.899 618.3 672.899 614.3 675.599C607.5 681.299 600 686.599 593.8 692.599C589.1 697.299 586.3 704.099 582.3 710.099C578.3 716.099 581.8 712.199 582 712.999C582.4 712.399 584.2 711.999 584.5 711.499C587.7 706.599 591.7 702.899 597.3 700.399C599.5 699.399 601.1 698.199 602.5 696.099C606.8 689.599 613.3 686.799 621.1 687.999C625.1 686.699 626.9 688.699 627.6 692.299C628.9 696.299 631.1 700.099 635.2 701.999C646.3 707.699 654.5 717.799 665.2 724.099C666.9 725.199 667.7 727.299 668.4 728.599C672.7 733.799 675.5 740.299 681 743.899C689.7 749.599 696.1 757.699 702.5 765.799C705 768.999 707.5 773.699 706 778.299C703.8 783.899 701.3 789.199 697.8 793.199C692.2 800.399 685 806.699 678.9 813.599L674.9 819.599C673.5 821.799 674 824.499 671.3 824.999C671.3 822.599 670.7 819.899 671.3 817.899C671.8 815.799 673.8 814.099 675.3 811.899L678.2 807.599C678.9 806.499 678.9 804.099 678.3 803.699C674.5 801.199 674.8 798.299 676.4 794.699C677.1 793.599 676.7 791.799 676 790.499C673.5 784.899 672.5 777.999 666.5 774.099C660.5 770.199 665 771.599 664.3 770.299C661.1 761.999 654 757.299 648.4 750.599C647.8 750.199 646.7 749.499 645.3 749.399C640.9 748.899 638.6 746.499 637 743.099C635.2 738.799 631.7 735.699 627.9 733.199C624.1 730.699 623.2 730.899 621.4 728.899C616.1 723.899 609.6 726.699 603.5 726.499C600.6 726.199 599.3 729.199 599.5 732.499C599.5 734.899 600.2 736.099 602.7 736.999C603.8 737.699 606.6 737.099 606 739.099C605.6 739.699 603.2 739.699 602 740.399C602 740.399 600.5 740.299 599.6 740.399C594.5 740.999 593.1 743.199 595.9 747.299C597 747.999 597.9 750.199 599.7 749.799C608.9 751.199 614.4 759.499 623.7 760.899L625.9 762.299C627.6 765.799 630.6 766.999 633.7 768.299C642 772.199 646.1 780.399 644.2 789.199C643.4 791.799 643.7 793.599 645.5 795.599C647.3 797.599 648.2 799.799 650.4 801.199C654.2 803.699 654.6 807.899 653 811.499C651.2 814.299 650.3 816.799 648 819.099C645.1 823.399 641.5 826.599 640.9 832.399C640.4 834.499 638.4 836.199 636.9 838.399C635.4 840.599 631.9 843.699 630.1 846.399C625.1 853.999 620.8 862.899 612.6 868.399C610.1 869.899 608.1 871.599 606.3 874.399C604.5 877.199 602.3 880.399 601.2 883.499C601.2 883.499 602.2 885.699 602.7 885.999C607.3 887.399 606.3 889.899 605.6 893.399C604.8 895.999 604.4 898.799 604.4 901.199C604 901.799 605.7 902.899 605.9 903.699C606.3 903.099 608.1 902.699 608.4 902.199C609.8 899.999 611.1 896.899 613.1 895.099C618.8 891.099 621.9 885.299 624.4 879.099C626.3 874.899 629.1 871.999 633.6 871.099C633.6 871.099 635.4 870.699 635.1 871.199C635.1 871.199 635.5 872.999 635.1 873.599L615.8 902.999C611.5 909.499 605.9 914.399 600.5 920.199L601.6 920.899C597.3 927.399 591.9 933.299 586.7 939.899C584.6 943.199 582.5 942.599 580.5 939.899C579 937.399 578.5 934.599 577.6 932.499C575.9 928.999 574.8 925.999 571.9 923.299C566.1 917.899 496.3 847.099 492.5 844.599C488.7 842.099 486 837.899 484.2 840.699C482.4 843.499 455 883.999 449.3 892.599C443.6 901.199 455.9 906.299 465.2 916.999C467.2 919.899 526.7 981.499 533.4 988.999C536.5 992.599 539.6 996.199 544.9 996.499C547 996.999 547.7 998.299 546.7 1000.8C544.6 1008.7 543.5 1017.5 535.3 1023C534.6 1024.1 533.3 1024.8 533.2 1026.3C530.9 1031 527.2 1034.1 522.8 1037.4C522.1 1038.5 521.1 1038.7 519.9 1039.4C517 1043.7 513.4 1046.9 509.9 1049.9L508.5 1052.1C506.4 1055.4 503.6 1058.2 500.4 1060.8L498.3 1064.1C497.2 1065.8 496.2 1067.4 494 1068.3C486.5 1072.7 482.3 1080.1 476 1086.2C471.3 1090.9 468.3 1096.7 462.9 1100.2C455.1 1106 450.7 1114.1 443.5 1120.3C437.5 1125.7 433.2 1132.3 427.8 1138.1C427.1 1139.2 425.4 1140.5 424.2 1141.2C423.1 1142.9 421 1143.7 419.9 1145.4C414.2 1154.1 405.7 1161.1 398.4 1168.7C391.7 1175.2 386.7 1182.9 379.5 1189.1C378.1 1191.3 377.2 1193.8 375.5 1195.1C367.4 1201.5 360.6 1209.5 353.7 1217.5C350.8 1221.8 347.4 1225.8 343.4 1229.5C341.6 1232.3 338.7 1234.2 335.8 1236.3C331.6 1239 328.4 1241.6 325.5 1245.9C322.6 1250.2 319.8 1254.6 315.6 1257.3C313.5 1260.6 311.3 1263.8 307.5 1266C306.8 1267.1 305.1 1268.4 303.9 1269.1L300.7 1274C296 1278.7 290.8 1283.1 286.1 1287.9C281.8 1292.1 277.8 1295.8 279.3 1303C280 1306.6 276.7 1310.6 272.6 1309.5L265 1304.5C264.3 1305.6 263.2 1307.3 263.9 1308.5C264.9 1310.7 264.8 1313.1 262.8 1314.9C259.2 1318 255.6 1321.1 251.8 1323.2C247.6 1325.9 245.7 1325.4 243.6 1320.2C242.5 1317.1 240.7 1317.5 238.5 1318.4C237.2 1319.1 235.6 1320.4 234 1321.6C231.6 1324 229.5 1324.8 226.1 1324.2C220.3 1323.5 215.6 1325.9 212.4 1330.8C209.2 1335.7 210.3 1334.1 209.2 1333.3C203.4 1332.6 199.5 1336.3 194.2 1338.3C190.2 1339.6 187.5 1342.5 188.5 1347C188.1 1347.6 188.5 1349.4 188.2 1349.9C187.4 1352.5 186.4 1355 183.5 1354.6C180.2 1354.8 178.4 1352.8 177.5 1350.6C177.1 1348.8 176.6 1346 175.5 1345.3C169.3 1338.1 164.2 1329.2 156 1323.9C147.8 1318.6 153.2 1322.1 152.5 1320.8C148.3 1314.1 144.6 1307.8 140.4 1301.1C133.1 1290.8 126.3 1281 119 1270.7C118.4 1270.3 117.7 1269 116.8 1269.3C115.7 1268.6 107.7 1259.4 106.4 1253.1C104.7 1247.3 105 1242 108.3 1237.1C111.6 1232.2 108.8 1235 108.6 1234.2C107.5 1233.5 106 1233.4 104.7 1234.1C100.7 1235.4 97.5 1238 97.2 1243.2C96.9 1246.1 96.5 1249 93.2 1249.2C87.2 1249.9 82.9 1254.2 78.6 1258.4C72.3 1264.4 68.9 1273.1 67.4 1281.4C66.2 1286.8 68 1293.5 69.7 1299.3C70.8 1302.4 71.9 1305.4 74 1308.3C79.1 1314.8 85 1320.2 90.1 1326.6C93.2 1330.2 97.7 1334 98.3 1339.1C98.9 1344.2 102 1347.7 105.9 1351.2C109.5 1355.1 114.5 1358.4 116.2 1364.2C117.6 1369.1 120.5 1373.2 124.1 1377.2C128.4 1382.4 132.3 1387.3 136.7 1392.5C139.1 1394.9 141.6 1398.1 144.3 1399.9C150.3 1403.9 157.7 1405.6 165.3 1405.9C170.6 1406.3 176 1407.4 181.2 1407.7C186.5 1408.1 192 1407.7 197.8 1408.4C201.7 1408.5 205 1409.2 208.5 1409.9C216.7 1412.9 225 1412.1 232.9 1411.9C239.1 1411.9 244.5 1410.9 250.9 1410.5C252.4 1410.6 253.8 1410.8 254.8 1410.6C257.7 1410.9 260.6 1411.3 263.8 1411C268.5 1411 273.2 1411 277.9 1411C279.7 1410.6 281.8 1411.1 283.6 1410.8C294.1 1409.1 304 1407 314.5 1405.3C321.4 1404.3 326.7 1400.9 331.3 1395.3C332.7 1393.1 335.1 1390.8 337.1 1388.9C342.1 1383.6 346.8 1378.9 351.8 1373.6C357.2 1367.8 362.1 1361.6 367.1 1356.4C373.2 1349.5 380 1343.8 385.6 1336.6C388.5 1332.3 393 1329 397.5 1325.6C399.2 1324.3 400.7 1323.1 401.8 1321.4C406.1 1314.9 410.6 1309.2 416.2 1304.3C421.4 1300 425.5 1294.9 430.2 1290.1C432.9 1287.2 436.5 1284.1 439.2 1281.2C446 1273.2 451.8 1264.4 459.3 1257.7C466 1251.2 473.7 1245.3 479 1237.1C484.3 1228.9 484.6 1232.2 487.3 1229.2C491.6 1225 495.2 1219.5 500.1 1215.7C505 1211.9 508.6 1206.4 511.8 1201.5C515 1196.6 517.1 1194.8 521.1 1192.1C523.6 1190.6 526 1188.3 528.3 1185.9C534.4 1179 540 1171.7 546.4 1164.3C554.9 1155 563.5 1146.7 571.5 1137.9C574.2 1135 576.2 1130.8 579.6 1129.2C585.6 1126.1 588.6 1120.3 592.7 1115.2C594.1 1113 597 1111 598.5 1108.8C602.8 1104.6 606.8 1100.9 610.6 1096.4C612.7 1093.1 614.9 1089.9 617.6 1087C628.7 1074.8 641.2 1064.2 651 1050.4C651.7 1049.3 653.4 1048 654.6 1047.3C656.4 1044.5 658.4 1042.8 661.3 1040.8C664 1037.9 666.9 1035.9 669.6 1032.9C671.6 1031.1 674.5 1029.1 675.9 1026.9C678 1023.6 679.9 1020.9 682.7 1018.9C685.9 1016.4 688.7 1013.5 691.3 1010.5C692.4 1008.8 693.4 1007.2 695.6 1006.3C701.2 1001.4 705.1 995.399 708 988.699C709.1 986.999 710.1 985.399 711.4 984.699C717 982.199 722.4 978.699 725.1 973.299C732.4 960.999 744 952.899 752.7 943.099C757 938.899 761 935.199 763.7 929.999C765.1 927.799 766.9 925.099 769.5 923.599C778.1 917.499 784.6 910.099 791.4 902.099C797.9 894.599 803.8 886.799 810.6 878.799C811.3 877.699 813 876.399 814.2 875.699C817.1 873.699 818 871.199 817.8 867.899C817.8 865.499 817.8 863.199 818.9 861.499C822.3 855.099 819.9 850.499 815.2 845.799C809.5 838.999 803.3 831.799 797.7 824.999C795.9 822.999 795.9 820.699 797.3 818.499C798.7 816.299 799.4 815.199 801.1 813.999C803.2 810.699 806.5 808.199 809.2 805.299L838.9 760.099C841.4 756.299 845 753.199 848.1 749.699L850.6 745.899C853.7 742.399 857.1 738.399 860.1 734.999C861.9 732.199 863.3 730.099 866.2 728.099C873.3 720.999 880 712.999 887 705.899C892 700.599 895.9 694.699 901.2 690.199C909.5 682.299 917.7 674.499 923.8 665.199L924.5 664.099C931.6 656.999 937.6 650.099 944.6 642.999C945.3 641.899 945.7 641.299 947 640.599C949.1 637.299 952 635.299 954.8 632.399C956.6 629.599 959.8 627.099 962.2 624.799C967.6 618.999 973.9 612.999 978.2 606.499L1013.3 553.099C1014.7 550.899 1016.2 548.799 1018.6 546.399C1021.9 548.499 1023.9 551.399 1026.8 554.199C1038.6 565.899 1050.7 578.499 1066.6 584.999C1076.4 588.999 1086.7 591.199 1096.2 595.799C1122.1 607.299 1148.8 610.799 1177 610.599C1217 610.299 1252.5 597.799 1283.8 573.799C1312.8 552.299 1338.3 527.599 1357.6 495.799L1357.2 496.399L1357 496.999L1356.7 497.599ZM125.6 1318.6C124.5 1320.3 123.8 1321.4 125.1 1323C124.4 1321.7 124.9 1319.7 125.6 1318.6ZM129.2 1315.4C129.9 1314.3 130.9 1314.1 131 1312.6L129.2 1315.4ZM124.3 1309.8C125.6 1309.1 126.5 1308.8 127.4 1308.7C126.8 1308.3 125.2 1309.7 124.3 1309.8C123 1310.5 121.8 1311.3 121.1 1312.3C121.8 1311.2 123.1 1310.5 124.3 1309.8ZM116.3 1294.6C115.9 1295.2 115.2 1296.3 116 1297.5C115.6 1298.1 116 1299.9 116.2 1300.8C116 1299.8 115.8 1299 116 1297.5C116.4 1296.9 116.5 1295.4 116.3 1294.6ZM104.1 1306.1L102.3 1306.5C102.3 1306.5 103.6 1305.8 104.1 1306.1ZM104.5 1312.5C106.7 1313.9 109.2 1312.5 112 1311.9C109.8 1312.9 107.1 1313.3 104.5 1312.5ZM112.3 1309C112.9 1309.4 113 1310.3 112.7 1310.8C113.1 1310.2 112.8 1309.3 112.3 1309ZM120.3 1304.1C121.4 1304.8 123.2 1304.4 124.2 1304.2C123.2 1304.4 121.8 1304.2 120.3 1304.1ZM1112.2 388.599C1110.8 383.699 1110.7 376.699 1112.9 371.999C1118 360.499 1126.5 351.299 1137.9 344.699C1151.1 337.799 1167.7 340.799 1175.5 353.899C1177.7 357.699 1178 363.299 1176.9 367.299C1175 373.799 1170.6 375.599 1163.2 373.899C1154.2 371.099 1144.7 368.799 1135.5 369.699C1124.4 371.099 1120.9 378.899 1125.5 387.299C1122.6 391.599 1118.7 395.299 1115.2 399.299C1113.5 395.799 1111.9 392.499 1111.2 388.899L1112.2 388.699V388.599ZM1139.1 415.599C1139.5 414.999 1140.2 413.899 1141.1 413.799C1142.9 410.999 1145.3 408.799 1147.6 406.299C1155.2 411.299 1164 414.699 1172.4 417.099C1175 417.899 1178.8 418.199 1181.4 417.499C1200.4 411.199 1219.1 383.799 1218.3 363.699C1217.7 335.999 1203.6 317.299 1178.2 306.999C1157.7 298.999 1137.3 295.699 1117.6 310.199C1101.8 322.399 1088.3 336.999 1078.9 354.999C1066.6 377.299 1067.8 399.199 1081.5 419.899C1083.7 423.699 1086.2 426.899 1088.4 430.699C1084.4 436.699 1078.7 440.699 1074.6 445.799L1073.9 446.899L1073.3 446.499C1061.4 432.499 1050 417.899 1047.8 398.599C1045.5 378.299 1044.6 358.199 1055.5 340.499C1065.2 325.799 1073.7 310.399 1084.5 296.399C1097.4 279.099 1113.1 265.999 1137.1 268.499C1141.5 268.999 1145.6 268.599 1149.7 268.199C1170.3 265.399 1188.5 273.299 1205.6 282.999C1227.4 294.899 1237.8 315.899 1246.1 337.699C1250.5 349.899 1250.7 361.699 1245.8 372.599C1238.9 386.799 1231.4 400.599 1222.1 412.399C1207.9 430.399 1189.8 442.599 1165.2 435.999C1155.2 433.399 1145.9 427.299 1137.2 421.599L1135 420.199L1137.9 415.899L1138.9 415.699L1139.1 415.599ZM983.3 441.299C979.2 423.799 976.4 405.499 972.2 387.999C966.6 365.499 967.2 343.299 971.5 321.299C973.3 313.899 975.9 306.199 979.8 300.199C995.2 276.799 1010.6 253.299 1031.4 233.499C1056 209.099 1083.2 192.599 1117.4 186.899C1129.7 184.799 1141.8 181.799 1154.4 179.199C1197.7 170.199 1234.4 185.699 1264.1 215.299C1280.1 231.299 1290.7 253.099 1302.5 273.299C1310 286.799 1316.8 301.499 1320.7 315.699C1335.1 369.699 1316.5 422.999 1274.1 459.199C1252.9 477.199 1227.9 490.499 1202.8 501.399C1177.7 512.199 1153.3 507.899 1130.1 495.799C1116.3 488.299 1103.9 478.599 1093.2 467.599C1097.5 463.399 1102.1 460.099 1105.8 455.499L1107.2 453.299C1113.7 459.999 1122.5 465.699 1131.2 469.099C1149.7 476.599 1170 481.299 1188.4 474.699C1226.8 460.099 1256.5 435.199 1275.1 397.399C1279 389.099 1283.3 380.199 1284.7 370.899C1293.6 322.899 1273.8 286.499 1239.5 255.499C1225.5 242.399 1208.4 235.099 1190 232.299C1171.1 230.099 1151.8 229.799 1132.8 229.099C1109.6 228.699 1088.3 235.099 1070.9 250.899C1066.2 255.599 1061.3 259.499 1056.5 263.299C1038.3 277.899 1025.8 296.999 1016 317.799C1001.7 348.999 1003.8 381.599 1008.2 414.099C1010 429.299 1016.5 442.999 1025.7 455.199C1031.5 462.999 1037.4 470.699 1044.1 478.199L1043.7 478.799C1038.7 484.099 1033.3 489.899 1028.3 495.199C1013.7 484.099 1002.1 468.599 989.3 454.799C986.2 451.199 984.9 444.899 983.4 440.099V441.599C983.3 441.599 983.4 441.399 983.4 441.399L983.3 441.299Z" fill="black"/>
</g>
<defs>
<clipPath id="clip0_167_251">
<rect width="1499.6" height="1484.8" fill="white"/>
</clipPath>
</defs>
</svg>
