<svg width="539" height="644" viewBox="0 0 539 644" fill="none" xmlns="http://www.w3.org/2000/svg">
<path d="M434.646 47.6836C434.646 47.6836 434.593 47.4314 434.563 47.2874C434.511 47.0352 434.486 46.7395 434.434 46.4874C433.981 43.424 433.101 40.2995 431.76 37.1213C427.49 26.7734 419.887 18.2881 410.96 13.5387L410.924 13.5462C410.409 13.2404 409.902 12.9706 409.366 12.7444C408.278 12.2199 407.206 11.7675 406.106 11.3586C405.092 11.0067 404.05 10.6984 402.9 10.4127C402.502 10.3079 402.148 10.2316 401.75 10.1269C394.887 8.59256 388.12 8.9555 385.899 9.11949C385.647 9.17224 385.423 9.18143 385.163 9.19816C383.245 9.3739 381.378 9.61414 379.613 9.98339C370.644 11.8598 365.131 16.0585 361.754 20.2238L361.633 20.362C361.454 20.5873 361.304 20.7691 361.162 20.9869C359.693 22.9485 358.492 25.1171 357.617 27.4055C357.547 27.6082 357.476 27.8109 357.399 27.9776C357.378 28.0572 357.357 28.1368 357.328 28.1803C357.216 28.5422 357.104 28.904 357.02 29.2223C356.978 29.3815 356.563 30.6337 355.876 32.9205C351.094 47.9819 332.352 106.117 310.977 160.291L274.261 153.536C272.425 153.205 270.591 153.063 268.737 153.188L251.82 154.095C251.82 154.095 251.561 154.112 251.453 154.134L226.323 155.858C226.063 155.874 225.803 155.891 225.544 155.908L224.404 156.033L216.568 144.815L211.279 136.785C205.99 128.756 196.236 125.082 187.051 127.004C185.034 127.426 183.033 128.107 181.101 129.113L179.707 129.818L174.725 132.064L171.166 133.56C168.297 134.762 165.764 136.495 163.647 138.592C162.688 138.68 161.7 138.811 160.727 139.015L159.467 139.279C157.846 139.618 156.299 140.129 154.782 140.785L140.388 147.105C140.388 147.105 140.115 147.237 140.007 147.26L126.875 153.316C124.783 154.28 122.867 155.545 121.148 157.033L86.5287 187.435C85.6407 188.222 84.8323 189.03 84.0825 189.939L50.5426 229.815C48.9785 231.684 47.7269 233.788 46.8011 236.012L35.7072 263.673L22.6286 296.223L20.6228 301.192C19.6057 303.698 19.0735 306.366 18.9887 309.015L17.2872 377.797C17.2132 380.858 17.7817 383.934 18.9399 386.775L40.6238 439.385C41.6858 441.945 43.1933 444.299 45.1164 446.303L74.5757 477.134C75.1 477.664 75.6244 478.193 76.2132 478.672L127.702 522.79C130.4 525.083 133.612 526.78 137.098 527.63L186.807 540.239C187.479 540.399 188.108 540.531 188.81 540.647L209.127 543.953L208.713 544.491C205.373 548.837 203.718 554.221 204.054 559.602L204.777 571.143C205.299 579.569 210.596 586.919 218.486 590.307L231.903 596.034C235.04 597.371 238.445 598.012 241.887 597.931L261.015 597.35C262.364 597.331 263.719 597.16 265.052 596.882L308.401 588.076C309.157 587.918 309.942 587.716 310.683 587.485L373.969 567.591C376.51 566.796 378.888 565.584 381.032 563.97L397.918 551.414L415.367 538.139C420.622 534.145 423.918 528.154 424.409 521.698L425.41 508.33C425.41 508.33 425.442 507.947 425.441 507.759L426.071 494.957C426.538 485.686 421.179 477.145 412.536 473.389L408.029 471.437C404.718 469.987 401.082 469.319 397.431 469.481L380.68 470.278L424.916 427.977C427.958 425.084 430.127 421.435 431.203 417.413L448.814 352.258C449.534 349.588 449.748 346.837 449.471 344.075L445.813 309.876C445.554 307.561 444.964 305.279 443.984 303.115L438.375 290.679C438.184 290.305 438.029 289.924 437.831 289.514L426.239 267.351C425.857 266.604 425.403 265.872 424.913 265.147L400.906 229.829C400.796 229.664 400.687 229.499 400.541 229.341L379.461 200.103C378.832 199.257 378.168 198.418 377.411 197.674L367.126 186.968C366.936 186.782 366.747 186.596 366.558 186.41L363.769 183.685C380.641 150.755 400.475 117.43 414.471 93.9371C421.007 82.9452 425.936 74.6955 429.268 68.6974C429.374 68.4871 429.516 68.2694 429.623 68.0591L429.68 67.972C430.497 66.4852 431.199 65.1727 431.781 63.9983C431.859 63.8317 431.944 63.701 431.986 63.5418C432.093 63.3316 432.227 63.0778 432.334 62.8676L432.326 62.8315C434.552 58.1928 435.365 53.0974 434.711 47.6325" fill="#FFFFB4"/>
<path d="M286.151 495.923L284.427 496.847L257.395 496.487L230.32 496.099L201.754 490.383L173.195 484.702L152.808 472.613L132.384 460.532L115.691 439.323L98.9973 418.115L88.824 398.061L78.6508 378.008L76.7814 355.954L74.9121 333.9L77.6888 315.724L80.4296 297.555L91.0002 276.019L101.578 254.519L110.673 243.18L119.739 231.884L136.991 220.718L154.242 209.552L173.312 202.404L203.223 190.47L216.516 183.741L219.011 181.828L227.152 181.027L251.978 179.292L268.715 178.422L287.358 181.816L306.009 185.245L323.466 191.593L340.931 197.978L348.101 204.937L358.285 215.514L379.102 244.394L402.866 279.274L414.29 301.172L419.862 313.428L421.664 330.308L423.466 347.187L414.751 379.389L406.028 411.554L380.807 435.666L355.551 459.786L336.244 471.194L315.004 484.322L313.099 485.999L300.501 490.477L286.151 495.923Z" stroke="#1D1D1B" stroke-width="4.36926" stroke-miterlimit="10"/>
<path d="M190.585 193.863L188.784 194.24L185.595 186.185L181.506 175.085L179.946 163.493L179.286 154.947L183.118 153.318L188.854 150.726L190.758 149.764L196.208 158.023L207.268 173.868L212.871 181.419L216.797 180.597L215.791 181.898L203.6 188.321L190.578 193.827L190.585 193.863ZM281.233 570.902L259.627 575.272L250.06 575.544L240.492 575.816L233.805 572.967L227.118 570.117L226.735 564.332L226.352 558.547L230.718 552.821L235.121 547.088L248.613 538.438L265.614 527.512L269.123 525.237L253.278 525.694L237.433 526.152L214.702 522.448L191.971 518.745L167.116 512.44L142.262 506.135L116.518 484.076L90.7735 462.017L76.0439 446.601L61.3142 431.185L50.4723 404.88L39.6303 378.575L40.4811 344.184L41.3318 309.793L43.3376 304.825L56.4447 272.231L67.5386 244.57L84.3085 224.632L101.078 204.694L118.388 189.493L135.698 174.292L148.831 168.236L163.224 161.916L164.484 161.652L165.23 165.218L130.969 195.358L96.7007 225.461L87.8848 239.749L79.0689 254.038L73.5721 273.949L68.0753 293.859L66.4757 319.459L64.876 345.058L69.8082 373.126L74.7763 401.186L91.0582 425.639L108.907 451.831L133.134 472.93L155.766 492.332L186.591 502.914L218.494 513.797L248.908 516.307L278.28 518.509L283.524 513.201L288.767 507.893L286.559 497.339L287.524 497.1L300.827 492.399L314.202 487.684L315.211 487.473L315.285 491.781L315.367 496.125L318.5 496.184L359.529 494.442L397.433 492.678L399.672 493.676L401.911 494.674L401.281 507.476L400.28 520.844L383.024 533.966L366.139 546.522L334.499 556.487L302.86 566.452L281.254 570.822L281.233 570.902Z" fill="#1D1D1B"/>
<path d="M397.113 33.2414C392.805 31.6989 379.826 31.4817 378.608 35.7218C377.264 40.4393 338.245 164.287 304.215 232.011C293.14 237.298 288.506 243.72 285.473 250.069L270.063 282.618C271.485 283.486 272.915 284.39 274.309 285.301C279.624 275.128 284.573 264.995 288.05 256.635C291.085 257.128 291.584 258.076 292.155 259.01C288.261 269.148 283.793 278.881 279.064 288.442C280.291 289.276 281.525 290.145 282.768 291.051C287.85 281.378 292.644 271.765 297.891 261.983C300.487 261.816 301.339 262.653 302.106 263.62C296.764 274.926 292.054 284.22 286.786 294.083C287.999 295.032 289.184 296.024 290.385 297.089C296.331 287.236 301.961 277.486 307.714 267.785C309.43 267.539 310.769 268.011 311.726 269.352C307.087 280.06 301.378 290.691 295.135 301.284C296.507 302.275 298.059 303.041 299.659 303.683C310.987 286.124 319.77 268.985 320.992 260.27C322.012 253.102 314.945 235.857 314.945 235.857C337.465 169.901 401.147 73.1896 410.382 54.0759C412.345 49.9808 406.149 36.5392 397.084 33.285" fill="#1D1D1B"/>
<path d="M397.113 33.2422L397.29 32.8292C395.828 32.3081 393.537 31.9603 390.988 31.8168C388.446 31.7093 385.727 31.8272 383.385 32.317C382.089 32.5883 380.966 32.9735 380.061 33.5012C379.157 34.0288 378.477 34.7349 378.211 35.6178C376.859 40.2993 337.84 164.147 303.839 231.828L304.252 232.005L304.061 231.631C292.921 236.969 288.158 243.492 285.104 249.921L269.538 282.804L269.879 282.995C271.301 283.863 272.731 284.767 274.125 285.679L274.553 285.928L274.794 285.464C280.11 275.291 285.051 265.121 288.535 256.798L288.122 256.621L288.061 257.047C289.535 257.265 290.361 257.619 290.855 258.004C291.342 258.354 291.577 258.756 291.862 259.222L292.228 258.995L291.823 258.854C287.921 268.957 283.453 278.689 278.724 288.251L278.568 288.584L278.873 288.784C280.1 289.617 281.334 290.487 282.569 291.356L283.012 291.677L283.253 291.213C288.335 281.54 293.129 271.928 298.376 262.145L297.963 261.969L297.982 262.416C299.244 262.34 299.996 262.521 300.54 262.783C301.084 263.045 301.426 263.425 301.791 263.912L302.15 263.649L301.737 263.473C296.395 274.779 291.685 284.073 286.445 293.891L286.29 294.225L286.558 294.432C287.772 295.381 288.957 296.374 290.15 297.402L290.565 297.767L290.842 297.295C296.789 287.442 302.418 277.692 308.171 267.991L307.787 267.771L307.877 268.203C308.641 268.081 309.335 268.162 309.907 268.38C310.479 268.599 310.973 268.984 311.405 269.608L311.763 269.345L311.35 269.169C306.71 279.877 301.03 290.464 294.787 301.057L294.595 301.398L294.908 301.633C296.324 302.653 297.875 303.418 299.519 304.089L299.889 304.238L300.088 303.933C305.77 295.15 310.796 286.466 314.547 278.876C318.334 271.279 320.853 264.812 321.463 260.361C321.72 258.352 321.429 255.706 320.834 252.86C319.191 245.008 315.371 235.731 315.363 235.695L314.946 235.858L315.387 235.991C326.622 203.075 348.16 162.439 368.061 127.634C377.997 110.254 387.513 94.2771 395.144 81.5144C402.768 68.7157 408.464 59.1024 410.803 54.2895C411.32 53.1662 411.307 51.6652 410.966 49.8566C410.356 46.939 408.707 43.3738 406.348 40.183C403.989 36.9921 400.882 34.1832 397.269 32.9088L397.093 33.3218L396.916 33.7347C400.29 34.9463 403.294 37.6262 405.595 40.7165C407.896 43.8068 409.493 47.3075 410.065 50.045C410.412 51.7019 410.367 53.1025 409.97 53.8999C407.687 58.6257 401.963 68.2826 394.332 81.0453C371.489 119.398 331.431 186.165 314.497 235.689L314.455 235.848L314.485 235.992C314.485 235.992 314.551 236.128 314.684 236.401C315.415 238.279 318.509 246.241 319.926 253.013C320.514 255.822 320.789 258.396 320.531 260.217C319.919 264.481 317.436 270.941 313.677 278.494C309.919 286.048 304.893 294.732 299.24 303.471L299.624 303.692L299.801 303.279C298.2 302.636 296.721 301.855 295.363 300.936L295.099 301.292L295.484 301.512C301.727 290.92 307.436 280.289 312.068 269.545L312.174 269.335L312.021 269.141C311.531 268.416 310.855 267.881 310.117 267.584C309.378 267.288 308.504 267.245 307.596 267.397L307.38 267.443L307.266 267.617C301.484 277.361 295.883 287.067 289.936 296.921L290.321 297.141L290.628 296.814C289.436 295.785 288.207 294.764 286.993 293.814L286.693 294.178L287.106 294.355C292.346 284.536 297.084 275.198 302.426 263.892L302.525 263.646L302.372 263.452C301.963 262.936 301.518 262.428 300.801 262.052C300.083 261.676 299.114 261.54 297.773 261.595L297.52 261.648L297.406 261.822C292.159 271.604 287.365 281.217 282.283 290.89L282.696 291.067L282.96 290.711C281.718 289.805 280.491 288.971 279.256 288.102L278.992 288.458L279.405 288.635C284.135 279.073 288.603 269.341 292.533 259.195L292.604 258.992L292.486 258.791C292.208 258.36 291.9 257.786 291.239 257.322C290.578 256.859 289.629 256.456 288.075 256.217L287.721 256.141L287.565 256.474C284.117 264.79 279.169 274.924 273.853 285.097L274.273 285.309L274.537 284.953C273.107 284.05 271.714 283.138 270.291 282.27L270.035 282.662L270.448 282.839L285.858 250.29C288.826 243.992 293.411 237.694 304.378 232.429L304.522 232.399L304.6 232.232C338.659 164.464 377.642 40.6244 379.022 35.8993C379.197 35.2987 379.683 34.7459 380.451 34.2844C381.219 33.823 382.313 33.4813 383.502 33.2326C385.699 32.7729 388.383 32.6626 390.844 32.7491C393.314 32.8716 395.569 33.227 396.872 33.7062L397.049 33.2933L397.113 33.2422Z" fill="#1D1D1B"/>
<path d="M290.291 257.259L283.772 253.773L270.141 282.604C271.563 283.472 272.957 284.383 274.387 285.287C279.702 275.114 284.651 264.981 288.135 256.657C289.103 256.793 289.791 257.025 290.327 257.252" fill="#1D1D1B"/>
<path d="M299.126 261.952L291.048 257.664C291.622 258.071 291.908 258.537 292.186 258.968C288.291 269.106 283.787 278.846 279.058 288.408C280.285 289.241 281.519 290.111 282.762 291.016C287.844 281.344 292.638 271.731 297.885 261.949C298.332 261.93 298.707 261.927 299.09 261.96" fill="#1D1D1B"/>
<path d="M302.087 263.513L302.102 263.585C296.804 274.92 292.058 284.222 286.818 294.04C288.032 294.989 289.225 296.018 290.417 297.047C296.364 287.193 302.001 277.479 307.747 267.743C309.455 267.461 310.802 267.969 311.759 269.31C307.119 280.018 301.439 290.606 295.203 301.234C296.576 302.225 298.128 302.991 299.728 303.633C307.225 292.027 313.591 280.582 317.402 271.663L302.087 263.513Z" fill="#1D1D1B"/>
<path d="M310.015 232.753C308.315 235.59 313.547 234.721 315.176 235.32C337.855 169.406 401.208 73.1017 410.415 54.0316C411.067 52.6546 410.778 50.196 409.779 47.3973C407.96 44.0934 405.215 41.3968 402.843 40.8404C400.116 40.2077 394.564 38.2865 393.734 40.791C388.537 56.2026 310.655 231.679 310.015 232.753Z" fill="#1D1D1B"/>
<path d="M314.977 235.815L314.961 235.743L303.126 232.542C292.858 237.735 288.366 243.939 285.483 250.106L283.74 253.817L317.832 270.671C319.521 266.52 320.658 262.974 321.067 260.257C322.087 253.088 315.02 235.843 315.02 235.843" fill="#1D1D1B"/>
<path d="M290.305 248.684C297.779 250.805 311.365 257.7 312.888 256.892C313.836 256.393 299.541 250.962 292.119 245.673C290.104 247.184 290.427 247.831 290.297 248.648" fill="#1D1D1B"/>
<path d="M305.207 230.075L309.215 233.597C336.768 172.829 365.807 104.795 394.107 40.4121C394.107 40.4121 389.847 34.4233 386.96 33.5611C385.273 33.0491 382.481 33.8966 380.028 34.0338C379.332 34.4802 378.853 35.069 378.686 35.7056C377.327 40.3511 339.075 161.933 305.279 230.059" fill="#1D1D1B"/>
<path d="M312.473 235.7C314.013 240.905 314.705 242.414 315.497 244.58C315.778 245.385 311.961 245.47 310.883 241.935C308.99 235.94 312.287 234.987 312.502 235.657" fill="#1D1D1B"/>
<path d="M310.543 272.121C306.118 281.882 300.885 291.549 295.204 301.234C295.916 301.762 296.685 302.203 297.49 302.636C303.044 294.142 308.457 285.152 313.653 275.305C313.42 273.474 312.916 271.963 310.551 272.157" fill="#1D1D1B"/>
<path d="M314.496 253.849C315.517 258.373 302.529 250.563 300.86 247.077C300.199 245.712 305.82 229.272 308.3 235.557C311.21 242.994 313.653 250.003 314.496 253.849Z" fill="#1D1D1B"/>
<path d="M301.351 265.209C296.342 275.769 291.808 284.65 286.818 294.041C287.494 294.576 288.213 295.14 288.897 295.711C294.792 285.793 300.086 276.414 303.041 270.232C303.651 269.014 302.28 266.594 301.343 265.173" fill="#1D1D1B"/>
<path d="M291.404 260.973C287.698 270.396 283.469 279.476 279.059 288.407C279.764 288.899 280.468 289.391 281.173 289.882C285.439 281.884 289.27 274.315 291.745 268.534C292.621 266.433 291.404 260.973 291.404 260.973Z" fill="#1D1D1B"/>
<path d="M283.244 254.862L270.109 282.649C271.016 283.211 271.879 283.745 272.786 284.307C279.83 270.351 284.742 258.608 283.244 254.862Z" fill="#1D1D1B"/>
<path d="M307.126 266.219L309.069 267.241C309.488 267.267 309.85 267.379 310.211 267.491C310.378 267.569 310.537 267.611 310.675 267.732C310.66 267.66 310.609 267.596 310.558 267.531C309.995 266.634 308.026 266.031 307.082 266.191" fill="#1D1D1B"/>
<path d="M309.076 267.277L310.896 268.25C310.896 268.25 310.792 267.933 310.682 267.768C310.516 267.69 310.385 267.605 310.226 267.563C309.856 267.415 309.466 267.346 309.083 267.313" fill="#1D1D1B"/>
<path d="M307.09 266.226C307.09 266.226 306.838 266.279 306.781 266.366C305.197 267.599 300.486 277.608 301.233 278.843C302.314 277 303.366 275.201 304.447 273.358C305.556 271.472 306.673 269.622 307.782 267.735C309.058 267.544 310.113 267.736 310.971 268.422C310.956 268.35 310.941 268.278 310.926 268.206L309.106 267.233L307.162 266.211L307.126 266.218" fill="#1D1D1B"/>
<path d="M297.282 260.496C297.282 260.496 297.096 260.686 296.975 260.824L298.244 261.498C298.655 261.487 299.03 261.484 299.341 261.532L297.246 260.504L297.282 260.496Z" fill="#1D1D1B"/>
<path d="M298.249 261.497L299.133 261.951C300.354 262.034 301.043 262.454 301.567 262.984C301.545 262.876 301.514 262.731 301.528 262.616L299.353 261.567C299.007 261.527 298.667 261.522 298.256 261.533M297.204 263.333C295.45 266.632 293.761 269.88 292.072 273.128C293.761 269.88 295.443 266.596 297.204 263.333Z" fill="#1D1D1B"/>
<path d="M296.975 260.824C295.268 262.91 291.925 271.731 291.785 273.038C291.836 273.103 291.923 273.16 292.032 273.137C293.721 269.889 295.402 266.604 297.163 263.341C297.404 262.877 297.646 262.413 297.887 261.949C298.334 261.931 298.709 261.927 299.092 261.96L298.208 261.506L296.939 260.831L296.975 260.824Z" fill="#1D1D1B"/>
<path d="M297.593 260.356C297.593 260.356 297.341 260.409 297.284 260.496L299.379 261.524L301.554 262.573C301.493 262.285 301.39 261.968 301.17 261.638C300.599 260.705 298.522 260.124 297.622 260.313" fill="#1D1D1B"/>
<path d="M287.771 255.794C287.771 255.794 287.735 255.801 287.714 255.881L288.432 256.257C288.432 256.257 288.743 256.305 288.902 256.347L287.771 255.794ZM291.969 257.886C291.969 257.886 292.063 257.979 292.071 258.015C292.071 258.015 292.056 257.943 292.048 257.907L291.925 257.857L291.969 257.886Z" fill="#1D1D1B"/>
<path d="M288.426 256.259L290.115 257.146C290.564 257.316 290.905 257.507 291.166 257.678L292.138 258.189C292.138 258.189 292.116 258.081 292.1 258.009C292.085 257.937 292.006 257.916 291.991 257.844L288.932 256.341C288.932 256.341 288.621 256.293 288.462 256.252M291.749 258.308C291.749 258.308 291.954 258.566 292.012 258.667C291.946 258.53 291.852 258.437 291.749 258.308Z" fill="#1D1D1B"/>
<path d="M287.676 255.889C286.067 257.542 282.622 266.233 282.227 268.12C282.265 268.3 282.395 268.386 282.575 268.348C282.647 268.333 282.756 268.311 282.856 268.252C284.783 264.164 286.56 260.258 288.073 256.709C288.926 256.831 289.562 256.999 290.055 257.196L288.402 256.302L287.684 255.925L287.676 255.889Z" fill="#1D1D1B"/>
<path d="M291.141 257.721C291.41 257.928 291.6 258.114 291.76 258.344C291.863 258.473 291.957 258.566 292.023 258.702C292.073 258.579 292.115 258.42 292.077 258.24L291.105 257.729L291.141 257.721Z" fill="#1D1D1B"/>
<path d="M288.142 255.604C288.142 255.604 287.89 255.657 287.833 255.744C287.833 255.744 287.761 255.759 287.769 255.795L288.899 256.348L291.966 257.887L292.089 257.936C292.029 257.648 291.917 257.296 291.683 256.893C291.112 255.96 289.079 255.408 288.178 255.596" fill="#1D1D1B"/>
<path d="M316.211 269.883C316.127 270.201 316 270.491 315.888 270.853L317.033 271.478C317.189 271.145 317.309 270.819 317.465 270.485L316.211 269.883Z" fill="#1D1D1B"/>
<path d="M317.353 242.161C319.256 247.665 321.534 255.497 321.068 259.918C321.519 255.425 319.205 247.6 317.353 242.161ZM321.063 260.258C320.69 262.967 319.545 266.478 317.885 270.585C319.581 266.47 320.69 262.967 321.063 260.258ZM317.408 270.459C317.252 270.792 317.132 271.118 316.984 271.488L317.368 271.708C317.524 271.375 317.672 271.005 317.792 270.679L317.379 270.503L317.408 270.459Z" fill="#1D1D1B"/>
<path d="M315.846 270.862C312.686 280.02 305.777 292.819 299.448 303.542C299.528 303.563 299.615 303.62 299.695 303.641C307.192 292.034 313.565 280.625 317.369 271.671L316.984 271.451L315.838 270.826L315.846 270.862Z" fill="#1D1D1B"/>
<path d="M314.609 236.381C314.609 236.381 317.612 248.761 318.151 254.212C318.566 258.712 317.58 265.498 316.189 269.812L317.443 270.414L317.856 270.591C317.856 270.591 317.884 270.548 317.877 270.512C319.573 266.397 320.682 262.894 321.055 260.184C321.04 260.112 321.061 260.033 321.082 259.953C321.512 255.54 319.242 247.743 317.367 242.195C316.33 239.217 315.444 236.958 315.215 236.405L314.624 236.453L314.609 236.381Z" fill="#1D1D1B"/>
<path d="M300.389 259.32C299.56 259.494 298.591 260.072 298.591 260.072C300.109 260.319 301.327 260.929 302.65 262.043C302.65 262.043 302.24 259.723 301.183 259.342C300.98 259.272 300.684 259.296 300.396 259.356" fill="#1D1D1B"/>
<path d="M308.403 266.027L308.238 266.137C308.433 266.171 308.672 266.234 308.867 266.268L308.403 266.027ZM311.839 267.714C311.839 267.714 312.151 267.95 312.289 268.071C312.289 268.071 312.282 268.035 312.259 267.927L311.839 267.714Z" fill="#1D1D1B"/>
<path d="M310.021 265.349C309.409 265.477 308.698 265.852 308.388 265.992L308.852 266.233C309.923 266.498 310.851 266.98 311.832 267.715L312.252 267.928C312.147 267.423 311.713 265.71 310.779 265.379C310.576 265.308 310.273 265.297 309.985 265.357" fill="#1D1D1B"/>
<path d="M290.096 254.179C289.267 254.352 288.298 254.931 288.298 254.931C289.816 255.177 290.998 255.795 292.357 256.901C292.357 256.901 291.947 254.581 290.89 254.201C290.687 254.13 290.384 254.119 290.096 254.179Z" fill="#1D1D1B"/>
<path d="M308.504 232.354C332.148 183.457 354.177 133.845 375.496 83.8938L373.807 82.292L306.303 232.438C307.173 232.82 307.887 232.821 308.468 232.361" fill="#1D1D1B"/>
<path d="M331.167 184.002L383.431 66.8575L392.024 82.7679L344.353 167.596C340.2 175.42 335.674 179.487 331.167 184.002Z" fill="#1D1D1B"/>
<path d="M238.596 475.117C238.56 475.125 238.481 475.104 238.437 475.075L228.718 473.725C228.256 473.671 227.898 473.22 227.988 472.75C228.041 472.288 228.493 471.93 228.963 472.02L237.981 473.254L238.985 466.013L231.362 464.976C230.899 464.922 230.542 464.471 230.631 464.001C230.685 463.539 231.137 463.181 231.606 463.271L239.23 464.307L240.498 455.094C240.552 454.632 241.003 454.274 241.473 454.364C241.935 454.418 242.293 454.869 242.203 455.339L240.819 465.253C240.819 465.253 240.841 465.361 240.813 465.405C240.82 465.441 240.799 465.521 240.771 465.564L239.585 474.271C239.585 474.271 239.608 474.379 239.615 474.415C239.581 474.611 239.446 474.864 239.281 474.974C239.116 475.084 238.835 475.18 238.64 475.146L238.596 475.117Z" stroke="#1D1D1B" stroke-width="1.54061" stroke-miterlimit="1.78"/>
<path d="M211.67 469.66C209.216 468.895 207.925 466.496 207.551 464.168C207.177 461.84 207.553 459.506 208.234 457.371C208.908 455.2 209.892 453.076 211.522 451.344C213.153 449.612 215.559 448.357 218.013 449.122C220.466 449.887 221.758 452.286 222.132 454.614C222.506 456.941 222.13 459.276 221.449 461.411C220.775 463.582 219.79 465.706 218.16 467.438C216.53 469.17 214.123 470.425 211.67 469.66ZM212.182 467.974C213.788 468.465 215.535 467.649 216.894 466.236C218.245 464.788 219.131 462.911 219.77 460.935C220.402 458.923 220.73 456.899 220.395 454.939C220.068 453.015 219.115 451.335 217.508 450.844C215.902 450.353 214.155 451.169 212.796 452.581C211.445 454.03 210.559 455.907 209.92 457.883C209.288 459.895 208.96 461.918 209.295 463.879C209.622 465.803 210.575 467.483 212.182 467.974Z" stroke="#1D1D1B" stroke-width="1.54061" stroke-miterlimit="1.78"/>
<path d="M196.548 463.876L192.81 462.364C191.253 461.75 189.685 460.725 188.92 459.043C188.235 457.569 188.344 455.93 188.908 454.496C189.473 453.062 190.566 451.818 192.055 451.206C193.026 450.815 194.036 450.791 194.997 450.891L193.629 441.477C193.629 441.477 193.633 441.138 193.682 441.015C193.852 440.566 194.369 440.345 194.818 440.514C195.065 440.613 195.32 440.936 195.344 441.231L196.827 451.373C196.827 451.373 197.073 451.472 197.153 451.493L200.072 452.687L203.215 444.886C203.384 444.437 203.902 444.216 204.35 444.385C204.799 444.554 205.021 445.072 204.851 445.521L201.433 453.981C201.433 453.981 201.412 454.06 201.383 454.104C201.355 454.148 201.327 454.191 201.334 454.227L197.669 463.303C197.499 463.752 196.982 463.973 196.533 463.804L196.548 463.876ZM196.408 461.95L199.48 454.352L196.561 453.158C195.243 452.607 193.884 452.402 192.741 452.867C191.77 453.258 191.005 454.095 190.589 455.159C190.172 456.224 190.11 457.365 190.537 458.328C191.038 459.464 192.178 460.241 193.489 460.756L196.408 461.95Z" stroke="#1D1D1B" stroke-width="1.54061" stroke-miterlimit="1.78"/>
<path d="M169.32 453.217C168.871 453.048 168.65 452.53 168.819 452.081C168.889 451.879 169.111 451.682 169.284 451.608L180.11 446.749L175.152 434.552C175.079 434.38 175.054 434.084 175.125 433.881C175.294 433.432 175.812 433.211 176.261 433.381C176.463 433.451 176.696 433.665 176.742 433.882L182.009 446.841C182.047 447.021 182.107 447.309 182.029 447.476C181.951 447.642 181.737 447.875 181.564 447.949L169.983 453.154C169.811 453.227 169.515 453.252 169.312 453.181L169.32 453.217ZM179.669 457.218C179.22 457.049 178.999 456.531 179.168 456.082L186.133 438.158C186.302 437.709 186.82 437.488 187.269 437.657C187.718 437.826 187.939 438.344 187.77 438.793L180.805 456.717C180.635 457.166 180.118 457.387 179.669 457.218Z" stroke="#1D1D1B" stroke-width="1.54061" stroke-miterlimit="1.78"/>
<path d="M134.322 426.816C134.322 426.816 134.263 426.715 134.22 426.687L130.433 422.065C130.126 421.678 130.201 421.136 130.552 420.837C130.939 420.531 131.481 420.605 131.78 420.956L135.114 425.034L149.345 413.447C149.732 413.14 150.274 413.215 150.573 413.566C150.88 413.953 150.805 414.495 150.454 414.794L136.223 426.381L139.558 430.458C139.864 430.845 139.79 431.387 139.439 431.686C139.052 431.992 138.51 431.918 138.211 431.567L134.424 426.945C134.424 426.945 134.373 426.881 134.329 426.852L134.322 426.816Z" stroke="#1D1D1B" stroke-width="1.54061" stroke-miterlimit="1.78"/>
<path d="M123.718 411.364C123.512 410.918 123.666 410.397 124.112 410.191L131.426 406.518L127.496 398.693L120.181 402.366C119.772 402.565 119.251 402.41 119.009 401.972C118.803 401.527 118.957 401.006 119.402 400.8L127.364 396.803C127.364 396.803 127.464 396.744 127.5 396.737C127.536 396.729 127.608 396.714 127.644 396.707L136.59 392.204C137.036 391.997 137.557 392.152 137.763 392.597C137.969 393.043 137.815 393.564 137.369 393.77L129.07 397.95L133 405.775L141.299 401.595C141.745 401.389 142.266 401.543 142.472 401.989C142.678 402.434 142.524 402.955 142.078 403.161L133.133 407.665C133.133 407.665 133.032 407.723 132.996 407.731C132.96 407.738 132.888 407.753 132.852 407.761L124.891 411.758C124.481 411.956 123.96 411.802 123.718 411.364Z" stroke="#1D1D1B" stroke-width="1.54061" stroke-miterlimit="1.78"/>
<path d="M114.363 391.29C114.356 391.254 114.341 391.182 114.333 391.146L110.725 381.449C110.555 380.995 110.789 380.495 111.242 380.325C111.695 380.155 112.195 380.389 112.365 380.842L115.722 389.877L122.592 387.312L119.753 379.673C119.583 379.219 119.817 378.719 120.27 378.549C120.723 378.379 121.223 378.613 121.393 379.066L124.232 386.706L132.116 383.778L128.76 374.743C128.59 374.29 128.823 373.79 129.277 373.62C129.73 373.45 130.23 373.684 130.4 374.137L134.008 383.834C134.008 383.834 134.03 383.942 134.038 383.978C134.083 384.194 134.107 384.49 133.993 384.664C133.915 384.831 133.701 385.063 133.485 385.109C133.449 385.116 133.377 385.131 133.341 385.139L124.061 388.584C124.061 388.584 123.953 388.607 123.917 388.614C123.881 388.622 123.809 388.637 123.773 388.644L115.543 391.719C115.543 391.719 115.435 391.742 115.399 391.75C115.219 391.787 114.931 391.848 114.757 391.734C114.59 391.656 114.357 391.441 114.284 391.269L114.363 391.29Z" stroke="#1D1D1B" stroke-width="1.54061" stroke-miterlimit="1.78"/>
<path d="M238.596 475.117C238.56 475.125 238.481 475.104 238.437 475.075L228.718 473.725C228.256 473.671 227.898 473.22 227.988 472.75C228.041 472.288 228.493 471.93 228.963 472.02L237.981 473.254L238.985 466.013L231.362 464.976C230.899 464.922 230.542 464.471 230.631 464.001C230.685 463.539 231.137 463.181 231.606 463.271L239.23 464.307L240.498 455.094C240.552 454.632 241.003 454.274 241.473 454.364C241.935 454.418 242.293 454.869 242.203 455.339L240.819 465.253C240.819 465.253 240.841 465.361 240.813 465.405C240.82 465.441 240.799 465.521 240.771 465.564L239.585 474.271C239.585 474.271 239.608 474.379 239.615 474.415C239.581 474.611 239.446 474.864 239.281 474.974C239.116 475.084 238.835 475.18 238.64 475.146L238.596 475.117Z" fill="#1D1D1B"/>
<path d="M211.67 469.66C209.216 468.895 207.925 466.496 207.551 464.168C207.177 461.84 207.553 459.506 208.234 457.371C208.908 455.2 209.892 453.076 211.522 451.344C213.153 449.612 215.559 448.357 218.013 449.122C220.466 449.887 221.758 452.286 222.132 454.614C222.506 456.941 222.13 459.276 221.449 461.411C220.775 463.582 219.79 465.706 218.16 467.438C216.53 469.17 214.123 470.425 211.67 469.66ZM212.182 467.974C213.788 468.465 215.535 467.649 216.894 466.236C218.245 464.788 219.131 462.911 219.77 460.935C220.402 458.923 220.73 456.899 220.395 454.939C220.068 453.015 219.115 451.335 217.508 450.844C215.902 450.353 214.155 451.169 212.796 452.581C211.445 454.03 210.559 455.907 209.92 457.883C209.288 459.895 208.96 461.918 209.295 463.879C209.622 465.803 210.575 467.483 212.182 467.974Z" fill="#1D1D1B"/>
<path d="M196.548 463.876L192.81 462.364C191.253 461.75 189.685 460.725 188.92 459.043C188.235 457.569 188.344 455.93 188.908 454.496C189.473 453.062 190.566 451.818 192.055 451.206C193.026 450.815 194.036 450.791 194.997 450.891L193.629 441.477C193.629 441.477 193.633 441.138 193.682 441.015C193.852 440.566 194.369 440.345 194.818 440.514C195.065 440.613 195.32 440.936 195.344 441.231L196.827 451.373C196.827 451.373 197.073 451.472 197.153 451.493L200.072 452.687L203.215 444.886C203.384 444.437 203.902 444.216 204.35 444.385C204.799 444.554 205.021 445.072 204.851 445.521L201.433 453.981C201.433 453.981 201.412 454.06 201.383 454.104C201.355 454.148 201.327 454.191 201.334 454.227L197.669 463.303C197.499 463.752 196.982 463.973 196.533 463.804L196.548 463.876ZM196.408 461.95L199.48 454.352L196.561 453.158C195.243 452.607 193.884 452.402 192.741 452.867C191.77 453.258 191.005 454.095 190.589 455.159C190.172 456.224 190.11 457.365 190.537 458.328C191.038 459.464 192.178 460.241 193.489 460.756L196.408 461.95Z" fill="#1D1D1B"/>
<path d="M169.32 453.217C168.871 453.048 168.65 452.53 168.819 452.081C168.889 451.879 169.111 451.682 169.284 451.608L180.11 446.749L175.152 434.552C175.079 434.38 175.054 434.084 175.125 433.881C175.294 433.432 175.812 433.211 176.261 433.381C176.463 433.451 176.696 433.665 176.742 433.882L182.009 446.841C182.047 447.021 182.107 447.309 182.029 447.476C181.951 447.642 181.737 447.875 181.564 447.949L169.983 453.154C169.811 453.227 169.515 453.252 169.312 453.181L169.32 453.217ZM179.669 457.218C179.22 457.049 178.999 456.531 179.168 456.082L186.133 438.158C186.302 437.709 186.82 437.488 187.269 437.657C187.718 437.826 187.939 438.344 187.77 438.793L180.805 456.717C180.635 457.166 180.118 457.387 179.669 457.218Z" fill="#1D1D1B"/>
<path d="M134.322 426.816C134.322 426.816 134.263 426.715 134.22 426.687L130.433 422.065C130.126 421.678 130.201 421.136 130.552 420.837C130.939 420.531 131.481 420.605 131.78 420.956L135.114 425.034L149.345 413.447C149.732 413.14 150.274 413.215 150.573 413.566C150.88 413.953 150.805 414.495 150.454 414.794L136.223 426.381L139.558 430.458C139.864 430.845 139.79 431.387 139.439 431.686C139.052 431.992 138.51 431.918 138.211 431.567L134.424 426.945C134.424 426.945 134.373 426.881 134.329 426.852L134.322 426.816Z" fill="#1D1D1B"/>
<path d="M123.718 411.364C123.512 410.918 123.666 410.397 124.112 410.191L131.426 406.518L127.496 398.693L120.181 402.366C119.772 402.565 119.251 402.41 119.009 401.972C118.803 401.527 118.957 401.006 119.402 400.8L127.364 396.803C127.364 396.803 127.464 396.744 127.5 396.737C127.536 396.729 127.608 396.714 127.644 396.707L136.59 392.204C137.036 391.997 137.557 392.152 137.763 392.597C137.969 393.043 137.815 393.564 137.369 393.77L129.07 397.95L133 405.775L141.299 401.595C141.745 401.389 142.266 401.543 142.472 401.989C142.678 402.434 142.524 402.955 142.078 403.161L133.133 407.665C133.133 407.665 133.032 407.723 132.996 407.731C132.96 407.738 132.888 407.753 132.852 407.761L124.891 411.758C124.481 411.956 123.96 411.802 123.718 411.364Z" fill="#1D1D1B"/>
<path d="M114.363 391.29C114.356 391.254 114.341 391.182 114.333 391.146L110.725 381.449C110.555 380.995 110.789 380.495 111.242 380.325C111.695 380.155 112.195 380.389 112.365 380.842L115.722 389.877L122.592 387.312L119.753 379.673C119.583 379.219 119.817 378.719 120.27 378.549C120.723 378.379 121.223 378.613 121.393 379.066L124.232 386.706L132.116 383.778L128.76 374.743C128.59 374.29 128.823 373.79 129.277 373.62C129.73 373.45 130.23 373.684 130.4 374.137L134.008 383.834C134.008 383.834 134.03 383.942 134.038 383.978C134.083 384.194 134.107 384.49 133.993 384.664C133.915 384.831 133.701 385.063 133.485 385.109C133.449 385.116 133.377 385.131 133.341 385.139L124.061 388.584C124.061 388.584 123.953 388.607 123.917 388.614C123.881 388.622 123.809 388.637 123.773 388.644L115.543 391.719C115.543 391.719 115.435 391.742 115.399 391.75C115.219 391.787 114.931 391.848 114.757 391.734C114.59 391.656 114.357 391.441 114.284 391.269L114.363 391.29Z" fill="#1D1D1B"/>
<path d="M375.252 414.683C375.252 414.683 375.491 414.746 375.614 414.795C375.591 413.785 374.551 412.95 374.232 411.964C373.832 410.769 373.077 409.498 372.267 408.502C371.509 407.571 370.797 407.043 370.338 405.748C369.265 402.777 368.063 399.908 367.343 396.825C366.579 393.714 366.032 390.557 365.556 387.386C365.171 384.647 364.854 382.232 363.864 379.657C363.014 377.391 362.308 375.095 361.286 372.903C360.307 370.739 359.119 368.656 358.176 366.485C357.955 365.967 357.815 365.658 357.357 365.265C356.571 364.565 355.412 364.056 354.562 363.406C353.304 362.429 352.011 361.459 350.847 360.386C349.202 358.813 347.965 356.854 346.743 354.966C345.909 353.675 345.039 352.39 344.477 350.966C343.008 347.176 341.798 343.369 339.638 339.873C337.771 336.88 335.659 333.975 333.591 331.099C332.568 329.622 332.064 328.111 331.45 326.434C331.021 325.283 330.556 324.14 330.444 322.885C330.317 321.558 330.717 320.234 330.301 318.967C329.818 317.377 328.476 315.815 327.454 314.525C325.702 312.26 322.04 311.109 319.175 311.069C317.586 311.025 316.03 311.313 314.51 311.594C313.645 311.775 311.94 312.432 311.065 312.202C307.202 311.168 303.86 310.288 299.989 309.218C299.669 310.563 299.433 311.59 299.301 312.219C297.587 311.036 295.184 309.433 292.81 307.787C292.465 307.935 292.112 308.046 291.731 308.201C293.336 310.121 294.94 312.041 295.998 313.324C300.93 314.435 304.907 315.295 308.848 316.162C294.684 310.816 292.631 318.615 287.122 322.474C288.333 321.431 289.543 320.389 290.754 319.346C290.405 319.118 290.065 318.926 289.716 318.698C291.659 317.202 293.601 315.705 295.537 314.172C294.701 314.309 293.857 314.411 293.021 314.548C290.667 311.92 288.305 309.256 285.95 306.628C287.095 306.351 288.204 306.081 289.313 305.812C287.456 305.561 285.563 305.318 285.137 305.257C282.013 303.805 280.108 302.963 278.159 302.092C278.192 302.612 278.226 303.131 278.259 303.651C274.85 303.349 271.229 303.655 268.045 302.629C264.781 301.583 261.88 299.22 258.623 297.307C254.531 297.336 249.464 297.381 245.293 297.389C245.097 300.588 244.65 303.839 244.678 307.029C244.675 307.556 244.616 308.17 245.082 308.599C245.468 309.007 246.13 308.756 246.487 309.207C247.151 310.046 245.808 311.53 245.191 311.997C243.491 313.218 241.626 313.646 240.532 315.604C239.85 316.837 239.348 318.032 238.543 319.216C237.282 321.096 236.078 322.889 234.497 324.498C232.402 326.704 230.627 329.181 228.626 331.479C227.29 332.999 226.316 334.632 225.154 336.266C222.559 339.854 219.687 343.199 216.815 346.545C214.729 348.974 213.996 351.759 213.38 354.745C213.164 355.692 213.108 356.682 212.849 357.601C212.507 358.838 211.888 359.832 211.247 360.906C210.21 362.777 208.882 364.333 207.699 366.047C206.829 367.282 206.227 368.536 205.27 369.713C204.52 370.622 204.119 371.759 203.311 372.567C202.817 373.084 202.221 373.472 201.7 374.032C199.232 376.616 196.328 378.727 193.81 381.247C193.094 381.96 192.337 382.833 191.527 383.454C190.753 384.067 189.817 384.263 188.91 384.603C186.745 385.394 184.917 386.002 182.595 386.225C177.727 386.679 171.591 388.978 168.801 393.434C171.535 391.584 171.894 388.088 174.243 386.017C176.019 384.443 177.768 384.716 180.012 384.66C186.189 384.533 193.222 381.671 197.127 376.793C198.611 374.904 199.724 372.678 200.578 370.469C200.987 369.369 201.148 367.981 201.847 367.008C202.995 365.49 205.054 364.908 206.167 363.397C207.543 361.53 207.531 359.315 209.568 357.911C210.128 357.531 210.759 357.136 211.385 356.892C211.63 356.803 212.466 356.666 212.709 356.389C213.36 355.727 213.232 354.4 213.362 353.583C213.867 350.244 214.918 347.543 216.683 344.655C217.465 343.363 217.698 341.961 218.394 340.613C218.954 339.518 219.422 338.518 219.903 337.402C220.616 335.599 221.623 333.583 222.807 332.057C223.756 330.844 225.041 329.973 226.171 328.91C229.056 326.163 232.65 323.757 236.038 321.62C237.43 320.727 238.91 319.891 239.727 318.404C241.005 316.069 242.04 313.108 242.197 310.443C242.28 309.223 242.24 307.953 242.091 306.706C241.998 305.898 241.659 305.179 241.573 304.408C241.387 302.98 242.279 300.952 242.968 299.755C243.466 298.899 243.753 297.936 244.207 297.052C244.42 296.631 244.69 296.124 245.033 295.789C245.191 295.643 245.356 295.533 245.528 295.46C245.874 295.312 247.293 295.09 247.483 295.276C241.641 289.994 235.762 284.72 229.892 279.482C227.29 279.086 224.876 278.689 222.39 278.306C221.706 276.833 221.029 275.396 220.337 273.886C220.373 273.878 220.784 273.868 221.152 273.828C221.835 275.114 222.474 276.372 223.164 277.693C227.608 278.268 231.9 278.836 235.347 279.318C238.119 277.835 240.374 276.574 242.572 275.4C241.11 273.262 239.224 270.536 237.557 268.14C238.014 268.346 239.137 268.863 240.296 269.372C241.453 268.792 242.409 268.328 243.401 267.858C244.697 267.586 245.958 267.323 247.255 267.051C245.113 264.003 242.979 260.991 240.838 257.942C239.507 257.694 238.185 257.482 236.855 257.234C241.703 258.664 246.595 260.121 252.362 261.81C251.929 261.9 252.398 261.802 253.075 261.623C252.151 260.801 251.285 260.08 250.413 259.323C249.185 259.204 248 259.113 246.729 258.966C246.197 258.4 245.673 257.871 245.279 257.427C246.74 257.76 248.252 258.158 249.908 258.526C250.247 256.914 250.56 255.532 250.865 254.115C249.454 252.944 248.068 252.068 247.181 250.524C246.807 249.813 246.138 249.314 245.8 248.595C245.513 247.941 245.29 247.236 245.075 246.566C244.808 245.833 244.599 245.012 244.232 244.336C243.602 243.303 242.75 242.466 242.028 241.527C240.327 239.326 238.496 237.228 236.824 234.983C235.984 233.843 235.066 232.87 234.319 231.635C233.242 229.905 232.166 228.175 231.09 226.446C230.065 224.78 229.313 222.982 228.216 221.332C227.103 219.61 226.365 217.697 225.353 215.916C224.063 213.704 222.498 212.152 220.565 210.639C219.351 209.69 218.077 208.452 216.757 207.713C215.944 207.244 215.046 206.906 214.149 206.567C212.591 205.953 210.053 204.604 208.338 204.85C209.27 204.994 210.195 205.101 211.112 205.172C211.487 205.169 211.884 205.086 212.23 205.126C212.968 205.235 212.89 205.402 213.42 205.78C214.168 206.3 215.037 206.682 215.806 207.123C216.539 207.571 217.295 208.127 218.084 208.488C218.961 208.906 219.748 208.892 220.526 209.557C221.85 210.671 222.345 211.958 222.928 213.49C223.202 214.26 223.719 214.754 224.057 215.472C224.505 216.356 224.745 217.321 225.265 218.19C225.821 219.051 226.377 219.912 226.797 220.84C227.746 222.859 228.601 224.974 229.658 226.971C230.349 228.292 231.133 229.707 232.21 230.723C233.469 231.888 234.878 232.871 236.08 234.124C236.707 234.782 237.398 235.39 237.996 236.092C238.798 237.052 239.291 238.152 239.993 239.17C241.295 241.079 241.914 243.318 242.705 245.483C243.037 246.353 243.256 247.398 243.689 248.21C244.247 249.259 245.326 249.747 246.446 249.889C246.873 249.95 247.168 249.926 247.589 250.138C248.14 250.437 248.535 251.068 248.958 251.469C249.978 252.571 250.99 253.638 252.01 254.74C251.854 255.788 251.594 257.421 251.41 258.7C256.74 264.766 263.577 267.434 272.49 267.449C272.166 265.9 271.813 264.395 271.738 264.035C275.067 267.549 279.286 272.08 284.503 277.606C288.885 277.704 294.096 277.817 299.149 277.888C298.867 276.18 298.79 275.632 298.798 275.668C300.199 276.615 301.949 277.791 303.749 279.031C303.389 279.106 302.864 279.291 300.539 280.041C305.58 279.513 308.522 279.198 311.247 278.928C311.911 278.865 313.67 280.264 314.3 280.583C315.577 281.293 316.846 281.968 318.122 282.678C320.712 284.092 323.28 285.585 325.897 286.954C327.036 287.543 327.521 286.991 328.483 286.376C330.406 285.146 332.992 284.568 335.129 283.82C336.676 283.308 337.354 282.414 338.258 280.985C341.646 275.614 344.666 269.38 350.424 265.995C351.932 265.116 353.578 264.358 354.925 263.249C355.985 262.388 357.219 261.453 358.177 260.463C359.071 259.524 359.501 258.344 360.141 257.27C360.659 256.334 360.791 255.705 361.122 254.771C361.34 254.199 362.023 253.869 362.134 253.319C361.056 254.635 360.612 255.931 359.976 257.38C359.177 259.314 357.828 260.95 356.253 262.407C354.871 263.711 353.174 264.405 351.727 265.572C349.956 266.995 348.135 268.354 346.242 269.727C343.567 271.678 340.789 274.214 338.798 276.736C337.999 277.768 337.644 279.308 336.947 280.469C336.528 281.159 335.869 281.785 335.5 282.539C335.252 282.967 335.097 283.488 334.849 283.916C334.281 284.975 333.394 285.95 332.2 286.35C331.783 286.513 331.371 286.523 330.932 286.578C329.36 286.794 327.858 287.522 326.39 288.054C324.498 287.097 322.563 286.111 319.199 284.408C317.294 286.085 315.353 287.769 312.782 290.037C322.491 295.111 328.069 300.749 327.732 307.587C327.214 308.522 326.695 309.458 326.169 310.358C328.972 310.636 331.695 310.893 334.39 311.194C334.405 311.266 334.384 311.346 334.363 311.426C331.634 311.32 328.869 311.222 326.255 311.129C327.012 312.588 327.607 313.816 328.18 314.937C327.903 314.694 327.627 314.451 327.387 314.201" stroke="#1D1D1B" stroke-width="2.87917" stroke-miterlimit="10"/>
<path d="M378.98 415.595C378.98 415.595 379.226 415.694 379.342 415.708C379.311 414.661 378.264 413.79 377.952 412.84C377.544 411.61 376.746 410.31 375.936 409.314C375.17 408.347 374.45 407.783 373.992 406.488C372.904 403.445 371.687 400.504 370.916 397.356C370.137 394.173 369.574 390.945 369.084 387.701C368.684 384.89 368.359 382.439 367.354 379.792C366.496 377.49 365.739 375.13 364.745 372.894C363.759 370.694 362.563 368.576 361.569 366.34C361.341 365.786 361.172 365.521 360.75 365.12C359.957 364.384 358.762 363.882 357.912 363.233C356.654 362.255 355.318 361.256 354.146 360.148C352.457 358.546 351.213 356.551 349.94 354.599C349.098 353.271 348.184 351.959 347.615 350.498C346.131 346.636 344.898 342.721 342.651 339.168C340.733 336.11 338.57 333.141 336.487 330.194C335.42 328.687 334.945 327.133 334.287 325.428C333.851 324.241 333.343 323.069 333.266 321.807C333.139 320.48 333.524 319.083 333.137 317.773C332.646 316.147 331.297 314.549 330.231 313.231C328.428 310.901 324.73 309.757 321.821 309.689C320.197 309.653 318.633 309.905 317.04 310.2C316.14 310.389 314.399 311.054 313.524 310.823C309.581 309.768 306.195 308.86 302.245 307.769C301.925 309.114 301.696 310.177 301.536 310.85C299.779 309.638 297.368 308 294.914 306.333C294.569 306.48 294.18 306.599 293.835 306.746C295.447 308.702 297.096 310.651 298.197 311.962C303.209 313.094 307.265 313.975 311.294 314.899C296.876 309.419 294.781 317.376 289.179 321.33C290.418 320.244 291.664 319.194 292.867 318.115C292.519 317.887 292.171 317.659 291.822 317.431C293.793 315.891 295.764 314.351 297.736 312.81C296.864 312.955 296.02 313.057 295.148 313.201C292.742 310.509 290.337 307.817 287.967 305.117C289.12 304.875 290.258 304.562 291.403 304.285C289.51 304.042 287.609 303.763 287.147 303.709C283.944 302.236 281.994 301.366 280.038 300.459C280.071 300.979 280.112 301.534 280.146 302.053C276.664 301.767 273.001 302.044 269.736 300.998C266.392 299.93 263.477 297.495 260.14 295.562C255.968 295.57 250.786 295.601 246.586 295.652C246.37 298.931 245.938 302.255 245.981 305.517C245.986 306.08 245.926 306.694 246.392 307.122C246.814 307.523 247.44 307.279 247.805 307.767C248.477 308.641 247.141 310.162 246.488 310.636C244.796 311.893 242.858 312.336 241.764 314.294C241.082 315.527 240.552 316.766 239.754 317.985C238.465 319.909 237.225 321.71 235.659 323.391C233.5 325.648 231.739 328.197 229.674 330.546C228.31 332.11 227.343 333.778 226.145 335.42C223.521 339.052 220.6 342.52 217.664 345.917C215.549 348.389 214.795 351.254 214.187 354.276C213.979 355.26 213.923 356.249 213.671 357.204C213.329 358.441 212.681 359.479 212.048 360.589C211.019 362.496 209.654 364.06 208.45 365.853C207.588 367.124 206.95 368.385 205.965 369.606C205.215 370.515 204.785 371.695 203.984 372.54C203.455 373.064 202.867 373.488 202.373 374.005C199.878 376.632 196.909 378.795 194.326 381.365C193.582 382.122 192.825 382.995 192.015 383.616C191.241 384.229 190.268 384.432 189.326 384.78C187.124 385.579 185.268 386.23 182.902 386.424C181.092 386.578 179.246 386.738 177.453 387.151C175.147 387.633 172.862 388.751 170.661 389.549C167.962 390.49 165.993 392.218 163.595 393.697C162.389 394.4 161.293 395.269 159.977 395.807C157.862 396.663 155.638 397.354 153.501 398.102C150.947 399.012 148.249 399.953 145.996 401.402C145.271 401.892 145.051 402.276 144.508 402.916C143.73 403.868 142.682 404.614 141.671 405.352C140.926 405.921 140.275 406.584 139.486 407.125C138.862 407.556 138.245 408.024 137.716 408.548C136.163 410.113 135.403 411.513 134.461 413.477C135.069 412.072 136.302 411.137 136.846 409.783C137.645 407.848 138.69 406.915 140.331 405.595C141.75 404.471 143.323 403.54 144.706 402.424C145.637 401.665 146.195 401.097 147.346 400.668C148.08 400.402 148.821 400.171 149.519 399.913C151.059 399.365 152.592 398.969 154.26 399.034C156.354 399.159 158.478 400.144 160.553 399.822C166.305 398.92 170.217 394.079 174.009 390.278C175.282 388.996 176.656 387.656 178.287 386.826C179.781 386.062 181.495 385.628 183.063 385.037C188.589 383.054 193.909 381.528 197.656 376.796C199.169 374.863 200.311 372.594 201.157 370.349C201.595 369.205 201.719 367.825 202.454 366.844C203.631 365.282 205.726 364.693 206.867 363.139C208.28 361.264 208.252 358.977 210.318 357.529C210.878 357.149 211.509 356.754 212.171 356.503C212.416 356.414 213.288 356.269 213.531 355.993C214.21 355.286 214.083 353.96 214.205 353.107C214.695 349.696 215.775 346.951 217.56 343.983C218.342 342.692 218.596 341.21 219.292 339.861C219.852 338.767 220.348 337.723 220.822 336.571C221.563 334.724 222.563 332.673 223.776 331.103C224.717 329.854 226.074 328.968 227.197 327.869C230.146 325.071 233.805 322.614 237.257 320.425C238.685 319.525 240.193 318.646 241.01 317.159C242.317 314.78 243.337 311.747 243.522 309.039C243.597 307.782 243.55 306.476 243.438 305.222C243.344 304.414 243.006 303.695 242.912 302.888C242.718 301.424 243.638 299.352 244.328 298.155C244.826 297.299 245.105 296.301 245.588 295.373C245.837 294.945 246.063 294.408 246.443 294.066C246.6 293.92 246.765 293.81 246.974 293.729C247.355 293.574 248.775 293.352 248.964 293.538C242.984 288.135 237.011 282.768 231.066 277.357C228.421 276.933 225.971 276.543 223.449 276.168C222.757 274.659 222.073 273.185 221.337 271.647C221.373 271.64 221.821 271.621 222.153 271.589C222.843 272.911 223.518 274.161 224.215 275.519C228.739 276.114 233.11 276.703 236.593 277.178C239.394 275.652 241.722 274.376 243.956 273.194C242.45 271.028 240.549 268.23 238.867 265.762C239.359 265.959 240.49 266.512 241.649 267.022C242.806 266.441 243.798 265.971 244.818 265.457C246.115 265.185 247.448 264.906 248.737 264.599C246.544 261.486 244.395 258.402 242.202 255.289C240.836 255.048 239.506 254.8 238.14 254.56C243.111 256.039 248.039 257.489 253.937 259.263C253.468 259.361 254.009 259.248 254.65 259.076C253.682 258.226 252.809 257.468 251.937 256.711C250.673 256.6 249.481 256.473 248.181 256.369C247.649 255.804 247.117 255.238 246.723 254.794C248.228 255.156 249.768 255.511 251.432 255.915C251.763 254.266 252.068 252.849 252.366 251.395C250.955 250.224 249.482 249.292 248.624 247.704C248.249 246.993 247.537 246.465 247.235 245.739C246.948 245.085 246.717 244.344 246.459 243.646C246.192 242.912 245.976 242.055 245.573 241.387C244.935 240.318 244.047 239.488 243.317 238.513C241.601 236.24 239.727 234.113 238.011 231.841C237.128 230.672 236.202 229.663 235.455 228.428C234.371 226.662 233.251 224.904 232.168 223.138C231.099 221.444 230.339 219.61 229.235 217.924C228.079 216.173 227.325 214.188 226.306 212.371C225.001 210.087 223.399 208.543 221.423 207.001C220.166 206.024 218.892 204.786 217.564 204.011C216.715 203.55 215.853 203.204 214.904 202.801C213.304 202.158 210.73 200.817 208.971 201.034C209.903 201.178 210.871 201.313 211.817 201.341C212.2 201.374 212.588 201.255 212.971 201.288C213.744 201.389 213.631 201.563 214.197 201.934C214.945 202.454 215.85 202.828 216.627 203.305C217.396 203.746 218.159 204.338 218.948 204.699C219.869 205.146 220.656 205.131 221.434 205.796C222.765 206.946 223.296 208.226 223.894 209.83C224.168 210.6 224.685 211.093 225.067 211.841C225.523 212.76 225.762 213.725 226.318 214.587C226.882 215.484 227.438 216.345 227.901 217.301C228.901 219.385 229.765 221.535 230.793 223.576C231.491 224.934 232.275 226.349 233.404 227.428C234.67 228.63 236.122 229.642 237.324 230.894C237.958 231.589 238.649 232.196 239.255 232.934C240.057 233.894 240.558 235.03 241.268 236.085C242.577 238.029 243.211 240.34 244.046 242.534C244.386 243.44 244.604 244.485 245.045 245.333C245.61 246.418 246.726 246.898 247.853 247.076C248.279 247.137 248.611 247.105 248.996 247.326C249.547 247.624 249.986 248.284 250.372 248.692C251.392 249.795 252.456 250.926 253.476 252.028C253.327 253.112 253.074 254.781 252.898 256.096C258.33 262.291 265.297 265.045 274.362 265.065C274.031 263.481 273.671 261.939 273.595 261.579C276.983 265.194 281.297 269.818 286.608 275.437C291.062 275.52 296.353 275.654 301.522 275.738C301.224 273.958 301.155 273.446 301.162 273.482C302.564 274.43 304.365 275.669 306.209 276.938C305.82 277.057 305.331 277.234 302.935 277.999C308.047 277.456 311.068 277.162 313.823 276.849C314.522 276.778 316.288 278.213 316.927 278.568C318.239 279.271 319.523 280.017 320.836 280.72C323.476 282.198 326.124 283.712 328.785 285.11C329.967 285.728 330.445 285.139 331.443 284.517C333.402 283.28 336.017 282.657 338.197 281.938C339.773 281.383 340.458 280.525 341.39 279.052C344.828 273.558 347.897 267.201 353.756 263.757C355.299 262.87 356.938 262.076 358.321 260.96C359.418 260.091 360.679 259.113 361.638 258.123C362.531 257.184 362.99 255.96 363.622 254.851C364.141 253.915 364.265 253.25 364.624 252.272C364.835 251.664 365.526 251.369 365.629 250.784C364.551 252.1 364.079 253.439 363.457 254.96C362.623 256.902 361.252 258.617 359.677 260.075C358.26 261.386 356.527 262.087 355.051 263.298C353.252 264.765 351.402 266.167 349.473 267.548C346.726 269.514 343.927 272.13 341.872 274.703C341.044 275.778 340.697 277.355 340 278.516C339.552 279.248 338.929 279.867 338.525 280.629C338.283 281.093 338.122 281.578 337.844 282.049C337.24 283.116 336.361 284.127 335.167 284.527C334.75 284.689 334.339 284.7 333.899 284.755C332.291 284.978 330.789 285.706 329.25 286.254C327.314 285.268 325.335 284.253 321.927 282.522C319.986 284.207 317.988 285.978 315.389 288.289C325.272 293.477 330.952 299.244 330.61 306.234C330.055 307.177 329.544 308.148 329.018 309.048C331.9 309.347 334.631 309.641 337.39 309.891C337.405 309.963 337.385 310.042 337.364 310.122C334.562 310.031 331.797 309.933 329.104 309.819C329.868 311.314 330.507 312.571 331.088 313.728C330.811 313.485 330.527 313.206 330.258 312.999" fill="#1D1D1B"/>
</svg>
