<svg width="615" height="235" viewBox="0 0 615 235" fill="none" xmlns="http://www.w3.org/2000/svg">
<path d="M101.183 234.842C97.8085 234.842 92.7329 234.842 88.3431 230.602C83.8163 226.255 83.8162 220.961 83.8162 217.775V133.949H17.3943C14.1843 133.949 8.80688 133.949 4.38972 129.601C0 125.253 0 120.014 0 116.854V65.9211C0.0548715 53.6335 0.0548715 41.3459 0 29.0312V28.3831V24.1702C0 21.7127 0 19.2551 0 16.7706C0 11.8015 1.56384 7.72366 4.66408 4.645C9.35559 0 15.2817 0 17.2297 0C68.6168 0.0540116 120.909 0.0540116 165.904 0.0540116H411.701C414.993 0.0540116 419.932 0.0540115 424.294 4.07787C429.013 8.42581 429.04 13.935 429.068 16.9056C429.123 30.8406 429.15 44.7756 429.178 58.6836H596.92C600.569 58.6836 606.056 58.6836 610.555 63.1935C614.945 67.5955 614.945 72.7536 614.945 76.5344V87.5528C614.945 87.9308 614.945 88.3359 614.945 88.795V111.183C614.945 118.96 614.945 129.196 615 139.539C615 140.106 615 140.646 614.945 141.159V141.618C614.945 145.021 614.945 148.424 615 151.827C615 156.904 613.464 161.036 610.363 164.087C607.263 167.139 603.093 168.705 597.99 168.705C542.186 168.651 485.448 168.651 436.668 168.651H392.194V217.91C392.194 221.042 392.194 226.282 387.695 230.629C383.332 234.842 378.092 234.842 374.965 234.842C283.741 234.842 192.489 234.842 101.238 234.842H101.211H101.183Z" fill="#FFFFB4"/>
<path d="M600.842 139.458C600.842 142.375 599.992 143.131 597.056 143.131C525.86 143.077 454.664 143.077 383.469 143.077C380.268 143.077 378.667 144.643 378.667 147.776V211.78C378.667 215.56 378.667 215.56 374.744 215.56C283.794 215.56 192.818 215.56 101.841 215.56C97.78 215.56 97.7526 215.56 97.7526 211.645V112.776C97.7526 108.672 97.7526 108.672 93.6372 108.672H18.2438C14.1833 108.672 14.1558 108.672 14.1833 104.756C14.1833 75.6975 14.2656 46.6663 14.1833 17.608C14.1833 14.5834 15.2807 13.9893 18.0792 13.9893C83.7329 14.0703 149.359 14.0433 215.013 14.0433H411.371C415.294 14.0433 415.404 14.0433 415.431 17.8511C415.514 34.2436 415.514 50.6091 415.541 67.0016C415.541 70.4584 417.27 72.1867 420.726 72.1867H596.041C599.187 72.1867 600.76 73.7621 600.76 76.9127C600.76 97.7612 600.705 118.637 600.842 139.485" fill="black"/>
<path d="M600.842 139.458C600.842 142.375 599.992 143.131 597.056 143.131C525.86 143.077 454.664 143.077 383.469 143.077C380.268 143.077 378.667 144.643 378.667 147.776V211.78C378.667 215.56 378.667 215.56 374.744 215.56C283.794 215.56 192.818 215.56 101.841 215.56C97.78 215.56 97.7526 215.56 97.7526 211.645V112.776C97.7526 108.672 97.7526 108.672 93.6372 108.672H18.2438C14.1833 108.672 14.1558 108.672 14.1833 104.756C14.1833 75.6975 14.2656 46.6663 14.1833 17.608C14.1833 14.5834 15.2807 13.9893 18.0792 13.9893C83.7329 14.0703 149.359 14.0433 215.013 14.0433H411.371C415.294 14.0433 415.404 14.0433 415.431 17.8511C415.514 34.2436 415.514 50.6091 415.541 67.0016C415.541 70.4584 417.27 72.1867 420.726 72.1867H596.041C599.187 72.1867 600.76 73.7621 600.76 76.9127C600.76 97.7612 600.705 118.637 600.842 139.485V139.458Z" stroke="black" stroke-width="1.71432" stroke-miterlimit="10"/>
<path d="M600.842 151.691C600.842 154.608 599.992 155.364 597.056 155.364C525.86 155.283 454.664 155.31 383.469 155.31C380.268 155.31 378.667 156.876 378.667 160.009V218.261C378.667 222.041 378.667 222.041 374.744 222.041C283.794 222.041 192.818 222.041 101.841 222.041C97.78 222.041 97.7526 222.041 97.7526 218.126V125.01C97.7526 120.905 97.7526 120.905 93.6372 120.905H18.2438C14.1833 120.905 14.1558 120.905 14.1833 116.989C14.1833 87.9577 14.2656 58.8995 14.1833 29.8683C14.1833 26.8436 15.2807 26.2495 18.0792 26.2495C83.7329 26.3305 149.359 26.3035 215.013 26.3035H411.371C415.294 26.3035 415.404 26.3035 415.431 30.1113C415.514 46.4768 415.514 62.8694 415.541 79.2349C415.541 82.6916 417.27 84.42 420.726 84.42H596.041C599.187 84.42 600.76 85.9953 600.76 89.146C600.76 109.994 600.705 130.843 600.842 151.691Z" fill="#FFFFB4"/>
<path d="M600.842 151.691C600.842 154.608 599.992 155.364 597.056 155.364C525.86 155.283 454.664 155.31 383.469 155.31C380.268 155.31 378.667 156.876 378.667 160.009V218.261C378.667 222.041 378.667 222.041 374.744 222.041C283.794 222.041 192.818 222.041 101.841 222.041C97.78 222.041 97.7526 222.041 97.7526 218.126V125.01C97.7526 120.905 97.7526 120.905 93.6372 120.905H18.2438C14.1833 120.905 14.1558 120.905 14.1833 116.989C14.1833 87.9577 14.2656 58.8995 14.1833 29.8683C14.1833 26.8436 15.2807 26.2495 18.0792 26.2495C83.7329 26.3305 149.359 26.3035 215.013 26.3035H411.371C415.294 26.3035 415.404 26.3035 415.431 30.1113C415.514 46.4768 415.514 62.8694 415.541 79.2349C415.541 82.6916 417.27 84.42 420.726 84.42H596.041C599.187 84.42 600.76 85.9953 600.76 89.146C600.76 109.994 600.705 130.843 600.842 151.691Z" stroke="#1D1D1B" stroke-width="1.71432"/>
<path d="M307.444 117.529C307.444 112.722 307.499 107.915 307.444 103.135C307.417 100.705 308.349 99.5704 310.901 99.6784C313.233 99.7864 315.592 99.7594 317.924 99.6784C320.174 99.6244 321.08 100.678 321.052 102.811C320.997 108.185 320.97 113.559 321.134 118.934C321.162 119.879 322.204 120.77 322.781 121.688C323.357 120.743 324.372 119.825 324.399 118.853C324.564 113.667 324.564 108.482 324.454 103.297C324.399 100.543 325.634 99.5434 328.35 99.6244C331.862 99.7324 332.438 100.056 332.465 103.297C332.548 108.482 332.41 113.667 332.575 118.853C332.603 119.825 333.618 120.743 334.166 121.688C334.715 120.743 335.73 119.798 335.758 118.826C335.922 113.748 335.813 108.644 335.867 103.567C335.895 100.246 336.471 99.7324 339.818 99.6784C342.15 99.6514 344.51 99.6784 346.842 99.6784C348.762 99.6784 349.695 100.624 349.695 102.541C349.695 112.614 349.695 122.714 349.695 132.787C349.695 134.678 348.625 135.596 346.814 135.731C344.839 135.866 343.769 136.703 343.824 138.81C343.906 141.294 342.04 141.213 340.367 141.132C338.584 141.024 336.087 141.888 335.922 138.864C335.813 136.892 335.099 135.812 332.987 135.731C330.874 135.65 330.298 134.354 330.133 132.436C330.078 131.626 329.201 130.897 328.679 130.141C328.076 130.924 327.061 131.653 326.978 132.49C326.759 134.597 325.798 135.65 323.686 135.785C321.765 135.893 320.887 136.865 320.997 138.783C321.107 141.267 319.269 141.24 317.568 141.132C315.784 141.024 313.233 141.942 313.041 138.972C312.876 136.865 312.163 135.785 309.941 135.704C307.883 135.65 307.444 134.219 307.444 132.517C307.444 127.521 307.444 122.525 307.444 117.529Z" fill="#1D1D1B"/>
<path d="M412.522 114.828C412.522 115.693 412.522 116.557 412.522 117.421C412.522 120.41 414.031 121.904 417.049 121.904C417.543 121.904 418.036 121.904 418.503 121.904C420.341 121.985 421.548 121.391 421.548 119.338C421.548 117.583 422.481 116.638 424.264 116.638C426.624 116.638 427.173 115.315 427.2 113.289C427.337 107.591 427.365 107.591 421.548 107.591C420.972 107.591 420.369 107.591 419.792 107.591C411.342 107.672 412.632 106.646 412.522 114.828ZM398.557 120.608C398.557 114.936 398.53 109.265 398.557 103.594C398.585 100.326 399.243 99.7052 402.535 99.7052C412.11 99.6782 421.685 99.7052 431.261 99.6782C433.785 99.6782 435.321 100.218 435.486 103.135C435.54 103.972 437.049 105.268 438.037 105.43C440.095 105.755 440.973 106.592 440.945 108.59C440.89 112.803 440.918 117.043 440.945 121.256C440.945 123.659 439.848 124.794 437.351 124.686C435.486 124.632 433.62 124.524 431.809 124.821C430.986 124.956 430.328 126.009 429.614 126.63C430.328 127.116 431.041 127.98 431.782 128.007C434.032 128.088 435.486 128.574 435.486 131.248C435.486 131.977 436.995 133.165 437.927 133.3C441.467 133.787 440.863 136.298 440.945 138.54C441.028 141.105 439.244 141.132 437.379 141.132C433.181 141.132 428.983 141.105 424.786 141.132C422.865 141.132 421.521 140.673 421.548 138.432C421.548 136.676 420.588 135.785 418.832 135.731C416.582 135.65 415.896 134.408 415.759 132.355C415.704 131.599 414.772 130.87 414.25 130.114C413.674 130.924 412.741 131.68 412.604 132.544C412.357 134.435 412.44 136.379 412.522 138.297C412.604 140.295 411.617 141.105 409.723 141.105C406.98 141.105 404.264 141.105 401.52 141.105C399.463 141.105 398.53 140.214 398.557 138.107C398.612 132.247 398.557 126.387 398.557 120.527" fill="#1D1D1B"/>
<path d="M191.609 53.6067C182.857 53.6607 184.119 52.7425 184.01 61.1683C184.01 61.4654 184.01 61.7354 184.01 62.0325C184.01 67.9738 184.942 68.811 191.061 67.7307C191.829 67.5957 192.954 66.5155 192.981 65.8133C193.091 63.4368 194.271 62.7347 196.465 62.4376C197.343 62.3296 198.605 61.3034 198.825 60.4662C200.252 55.065 199.017 53.5797 193.393 53.5797C192.816 53.5797 192.213 53.5797 191.637 53.5797M170.319 66.4345C170.319 60.7632 170.401 55.092 170.292 49.4478C170.237 46.8012 171.17 45.586 173.996 45.613C183.763 45.694 193.53 45.694 203.297 45.613C205.711 45.613 207.001 46.4502 207.083 48.8807C207.138 50.6091 208.071 51.5003 209.882 51.4732C211.857 51.4462 212.653 52.4455 212.625 54.3359C212.57 58.6568 212.57 62.9777 212.625 67.2986C212.625 69.6211 211.555 70.6203 209.251 70.5933C207.385 70.5663 205.519 70.4583 203.681 70.7284C202.831 70.8634 202.145 71.8086 201.376 72.3757C202.117 72.9158 202.831 73.8881 203.599 73.9421C205.766 74.0771 207.056 74.6172 207.22 77.0747C207.275 77.8849 208.62 78.9651 209.607 79.2622C212.433 80.1264 212.872 80.8826 212.625 84.7174C212.433 87.445 210.513 87.0129 208.812 87.0399C204.614 87.0669 200.416 87.0399 196.219 87.0399C194.271 87.0399 192.981 86.4457 193.091 84.2313C193.173 82.5569 192.268 81.7737 190.594 81.7467C188.372 81.7197 187.659 80.4235 187.412 78.398C187.302 77.5608 186.232 76.8587 185.601 76.1025C185.08 76.8857 184.202 77.6148 184.092 78.452C183.845 80.3424 183.955 82.2869 184.01 84.2043C184.064 86.1217 183.214 87.0669 181.239 87.0129C178.605 86.9859 175.971 86.9589 173.337 87.0129C171.087 87.0669 170.237 86.1217 170.264 83.9072C170.374 78.0469 170.292 72.1867 170.292 66.3264" fill="#1D1D1B"/>
<path d="M212.599 174.754C212.599 180.426 212.49 186.097 212.654 191.741C212.737 194.442 211.612 195.36 209.033 195.198C206.783 195.063 204.533 195.063 202.284 195.198C199.677 195.36 198.772 194.199 198.964 191.768C199.074 190.148 198.909 188.5 198.991 186.88C199.101 184.963 198.305 183.963 196.303 184.071C194.163 184.18 193.12 183.369 192.983 181.074C192.928 180.264 191.611 179.021 190.706 178.859C188.593 178.508 187.66 177.644 187.441 175.538C187.331 174.646 186.371 173.836 185.822 172.999C185.219 173.917 184.149 174.836 184.121 175.754C183.957 181.128 183.957 186.502 184.066 191.876C184.094 194.172 183.271 195.252 180.829 195.171C178.195 195.063 175.561 195.117 172.927 195.117C171.117 195.117 170.294 194.28 170.321 192.47C170.348 180.561 170.321 168.651 170.321 156.742C170.321 154.527 171.418 153.636 173.586 153.663C175.918 153.69 178.277 153.717 180.609 153.663C182.722 153.582 183.984 154.311 184.066 156.553C184.121 158.497 185.081 159.577 187.167 159.577C189.142 159.577 189.718 160.684 189.965 162.521C190.075 163.358 191.364 164.627 192.187 164.708C194.519 164.897 195.425 165.897 195.672 168.111C195.754 168.921 196.742 169.65 197.318 170.407C197.866 169.515 198.854 168.651 198.909 167.76C199.101 164.114 199.046 160.468 199.019 156.823C199.019 154.662 199.979 153.636 202.201 153.717C204.533 153.771 206.893 153.798 209.225 153.717C211.776 153.609 212.682 154.824 212.654 157.201C212.572 163.061 212.654 168.921 212.654 174.781" fill="#1D1D1B"/>
<path d="M503.722 120.148V124.172C503.722 125.523 503.722 126.846 503.722 128.196C503.722 133.408 503.941 133.597 509.373 133.408C509.675 133.408 509.95 133.408 510.251 133.408C511.843 133.354 512.913 132.733 512.803 131.005C512.666 128.844 513.736 128.034 515.766 128.169C517.988 128.304 518.647 127.143 518.592 125.172C518.509 122.201 518.537 119.23 518.592 116.26C518.619 114.207 517.851 112.965 515.574 112.911C513.9 112.884 512.721 112.155 512.858 110.291C512.995 108.239 511.897 107.564 510.004 107.618C508.852 107.645 507.672 107.618 506.493 107.618C504.572 107.591 503.667 108.401 503.722 110.372C503.804 113.613 503.722 116.881 503.722 120.121M490.031 120.338C490.031 114.666 490.113 109.022 490.031 103.351C489.976 100.623 491.129 99.6241 493.872 99.6781C501.691 99.7861 509.483 99.7591 517.302 99.6781C519.634 99.6781 521.061 100.38 521.034 102.919C521.034 104.647 521.939 105.565 523.777 105.538C525.506 105.538 526.63 106.268 526.576 108.077C526.521 110.075 527.563 110.831 529.456 110.804C531.541 110.777 532.447 111.885 532.447 113.883C532.447 118.393 532.419 122.903 532.474 127.413C532.502 129.303 531.514 130.06 529.786 129.979C527.646 129.898 526.493 130.627 526.548 132.922C526.603 134.759 525.506 135.758 523.613 135.758C521.774 135.758 520.924 136.703 521.034 138.458C521.143 140.538 519.936 141.132 518.098 141.132C509.703 141.132 501.307 141.105 492.912 141.132C490.745 141.132 490.031 140.16 490.059 138.134C490.141 132.193 490.059 126.225 490.059 120.284" fill="#1D1D1B"/>
<path d="M335.842 66.3262C335.842 62.9775 335.814 59.6018 335.842 56.2531C335.842 54.4707 335.073 53.5795 333.235 53.6065C330.025 53.6335 326.788 53.6065 323.578 53.6065C321.74 53.6065 320.999 54.4707 320.999 56.2801C321.054 63.0045 321.054 69.702 320.999 76.4264C320.999 78.6139 322.041 79.343 324.044 79.316C326.87 79.316 329.696 79.262 332.522 79.316C334.854 79.37 335.924 78.4518 335.869 76.0753C335.787 72.8076 335.869 69.5399 335.869 66.2992M328.544 87.1207C324.538 87.1207 320.532 87.0937 316.527 87.1207C314.387 87.1207 313.042 86.6616 312.795 84.1501C312.713 83.2859 311.259 82.0976 310.217 81.8546C308.214 81.3955 307.391 80.4503 307.391 78.5058C307.391 70.4311 307.418 62.3564 307.391 54.3087C307.391 52.5803 308.049 51.473 309.887 51.5001C312 51.5271 312.905 50.5278 312.96 48.5294C313.015 46.3149 314.359 45.6128 316.444 45.6128C324.456 45.6398 332.467 45.6668 340.478 45.6128C342.618 45.6128 343.853 46.2879 343.825 48.5564C343.825 50.4198 344.758 51.446 346.679 51.446C348.901 51.446 349.724 52.5263 349.724 54.7137C349.642 62.4914 349.642 70.2691 349.724 78.0467C349.724 80.3692 348.956 81.7195 346.432 81.8276C344.676 81.8816 343.716 82.7458 343.825 84.5551C343.935 86.6616 342.646 87.1207 340.807 87.0937C336.692 87.0397 332.604 87.0937 328.489 87.0937" fill="#1D1D1B"/>
<path d="M212.599 120.824C212.599 126.576 212.544 132.355 212.627 138.107C212.654 140.349 211.804 141.267 209.554 141.186C207.112 141.105 204.67 141.105 202.228 141.186C199.896 141.294 198.826 140.43 198.936 137.999C199.073 134.732 198.854 131.464 198.991 128.223C199.128 125.55 197.921 124.605 195.342 124.686C192.516 124.767 189.69 124.686 186.837 124.713C184.916 124.713 183.984 125.631 183.984 127.575C183.984 131.113 183.929 134.678 183.984 138.242C184.011 140.322 183.133 141.24 181.021 141.186C178.277 141.132 175.561 141.159 172.817 141.159C171.007 141.159 170.211 140.322 170.211 138.486C170.266 126.576 170.238 114.666 170.211 102.757C170.211 100.515 171.336 99.6512 173.476 99.7052C175.918 99.7322 178.359 99.7592 180.801 99.7052C183.078 99.6512 183.929 100.812 183.929 102.919C183.929 106.268 183.984 109.643 183.929 112.992C183.874 115.504 184.889 116.746 187.578 116.638C190.102 116.53 192.653 116.53 195.205 116.638C198.031 116.773 199.046 115.504 198.936 112.83C198.826 109.67 198.991 106.484 198.909 103.324C198.826 100.812 199.787 99.5432 202.503 99.7052C204.753 99.8132 207.002 99.7862 209.252 99.7052C211.611 99.6242 212.599 100.65 212.572 102.973C212.517 108.914 212.572 114.882 212.572 120.824" fill="#1D1D1B"/>
<path d="M381.576 120.5C381.576 117.151 381.522 113.776 381.576 110.427C381.631 108.455 380.726 107.618 378.805 107.618C375.678 107.618 372.55 107.618 369.422 107.618C367.667 107.618 366.706 108.32 366.706 110.184C366.734 117.016 366.734 123.822 366.706 130.654C366.706 132.626 367.721 133.436 369.614 133.409C372.55 133.409 375.486 133.409 378.394 133.409C380.561 133.409 381.631 132.545 381.549 130.303C381.467 127.035 381.549 123.768 381.549 120.5M395.294 120.716C395.294 124.551 395.267 128.386 395.294 132.221C395.322 134.381 394.608 135.758 392.167 135.785C390.301 135.812 389.588 136.92 389.643 138.594C389.697 140.484 388.6 141.132 386.872 141.132C378.366 141.132 369.889 141.132 361.384 141.132C359.738 141.132 358.777 140.457 358.805 138.729C358.86 136.677 357.735 135.812 355.759 135.704C353.674 135.596 352.961 134.327 352.961 132.41C352.988 124.443 352.988 116.476 352.961 108.51C352.961 106.646 353.674 105.539 355.622 105.539C357.817 105.539 358.832 104.459 358.86 102.325C358.86 100.165 360.259 99.6516 362.179 99.6516C370.191 99.6786 378.174 99.6786 386.186 99.6516C388.271 99.6516 389.56 100.354 389.643 102.595C389.697 104.567 390.658 105.593 392.743 105.539C394.581 105.512 395.294 106.538 395.267 108.293C395.212 112.425 395.267 116.557 395.267 120.662" fill="#1D1D1B"/>
<path d="M100.028 87.1205C95.9404 87.1205 91.8251 87.1205 87.7371 87.1205C85.7618 87.1205 84.5272 86.5264 84.6643 84.3119C84.7741 82.6106 83.8138 81.9084 82.1677 81.8274C78.6285 81.6384 79.0949 79.0458 79.04 76.7503C78.9577 73.9957 80.9056 74.0498 82.8261 74.0768C85.1582 74.0768 87.5177 74.1038 89.8497 74.0768C91.6605 74.0768 92.9499 74.5899 92.8128 76.6963C92.6756 78.7758 93.8828 79.3699 95.721 79.3429C98.7389 79.3429 101.784 79.3429 104.802 79.3429C106.613 79.3429 107.546 78.5867 107.463 76.7503C107.463 76.5613 107.463 76.3722 107.463 76.1832C107.656 70.755 107.546 70.647 102.141 70.647C97.6415 70.647 93.1694 70.593 88.67 70.647C86.1184 70.674 84.4449 69.9719 84.6369 67.0823C84.7467 65.3269 83.7315 64.6787 82.1128 64.7327C79.7533 64.8138 79.0674 63.4095 79.0674 61.438C79.0674 59.2236 79.0949 57.0361 79.04 54.8216C78.9851 52.7422 79.6985 51.4459 82.0031 51.4999C83.8961 51.5539 84.6918 50.5547 84.6643 48.8263C84.6095 46.4498 85.8715 45.6397 88.1487 45.6667C96.1599 45.7207 104.171 45.7207 112.182 45.6667C114.46 45.6667 115.694 46.4498 115.667 48.8263C115.639 50.5817 116.49 51.4999 118.328 51.4999C121.181 51.4999 121.565 53.2283 121.511 55.5508C121.456 58.0353 120.303 59.0075 117.889 58.9535C115.447 58.8995 113.005 58.9535 110.564 58.9265C108.808 58.8995 107.463 58.2784 107.546 56.2529C107.628 54.1735 106.476 53.6334 104.61 53.6604C101.482 53.7414 98.3548 53.5254 95.2546 53.7954C94.404 53.8764 93.0323 55.1457 93.0048 55.9289C92.703 63.6525 92.7853 62.5723 99.0681 62.6263C103.376 62.6533 107.656 62.6533 111.963 62.6263C114.185 62.6263 115.694 63.1124 115.804 65.786C115.831 66.5151 117.285 67.7304 118.163 67.8114C120.55 68.0545 121.428 69.2157 121.428 71.3762C121.428 73.1045 121.428 74.8329 121.511 76.5613C121.675 79.5319 121.264 81.9624 117.368 82.1245C116.764 82.1245 115.776 83.5558 115.776 84.339C115.749 86.7425 114.46 87.2286 112.402 87.2016C108.314 87.1476 104.199 87.2016 100.111 87.2016" fill="#1D1D1B"/>
<path d="M237.129 87.0934C233.013 87.0934 228.926 87.0664 224.81 87.0934C222.807 87.1204 221.6 86.4993 221.765 84.3118C221.902 82.5835 220.859 82.0434 219.296 81.8003C216.25 81.3142 215.756 80.288 215.948 76.6152C216.113 73.8066 218.088 74.1036 219.927 74.0766C222.259 74.0496 224.618 74.0766 226.95 74.0766C228.788 74.0766 229.996 74.7248 229.913 76.7502C229.831 78.6136 230.873 79.3158 232.629 79.2888C235.647 79.2888 238.693 79.2888 241.711 79.2888C243.604 79.2888 244.509 78.6136 244.591 76.5882C244.838 70.7009 244.811 70.5929 238.83 70.5929C234.44 70.5929 230.05 70.5389 225.633 70.5929C223.219 70.6199 221.573 69.9718 221.765 67.2172C221.902 65.2998 220.832 64.6516 219.104 64.6786C216.854 64.7056 215.976 63.4634 215.976 61.4109C215.976 59.1154 216.003 56.7929 215.976 54.4974C215.921 52.634 216.744 51.4998 218.665 51.4998C220.887 51.4998 221.902 50.5276 221.82 48.3671C221.765 46.2067 223.082 45.6125 225.03 45.6395C233.151 45.6665 241.244 45.6665 249.365 45.6395C251.505 45.6395 252.712 46.4767 252.712 48.6642C252.712 50.5276 253.535 51.4728 255.538 51.4998C258.693 51.5538 258.172 53.9033 258.254 55.8747C258.337 57.9542 257.322 58.8724 255.264 58.8724C253.316 58.8724 251.341 58.8454 249.393 58.8994C246.649 58.9804 244.207 58.8994 244.372 55.1186C244.372 54.6595 243.082 53.7413 242.342 53.6873C238.94 53.5252 235.51 53.4982 232.108 53.7143C231.34 53.7683 230.627 55.0106 229.968 55.7667C229.831 55.9287 229.941 56.3338 229.913 56.6039C229.694 62.4912 229.749 62.5182 235.757 62.5182C240.256 62.5182 244.728 62.5182 249.228 62.5182C251.368 62.5182 252.74 63.1663 252.85 65.6508C252.877 66.407 254.139 67.6763 254.88 67.7033C257.678 67.8113 258.337 69.2966 258.282 71.6461C258.199 73.8606 258.254 76.0751 258.282 78.2625C258.282 80.261 257.623 81.6923 255.319 81.7463C253.481 81.8003 252.63 82.6375 252.74 84.4469C252.849 86.5533 251.533 87.0394 249.749 87.0394C245.552 87.0394 241.354 87.0394 237.156 87.0394" fill="#1D1D1B"/>
<path d="M145.767 87.1209C139.895 87.1209 134.051 87.0669 128.18 87.1479C125.766 87.1749 124.641 86.4998 124.668 83.8802C124.778 72.3487 124.751 60.8173 124.668 49.2858C124.668 46.5312 125.766 45.559 128.509 45.586C140.032 45.667 151.556 45.586 163.079 45.64C166.481 45.64 166.974 46.1801 166.974 49.5018C166.974 53.0126 166.535 53.5527 162.969 53.5527C155.945 53.5797 148.894 53.6877 141.871 53.5257C138.688 53.4447 138.139 54.876 138.222 57.5496C138.386 62.0325 138.551 62.4646 141.926 62.4916C146.809 62.5456 151.693 62.4916 156.576 62.4916C160.746 62.4916 161.103 62.8157 161.103 66.2724C161.103 70.1073 160.664 70.5393 156.384 70.5664C151.61 70.5664 146.809 70.5393 142.035 70.5664C138.524 70.5934 138.277 70.9714 138.277 75.1033C138.277 78.9381 138.524 79.2352 142.035 79.2622C148.867 79.2892 155.726 79.2622 162.557 79.2892C166.508 79.2892 168.401 82.0708 166.727 85.6356C166.371 86.4187 164.697 86.9589 163.6 86.9859C157.646 87.1209 151.693 87.0399 145.712 87.0399" fill="#1D1D1B"/>
<path d="M237.014 141.186C231.252 141.186 225.491 141.132 219.729 141.213C217.068 141.267 215.861 140.457 215.916 137.568C216.053 126.333 215.971 115.099 215.998 103.864C215.998 100.165 216.492 99.7056 220.223 99.7056C231.554 99.7056 242.885 99.7056 254.189 99.7056C257.728 99.7056 258.249 100.273 258.249 103.729C258.249 107.105 257.755 107.591 254.079 107.591C247.138 107.591 240.224 107.672 233.283 107.591C230.759 107.564 229.634 108.428 229.908 110.94C229.99 111.804 229.963 112.668 229.908 113.533C229.826 115.72 230.841 116.665 233.091 116.638C238.276 116.584 243.434 116.611 248.619 116.638C252.159 116.665 252.707 117.205 252.735 120.311C252.762 123.876 252.076 124.659 248.592 124.686C243.516 124.74 238.441 124.821 233.365 124.686C230.018 124.578 229.853 126.468 229.908 128.926C229.99 133.058 230.128 133.382 233.392 133.409C240.334 133.463 247.247 133.409 254.189 133.436C257.755 133.436 259.868 137.082 257.975 140.052C257.508 140.781 255.972 141.105 254.93 141.132C248.976 141.24 243.022 141.186 237.069 141.186" fill="#1D1D1B"/>
<path d="M75.5331 63.7068C75.5331 68.4058 75.5057 73.1318 75.5331 77.8308C75.5605 80.1263 75.0393 81.6926 72.2682 81.9627C71.4452 82.0437 70.2106 83.421 70.1557 84.2852C69.9911 86.4727 68.9485 87.0938 66.9731 87.0938C58.6601 87.0938 50.3745 87.0938 42.0615 87.0938C40.2507 87.0938 38.9612 86.6347 39.0984 84.5282C39.2356 82.6918 38.2753 81.8817 36.5194 81.8007C34.0228 81.6926 33.2272 80.2073 33.2546 77.9388C33.282 68.4328 33.3095 58.9267 33.2546 49.4207C33.2546 46.7741 34.2423 45.4509 37.0682 45.6129C38.9338 45.7209 40.772 45.6129 42.6376 45.6129C46.7804 45.6399 47.2194 46.045 47.2194 50.0418C47.2194 58.4136 47.2194 66.7584 47.2194 75.1032C47.2194 79.1541 47.384 79.2891 51.5268 79.3161C53.4747 79.3161 55.4227 79.3161 57.3981 79.3161C61.7878 79.3161 61.8975 79.2081 61.8975 75.0222C61.8975 66.6504 61.8975 58.3056 61.8975 49.9608C61.8975 45.964 62.1993 45.6669 66.1775 45.6399C68.1254 45.6399 70.1008 45.7209 72.0488 45.6399C74.5728 45.5049 75.588 46.6121 75.5605 49.0426C75.5057 53.9307 75.5605 58.8457 75.5605 63.7338" fill="#1D1D1B"/>
<path d="M328.544 195.17C322.59 195.17 316.636 195.116 310.683 195.197C308.323 195.224 307.391 194.414 307.391 192.011C307.473 180.506 307.473 168.975 307.391 157.47C307.391 154.824 308.269 153.636 311.122 153.663C322.727 153.744 334.36 153.663 345.965 153.717C349.258 153.717 349.724 154.311 349.724 157.713C349.724 161.089 349.258 161.602 345.883 161.629C338.75 161.656 331.644 161.71 324.511 161.629C321.877 161.602 320.67 162.547 320.999 165.194C321.081 165.761 320.999 166.355 320.999 166.922C321.054 170.244 321.465 170.676 324.977 170.703C329.861 170.73 334.744 170.703 339.628 170.703C343.524 170.703 343.825 171.027 343.853 174.457C343.853 178.238 343.386 178.751 339.436 178.751C334.47 178.778 329.476 178.886 324.511 178.751C321.273 178.67 320.889 180.398 320.971 182.964C321.081 187.042 321.246 187.474 324.428 187.501C331.452 187.555 338.475 187.501 345.499 187.528C349.203 187.528 351.288 190.904 349.367 194.009C348.928 194.738 347.392 195.116 346.349 195.143C340.396 195.251 334.442 195.197 328.489 195.197" fill="#1D1D1B"/>
<path d="M167.033 171.649C167.033 176.456 166.978 181.236 167.033 186.043C167.06 188.311 166.347 189.77 163.823 189.878C162.094 189.959 161.107 190.823 161.161 192.605C161.244 194.442 160.283 195.171 158.473 195.171C150.077 195.171 141.682 195.171 133.287 195.171C131.421 195.171 130.296 194.469 130.324 192.47C130.351 190.688 129.391 189.851 127.608 189.824C125.303 189.77 124.672 188.392 124.672 186.367C124.672 176.591 124.699 166.788 124.672 157.012C124.672 154.527 125.797 153.555 128.239 153.663C130.379 153.744 132.546 153.771 134.686 153.663C137.347 153.501 138.335 154.635 138.307 157.201C138.225 165.842 138.28 174.457 138.307 183.099C138.307 187.231 138.527 187.42 142.807 187.447C145.139 187.447 147.498 187.393 149.83 187.447C152.327 187.528 153.287 186.394 153.26 183.963C153.178 175.43 153.233 166.896 153.26 158.335C153.26 153.906 153.534 153.609 158.089 153.636C168.267 153.69 166.896 152.61 166.978 162.386C167.005 165.464 166.978 168.516 166.978 171.595" fill="#1D1D1B"/>
<path d="M352.991 66.5963C352.991 60.9251 352.991 55.2539 352.991 49.6097C352.991 46.1529 353.457 45.6668 356.804 45.6668C368.437 45.6398 380.042 45.7208 391.675 45.6128C394.611 45.6128 395.379 46.9091 395.297 49.5016C395.187 53.0124 394.858 53.5525 391.62 53.5795C384.487 53.6335 377.354 53.7145 370.22 53.5525C366.901 53.4715 366.626 55.1999 366.681 57.7114C366.791 61.9513 367.065 62.4914 370.248 62.5184C375.433 62.5724 380.591 62.5184 385.776 62.5454C389.124 62.5724 389.645 63.1936 389.617 66.5153C389.617 69.756 388.904 70.5391 385.749 70.5661C380.673 70.6202 375.598 70.6472 370.522 70.5661C367.833 70.5121 366.571 71.4843 366.681 74.2929C366.846 77.4526 366.626 80.6393 366.736 83.799C366.818 86.0945 365.968 87.2017 363.526 87.0937C361.084 86.9857 358.642 87.0127 356.201 87.0937C353.841 87.1747 352.881 86.2295 352.936 83.853C353.046 78.1008 352.963 72.3215 352.963 66.5693" fill="#1D1D1B"/>
<path d="M240.032 195.171C235.038 195.171 230.072 195.117 225.079 195.198C222.747 195.252 221.65 194.496 221.759 192.038C221.869 189.716 221.732 187.447 225.079 187.501C226.945 187.501 228.783 187.501 230.649 187.447C232.295 187.42 233.145 186.637 233.145 184.936C233.145 178.022 233.118 171.109 233.145 164.195C233.145 162.278 232.212 161.657 230.457 161.657C228.591 161.657 226.753 161.576 224.887 161.657C222.089 161.765 221.732 160.063 221.787 157.903C221.842 155.851 221.595 153.717 224.75 153.717C234.901 153.744 245.08 153.744 255.231 153.717C258.304 153.717 258.276 155.742 258.276 157.849C258.276 159.955 258.002 161.738 255.176 161.657C253.311 161.603 251.472 161.657 249.607 161.657C247.686 161.657 246.781 162.494 246.781 164.465C246.836 171.19 246.808 177.914 246.781 184.639C246.781 186.583 247.741 187.447 249.634 187.474C251.39 187.474 253.146 187.555 254.902 187.501C257.975 187.42 258.222 189.392 258.304 191.714C258.359 194.091 257.618 195.279 254.984 195.198C250.018 195.09 245.025 195.171 240.032 195.171Z" fill="#1D1D1B"/>
<path d="M285.829 153.69C290.713 153.69 295.569 153.771 300.453 153.663C303.388 153.609 304.102 155.094 304.074 157.632C304.074 160.063 303.58 161.872 300.562 161.656C300.453 161.656 300.37 161.656 300.261 161.656C295.194 161.782 292.661 164.294 292.661 169.191C292.661 176.671 292.579 184.152 292.688 191.633C292.716 194.198 291.81 195.359 289.122 195.224C286.79 195.089 284.43 195.116 282.098 195.224C279.601 195.332 278.641 194.306 278.669 191.822C278.778 183.207 278.724 174.565 278.696 165.95C278.696 163.124 277.215 161.71 274.252 161.71C273.483 161.71 272.688 161.71 271.919 161.71C267.639 161.683 266.076 159.739 267.53 155.715C267.859 154.797 269.697 153.906 270.849 153.852C275.815 153.636 280.781 153.771 285.775 153.771" fill="#1D1D1B"/>
<path d="M449.973 120.446C449.973 114.775 449.973 109.13 449.973 103.486C449.973 100.191 450.467 99.7593 453.952 99.7053C455.9 99.6783 457.848 99.6783 459.795 99.7053C463.143 99.7593 463.774 100.272 463.801 103.54C463.856 110.265 463.801 116.962 463.829 123.686C463.829 125.793 463.911 127.899 463.829 130.006C463.719 132.436 464.761 133.49 467.285 133.436C472.443 133.355 477.629 133.382 482.787 133.436C486.216 133.49 488.246 137.054 486.436 139.971C486.024 140.619 484.817 141.105 483.966 141.105C473.541 141.186 463.115 141.132 452.662 141.132C450.687 141.132 449.919 140.187 449.946 138.27C450.028 132.328 449.946 126.387 449.946 120.446" fill="#1D1D1B"/>
<path d="M148.645 99.7054C153.611 99.7054 158.604 99.7864 163.57 99.7054C166.616 99.6513 167.055 101.353 167.055 103.783C167.055 106.16 166.451 107.726 163.653 107.618C162.006 107.537 160.333 107.699 158.687 107.618C156.382 107.483 155.641 108.509 155.641 110.697C155.724 119.636 155.586 128.548 155.724 137.459C155.779 140.187 154.873 141.348 152.047 141.213C149.715 141.078 147.356 141.132 145.024 141.213C142.664 141.294 141.704 140.322 141.731 137.946C141.814 129.223 141.759 120.473 141.731 111.75C141.731 107.699 141.649 107.645 137.424 107.618C136.546 107.618 135.668 107.618 134.79 107.618C130.867 107.591 130.263 106.889 130.373 103.054C130.428 100.813 131.361 99.7054 133.72 99.7324C138.686 99.7864 143.679 99.7324 148.645 99.7324" fill="#1D1D1B"/>
<path d="M564.272 141.429C562.406 141.321 561.611 142.186 561.666 144.022C561.748 146.209 560.513 147.182 558.428 147.209C555.904 147.236 553.353 147.263 550.828 147.209C548.057 147.155 547.92 145.183 547.893 143.158C547.865 141.213 547.893 139.323 550.664 139.512C553.106 139.674 553.654 138.378 553.517 136.325C553.435 134.894 553.627 133.436 553.49 132.004C553.188 129.196 554.45 128.116 557.194 128.359C558.264 128.44 559.334 128.359 560.404 128.359C568.223 128.359 567.262 127.873 567.317 135.164" fill="#1D1D1B"/>
</svg>
